<?xml version="1.0" encoding="UTF-8"?>
<svg id="Layer_1" data-name="Layer 1" xmlns="http://www.w3.org/2000/svg" viewBox="0 0 226.77 226.77">
  <defs>
    <style>
      .cls-1 {
        stroke-width: .3px;
      }

      .cls-1, .cls-2, .cls-3, .cls-4, .cls-5, .cls-6 {
        fill: none;
        stroke: #000;
        stroke-linecap: round;
      }

      .cls-1, .cls-2, .cls-3, .cls-4, .cls-5, .cls-6, .cls-7 {
        fill-rule: evenodd;
      }

      .cls-2 {
        stroke-width: .25px;
      }

      .cls-3 {
        stroke-width: .47px;
      }

      .cls-4 {
        stroke-width: .32px;
      }

      .cls-5 {
        stroke-width: .31px;
      }

      .cls-6 {
        stroke-width: .3px;
      }

      .cls-7 {
        stroke-width: 0px;
      }
    </style>
  </defs>
  <path class="cls-7" d="m87.79,114.96c.29-.98.29.98,0,0h0Z"/>
  <path class="cls-7" d="m90.02,136.78c1.26.2-.04,1.42-.25,1.73-.7-.41.12-1.34.25-1.73Z"/>
  <path class="cls-7" d="m25.72,190.33c.3.11.51.32.49.74-.53.12-.47-.35-.49-.74Z"/>
  <path class="cls-7" d="m34.62,192.31c0-.24.3-.19.49-.25,0,.24-.3.19-.49.25Z"/>
  <path class="cls-7" d="m218.12,210.66c.29-.98.29.98,0,0h0Z"/>
  <path class="cls-7" d="m190.67,221.57c0-.24.3-.19.49-.25,0,.24-.3.19-.49.25Z"/>
  <path class="cls-7" d="m150.11,2.9c1.04.3.44-1.04.99-1.24,4.06,0,7.25.1,11.13.25,2.64-1.3,5.46-1.6,8.66-1.24,2.03.23,3.97,1.09,5.93.99,2.18-.11,4.71-1.36,7.17,0,2.6-.93,6.08.36,8.16-1.24,4.28,1.54,11.15-.27,16.32.99.78-.13,1.08-.73,1.98-.74,4.46.95,10.85-1.14,14.59.99.59,4.22.9,7.47,1.73,11.65-.65.43.31,2.46-1.24,1.98,1.86,1.4.94,4.37.99,7.19.04,2.07.77,3.74-.5,5.21.94,3.22.86,7.69-.25,10.41.7,2,.33,4.08.25,6.45.17.92-1.06.43-1.24.99.68.77,1.23,1.13,1.48,2.48.34,1.82-.4,4.26-.74,5.7.46.86.37,2.27.74,3.22-1.89,4.63.75,8.76-.74,12.89.46,1.51.83,3.18.74,4.71-.13,2.24-1.22,4.08-.99,6.69.17,1.95,1.56,4.05,0,5.95.58,2.45,0,4.58.99,6.69-.62,2.33.41,5.29-.74,7.93-.1,1.18.36,1.79.49,2.73-1.35,1.67-1.05,4.27-.25,6.2-1.17,4.81,1.38,10.07-.74,13.88.55,1.27.58,3.05,1.24,4.21-1.33,7.6-.14,14.89-.25,22.31-.9.58-.29,2.68-1.98,2.48,1.91.11.53,1.97,1.98,2.48.1,2.21-.05,4.49-.49,5.45.97,1.93-.17,4.2,0,6.2.06.68.48,1.09.49,1.73.06,1.82.06,3.82,0,5.7-.02.76-.45,1.46-.49,2.23-.08,1.4.56,2.83.49,4.21-.03.68-.44,1.32-.49,1.98-.22,2.48.06,5.03,0,7.44-.18,7.77-.89,15.43-.25,23.3.24,2.92.16,6.5.74,9.92-1.23,1.61-3.43.77-5.19.74-1.74-.02-3.61.65-5.19,0-5.19,1.14-12.88.06-17.31,0-6.37-.08-14.14.28-20.03.5-2.21.08-4.52.07-6.68,0-1.73-.05-3.44-.53-5.19-.5-3.13.07-6.48,1.27-10.39,1.24-1.76-.02-3.5-.12-5.44,0-2.71.17-5.52-.54-7.91-.5-1.41.03-2.68.89-3.71,0-.4.42-1.55.1-1.48.99-.6-.84-2.02-.44-2.72,0-.68-.39-1.37-.77-2.22-.99-3.2-.33-5.69.44-8.41.25-2.35-.17-4.61-.9-6.92-.74-.8.05-1.62.45-2.47.5-4.67.23-9.56-.12-14.34.25-1.74.13-3.75-.37-5.44-.25-.5.04-1.01.5-1.48.5-.64,0-1.37-.45-1.98-.5-3.61-.26-7.33.55-10.88.5-.62,0-1.14-.44-1.73-.5-2.15-.2-4.41.54-6.43-.25-2.54,1.15-6.01.58-8.65-.5-1.45,1.12-3.94.04-5.19.99-3.3-1.33-8.79.61-12.86-.74-1.87.5-4.64.81-6.43,0-1.65.12-5.07.88-5.93-.5-1.02.61-2.46.74-3.71.74-2.99.01-6.44.12-9.89,0-2.67-.09-5.47-.88-8.16-.99-3.88-.16-7.73.84-10.88-.5-.6-2.65-.25-5.47-.25-8.18,0-8.16-.35-15.51-.25-22.56.06-4.2.83-8.53-.25-12.15,1.04-16.02-.61-31.28.74-47.1-.85-3.75-.19-9.25-.25-13.88-.05-4.14-.64-8.07.25-11.4-.97-2.77-.1-5.46-.25-8.43-.08-1.57-.34-2.95-.25-4.96.23-4.81,0-10.11,0-15.37,0-3.95.74-8.12.74-12.15,0-4.41-.75-10.09-.5-14.88.13-2.48,1.1-5.23.99-8.43-.02-.64-.43-1.33-.49-1.98-.31-3.3.62-6.75.25-10.41-.13-.88.4-1.09.74-1.49-.59-9.52-.54-19.49.74-29.01C7.22-.82,13.27,2.17,18.3.18c3.86-.06,6.61.72,10.39,0,.42.05.64-.42.74,0,.09.33.44.39.5.74.58.35.48-.3,1.24-.25.37.03.68.5.74.5.59,0,1.14-.46,1.73-.5.53-.03.96.44,1.48.5,1.14.11,3.63-.7,4.7-.5.23.04.22.51.74.5,1.4-.04,2.76-.55,4.2-.5,4.72.19,9.63,1.17,14.59,0,2.15,1.21,4.89.35,7.42,1.24,2.24-.83,4.04-.2,6.18,0,3.12.3,5.83-1.34,8.41-1.24.83.03,1.47.58,2.23.74,3.79.81,7.85-.38,12.12.5,1.11.03,1.24-.91,2.23-.99,1.84-.11,3.43.03,4.7.5,2.16.05,4.29-.68,5.94.25,5.61-.99,10.39.78,15.09-.74,1.53.7,3.34-.13,5.19,0,.84.06,1.58.44,2.47.5,2.58.15,5.07-.73,7.42-.5.86.09,1.66.61,2.47.74,1.11.18,2.51-.68,3.22.5,1.08-.65,2.82-.64,4.45-.74,1.05-.15.77,1.05,1.24,1.49Zm57.87,0c.65.09.89.6.74,1.49,1.43-.06.47-2.31-.25-2.48-.13.37-.37.62-.49.99ZM4.45,16.79v.25c.77.42.47.73.49,1.24.12,2.73-.1,6.06-.25,9.17-.33,7.22.64,15.05,0,22.06-.07.75-.46,1.29-.49,1.98-.08,1.42.42,3.04.49,4.46.12,2.42-.47,4.73-.49,6.94-.01,1.23.32,2.34.25,3.47-.05.72-.44,1.42-.5,2.23-.13,2.04.59,4.15.5,6.2-.09,1.97-1.19,4.58,0,6.45-1.22,4.07,1.2,8.26-.74,11.9.82,3.21,1.07,9.22.25,13.39.01.81.7.95.5,1.98-1.35,7.02.23,14.48,0,21.57-.08,2.33-.83,4.56,0,6.69-1.11,2.36-.04,4.92,0,7.44.05,3.17-.58,6.51-.25,9.67.07.65.49,1.3.49,1.98,0,1.05-.47,1.88-.49,2.97-.05,2.62.77,5.54.74,8.43-.04,4.41-.49,9.81-.49,14.63,0,2.91-.2,5.49,0,8.68.08,1.31.54,2.7.49,3.97-.03.8-.52,1.51-.49,2.23.08,1.97.82,3.9.74,5.95-.1,2.75.35,6.33.74,9.42-.92,2.3-.32,5.89.74,7.69,4.73.64,8.55,1.71,13.35,1.74.62-.21.97-.68,1.73-.74,3.33-.04,6.74,1.27,9.15-.25,3.39-.59,6.01.58,8.65.74,1.92.12,3.81-.74,5.94,0,1.66-.39,4.54-1.03,7.17-.74.54.06.94.49,1.48.5,2.24.02,4.8-.98,6.43.25,3.21-.97,7.91.26,10.39.5.93-.22,1.6-.71,2.72-.74,1.15-.24,1.49.32,2.23.5.58-.65,4.5-.88,5.69,0,1.34-1.1,3.54.19,5.19-.5.63.03.87.46,1.24.74,2.83-1.33,5.8.11,8.66,0,2.49-.1,5.25-.7,8.16-.25.84-.06,1.19-.63,2.23-.5,4.26,1.43,8.35-.44,13.35,0,.65.06,1.07.49,1.73.5.6,0,1.17-.47,1.73-.5.66-.03,1.64.46,2.47.5,1.82.09,3.88-.37,5.44-.25.47.04,1.06.51,1.48.5-.09,0,.33-.5.74-.5s2.37.16,3.21,0c1.54-.29,3.28-.82,5.19.25,2.2-.45,4.95.2,7.17.5,3.23-1.34,6.41.26,9.64.25.93,0,1.98-.41,2.97-.5,2.47-.21,5.09.04,7.91,0,.62-.01,1.14-.44,1.73-.5,1.93-.18,3.95.48,5.93.5,3.9-1.12,7.49-.25,11.13-.74.75,1.46,2.74.34,3.46,1.98.88-.83-1.13-1.15-.25-1.98,1.46.23,2.55-.71,2.97.5-.04-.7.61-.72,1.24-.74,4.21.79,7.97-.55,11.87-.5,1.94.03,3.85.61,5.93.25.74-.5,1.55-.92,2.47-1.24,1.01.48,1.91.28,2.72.5.31-.52.72-.93,1.24-1.24-.09-4.63-.29-6.74,0-11.9-.41-.67-.68-1.47-1.24-1.98,1.12-3.4,1.62-9.98.25-14.63.46-.62.6-1.55.99-2.23.04-2.66.44-5.28-.25-8.18-.02-1.01.78-1.2.74-2.23-1.51-7.24-1.13-15.45-.49-23.06-.73-2.5-.52-7.37.49-9.67-.69-1.35-.33-4.2-.25-5.95-1.01-.89-.11-3.69-.99-4.71.06-1.02.84-1.31.99-2.23-.08-.59-.86-.46-.74-1.24.21-.54.64-.85.49-1.73-.22-3.19-.68-6.42-.25-9.92.08-.64.46-1.29.49-1.98.08-1.63-.61-3.39-.74-5.21-.11-1.47.25-3.02.25-4.46-.01-7.18-.61-14.36.25-21.32-.78-1.92-.72-4.18,0-6.69-.82-4.73.16-8.96-.49-13.64.55-3.35-.28-7.22-.25-11.65,1.46-2.95-.68-7.98.74-10.91-.33-1.24-.35-2.79-.74-3.97.56-.76.47-2.17.74-3.22-1.22-1.73-.1-3.87,0-5.95.11-2.29-.37-4.94-.25-7.19.08-1.6.26-3.46,1.48-4.46-2.96-2.21-.28-8.58-1.73-12.15-1.01-.02-2.03-.05-2.72.25-.29-1.36-3.23-.03-3.71-1.74-.94,1.05-5.37.06-7.42.74-1.31-.7-2.33-.51-3.71,0-2.26-1.32-5.38.55-7.67-.74.07.65-.34.81-.99.74-2.29-.15-3.78.34-4.7-.99.11.77-.53.79-1.24.74-1.77-.5-5.3.46-7.66,0-.65.26-1.52.3-2.47.25-.46-1.03.2-3.17-1.48-2.98.2.7-.35.64-.25,1.24-.26,1.16.83-.41.99.5-.43.31.63,1.02,0,1.74-3.48-.68-8.29,1.19-11.13-.74.04.54-.2.79-.74.74-4.89.02-9.62.12-13.35-.25-3.3,1.39-6.31.89-9.89.74-.79.07-.71-2.01-1.24-.74-1.02.52-5.82-.3-7.91.74-2.39.31-4.37-.98-6.92-.25-.37-.29-1.01-.31-1.24-.74-1.37-.02-1.85.52-2.72-.5-1.73,1.12-4.24.13-5.93.99-1.45-.32-1.74-.48-3.46-.25-.77-.88-3.34.05-3.71-1.24-.54,1.52-3.36.76-4.45,1.74-5.55-.31-10.09-1-15.09-.5-4.31-.63-9.61-.44-13.6-.5-.37-.93-1.42.26-1.48-.74-1.24.86-2.97,1.32-4.7.5.08.5-.05.78-.5.74-.93.36-.47-.68-1.24-.5-.77.22-1.22.76-1.98.99-3.29.27-6.67-.4-9.4,0-.23-.18-.37-.45-.49-.74-3.14,1.06-9.12.86-14.1.25-2.33-.29-5.7.19-9.15.25-.84-.07-1.04-.77-1.73-.99-.95.7-4.61.12-6.68.99-4.07.12-7.77-.63-11.13-.5-.21-.78.1-2.08-.74-2.23-.63.28.1,1.92-.49,2.23-3.81.07-5.07,1.48-7.17,3.47.08,2.68.93,5.03,0,7.44v-.25h-.25c-.11-.31-.32-.51-.74-.5-.07.65.09,1.07.74.99l-.12.12.12.12ZM88.78,4.39c.05-.19.21-.29.49-.25-.29-.7-.51-1.47-1.48-1.49.14.77.75,1.07.99,1.73Zm128.84-1.73c-.19.06-.49,0-.5.25.19-.06.49,0,.5-.25Zm-110.54.99h.5c.15-.01.29-.04.25-.25-.35-.06-.42-.41-.74-.5v.74Zm65.53,1.24c.59-.6-.81-.64-.74-.25,0-.02.84.15.74.25Zm50.45,3.22c-.5-.16-.07-1.25-.99-.99.63,1.34-.54,4.3.74,4.21-.2-.8-.36-2.16.25-2.97h.25v-.25c.32.09.39.44.74.5.19-.22.27-.56.25-.99h-.99v.25h-.25v.25Zm.25,11.16c.29.98.29-.98,0,0h0Zm1.24,5.95c.03-.62.47-.78-.25-.99-.32.33-.33.92.25.99Zm-1.24,1.24c.69.67,2.46.6,2.97-.25-.68-.66-2.54-.68-2.97.25Zm.25,10.66c1.18-.05-.42-.43,0-1.24-.59.15-1.79-.31-1.98.25.84.28-.08.96.49,1.24.14-.61.58-.91.99-1.24,0,.49.68.32.5.99Zm-1.48,3.22h.74c.04-.62-.38-.78-.74-.99v.99Zm.25,11.16c.25,0,.29.2.5.25,0-.25.2-.29.25-.5-.25,0-.29-.2-.49-.25,0,.25-.2.3-.25.5Zm-.49,11.65c-.19.06-.49,0-.5.25.19-.06.49,0,.5-.25Zm.25,2.23c.72.36.72-1.11,0-.74v.74Zm.49,16.36c1.14-.19,1.01.28.74.99,1.56-.24.18-2.43-.74-2.48v1.49Zm-.99,16.86c.29.98.29-.98,0,0h0Zm1.24.99c-.06-.44.25-1.24-.5-.99-.07.56.06.93.5.99Zm-.5,21.07h.5v-.5h-.5v.5Zm-.49,2.73c.25-.44.95-1.52,0-1.73-.14.56-.83,1.63,0,1.73Zm.99.74c0-.25-.43-.31-.5,0,.05.3.27.15.5,0Zm.25,11.9c-1.59,1.79,1,.38,0,0h0Zm0,19.59c.65.07.81-.34.74-.99h-.74v.99Zm-.74,2.23h.99c-.12-.62-.47-1.02-.74-1.49-.28.29-.28.88-.25,1.49Zm.25,3.72c.61-.64-.26-1.19-.74-1.49,0,.75-.14,1.63.74,1.49Zm-1.48,13.88c.65.07.64-.52.74-.99-.65-.08-.64.52-.74.99Zm1.48,0c.29.98.29-.98,0,0h0Zm-.99,14.87c.96.27.99-1.48.25-1.49-.28.29-.28.88-.25,1.49Zm.49,9.92c.43-1.07,1.22-2.79,0-3.47.2,1.2-.3,3,0,3.47Zm-156.29,22.56c0-.25-.43-.31-.5,0,.28-.03.39.36.5,0Zm20.28,1.24c.28-.29.28-.88.25-1.49h-.74c0,.66-.14,1.46.49,1.49Zm35.61,0v-1.49h-.99c.22.61.22,1.43.99,1.49Zm-1.73-.99c.29.98.29-.98,0,0h0Zm-34.62.5c-.19.06-.49,0-.49.25.19-.06.49,0,.49-.25Zm-29.43.74c.29.98.29-.98,0,0h0Z"/>
  <path class="cls-7" d="m216.39,16.79c.12,1.86.59,3.37,1.24,4.71-1.44,5.49.22,11.11-1.24,16.61,1.45,4.5-1.53,9.31.25,13.88-.4.42-.75.9-.74,1.74.5,3.46-.66,9.83.5,13.88-1.28,6.61.45,14.16-1.24,20.33.45,1.43.84,3.62,0,4.96.2,4,.95,8.76.74,13.14-.13,2.73-1.54,5.82,0,8.68-1.77,6.15.55,11.38-.74,17.85.68.94-.1,1.86.74,2.48-1.43,5.96.55,12.81-.49,18.59-.32.98.81.51.49,1.49.04,8.3-.67,15.8,0,22.81-.02.89-.38,1.43-.49,2.23,1.22,5.06,1.17,11.02.25,17.11.28,1.04.84,1.81,1.24,2.73-.21,4.01,0,6.76.74,10.16.46,1.12-.98.34-.74,1.24,0,2.23.38,2.58.49,4.71-5.75.21-11.5,1.23-17.06,1.24-1.72,0-3.5-.5-5.19-.5-2.24,0-4.4.76-6.43,0-2.36.35-5.57.51-8.41.5-2.12,0-4.46-.61-6.43-.5-.72.04-1.51.5-2.23.5-.81,0-1.39-.44-2.23-.5-1.32-.09-2.92.43-4.45.5-2.29.1-4.39.25-6.43.25-1.4,0-2.75-.47-4.21-.5-2.02-.04-4.01.39-5.93.25-3.88-.29-8.38-.72-12.37,0-.77.12-1.1-.22-.99-.99-.34.49-.5,1.15-1.24,1.24-7.51-1.86-17.39.8-25.23-.99-.39.44-1.32.33-1.73.74-3.99-.52-6.95-.62-11.62,0-.79-.04-1.09-.56-1.98-.5-2.51-.22-5.75.97-7.67-.25-3.68,1.59-8.97-.25-13.35.74-3.13-1.26-7.71-.13-11.13-.74-.72.19-1.44.45-2.23.5-.95.05-1.77-.48-2.72-.5-.72-.02-1.51.44-2.23.5-2.05.17-4.04-.55-6.18-.5-4.9.12-10.38.78-15.58-.5-4.51,1.43-11.19-.32-15.33.25-1.01-.81-1.47-2.16-2.23-3.22-1.28.12-.96,1.85-2.97,1.24-.89.51-1.14,1.66-2.47,1.73,1.22-5.48.13-11.99.25-18.1.07-3.91.48-7.83-.49-11.65.8-4.88.3-10.31.25-15.62-.03-3.04-.12-6.11-.74-8.92.29-.78.83-1.31.99-2.23-.58-4.41-.12-8.19-.74-13.14-.04-1.12,1.19-.95.99-2.23.42-1.33-.74-1.08-.74-1.98-.02-9.91,1-21.52-.49-33.22-.11-1.1.67-1.31.99-1.98-.36-2.81-1.39-6.64-.25-9.42.18-10.12-.32-20.44-.25-29.25.02-3.03-.34-6.2-.25-9.42.02-.68.43-1.24.49-1.98.19-2.37-.49-4.95-.49-7.44-.02-5.27.31-10.75.49-16.11.1-2.89-.52-5.9.5-8.68-1.01-1.76.06-3.87,0-5.95-.08-2.52-1.04-5.06,0-7.44.77-.06.96-.69,1.48-.99,1.29-.05,2.35.13,2.72.99,2.55-2.06,6.18-.02,9.4-1.24,1.77,1.03,3.73.37,6.18.74.62.2,1.32.32,1.24,1.24,1.07.08.61-1.37,1.73-1.24,1.6.35,3.05-.61,3.71.74,4.85-1.45,10.08.21,15.58-.5,1.4,1.03,3.8-.25,4.7.99.83,0,.84-.81,1.73-.74.79-.22.77.38.99.74,3.42-1.74,7.27.57,10.88-1.24.97-.07,1.72.1,1.98.74.8-1.29,4.96.7,6.43-.99,1.44.53,3.04.09,4.45.25,1.59.18,2.76.96,4.95.74.58-.06,1.14-.48,1.73-.5,1.58-.04,3.13.54,4.45.5.97-.03,1.95-.45,2.97-.5,6.32-.31,12.83.07,18.55.74,2.19-.76,3.99-1.08,6.18-.5,1.78.47,3.26.16,4.95,0,2.95-.27,5.44-.89,8.16.5,2.46-.69,5.52-1.46,7.91-.25,1.87-.71,4.65-.49,7.42-.5,1.87,0,3.87-.32,5.44-.25.66.03,1.32.42,1.98.5,3.56.43,7.23-.69,10.63-.5,1.15.06,2.27.49,3.46.5,3.56.02,7.22.02,10.14-.99,6.08.53,12.73-.22,18.3.74,1.57-1.15,3.89-.44,6.43-.5.6-.01,1.29.15,1.98.25,2.02.28,5.32.15,8.16.5-.34,1.87.65,4.06-.25,4.96l-.12-.12-.12-.12c-.31.06-.32.74,0,.74l.12.12.12-.12Zm-149.12-4.21c.33.16.46.53.5.99.88.06,1.29-.36,1.24-1.24-.33-.34-1.73-.47-1.73.25Zm139.23-.25c.29.98.29-.98,0,0h0Zm-90.26.5c-.14,1.09,1.34.86.99-.25-.47-.06-.55.28-.99.25Zm21.02.25c.33.08.47.35.99.25.19-.85-.94-.97-.99-.25Zm26.21-.5c-.19.06-.49,0-.49.25.19-.06.49,0,.49-.25Zm32.64,1.24c.21-.29.33-.66.25-1.24h-.74c-.04.62-.05,1.2.49,1.24Zm-21.51,0c-.02-.39.12-.95-.25-.99-.63.2-.13,1.52-.99,1.49v.74c.94.36.05-1.11.99-.74l.12.12.12-.12v.74c.81.26,1.04-1.81.25-.99v-.25h-.25Zm4.7-.99c-.19.06-.49,0-.49.25.19-.06.49,0,.49-.25Zm14.34.99c.85.33,1.73-.55.99-.99-.16.74-.53-.24-.99,0v.99Zm-35.86.99c.19.06.49,0,.49.25.76-.15,2.23-1.37,2.72-.25-.51.26-1.38,1.7,0,1.74-.6-1.21.53-.96,1.48-.74,0-.58.42-.73.25-1.49-1.19-.22-2.4-.41-2.97-1.24-.3.75-.85-.27-1.48,0-.19.55-.52.97-.49,1.74Zm-56.88.5c1.56.15.68-1.01.74-1.98-.29.04-.7-.04-.74.25.52.17-.57,1.44,0,1.74Zm-61.08-.5c.37.69,1.01-.43,1.24.25-.02,1.51,1.05,1.92,2.23,2.23.19-1.23,0-1.31,0-2.73-1.55.06-2.03-.94-3.46-.99v1.24Zm175.83.25c.04-.87-.58-1.07-.99-1.49-.1.93.2,1.45.99,1.49Zm-162.48,1.74c.99-.25.85-1.63,1.24-2.48-1.2.45-.78-.46-2.23-.25-.77.82-.72,3.01.99,2.73Zm25.22-1.49c.17,1.23,1.16,1.65,1.98,2.23.97-.35,1.13-1.51.99-2.97-.99-.79-2.6-.44-2.97.74Zm111.53-1.24c-.19.06-.49,0-.49.25.19-.06.49,0,.49-.25Zm.25.99h.74c-.06-.44.25-1.24-.5-.99-.08.34-.35.47-.25.99Zm11.13,81.07c-1.01-.48-.78-2.19-1.48-2.98.57-1.79-.4-3.45-.5-5.21-.19-3.59,1.22-7.09-.25-10.16.42-1.4.26-3.38,1.24-4.21-1.39-.61.02-1.23.25-2.23-1.04-.52-1.38-1.75-2.22-2.48.13-2.24.51-4.39.49-6.2-.49.33.08,1.73-.74,1.73-.44-1.05-1.1-1.87-1.48-2.97.51-2.64-1.4-4.61-1.24-7.69-1.71-2.44-1.63-5.14-3.46-7.44.24-1.73-1.41-1.56-.99-3.47-.94-.38-1.01-1.64-1.24-2.73-.71-.03-1.17-.31-.99-1.24-1.03.04-1.21-.77-1.98-.99.46-.53-.33-1.32-.25-2.23,1.09-.06,1.91-.4,3.21-.25,1.27-.63,2.79-1,4.45-1.24.36-.68,2.32-1.67,2.97-.5.22.98-.82,1.32-.99,2.23-.37,1.95.65,3.45,1.24,4.96,2.76.95,4.08,3.35,7.67,3.47.24,1.11,2.72,1.38,3.46.5-.25-3.97-.89-7.53-3.46-9.17-.1-.52.17-.66.25-.99-.69-.38-1.97-.18-1.73-1.49,2.72-1.87,4.73,1.4,7.17.74.67.32.88,1.1,1.98.99,1.69-2.61-1.69-3.96-1.98-6.2-.63-.03-.87-.45-1.24-.74h-2.97c-.09-.33-.44-.39-.49-.74.2-3.84,4.48-3.61,5.93-6.2.53-1.45.72-3.24.99-4.96-.58-.74-.8-1.85-1.98-1.98-1.47.09-2,1.14-3.96.74-2.51,1.67-3.93,3.78-7.42,3.97-1.2-.62-2.08-1.55-1.98-3.47-.85-.14-1.41-.57-1.73-1.24-2.07,1.62-2.9,3.99-1.98,6.94-.45.62-.6,1.55-1.98,1.24-1.88-2.3-3.39-5.54-7.67-4.71.19.93-.3,1.19-.25,1.98,1.48,1.16,2.32,2.96,3.21,4.71-.44,3.91,2.38,4.55,4.2,6.2-2.27,3.16-6-.89-9.15.25-2.02-1.77-3.4-4.19-5.94-5.45h-2.72c-.64-.67-1.8-.84-2.23-1.74-2.61-.28-3.81-1.96-6.18-2.48v-.74c-1.66-.04-1.8-.63-3.46-.25-1.02-1.04-2.35-1.78-3.71-2.48-1.14.18-2.06.58-3.21.74-1.37-1.44-4.36-1.25-5.94-2.48-2.83,1.26-7.91.7-11.37-.25-6.57,1.26-14.38,1.29-17.31,6.2,1.45,1.39,4.48.27,6.68,1.24,3.73-1.1,7.39-1.66,11.87-1.49,1.15-.75,2.37-1.42,3.96-1.74-.39,1.13,1.03.46.99,1.24-.03.33-.04,1.79.25.99-1.21-3.44,2.97-.66,4.21,0,1.58.84,3,1.59,4.2,1.49.21.36.37.79.99.74,1.75.07,2.51,1.12,3.96,1.49.39,2.18,1.7,4.64,1.49,6.94-.21,2.24-1.86,3.34-2.72,4.96.43.89.95,1.7,1.73,2.23,1.92-.8,3.61-1.84,5.44-2.73.69-2.47,1.07-4.02.99-6.94-.61-1.29-1.44-2.36-1.73-3.97-.7-.63-2.27-1.69-1.98-2.48,1.38-.07,1.59,1.05,3.21.74,1.56,1.16,3.51,1.94,4.7,3.47,2.98,0,3.27,2.68,5.69,3.22,1.96,2.83,5.18,4.4,7.42,6.94.41,1.41,1.53,2.44,2.22,3.72.14.26-.13.73,0,.99.66,1.26,2.06,2.73,2.72,4.46.16.42.04,1.05.25,1.49.85,1.82,2.21,3.18,2.72,4.96.41,1.41.19,2.96,1.24,4.21-.05,3.32,1.26,3.85,1.48,6.69-1.1,1.68-.15,4.1-1.98,5.21,1.08.86-.19,3.14.25,4.96-2.29,3.16-3.36,7.54-5.44,10.91-1.64,1.24-2.77,3.01-4.2,4.46-.52-.1-.65.17-.99.25-.51,1.05-1.06,2.23-1.73,3.22-.66.97-1.84,1.75-1.73,2.73,1.26.58,1.97-.41,2.97,0,2.46-2.49,4.24-5.67,7.91-6.94,1.82-2.39,3.69-4.73,4.95-7.69.08-1.57.19-3.12,1.73-3.22.54,4.55-2.28,9.11-1.24,13.64-.11.47-.71.45-.5,1.24,1.45,1.36,1.25,4.36,2.23,6.2.9-.16.95.54,1.73.5,1.05,2.75,4.56,3.03,7.42,3.97.82-.25,1.4-.75,2.47-.74.8.11,1.34.47,2.23.5.91-.24,1.22-1.09,1.98-1.49.21.95,1.27,1.04,2.47.99.27-.72.55-1.43.5-2.48-1.2.81-.38-1.06-1.48-.99-.45.31.45,1.48-.74,1.49v-.25h-.25c.67-1.29.21-1.88,0-3.22-3.11-.47-3.44,1.84-6.18,1.74-1.16-.49-1.95-1.35-2.23-2.73-.36-.58-.78.48-.74-.5h.25v-.25c.2-.59-.35-1.14-.25-.25h-.25v.25ZM20.77,14.31c-.19.06-.49,0-.49.25.19-.06.49,0,.49-.25Zm46.25.99c1.12-.2,1.7,1.14,2.72,1.74.92-.16.75-1.39.74-2.48-.95-.28-3.38-.6-3.46.74Zm27.45.5c1.02.13,1.46.85,1.73,1.74.34-.79.34-2.19,0-2.97-.76.18-.73-.43-1.48-.25,0,.58-.43.73-.25,1.49Zm46.74-1.24c.29.98.29-.98,0,0h0Zm-83.09,1.24c.47.69,1.06,1.25,2.23,1.24.48-.61.3-2.14-.25-2.48-1.28-.21-1.8.35-1.98,1.24Zm29.92-.74c.26.57.16,1.5.49,1.98h2.23c.16-.84.71-1.27.49-2.48-1.3-.06-2.3.17-3.21.5Zm75.18,0h.5v-.5h-.5v.5Zm-55.64.74c.78.12.7-.62.99-.99h-.99v.99Zm5.44-.25v1.98h.99c.57-.83.82-1.99,2.47-1.74-.08.34-.35.47-.25.99.8-.02.91-1.5.5-1.98-1.22.49-2.91-.47-3.71.74Zm87.05.74c-.11-1.1,2.15.17,1.98-.99-.06-.51-1.09-.07-1.24-.5.12.72-1.54.91-.74,1.49Zm-16.07.5c.49-.27.42-2.06-.49-1.74.25,1.01-.75,1.73.49,1.74Zm-153.82,1.98h1.73c.96-1.28.28-3.05-.99-3.47-.98.83-1.1,1.8-.74,3.47Zm90.76-1.98c.28-.29.28-.88.25-1.49h-.99c-.15.89.09,1.4.74,1.49Zm-106.34-.5c-.52-.2-.96-1.02-1.48-.5.99,1.45-.31,3.67,1.24,4.46.82-.48,1.65-1.5,1.48-2.23.95.51,1.28-.57,1.48-1.49-.61-.84-1.65-.29-2.72-.25Zm87.79.74c.56.84,1.37,1.44,2.47,1.73.77-1,.19-1.71,0-2.97-1.19.46-2.26-.34-2.47,1.24Zm-56.14-.25c.26.57.16,1.5.49,1.98,1.78-.12,2.75-1.04,3.46-2.23-1.48-.51-2.8-.62-3.96.25Zm132.06,1.49c1.09.1.85-1.13,1.24-1.74-1.7-1.74-3.56,1.2-1.24,1.74Zm-154.07.5c.98.32.5-.82,1.48-.5.12-1.03-.29-1.52-.99-1.74-.36.55-.62,1.2-.5,2.23Zm12.12-.5c.47.36,1.22,1.19,1.98.5-.08-1.24-.49-2.15-1.73-2.23.2.86-.37.95-.25,1.74Zm36.6-1.24c.08.58.3,1.02.49,1.49.71-.03,1.62.14,1.98-.25v-1.49c-1.22-.19-1.58-.27-2.47.25Zm116.72.25c1.22-.33.39-1.17,0,0h0Zm-126.37,1.49c1.1.84,2.88-.57,1.98-1.73-.96.5-.97.4-1.73-.25.17.92-.42,1.06-.25,1.98Zm103.12-1.24c-.16,1.74.63,2.51,2.47,2.23-.13-1.45.66-2.3-.25-2.97-.46.53-1.97,0-2.23.74Zm-57.13,3.97c1.26-.79,1.63-2.48.99-3.97-2.83-2.23-4.91,4.23-.99,3.97Zm61.82-2.48c.29.37,1.03.29.99.99,1.27-.21,2.26-.71,1.98-2.48-.86.2-1.04-.28-1.48-.5-.4.75-1.24,1.07-1.48,1.98Zm-152.09,0c.34.55,1.87.73,2.47.25.14-.97-.21-1.44-.5-1.98-1.34-.1-2.25.22-1.98,1.74Zm66.03.99c.35-.73.75-1.56.25-2.48h-.74c-.58.6-.88,2.54.49,2.48Zm96.45-2.23c-.19.06-.49,0-.5.25.19-.06.49,0,.5-.25Zm-141.45,1.49c.65.08.64-.52.74-.99-.65-.08-.81.34-.74.99Zm57.37-.25c.62.2.34,1.31.74,1.74.61-.03,1.19-.04,1.48.25-.13-.88.88-.61.74-1.49-.08-.34-.35-.47-.25-.99-1.58-.11-2.12-.25-2.72.5Zm-42.04,2.97c-.72,1.83-3.61.69-4.95.25-1.82.09-3.25-.22-4.45-.74-1.61,1-3.49.09-5.44,0-1.38-.06-2.84.22-4.21.25-3.81.07-7.2-.9-10.88-.25-.37,1.36.89,1.09.99,1.98,2.57.07,4.64.64,6.18,1.74.99-.4,2.4.66,4.2.25.77.63,1.46,1.35,2.47,1.73h2.97c2.39,1.91,4.89,3.69,6.18,6.69,2.15.82,3.14,2.8,4.45,4.46-1.14,3.37.39,6.4,0,10.41-.12.78.76.56.5,1.49-.01,7.04.24,15.28.74,21.82.2,2.61-.79,5.07-.74,7.69,0,.62.42,1.38.49,1.98.08.66-.29,1.56-.25,2.23.05.71.49,1.16.5,1.74.03,4.12-.73,8.23,0,12.15-1.35,2.69-.21,5.07,0,7.69.23,2.96-.23,6.69,0,9.92.12,1.63.75,3.2.25,4.22-1.36,2.94-5.95,1.3-8.41.5-3.53,1.94-7.17.14-10.14,1.74-.84.19-.31-1.01-1.24-.74-1.29.94-2.26,2.2-4.45,2.23-1.75,2.29-3.43,4.66-5.44,6.69-.52,4.03-3.36,5.72-3.71,9.92-1.93,1.37-2.94,3.66-4.45,5.45-.32.34-1.17.15-1.48.5-.46,2.27-3.63,1.81-3.21,4.96,1.57,1.2,3.82,0,5.44-.25.22-1,1.37-.93,1.98-1.74.82-1.09.96-3.91,2.72-3.97.17,1.84.26,3.86.5,6.2.89,1.42,1.88,2.74,1.73,5.21,1,1.07,1.51,2.62,1.98,4.21,2.46,1.6,3.08,6.31,6.68,5.95-.59-2.13-1.51-3.94-2.97-5.21.41-2.15-2.27-3.34-2.47-5.7.42-.49.27-1.55.49-2.23-1.06-1.09-.94-3.35-1.73-4.71-.18-1.17.28-1.7.25-2.73-2.94-6.01,3.11-9.81,4.45-14.63.88-.84,2.03-1.72,2.97-2.73.81-.87,1.5-2.9,3.21-1.98-.02,1.36-.91,2.4-1.24,3.72-.42,1.66-.43,3.55-.49,5.7,1.47,1.75,1.94,4.5,4.95,4.71.38-1.13-.2-2.25-.25-3.47-.11-2.95.66-5.79.74-8.18,1.4-.51,3.04-2.39,5.19-3.22.42-.16,1.11-.05,1.73-.25.7-.23,1.36-.83,1.98-.99,2.29-.59,3.83-.25,4.7.99-.15,3.82-.5,6.74.25,11.16-1.63,4.63-.41,11.07-1.48,16.61.36.62.46,1.31.49,1.98.31,5.27-.43,9.44-.74,14.38-.58,9.29,1.08,20.21-5.19,23.55-.17,2.23-2.2,2.59-2.72,4.46-2.06.33-2.55,2.24-4.45,2.73h-1.73c-2.76,2.52-7.83,2.73-11.38,4.46-2.71.1-5.41.2-7.42.99v1.74c.51,1.39,3.66.13,4.45,1.24,1.01-.23,1.31-1.17,2.47-1.24,4.59.29,10.96,1.43,14.59-.25,3.11-.1,6.03.34,7.67-.74,4.4,1.29,8.82-.13,13.11.25.95.09,1.78.68,2.72.74,1.27.09,2.48-.5,3.71-.5.92,0,1.77.44,2.72.5,1.19.07,2.46-.27,3.71-.25.71.01,1.23.41,1.98.5,1.08.12,2.54-.4,3.71-.25.61.08.95.47,1.48.5,3.99.23,7.94-.12,11.13-.5,6.73,1.33,15.46.38,21.51,1.24,2.79-.77,6.9-1.16,9.89-.5,1.52-.82,2.63-.62,4.95-.74,1.11-.67,3.1-1.35,4.7-.74,2.06-1.41,5.52-1.41,8.66-1.73,1.87-2.26,5.9-2.35,8.41-3.97,3.6.19,6.04-2.62,8.41-4.46,1.05.46,1.56-1.51,3.21-1.24,1.88-2,4.08-3.68,6.18-5.45-.05-.96,0-1.83.25-2.48,3.04-2.08,4.17-6.06,6.68-8.68.29-3.43,1.37-6.06,2.97-8.18.49-6.02.69-11.48.5-17.11-1.15-1.26-.42-4.01-.25-4.96-.7-.09-1.71-3.19-.99-4.71-.66-1.24-1.01-2.79-1.24-4.46-.87-.45-1.31-1.33-1.24-2.73-.86-.46-1.7-.94-1.98-1.98.18-3.82-1.63-5.64-3.96-6.94-.76-2.3-2.54-3.57-3.96-5.21-.86-2.94-3.03-4.56-5.44-5.95-.05-.47.28-.55.25-.99-1.47.54-1.84-1.66-3.21-1.98-2.99.11-4.64-1.13-5.94-2.73-1.56-.33-3.36-.44-3.71-1.98-.99.55-1.77-.07-2.97,0-4.12-2.54-8.96-4.01-13.6-5.45-1.72-.45-5.87.97-6.43-1.49,6.86-3.29,13.37-6.93,18.05-12.4,3.29-.59,3.84-3.92,6.68-4.96-.09-1.53,1.46-3.25,2.23-4.71.11-.66-.15-1.08,0-1.74.17-.74,1.27-1.67,1.48-2.23.28-.75-.04-1.57.25-2.23.22-.49,1.02-.79,1.24-1.24.56-1.17.34-2.35.99-3.47-.56-.18-.44-1.05-.74-1.49.11-1.68,1.52-3.14,1.73-4.96.21-1.81-.97-3.93.25-5.7-.64-2-.85-4.43-1.73-6.2.01-1.14-.11-2.42.25-3.22-.98-1.58-2.36-2.76-2.72-4.96-1.22-1.17-2.26-2.52-2.47-4.71-.75-.91-1.68-1.62-1.98-2.98-.64.15-.89-.1-.74-.74-2.56-.66-3.91-2.52-5.69-3.97-2.85.29-3.5-1.62-5.44-2.23-.23-.68-.77.35-1.48,0-.76-1.36-1.93-1.24-3.46-1.74-.39-.13-.81-.62-1.24-.74.06.02-.43.31-.74.25-.3-.06-.32-.44-.49-.5-3.45-.99-7.52.91-10.14-1.49-1.46.96-4.02.09-5.69-.25-.62.29-.95.87-1.98.74-2.61-1.16-5.72-.34-8.16-1.49-1.11.63-2.64.82-3.96,1.24-3.66-2.45-10.09.58-14.34-1.49-4.96.21-11.33,1.37-16.82,0-1.24.17-1.84.97-3.22.99-.98.32-.6-.72-1.24-.74-1.22.4-2.7.32-3.96.25-1.35-.08-3.2.04-3.96-.99-.02-1.26.42-2.05.25-3.47-2.18-.55-1.39,2.24-.74,3.47Zm35.12-.5c1.76.76,3.22-.45,3.46-1.98-.97-1.94-4.18-.7-3.46,1.98Zm25.72.99c.55-.61.54-1.77.5-2.98-1.25.18-1.81-.34-2.72-.5-.98,1.5-.17,3.89,2.22,3.47Zm-44.51-2.98c-.21,1.47.14-.99,0,0h0Zm106.59,3.47c.77-.7-.18-1.79-.25-2.48-.93.19-1.18-.3-1.98-.25-.8.47-.48,2.84-.25,2.97.52-.74,1.3.33,2.23,0v.25h.25c-.19.22-.27.56-.25.99,1.06.38.81-.95.5-1.24l-.12-.12-.12-.12Zm-157.78-1.24c.33.32.92.33.99-.25-.33-.32-.92-.33-.99.25Zm122.16.74c-.03-.46-.16-.83-.49-.99-.46.44.06.77.49.99Zm-4.45-.25c-.19.06-.49,0-.49.25.19-.06.49,0,.49-.25Zm-124.64.99c-1,.78-1.42,3.31-.25,4.21,1.33-.16,1.78-1.94,3.46-.99-.02-.93,1.07-.75.74-1.98-.35-.07-.28-.54-.5-.74-1.51.45-2.27-.06-3.46-.5Zm197.59,1.74c.07-.45.89-1.39.25-1.74-.13.39-.95,1.33-.25,1.74Zm-69.49,1.24c1.01-.18.85.8,1.98.5.83-.61,1.62-1.29,1.98-1.74-1.48-1.46-4.42-1.11-3.96,1.24Zm38.33.5c.84.15,1.3.68,2.23.74,1.58-.68,1.13-2.13.49-3.47-2.03-.22-2.17,1.46-2.72,2.73Zm30.67,0c.84-.41,1.82.65,2.97,1.24-.06-1.04,1.01-3.54-.49-3.72-.43,1.22-1.67,1.63-2.47,2.48Zm-74.19-.99c.42.39,1.43-.03,1.24-.99-.81-.06-1.19.29-1.24.99Zm-107.82,2.98c.5.07.49.67.99.74.73-.42,1.33-.98,1.48-1.98-.31-.77-.82-1.33-1.48-1.74-.41.91-1.15,1.49-.99,2.98Zm-5.94,4.96c1.23-1.49,3.08-2.36,2.72-5.45-1.22-1.58-4.16-2.73-5.19-.25-.47-.06-.55.28-.99.25-.04.79-.56,1.09-.5,1.98-.31.68-1.53.45-1.73,1.24,1.13.51.28.36,0,1.24,1.38.85,3.4,1.06,5.69.99Zm123.65-5.95c-.09,1.41.42,2.22,1.48,2.48.66-.5,1.46-.85,1.24-2.23-.35-.06-.28-.54-.49-.74-1.03-.13-1.68.14-2.23.5Zm-106.59,1.49c.29.98.29-.98,0,0h0Zm-7.91,1.24c-.26,1.66.39,2.42.99,3.22,2.41-.09,2.59-2.74,1.48-4.46-.73.56-1.66.35-2.47,1.24Zm124.14-.99c-.24.91,1.21.99,1.24.25-.51-.14-.8-.71-1.24-.25Zm-118.7,1.49c-.32.77.07.71,0,1.74.75.24,1.47.51,2.23.74.01-.89.62-1.2.74-1.98-1.13.3-.78-.87-1.48-.99-.1.56-1.31,0-1.48.5Zm114.5,0c.1,1.64.62,2.85,2.72,2.48,1.14-2.16-.95-3.82-2.72-2.48Zm-123.15.5c-.19.06-.49,0-.49.25.19-.06.49,0,.49-.25Zm139.72,1.74c-.18-.76.68-.48.5-1.24-.41-.33-.83-.66-1.73-.5-.11,1.1.41,1.57,1.24,1.74Zm-123.65-.99c-.29.04-.7-.04-.74.25.29-.04.7.04.74-.25Zm126.86.25c.09.74.43,1.22.99,1.49.08-.58.39-.93.25-1.74-.57-.08-.95.04-1.24.25Zm-126.86,1.74c-.52-2.58-4.86-1.1-3.22,2.48.84-.07,1.42-.39,2.47-.25.54-.79.95-1.22.74-2.23Zm-31.41-.99c-.47,1.04-.33,2.75.49,3.22,1.68-.05,2.2-1.27,2.47-2.73-.55-.84-1.83-.86-2.97-.5Zm18.05,19.83c.41-.58.93-1.05,1.24-1.73.36-4.97-1.94-9.54.49-13.39-.71-5.24-9.82-4.49-7.42,2.48.91,1.73,4.33.95,5.69,2.23-2.74.83-1.79,3.55-1.98,5.95-.21,2.78-1.68,5.75-.99,8.43.19.06.49,0,.5.25,2.29.07,2.06-2.4,2.47-4.21Zm121.18-15.12c-.16-.75.32-2.14-.25-2.48-.11.71-.35,2.02.25,2.48Zm-117.47,0c1.1.36.02,1.43.99,1.73.74-.34,3.13-1.15,2.47-3.72-1.54-.65-3.64.1-3.46,1.98Zm4.7-1.24c.33.08.47.35.99.25v-.74c-.46.03-.83.16-.99.5Zm128.1,5.45c.13,1.07.07,1.39.25,1.98.82.2,1.29.23,2.47.5,1.28-.7,1.56-2.41,1.98-3.97h2.23c.56-1.02.49-2.18.25-3.47-4.34-2.65-3.7,4.46-7.17,4.96Zm-1.98-2.48c.36.14.6.39.74.74,1.19-.21,2.06-.75,2.72-1.49.8-3.45-4.07-1.5-3.46.74Zm-147.39,1.98c2.39.31,3.25-1.9,2.47-3.97-2.7-.3-3.88,2.24-2.47,3.97Zm22.26-2.73c.47-.5-.3-1.15-.99-1.24-.1.85.07,1.41.99,1.24Zm-18.3-.5c.29.98.29-.98,0,0h0Zm22.75.25c-1.03,1.26-.51,4.43,1.24,4.46.86-.55.78-2.03.99-3.22-.58-.57-.96-1.35-2.23-1.24Zm132.06,1.74c-1.14.51-1.85,1.45-2.97,1.98v2.73c2.35,2.43,5.24-2.27,3.46-3.97.25-.58,1.35-.3,1.73-.74-1.56.27-1.04-1.17-2.47-1.49-.67.65.3.75.25,1.49Zm13.85,1.73c.42-1.25.58.15,1.24,0,1.49-.34,1.61-1.87.5-3.22-2.4-.47-2.05,2.24-1.73,3.22Zm20.03-2.48c.3,1.02-.17,2.82.74,3.22.52-1.23,1.57-2.96,0-3.72-.06.35-.54.28-.74.5Zm-188.94.74c.07-.57-.06-.93-.49-.99-.07.56.06.93.49.99Zm16.32,1.73c.99-.17,1.41.24,2.22.25.2-1.27-.35-1.8-.25-2.97-1.94-.15-2.38,1.16-1.98,2.73Zm3.46-2.48c.29.98.29-.98,0,0h0Zm152.34.5v.5c.61.39.73-.84.25-.74-.01.15-.04.29-.25.25Zm-158.02,1.24c1.1.04.6-.84,0-.99v.99Zm126.12,3.22h1.73c.92-.67.94-2.75.25-3.72-3.44-.81-3.27,2.2-1.98,3.72Zm-127.11-2.23c-.1,1.03-1.08,1.45-.5,2.48.65.26,1.52.3,2.47.25-.2-1.36.62-1.69.5-2.98-1.25.02-1.41-.31-2.47,0-.05-.7-.43-1.06-1.24-.99-.32,1.15.97.68,1.24,1.24Zm121.67,3.47c.83.25,1.15.99,1.98,1.24,1.81-1.05,1.55-3.5-.25-4.46-1.3.35-2,1.3-1.73,3.22Zm37.34-.25c1.48,0,1.97-1,2.47-1.98-1.08-2.26-4.09.12-2.47,1.98Zm2.47,1.49c.3.03.59.07.49.5,2.4.05,3.06-2.84,1.73-4.46-.41,0-.83,0-1.24,0,.02,1.23-.99,2.11-.99,3.97ZM12.36,55.71c-.79,4.49-.05,9,1.48,11.16.63.03.87.45,1.24.74,1.06-.52,2,.37,2.97-.25.24.77.62,1.21,1.48.74.48-2.49-2.19-3.9-3.22-5.7-.04-1.13-1.88-2.49-.74-3.22,1.66.49,2.13,2.16,2.72,3.72,1.95,1.1,3.01,3.1,5.19,3.97,1.1-1.28,2.05-2.48,2.23-4.21.56-5.53-4.36-9.43-7.67-11.65.07-1.8-1.73-1.74-2.23-2.98-.29-1.94-.39-4.07-2.23-4.46-.96,3.36-2.44,8.2-1.24,12.15Zm27.2-8.93c.85.47,1.64,1,3.21.74,1.37-3.19-3.37-4.43-3.21-.74Zm-16.32-1.49c-.66,3.55,4.21,1.64,2.47-.74-1.06.01-1.88.27-2.47.74Zm141.7,2.48c.8.6,1.75,1.05,2.97,1.24.43-.81,1.23-1.24,1.48-2.23-.92-1.76-2.53-1.28-4.45-1.98-.2,1.33.41,2.12,0,2.98Zm-145.91-.99c1.09.1,2.04.07,1.73-1.24h-1.73v1.24Zm160-.5c-1.15,1.37-.64,3.45.99,3.97,1.29-.69,2.54-1.42,2.23-3.72-.94-.72-1.79-.68-3.22-.25Zm30.91,0c0,.82-.42,1.23-.25,2.23.99.33.98,1.66,2.72,1.24.57-.82.31-1.76.25-2.73-.88-.83-1.34-1.49-2.72-.74Zm-163.96.5c.18.76-.25.9-.25,1.49.44.71,1.08,1.23,1.98,1.49,1.38-1.43,1.04-4.04-1.73-2.98Zm152.83,1.98c.81.23,1.97-1.27.74-1.49-.14.61-.96.53-.74,1.49Zm5.19-1.24c-.11.89-.66,1.32-.5,2.48.87.52,1.94,1.5,2.97.5.4.34.31,1.18,1.24.99-.38-2.28-.61-5.11-3.71-3.97Zm-45.01,3.47c1.02.47,2.03.94,3.71.74-.12-.78.62-.7.99-.99-.35-1.22-.78-2.36-1.73-2.97-.12.29-.26.56-.49.74-.51-.44-.22-.77-.49-.99-.91.9-2.26,1.38-1.98,3.47Zm-120.68-1.74c-.89-1.63-5.29-1.5-4.45,1.49.38,1.02,1.72,1.09,2.23,1.98.55-1.35,2.52-1.28,2.22-3.47Zm134.53,4.96c-.32.92-1.68.8-2.22,1.49-.29,2.36,1.24,2.89,2.22,3.97.1-1.57,2.29-3.67,4.7-2.97,1.01-.64,1.76-1.54,1.48-3.47-1.62-1.55-3.59.83-4.7.5.26-1.97,1.74-2.71,1.73-4.96-4.32-1.68-5.54,3.23-3.21,5.45Zm-128.84-1.49c2.47-3.06-2.07-5.19-2.97-1.49.66.58.93,1.55,1.98,1.73.33-.08.47-.35.99-.25Zm-21.02-2.23c-.19,1.26.77,1.55.99,2.98,1.32-.5,1.77-1.86,1.98-3.47-1.07-.77-2.23.14-2.97.5Zm137.25,11.16c-.98.25-1.39,1.08-1.24,2.48,1.38,1.26,2.82-.33,4.45.25-.25,1.9,1.2,5.51,0,6.94-2.04-.19-1.61-2.85-3.96-2.73-.05.7-.81.68-.99,1.24,1.1,2.92,2.16,7.32.74,10.66,1.03,2.35,1.29,5.49,2.47,7.69,1.88,1.59,3.96,2.98,6.43,3.97.47-.61.44-1.71,1.73-1.49.92,1.8.87,4.58,2.97,5.21,1.84-2.52-1.24-6.45,0-8.93,1.64,1.08.25,5.21,2.72,5.45,2.93-2.19,4.39-6.88,3.96-11.65,1.16-4.18-1.12-10.91,1.24-14.13-1.1-.51.68-1.91,0-3.97-2.67-.03-1.94,3.35-4.45,3.47-.76.89-.56,2.74-2.23,2.73-.93-.89-.97-2.66-2.23-3.22v-1.24c-.29-.37-.62-.7-.99-.99-.57-2.66-1.44-5-1.98-7.69.16-1.92.99-4.4-.74-5.45-1.03.13-1,1.32-1.98,1.49v1.74c-1.18.06-.4,2.08-1.73,1.98.13,1.52-.25,2.45,0,3.47-1.56.75.46,5.09-1.98,4.96-.33-1.32-1.22-2.08-2.23-2.73.43-1.29,2.01-2.98,3.21-1.98.75-2.03-1.22-3.37-3.21-3.47-.41.5-1.13.69-1.24,1.49.19,1.71,1.18,2.62,1.24,4.46Zm38.33-9.17c-.03.91.63,1.07.74,2.23,1.77-.21,2.67-1.29,3.21-2.73-.63-2.8-3.88-1.78-3.96.5Zm-170.64-.5c.34-.32.38-1.21-.25-1.24.13.36-.29,1.28.25,1.24Zm152.58.99c.12,2.03,2.02,2.28,2.97,3.47.88-1.27,1.93-2.37,1.48-4.96-2.01-.97-3.01,1.07-4.45,1.49Zm-153.08,0c.29.98.29-.98,0,0h0Zm182.51-.25c-1.4,1.58,1.05,3.94,2.72,3.22.52-.76.25-2.45-.25-2.98-.94-.33-1.37.11-2.47-.25Zm-165.44,1.98c-.15-.51.3-1.63-.25-1.74-.03.83-.49,1.31.25,1.74Zm159.75.99c.39,2.46,4.98,2.49,4.2-1.74-2.01-1.95-4.58-.62-4.2,1.74Zm-159.01-1.49c-.21,3.06,4.62,2.84,3.71-.74-1.63-.15-2.86.1-3.71.74Zm114.99-.5c-1.27.6.85.64,0,0h0Zm41.79.74c.62.04.77-.38.99-.74-.65-.07-1.06.09-.99.74Zm-159.26,0h.5v-.5h-.5v.5Zm-4.45.74c0,1.49,1.08,1.89,1.48,2.98.87-.54,1.69-1.11,1.48-2.73-.53-.5-2.21-.77-2.97-.25Zm-3.21,4.46c.88-.48.94-2.4.49-3.47-2.87-1.5-3.26,3.71-.49,3.47Zm163.96-1.49c.4,1.17,1.31,1.83,2.72,1.98,1.2-.66,1.13-2.48.5-3.72-1.62.03-2.87.43-3.21,1.74Zm-15.83-.25c-.29,1.53.37,2.11.74,2.97.89-.09,1.19-.38,1.98,0,2.02-1.81-1.18-5.48-2.72-2.97Zm-142.44,1.24c-.08,1.16.19,1.96.5,2.73.72-.22.76-.22,1.48,0,.13-1.2,1.82-3.85,0-4.71-.59.73-1.04,1.6-1.98,1.98Zm138.73-1.98c-.32.84-1.92.39-2.47.99-1.44,2.78,3.03,4.84,3.71,1.98-.24-1.03-.68-2.81-1.24-2.97Zm29.18,1.24c.01,1.17-.8,1.51-.74,2.73.77,2.53,5.2,2.64,4.2-1.49-.72-.68-1.37-1.44-2.23-1.98.11.77-.53.79-1.24.74Zm-3.46.99c.01-.32.32-.34.25-.74-.29.04-.7-.04-.74.25.33,0,.23.43.49.5Zm-177.81,1.24c.05-.28.28-.39.49-.5-.08-.58-.25-1.07-.74-1.24-.28.72-.37,1.47.25,1.74Zm160.74-1.49c-.19.06-.49,0-.5.25.19-.06.49,0,.5-.25Zm-11.38,2.48c-.5-2.85-3.25-.27-3.71,1.24.62.62.85,1.63,2.23,1.49.78-.62,1.11-1.69,1.48-2.73Zm-137.5.74c0-.49.67-.32.5-.99-.17-.49-.75-.57-.99-.99.02.81.13,1.52.49,1.98Zm147.39-1.24c.4.68.83-.36.25-.5,0,.25-.2.29-.25.5Zm14.59,2.98c.77,1.44,1.9,2.47,3.71,2.23,1.24-1.3.54-3.47-.25-4.71-1.49-.46-2.99.6-3.46,2.48Zm-155.06-1.49c.6-.1.54.45,1.24.25v-1.24c-.6.14-1.27.21-1.24.99Zm-1.24,15.62c-.5-3.61.84-7.73-1.98-9.17-.6-3.11-3.78-3.65-4.7-6.45-2.46-.65-4.83-.9-6.92.25-1.45.2-2.23-.04-3.21.25.05.94.22,1.76.49,2.48,1.73,1.24,5.67.27,6.43,2.48-1.45,0-2.45-.74-3.71-.74-1.47,0-2.88,1.04-4.45.25-.58,1.29.06,2.36-.25,3.72.99,1.32,2.18,2.44,3.22,3.72,2.41.81,5.17,1.27,7.17,2.48,1.18,2.19,1.46,6.75,0,8.92-.59-.15-1.13-.36-1.98-.25-.32.98-1.71,2.18-.49,3.22,2.62-1.09,4.58-2.85,6.92-4.21.78.38,1.48.83,2.47.99-.49-3.04-.65-5.99.99-7.93Zm155.8-14.13c-.36.13-.6-.97-.74-.25.25-.03.5,1.07.74.25Zm-14.1,2.73c.59-.1-.14,1.13.74.74-.37-1.11.73-.76.49-1.74-.4.07-.42-.23-.74-.25.04.29-.05.44-.25.5v-.25h-.25c-.03-.71.13-1.62-.25-1.98-1.5-.01-2.63.33-2.97,1.49.13,1.02.86,1.45,1.24,2.23.63-.28,1.4-.41,1.73-.99l.12.12.12.12Zm12.61-.5c.83,0,.5-1.15.99-1.49-1.18.09-.25.85-.99,1.49Zm8.41,2.23c.62.71,1.78.86,3.21.74,1.05-1.1.74-3.27,0-4.46-2.38-.07-3.05,1.56-3.21,3.72Zm-19.29-2.48h.49v-.5h-.49v.5Zm-142.94,3.22c.19.39.79.37.74.99,1.47.15,2.13-.51,1.98-1.98-1.12.27-1.8-.82-2.23-1.24.22,1.13-.41,1.41-.49,2.23Zm138.24,0c.37-.4.37-1.83,0-2.23h-1.48c.48.76.83,1.65,1.48,2.23Zm6.43-.5c.29-.29.28-.88.25-1.49-.47.06-.54-.28-.99-.25,0,.83.34,1.31.74,1.74Zm22.75-1.49c-.7,1.22.47-.81,0,0h0Zm-9.4.99c-1.21.68-1.7,2.1-1.73,3.97,1.1,1.05,3.64.28,4.45-.5.17-2.24-1.25-2.87-2.72-3.47Zm-181.52.99c-1.15,1.37-.21,3.78-.25,5.95-.04,2.32-.75,4.66-.74,6.2,0,1.61.81,3.15.5,4.71.11,1.12,1.5,3.06.25,3.97-1.62.05-1.89-1.24-3.21-1.49-2.11.25-3.13.1-4.95.5-.51,1.39-1.17,2.62-1.48,4.21,1.54,1.18,3.52-.29,5.69,0,1.99,1.97,5.7,2.22,5.94,5.95,1.6.96,3.2,1.91,4.45,3.22,1.85,4.18,6.26,5.79,8.41,9.67,2.27.7,3.63,2.31,5.44,3.47,2.4,1.06,5.09,1.84,7.42,2.98.15-.59,1.52.04,1.73-.5.19-2.92-2.28-3.16-3.21-4.96-.45-1.54-1.48-2.48-2.47-3.47-.58-2.76-3.12-5.58-3.21-8.68-.05-1.64.94-2.69,1.24-4.46-.67-.36-2.15.22-3.46,0-.77,1.84-2.07,3.41-2.23,5.7-.07,1.06.54,2.22.25,3.47,0,.76,1.07,1.88,0,2.23-1.04.05-.7-1.29-1.24-1.74-1.36-.78-2.11-2.18-3.46-2.98.02-.77-.3-1.18-.5-1.74-.58-.49-1.69-.45-2.23-.99-.58-4.38-3.12-6.79-4.7-10.16.15-3.72-1.66-6.94-1.48-10.41.06-1.16.91-2.35.99-3.47.21-2.92-1.38-5.04-2.72-7.19-.06.39-.54.17-.74,0Zm163.22.99c.17-.67-.51-.48-.74-.74-.05.54.2.79.74.74Zm-169.4,3.72c1.09.36,1.8.14,2.97,0,.2-1.85-.36-2.95-1.48-3.47-1.54.09-2.1,1.99-1.48,3.47Zm171.87-3.22c-.28.02-.38-.36-.49,0,0,.25.43.31.49,0Zm-31.16.25c-.1.6.45.54.25,1.24.7-.05,1.05-.43.99-1.24-.33-.32-.91-.32-1.24,0Zm25.72.25c-.1,1.77-.12,2.21.25,3.72-1.43,1.34-1.07,4.59.74,4.96,1.48.3,1.62-.87,2.97-1.49-.14-1.51-.64-2.66-.99-3.97.52-1.24,1.06-1.6.74-3.22-1.18-.36-2.67-.84-3.71,0Zm26.21.5c-1.54,1.47-.12,3.32.25,4.96,1.43-.91,3.91-2.15,2.97-3.97-.58-.07-1.4-1.97-3.21-.99Zm-160.5.5c.25,0,.29.2.5.25-.02-.39.03-.86-.5-.74v.5Zm-27.2.25c-.19.06-.49,0-.49.25.19-.06.49,0,.49-.25Zm191.9,1.49c.63.26,1.1-.84.5-.99,0,.49-.68.32-.5.99Zm-200.56-.5c-.06.81.29,1.19.99,1.24.46-.44-.2-.63,0-1.49-.43-.02-.77.06-.99.25Zm35.36,1.24c-.25.66-.51,1.31-.5,2.23.36.14.6.39.74.74,1.38.14,2.03-.44,2.72-.99-.79-1.26.47-1.57.5-2.73-1.38.31-1.86,1.25-3.46.74Zm110.3.25c-.07-.49.33-.49.49-.74h-1.48c-.08.65.52.64.99.74Zm46,3.72c1.37-.28,2.23-1.07,2.72-2.23-2.19-4.72-7.36.7-2.72,2.23Zm3.22-3.22h.49c.39-.61-.84-.73-.74-.25.15.01.29.04.25.25Zm-177.31.74c.07-.65-.09-1.07-.74-.99-.04.62.38.78.74.99Zm127.85-.74c.29.98.29-.98,0,0h0Zm54.41.99c.29.45.65.84.99,1.24.22-.35.7-2.54-.25-2.48-.07.58-.86.46-.74,1.24Zm-30.42-.25c-.19.06-.49,0-.5.25.19-.06.49,0,.5-.25Zm-165.2,3.47c1.17.18,1.63-.35,2.23-.74.17-1.41-.37-2.11-1.24-2.48-1.01.52-2.08,2.03-.99,3.22Zm141.46-2.48c-.6.83.83-.6,0,0h0Zm-145.91.74c-.09,1.33.23,2.25,1.24,2.48,1.13-.19.88-2.67.25-3.22-.21.53-1.08.4-1.48.74Zm17.06,4.46c.98-.59,1.31-1.82,2.47-2.23-.02-.73-.57-.92-.99-1.24-.14.44.3,1.46-.25,1.49-.64-.51-.71-1.6-1.24-2.23-1.34.57-2.47,3.98,0,4.21Zm179.04-1.49c.74.5,1.45,1.03,2.72.99.64-.43,1.25-.89,1.24-1.98-.47-1.27-1.76-1.71-3.71-1.49-.21,1.25.01,1.47-.25,2.48Zm-53.42-1.49c.72.36.72-1.11,0-.74v.74Zm-120.68,4.46c1.84-.23,1.66-2.84.74-3.97-3.47-1.63-3.18,3.77-.74,3.97Zm16.57-3.97c.29.98.29-.98,0,0h0Zm-3.71,5.95c-.35.98-.79,1.86-1.24,2.73,1.35,3.27,5.05,1.5,5.19-1.74-.9-.08-1.95-.02-1.98-.99,1.18-1.22,1.71-4.02.25-5.45-2.4.25-3.93,3.31-2.23,5.45Zm105.6-1.98c.71,1.02,1.57,1.9,3.21,1.98.09-1.15,1.06-1.42,1.24-2.48-.78-.96-1.25-2.68-3.22-1.74-.48-.37.43-1.04-.49-1.24.54,1.64-.25,2.27-.74,3.47Zm49.95-.99c0-.1.78,1.54.99,1.74.53.5,1.52.49,2.22.74.82-1.41,1.96-3.69.25-4.96-1.19.88-3.38.92-3.46,2.48Zm-19.78,1.24c.14-.62,1.32-1.63.25-1.98-.11.49-.92,1.53-.25,1.98Zm25.72,10.91c1.04.2,2.99.53,3.96,0,.28-1.77-.55-2.43-.99-3.47.03-1.87,1.49-2.31,1.24-4.46-.23-.6-.99-.66-.74-1.74.07-1.01,1.9-1.56.99-2.73-.75.57-1.18,1.46-1.48,2.48h-1.98c-.37,1.04-1.47,2.26-.5,3.22-.37.42-1.43,1.93,0,1.98,1.03-.06-.28-.92.5-1.24.43.65,1.97.17,2.23.99-1.13,1.66-3.93,1.04-3.21,4.96ZM15.58,85.21c.61.79,1.49,1.32,2.72,1.49.22-.44.55-.77.99-.99.02-.93-.1-1.71-.5-2.23-.87-.42-3.32-.66-3.21,1.74Zm195.61-1.49c-.33,0-.23-.44-.5-.5-.6.29.28,1.17.5.5Zm3.21,1.49c.15-.98-.37-1.29-.74-1.74-.22.29-.2,1.85.74,1.74Zm-201.8.74c0-.74.74-1.98-.25-2.23-.51.28-.99,2.37.25,2.23Zm18.3,2.48c1.48-.69.89-3.24,0-4.21-2.83-.77-3.46,4.49,0,4.21Zm169.64-3.72c0-.25-.43-.31-.49,0,.28-.02.38.36.49,0Zm-44.51,3.22h-1.73c-.82,1.35-.8,4.08,1.73,3.47.3-.77,1.07-1.08,1.24-1.98-.51-1.03-.55-1.96-1.73-2.73-.18.76.68.48.5,1.24Zm49.46,3.97h.5c-.01-.71.58-1.56,1.24-1.49-.26-.83-.28-1.95-.5-2.73-.6.42-1.68-.78-2.72-.74-1.5,1.63-2.16,4.12-1.98,7.44,1.31.07.66-2.29.49-2.98.93-.18,2.48-.62,2.72.5h-.25v.25c-.08.58-.77.55-.99.99.94.17,1.75-.45,1.24-.99h.25v-.25Zm-163.46.25c.26,1.14,1.19,1.61,2.72,1.49.25-.33.41-.75.74-.99-.02-1.88-.5-3.3-1.73-3.97-.25,1.49-1.01,2.46-1.73,3.47Zm8.9-2.73v1.24c.77-.06.77-.88.99-1.49-.47-.06-.55.28-.99.25Zm-21.02,3.72c.73.67,1.77,1.03,2.97,1.24.7-1.79-.1-3.3-.99-4.21-2.21-.56-2.11,1.19-1.98,2.97Zm118.7.99c.41,0,.82,0,1.24,0,.75-.93,1.93-1.8,1.24-3.47-2.15-1.98-4.05,1.75-2.47,3.47Zm-110.79.25c1.59-.71,1.29-2.96.25-3.97-3.51-.57-2.74,4-.25,3.97Zm150.11.74c1.57-.91,1.68-3.12.5-4.46-3.51-.59-3.82,4.71-.5,4.46Zm19.04-3.47c-.21,1.47.14-.99,0,0h0Zm-66.52,9.67c.86.18.84,1.24.5,1.98,1.04.11,1.33.98,2.72.74.84-.15.4-1.59,1.48-1.49,1.25-.35.68,1.14,1.73.99.75.08,1.92-.28,1.98.5-.29,1.66-.35,3.15,1.24,3.47.98-.43,1.15-1.66,1.73-2.48,1.77-.49,5.46-.5,7.42,0,.83-.57,1.44-1.37,2.72-1.49,1.08-.26.81.84,1.73.74,2.74-1.63,5.83-2.92,6.68-6.45-.17-.9-1.08-1.06-.74-2.48-.7-.2-.64.35-1.24.25-2.02-2.36-5.99-3.44-9.89-2.73-1.48.27-2.69,1.21-4.21.74-1.14,1.67-4.08,1.53-6.43,1.98.46,3.4-6.17,3.06-8.9,1.98-.15.59-.36,1.13-.25,1.98.57.5,1.24.9,1.48,1.74h-.25v.25h-.25c.04.21-.1.23-.25.25v.5h.74v-.74h.25v-.25Zm1.98-5.95c.73.35.84,1.31,1.98,1.24.77-.47,1.72-.75,1.73-1.98-.89-1.91-3.72-2.19-3.71.74Zm-94.22,1.74c1.41-.33,1.99-1.48,1.73-3.47-2.83-2.36-4.54,2.79-1.73,3.47Zm4.7-2.73c.07-.56-.06-.93-.5-.99-.39.37-.28,1.11.5.99Zm154.07-.99c-.37.04-.91-.09-.99.25.33.32.92.33.99-.25Zm-4.2,2.23c-.03,1.43.69,2.12,1.73,2.48,1.09-.48,1.99-1.15,1.98-2.73-.85-1.56-3.12-1.4-3.71.25Zm-14.1.5c.52,1.13,1.34,1.96,2.47,2.48-.12-1.66.51-1.93.5-2.97-.63-1.67-2.82-1.38-2.97.5Zm-176.82,1.24c.53.62.66,1.65,1.24,2.23,2.01.2,1.93-1.71,2.23-3.22-1.39-.59-3.17-.67-3.46.99Zm160.5.5c1.16.17.98-1,1.73-1.24-.41,0-.14-.69-.5-.74.38,1.45-1.2.95-1.24,1.98Zm11.62,2.73c1.38.15,2.34-.13,3.21-.5.26-1.54.05-1.87-.49-2.97-2.23-1.5-4.64,1.66-2.72,3.47Zm-165.94-1.24c1.05-.27,2.31-.33,2.22-1.74-.87-1.73-3.41-.02-2.22,1.74Zm14.84-1.74c-.13,1.37.33,2.15.74,2.98,1.6.2,2.45-.35,2.72-1.49-.98-.17-.71-1.61-1.24-2.23-1.17-.18-1.62.35-2.23.74Zm161.98,38.92c-.52-.31-.93-.72-1.24-1.24-.79-3.32-2.2-6.19-1.98-10.16.15-2.79-1.24-4.01-1.48-6.45.33-.09.39-.44.74-.5,2.08.14,3.26,1.19,4.45,2.23,1.31-.27,2.88,0,4.7-.25.02.39-.12.95.25.99.53-.71,0-2.47.5-3.22-.89-.59-2.51-.46-2.72-1.74-.04.54-.62.53-1.24.5-1.1-.38-1.61-1.36-2.47-1.98-1.04.45-2.24-1.06-3.46-1.24-.97-2.67-3.12-4.15-3.46-7.44-1.96-2.17-3.52-4.74-5.44-6.94-1.08-.15-1.83-.64-2.97-.74-.98.42-.34,2.47-1.73,2.48-1.06.24-.97-1.44-1.73-.74-.24,1.42,1.18,2.6,0,3.47-1.42-.88-2.14-.32-3.21-.25-.03-1.38-.52-2.29-1.98-2.23-1.29,2.27-1.82,5.28-2.97,7.69.23,1.52,1.17,2.16.74,3.72.33.25.92.23.99.74.3,4.42,3.66,8.09,3.71,12.64.31.52.61,1.05.99,1.49,1.3.12,1.87-.87,2.97-.25,1.11-1.37,1.07-3.89,1.73-5.7.7-.2.64.35,1.24.25.32,1.25.61,2.52.5,4.21.56.84.76,2.05,1.48,2.73.3,2.51,2.24,3.38,2.47,5.95,1.53,1.27,2.56,3.05,3.46,4.96.44.03.52-.3.99-.25,1.65,2.49,3.66,2.84,6.92,2.97.23.18.37.45.49.74,1.9-.66,4.68-.43,6.93-.74-1.15-2.32,2.15-2.92,1.73-4.46-2.74-.3-6.72,2.37-8.9-.5h.25v-.25c.58.08.93.39,1.73.25,1.22-.78,1.57-1.58,1.24-3.47-1.95-1.14-4.49-.3-3.96,2.48h-.25v.25Zm19.54-35.7c.02-.77-.11-1.38-.5-1.74-.04.78,0,1.5.5,1.74Zm-82.35,0c.08-.59.86-.46.74-1.24h-.74c.15.44-.73,1.03,0,1.24Zm40.31-.99c.29.98.29-.98,0,0h0Zm19.29,2.48c.21-2.03-.7-2.94-2.72-2.73-.5.49-.52,1.46-1.48,1.49.52,1.21.86,2.61,2.23,2.98,1.11-.54,3.18-1.43,2.97-2.48-.22.36-.2.96-.99.74Zm-145.16,1.74c1.25-.16,1.7.01,2.47-.25.61-.99.11-2.66-.25-3.47-2.76-1.71-3.94,2.44-2.23,3.72Zm146.89-2.98c.09-.5-.05-.78-.49-.74v.74h.25v.25h.25c-.04,1.75-.86,4.05-2.72,4.71-.19,1.51.17,2.48.74,3.22.84-.07,1.42-.39,2.47-.25,1.37.96-.35,3.94,1.48,4.71,1.84-.22,2.58-1.54,2.23-3.97-1.47-.01-2.79-.17-3.46-.99.54-2,.26-4.23.99-6.45-.39-.44-.88-1.52-1.48-.99v-.25h-.25Zm-177.06,10.16c-1.91.32-2.56,1.9-4.45,2.23.42.65.02,2.12.49,2.73,1.98.9,5.44.52,6.18,1.98-.66,1.57-2.04,2.42-2.97,3.72-.59,2.44.37,4.73.25,7.44,1.85-.21,2.39-1.73,2.23-3.97,1.55-2.08,2.2-5.07,5.69-5.21.72,1.46-.5,3.33.49,4.46,2.52.13,2.17-2.62,2.47-4.71.85-.72,1.93-1.2,2.97-1.73.52.14.71.61,1.48.5,3.4-1.57,8.8,1.9,9.15-2.98-2.86.03-3.54-.86-6.43-.99,0-.49-.67-.32-.49-.99-1.86.3-2.37-1.54-3.96-.74-.64-1.17-2.83-.79-2.97-2.48-3.57-.63-4.71-3.71-7.17-5.45-.68-1.72-1.13-3.66-2.72-4.46h-.5c-1.42,3.22,1.56,6.79.25,10.66Zm3.46-7.69c.87.53,1.65,1.15,2.97,1.24v-3.47c-1.65-1.68-3.3.46-2.97,2.23Zm115.49-.99c.58,0,.73.43,1.48.25-.2-.86.37-.95.25-1.74-.54-.28-1.01-.64-1.98-.5-.11.85.1,1.39.25,1.98Zm-121.92,1.24c.28-.47.04-2.06-.99-1.98-.42.86-.33,2.17.99,1.98Zm183.49,3.47c.62.53,1.78.53,1.98,1.49,1.07-.17,1.3-1.17,2.23-1.49.19-2.42-1.8-2.66-3.46-3.22-.38.94-.98,1.66-.74,3.22Zm5.94,0c-.02.31.49.49,0,.99,1.25-.52,1.23.44,2.23.74,1.18.28,1.04-.77,2.23-.5.75.9,1.97,1.33,3.46,1.49,1.13-1.28,1.87-2.62.74-4.46-2.48-.24-8.39-1.92-8.66,1.74Zm-177.81.5c.46-.45.91-.91.74-1.98-1.85-1.76-2.84,1.73-.74,1.98Zm137.99,0h-2.47c-.68,1.27-.08,3.15.74,3.72,1.26-.42,2.2.75,2.72.25.09-1.62-1.01-3.92.49-5.21-.34-.32-.11-1.21-.74-1.24-.46.61-.26,1.89-.74,2.48Zm2.72-2.23c0-.25-.43-.31-.5,0,.05.3.27.15.5,0Zm-155.55.25c.29.98.29-.98,0,0h0Zm40.8,5.21c1.39-1.95.25-4.17-2.23-4.21-.99,1.8-.19,4.38,2.23,4.21Zm-38.58-3.47c-.66.68-.02,2.16.25,2.73,1.63-.11,1.86-1.47,1.48-2.97-.66,0-1.41-.09-1.73.25Zm142.2,0c-.46.45-.56,1.25-.74,1.98.54,1.71,3.73,1.81,4.95.5-.24-.38-.94-1.66-1.24-2.73-.9.17-1.8.35-2.97.25Zm-126.86,1.98c.52.14.71.61,1.48.5.05-.28.28-.39.5-.5.12-.78-.35-.97-.5-1.49-1.22-.23-1.71.26-1.48,1.49Zm173.11,2.23v1.74c.44.14,1.03.13,1.24.5.17,1-.24,1.42-.25,2.23,1.59-1.22,3.84-1.77,3.96-4.46-.29-.37-.71-.61-.74-1.24-1.8.02-3.22.4-4.2,1.24Zm-7.91.25c.46-.44-.07-.77-.5-.99-.07.56.06.93.5.99Zm13.6,2.48c1.22-.06.82.36.74,1.24,1.12.52,2.07,1.23,3.46,1.49,1.04-2.04.46-3.85-.99-5.45-2.26-.28-3.13.83-3.21,2.73Zm-43.52.74c1,.7,2.33-.04,2.97-.5-.2-2.33-3.23-2.05-2.97.5Zm38.08-.99c-.09-.2-.66-.3-.74,0-.16.57.97.54.74,0Zm-2.23.99c-.39-.02-.19-.63-.74-.5-.39.68.64,1.11.74.5Zm13.11,1.74c.97.27.99-1.48.25-1.49-.29.29-.28.88-.25,1.49Zm-5.93-1.24c-2.86-.63-3.17,2.22-2.23,3.97,1.25-.23,2.58-.39,3.22-1.24.3-1.54-.44-2.04-.99-2.73Zm-39.81,1.49v.5c.32.01.34.32.74.25-.32-.61.55-1.2,0-1.24-.1.31-.32.51-.74.5Zm-152.83,3.97c1.1.11,1.84-.14,1.73-1.24-.71-.44-1-1.31-1.98-1.49-.33.77-.43,2.28.25,2.73Zm193.88-.74c-1.48,2.03.21,3.48,1.24,4.96,2.95-.03,4.08-3.61,1.73-4.96.34-.32.25-1.08.25-1.74h-.74c-.37,1.03-1.07,1.74-2.47,1.74Zm-5.94-.74c.29.98.29-.98,0,0h0Zm-190.42.74h.49v-.5h-.49v.5Zm18.3.99c.76.38.76-1.62,0-1.24v1.24Zm173.11,0c.24-1.07-.96-.69-1.24-1.24-.28,1.1.76.89,1.24,1.24Zm-6.18,1.49c.62-.8-.47-1.55-.99-1.98-.02,1.02.03,1.95.99,1.98Zm8.9-1.74c-.28.03-.39-.36-.5,0,0,.25.43.31.5,0Zm-3.46,5.95c1.52-.92,1.98.62,3.96,0,.6-1.55.35-4.03,0-4.96-2.5-.38-5.14,1.73-3.96,4.96Zm-30.91-4.21c-.28.02-.38-.36-.49,0,0,.25.43.31.49,0Zm25.97,4.21c.8-.14,1.15.17,1.73.25,1.86-.74,1.12-2.75,1.73-4.46-1.4.74-1.42.57-3.21.25-.75,1.03-1.99,2.74-.49,3.97h-.25v.25c-4.73.58-2.31,5.71,1.73,4.96.36-1.29.76-1.43.74-2.73-.54-.94-1.55-1.43-2.23-2.23h.25v-.25Zm-184.73.74h1.48c-.21-1.03.57-3.05-.74-2.97-1.09.07-1.17,2.17-.74,2.97Zm199.82-2.97c-.19.06-.49,0-.49.25.19-.06.49,0,.49-.25Zm-4.2,6.2h2.72c.81-.99,1.46-2.08.99-3.72-2.06-2.81-5.88.98-3.71,3.72Zm4.45-4.71c-.28.02-.39-.36-.49,0,0,.25.43.31.49,0Zm-189.43,3.22c.19-1.35-.38-1.93-.74-2.73-4.96-.95-1.84,5.82.74,2.73Zm152.58.5c.95.12.38,1.77,1.24,1.98-.24-1.3,1-3.52-.25-4.21-.08.99-.67,1.47-.99,2.23Zm-127.61,1.74h1.73c.06-1.01.75-1.4.74-2.48-1.48-2.53-4.28.34-2.47,2.48Zm157.28-1.98c-.75-.82-2.27-.86-3.46-1.24-.07,1.25-1.37,1.27-1.48,2.48.54,1.6,1.62,2.68,3.96,2.48.35,1.13.97,2,2.47,1.98.8-2.25-2.24-2.68-1.48-5.7Zm-27.7,2.48c2.24-.35,2.22,1.57,4.2,1.49.41-1.86-.66-4.27-3.21-3.97.12,1.27-.79,1.52-.99,2.48Zm37.09-1.49c.69.4.68-1.07.25-.99-.08.34-.35.47-.25.99Zm-1.98.25c.05-.54-.2-.79-.74-.74-.04.54.2.79.74.74Zm-197.59,2.73c.4-2.2-1.92-3.23-2.72-1.49.79,2.9-.99,5.54.25,7.93,2.97,1.08,6.74-.28,5.19-3.72-1.34-.27-1.64.5-2.72.5-.52-.47-.76-1.22-.99-1.98.34-.4,1.18-.31.99-1.24Zm27.2.5c.7.62,1.41,1.23,2.97.99-.03-1.02.43-1.55.25-2.73-1.04-1.45-3.97-.8-3.21,1.73Zm171.13-1.73c.01-.15.04-.29.25-.25-.03-.3-.08-.59-.5-.5.04.29-.04.7.25.74Zm-195.12,2.73c.36.38,1.27.22,1.98.25.21-.7.8-1.02.74-1.98-.86-2.24-3.91-.22-2.72,1.73Zm189.92-2.48c-.21,1.47.14-.99,0,0h0Zm-.25,2.98c.33,1.45,2.6,1.84,4.2,1.24.61-1.03.63-2.9-.49-3.47-1.54.44-3.56.4-3.71,2.23Zm-28.44.74c.62.37,1.11.88,1.98.99.56-.67.71-1.77.74-2.97-.62-.21-1.32-.33-2.22-.25.22,1.13-.41,1.41-.5,2.23Zm21.27-1.24h.74v-.74h-.5c-.01.32-.32.34-.25.74Zm-154.56.25h.5v-.5h-.5v.5Zm3.71,2.73c.7.04.62-.7.99-.99-.55-.44-1.07-.92-1.24-1.74-.61-.03-1.19-.04-1.48.25-.29,1.48,1.01,1.73,1.98,1.24,0,.25.2.29.25.5-.06.35-.41.42-.49.74Zm-19.29-.74c.7.21,1.01.8,1.98.74.34-.49.24-1.42.49-1.98-.94-.89-2.8-.53-2.47,1.24Zm15.08-.74c.08-.34.35-.47.25-.99-.84-.19-.96.95-.25.99Zm-1.48,2.97c.54.62.91,1.4,2.22,1.24.78-.62,1.3-1.5,1.24-2.97-1.56-1.47-3.64-.92-3.46,1.73Zm137.25-.99c-.28.03-.38-.36-.49,0,0,.25.43.31.49,0Zm.74,5.45c1.46-.76,3.06-1.39,3.71-2.98-.19-1.14-.98-1.66-1.24-2.73-1.06-.07-1.22.76-2.47.5-.72,1.57-.44,2.67-.49,3.97,1.37-.08.84.64.49,1.24Zm-148.87-2.98c.71.45,1.1,1.21,2.47.99,1.06-.63.55-2.24,0-3.22-2.12-.55-2.36.77-2.47,2.23Zm174.59-.25c-.09,1.38,1.09,2.72,2.97,2.73,4.19-2.29-2.71-6.73-2.97-2.73Zm-176.57,0c-.36,1.1-1.34.26-2.23.99.2,1.02-.38,1.27-.25,2.23.65.34.85,1.13,1.73,1.24,2-.24,2.7-3.57.74-4.46Zm155.55,2.73c.6-.18.88-1.32,1.73-.5-.1-.6.45-.54.25-1.24-.8-.31-.19.8-.99.5.03-.61.04-1.19-.25-1.49h-.74c-.95.98.79,1.9,0,2.73Zm-138.24-.5c.41.58,1.44.54,2.47.5,1.05-2.49-2.33-2.8-2.47-.5Zm-37.09,1.49c.54.28,1.01.64,1.98.5.42-.48.43-1.39.74-1.98-1.1-.87-3.12-.54-2.72,1.49Zm174.59-1.98c-.19.06-.49,0-.5.25.19-.06.49,0,.5-.25Zm-147.39,1.49c.34,1.08-.07,1.38,0,2.73.76-.18.48.68,1.24.5.92-.65,2-1.14,1.98-2.73-.19-.05-.29-.21-.25-.5-.99-.55-1.68.16-2.97,0Zm151.35,3.72c.95-.04,1.14-.84,2.23-.74.59.32,1.01.81.99,1.74-.79.21-.76-.39-1.24-.5-.62,1.03-1.57,1.73-2.23,2.73,1.23.25,1.2,1.77,2.23,2.23.1-.55,1.31-.19,1.48,0,1.08-.88.86-2.7.99-3.97,1.13.74,2.99,1.47,4.45.5.46,1.35.88,2.75,2.47,2.97.94-.79.99-2.48,2.23-2.97,1.13.6,1.19,2.28,2.22,2.97,1.49-.65,2.53-1.64,1.98-3.72-2.21-1.69-4.1,1.14-6.43-.25-.7.04-1.03.46-1.73.5-.48-1.69.45-2.79-.99-3.72-2.16-.26-3.5.3-4.7.99-.61-.8-.81-2-1.48-2.73-3.23-.94-3.69,2.62-2.47,3.97Zm-147.88,5.95c-1.93,2.03-4.46,3.46-7.42,4.46-.49,2.05-1.52,4.67-.74,7.19.68.09,1.74-.71,2.23,0,.21,1.85-.74,2.16-.25,3.72,1.56,2,5.61-.4,7.42,1.24.82-.59.99-.31,2.23-.5,2.19-2.37,3.15-4.57,4.7-7.69.22-4.72-1.82-9-1.98-14.13-2.38-.42-2.05-3.56-4.45-3.97-.13,3.67-.72,6.88-1.73,9.67Zm159.26-7.19c1.11,3.44,5.56.53,3.71-2.23-2.14-1.1-3.47.61-3.71,2.23Zm-186.71-1.98c.29.98.29-.98,0,0h0Zm20.53-.25c-2.1.43-1.47,3.33,0,3.97,1.32-.37,2-3.79,0-3.97Zm146.15,3.97c.05-1.28.28-3.55-.99-3.97-.31,1.96.44,2.86.99,3.97Zm2.97-2.98c.32,1.31-.72,1.27-.49,2.48.66,1.08,1.34,2.13,2.97,2.23,1.76-1.76.36-7.45-2.47-4.71Zm24.24,3.22c.46,1.35,2.39,1.24,2.72,2.73.49-1,1-1.97,1.48-2.97-.5-.49-.85-1.14-.74-2.23-.72-.1-1-.65-1.48-.99-.79,1.02-2,1.63-1.98,3.47Zm5.19-.5c-.19-.61.9-1.72-.25-1.73-.15.61-1.11,1.68.25,1.73Zm-164.95-.99c.06.76.54,1.11.74,1.74.75-.16,1.43-.39,1.48-1.24-.28-1.13-1.26-1-2.23-.5Zm-18.05,4.96c4.79.22-1.03-8.1-1.73-1.49.74.71.78,1.44,1.73,1.49Zm183.5.5c1.45-.08.21-2.05.25-2.97h-.74c.47,1.07.85,1.58.49,2.97Zm-177.31-2.48c-.3.78-.92,1.23-.74,2.48.39.36.86.62.99,1.24.98-.18,1.8-.5,2.23-1.24-.01-1.96-.61-2.94-2.47-2.48Zm-20.28,3.22c.38,1.44.82,2.81,2.97,2.48.72-.51.87-1.61.74-2.98-1.51-.7-3.06-1.45-3.71.5Zm35.12-.99c.39-.02.86.03.74-.5h-.49c0,.25-.2.3-.25.5Zm133.79,1.24c.08,1.57,1.68,1.62,2.72,2.23,3.84-2.09-1-5.71-2.72-2.23Zm13.11,22.06c.46-1.19,1.65-1.65,2.22-2.73,6.53-1.4,6-13.17,2.47-17.35-3.22-.41-5.08-3.98-8.41-2.73.77,2.53,3.45,3.15,5.19,4.71.36,1.12,1.16,1.82,1.73,2.73-.02.43.06.77.25.99-.98,1.25-1.61,2.85-1.98,4.71-2.9,2.21-6.28,3.95-9.65,5.7-1.04,1.6-2.29,2.99-3.96,3.97-1.57,3.48-2.03,7.12-3.22,9.92.46,1.54,1.37,2.29.74,3.72,1.88-.1,1.74-2.22,2.97-2.97,1.35,1.45-.47,2.21-.5,3.72-.33.08-.47.35-.99.25-.06,1.67-1.07,2.4-.99,4.21.17,1.07,1.33,1.14,1.73,1.98,1.49,3.55,4.85,5.22,6.18,8.93,2.2,2.15,5.45,2.27,7.42,4.96-3.4.48-6.35-1.36-9.4-1.24-.57.08-.27-.72-.74-.74-.04.29.04.7-.25.74-2.89-1.24-7.18-1.07-9.64-2.73-2.13.15-3.11-.85-5.44-.5-.25-.91-2.07-.24-1.98-1.49-3.76.17-6.5-3.31-9.89-3.47-2.22-.11-3.78,1.53-5.94,1.49-.19.55-.52.97-.49,1.74h1.98c2.43.44,4.52,2.75,7.67,3.22.17.73,1.42.39,1.48,1.24,2.72.08,4.05,1.55,6.92,1.49,1.02.96,3.09.87,4.2,1.73,2.58-.19,4.39.39,6.92.25.91.26,2.06,1.16,2.72.25.61.71,1.4,1.24,2.23,1.73.85.11,1.39-.1,1.98-.25,4.58,1.6,8.84-.02,14.1.74.66-.52,1.8-.94,2.72-.5-.57.26.12,1.77.5.99-.42-1.5,2.18-2.11,1.24-4.96-1.52-1.26-3.96-.32-5.44.5-.99.17-1.41-.24-2.23-.25-2.02-2.11-4.02-4.23-5.94-6.45-.23-1.34-.26-2.88-.74-3.97.31-1.93.27-4.2.25-6.45.55-1.34,1.71-2.09,1.98-3.72,1.75-1.09,5.1-3.69,5.44-5.7.24-1.44-1.06-2.01-.99-3.72-1.11-2.01-4.39-.68-5.94-2.48-.75.07-.7.96-1.48.99-2.9.48-3.78,2.99-5.93,4.21-.4.69-1.12,2.33-2.23,1.49,2.3-4.39,5.88-7.49,11.13-8.93Zm13.6-23.3c-.75.84.92.75,0,0h0Zm-29.43,1.73c.25-.33.24-.91.49-1.24-.73-.29-1.06,1.05-.49,1.24Zm-151.84-.25c-.11,1.84.24,3.24,1.24,3.97,1.42-.48,2.58-1.22,2.47-3.22-.91-.85-2.14-1.65-3.71-.74Zm180.28,1.98c.88-4.2-6.93-1.88-3.21,1.49,1.94.16,2.99-.43,3.21-1.49Zm-27.95-.74c.6.24.82-1.11.5-.99,0,.49-.68.32-.5.99Zm8.66.5c-.26,1.45-.53,1.9-2.23,1.49v1.24c1,.34.78-.54,1.48-.5.44,1.79,1.79,2.66,3.71,2.97.29-1.03,1.47-1.17,2.72-1.24-.25-.99-.42-1.88.5-2.23-1.39-.8-1.31,1.76-2.23,2.23-.1-1.08.23-2.49,0-3.47-1.22.7-1.85-.38-2.47-.99-.24.98-.43.46-1.48.5Zm-177.56,3.72c1.17-.97-.11-2.1,0-3.47h-1.73c-.37,1.38-.19,3.22,1.73,3.47Zm169.15-3.22v.5c.61.39.73-.84.25-.74-.01.15-.04.29-.25.25Zm1.48,2.23c-.04,2.86.58,5.37,3.21,4.21.65-1.29,1.42-3.08.74-4.96-.63-.44-1.44-.7-1.98-1.24-.46.86-.74,1.9-1.98,1.98Zm27.94,0c.76.38.76-1.62,0-1.24v1.24Zm-14.34,1.49c.04-.62.04-1.2-.5-1.24-.04.61-.05,1.2.5,1.24Zm-182.26,1.24c.81.51,1.31,1.33,2.72,1.24.77-.39,1.19-1.12,1.24-2.23-.67-2.05-3.8-.96-3.96.99Zm191.16-.25c.14,1.73,2.53,2.67,3.71,1.24v-1.98c-1.23-1.45-3.12-.94-3.71.74Zm-185.72-.5c-.18.76.43.73.25,1.49h1.73c-.03-.71.14-1.62-.25-1.98-.89-.15-1.2.29-1.73.5Zm190.17.74c.63-.03.96-.36.99-.99-.57.09-1.16.16-.99.99Zm-201.55-.5c.29.98.29-.98,0,0h0Zm203.28.25c.29.98.29-.98,0,0h0Zm-20.03,7.19c.02.39-.03.86.5.74-.37-1.44-.85-2.79-1.73-3.72.17-.99.54-1.77.5-2.98-.53-.54-1.28-.86-2.23-.99-2.04,1.26-1.14,3.26,0,4.96-.84.18-.56,2.42-.25,2.98,1.28.88,2.44-1.37,3.21-.99Zm3.46-6.94c-1.71.37-3.1,2.98-1.48,4.46.81-.01,1.23-.42,2.23-.25.64-.68.29-2.36.74-3.22-.79-.04-.73-.92-1.48-.99Zm-185.23,1.74c.55.11.1,1.22.25,1.73.79.21.76-.39,1.24-.5-.52-.75-.46-1.53-.99-1.74,0,.33-.43.23-.49.5Zm172.86,5.45c.74.41,1.98.33,2.23,1.24.04,1.94-2.87.92-3.21,2.48-.1,1.58.32,2.65.99,3.47,2.27.13,2.64-1.65,2.47-3.97.04-.29.39-.27.74-.25-1.09-2.45,1.31-3.22.74-5.95-1.62-2.28-5.21.22-3.96,2.98Zm24.23-2.48c.29,1.6-.96,2.73-.49,3.72,1.48.16,1.88-.76,2.72-1.24.68.23,1.05.76,1.73.99-.61-1.52.7-3.15-.74-4.96-1.31.26-2.3.84-3.21,1.49Zm-183.49-.74c-2.6.06-5.17-.12-7.91,0-1.66.9-1.76,3.35-4.45,3.22-.15,1.44-.98,2.27-1.24,3.72-.5,2.88.49,6.38,0,8.92,1.02,2.45.08,6.86,2.97,7.44.67-1.36.4-2.36.5-4.46.76-1.8,2.57-2.55,4.2-3.47,4.25.38,6.05-1.7,8.9-2.73,1.22-2.59,2.15-5.91,1.48-9.67-2.38.23-2.82-1.85-4.45-2.97Zm156.54.25c-.19.06-.49,0-.49.25.19-.06.49,0,.49-.25Zm.5,5.45c.79-.22.34.82.99.74.07-.63,1.06-1.41,0-1.73-.06.44-.43.56-.99.5h-.25v.25c-.25-.16-.26-.57-.74-.5.43.95-.92,2.13.25,2.23.56-.11,0-1.32.49-1.49l.12.12.12-.12Zm29.18,0c.63.26,1.41-.52.74-.74-.03.47-.82.17-.74.74Zm-165.94,2.48c-.11,1.9,2.16,2.57,3.21,1.24.14-2.15-.69-2.46-.74-3.97-.52,1.21-2.06,1.41-2.47,2.73Zm160.25-.99c.43.02.77-.06.99-.25.04-.62-.38-.78-.74-.99-.21.29-.33.66-.25,1.24Zm-173.35,0v-.99h-.74c-.04.62.38.78.74.99Zm.49,12.89c.55.36.49,1.33,1.24,1.49,1.04-1.05,1.46-3.08,1.73-4.96.42-2.89.72-6.34,0-8.93-.73-.34-1-1.14-1.73-1.49-1.73,2.02-.39,5.35-.49,8.43-.87,1.45-.99,2.85-.74,4.96h-.25v.25c-.82-.46-1.38-.44-2.72-.74-.76.54-1.15,2.74-.25,3.47,1.56-.17,2.65-.81,2.97-2.23h.25v-.25Zm175.83-13.39c-.5,1.07-1.81,2.09-.99,3.72,2.08,1.07,3.74-.51,4.95-1.74-1.13-.85-1.77-2.19-3.96-1.98Zm4.95,1.98c0-.25-.43-.31-.49,0,.05.3.27.15.49,0Zm-169.4,2.23c.26-2.92-3.34-2.75-3.46.25.86.46,1.36,1.28,2.47,1.49.53-.84.91-.84.99-1.73Zm158.52,1.49c.65.75,1.1,1.71,2.47,1.74,1.22-.69,1.4-1.94,1.48-3.22-1.11-1.47-4.3-.73-3.96,1.49Zm-21.27-.5c-.47,1.54-2.03,2.65-1.24,4.71-1.19,1.04-1.81,2.65-3.71,2.97-.02,1.09.59,1.56,1.24,1.98.26-.23.08-.91.74-.74,1.17.48.13,2.07.99,2.48v-1.24c2.87-.46,2.25-3.95.99-5.7.72-.76,2.67-.3,3.21-1.24-.23-1.26-.21-2.76-.99-3.47.04.54-.88.11-1.24.25Zm-132.8,4.46c.36-.88.36-2.59,0-3.47-3.68-2.48-3.31,5.07,0,3.47Zm161.98-3.72c-.67.75.75-.68,0,0h0Zm-2.72.74c-.21.87-.75,1.4-.99,2.23.44,1.05.85,2.12,2.23,2.23,1.92-.5,2.29-2.46,1.48-4.46-.94.52-1.54-.1-2.72,0Zm-167.42,3.22c1.29.43,2.82-.5,3.21-1.74-.89-2.2-3.8-.98-3.21,1.74Zm-9.4-1.24c.25,0,.29.2.5.25-.02-.39.03-.86-.5-.74v.5Zm-4.7.99c-.04,1.36.19,2.46.99,2.97.77-.8,1.86-1.27,1.73-2.97-.51-.38-2.21-.38-2.72,0Zm156.54.74c-.21,1.47.14-.99,0,0h0Zm21.52,0c.13,1.87,1.91.08,0,0h0Zm-167.17,1.49c-.18,1.75.15,3,1.48,3.22.04-.29.39-.27.74-.25,1.55-1.8-.48-5.09-2.23-2.98Zm4.95.5c-.04,1.53,1.09,1.88,1.98,2.48.92-.17,1.35-1.81.74-2.73-.71-.54-2.22-.2-2.72.25Zm-20.53.74c-.18,1.67.77,2.2,1.98,2.48.94-.74,1.39-2.6,0-3.22-.02.89-1.62.2-1.98.74Zm187.2-.5c-.84.23-1.77.37-2.47.74v2.97c1.32,1.73,4.38.82,4.45-1.49-.85-.55-.78-2.03-1.98-2.23Zm-161.98,4.21c1.31-.01,1.44-1.2,1.48-2.48-1.52-2.17-3.72,1.71-1.48,2.48Zm126.86.74c-1.18-.19-1.46.52-1.48,1.49,1.02.19.46-1.19,1.48-.99-.03,1.11,1.26.89,1.73,1.49.16-.86,1.48-1.49,1.98-1.24-.75,2.47-.49,5.95-1.98,7.69,1.04,2.95,4.03,1.12,4.2-1.49-.15-.93-1.07-1.07-1.48-1.73,1.21-1.46,3.47-2.99,2.23-5.45-1.02-.13-1.93-.37-2.23-1.24-.14.36.29,1.28-.25,1.24h-.74c.62-4.21-3.53-1.92-3.46.25Zm29.18-.5c.31-.2,1.49-1.55.25-1.74-.07.45-.89,1.39-.25,1.74Zm-185.97,1.98c1.8.61,1.55-2.47.25-2.23-.21.62-.32,1.33-.25,2.23Zm7.67.5c.6.48,2.13.3,2.47-.25.22-1.71-.52-2.45-2.23-2.23-.55.34-.73,1.87-.25,2.48Zm4.2.25c.64,2.85,4.72,5.2,7.42,2.98.54-2.01.14-4.16-.74-5.45-2.84-.29-6.07-.14-6.68,2.48Zm10.88.5c0-1.57.26,0,.25,0,1.84.53,1.38-1.09,1.24-2.97h-1.98c-.87.67-.59,2.81.5,2.97Zm162.72-.74c-.05-.51,1.24-1.59,0-1.74-.4.29-.9,1.57,0,1.74Zm5.94.74c.35,1.05,1.04,1.77,1.98,2.23,1.26-.39,2.01-1.29,2.22-2.73-.91-1.19-3.92-1.42-4.2.5Zm-164.95,2.23c.57-.26,1.49-.16,1.98-.5.14-.97-.21-1.44-.49-1.98-2.15-.8-2.48,1.62-1.48,2.48Zm161.49,2.98c1.62-1.02,2.39-2.14,1.98-4.71-4.61-3.15-5.75,3.79-1.98,4.71Zm-29.68-4.46c-.21,1.47.14-.99,0,0h0Zm22.75,4.21c.9.84,2.56.74,3.46-.25.05-2.03-.7-3.26-1.73-4.21-.25,1.81-2.43,1.7-1.73,4.46Zm-183.74-1.74c.73.34,1.79.36,2.23-.25.55-3.08-3.7-2.8-2.23.25Zm5.69.25c1.38.06,1.28-1.37,1.48-2.48-2.06-.71-2.51,1.59-1.48,2.48Zm150.6-1.49c-.2,1.61.34,2.47.74,3.47,1.67.37,2.04-.17,3.22-.74.04-1.49.13-1.57,0-2.97-1.23-.89-2.95-.77-3.96.25Zm-142.44,6.45c.99-1.38.24-3.4,0-4.96-1.24-.49-2-1.46-3.46-1.73-1.29,1.18-2.85,2.1-2.47,4.96.78.53.97,1.26,2.23.74-.21.29-.33.66-.25,1.24,1.54.98,2.56.46,3.96-.25Zm181.76-3.72c-2.4,0-4.02,2.56-1.98,4.21,1.47.32,1.68-.63,2.72-.74.2-1.93-1.12-3.13.25-4.21-.38-.28-.52-.81-1.24-.74-.18.76.43.73.25,1.49Zm-171.13,2.73c1.12-.28,1.56-1.25,1.73-2.48-.57-.42-1.05-.93-1.98-.99-1.05.63-1.54,3.25.25,3.47Zm127.6-1.98c-.68,1.15.49,2.27,0,3.22,1.01-.02,1.17.81,2.47.5.97-.55,1.5-3.21.49-4.21-1.37.25-1.57.2-2.97.5Zm14.84,1.74c.03.71,1.05.43.99,1.24.97-.43,1.06-.63,1.98-.74-.2-.86.37-.95.25-1.73-.98.07-.76-1.06-1.73-.99-.5.74-1.53.95-1.48,2.23Zm-164.45-1.49c-.91.91-2.07,1.56-2.72,2.73.68,2.35,2.24,3.8,5.19,3.22,1.93-1.66,1.3-7.73-2.47-5.95Zm196.36,1.74c.05-.19.21-.29.49-.25.12-.78-.21-1.11-.99-.99-.04.62-.04,1.2.5,1.24Zm-179.29-.25c-.47-.28-1.17-.32-1.73-.5-.42,1.67,1.64,1.87,1.73.5Zm126.62-.25c.29.98.29-.98,0,0h0Zm38.83.5c-.26.65-.3,1.52-.25,2.48.85,1.14,3.27.82,3.71-.5-.52-1.87-1.55-3.38-3.46-1.98Zm-33.88,0c-.6.83.83-.6,0,0h0Zm38.33,0c0-.25-.43-.31-.49,0,.05.3.27.15.49,0Zm-28.69,3.47c.42-.58,1.52-1.77.99-2.48-.38.29-1.54-.76-2.47-.74-1.18,1.16-1.4,3.81,1.48,3.22Zm-144.92-2.73c-.21,1.47.14-1,0,0h0Zm153.82,1.49c.06-.39.95-1.16.25-1.49-.06.38-.95,1.16-.25,1.49Zm-4.45,0c-1.35.22-1.57,1.57-1.73,2.97.76.32,1.24.91,2.23.99,1.5-.83,1.12-3.57-.49-3.97Zm-23.99.5c.29.98.29-.98,0,0h0Zm52.92.99v1.73c.95-.04.96.86,1.73.99.8-.44,1.55-.92,2.23-1.49v-1.73c-.98.59-.67-.55-1.48-.74-.68.56-1.58.9-2.47,1.24Zm-23.99,3.22c1.57-.16,2.86-.6,2.72-2.48-1.26-2.38-3.87.36-2.72,2.48Zm18.3-1.74c-.55,2.48,1.59,3.21,3.46,2.48.4-.59.55-1.43.74-2.23-.64-1.87-2.84-1.33-4.2-.25Zm-13.11,2.98c.79-.56.27-2.29-.49-2.73,0,1.08-.09,2.24.49,2.73Zm-176.82,1.98c1.37.35,3.2,0,4.45-.5.15-1.39-.13-2.35-.5-3.22-2.79-1.6-5.16.62-3.96,3.72Zm202.54-4.21c-.19.06-.49,0-.5.25.19-.06.49,0,.5-.25Zm-65.53,3.47c.93.2,2.77-.2,2.97-1.49-.22-.52-.38-1.1-.74-1.49-2.29-.35-3.26,1.34-2.23,2.98Zm6.92,1.49c-.89.68-2.05,1.08-1.73,2.98.57.25.8.85,1.73.74,1.63-.67.73-3.9,3.21-3.72-.17-1.08.42-1.4.25-2.48-1.44-1.72-4.25-.29-3.46,2.48Zm-10.39-2.97c-.55,1.19-1.95,1.52-2.47,2.73.15,1.31-.18,2.13-.25,3.22-.43-.02-.77.06-.99.25v1.73c3.29,1.08,2.02-4.37,4.7-4.71.14-1.3-.44-1.88-.25-3.22h-.74Zm19.29,1.49c-.19.06-.49,0-.5.25.19-.06.49,0,.5-.25Zm-28.69,4.71c.55.95,1.37.82,2.23.99,1.19-.95.86-2.33.74-4.21-.53-.21-.84-.64-1.73-.5.07,1.73-1.6,1.71-1.24,3.72Zm-109.8-1.98c-.14-.44.3-1.46-.25-1.49-.43.32-.9,1.57.25,1.49Zm15.58-1.24c0,1.41,1.18,1.62,2.23,1.98.71-.75.41-1.86-.49-2.23-.53.68-1.14-.25-1.73.25Zm76.91.99c.47.52.67,1.31,1.73,1.24.55-.67.15-1.99-.25-2.48-1.09-.18-1.28.53-1.48,1.24Zm-12.61-.25v2.23c.33.41,1.4.08,1.73.5.3-1.02,1.26-1.38,1.73-2.23-.52-1.82-2.02-.92-3.46-.5Zm-78.89,0c.28,1.62.6,3.2,2.47,3.22.87-.36,1.14-1.34,1.48-2.23-.55-1.15-2.76-1.98-3.96-.99Zm6.43.25c-.07,1.64.16,2.98,1.48,3.22.97-.85,2.37-1.26,1.98-3.47-.97-.71-2.72-.56-3.46.25Zm15.58-.74c-3.58-.65-1.9,3.19-.25,3.47.29-.21.66-.33,1.24-.25-.01-1.68.02-2.28-.99-3.22Zm81.36.74c-.05,1.37.27,2.37,1.73,2.23,1.34-.43,1.03-2.6-.25-2.98-.75,0-.96.52-1.48.74Zm-48.96,2.73c.99-.24,1.52-.96,1.48-2.23-1.71-2.3-3.19.66-1.48,2.23Zm79.14-3.22c-.97.8-.21,2.63.25,3.47,1.67.61,4.12.28,4.45-1.24-.48-.35-.37-1.28-.74-1.73-1.5.01-2.62-.35-3.96-.5Zm-138.73,1.98c.59.32.91.91,1.98.74-.12-.78.76-.56.49-1.49-.27-1.36-3.07-1.43-2.47.74Zm37.34-1.24c.46.44.93.88,1.48,1.24-.04-.7.21-1.7-.5-1.73.18.67-1.17-.18-.99.5Zm7.67,1.74c.17-1.58-.85-1.96-1.98-2.23-.13,1.54.48,2.33,1.98,2.23Zm9.4-.25c1.08.52,1.92-.5,1.73-1.98-1.37-.14-1.74.74-1.73,1.98Zm-22.5.5c.88.22.61.03,1.48.25.58-.41.54-1.45.49-2.48-1.47-.07-2.21.59-1.98,2.23Zm16.82,0c.25-.61.08-.53.25-1.49-1.33.42-.87-.95-1.98-.74.21,1.11.65,1.99,1.73,2.23Zm98.92,1.49c.47-.71.27-2.47,0-3.22-3.61-2.34-4.93,4.4,0,3.22Zm-69-2.23c.25.66.41,1.41,1.24,1.49,1.25.01,1.62-.85,1.48-2.23-.69-.9-2.77-.56-2.72.74Zm12.37-.5c-.14.97.21,1.44.49,1.98,2.01.28,2.54-.92,2.72-2.48-1.42-.38-2.12,0-3.21.5Zm-25.47,1.98c1.55.96,3.2-.7,2.23-2.23-1.16-.43-2.63.33-2.23,2.23Zm6.68-.5c.29.29.87.28,1.48.25,2.21-1.93-1.81-3.41-1.48-.25Zm29.43,1.49c2.26,1.11,3.36-1.82,2.23-3.47-2.44-.5-2.71,1.79-2.23,3.47Zm-106.83-1.49c.89.01,1.2.62,1.98.74.38-.36.22-1.27.25-1.98-.81-.78-2.79-.72-2.23,1.24Zm132.06.99c.75.93,2.84.43,3.46-.25.41-3.06-4.25-3.29-3.46.25Zm-80.87-.25c1.08.02.91-2.18,0-2.23.45.85-.03,1.19,0,2.23Zm23.74-1.24c.32-.33.33-.92-.25-.99.04.37-.09.91.25.99Zm19.29,1.49c.78.04.85-.64.99-1.24-.7.05-1.05.43-.99,1.24Zm60.59,0v-.99c-.98-.17-.81,1.04,0,.99Zm-102.38-.5c-.21,1.47.14-1,0,0h0Zm10.63-.25h-.99c-.19.95,1.18.95.99,0Z"/>
  <path class="cls-7" d="m116.72,198.51c-.37-1.2.37-3.07-.74-3.97-.91.66-2.28.86-2.47,2.23-.41,1.65,1.5.97,1.24,2.48-4.25.77-8.77,1.92-13.11.74-4.14,1.72-9.47-.16-13.35-.99-.08-.83-.94-.88-1.24-1.49,0-1.58,1.62-3.28.49-4.46-2.44-.29-2.1,2.19-3.46,2.98-2.79.4-2.71-2.08-4.45-2.73-.37-1.94-1.07-3.56-1.73-5.21.19-2.51.32-4.93.25-7.68-.06-2.21-.8-4.37-.74-6.45.02-.6.4-1.14.5-1.73.27-1.76-.11-3.7,0-5.45.06-1.03.45-1.98.49-2.98.11-2.39-.61-4.79-.49-7.19.11-2.28.9-4.24.74-6.45-.18-2.43-.65-5.7-.49-8.92-.07-.65.09-1.07.74-.99-.69-2.13-.3-4.13-.25-6.94-1.28-5.13-.18-10.42-.74-16.11.03-.88.41-1.41.74-1.98-2.5-3.08,1.63-7.36,4.45-4.46,3.19-.78,7.44-.72,10.63,0,2.14-.77,4.21-1.11,6.68-.5,6.28-.36,12,.64,16.57,2.48,1.05.15,1.64-.18,2.47-.25,3.08,1.77,5.86,2.8,9.4,3.72.61,1.71,2.58,2.04,3.46,3.47,4.7,1.65,8.03,4.68,10.14,8.92.82,1.49,2.75,1.87,2.97,3.97.26.84.08-.69.74-.25.19.55.52.97.49,1.74,4.23,3.36,3.53,10.29,6.43,15.12.76,3.22,1,7.4-.49,10.16.08,6.2-2.58,9.64-3.46,14.88-1.01,2.46-3.1,3.83-3.96,6.45-2.97,3.46-6.52,6.36-9.15,10.16-1.5,1.06-3.21,1.91-4.45,3.22-4.11.83-6.11,2.28-9.4,3.97-2.1-.25-3.64,1.25-5.44.5Zm17.06-66.69c.2.05.25.25.49.25.14-.36.39-.61.74-.74-.28-1.04-1.12-1.52-1.98-1.98-.4.48-.42,2.07.49,1.98v.5c-.2.05-.25.25-.49.25v-.25h-.25c-1.52-.46-2.65-1.31-3.71-2.23-.13,1.19-.87,1.78-.99,2.98.51.98,1.68,1.29,1.98,2.48,1.13.22,1.4-.41,2.22-.5.4-.91.27-1.97.5-2.48v.25h.25c.29.04.44-.05.49-.25h.25v-.25Zm-30.91,15.87c.34-.01.54.12.74.25.26-1.17-1.24-.57-1.24-1.49.64-.98-.6-2.38.74-2.73,2.32,1.56,2.94,4.82,5.44,6.2,1.54,1.18,3.35.25,5.19.25,2.46-2.44.45-5.42-.25-8.43-.31-1.34-.12-2.74-.5-3.97-.52-1.72-2.18-4.04-2.72-5.45.45-4.31-1.71-7.77-2.47-11.65,1.12-1.98-.78-4.25-.49-6.94-1.11-.96-1.73-2.4-4.2-1.98-1.15,2.79.66,5.42,0,8.43,1,.16.87,1.45,1.48,1.98.94,5.7,3.13,10.52,2.97,16.61.95.86,1.1,2.53,1.98,3.47-.35,1.82,1.77,2.27.99,3.72-1.07-.33-2.03-.77-1.98-2.23-1.4-.99-2.44-2.35-3.46-3.72-.98.16-.99-.66-1.98-.5-1.45.94-1.85,2.94-2.97,4.21-.26,1.75,1.03,1.94.74,3.72.71-.69,1.42-.84,1.98.25Zm-17.56-32.72c1.27-.03,1.1,1.38,1.98,1.74.06-.52,1.09-.07,1.24-.5.12-1.11-.12-1.86-.25-2.73-.67-.32-1.37-.61-2.47-.5.18,1.01-.8.85-.49,1.98Zm4.7-1.24c.25,1.81.2,2.9-.25,4.46,1.14.32.39-1.26.99-1.49h1.98c1.12-1.17.52-2.65-.25-3.72-1.13-.06-1.54.61-2.47.74Zm9.64-.5c-.37.04-.91-.09-.99.25.33.32.92.33.99-.25Zm14.1,5.7c.04-.29.39-.27.74-.25-.25,1.65.34,2.54,1.73,3.47.98.07.76-1.06,1.73-.99.51.07.06,1.1.74.99.4-.4-.22-1.04,0-1.98-.58-.66-.66.66-1.24,0,.42-1.99-1.97-1.17-1.73-2.97-.15-.34-.95-.04-.99-.5.05-.78-.17-1.82.25-2.23-2.34-.88-4.18-.61-3.96,1.49.18,1.66,2.49,1.75,3.71,1.73-.39.21-1.6.85-.99,1.24Zm-12.12-4.46c-.28.02-.38-.36-.5,0,0,.25.43.31.5,0Zm-5.69.5c-.29,1.78.08,1.87.74,2.98.75-.32,2.04-.1,2.47-.74.13-2.23-1.39-3.27-3.22-2.23Zm3.71.25h.49c.38-.61-.84-.73-.74-.25.15.01.29.04.25.25Zm-16.57.5c-.19.06-.49,0-.49.25.19-.06.49,0,.49-.25Zm36.11.5c-.41.83-.87,1.6-.74,2.98,1.14,1.31,3.57.56,3.96-.99-.47-1.55-1.38-2.38-3.22-1.98Zm-38.58,2.48c.43,1.89,2.45,1.98,3.96.99-.27-1.63-1.36-2.43-2.47-3.22-.43.81-1.24,1.24-1.48,2.23Zm12.37-1.49c.34.08.47.35.99.25.07-.57-.06-.93-.5-.99-.06.35-.41.42-.49.74Zm-1.73,1.49c-.07,1.47.63,2.18,1.73,2.48.93-.39,1.04-1.6.99-2.97-1.15-.08-2.14,0-2.72.5Zm3.71,2.98c.27.48,1.96.82,2.47.25-.51-1.14-.23-1.96-.5-2.98-2-.44-2.04,1.1-1.98,2.73Zm6.43-1.98c.44.22.32,1.01,1.24.74.08-.58-.04-.95-.25-1.24-.56-.07-.93.06-.99.5Zm9.89.74c.05-.71.03-1.35-.74-1.24-.57.57-.06,1.32.74,1.24Zm12.12-.5c.61.8.79,2.01.99,3.22,3.26.79,2.99-1.96,3.96-3.47-1.53.29-3.37-1.2-4.95.25Zm-36.35-.5c-2.09-.05-2.16,1.74-.74,3.22.91-.67,3.27-1.18,2.47-2.73-1.04.66-.8-.47-1.73-.5Zm26.21,0c-.19.06-.49,0-.5.25.19-.06.49,0,.5-.25Zm-14.59,4.21c3.17,1.37,3.45-2.62,1.73-3.97-2.56-.21-2.6,2.27-1.73,3.97Zm30.17-1.24h.99c.14-1.13-.14-1.85-.99-1.98.04.77-.58,1.4,0,1.98Zm-19.04-.25c.77-.06.77-.88.99-1.49-1.09-.26-1.3,1.11-.99,1.49Zm1.24,1.24c.01,1.31,1.12,1.52.74,3.22,1.56.41.5-1.81,1.98-1.49.57-1.87-1.14-2-.49-3.22-1.33,0-.71.02-.5-.74-.35-.06-.42-.41-.74-.5.31,1.55-.79,1.68-.99,2.73Zm8.9-1.98c0,1.65.74,2.56,1.73,3.22.97-.52,1.64-1.33,1.48-2.97-.5-.89-2.44-1-3.22-.25Zm-30.91,1.24c.15-.52,1.27-.93.25-1.24,0,.37-.92,1.01-.25,1.24Zm-7.67.74c1.02,3.32-.19,5.93-.25,9.42,1.71.06.87-2.44,2.47-2.48,1.18-.19,1.35.63,1.98.99,2.9.4,6.02,1.62,6.43,3.72.33-1.07,1.39-.13,1.98,0,.66-1.16,2.09-1.54,2.23-3.22-.6-.1-.54.45-1.24.25-2.5-1.79-4.6-3.98-6.92-5.95.19-1.1-.33-1.49-.25-2.48.44-.06,1.24.25.99-.5-.6-.1-.54.45-1.24.25,0,.9.14,1.96-.49,2.23-1.55-.51-3.06-1.06-4.7-1.49.08-.75.76-.89.49-1.98-.89.02-1.16.66-1.48,1.24Zm12.61,1.98c1.06-3.35-4.05-4.33-3.96-.5.79,1.29,2.67,1.56,3.96.5Zm37.34-2.23h.5v-.5h-.5v.5Zm-15.33,1.24v2.23c1.57,1.42,4.68.35,3.96-2.73-.98.51-2.24.2-2.72-.5-.18.56-.74.74-1.24.99Zm15.09-.25c.75.68-.67-.75,0,0h0Zm1.24,2.97c.89.6,1.21,1.76,2.23,2.23,1.46-.44,1.86-1.93,2.72-2.97.07.51.66.5.99.74v-.99c-.53-.69-1.35.46-1.48-.5-.3-.8.8-.19.5-.99-.89.07-1.19-.46-1.98-.5-.06.77-.88.77-1.48.99-.25-.04-.24-1.51-.5-.74.11,1.35-.63,1.85-.99,2.73Zm-5.93-1.49c-.04,2.27.99,3.47,3.21,3.47.53-1.12,1.28-2.02,1.48-3.47-1.48-.93-3.29-1.4-4.7,0Zm-26.21.5c.17,1-.24,1.42-.25,2.23.95.67,2.64,1.33,3.71.5.77-3.05-1.72-4.3-3.46-2.73Zm20.77,1.49c.68.38.02,1.49-.25,1.73.93.23,1.01,1.3,1.48,1.98.78.41,1.01-.92,1.24-.25.12.78-.31,1.01-.74,1.24-1.15-.7-1.21.1-2.72-.25-1.19-.87-2.56-1.56-3.71-2.48-1.49.18-3.07-.62-3.96-.25-.85,1.9.51,3.58,1.24,4.71,1.47.43,2.96.84,4.7.99.35.64.8,1.18,1.98.99,1.41,1.97,2.17,4.6,3.96,6.2-1.44,1.36-3.25,3.01-1.98,5.7-1.06,1.42-2.52,2.43-5.19,2.23-.86.71-1.32,1.82-2.23,2.48-4.28.51-6.69.69-10.14,1.49-1.75-.76-2.49-1.82-3.46-3.47-.75-1.28-.91-2.75-1.48-3.97-.21-.44-.79-.62-.99-.99-1.8-3.31.97-5.91,2.97-7.93,1.73-.5,3.36-1.09,3.96-2.73-.74-1.35-1.15-3.71-1.24-4.96-.59,1.14-1.73,1.74-3.21,1.98-1.79,2.82-5.87,4.43-5.93,8.18-.47.12-1.06-.76-.99.25.07.86.67-.02.74.5.06,1.97-.56,3.24-.99,4.71-.25,6.2,4.29,7.6,7.17,10.66h1.48c.57,1.25,1.92,1.71,2.97,2.48,3.4-.15,5.87-.38,9.4-.74.06.44-.25,1.24.5.99v-.99c1.31.16,1.01-1.3,1.98-1.49.75-.4,1.58-.73,2.72-.74,1.42-1.06,2.71-2.24,4.45-2.98,1.04-2.34,2.71-4.06,3.71-6.44-1.07.08-1.3-.68-1.48-1.49.96-2.87.02-6.82.25-10.16-1.62-.28-2.43-1.37-3.71-1.98.52-.22.8-.69,1.24-.99-.76-1.62,1.16-2.17,1.24-3.72-.35-.48-.65-1-.74-1.73-2.37-.97-3.36.41-4.2,1.24Zm-7.67.25c1.01-.52,1.77.07,1.98-.99-.45-.3-1.53.29-1.98-.5v1.49Zm-17.06-.74c-.08,1.4.07,2.58.49,3.47.76.18.9-.25,1.48-.25.37-1.12-.17-2.11.25-3.47-.77.05-1.82-.17-2.22.25Zm41.79,1.74c1.29-.03.33.65.74,1.49h1.48c.99-1.73-1.5-1.47-1.73-2.73-.28.3-.71.45-.49,1.24Zm-44.27-.74c.29.98.29-.98,0,0h0Zm26.46.99c.75.68-.68-.75,0,0h0Zm21.76,1.74h.5v-.5h-.5v.5Zm-5.19.5c.25,0,.29.2.5.25-.02-.39.03-.86-.5-.74v.5Zm-.99,2.97c.77.26,1.91-.19,2.23.99.29,4.08,1.31,6.58,1.98,10.17-.92,2.21-2.09,4.18-2.97,6.44-1.89,1.83-4.61,2.82-4.95,6.2-.7,1.04-1.87,1.6-2.23,2.97.34,1.06.55,2.26.49,3.72-1.04,2.22-1.21,4.92-1.24,6.94.67.69,1.37,3.27-.25,3.47-.88-.35-1.1-1.38-.99-2.73-2.18-3.85-4.06-8-5.94-12.15-1.72.4-1.35-1.29-2.47-1.49-1.83.06-2.65,1.14-3.96,1.74,1.66.9,2.29,2.83,2.97,4.71,1.04.78,2.54,1.09,3.21,2.23.18.76-.43.73-.25,1.49,1.46,1.59,2.5,3.61,2.47,6.69-.35.06-.42.41-.74.5-2.28-.8-4.69-1.98-6.68-2.98-.03-.01-.59-.26-.5-.25-2.29-.27-4.12.34-5.93-.99-1.81.3-2.62-.5-3.71-.74-1.87-.43-3.89-.3-5.44-.74-.84-.24-1.43-.98-2.23-1.24-.64-.21-1.4.16-1.98,0-.58-.16-2.1-1.54-1.98-1.49-1.12-.47-2.32.15-2.97-.99-.8.4-1.34.12-2.23,0-.3-.78-.92-1.23-.74-2.48-2.6-1.44-3.03-5.06-3.46-8.68,1.04-1.98,1.99-4.63,1.98-6.94.67-1.04,1.21-2.39.25-3.22-.45.87-2.03.97-2.72.25v1.49c-1.59,1.3-2.49,3.29-2.47,6.2-.62.29-.59,1.23-.99,1.73v2.73c1.27,2.28,1.91,5.19,3.71,6.94.21,1.94.67,3.63,1.48,4.96-.12.71-.94,1.46-.49,1.98,1.72.45,1.53-.29,2.47-.99,1.4,1.24,3.51,1.77,3.71,4.21-2,4.43-5.65-1.26-8.65-.25-.15,2.3,1.72,2.57,1.24,5.21,1.5,2.29,4.13,3.46,5.94,5.45,2.38,1,5.81.95,7.17,2.97,3.31-.09,4.33,2.1,6.92,2.73,1.33-.32,1.99-1.31,3.96-.99,1.06-.64,2.4-1.87,3.71-1.49.42-1.48,1.58-2.22,1.98-3.72-.69-1.22-1.65-3.92-.49-5.45,2.26.04,5.02-.52,8.16-.25,4.06,1.31,6.86,3.87,8.9,7.19,1.1.31,1.65,1.15,3.21.99.83-.65,1.52-1.45,1.98-2.48-.07-2.82-1.87-3.91-2.72-5.95.15-2.41.16-3.41-.25-5.45.96-.85.72-2.92,1.73-3.72,2.36.09,3.12.3,5.69.25,3.36-2.5,6.32-6.71,6.18-11.9-1.44.29-2.1,1.37-4.2.99-.31-.6-.61-1.2-.74-1.98.78-1.46.67-3.75,2.23-4.96-.39-2.21.78-2.85.99-4.46-.28-1.2-1.21-1.8-.25-2.98-.37-.04-.91.09-.99-.25.35-.96-.43-3.91.25-5.21-1.31-2.66-3.18-4.75-5.44-6.45-.26-.83.88-1.65-.49-1.49-.05.19-.21.29-.49.25-.26,1.17.93-.5.74.74-1.69-.72-2.66.36-2.72,1.98Zm7.67.74c-.02-1.05-.89-1.26,0-1.98-1.41.14-.06-1.93-.99-1.74.12,1.45-.28,3.42.99,3.72Zm-57.37,1.74c.6-.1.54.45,1.24.25.33-.75.33-1.98,0-2.73h-.99c-.67.8.27,1.73-.25,2.48Zm57.87-1.74c.56.07.93-.06.99-.5-.37-.39-1.1-.28-.99.5Zm-55.15.99c.65-.19,2.41-.54,1.48-1.49-.21.78-1.43.55-1.48,1.49Zm-7.42,2.23c.99.32,1.29.94,2.47.5.5-.91.02-1.67,0-2.73.66,0,1.46.14,1.48-.5-2.17.05-3.68.78-3.96,2.73Zm12.12,0c-.25,0-.29.2-.49.25-1.11-.33-2.3-1.83-.99-2.48-1.63-.31-1.98.66-3.46.5.6,1.01-.42,1.22-.25,2.48.38.71,1.15-.52,1.48.25-.02,1.06-.41,1.73-.25,2.97.76-.18.47.68,1.24.5.39-1.06,1.35-.59,2.47-.5.19-.93-1.31-.17-.99-1.24.33-.08.47-.35.99-.25.44-2.17.79-3.64.25-5.21-.71.99-.3,1.64,0,2.73Zm40.06-2.73c-1.24,1.31-3.31,1.81-3.71,3.97.79,1.4,4.54,1.91,5.19,0-.6-1.22.25-3.89-1.48-3.97Zm-19.04,2.48c.16,1.08,1.29,1.19,1.48,2.23.97.12,1.28-.52,1.73.25-.44,1.46-1.93,2.94-.5,4.21,2.69.38,2.6-2.02,3.22-3.72-.44-.77-.97.08-1.48-.5.04-.7.45-1.03.49-1.74-1.07-1.48-3.59-2.89-4.95-.74Zm-27.45,0h.49v-.5h-.49v.5Zm-3.46,2.23c-.38,1.04,1.28.04,1.24.74.2,2.81,4.71,1.34,3.71-1.49-2.33-1.28-2.39,1.01-4.95.74Zm52.18.74c.6,0,1.58-.87.99-1.24.04.78-1.38.1-.99,1.24Zm11.13.25c.72.36.72-1.11,0-.74v.74Zm-64.79,4.21c.96.21.88-.61,1.48-.74-.55-1.88.81-2.69-.25-3.72-1.26,1.09-2.19,2.68-1.24,4.46Zm47.73-1.24c-.24,1.37,1.04,2.31,2.47,2.73,2.56-2.35-1.98-5.51-2.47-2.73Zm4.7.74c.63.44.92,1.23,2.23.99.33-.74.25-1.9.25-2.97h-1.73c.52,2.3-.29.26-.74,1.98Zm11.13-.25c.19.72.39,1.43.99,1.74,1.24-.46.53-1.47,1.24-2.23-.92-.02-1.56.25-2.23.5Zm-57.37.99c.63-.03.96-.36.99-.99-.63.03-.96.36-.99.99Zm28.69.25c-1.27.6.85.64,0,0h0Zm31.16.25c.29.98.29-.98,0,0h0Zm-58.36.5c-.27.72-.55,1.43-.49,2.48.57.42,1.05.93,1.98.99.62-.2.78-.87,1.24-1.24-.46-1.4-.72-3.03-2.72-2.23Zm58.61,1.74c.39-.37.36-1.41-.5-1.24-.04.62-.04,1.2.5,1.24Zm-32.4,0c.07-.57-.06-.93-.49-.99-.07.56.06.93.49.99Zm-13.35,2.23c.87.36.83,1.65,1.73,1.98.21-1.11.63-2.01.74-3.22-.62-1.77-2.9-.8-2.47,1.24Zm28.93,1.24c.63.53,1.97.35,2.72.74.51-.65.86-1.45.74-2.73-.4-.93-1.71-.93-2.47-1.49-.82,1.22-.94,1.67-.99,3.47Zm-1.24-2.97c-.6.83.83-.6,0,0h0Zm19.54.25h.49v-.5h-.49v.5Zm-21.52.25h.74v-.5h-.74v.5Zm2.23,1.49c.02-.39.63-.19.49-.74h-.74c.04.29-.04.7.25.74Zm15.58,1.49c.97.15,1.28-.37,1.73-.74-.63-.19-.05-1.6-.99-1.49.24,1.23-.66,1.32-.74,2.23Zm-56.63,2.97c1.34-.6,1.11-1.41.99-3.22-.38-.47-.96.36-1.48-.25-.64,1.03-1.32,3.18.5,3.47Zm37.59-.74c-.13.96.44,1.21.25,2.23,1.04.04,1.1,1.04,2.47.74.2-1.04.87-1.61.99-2.73-.89-.7-.76-1.91-.99-2.73-.38,1.36-1.84,1.63-2.72,2.48Zm22.5-1.24c.29.98.29-.98,0,0h0Zm-57.13,3.22c1.76.12,2.59-.71,2.47-2.48-1.95-1.26-4.09.88-2.47,2.48Zm54.9-1.49c-.07.65.09,1.07.74.99-.19-.76.68-.48.49-1.24-.6-.1-.54.45-1.24.25Zm2.97.74c.94-.63-.73-1.15-.99-.5.78-.28.6.39.99.5Zm-24.48,3.72c.42-1.94.31-3.87-1.98-3.72-.68,1.89.06,3.7,1.98,3.72Zm-4.2-2.98c.29.98.29-.98,0,0h0Zm-21.02.99h.74c-.04-.29.04-.7-.25-.74-.06.35-.41.42-.5.74Zm-11.87,2.98c.78.21,1.04.94,1.98.99,1.24-.33,1.68-1.46,1.48-3.22-1.05-.43-1.28-.48-2.72-.74.06,1.3-.2,2.28-.74,2.98Zm7.17,0c2,.53,2.47-2.04,1.48-2.98h-1.48c-.78.54-.6,2.4,0,2.98Zm4.95-.5c-.65,1.99-1.12,4.16-3.71,4.21-.15.59-.36,1.13-.25,1.98,2.97,2.43,3.91-2.36,6.18-2.98-.08-.9.04-1.61.25-2.23-.79-.36-1.13-1.18-2.47-.99Zm13.35,1.74c-1.68-2.84-5.64.17-3.22,2.73.75.19,2.44.03,3.46-.25-.07-.84-.39-1.42-.25-2.48Zm11.13-.99c-.19.06-.49,0-.49.25.19-.06.49,0,.49-.25Zm1.24.5c-.21,1.47.14-.99,0,0h0Zm-32.89,3.72c1.2-.28,1.95-1.02,2.23-2.23-2.12-3.16-5.74,1.3-2.23,2.23Zm12.12-2.48c.58.52-.81,1.16-.5,2.23.9.96,1.62,1.5,1.98,2.48.51-.97,1.27-1.7,1.98-2.48-.63-1.22-1.73-3.65-3.46-2.23Zm21.02,1.74c-.05-.37-.6-.23-.99-.25-.53.91,1.26,1.12.99.25Zm20.28.5c.29.98.29-.98,0,0h0Zm-45.01,1.98c-.2,1.23-.14,1.46.49,2.23,3.27.53,1.84-4.37-.49-2.23Zm11.87,2.23c.31.1.5.32.49.74,2.35.54,3.33-1.8,2.23-3.22-1.78-.05-2.45,1.02-2.72,2.48Zm-4.95-.99c.12,1.12,1.25,1.22,2.47,1.24.42-.4.61-1.04.49-1.98-.93-.67-2.6-.44-2.97.74Zm-27.94,1.74c.21-.62,1.57-1.38.99-1.98-1.16.03-2.57,1.34-.99,1.98Zm63.56-.5c.14,1.02.92,1.39,2.23,1.24.62-.38.9-2.7-.25-2.73-.86.29-1.86.45-1.98,1.49Zm-25.23.25c.39-.37.28-1.11-.49-.99-.07.57.06.93.49.99Zm-.74,1.49c.75.38.65-1.28.25-1.24-.21.29-.33.66-.25,1.24Zm22.5,1.49c.08.65-.34.81-.99.74-.15,1.56.18,2.63,1.73,2.48.33-.25.49-.67.99-.74.06-1.46-.41-2.4-1.73-2.48Zm-5.44,3.47c.79-.53,1.29-1.35,1.24-2.73-.29-.29-.87-.28-1.48-.25-.82,1.39.87,1.93.25,2.98Zm2.23,3.47c.6,3.49,5.73.21,2.97-1.98-1.6.05-2.33.97-2.97,1.98Zm-56.38.99c.71-.33.51-1.57.25-2.23-2.4-.83-2.12,2.64-.25,2.23Zm40.06,3.72c.19.06.49,0,.49.25,1.09-.31,1.59-1.22,1.48-2.73-1.92-.54-2.7,1.16-1.98,2.48Zm-5.94,1.98c1.83.85,4.22-1.08,2.72-3.47-2.52-.46-2.99,1.14-2.72,3.47Zm-35.12-.25c.4.51,1.24.58,2.23.5.46-.45.56-1.25.74-1.98-.75-2.1-3.26-.85-2.97,1.49Zm43.52.5c.87,1.88,3.65.66,2.47-1.74-1.53-.13-2.27.53-2.47,1.74Zm-38.33,2.23c1.03.18,2.15-.58,1.98-2.23-1.98-3.07-4.98,1.69-1.98,2.23Zm33.88-1.74c.08,1.25-.29,2.93.49,3.47,3.83,1.24,2.84-6.47-.49-3.47Zm-31.16,5.7c1.24.17,2-.15,2.72-.5,1.66-5.78-4.56-3.33-2.72.5Zm25.22-1.73c.61.88,1.34,1.63,2.72,1.73.74-.58,1.17-1.47.99-2.98-1.14-.83-4.21-1.37-3.71,1.24Zm-31.9,1.49c.59.18.91.12,1.98.25.63-.88.09-2.29-.74-2.48-.74.41-1.01,1.3-1.24,2.23Zm42.78,0c.6,1.77,3.32.79,3.46-.74-.47-2.08-3.57-1.67-3.46.74Zm-30.42.99c1.27-.04,2.38-.02,2.23-1.98-1.1-1.2-2.73.07-2.23,1.98Zm5.44-.25c-.27.72-.22,1.76-.49,2.48.74.92,2.04,1.25,3.21.5-.4-1.8.61-2.2.99-3.22-1.06.67-.97-.47-1.73-.74-.83.16-.79,1.19-1.98.99Zm21.76,2.98c.78-.62,1.23-1.58,1.24-2.98-2.53-3-5.99,3.4-1.24,2.98Zm-12.86-.25c1.24,1.05,5.02-.2,3.46-2.73-2.15-1.03-3.31.94-3.46,2.73Zm-15.58,1.49c-.86-.13-.36-1.62-.5-2.48-3.92-2.58-2.98,5.32.5,2.48Zm11.87,1.74c.95-.53,2.29-.68,2.72-1.74.1-.6-.45-.54-.25-1.24-.91-.08-2.19.21-2.72-.25-.57,1.05-1.06,2.54.25,3.22Zm-9.15-.5c1.54.04,2.52-.6,1.98-1.98-1.82-1.12-3.73.79-1.98,1.98Zm3.21,0c-.29-.04-.56-.44-.74,0,.29.04.56.44.74,0Zm9.64,0c.29.98.29-.98,0,0h0Z"/>
  <path class="cls-7" d="m129.83,81.99c-1.05-.02.06-2.21-.99-2.23-.7.64.38,1.59.49,2.23-.38,3.59-3.69,4.23-4.45,7.44-2.41,1.14-4.14,2.95-5.94,4.71-.78-.12-.87.45-1.73.25-1.34,1.3-2.86,2.42-4.45,3.47-2.68-.57-5.01,1.86-7.66,1.24-.43.72-1.68.62-2.23,1.24-3.83-.64-7.59,1.43-11.38.25-2.13,1.03-5.77.09-8.9,0-.17-1.33,1.22-1.09,1.24-2.23.36-1.77-.5-2.31-.74-3.47-1.02.14-1.68.63-2.23,1.24.17,1.65.47,3.17.99,4.46-1.36,1.57-3.69.22-4.2-1.24-.13-1.18.67-2.2.74-3.47.1-1.66-.7-3.57-.49-5.95.12-1.4.65-2.69,0-4.21.19-.96.28-2.03.99-2.48-.4-4.23-.88-8.37-1.48-12.4.44-5.04,1.47-9.64.5-14.88.77-1.79.49-4.64,1.48-6.2-2.5-4.22.7-11.41-.74-16.11.44-.64,1.08-1.07,1.48-1.74,3.61.44,7.27-.76,10.88-.74,2.44.01,5-.4,7.42,0,5.36-.83,9.93,1.06,15.09,1.24,1.79.85,3.22,2.06,5.44,2.48,1.19,2.03,4.14,2.29,4.7,4.96,1.32.33,1.44,1.86,3.22,1.74.68,1.55,1.68,2.78,1.98,4.71,1.16.82,1.55,2.41,1.73,4.21.85.55,1.05,1.76,1.73,2.48.14.81-.17,1.15-.25,1.74,1.71,3.96,1.28,8.59,1.73,13.63-.19.8-.52,1.47-.99,1.98-.15.79.46.77,0,1.24-.72,1.65-1.01,3.59-1.48,5.45-.45,1.78-1.32,3.46-1.48,4.96Zm-30.91-44.13c-.13-.36-.72-.76-.99-1.24-.38-.69-.29-1.67-.5-1.98-.79-1.2-2.88-2.52-4.2-1.74.38,1.68.93,3.2,1.98,4.21.3,2.17,1.26,3.7,1.98,5.45,1.1-.22,1.89-.75,2.23-1.74-.33-.72-.14-2.01-.5-2.97Zm2.72-1.74h.49c.89-.43.75-1.89.99-2.97-.55-.36-1.19-.62-2.23-.5-.33.81-.46,2.51.25,2.98l-.12.12.12.12h-.25c-.19.22-.27.56-.25.99.46-.03.83-.16.99-.5l.12-.12-.12-.12Zm-9.15-1.74c.32-.33.15-.75-.25-.99-.32.33-.15.75.25.99Zm14.59,5.7c.36.14.6.39.74.74,1.77-.02,2.09-.01,3.21-.74.14-2.18,2.04-2.58,1.73-5.21-2.89-2.08-5.69,1.45-5.69,5.21Zm-22.26-4.21h.49v-.5h-.49v.5Zm5.44,3.97c.17-.91.34-1.8.25-2.97-1.31.32-1.26-.72-2.47-.5-.78,1.97.22,4.3,2.23,3.47Zm-4.2-3.22c-.29.04-.7-.04-.74.25.29-.04.7.04.74-.25Zm-1.73,1.24c.69.4.68-1.07.25-.99-.08.33-.35.47-.25.99Zm31.16,1.49c.93.79,1.78.35,2.72,0,0-.58-.43-.73-.25-1.49-1.39-.07-2.78-.14-2.47,1.49Zm-13.85,1.24c.72.67,1.53.31,2.23-.25.15-.98-.36-1.29-.74-1.74-.36.79-1.88.43-1.48,1.98Zm-19.78-1.24c.03.71-.13,1.62.25,1.98,1.77.21,2.36-.77,2.47-2.23-.8-.62-2.09-.07-2.72.25Zm36.35.99h.5v-.5h-.5v.5Zm1.24,1.73c1.01.1,1.56-.25,1.48-1.24-.32-.25-.91-.24-1.24-.5-.08.58-.39.93-.25,1.73Zm-1.48-.5c.33.08.47.35.99.25v-.74c-.56-.07-.93.06-.99.5Zm-3.71.74c-.62,3.16,3.65,1.11,2.97,3.47,1.83-.17,2.79,1.41,4.2.25.34.32.15,1.17.49,1.49h1.73c.19-1.51-.47-2.17-1.98-1.98-.8-.94-.58-2.89-2.47-2.73-.6.48-.82,1.33-1.48,1.73-.09-1.32-.91-.61-1.24-.74.14-.97-.21-1.44-.5-1.98-.77-.03-1.18.3-1.73.5Zm-28.69.74c-.08.9.04,1.61.25,2.23.78-.12.87.45,1.73.25.43-.73.58-1.73.49-2.98-1.15-.16-1.59.39-2.47.5Zm-1.98.5c.51.22,1.11-.64.49-.74-.06.35-.41.42-.49.74Zm13.35,0c.15-.64-.1-.89-.74-.74-.17.67.51.48.74.74Zm19.54,15.37c-.4-.99.23-1.98.25-2.98.04-2.63-1.09-5.26-.99-7.69-2.96-2.72-6.34-4.95-10.88-5.45-.32.51-.39,1.26-1.24,1.24-1.08.25-1.14-.51-1.73-.74-1.7,2.01-4.84,2.58-6.92,4.21-.23,3.32-1.15,5.95-1.73,8.92,1.16,1.72,2.16,3.62,2.47,6.2,1.01.73,2.05,1.41,2.47,2.73-.58,1.99.05,3.79,2.23,3.72,1.23-1.46.32-3.55-.25-5.21.9-1.06.62-2.3.74-3.72.53-.63,1.02-1.29,1.98-1.49,1.85.62,4.71.24,5.93,1.49,1.15,1.05-.32,3.25.74,4.21,3.45.28,5.42-2.97,6.92-5.45Zm-25.97-12.64c1.74,1.15,3.76-.67,2.97-2.73-2.1-1.04-3.42-.01-2.97,2.73Zm-6.92-.74c.07-.57-.06-.93-.5-.99.06.44-.25,1.24.5.99Zm.74.25h.49v-.5h-.49v.5Zm-1.48,3.47c1.04-.28,1.68-.96,1.48-2.48-2.47-1.34-3.19,1.57-1.48,2.48Zm8.41,8.93c-.16-1.11.29-2.15.25-3.22-.07-1.69-1.05-3.39,0-5.21-.62-.45-.62-1.52-1.48-1.74-2.93.94-4.84,2.92-6.68,4.96-.17,3.39-1.67,5.43-2.47,8.18,2.09,2.41-.03,6.48.99,8.43,2.29,4.39,4.77,9.41,8.16,12.4.47.35.45,1.2.74,1.74,2.02-1.03,2.79.92,4.2.5.91-2.04-1.17-3.09-1.73-4.46.11-.71.87-.78.74-1.73-.95-.04-.96.86-1.73.99-1.41-2.96-4.58-4.17-3.96-9.17-.14-.61-.96-.53-.74-1.49.03-1.37.08-2.73,1.24-2.97,2.03-.22,1.9,1.73,3.21,2.23,1.07-.25,1.62-1.02,2.23-1.74.62-3.15-2.57-4.98-2.97-7.69Zm25.97-6.94c1.46.79,1.48,2.54,1.49,3.97,0,1.85-.92,3.69-1.24,5.45-.57,3.18.14,6.05,2.97,7.19,1.8-.86,1.7-4.01,4.7-2.97,1.63,3.54-.4,7.93-2.23,10.66-1.36.62-2.42,1.54-3.46,2.48-1.35,0-1.86.93-2.47,1.49-.63.58-1.88.57-1.24,1.98,3.94.39,7.56-1.66,9.65-3.97.47-.27,1.17-.32,1.73-.5,1.66-1.97,2.14-5.13,3.46-7.44-.13-2.26.14-4.48.74-6.69-.74-.58-.92-1.72-1.48-2.48.06-4.2-3.66-6.73-5.44-9.92-2.51-.54-3.97-2.13-7.17-1.98-.17,1.25.5,1.81,0,2.73Zm-12.86,10.66c.07,1.23-.83,1.48-.99,2.48.77,2.71-.31,5.61-.99,7.69-.27,3,.13,5.8-.25,8.43-.14.96-.69,1.75-.74,2.73-.04.88.28,1.63.25,2.48-.05,1.43-.5,2.77-.5,4.21,0,1.05,1.01,2.25,0,3.22,1.7.12,1.87,3.27.99,4.46.86.3,1.64.67,2.97.5,1.15-1.31.1-3.19.25-4.71.05-.55.47-.96.5-1.49.14-3.11-.17-6.01-.25-8.92-.04-1.64.39-3.25.49-4.96.37-5.92-.03-10.93,0-15.87-.86.2-.95-.37-1.73-.25Zm-8.41,1.98c.04-.54-.2-.79-.74-.74-.04.54.2.79.74.74Zm0,.5c.29.98.29-.98,0,0h0Zm11.38,1.98h.49c.28-.36.27-.6-.25-.74,0,.34-.12.54-.25.74Zm4.7,3.22c1.31-.34,1.7-1.6,1.73-3.22-2.81-1.23-4.21,2.4-1.73,3.22Zm4.95.25c.45-.71,1.3-1.01.99-2.48-.05-.19-.21-.29-.5-.25-.59.76-1.22,1.24-1.24,1.98-3.03-.17-3.36,4.73.25,4.21.42-.9.62-2.03.49-3.47Zm5.94,1.49c1.2.2,1.95-1.33,1.48-1.98-.04.34-.81-.65-1.73-.25-.52.92.54.89.25,2.23Zm-30.42-.74c.84.19.96-.95.25-.99-.08.34-.35.47-.25.99Zm17.81.99c-.87.03-1.11.71-1.98.74-.58,1.94.42,3.24,2.23,3.47,1.98-.6,1.88-4.33,0-4.96.14-.15.58-1.18,0-1.24-.38.36-.22,1.27-.25,1.98Zm11.13-.74c.59-.6-.81-.64-.74-.25,0-.02.84.15.74.25Zm-25.22.99c-.42,2.49,1.11,3.02,2.72,3.47.1-.31.32-.51.74-.5.69-1.31-.25-2.35-.25-3.72-1.52-.2-2.24.4-3.21.74Zm25.22-.25c-.21,1.47.14-.99,0,0h0Zm-30.66,2.73c.79.94,1.35,2.12,3.46,1.74.18-1.71.19-2.7-.5-3.97-1.84-.11-2.94.52-2.97,2.23Zm26.96,1.49c3.95,2.36,3.71-4.68.25-3.47.8,1.06-.63,2-.25,3.47Zm5.19-1.98c.07-.65-.52-.64-.99-.74.02.67.57,1.19.99.74Zm-40.8,2.48c.08-.5-.05-.78-.49-.74.14.44-.3,1.46.25,1.49-.04-.29.05-.44.25-.5v.25h.25v.25c.57.6.66-.39,1.24-.5.15,1.34.68,2.3,1.48,2.98-.05-.91-.34-.95,0-1.74-1.22.15-1.06-1.09-1.48-1.73-.7-.21-.64.35-1.24.25l-.12-.12-.12.12Zm31.41.25c-.52.94.1,1.55,0,2.73,1.38.22,2.08-.23,2.47-.99.18-1.99-.97-2.58-2.47-1.74Zm-18.79,2.73c.59.9.7,2.27,1.98,2.48,1.58-.4,2.62-1.34,2.23-3.72-1.99-.38-3.8-.96-4.2,1.24Zm16.07,2.48c1.22-2.17-.4-3.88-2.47-3.47-1.48,2.14-.15,4.95,2.47,3.47Zm-29.43-1.98c.57-.19.24-1.53-.5-1.24.11.47-.34,1.49.5,1.24Zm48.47-.74c-.21,1.47.14-.99,0,0h0Zm-47.73,1.49c-.69,1.39-.86,2.56,0,3.97,3.24.52,3.01-2.94,1.73-4.46-.22.79-.99.84-1.73.5Zm3.96,1.24c0-.91-.49-1.33-.99-1.74,0,.91.11,1.71.99,1.74Zm38.58,2.48c-.65-.43.35-1.28,0-2.23-.67-.32-.88-1.1-1.98-.99-.79,1.54.28,4.22,1.98,3.22Zm-11.13-1.74c.29.98.29-.98,0,0h0Zm-28.69,5.21c1.21.83,2.41,1.48,3.96.74.28-1.37-.48-2.68,0-3.47-1.8-2.09-4.52-.83-3.96,2.73Zm27.94-1.49c.97.99,1.63,1.29,3.22,1.24.91-.69.38-2.4,0-3.22-1.64-.56-3.56-.17-3.22,1.98Zm-4.45-1.98c-1.33,2.12.37,3.38.49,5.7.97.4.09-1.07.74-.99.24.47,1.62,2,1.73.99-.36-.46-1.36-.29-1.24-1.24.21-.61.92-.73,1.24-1.24-.06-2-1.05-3.08-2.97-3.22Zm9.4,1.98c-.06,1.04.4,1.17,0,1.98,1.01.8,2.48,1.15,3.46,1.98-.02-1.63.12-3.42-.25-4.71-1.57-.56-2.08-.16-3.21.74Zm6.43-.74c.29.98.29-.98,0,0h0Zm-26.96.74h.74v-.5h-.74v.5Zm1.24.25c-.25.75.55.44.99.5v-.74c-.47-.06-.55.28-.99.25Zm-7.91,3.72c.33,1.07,1.27,1.54,2.47,1.74,1.07-.59,1.79-1.51,1.98-2.97-1.48-1.68-3.94-1.09-4.45,1.24Zm5.69,1.49c1.42-.23,2.81-.48,3.21-1.73-.16-.84-.88-1.1-.99-1.98-2.4-.55-3.44,2.21-2.22,3.72Zm-15.33-2.97c.17,1.48.71,2.6,2.72,2.23-.05-1.36-.38-2.43-1.48-2.73-.06.52-1.09.07-1.24.5Zm33.39.74c-2.33.06-2.19,2.91-.5,4.21,1.76.11,2.52-.78,2.97-1.98-.84-1-1.17-2.27-2.47-2.23Zm-24.73,2.23c-3.01-.78-4.2-1.12-4.21,2.48,1.79,1.02,3.71,1.96,5.19,3.47.21.7-.35.64-.25,1.24,1-.56,1.25.59,2.47.5.71-.11.77-.88,1.73-.74.51-2.08-1.2-1.94-.99-3.72-1.88-.51-2.79-1.99-3.96-3.22Zm-4.95,0c.29.98.29-.98,0,0h0Zm23.74,1.24c-.59,2.41,1.66,1.97,2.72,2.73.17-1.3.85-2.12,0-3.22-1.36-.29-1.72.43-2.72.5Zm4.45,1.24c.29.98.29-.98,0,0h0Zm-18.05.74c-.01-.34.12-.54.25-.74-.37.04-.91-.09-.99.25.35.06.42.41.74.5Zm.74.99c-.47-.03-.17-.82-.74-.74.23,1.25.57,2.4,1.24,3.22.35-.71-.67-1.26,0-1.49.69.97,1.46-.29,2.72.25-.23-1.5-.84-2.63-2.47-2.73-.48.26-.34,1.14-.74,1.49Zm3.71-.5c.08-.34.35-.47.25-.99-.84-.19-.96.95-.25.99Zm12.12.74c.43.01.63-.19.74-.5-.39.02-.86-.03-.74.5Z"/>
  <g>
    <path class="cls-4" d="m223.31,8.36c-.08-.17-.15-.35-.25-.5"/>
    <path class="cls-1" d="m4.33,16.66c.06-.03.11-.05.17-.08.04-.2.12-.38.2-.54"/>
    <path class="cls-1" d="m174.47,14.43c.12-.21.24-.42.37-.62"/>
    <path class="cls-5" d="m210.82,101.7c0-.26.06-.44.12-.62"/>
    <path class="cls-1" d="m201.79,96.37c-.23-.1-.34-.31-.49-.5"/>
    <path class="cls-1" d="m216.26,16.91v-.74"/>
    <path class="cls-5" d="m178.42,23.11c-.16.08-.25.25-.37.37"/>
    <path class="cls-6" d="m186.59,66.74c.12-.35.24-.64.37-.87"/>
    <path class="cls-4" d="m205.01,91.91c.17.08.34.15.49.25"/>
    <path class="cls-4" d="m193.14,101.33c.17-.08.34-.15.5-.25"/>
    <path class="cls-4" d="m140.46,101.57c-.17-.08-.34-.15-.49-.25"/>
    <path class="cls-4" d="m196.6,127.36c-.17-.08-.34-.15-.5-.25"/>
    <path class="cls-3" d="m194.87,136.28c.36.4.83.65,1.24.99"/>
    <path class="cls-1" d="m182.13,170.87c0-.25-.06-.44-.12-.62"/>
    <path class="cls-5" d="m32.89,185.37c-.09-.24-.13-.53-.25-.74"/>
    <path class="cls-5" d="m133.54,131.57c.09-.16.09-.4.12-.62"/>
    <path class="cls-4" d="m132.8,132.32c.08-.17.15-.34.25-.5"/>
    <path class="cls-4" d="m133.79,132.07c-.08-.17-.15-.35-.25-.5"/>
    <path class="cls-2" d="m101.02,35.75c.28.13.43.4.74.5"/>
    <path class="cls-1" d="m82.1,76.78c.09-.16.1-.4.12-.62"/>
  </g>
</svg>