<?xml version="1.0" encoding="UTF-8"?>
<svg id="Layer_1" data-name="Layer 1" xmlns="http://www.w3.org/2000/svg" viewBox="0 0 226.77 226.77">
  <defs>
    <style>
      .cls-1 {
        stroke-width: .34px;
      }

      .cls-1, .cls-2, .cls-3, .cls-4 {
        fill: none;
        stroke: #000;
        stroke-linecap: round;
      }

      .cls-1, .cls-2, .cls-3, .cls-4, .cls-5 {
        fill-rule: evenodd;
      }

      .cls-2 {
        stroke-width: .28px;
      }

      .cls-3 {
        stroke-width: .35px;
      }

      .cls-4 {
        stroke-width: .35px;
      }

      .cls-5 {
        stroke-width: 0px;
      }
    </style>
  </defs>
  <path class="cls-5" d="m215.66,11.4c2.71,3.59-1.05,10.15.83,13.82-1.35,3.72,1.4,8.63-.55,11.61,1.78,3.49,1.36,9.13-.28,12.72.65,7.04.46,12.88.28,20.74,2.28,7.98.52,17.21.55,25.16.32,1.15-.58,1.08-.55,1.94,1.61,2.33,1.27,5.66.28,8.29.44,1.92.76,3.41,0,5.25.24.78,1.25,2.76,0,3.32-1.88-.15-.85-3.2-2.77-3.32.29-2.96-2.59-2.76-2.21-5.81.4-1.17,2.55-.59,2.77-1.93-.57-4.22-3.5-6.09-5.54-8.85.19-3.16.32-4.87-1.38-6.36,1.88-3.74,2.51-8.74,4.43-12.44.06-1.69.04-3.47,1.11-4.15-.61-1.51-.12-4.12-.28-6.08.02-1,.69-1.34.83-2.21.2-1.49-.22-2.36-.55-3.32.91-3.89-1.2-7.06,0-10.51-.57-2.65-1.11-5.34-2.77-6.91-.38-2.12.62-5.55-1.66-6.36-.57-3.49-1.39-6.73-3.6-8.57-.29-.63-.18-1.67-.55-2.21-1.28-1.76-3.26-2.82-4.15-4.98-3.72-.62-4.69-3.98-7.75-5.25-1.17-.43.06,1.54-1.11,1.11-.42-.39-.87-1.34-.28-1.94-1.99-.59-3.12-2.04-5.26-2.49-3.97,0-11.06,1.23-13.01-1.38,3.57-1.55,10.23.74,14.4-.28,1.76,1.45,5.59.85,8.31.28,2.17.82,5.84.24,8.58,0,.72-.08,1.19.1,1.11.83.87.13.62-.85,1.66-.55,2.21.86,4.45.1,6.37.28.69.06,1.37,1.3,2.77.55Zm-18.27.28c-1.07.65-.29,2.41.28,3.04.84-.38.99.13,2.21,0-.18-1.54-1.13-3.57-2.49-3.04Zm7.2,3.87c.6,1.17,1.41,1.57,3.04,1.11-.07-1.82.36-2.43-.28-3.59-2.04-.28-2.38,1.12-2.77,2.49Zm9.41.55c.12-1.13-.26-1.77-.55-2.49-2.48.1-2.1,2.8.55,2.49Zm-11.35,3.59c.43-.4.24-1.42.28-2.21-.69-.23-1.48-.36-2.49-.28.22,1.35.56,2.58,2.21,2.49Zm9.41,1.66c1.04-.56,1.21-3.13-.28-3.32h-1.11c-1.13,1.01-.4,3.52,1.38,3.32Zm-6.92.55c1.03-.11.72,1.12,1.94.83.38-.84.47-2.31-.55-2.49-.29.73-1.1.93-1.38,1.66Zm4.43,1.38c0-.28-.49-.35-.55,0,.06.33.31.17.55,0Zm1.94,3.32c.49-.57-.15-1.69-1.38-1.38-.1,1.02.69,1.16,1.38,1.38Zm1.11,1.94c.32,1.09.32-1.09,0,0h0Zm-.83,3.87c1.23.03,2.07-.33,2.21-1.38-.37-.82-1.15-1.25-1.66-1.94-.33.96-.6,1.98-.55,3.32Zm-1.38,1.94c.48.02.71-.21.83-.55-.43.03-.96-.04-.83.55Zm3.04,37.6h.83v-.55h-.83v.55Zm-.55,12.72c2.3-.09,2.48-3.94,0-3.87-1.59.33-1.38,3.47,0,3.87Zm0,4.15v-1.11h-1.11c-.13.87.24,1.23,1.11,1.11Zm-.28,6.36c.32.23.74.36,1.38.28.36-1.66-1.45-1.62-1.38-.28Z"/>
  <path class="cls-5" d="m220.92,33.52c.12-.4.24.03.55,0-.07.35-.55.28-.55,0Z"/>
  <path class="cls-5" d="m225.63,40.15h.55c.13.59-.4.53-.83.55.05-.22.28-.28.28-.55Z"/>
  <path class="cls-5" d="m225.63,41.53c.81-.41.81,1.24,0,.83v-.83Z"/>
  <path class="cls-5" d="m145.34,97.1c.32-1.09.32,1.09,0,0h0Z"/>
  <path class="cls-5" d="m149.78,217.65c.95.72-1.42.67,0,0h0Z"/>
  <path class="cls-5" d="m216.77,201.34c-.84,2.59-.32,4.97-1.11,7.74,1.07,2.68,1.26,6.13,0,8.85-1.55.13-1.78.17-3.04-.28-2.9.24-5.33,1.27-7.75,0-2.29.47-6.21,1.31-7.2-1.11-.71.03-.39,1.08-1.11,1.11-2.55-.14-5.9,1.51-8.03,0-.4.06-.1.83-.55.83-3.4.29-7.01-.37-10.52-.55-2.64-.14-5.23.88-7.48,0,.22-1.53,1.19-5.37-.55-6.91-.9.16-1.29-.19-1.94-.28-1.93,1.29.97,4.02-1.38,4.98.34.95,1.66.92,1.38,2.49-2.14,1.4-4.86-.98-7.47,0-.84.01-1.41-.25-1.66-.83-1.96,1.59-7.59,1.67-8.86-.55-.41.23-.4.89-.55,1.38-1.62-.28-4.33,1.56-6.64,0-2.21.44-5.8.16-7.75-.55-1.01-.18-1.06.6-1.94.55-4.99-.87-11.8,1.97-17.16,0-.85-.2-.82.48-1.66.28-.89-.22-1.84-.38-2.49-.83-.75-.19-.53.57-.83.83-8.51.24-18.79.78-27.13.55-.73-.37-1.29-.92-1.66-1.66-.77.15-.77,1.07-1.11,1.66-.89.24-.38-.91-1.11-.83-4.55.9-8.99.18-13.57,0-2.16-.08-4.14.77-6.37.83-.94.03-1.55-.46-2.49-.55-4.23-.42-9.05.83-13.84,0-.83,0-.94.72-1.66.83-1.24-.05-1.72-.87-2.49-1.38-1.66.56-3.99.44-5.26,1.38-1.41-.34-3.46-.05-4.43-.83-.76-.04-.93.29-1.66.28-.44,0-1.51-.53-1.38-.55-1.17.19-1.44,1.31-2.77,1.66-1.96-1.01-5.5-.59-8.03-1.66-1.04-.3-.79.69-1.66.55.82-.96-.75-1.3-1.11-1.94.52-4.05-1.15-7.36.83-11.34.09-.34-.8-.95-.83-.28-1.06-.64,1.04-.4.83-1.11-.38-1.65-1.18-2.87-1.66-4.42.15-1.97.32-3.92.55-5.81-1.66-5.53.09-10.68-1.66-14.93,2.52-2.47.52-6.33.55-9.95,0-.64.43-1.14.55-1.94.55-3.43-2.01-6.65.28-8.57-1.32-1.22-.64-4.2-.28-6.08-.55-.65-1.28-1.12-1.11-2.49-.12-1.41,1.07-1.51,1.11-2.76-.03-1.54-.78-2.35-1.11-3.59-.38-2.6.82-5.08,0-7.19.25-.49.67-.81.83-1.38-.69-.97-.7-2.66,0-3.59.22-1.14-1.33-.52-1.11-1.66,1.29-1.98-.63-4.72,1.11-5.81-.89-6.87-.42-13.21-.55-19.63,0-1.01.97-1.06,1.38-1.66-3.24-1.72-.08-6.56-1.38-10.23-.19-1.2,1.39-.64,1.11-1.94.13-.96-1.35-.31-1.38-1.11.68-3.06-.81-6.32,1.38-7.74-.73-2.59-1.13-5.5-1.94-8.02.03-.71,1.08-.4,1.11-1.11-1.1-1.65.36-3.81.28-5.81-.07-1.62-1.23-3.21-1.38-4.98-.16-1.85.47-3.97.55-5.81.17-3.57-.3-6.79-.28-9.68.85-.2.81.48,1.66.28.05-1.06-.78-1.25-1.38-1.66.38-1.58-.63-1.76-.83-2.76-.16-.99.32-1.34.55-1.94-1.38-4,.42-8.46,0-11.34.65-.83.83-2.12,1.11-3.32-1.12-.17-1.12-1.46-1.66-2.21,1.61-2.3,1.08-7.02.55-10.51,1.54-.18,1.85-1.42,4.15-1.11.55.08,1.06.43,1.66.55.27.05,1-.36,1.38-.28.28.06.23.58.83.55,1.81-.08,2.8-1.04,4.71-1.38,1.21.08,1.79.8,2.49,1.38,1.47,0,1.42-1.53,3.05-1.38,1.38-.28,1.35.86,2.49.83,1.99-.29,3.93-1.18,5.81-1.11,1.74.07,3.29,1.17,4.98,1.11.79-.03,1.43-.7,2.21-.83,1.38-.22,2.77.2,4.15.28,1.55-.9,5.06-1.67,6.92-.55,7.73-1.25,14.74.78,21.87,0,3.53.86,7.66-.23,11.35,0,2.27.14,4.45-.71,6.64-.83.79-.04,1.34.26,2.21.28,2.59.06,5.63-1.01,8.3-1.11.5-.02.96.31,1.39.28,1.77-.13,3.48-.8,5.26.28,2.96-.56,8.27-.85,11.07.83,4.7-1.29,9.67-1.51,14.4-.28,1.03-.17,1.74-.66,2.77-.83,3.57.08,6.72,2.01,9.41,0,4,1.01,9.93-.86,14.12,1.38,2.35-.49,6.36-.53,7.75.83.16.9-.19,1.29-.28,1.94,4.26,3.35,10.78,2.46,17.44,2.49.72,1.95,2.48,2.87,4.43,3.59,1.46,3.98,5.71,5.17,6.64,9.68.25.76.97-.49,1.38.28.71,3.72,3.43,5.42,3.6,9.68.55.83.9,1.86,1.66,2.49.75,4.79,1.77,9.02,1.94,14.93-.78,2.08-2.29,3.43-2.77,5.81-1.44,2.07-3.52,3.49-4.71,5.81-1.38.56-2.26,1.61-3.6,2.21-1.79-.15-2.17-1.7-4.43-1.38-.44-.94-.89-1.88-2.22-1.94l.14-.14-.14-.14c1.67-.93.52-.43,0-.55,0,.55-.14.41-.14.41l-.14.14c-1.79-.98-3.24-2.29-4.71-3.59-.16-4.62,1.7-7.72.83-11.61-2.08-1.88-4.28-.47-6.09.55-.38.91-.73,1.86-1.11,2.76.18,1.45,1.46,3.05.55,4.7-2.62.31-2.01-2.6-3.32-3.59.12-2.15-.84-3.22-1.38-4.7-1.4-1.46-2.8-2.91-3.87-4.7-1.63-.22-2.58-1.11-3.32-2.21-1.85-.73-3.67-1.49-4.98-2.77-1.43-.61-3.08.56-3.88-.83-1.89,1.06-4.34.72-6.64.83-1.16,1.87-3.8,3.99-2.21,6.91,4.17-.28,5.39-4.61,10.24-3.32.29,2.11,2.11,2.69,3.6,3.59.39,1.55,1.32,2.55,1.11,4.7,1,1.86,1.35,4.37,2.49,6.08.79,1.43,2.59,1.83,2.49,4.15-1.21,1-4.09.33-5.54,1.11-1.31,2.82-1.24,7.71,1.94,8.29.81-1.75,1.04-2.92,2.77-2.77,2,.18,1.26,3.14,3.32,3.32.2-.66-.18-2.49.83-3.04,5.49.41,9.62,2.19,14.12,3.59,2.03-.69,4.09.11,6.37,0,1.47-.84,3.17-1.44,5.54-1.38,2.54-1.15,3.53-3.85,6.09-4.98.83-1.1.56-3.31,2.77-3.04,1.16,1.83-1.04,4.03-.83,6.64-1.09,1.22-.84,3.77-2.21,4.7-.06,1.78-.26,3.43-1.11,4.42.35,1.18-.02,1.37,0,2.77-2.15,4.3-4.15,8.76-7.75,11.61-.29,1.27-1.17,1.96-1.38,3.32-2.45,2.71-5.47,4.86-7.2,8.29-.41.33-1.24.24-1.11,1.11-1.01-.09-1.54.31-2.21.55-.9.49-1.38,1.38-1.94,2.21-5.45,1.19-7.31,5.97-13.57,6.36-4.54,3.61-11.51,3.81-16.89,6.08-1.11.19-1.58-.27-2.49-.28-1.43.06-3.32,1.1-4.71.28-3,1.46-6.89,1.18-10.52.83-2.56,1.48-6.39,1.06-9.69.55-.99.07-1.01-.83-1.94-.83-2.93.65-5.73-.28-9.41-.28-.86.52-1.93.84-1.94,2.21,1.49,2.31,4.29.63,6.37,2.21.4-.43,1.42-.24,2.21-.28,3.83,1.33,8.79,1.55,13.29,2.21.56.36.38,1.46,1.11,1.66,1.02-.37.86-1.91,1.66-2.49,2.89.62,4.14-.86,6.09,0-1.46,1.95-3.72,3.1-4.98,5.25.43,2.06.72,4.26,2.49,4.98,1.13-2.65,2.65-4.91,3.6-7.74,1.89-1.24,4.86-1.41,6.09-3.32,3.01.51,6.77-1.02,9.41-2.49,1.06-.13,1.77.08,2.21.55.71-1.13,1.72-1.97,3.88-1.66-.33,1.15-.43,2.52-1.94,2.49,0,2.31-1.54,4.22-1.38,5.81.87,2.17,2.59,3.49,4.71,4.42.84.01,1.08-.58,1.66-.83-.79-1.68.6-4.04-.28-5.81,1.94-5.34,6.26-8.31,9.69-12.16,3.94-.77,5.47-3.94,9.14-4.98.97-1.89,3.64-2.08,4.43-4.15.76-.2.56.55,1.11.55.71-2.52,2.52-3.93,4.71-4.98,1.37-3.52,4.81-4.97,5.26-9.4,1.86-.81,2.02-3.33,3.04-4.98,1.53-.06.61,2.35,1.66,2.76-1.55,1.82-1.69,4.36-1.94,6.91-.57.63-2.48-.08-3.05.55-.08,2.11,1.69,2.37,3.6,2.49.67,1.26,1.43,2.44,1.66,4.15,2.84,3.8,6.05,7.23,9.41,10.51.28,1.3-.46,1.57-.83,2.21,1.08.83.27,2.98.55,4.7.23,1.41,1.26,3.79,0,5.81.74,1.63-.24,3.27,0,5.25.13,1.25.88,1.88,1.11,3.04-.79,4.24-1.23,7.55.28,11.33-1.49,1.9.58,5.71-.83,7.47,1.45,1.33.18,3.42,0,5.81-.11,1.52.3,2.95.28,4.15-.01.74-.51,1.48-.55,2.21-.08,1.19.56,2.48.55,3.59,0,1.02-.49,2.02-.55,3.04-.24,3.82,1.15,7.65-.28,10.78,1.58,3.43-1.33,8.83,1.11,11.61-.48.93-.77,1.45-.83,2.21v-.28h-.83v.55h.55l.14.14.14-.14ZM112.95,16.1c1.82.85,3.04-.67,4.15-1.38v-2.76c-2.39-1.52-5.54.99-4.15,4.15Zm23.81-2.76c.29.85,1.34,1.99,2.49,1.11-.21-1.36-.5-2.63-1.94-2.77.3,1.03-.69.79-.55,1.66Zm-7.48.55c.71.58,1.84.74,2.77,1.11,1.07-.79.21-1.99-.28-2.76-1.52-.14-2.61.16-2.49,1.66Zm-112.4-1.11h-1.11c-.06.91,1.3,1.09,1.11,0Zm9.14,3.32c1.26.92,3.31.45,3.32-1.38-.91-.19-1.16-1.05-1.38-1.94-2.13,0-2.34,1.39-1.94,3.32Zm75.3-3.04c-.03.86.13,1.53.55,1.94.6-.51,1.41-.81,1.11-2.21-.68-.04-1.33-.04-1.66.28Zm-39.04.28c-.21.71-.88.96-1.94.83-.16,1.18.2,1.83.28,2.77,1.32-.21,1.78.43,3.04.28.72-1.46.15-3.76-1.38-3.87Zm22.15,1.94c.83-.25.76-1.99-.28-1.94-.38.37-.53,1.93.28,1.94Zm37.65-.55c.6.05.12-.98.28-1.38h-.83c-.29.26-.25,1.42.55,1.38Zm-53.16-1.11c-.61.87-.63,2.32-.55,3.87,2.11.41,2.59,0,3.88-.83-.17-.66-.4-1.26-.28-2.21-1.6.3-1.5-1.09-3.05-.83Zm6.37,2.21c.49.89,1.7,1.06,2.77,1.38-.14-1.15.81-1.22.55-2.49-1.14-1.45-3.13-1.49-3.32,1.11Zm70.87.83c.86-.46,1.06-2,.55-3.04-2.73-1.1-3.12,3.6-.55,3.04Zm-104.37-2.76c-.82.47-1.19,1.4-1.38,2.49.64.19.74.92,1.38,1.11.94-.26,1.57-.83,2.77-.83,1.53,5.32-2.19,7.76-3.88,10.78,1.14,1.4-.18,2.71,0,4.7.81.21.66,1.37,1.38,1.66,1.03-.81,2.19-1.5,4.15-1.38.77-.79,2.35-1.97,3.6-1.38,1.33-1.8,3.1-3.17,4.71-4.7.34-1.5,1.1-2.58,1.66-3.87v-5.25c-.74-.73-1.23-1.72-3.04-1.38-1.51,1.03-.83,6.72-3.87,4.42.82-1.38-.58-2.86-.55-4.98-.99.67-2.19,1.13-3.32,1.66-1.04-1.17-1.96-2.47-3.6-3.04Zm-13.29,21.57c1.7.23,2.73-.22,3.87-.55.69.23,1.48.36,2.49.28,1.3-.54,2.22-1.47,3.32-2.21.48-3.09-.3-5.05-1.66-6.91.14-1.24-.14-2.07-.28-3.04.32-2.42.99-5.36.83-8.02-1.01-1.49-1.98-.1-3.87-.28-1.15.97-1.71,2.53-2.49,3.87-.17,1.38,1.21,2.65.28,3.87-1.76-.55-3.26-1.35-4.15-2.76-2.78.93-4.23-1.86-7.2-1.66-2.19,2.58,1.06,4.86,1.94,6.91-.09.98-.76.68-.28,1.66.94-.97,1.9-.05,2.21,1.11-.4.52-.62,1.23-1.66,1.11-.94.11-.44-1.22-1.66-.83-.38,1.21,1.07.59.83,1.66-1.46,1.58-3.76,2.33-6.37,2.76.56.64.67,1.73.55,3.04,1.08,1.2,3.05,1.8,4.15,2.21.34-.89-.9-.21-.55-1.11,1.73-2.64,6.92-3.15,9.69-1.11Zm123.47-17.97c1.29.13,1.78-.54,2.77,0-.23-1.25-.61-2.34-1.11-3.32-2.5-.86-2.73,2.31-1.66,3.32Zm8.3.28c1.62-.04,1.93-1.39,2.22-2.76-.67-.44-1.18-1.03-2.49-.83-.89.66-.76,3.24.28,3.59Zm-53.99-.28c.48-.02.86.06,1.11.28.65-.46.6-1.61.55-2.76-1.19.08-1.37-.84-2.77-.55.54.84.88,1.89,1.11,3.04Zm-93.02-1.38c.63.08,1.04-.07,1.11-.55-.44-.12-.24-.87-1.11-.55v1.11Zm77.24-.55c.68.15.59,1.07,1.66.83.56.14,1.13-1.53.55-.83-.55,1.06-1.56-1.17-2.21,0Zm76.13,8.29c-.33.32-.98.31-1.66.28-1.65-1.76-5.13-1.69-7.47-2.76-6.66-.77-11.75-1.61-17.44-3.04-4.28.46-8.17-1.34-12.73-.83-1.92,1.88-7.01,1.14-8.86-.28-.41-.84.84-1.82-.28-1.66-.43.4-.24,1.42-.28,2.21-1.78.91-3.71,1.04-5.54,1.38-3.25.6-6.92.53-9.97,1.38-1.09.3-1.94,1.17-3.05,1.38-1.81.34-3.75-.27-5.54.28-1.1.34-1.49,1.51-2.77,1.66h-2.49c-1.59,1.53-4.33,1.15-6.64,2.21-1.18.54-2.14,1.47-3.32,1.93-.73.29-1.55.26-2.21.55-2.09.92-4.42,2.63-7.48,3.04-.85.63-.95,2-2.77,1.66-3.91,3.65-8.58,6.55-12.73,9.95-1.29,2.85-4.12,4.18-5.54,6.91-2.08.32-2.15,2.65-4.15,3.04-.32,1.25-1.27,1.87-1.38,3.32-2.22,2.39-4.17,5.05-5.26,8.57-1.12.64-1.65,1.85-3.04,2.21-1.04,3.85-2.6,7.17-3.04,11.61-.8.86-.95,2.37-1.94,3.04.02,3.06-1.7,4.38-3.04,6.08-.31,3.7.7,4.55.28,8.29-.79.69-.96,1.99-.83,3.59-.52.68-.93,1.47-1.38,2.21.31,2.16-.43,3.26-1.11,4.42,1.68,4.45-1.24,8.43.83,12.44-.58.61-.89-.24-1.38.28.66,1.01,1.16,1.25,1.38,2.49.26,1.48-.25,3.64,0,5.25.54,1.03.96,2.17,1.38,3.32-.64,2.46.32,4.97-.28,7.19,1.02-.19.69.97,1.11,1.38,0,2.02.9,3.7.28,5.53.55.74,1.03,1.55.83,3.04.96-.22,1.17.31,1.66.55.01,1.16,1.02,1.66,1.38,2.77.52,1.58.24,3.55.83,4.98.59,1.44,1.99,1.97,2.21,3.32-.71,1.54,1.37,2.44.83,3.87,1.03,2.26,4.33,3.52,3.6,6.64,2.17,2.16,4,4.67,5.26,7.74,2.06,1.44,3.87,3.14,4.98,5.53,1.39-.33,2.07.83,3.04,1.38,1.25.71,2.01,1.19,3.05,2.21-.27,1.1.83.83.55,1.94,3.78,1.29,5.64,4.51,8.3,6.91,6.24,1.33,8.47,7.49,15.23,7.46,2.73,1.88,5.41,3.81,9.69,4.15,2.54,1.72,6.32,3.31,10.52,2.49,4.98,1.39,9.63,3.1,16.06,3.04,3.6,1.83,9.52.29,13.01,1.11.69-.23,1.09-.76,1.94-.83,6.81.35,12.38-1.5,19.1-.83.73.08.22-1.07,1.11-.83,6.48.3,9.78-2.59,15.5-3.04,2.01-1.59,4.54-2.65,7.75-3.04,1.79-1.07,2.94-2.78,5.81-2.77,1.48-1.56,2.88-3.21,5.54-3.59,1.86-1.92,4.43-3.13,6.92-4.42.48-.17-.02-1.31.55-1.38,1.96-1.17,3.4-2.87,5.54-3.87,3.08-3.65,4.76-8.7,7.2-12.99-.98-2.41,2.31-3.48,1.38-5.81-3.05.33-3.15,5.4-6.09,4.15-.04,1.99-1.83,2.22-2.21,3.87-.75.35-1.35.86-2.21,1.11-1.87,3.2-5.66,4.48-8.58,6.63-1.53-.1-1.64.61-3.32.83-1.44,1.61-2.56,3.52-5.54,3.59-.34,1.83-2.78,2.88-4.71,2.21-1.05,1.07-2.63,1.62-3.6,2.77h-1.66c-1.79,1.72-4.86,2.15-6.92,3.59-4.53.45-8.12,1.84-13.01,1.93-.58.53-1.42.8-2.21,1.11-2.23-.63-5.08.18-6.64,1.11-4.5-1.59-9.5.69-14.12,0-2.16-1.12-4.32-1.39-8.03-1.38-1.5-.55-3.12-1.08-4.71-1.38-1.3-.25-2.71.03-3.88-.28-2.03-.54-3.62-1.96-5.81-1.93-2.76-1.94-6.14-3.27-8.58-5.53-1.03.2-1.19-.47-2.21-.28-.73-1.76-2.91-2.07-3.32-4.15-2.43-.34-2.99-2.54-5.26-3.04-.23-.32-.37-.74-.28-1.38-.87-.14-1.08.6-1.66,0-1.15-1.8-2.04-3.86-4.43-4.42-.59-1.27-1.45-2.45-2.21-3.59-.18-.26-.45-.4-.55-.55-.3-.47-.27-1.31-.55-1.66-1.41-1.7-3.81-2.29-4.98-4.15.12-2.65-2.66-3.44-2.77-6.63-1.31-.53-1.84-1.85-2.77-2.76.39-2.69-1.89-2.72-1.38-5.53-1.14-.8-1.82-2.05-1.66-4.15-.87-.88-1-2.51-1.11-4.15-.93-1.38-1.79-2.82-2.49-4.42-.5-1.72.51-2.98.55-4.42.05-1.68-.84-3.66-1.11-5.53-.09-.65.14-1.4,0-1.93-.32-1.21-1.24-2.08-1.38-3.32-.21-1.77.54-3.55.55-5.53,0-.92-.9-.94-.83-1.94,0-4.06,1.01-7.05-.83-10.78-.1-7.38,1.84-12.73,3.88-17.97-.17-5.63,2.79-8.25,2.49-13.27,1.48-1.56,2.1-3.98,3.04-6.08,1.16-6.86,5.44-14.16,10.52-18.8,1.32-2.82,2.79-5.51,6.37-6.08.03-1.17,1-1.4,1.38-2.21,2.27-.96,4.48-1.98,6.09-3.59h1.11c2.06-2.73,4.88-4.71,9.41-4.98,2.45-1.33,4.09-3.48,7.75-3.59.75-.54,1.36-1.23,2.21-1.66,2.87.11,4.82-.71,6.92-1.38.8.12.87.98,1.94.83,7.03-.78,14.78-3.1,21.32-.83,4.75-1.29,9.29,1,14.4,0,2.8,1.84,7,2.7,11.35,2.21,2.29,1.49,6.12,1.44,7.47,3.87,2.72.51,4.42,2.03,7.2,2.49.31.7.68,1.35,1.11,1.94,4.6.56,5.86,4.47,8.03,7.46.65.09,1.14.33,1.66.55,3.45,4.85,5.04,11.55,8.58,16.31.65,1.29.18,3.69,2.21,3.59.27-1.84-.86-2.27-1.11-3.59.45-2.57-.7-5.68-.83-8.57h.28v-.28c.36.33.44.11.83,0,.87-.71-.16-1.85-.28-2.49-.69-.36-1.15.81-1.38,0-.09-1.96-1.36-4.49-1.38-6.91-.01-1.17,1.25-2.51-.28-2.76l-.14-.14-.14.14c-1.18-2.97-2.93-5.37-3.04-9.4-1.11-.19-1.58.27-2.49.28-.31-.7-.68-1.35-1.11-1.94-4.92-2.18-9.51-4.69-15.78-5.53-1.17-1.41-4.33-.83-5.81-1.94h.28v-.28c.44-.41.31-1.24-.55-1.11v1.11l-.14.14.14.14Zm-27.13-7.74c.36.48,1.76,1.01,1.66-.28-.84.11-1.41-.73-1.66.28Zm-122.92,4.7c-1.17,1.41-3.45-.27-4.71-.55.81,1.31,1.42,1.37.83,3.32,1.15.47,1.19.99,2.77.55.51-.96.89-2.06,1.66-2.76.37.36,1.03.36,1.11-.28-.76-1.82-2.3-2.86-2.49-5.25h-.83c-.69,1.86.52,4.04,1.66,4.98Zm72.81-4.7c0-.28-.49-.35-.55,0,.06.33.31.17.55,0Zm7.2,1.94c.25-.49.77-.7.55-1.66h-.83c.16.49-.33,1.62.28,1.66Zm69.49-1.11c-.04,1.42.68,2.08,1.94,2.21.97-1.59-.61-3.58-1.94-2.21Zm-66.72,1.66c.52.06.61-.31,1.11-.28.23-1.06-.59-1.07-1.11-1.38-.38.35-.38,1.31,0,1.66Zm-30.45,3.87c.26-1.41.26-2.19,0-3.59-4.04-1.76-3.67,5.33,0,3.59Zm3.6-3.87c-.21.06-.55,0-.55.28.21-.06.55,0,.55-.28Zm14.4.28c-.17,1.18.6,1.43,1.11,1.94.04-.51.94-.17,1.11-.55v-1.38c-.65-.65-1.36.04-2.21,0Zm85.55,1.66c.86-.03,1.32.34,1.94.55,2.14-2.14-2.18-3.68-1.94-.55Zm11.63.55c.98-.03.93-1.09,1.38-1.66-.25-.58-.82-.84-1.66-.83.36,1.02.04,1.9.28,2.49Zm-146.73-1.11c.35.02.38.35.83.28.01-.48-.21-.71-.55-.83,0,.28-.23.33-.28.55Zm22.98,1.94c1.66.26,1.73-2.2.28-2.21-.22.64-.89,1.57-.28,2.21Zm14.4-.55c.14.97.41,1.8.28,3.04.71-.58,2.02-.56,2.77-1.11.65-3.41-1.92-4.43-3.04-1.94Zm109.91.83h.83v-.83h-.55c-.01.35-.36.38-.28.83Zm-3.87,1.38c-.05-.87-.2-1.65-1.11-1.66-.08,1-.07,1.91,1.11,1.66Zm10.8-.83c-.27-.56-1.06-.6-1.94-.55-.11,1.02,1.87,2.17,1.94.55Zm-5.81,3.59h1.66c.38-.36.27-1.2.28-1.94-.71-.49-1.03-1.37-2.49-1.11-.12,1.31.4,1.99.55,3.04Zm-127.07-.28c.75.3,1.71.1,1.94-.83-.28-.46-1.18-.3-1.66-.55.11.67-.51.6-.28,1.38Zm11.63,1.11c.5-.71,1.46-1.12.83-2.21-.33-.32-.98-.31-1.66-.28-.55.75-.41,2.66.83,2.49Zm123.75,2.21c.99-.36,1.01.02,1.94-.28.19-2.31-1.19-3.05-3.04-3.32.04,1.99.09,2.43,1.11,3.59Zm-131.23-1.11c.31,1.16,1.21,1.74,2.49,1.93.32-.33.31-.98.28-1.66-.84-.15-1.88-1.03-2.77-.28Zm-4.15,1.66c-.85.59-1.5,3.28.55,3.04-.25-1.15,1.65-2.11.83-3.59-.04.6-.7.59-1.38.55Zm75.86,2.21c-.23,1.61,1.07,1.38,1.38,3.04,1.61-.23,1.65-2.04,2.49-3.04-.63-2.59-3.58-2.09-3.87,0Zm-77.52-1.11h.55v-.55h-.55v.55Zm70.32,1.11c.26,1.35-.27,1.88.55,2.76,2.06.22,2.66-1.03,3.04-2.49-1.08-1.24-2.14-.98-3.6-.28Zm-13.57,1.94c1.56.17,2.16-.6,2.49-1.66-1.11-1.64-3.53-.25-2.49,1.66Zm28.79-2.21c.07.81-.63.85-.55,1.66,1.03.08,1,1.22,2.49.83.76-1.65.11-3.33-1.94-2.49Zm-92.19,1.93c.4-.44.57-2.19-.55-1.93-.59.62-.2,1.82.55,1.93Zm99.66,1.66c.91.1,1.38.65,1.94,1.11-.21,1.03-.64,2.5.55,2.76.16-.4.43-.67.83-.83-.7-2.01-.63-3.36-1.11-5.81-.85.2-1.01-.28-1.66-.28-.55.65-.64,1.76-.55,3.04Zm-30.45-.55c1.24.33,1.34,1.8,3.32,1.38.34-1.03-.14-2.76-.83-3.59h-2.22c.12.95-.11,1.55-.28,2.21Zm21.87-1.11c.32,1.09.32-1.09,0,0h0Zm-86.93,3.32c1.37-.1,1.51-1.44,1.38-3.04-2.37-1.69-2.92,2.33-1.38,3.04Zm102.16-1.38c.68.52,1.34,1.06,2.21,1.38,1.22-1.16.3-3.64-1.66-3.32-.2.63-.25,1.41-.55,1.94Zm-51.77,30.69c-.09.84.31,2.15-.55,2.21-3.32-.55-4.29-3.46-8.03-3.59-.55.28-.63,1.03-1.11,1.38,1,2.79,2.25,4.16,3.32,7.19-1.01,1.63-3.58.03-4.71,1.38-.09,1.4-.84,4.56.28,6.08,2.49,0,4-.98,6.09-1.38,2.91,1.33,7.27,1.22,8.3,4.42.98,1.14,3.08,1.16,3.32,3.04-1.76,1.85-4.6.43-7.48.55-3.34,1.34-7.41,1.11-9.14,4.15-.14.25-.39,1.35-.55,1.94-.24.87-.39,1.57-.28,2.49.72.11.84.82,1.66.83.47-.36,1.09-.57,1.11-1.38.14-1.44-2.09-1.96-1.38-3.04,2.64.44,5.19.4,7.47-.28.46.65,1.55.67,1.38,1.94-.21.9-1.38.83-2.21,1.11-3.01,2.52-5.44,5.62-6.64,9.95,3.95-1.21,5.49-4.84,10.8-4.7.96,1.36.97,3.76,0,4.98,1.09.99,2.77,2.7,1.66,4.98.79.5,1.13,1.45,2.77,1.11.35-1.26.71-2.04,0-3.04,1.3.1,2.38-.02,2.22-1.38-.77-.38-1.88.18-2.22-1.11.27-1.85.75-3.49,1.11-5.25,2.2-1.4,3.85-3.34,6.64-4.15,1.53.19,2.89,1.82,4.71.83.4-1.72.39-3.85,1.94-4.42,4.33,0,6.86,1.81,11.35,1.66,1.04.02.84-1.19,2.21-.83-.15.56-.83.54-.28,1.11,1.37-.47,1.4-2.29,2.77-2.77,3.8-1.64,5.87-5.01,8.31-8.02.49-.46-.25-.93,0-1.94,1.89-.78,1.19-4.15,2.77-5.25-.09-2.95.95-4.77.55-8.02-.51-1.25-1.7-1.8-1.38-3.87-1.1-1.56-2.02-3.88-2.21-5.53-1.3-.92-2.33-2.1-2.77-3.87-1.88-1.07-3.52-2.38-5.26-3.59-.26-.36-.02-.95-.28-1.38-.25-.41-2.46-2.76-3.88-3.59-.37-.22-1.28-.02-1.66-.28-.13-.09-.17-.78-.28-.83-.42-.21-1.29-.43-1.66-.55-2.21-.71-4.9-.81-7.2-1.38-.9-.23-1.62-.74-2.49-.83-2.68-.28-5.42.57-8.03.83-.7.68-3.29,1.81-3.32,0-.2-1.58,1.72-1.05,1.66-2.49.28-1.94-.33-2.99-.55-4.42-2.39,0-2.66-2.14-3.88-3.32-1.48.09-2.95.18-4.15.55.14,2.16,1.62,2.99,2.49,4.42.9.32,1.7-.84,2.21,0v1.66c-1.67,1.56-3.02,3.44-4.15,5.53-2.49,1.57-4.92,3.2-8.03,4.15-.48.91-1.31,1.46-1.94,2.21-.76.02-.56-.46-1.11,0-.62,1.77-2.44,2.36-3.32,3.87-1.57.92-2.04,2.94-4.43,3.04-.32-1.04-.14-2.61,0-4.42-.5-1.9-2.12-2.67-2.49-4.7-2.18.12-4.98-.37-5.54,1.38,1.34,2.07,3.84,2.99,3.32,6.91.16.58.69.79.55,1.66-.4,2.6-.9,4.76-.55,7.46-2,3.16-2.48,7.85-4.71,10.78-2.35-.88-3.67-2.78-5.26-4.42-.31,1.7-.13,3.76,1.38,4.7.38-.61,2.08-.83,2.49-.55.88.76,2.14,2.9.83,4.15.83,1.35,2.63,1.19,4.15.55.03-1.19.69-2.84,0-3.87.53-.58.98-1.23,1.94-1.38.43-2.33,1.06-4.47,2.49-5.81-.09-1.11.49-1.53.28-2.76,1.68-2.1,2.6-4.96,5.54-5.81.06-1.04.87-1.34,1.11-2.21.85-.07,1.25-.6,1.94-.83,1.08-1.88,2.75-3.15,4.15-4.7.76-.02.56.46,1.11,0,1.2-1.38,3.21-1.96,4.71-3.04,7.08-2.36,15.17-5.33,23.81-2.77.45-.57,2.04.01,2.49-.55,1.89,1.89,5.02,2.54,7.2,4.15-.04.69.43.86.55,1.38,2,.77,2.97,2.57,4.98,3.32,1.27,3.34,2.78,6.44,4.71,9.12-.15,2.09.32,3.55.83,4.98-.23,3.83-1.55,6.57-2.21,9.95-1.24,1.53-2.6,2.93-4.71,3.59-.52,2.21-1.65,2.09-3.32,3.04-2.36-.31-5.04.9-7.2.55-1.37-.22-2.05-.87-3.05-1.66-1.68.59-4.63.25-5.54-.83-.06-.98.19-1.66.83-1.94,2.77.28,4.67-.31,5.54-1.94.03-2.52-1.32-3.66-1.94-5.53.53-1.5,1.07-2.99,3.32-2.76,1.49.82,1.12,3.49,3.32,3.59.36-.65.46-1.57.83-2.21-.94.02-1.03-.81-1.38-1.38.62-1.77-.39-1.76-.83-3.04,1.57-1.57,4.83-1.44,5.26-4.15-.72-1.77-4.55-.44-5.81-1.66.72-.2,1.43-.42,1.11-1.66,1.21.19,1.53-.5,1.94-1.11-.62-.21-.11-1.55-.28-2.21-1.23-.12-2.02.2-2.77.55-.34,1.45.45,1.76.55,2.76-.16,1.71-2.39,3.9-4.15,2.21-.44-4.71,2.57-10.18.83-12.72-.88,1.43-2.11,2.5-3.32,3.59-1.51,2.18-2,5.38-3.6,7.46-1.91-1.55-4.43-1.45-6.64-.28-.21,1.04.34,1.32.28,2.21,2.11,2.32,3.8,5.05,3.88,9.4-.74,2.02-3.76,1.79-5.81,1.11-1.22-2.1-4.61-4.18-4.98-7.19-.34-2.71,1.41-3.96,2.49-6.36.64-.47,2.12-.09,2.49-.83.04-1.7-1.44-2.72-3.04-1.94-.1,2.4-3.84,2.33-4.71,1.66.55,1.38-1.09,2.96-1.94,3.87Zm13.01-31.79c-.22.06-.55,0-.55.28.21-.06.55,0,.55-.28Zm-79.18,1.93c.41.24.6.7.55,1.38,2.77,1.37,3.79,5.37,6.92,5.53.39.77.65,1.67,1.66,1.11.77-4.84-4.6-5.9-5.81-9.68-1.95-.29-2.95.38-3.32,1.66Zm160.57-.55c.73.08.91-.38.83-1.11h-.83v1.11Zm-151.16.55c.82.33,1.19-1.16.55-1.38-.31.33-.79.5-.55,1.38Zm-25.47-.83c-.35-.02-.38-.35-.83-.28-.43.68.94.81.83.28Zm139.81,2.49c1.01.82,2.6,1.03,3.87.28.12-1.13-.26-1.77-.55-2.49-1.87-1.23-3.5-.08-3.32,2.21Zm-111.57-1.66c-.77.62-1.41,1.36-1.11,3.04.68.04,1.33.04,1.66-.28-.34-.94-.09-2.49-.55-3.32-.39-.02-1.06.06-.55.28.21.06.55,0,.55.28Zm147.84,4.15c.48-.35,0-1.65.83-1.66.6.33.66,1.18,1.94.83v-2.49c-.55,0-.35-.75-1.11-.55.16,1.78-3.29,2.41-1.66,3.87Zm-171.64-1.93c.49-.25.96-.51.83-1.38-1.07.15-1.35-.49-2.49-.28.27.84.82,1.39,1.66,1.66Zm103.82-.83v1.94c1.01.77,2.52.58,3.6,0-.38-1.48.52-1.69.83-2.49-1.72.35-2.72-.55-4.43.55Zm-14.4,0c.16,1.25,1.59-1.58.28-.28-.13.13-.32-.05-.28.28Zm9.41,3.59c2.61-.03,1.78-4.17-.28-4.15-.49,1.42-.21,2.96.28,4.15Zm71.7-3.59c.28,0,.33.22.55.28-.03-.43.04-.96-.55-.83v.55Zm-99.11,1.66c.6-.05.88.23.83.83,2,.34,2.26-1.06,3.05-1.94-1.41-.06-1.98-.98-3.6-.83.16.9-.19,1.29-.28,1.94Zm20.49.83c.9-.21,1.76-.46,1.66-1.66-.92-2.17-3.36.34-1.66,1.66Zm21.59.83c1.66.11,1.92-1.93,1.11-2.76h-1.38c.07.94-.21,2.24.28,2.76Zm31.29-2.49v1.11c1.03.11,1.62-.22,1.66-1.11-.35-.38-1.31-.38-1.66,0Zm-137.04,0c-1.6,2.34-4.22,2.9-7.2,3.32-.52-.04-.92-.18-1.11-.55-1.62.48-3.67,2.81-4.98,1.11-.11.67.5.6.28,1.38-1.65.22-2.03.22-2.49-1.11,1.83-1.19.13-3.78-1.66-3.87.07.99-.83,1.01-.83,1.94,1.87,1.07,3.16,4.8,1.11,6.63,1.72,2.12,4.94-.41,6.92,1.11,0,3.15-4.06,3.66-6.37,3.59-.04.33.05.78-.28.83-1.1-.15-.83-.15-1.94,0,.09-1.11-.79-1.24-1.94-1.11-1.09,2.45,1.39,3.29,1.94,4.98.73,0,1.73-.26,1.38.83,3.08-1.26,6.94-1.73,9.97-3.04,2.07-1.94,3.83-5.52,7.48-4.98.84-3.22,1.03-7.08,1.66-10.51-.6-.23-.95-.72-1.94-.55Zm56.2,2.76c1.12-.45,1.85-1.28,1.94-2.76-1.78-.22-1.91,1.23-1.94,2.76Zm55.37-.55c1.01.4,3.56,1.56,4.43-.55-.6.05-.13-.98-.28-1.38-1.11-.79-2.65.42-3.6-.28-.02.91-.79,1.06-.55,2.21Zm-54.81,2.49c1.23,1.24,1.66.03,3.88.28.42-.45.42-2.04,0-2.49-1.36.67-3.28.78-3.88,2.21Zm43.74-1.11c.12,1.26.39,2.38,1.38,2.76,1-.85,2.54-1.15,3.04-2.49-.81-1.15-3.6-1.43-4.43-.28Zm-31.84,1.38c.65.36.52-.04,1.39.28.32-.33.31-.98.28-1.66-.41-.14-.7-.41-1.11-.55-.73.72-.26,1.03-.55,1.94Zm76.69-.55c.54.13.89-1.27.28-1.38.4.86-.95,1.97-.28,1.38Zm-4.71,0c.07,1.31,1.5,1.26,2.21,1.94-.23-1.15.54-1.31.55-2.21-1.32.1-2.07-.66-2.77.28Zm-74.47,4.42c.52-1.05.39-1.5.28-2.76-.94-.44-1.48-1.29-2.77-1.38.38,1.83.07,4.36,2.49,4.15Zm99.66-2.21h2.49c.14-1.62-1.33-1.62-2.49-1.94.25,1.01-.49,1.47,0,1.94Zm-57.86,2.49c.89.12,2.39-.36,2.49.55-1.21,1.98,1.06,4.82,2.77,3.04-.25-1.59-.91-2.78-1.94-3.59.32-.61.71-1.13.55-2.21-1.45-.68-2.48-1.76-4.43-1.94-.65,1.22-.21,3.44.55,4.15Zm-129.01-2.21c-.23.69-.36,1.48-.28,2.49.9.12.88,1.15,1.66,1.38,1.21-1.11.64-2.3.83-4.42-1.98.6-1.84-.93-3.04-1.11-.61.64.38,1.24.83,1.66Zm70.04.83c.12.99.7,1.52,1.38,1.94.98-.96,3.3-.58,4.71-1.11v-1.66c-1.64-1.32-4.6-.31-6.09.83Zm-41.53-.83c-.09.64.04,1.06.28,1.38,1.18.08,1.41-.8,1.94-1.38-.65-.65-1.36.04-2.21,0Zm54.26.55c.72.08,1.19-.1,1.11-.83-.72-.08-1.19.1-1.11.83Zm85.82,1.38c-.08.73.58.71,1.11.83.21-.97-.72-1.24-1.11-.83Zm-88.87,1.38c.5.7.41,1.99,1.94,1.66.38-.35.17-1.31.55-1.66-.72-.2-.53-1.32-1.38-1.38-.28.55-1.22.44-1.11,1.38Zm109.35,3.32c.68.04,1.33.04,1.66-.28-.17-1.77-1.12-2.75-1.66-4.15-1.07,1.1-.25,2.53,0,4.42Zm-24.92-2.49c.5.51,1.02,1.01,2.21.83-.32-1.02-.03-1.6-.28-2.21-1.12-.01-1.95.27-1.94,1.38Zm-90.25-.55c.48.02.71-.21.83-.55-.44.03-.96-.04-.83.55Zm2.21,2.21c.4-.61.7-1.33.55-2.49-.52.06-.61-.31-1.11-.28.15.96-.41,2.62.55,2.76Zm-71.15-1.38c.08-.72-.1-1.19-.83-1.11-.05.69.42.87.83,1.11Zm19.66.28c.53.12.69.6,1.38.55,0-.73.15-1.63-.55-1.66-.08.56-.75.54-.83,1.11Zm122.64-.55c-2.98.39-5.69-.4-6.37,2.49,1.09,2.91,6.35,1.8,8.86.83-.2-1.74-1.79-2.09-2.49-3.32Zm-48.17,2.21c.8.71.99,1.77.55,3.04,1.36.37,2.24.67,3.32-.28-.63-1.45.58-1.04.55-2.49-.74-.71-1.64-.01-2.21.28-.37-.28-1.03-.26-1.11-.83.42-.41,1.16-.49,1.38-1.11-1.25.04-1.55,1.03-2.49,1.38Zm7.2,1.66c1.22,1.02,2.86,1.3,4.71.55.18-1.65-.73-2.22-1.11-3.32-2.4-.28-4.27-.03-3.6,2.77Zm30.18,2.76c.7.5,1.45.95,2.77.83.52-.67,1.03-1.37.83-2.76-1.54-.03-1.96-1.18-3.32-1.38.43,1.27-.29,1.79-.28,3.32Zm-115.45.28c1.7,0,2.64.05,2.49-2.21-.61-.51-2.79-.88-3.32-.55.45.75.26,2.13.83,2.76Zm41.25-1.94c.6.05.88-.23.83-.83-.75-.19-.54.57-.83.83Zm35.71-.28c-.23,1.64.16-1.11,0,0h0Zm-3.6.28c-.67.96-.44,2.17.28,3.04,1.77.2,2.7-.44,2.49-2.21-.68-.64-1.6-1.46-2.77-.83Zm-28.51,3.32c1.61-.56.03-2.26-.28-3.32h-1.38c-.1,1.76.45,2.87,1.66,3.32Zm37.37-2.76c-.09,1.37,1.53.72,1.38-.28-.78-.23-.72.39-1.38.28Zm-77.24.83c.62-.12.88-.59,1.38-.83-.79-.05-1.51-.03-1.38.83Zm93.3-.28c-.03,1.6.77,2.36,1.94,2.76.69-.42,1.27-.95,1.38-1.94-.39-1.21-2.22-1.88-3.32-.83Zm69.21,4.42c1.83-.86,1.73-3.02.55-4.42h-.83c-1.23,1.33.06,2.93.28,4.42Zm-99.66-3.04c-.07,1.63.89,2.24,2.21,2.49.81-1.01-.21-2.04-.55-2.76-.68-.04-1.33-.04-1.66.28Zm53.71,1.11c.43.96,1,1.77,2.21,1.94,1.25-.99,2.73-.78,4.71-.55.42-.45.42-2.04,0-2.49-2.94.95-5.72-1.32-6.92,1.11Zm-128.73,1.94c.65-.55,1.57-.83,1.38-2.21-.39-.07-.32-.61-.55-.83h-2.21c-.52,1.45.42,2.33,1.38,3.04Zm49.83-2.21c-3.96-2.38-3.46,3.64-.28,3.59.68-1.3.96-2.19.28-3.59Zm-61.18,2.21c1.06.35,1.74-2.1.55-2.21-.52.4-1.32,1.37-.55,2.21Zm120.15-.28h1.11c-.14,1.98,1.73,1.96,3.04,2.49.08-.57.74-.55,1.11-.83-.12-.99-.74-1.48-.55-2.77-.79-.68-2.43-.52-3.6-.83.53,1.54-1.05.98-1.11,1.94Zm-17.44,1.38c.9-.21,1.2-1.01,1.11-2.21-.49-.25-.7-.77-1.66-.55-.12,1.22.08,2.14.55,2.76Zm-87.76-1.38c.09.65.44,1.04.28,1.94.89.44,1.83.23,2.49-.28v-1.94c-1.23-.22-1.66.37-2.77.28Zm121.54.55c.34,1.13.73,2.22,1.38,3.04,1.62.24,1.92-.84,2.77-1.38.03-.86-.87-.79-.55-1.94-1.46-.17-2.93-1.19-3.6.28Zm-52.88,3.04c.73-.28,1.58-.45,1.66-1.38-.12-1.54-1.27-2.05-2.77-2.21-1.17,1.06-.43,3.56,1.11,3.59Zm-77.52,2.21c-.76.88-2.17,2.87-.83,4.15.99.16,1.34-.32,1.94-.55.14-1.24-.14-2.07-.28-3.04.89-.5,1.79-.98,2.49-1.66v-2.49c-1.42-.52-2.45-1.43-4.15-1.66.5,1.53.07,3.99.83,5.25Zm137.87-3.32c-.14.84.43,1.59,1.94,2.21,3.21-1.22-1.4-5.37-1.94-2.21Zm-89.42,3.59c.4.24.88.41.83,1.11,1.48.09,2.64-.12,3.05-1.11-.23-1.89-1.3-2.95-3.05-3.32-.35,1.04-1.1,1.66-.83,3.32Zm7.47.55c.85-.21.53.76,1.38.55.06-.31.31-.43.55-.55-.86-.8-.3-3.02-1.66-3.32-1.37.99.54,2.09-.28,3.32Zm1.94-2.76c-.67.93.93-.67,0,0h0Zm-63.67,2.21c.6-.68.21-2.04-.83-1.94-.22,1.05-.43,1.82.83,1.94Zm125.97,0c.13,1.35.74,2.21,2.49,1.94.45-.87.66-3.5-.83-3.32-.79.23-1.4.62-1.66,1.38Zm13.29-.28c.16,2.15,1.15,3.46,3.6,3.32.25-.95.68-1.71.83-2.76-1.51-1.03-2.58-1.63-4.43-.55Zm-127.07,1.94h1.11c-.19-1-.66-1.74-1.38-2.21.03.8-.15,1.81.28,2.21Zm117.38-.83c1.04.12.85-.83.28-1.11-.09.37-.39.53-.28,1.11Zm-34.05,1.11c.08,2.22,2.05,2.56,2.77,4.15-.16,1.08.24,1.61.55,2.21,1.49-.74,1.78-.27,3.04.28.27-1.38-1.12-1.09-1.38-1.94v-1.38c-1.78-1.17-2.16-3.74-4.43-4.42,0,.55-.75.35-.55,1.11Zm-21.87,1.66c.35,1.4,2.02,1.48,1.66,3.59,1.17.43.04-1.43.83-1.38,1.12.28,1.23-.43,1.66-.83,0-1.11-1.3-.92-1.66-1.66-.69-.23.32-2.16-.83-1.93-.72.57-1.66.92-1.66,2.21Zm-.83-.83c-.01-.38.13-.61.28-.83h-.83c-.02.48.21.71.55.83Zm-14.4.28c.54,1.4,1,2.87,3.04,2.76,1.06-2.41-1.52-4.2-3.04-2.76Zm-47.89,1.11h.55c.02-.35.36-.38.28-.83h-.83v.83Zm109.91,1.66c.3,1.45.85,2.65,1.94,3.32.54-.84,1.5-1.27,1.94-2.21-.07-.94-.7-1.33-.55-2.49-1.47-.71-2.56.55-3.32,1.38Zm-68.66.28c.92,0,1.38-.47,1.38-1.38-.99-.06-1.45.4-1.38,1.38Zm-41.8.55c.41.7,1.07,1.14,1.94,1.38.47-.36,1.09-.57,1.11-1.38-1.13-.25-1.01-1.76-2.49-1.66.07.81-.63.85-.55,1.66Zm116.55-1.11c.03,1.36.31,2.46,1.38,2.77,2.89-.04.79-4.54-1.38-2.77Zm-122.09,1.94c-.35-1.9-3.66-2.19-5.54-1.66-.18,1.01.19,1.47.55,1.93h2.77c.05.96.98,1.05,1.11,1.94,1.55-.08,1.73-.05,2.77-.83-.25-.48-.1-1.38-.55-1.66-.05.41-.67.25-1.11.28Zm49.83-.55h1.38c-.23-.78.39-.72.28-1.38h-1.39c.23.78-.39.72-.28,1.38Zm86.1.55c.75.36,1.54.68,2.77.55.09-.65.44-1.04.28-1.94-1.06-.56-3.6-.55-3.05,1.38Zm-69.21.55c.09,1.75.83,2.86,2.77,2.76.7-1.5-1.02-3.75-2.77-2.76Zm-22.15,1.38v-.83h-.83c-.05.6.23.88.83.83Zm82.22-.55c-.23,1.64.16-1.11,0,0h0Zm54.82,1.66c.64.09,1.06-.04,1.38-.28-.06-.96-.23-1.8-1.38-1.66-.4.37-.4,1.57,0,1.94Zm-39.87-.28c.71-.03,1.07-.4,1.11-1.11-.38.01-.61-.13-.83-.28-.23.32-.37.74-.28,1.38Zm18.27,1.94c.05-.41.67-.25,1.11-.28.25-.68.65-1.2.55-2.21-.84-.36-1.29-1.11-2.77-.83-.93,1.17.07,2.58,1.11,3.32Zm-157.8-2.21c.81.41.81-1.24,0-.83v.83Zm119.04,2.21c1.54.55,2.04-2.53.55-2.49.25,1.26-.46,1.57-.55,2.49Zm30.45,1.11c1.01,1.31,3.61-.01,4.43.28.52-3.69-5.24-5.22-4.43-.28Zm12.74-.55c1.32.49,1.91,2.04,3.6,1.38-.21-1.04.34-1.32.28-2.21-1-.57-1.69-1.45-3.05-1.66-.34.76-.81,1.4-.83,2.49Zm-119.87.55c.85.21.53-.76,1.38-.55.12-1.23-.15-2.06-1.38-1.94v2.49Zm19.93-.83c1.28.21.38-1.06.83-1.11.17.16,1.31.65,1.38,0-1.16-.55-2.89,0-2.21,1.11Zm-70.59,0c.19.83,1.1.93,2.21.83-.03-1.17-.75-1.65-1.66-1.94,0,.55-.76.35-.55,1.11Zm142.58,1.38c.05-1.16-1.36-.85-1.11-2.21-.64.09-1.06-.04-1.38-.28-1.68,1.39.99,4.27,2.49,2.49Zm4.43.28c.39-.54.9-1.78.28-2.49h-1.11c-.65.85-.26,2.51.83,2.49Zm6.64,1.11c.21-1.69-.19-2.76-.83-3.59-3.75-.52-2.02,5.35.83,3.59Zm-144.24-1.94h.83c.08-.72-.1-1.19-.83-1.11v1.11Zm170.54,0c.02-.17.04-.33.28-.28-.03-.34-.08-.65-.55-.55.04.33-.05.79.28.83Zm6.65.83c-.79-.41-.97-1.43-2.21-1.38-.23.6-.72.94-.55,1.94.91.29,1.53.87,2.21,1.38.28-.36.27-1.02.55-1.38l.14.14.14.14c.84,1.11,2.2.19,2.22-1.11-.86-.78-1.46.38-2.22.55v-.28h-.28Zm-113.23,2.21c1.47-.1,2.27-.87,1.94-2.77-.69-.23-1.48-.36-2.49-.28-.11,1.31,0,2.4.55,3.04Zm91.36-.28c1.08.6,2.78.72,4.15.28,1.54.39,1.06,2.81,3.04,2.76-.22-1.16-1.33-1.63-1.94-2.49-.39-.55-.38-1.34-1.11-1.66-.04.33.05.78-.28.83.08-1.15-.36-1.08,0-1.94-1.99-.83-4.29-.69-3.87,2.21Zm-156.42,3.32c1.29-2.77-2.86-3.03-1.66-5.81h-.83c-.37,2.07.96,4.72,2.49,5.81Zm62.85-5.53c-.65,0-.82-.48-1.66-.28-.51,1.29,1.76,1,1.66.28Zm51.49,1.11v1.94c.52.8,2.42.64,3.32.28.35-2.65-1.5-3.1-3.32-2.21Zm53.43,5.25c-.48.99-1.98.97-1.66,2.76.62,1.47,2.88,1.16,3.88.28-1.7-2.77,1.55-6.3-1.94-7.74-1.05.9-.4,3.31-.28,4.7Zm-125.13-.28c3.32,1.47,5.05,4.54,8.31,6.08,3.96.42,6.49.24,9.13-1.11.4.07.47.46.83.55.14-1.66,2.22-1.36,3.32-1.94.81-.42,1.11-1.28,1.94-1.38.04-.33-.05-.79.28-.83-.04-1.25-.78-1.8-1.11-2.76.63-.77,1.73.64,1.66-.83h-1.94c-.04.52-.18.92-.55,1.11-3.29.39-6.41.84-10.24.83-2.61-1.52-6.96-2.53-10.24-2.49-.28-.37-.46-.83-.83-1.11-.76,1.19.36,3.33-.55,3.87Zm104.09-3.04c-.74,0-.6-.87-1.38-.83-1.63,1.6-3.88,2.57-5.81,3.87-.17,2.13-1.8,2.81-2.49,4.42.08,2.89.23,4.54,0,7.74.42,1.61,1.57,2.49,1.94,4.15.47.55,1.6.43,1.38,1.66-.4,1.02-1.71.51-2.22.83-.19,1.61-.18,2.21.55,3.32-3.41.94-6.91-1.4-10.24-.55-3.66-.95-4.29-4.93-8.03-5.81-.77-2.09-2.51-3.21-3.88-4.7-1.59.63-3.06,1.37-3.04,3.59,1.78,1.26,3.48,2.61,4.43,4.7-1.29,3.05-7.22,1.45-9.13,3.87-3.74,1.05-7.44,2.15-10.24,4.15-1.29-.09-1.85.55-3.05.55-.3.71-.7,1.33-1.38,1.66-2.18.4-3.17,2-5.54,2.21-2.37,3.17-6.53,4.54-9.41,7.19-.98,2.53-3.62,3.39-4.71,5.81-.37-.09-.53-.39-1.11-.28-.37,3.23-2.19,5-4.15,6.63-.34,5.84-3.7,8.65-4.43,14.1-1.28.25-2-.65-2.49.28.17.48,1.31-.02,1.38.55,1.18,2.55-1.52,5.72,0,8.57,1.39-.19,1.93.47,3.32.28,2-1.92.49-5.87,1.66-8.29.2-.85-.48-.81-.28-1.66,1.29-3.04,2.98-5.68,3.6-9.4,2.62-3.37,5.17-6.82,6.92-11.06,2.2-1.12,3.11-3.53,5.81-4.15.32-1.98,2.21-2.4,3.04-3.87,1.93-.01,2.74-1.14,4.43-1.38.53-.57.87-1.34,1.38-1.93,7.59-2.74,13.87-6.8,23.53-7.47.89-.13.98-1.05,1.94-1.11,3.83.41,7.9.59,11.07,1.66,1.65-1.35,4.84.46,6.92-.55,1.53,1.52,4.51,1.58,7.48,1.66,3.57,2.23,8.14.16,8.86-3.59-3.98-.16-10.36.14-13.84-1.38,1.52-.78.27-3.49,1.66-3.87,1,.57,1.67,1.46,2.21,2.49,2.25-.31,2.41,1.47,4.71,1.11.54-.29.39-1.27.83-1.66-1.34-2.65-5.32-2.77-4.71-6.64.6-.87,2.48-.47,3.88-.55.89-1.79,2.94-2.41,4.15-3.87-.13-.63-.55-1.41,0-1.94-1.51-.7-4.18-.24-4.43-2.21.39-.35.12-1.35.83-1.38,1.16-.23,1.31.54,2.21.55.62-1.77,1.08-2.82,2.49-3.04,2.06-.32,3.86,2.78,6.65,1.94.19-1.38-.26-2.14-.28-3.32-3.59-1.54-8.51-4.19-13.01-3.04Zm-12.46,0v1.94c1.31-.11,1.46.94,2.77.83.17-.66.4-1.26.28-2.21-1.18-.48-1.91-1.45-3.04-.55Zm40.42-.55c-2.96.67-1.89,4.54.83,4.7.06-.22.23-.32.55-.28.36-1.02.25-2.52.55-3.59-1.32.4-.69-1.16-1.94-.83Zm-65.06,1.11c.07.85.28,1.56.55,2.21h1.66c.43-.4.25-1.42.28-2.21-1.16.29-1.88-.58-2.49,0Zm-119.32,3.04c.67,1.62,2.01,2.59,3.6,1.94,1.12-4.19-3-5.33-3.6-1.94Zm84.99-1.11c1.09.17,1.44-.41,1.94-.83-.87-.42-1.53.08-1.94.83Zm54.26.55c.09.64-.04,1.06-.28,1.38.75.55,1.36,1.22,2.77,1.11.74-1.25.51-2.6-.83-3.04-.81-.07-.85.63-1.66.55Zm-89.7.55c.4.31.68.3.83-.28-.38.01-.61-.13-.83-.28v.55Zm.28,1.38c.22.96-.41,1.06-.28,1.94,1.38-.27,1.09,1.12,1.94,1.38.08-.57.74-.55,1.11-.83.28-1.47-.47-1.92-.83-2.77-.87-.13-.98.5-1.94.28Zm-42.08,6.36c1.57-.99.16-3.3.55-5.53-.36-.38-1.2-.27-1.94-.28-.75,2.23-1.35,5.15,1.38,5.81Zm-4.15-3.59c.81.41.81-1.24,0-.83v.83Zm166.94.28c.79.05,1.51.03,1.38-.83-.19-.22-1.55-.62-1.66,0,.32.05.3.44.28.83Zm9.41.83c1.03.17,1.36,1.04,2.49,1.11.11-.35.36-.56.83-.55.23-1.98-1.08-2.42-2.77-2.49.4,1.27-2.08,2.88-.55,1.94Zm-168.32-1.38c.32,1.09.32-1.09,0,0h0Zm37.37,0c-.8.8.8-.8,0,0h0Zm94.68,2.49c.04-2.16-1.33-2.91-3.6-2.76-.76,2.76,1.89,4.21,3.6,2.76Zm20.76-.55c.96-.22,1.06.41,1.94.28.23-.6.72-.94.55-1.94-1.36-.76-3.25.31-2.49,1.66Zm-163.34.83h1.66c.22-.52.46-1.01.55-1.66-1.08.16-1.61-.24-2.21-.55-.55.54-.18,1.58,0,2.21Zm133.44-1.94c-.72,1.54.14,3.66,2.21,3.32,1.21-1.15.12-3.46-1.38-3.59-.35.02-.38.35-.83.28Zm-78.9,3.32c1.1.09,2.05.02,2.49-.55.28-1.94-.77-2.55-2.49-2.49-.46.98-.77,2.24,0,3.04Zm107.97-1.66c-.21.06-.55,0-.55.28.21-.06.55,0,.55-.28Zm-163.34,1.11c-.67.93.93-.67,0,0h0Zm47.06.83h.55v-.55h-.55v.55Zm121.81,0c-.13,1.06.08,1.76.55,2.21,1.45.07,1.73-1.03,1.94-2.21-.65-.21-1.91-.55-2.49,0Zm-119.6,1.38c.23-.32.37-.74.28-1.38-1.5-.19-1.7,1.37-.28,1.38Zm-45.13-.55c.04.68.04,1.33-.28,1.66,1.34.32,1.51,1.81,3.32,1.66.22-1.6-.4-2.36-.28-3.87-1.29-.18-1.78.44-2.77.55Zm55.37,1.93c0,.55.76.35.55,1.11,1.01.09,1.54-.31,2.21-.55,0-1.38-.43-2.33-1.11-3.04.25,1.63-1.59,1.18-1.66,2.49Zm6.37-1.93c1.02,9.76,8.75,12.82,12.46,19.91,3.1,1.79,5.53,4.24,8.58,6.08,1.39-.45,2.88-.81,3.04-2.49-.84-1.59-2.94-3.28-5.26-2.49-.33-1.97-2.77-1.84-2.21-4.7-.68.04-1.33.04-1.66-.28-.07-.94-.7-1.33-.55-2.49-.58-.6-.79.14-1.66,0-.48-1.92-2.8-2-4.15-3.04-.12-1.35-1.43-1.52-1.11-3.32-2.31-1.29-1.37-5.82-3.32-7.46-1.5-.31-2.89-.29-4.15.28Zm54.26.55h.83c.05-.6-.23-.88-.83-.83v.83Zm16.89,1.38c-1.03.29-.54-.93-1.11-1.11-.34,1.23-1.94,1.2-2.22,2.49.25,1.23,1.2,1.75,1.94,2.49-.34,1.53.72,1.68,1.11,2.49,1.34-.14,1.34-1.61,2.49-1.93,2.3-.14,3.87,1.78,6.09.83-.3-3.85-4.25-4.05-4.98-7.46-2.71-.87-1.97,1.72-3.32,2.21Zm40.7,1.11c1.18-1.17.47-4.02-1.94-3.32-.78,1.74-.48,3.53,1.94,3.32Zm-47.34-2.76c-.31.03-.43-.4-.55,0,0,.28.49.35.55,0Zm-56.48.55c-.18,2.59,1.44,3.78,4.15,4.15,1.87-2.75-1.76-5.73-4.15-4.15Zm56.75,1.11c1.45-.34.63,1.58,1.94,1.38.46-.46.22-1.62.28-2.49-1.18-.07-2.36-.14-2.21,1.11Zm-77.79,1.94c.62-.21,1.5-.16,1.66-.83-.81-.48-1.56-1.02-1.94-1.93.08.94-.21,2.24.28,2.76Zm65.89.55c.37-1.57-.93-1.46-1.66-1.94-.44-.2.06-1.35-.83-1.11-.11,1.83.61,4.09,2.49,3.04Zm-118.21-.28c1.3.11,2.38-.02,2.21-1.38-.67-.16-1.18-.21-2.49-.28-.04.68-.04,1.33.28,1.66Zm40.97-1.38c.32,1.09.32-1.09,0,0h0Zm124.86,3.59c.43-1.72-.86-1.72-1.11-2.77-4.09-.54-1.58,4.56,1.11,2.77Zm-117.94-.28c.19-1.21-.8-1.23-.83-2.21h-1.94c-.33,2,1.13,3.02,2.77,2.21Zm62.01-.83c-.44.03-.96-.04-.83.55.47.73,1.15,1.25,2.21,1.38.43-.87,1.52-2.22.83-3.32-1.52-.32-1.22,1.18-2.21,1.38Zm-53.71,1.94c.52.79,2.61.84,2.49-.55-.38-.73-1.02-1.2-2.21-1.11.2.84-.28,1.01-.28,1.66Zm101.05.55c.87-.06,2.03.19,2.49-.28v-1.38c-1.28-.76-2.94-.62-2.49,1.66Zm13.29-1.94c.04.88-.27,2.12.83,1.94.86-.15.42-1.6.83-2.21-.85-.2-.81.48-1.66.28Zm-165.28,1.11c.38-.79-.5-1.66-.83-.83.64-.08.31.8.83.83Zm98.56,3.32c1.45-.46,1.93-.79,3.6-.55.45-1.65.08-2.68-.55-3.87-3.22-.91-2.89,3.2-3.04,4.42Zm-41.8-3.59c-.14,1.89.85,2.65,2.77,2.49.28-.65.04-2.2,0-2.76-1.26-.1-1.93-.46-2.77.28Zm14.4,2.76c.36.38,1.2.27,1.94.28.64-.66.87-2.72,0-3.32h-1.38c-.26,1.45-1.13,1.96-.55,3.04Zm-70.6-1.93c-.35-.02-.38-.35-.83-.28-.43.68.94.81.83.28Zm67.83,0c-.67.93.93-.67,0,0h0Zm36.54.55c-.23,1.64.16-1.11,0,0h0Zm1.94,1.66c.75.91,1.7,1.62,2.77,2.21.28-1.28,1.27-1.87,1.11-3.59-1.33-.93-4.11-.8-3.88,1.38Zm7.2-.28c.58.55,1.84.21,2.49,0v-1.38c-1.06-.72-2.66,0-2.49,1.38Zm-120.43,1.11c.61.59.15,2.25,1.66,1.94.49-.71,1.28-1.12,1.38-2.21-.58-.52-.85-1.36-1.11-2.21h-.83c.42,1.61-.69,1.7-1.11,2.49Zm54.82.55c-1.05-.68-1.25-3.47-3.6-2.49-1.87,3.68-1.11,7.05-.83,12.44.67,1.18,1.61,2.08,1.38,4.15-1.61,2.36-5.3,2.63-6.09,5.81.41.05.25.67.28,1.11,1.72-.15,2.26.87,3.04,1.66,1.89.41,3.91.7,5.54,1.38.93,2.36.17,5.84-.83,7.19,1.4.9.67,3.94,1.94,4.98v1.94c1.34,3.27,1.7,7.52,5.54,8.29.39.71.65,1.56,1.66,1.66.69-.33.28-1.75,1.11-1.94.95-.12,1.55.11,2.21.28.32-.77.32-1.44,0-2.21-1.43-.69-3.17.16-4.43-.28-.64-3.24-2.57-6.63-1.94-10.23,1.66-1.06,3.42-.22,4.43.83-.21,1.41.28,2.12,1.11,2.49.35-1.58,1.68-2.19,2.49-3.32.65-2.83.53-5.55-.55-8.29.16-.58.69-.79.55-1.66-.91-.48-2.13-.64-3.32-.83-.17-1.12-1.19-1.4-1.11-2.77,3.87-.75,7.31-.27,10.8.28.48-.17-.02-1.31.55-1.38,2.12-.21,4.55.56,6.64.28,1.75-.24,3.94-1.02,4.15-2.77-1.6-.62-3.63-.62-5.54-.55-1.78.06-3.51.75-5.26.83-3.23.15-6.45-.91-9.41.28-.08-.56-.75-.54-.83-1.11.03-.99,1.03-1,1.11-1.94-1.14-2.89.05-6.08-.28-9.4-1.25-1.24-2-2.98-3.32-4.15-2.42.64-3.11,3.48-2.49,6.36-2.55.84-4.68-1.01-4.71-3.59.47-1.1,2.34-.8,2.21-2.49-.54-1.28-1.25-.2-2.21-.83Zm88.87,0c-.04-.68-.04-1.33.28-1.66-.82-.19-1.21-.82-2.49-.55-.22,1.7.94,2.01,2.21,2.21Zm42.63,1.66c1.96.25,2.89-2.37,1.66-3.59-2.1-.15-2.73,2.13-1.66,3.59Zm-76.96-3.32c-1.59.99-2.49,4.8-.28,5.81,2.23-.56,2.01-2.98,2.21-4.98-1.21.29-.91-.94-1.94-.83Zm57.58,1.94c.9.41,2.57.5,2.49-.83-.5-.6-1.01-1.21-2.21-1.11-.09.65-.44,1.04-.28,1.94Zm-76.69,1.66c1.1,0,.96,1.25,2.21,1.11.02-1.18.46-1.93.28-3.32-.92.28-.91-.38-.83-1.11-1.71.23-1.93,1.79-1.66,3.32Zm71.98,0c1.79.03,2.41-1.1,2.21-3.04-2.29-1.29-3.87,1.79-2.21,3.04Zm-115.17.55c.73-.13.98-2.46-.28-2.21-.37.4-.57,2.19.28,2.21Zm40.42,1.11c-.03-1.26.22-2.8-.55-3.32-4.12-.81-2.44,6.03.55,3.32Zm-20.49-1.38c-.03,2.12,2.04,3.07,3.32,1.66.3-1.96-2.35-3.49-3.32-1.66Zm33.78,1.11c-.69,3.25,1.79,2.92,3.32,3.32.4-.98-.62-2.62-1.11-3.59-.95-.12-1.55.11-2.21.28Zm-100.5,1.11c.85.2.82-.48,1.66-.28.08-.73-.38-.91-1.11-.83-.14.41-.41.7-.55,1.11Zm4.15,0c.37.09.53.39,1.11.28.05-.79.03-1.51-.83-1.38.06.52-.31.61-.28,1.11Zm177.18-.55v2.21c.98.23,1.29,1.11,2.49,1.11.9-.39,1.24-1.34,1.11-2.76-1.54.53-.98-1.05-1.94-1.11-.65.09-1.14.33-1.66.55Zm-92.47,4.15c3.31.28,2.94-4.22,0-4.15.04,1-1.13,2.83,0,4.15Zm-88.87-2.77c-.5.6-.49,1.27-.28,1.94h1.66c.27-.65.48-1.36.55-2.21-1.05.26-1.3.02-1.94.28Zm194.07-.28c-1.01,1.2-.97,3.32.83,3.59.67-.43,1.04-1.18,1.11-2.21-.84-.26-.64-1.58-1.94-1.38Zm-87.76.28c-.21.06-.54,0-.55.28.21-.06.55,0,.55-.28Zm-60.35.28c-.84.93,1.02.84,0,0h0Zm25.47,2.77c.89.22,1.4.82,2.49.83.53-.95-.96-1.89-1.11-3.04h-1.11c-.17.66-.4,1.26-.28,2.21Zm22.7,0c-.03,1.01,1.04,2.4,2.77,2.49.73-.38,1.2-1.01,1.11-2.21-1.14-2.01-3.81-2.96-3.88-.28Zm35.99,0c.69.7,2.33,1.78,3.32.55-.01-.91-.47-1.38-.28-2.49-1.94-.28-2.81.51-3.04,1.94Zm8.03,1.11c.76.7,1.93.56,3.04.28.5-1.47-.23-2.73-1.66-3.04-.71.67-1.35,1.42-1.38,2.77Zm38.48-2.21c0,1.39.4,2.37,1.94,2.21.74-.84.17-1.29.28-2.77-1-.07-1.33.51-2.21.55Zm-108.8.28c-.28,1.48.47,1.92.83,2.77.52.06.61-.31,1.11-.28.33-.69.4-1.63.55-2.49-.57-.81-1.62-.34-2.49,0Zm56.2.28c-.17,1.83.94,2.38,2.21,2.77.59-.79,1.37-1.39,1.11-3.04-.98-.45-2.64-.37-3.32.28Zm-6.09,1.66c.43,1.22,1.35,1.96,2.77,2.21.7-1.39-.16-2.75-1.11-3.32-.87.06-1.13.71-1.66,1.11Zm-111.57,0c1.19-.27.49,1.36,1.38,1.38-.11-.67.51-.6.28-1.38-.82.07-1.37-1.09-1.66,0Zm-.83.28c.32,1.09.32-1.09,0,0h0Zm137.87,0c.53,1.18.34,1.56.55,2.77,1,.25,3.85.23,3.04-2.21-.26-.29-1.02-.09-.83-.83-1.23-.22-1.66.37-2.77.28Zm-139.81,1.66c1.13.29,1.48-1.64.28-1.38-.23.32-.36.74-.28,1.38Zm179.67,7.46c-.85-.97-2.26-2.11-3.32-3.04-2.21-1.95-4.18-3.37-5.81-5.53-2.56-.47-4.23.47-5.54,1.93,1.17-.06.78,1.44,1.38,1.94.62.22,1.08.58,1.94.55,1.06,2.63,3.36,4.02,4.71,6.36,2.24.62,3.27,2.44,4.71,3.87,1.38,3.14,3.93,5.1,5.81,7.74-.23.32-.37.74-.28,1.38,1.97,1.53,2.25,4.76,4.15,6.36.63,2.23,1.26,4.46,2.49,6.08-.36,3.87,2.47,6.92,2.21,11.61.99,1.38,1.84,2.92,1.94,4.42.18,2.74-1.31,4.32-3.04,5.53-.29,2.13.42,3.26.83,4.7.45.38,1.43.23,1.66.83-.04.51-.94.17-1.11.55.69,3.44-.7,6.05-1.94,8.85-1.48-.14-.74-1.43-1.11-2.21-.91-.01-1.38-.47-2.49-.28-1.03,1.78-.97,4.45.83,5.25,1.85.29,1.45-1.56,1.66-2.21.4.15,1.43-.32,1.38.28-.88,1.61-.93,4.05-2.49,4.98-.96,2.73-1.58,5.8-3.87,7.19-1.18,3.06-2.62,5.86-6.37,6.36-1.42,1.44-3.13,2.59-4.98,3.59-2.03-.68-4.2-.05-6.37.55.2.85-.48.81-.28,1.66,3.26,1.25,6.77,1.43,10.52,1.66-.04-1.94,1.22-1,2.77-1.11.06-2.26,2.31-3.12,2.49-4.42,2.05.02,2.7-1.36,3.87-2.21.43.33,1.08.88,1.66.28.77-.76-.25-1.16-.28-1.94,1.72-.31,1.14-2.92,3.32-2.77-.52-2.12.99-4.26,1.94-5.81.36-2.86,1.44-5.01,1.11-8.57,2.25-5.23,2.45-11.61,2.77-18.25.13-.87-.74-.73-.83-1.38.48-.26.61-.86.55-1.66.33-5.41-.7-11.08-1.94-15.76-1.14-1.07-1.87-2.55-1.94-4.7-.75.19-.54-.57-.83-.83.36-1.47-.8-1.41-.55-2.76-1.08-.03-1.1-1.12-1.66-1.66-.59-3.33-1.4-5.39-1.94-8.29,1.62-.96,2.09-3.08,3.04-4.7,1.98-1.91,4.93-.27,7.47-.83.59-3.15-2.77-4.56-3.88-6.91-1.58.38-1.76-.63-2.77-.83-2.37,1.23-4.2,2.99-5.81,4.98.02,1.59.06,3.19-.28,4.42-.1,1.08.76,2.01-.55,2.21-2.57-1.89-3.03-5.22-4.98-7.47Zm-2.77-7.19c.72.48.97,1.43,1.94,1.66.07-.39.61-.32.83-.55.43-1.83-2.66-3.9-2.77-1.11Zm-133.99-.28h.83c.01-.48-.21-.71-.55-.83.01.38-.13.61-.28.83Zm89.15-.28c.76,1.27.46,3.59,2.77,3.32.27-2.41-.94-4.62-2.77-3.32Zm-63.95,3.04c2.09-.21,2.99-.77,2.77-2.76-1.45.81-1.74-.97-3.6-.55.04,1.34.2,2.56.83,3.32Zm120.15,0c1.52.13,1.93-.84,2.21-1.94-.36-.66-1.24-.79-1.94-1.11-.14.97-.41,1.8-.28,3.04Zm-42.36-2.49c-.21.06-.55,0-.55.28.21-.06.54,0,.55-.28Zm-72.26.55c.18,1.29.92,2.03,2.21,2.21.34-.78.34-1.71,0-2.49-1.04-.21-1.32.34-2.21.28Zm31.01.83c.65.46.71,1.5,1.11,2.21.78.23.72-.39,1.38-.28.47-2.18-1.67-4.23-2.49-1.94Zm5.26.83c1.43.42,3.71,1.98,4.98.83-.77-1.63-2.28-2.52-4.43-2.77-.23.6-.72.94-.55,1.94Zm8.31,2.21c.96-.22,1.06.41,1.94.28,1.39-.92.44-3.98-1.11-4.42-1.98.23-1.82,3.1-.83,4.15Zm8.03-1.38c1.19.08,2.37,1.41,2.77,0-1.11.28-.8-1.06-.83-2.49-.49-.17-1.15.81-1.38,0-.02-.17-.04-.33-.28-.28-.29.73-.33,1.7-.28,2.77Zm-83.88-1.94c.28,0,.33.22.55.28-.03-.43.04-.96-.55-.83v.55Zm152.27.28c.45-.73,1.91.66,1.94-.83-.9-.14-2.91.02-1.94.83Zm-196.84.28c-.67.11-.6-.5-1.39-.28-.27,1.02,1.36,1.1,1.39.28Zm185.76.28c.64-.08.31.8.83.83-.15-.4.32-1.43-.28-1.38,0,.37-.49.25-.55.55Zm-184.38,1.38c.69.33,1.03,1,.83,2.21,1.19-.17,2.43.59,3.6-.55.06-.52-.31-.61-.28-1.11.59-.43,1.23-.8,1.94-1.11.06-.52-.31-.61-.28-1.11-1.19-.18-.87,1.16-1.94,1.11-.72-1.84-3.52-.97-3.88.55Zm183.27.55c-.08.73.38.91,1.11.83.08-.72-.1-1.19-.83-1.11-.02.17-.04.33-.28.28Zm-15.78,4.7c.71-1.01.49-2.22.28-3.59-4.6-1.95-4.92,4.38-.28,3.59Zm-8.03-1.11c-.66.69-.88,2.97,0,3.59,1-.1,1.33-.42,2.21,0-.01-.84.58-1.08.83-1.66-1.4.11-.73-1.85-1.66-2.21.05.6-.98.13-1.38.28Zm-1.94.55c.05-.6-.98-.13-1.38-.28-.63,1.09,1.7,1.22,1.38.28Zm-75.03,1.38h.55c.31-.4.3-.67-.28-.83-.01.35-.35.38-.28.83Zm-13.57,1.11c-.45-.38-.34-1.32-1.38-1.11-.53,1.52,2.6,1.59,1.94,4.15,1.98.23,2.81,1.61,3.32,3.32,1.16.14,1.88-.15,2.49-.55v-3.32c-2.39-.66-4.22-1.87-5.26-3.87-.41.41-.5,1.16-1.11,1.38Zm73.64,1.11c.73-.86-.32-1.73-.55-2.49h-1.11c-.86,1.27.52,3.16,1.66,2.49Zm-65.89.83c1.73.29,2.3.05,2.77-1.38-.53-.58-.75-1.46-1.94-1.38-.36.83-.89,1.5-.83,2.77Zm91.91-2.21c-.02,1.4,1.3,1.47,1.38,2.76h1.66c.13-1.52-.19-2.57-.83-3.32-1.2-.28-1.54.31-2.21.55Zm-166.39,1.11c.81.41.81-1.24,0-.83v.83Zm92.19,3.59c1.29,0,1.67-.91,1.94-1.94-1-.42-.13-1.69-1.11-2.49-3.43-.27-1.08,2.9-.83,4.42Zm8.31,0c-.66-.63-.9-1.68-.83-3.04-.78.51-2.59,0-3.32.55.04,1.43,1.09,1.86,1.38,3.04,1.08-.18,2.36-.46,2.77-.55Zm30.18-.28c.65,1.92,3.59,1.46,4.98.55.34-3.82-4.82-4.29-4.98-.55Zm-132.89-.28c-.15-1.19-.08-1.55-.28-2.21h-1.94c-.29,1.77.45,2.5,2.21,2.21Zm156.42-1.11c-.18,1.56.06,2.7,1.38,2.77.75-.17.69-1.16,1.66-1.11-.44-1.13-.43-1.46-.55-2.49-1.19-.08-1.83.38-2.49.83Zm-50.39,0c.2,1.02-.47,1.19-.28,2.21.84,1.13,2.71.68,3.6-.28,1.16.32,1.87,1.08,3.05,1.38,0-.92.9-.94.83-1.94-.7-2.67-4.99-1.47-7.2-1.38Zm-60.91,2.49c.96-.22,1.06.41,1.94.28.23-1.53-.95-3.09-2.21-2.21.95.15.42,1.33.28,1.94Zm127.35,38.15c.6-.97,1.04-2.09,1.66-3.04-.91-3.77.52-7.09,3.04-7.46,4.21-.62,7.52,3.88,9.41,6.08,1.04-.21,1.32.34,2.22.28-.35-2.17-.38-3.86,0-6.08-.99-1.13-1.77-2.47-3.05-3.32.16-1.26-1.23-.98-1.38-1.94-1.08-2.79-2.92-4.82-3.87-7.74-3.11-1.14-3.37-5.12-5.26-7.47-2.27.96-1.68-1.57-3.88-1.38-.71.49-.89,1.51-1.11,2.49,1.17.21,1.58,1.19,3.32.83,1.48,1.28,1.42,4.11,1.66,6.63-.39.07-.47.46-.83.55-1.37.36-1.36-.67-2.49-.55-1.76-2.66-2.67-6.18-5.54-7.74-.65-1.93-.94-4.22-1.94-5.81.42-1.38.74-4.45-1.38-4.15-2.23,4.93-2.05,11.17,0,15.76,1.23.71,1.89,1.98,2.49,3.32v1.94c1.91,1.68,5.68,1.52,6.92,3.87-.65,2.52-4.79,2.19-6.09.55-1.11,1.77.7,2.72,1.11,3.87-.62,4.11.6,5.47,1.94,8.02.99.3,2.25.34,3.05.83.32.73-.53,1.63,0,1.66Zm-103.54-36.77c.56-.76.31-2.56-.55-2.77-.09,1.24-.49,2.18.55,2.77Zm70.6-1.94c.43,1.04,1.11,1.84,2.77,1.66.38-.36.27-1.2.28-1.94-.95-.42-2.61-1.04-3.05.28Zm-49.28.55c.32,1.35,2.94,3.35,3.6,1.11-.38-.45-.98-.68-.83-1.66-.99.16-1.34-.32-1.94-.55-.08.56-.75.54-.83,1.11Zm83.33,1.11c.83.44,1.89.93,2.77.55,1.45-2.1-2.71-4.09-2.77-.55Zm-88.04-1.38c.06.87-.19,2.03.28,2.49.52-.06.61.31,1.11.28.92-.18,1.5-.71,1.38-1.94-.86-.65-1.54-1.22-2.77-.83Zm82.22.83c-.15.9.37,2.55,2.21,2.49.67-2.83-1.85-4.71-2.21-2.49Zm27.41-.55h.55v-.55h-.55v.55Zm-194.07,2.21c.36.47.57,1.09,1.38,1.11.09-.91.64-2.26,0-3.04h-.83c.33,1.16-.45,1.21-.55,1.93Zm100.5.28v-1.66c-.53-.12-.7-.6-1.38-.55.3.9.49,1.9,1.38,2.21Zm-104.92,1.66c1.8-.23,3.3-.76,3.04-3.04-.96.22-1.17-.31-1.66-.55.11,1.77-1.41,1.91-1.38,3.59Zm99.39-.28c.78.14,1.18.67,1.94.83.25-.49.62-.86,1.11-1.11-.22-1.34-.68-2.46-2.21-2.49-.41.78-.58,1.82-.83,2.77Zm20.21-1.11c.36.38,1.2.27,1.94.28.06-.21,0-.54.28-.55-.23-.79-.45-1.58-1.66-1.38.3,1.03-.69.79-.55,1.66Zm-8.3.83c.46.55.74,1.28,1.66,1.38,1.26-.94.57-3.07-.83-3.59-.14.87-.82,1.21-.83,2.21Zm21.59.28c.78.42,1.09,1.31,2.49,1.11.17-.66.4-1.26.28-2.21-.98-1.27-2.98-.95-2.77,1.11Zm25.47-1.38c.36,1.48,1.28,2.41,2.77,2.76.79-.31,1.03-1.19,1.11-2.21-1.45.25-1.04-1.36-2.49-1.11-.53.12-.7.6-1.38.55Zm-109.36,1.66c.98.78,2.14-.12,1.94-1.38-.88-.68-2.04.21-1.94,1.38Zm89.98,1.11c.69.23,1.09.76,1.94.83.61-.87,1.75-1.2,1.66-2.77-.22-.06-.32-.23-.28-.55-1.81-.89-3.75.25-3.32,2.49Zm7.75,1.11c1.15.32,1.08-.58,1.94-.55.12-1.42-1.5-2.23-.83-3.32-1.64.52-2.53,2.4-1.11,3.87Zm-37.93,8.57c-5.1-.43-7.33-3.74-11.35-5.25-1.68-2.1-2.51-5.05-4.43-6.91h-.83c-.83.55-.5,2.27-.55,3.59.65,1.19,1.57,2.11,1.66,3.87,1.28,1.12,2.57,2.23,3.6,3.59,1.21.35,2.8.33,2.77,1.93-.74,1.93-3.4,1.95-4.43,3.59-.12,1.32.85,1.54,1.11,2.49,2.2-.02,3.24-1.19,4.98-1.66,4.35.29,11.79,1.73,11.9,5.53.03,1.1-.58,1.69-1.38,2.49-3.79.74-8.51,1.36-11.9,1.66-.06.21,0,.55-.28.55-.26,2.66,2.94,1.86,3.6,3.59,1.63-.06,2.55.59,3.88.83-.68,2.48-2.81,4.58-1.94,7.74-1.41.69-3.88,3.44-1.38,4.7,2.34-2,4.22-4.45,7.2-5.81.45-.85.67-1.92,1.94-1.94,1.13.88,1.84,2.11,1.38,3.87-.56.83-2.24.53-2.21,1.94.41.32.33,1.15,1.11,1.11,1.38.18.78-1.62,1.66-1.94.99.65,3.69.82,4.98.28.15-2.08-1.03-2.84-1.38-4.42-.19-2.4.17-4.25.55-6.08.84-.36,1.29-1.11,2.77-.83,1.91,2.52,4.52,4.34,6.92,6.36.46,1.11.6,2.54,1.66,3.04,2.14-.25,1.35-3.45,2.77-4.42,2.17-.24,3.1.77,3.6,2.21,2.88.96,6.63.87,7.75-1.94-3.32-.46-6.55-1.01-6.92-4.42,2.71-2.09,6.79-2.8,7.2-7.19-1.81-1.44-2.99.56-4.15,1.38-4.34,1.13-8.66-1.12-11.63-3.04-.3-1.6,1.31-2.42.55-3.59-1.78-.02-2.07,1.63-3.6,1.94-1.28.26-2.73-.73-4.71-.28-.77.62-.67,2.1-2.49,1.66-.79-4.07,3.72-5.09,4.15-8.85,2.77-2.47,6-4.07,9.97-5.25.65.09.51.96,1.38.83.95-.52,2.83-.12,3.87-.55,3.24,1,7.49.99,9.14,3.59,1.75-.64,2.91,1.7,4.98,1.66.75,3.08,4.18,5.56,4.98,9.4.5,2.39.58,5.19.55,7.47-.05,4.86-1.87,7.42-3.04,11.06-2.89.81-2.9,4.48-6.09,4.98-1.41,4.12-5.72,5.34-8.86,7.74-.85-.2-1.01.28-1.66.28-1.93-1.04-4,.44-6.37.55-.51-.87-1.11-1.65-1.38-2.77-1.18.57.29,2.68,0,3.04-1.98,1.25-6.86,1.14-8.58-.28-.89.59-2.1.85-3.04,1.38-4.49-1.05-9.85-1.23-13.57-3.04-3.44-.07-5.32-1.69-7.48-3.04-3.19.64-4.48-1.16-3.6-4.15-3.55-1.25-4.75-4.84-7.75-6.64.2-1.22-.9-1.13-1.11-1.94-.7-.41-.44-1.77-1.38-1.94-1.66-.27-2.22.54-2.77,1.38.03.55.58,1.91.55,3.32,1.47.84,2.3,2.32,3.05,3.87,3.5,3.14,7.02,6.26,10.52,9.4,1.27-.26,1.34.69,2.49.55,1.43,1.77,4.29,3.38,7.2,2.77.55.46,1.03,1,1.94,1.11,2.53-.84,4.67.78,6.65,1.38,2.52-.56,6.86-.63,9.41.28.92-.09,1.55-.47,1.94-1.11-.32.87.44.67.55,1.11,5.65-.29,10.07-2.86,15.23-2.76,1.13-1.87,3.33-1.91,5.26-2.77.98-.43,1.79-1.2,2.77-1.66,3.02-1.4,6.75-1.78,9.41-3.32.71-.41,1-1.03,1.66-1.38,2.71-1.44,8.3,1.42,9.97-2.21-.77-2.46-4.06-2.4-5.81-3.87-4.71-.36-4.95,5.18-9.13,4.42,1.05-2.64,3.59-3.78,4.71-6.36v-2.21c2.47-2.73,3.15-7.22,1.11-10.51.27-1.11.34-2.43.28-3.87-1.38-2.58-2.28-5.65-3.6-8.29-1.17-.4-2.22-.91-2.77-1.94-.23-1.89-1.96-2.29-2.21-4.15-2.08.33-1.8-1.71-4.15-1.11-1.65-2.13-4.89-2.68-8.03-3.32-1.11-.27-.83.83-1.94.55-.39-.07-.32-.61-.55-.83-.94-.11-.44,1.22-1.66.83-1.28.17-1.59-.62-2.77-.55-2.23.54-3.79,1.75-6.65,1.66-1.58,1.46-3.56,2.52-5.81,3.32-1.61,2.17-1.96,5.6-3.6,7.74-.61-.41-1.43-.59-1.38-1.66,1.29-1.94,1.4-5.05,1.66-8.02-.98-.12-1.28-.93-2.21-1.11-1.02.46-1.94,1.01-3.32,1.11-1.77-.82-3.13-2.04-4.15-3.59.04-1.15.1-2.31-.55-2.77h-1.66c-.3,2.37-1.07,4.28-1.38,6.64,2.23.72,4.47,1.44,5.81,3.04-.25.49-.62.86-1.11,1.11Zm-34.61-9.68c.65-.09,1.14-.33,1.66-.55v-1.66h-1.11c-.7.23-.58,1.26-.55,2.21Zm44.57-1.11c.16.57-.34,1.82.28,1.94.49-.71,1.19-1.21,1.38-2.21-.68-.04-1.33-.04-1.66.28Zm33.5,1.94c.68.79,1.76,1.2,2.21,2.21-.29-1.58,1.27-1.31,1.38-2.49-.01-2.55-3.85-2.42-3.6.28Zm45.68,3.32c.23-1.33,1.4-1.61,2.21-1.66-.1-1.1.25-2.65-.28-3.32-1.19.75-1.17-.44-2.49-.28-1.23,1.7-.11,3.85.55,5.25Zm-111.29-4.7v1.38c1.1-.27.83.83,1.94.55.12-.95-.11-1.55-.28-2.21-.68-.04-1.33-.04-1.66.28Zm-83.05,2.49c0,.73-.1,1.58.28,1.94,1.25.02,2.82-1.41,3.32.28.7-1.14,1.29-2.4,1.38-4.15-.61-.25-1.19.04-2.21-.28-.12,1.15-.54,2.49-2.77,2.21Zm179.4-1.94c-6.57-1.52.2,6.28,0,0h0Zm-65.61,3.04c.26-.78.17-1.28,0-2.49-.78.23-.72-.39-1.38-.28-.2,1.58.73,2.04,1.38,2.77Zm5.81-.83c-.16-.76-.29-1.55-1.38-1.38.16.76.29,1.55,1.38,1.38Zm-3.6-1.11c-.25-.21-.79.17-.83.28-.39,1.04,1.38.2.83-.28Zm31.01,1.11h.83c-.06-.49.28-1.38-.55-1.11-.09.37-.39.53-.28,1.11Zm-149.78,1.38c.86.36.79-.07,1.94,0v-1.38c-.65-.27-1.36-.48-2.21-.55-.22.96.41,1.06.28,1.93Zm113.23-1.11c.32,1.09.32-1.09,0,0h0Zm46.79,1.94c0-.65.48-.81.28-1.66h-2.21c.12,1.08.52,1.87,1.94,1.66Zm-91.08-.55c-.01,2.23,1.21,3.21,3.6,3.04,0-1.2.09-2.49-.28-3.32-1.2-.03-2.07.77-3.32.28Zm80.56.83c.2-.2.69-1.35-.28-1.11.05.41-.1,1.02.28,1.11Zm-65.06.83c1.3,1.46,2.82,2.71,4.43,3.87.84.2,1.01-.28,1.66-.28-.2-.84.48-.81.28-1.66-1.56-1.67-3.73-2.72-6.09-3.59-.32.33-.31.98-.28,1.66Zm68.66-1.11c-.22.06-.55,0-.55.28.21-.06.55,0,.55-.28Zm-62.85,1.11h.55v-.55h-.55v.55Zm-83.88,4.98c1.08-.39,2.11-.84,3.32-1.11.14-1.9-.64-2.86-1.38-3.87-1.11.19-1.58-.27-2.49-.28-1.25,2.1,1.27,3.66.55,5.25Zm178.01-3.32c.23-.32.37-.74.28-1.38-.33-.32-.98-.31-1.66-.28-.2,1.21.59,1.43,1.38,1.66Zm-185.49-.83c.63.08,1.04-.07,1.11-.55-.49.06-1.39-.28-1.11.55Zm47.34.55c.99.43.17-.94.83-.83.39.02,1.06-.06.55-.28-.9-.07-1.33.33-1.38,1.11Zm16.89,1.94c1.8-.32,3.21-1.04,4.43-1.94-1.55-1.92-5.5-.79-4.43,1.94Zm92.47-.55c.84.01,1.41-.25,1.66-.83-.41-.05-.25-.67-.28-1.11-1.04.3-.79-.69-1.66-.55.06.86-.19,2.03.28,2.49Zm-151.71,1.11c.8-2.97-2.51-4.34-3.6-2.21-.22,1.88.59,2.73,1.11,3.87,1.37-.1,3.37.42,3.6-.83-.53-.12-1.19-.1-1.11-.83Zm197.67-.55c.03-1.32-.85-1.73-1.66-2.21-1.11.66.12,3.42,1.66,2.21Zm-109.63-1.11h.55v-.55h-.55v.55Zm-11.35,1.93c.71.67,1.58,1.18,2.21,1.93.91-.01,1.06-.79,2.21-.55-.17-2.22-1.74-3.06-3.6-3.59.19,1.21-.8,1.23-.83,2.21Zm54.26-1.66c.63.08,1.04-.07,1.11-.55-.52.04-.93.18-1.11.55Zm24.64.55c-.03,1.59.43,2.71,2.21,2.49.93-.7.67-3.14-.55-3.32-.66.17-.46,1.2-1.66.83Zm-91.08,1.93c.84.45,1.37,1.22,2.77,1.11.03-1.34-.3-2.95-2.21-3.04-.31.52-.35,1.31-.55,1.93Zm23.26-1.66c.07,1.38.81,2.7.28,3.87.79-.67,2.11-.39,2.77-.55.47-2.46-1.01-4.27-3.04-3.32Zm41.8,0c-.1,1.36.46,2.57,2.77,2.21.57-1.03-.02-1.81-.55-2.49-1.04-.21-1.32.34-2.21.28Zm9.41,1.11c-.66-.17-1.26-.4-2.22-.28-1.51,2.03,2.8,2.91,2.22.28Zm-12.46,2.21c.23-.32.37-.74.28-1.38-.33-.32-.98-.31-1.66-.28-.45.91.2,1.63,1.38,1.66Zm14.67.28c.21-.37.62-1.93.28-1.94-.17.64-1.57,1.47-.28,1.94Zm-136.21,1.11c.77.61.96,1.81,1.94,2.21,1.33-.15,1.47-1.48,1.38-3.04-.78-.51-1.78-.8-2.49-1.38-.34.67-.68,1.34-.83,2.21Zm152.82-1.66c-.8.8.8-.8,0,0h0Zm-74.75,2.77c.22.06.55,0,.55.28,1.63.13,1.45-3.13-.28-2.76-.46.46-.22,1.62-.28,2.49Zm38.21,0c.78.24,1.14.89,2.21.83.83-1.12.18-1.91-.28-3.04-1.78-.39-2.14.63-1.94,2.21Zm11.07,1.11c1.03.56,1.62-.21,2.49-.55.08-1.09-.11-1.92-.83-2.21-.91.03-2.04.71-1.66,2.77Zm5.81.28c1.39.19,1.83-.57,1.66-1.93-.65-.09-1.14-.33-1.66-.55-.42.45-.42,2.04,0,2.49Zm22.15,1.66c1.05.12,1.3-.55,1.94-.83.1-5.97-5.36-.71-1.94.83Zm-108.52-1.38c.45-.56.9-1.13,1.11-1.94-.69-.23-1.48-.36-2.49-.28-.35,1.55.5,1.9,1.38,2.21Zm8.31.28c-.2.84.28,1.01.28,1.66-.53.48-1.7.33-1.66,1.38.79,1.06,1.67,2.02,2.49,3.04,1.38-.54,1.78.31,3.32.28.8-1.26,1.08.1,2.21-.83.06-1.53-1.29-1.66-1.38-3.04.25-.86.85-1.36,1.11-2.21-1.15-.79-2.25-1.63-3.05-2.77-1.24.69-1.27,2.6-3.32,2.49Zm82.78-2.21c-.21,1.32.58,1.63,1.66,1.66v-1.93c-.68-.04-1.33-.04-1.66.28Zm-143.68,2.49c2.01.2,2.08,3.7,1.38,4.98,2.23,1.44-.29,3.67-.55,5.53-.12.85.31,1.87.28,2.76-.02.53-.5,1.13-.55,1.66-.23,2.45,1.22,4.69,1.11,7.19,1.82,1.72,1.57,3.79,3.32,5.53,2.51-.3,3.49.94,4.43,2.21,2.49.1,3.67,1.49,6.09,1.66,1.13-2.14.27-4.56,1.66-6.36-.61-2.98-2.52-4.67-2.77-8.02-1.86-.26-1.62-2.62-3.6-2.77-2.05.25-1.21,3.4-3.04,3.87h-1.11c-.89-3.06-1.38-7.27-.28-10.23-1.1-.28-2.07-.7-2.49-1.66,1.11-2.44-2.04-4.07-.55-6.91-1.5.03-.62-2.33-2.49-1.94h-.55c-.11,1.31.58,1.82-.28,2.49Zm80.29-.28c.22-.25.3-.62.28-1.11-.69-.42-1.13-1.09-2.21-1.11-.75.79-.56,2.17,0,3.04.65-.09,1.14-.33,1.66-.55v.28h.28c.86.14,1.04-.95.28-.28v-.28h-.28Zm104.37-2.21c-.21.06-.55,0-.55.28.21-.06.55,0,.55-.28Zm-98.83,4.7c.42.86,1.88.46,2.49,0-2.38.07-1.72-2.89-3.6-3.32-.21.62-1.55.11-2.21.28-.12,1.03-.16,1.54-.28,3.04.88.38,2.45.38,3.32,0l.14.14.14-.14Zm-86.93,0c.7-.78-.25-1.59-.28-2.49h-1.11c-.25,1.54.41,2.17,1.38,2.49Zm133.44,1.11c1.25-.26,1.16-1.59.83-2.77-2.84-.7-2.41,2.29-.83,2.77Zm4.71,0c.66.17,1.26.4,2.21.28.6-.8.23-2.48-.28-3.04-2.55-.84-3.09,1.51-1.94,2.77Zm-127.9.83c.52-.4,1.23-.62,1.11-1.66-.31-.79-1.19-1.03-2.21-1.11-.44.78.08,2.57,1.11,2.76Zm80.01-1.94c.8.77.46,1.43,1.11,1.94-.05-.6.98-.12,1.38-.28.2-.82.82-1.2.55-2.49-.87.43-2.55.04-3.05.83Zm-35.99,1.94c1.44-.14,1.16,1.42,2.49,1.38.28-1.43.09-2.24-.28-3.59-1.44.04-1.55,1.4-2.21,2.21Zm94.41-1.66c.28,1.19.8,2.15,2.49,1.94.25-.49.77-.7.55-1.66-.97-.61-1.55-.63-3.04-.28Zm-3.05,3.04v-1.11c-.36-.38-1.2-.27-1.94-.28-.36,1.42,1.04,2.08,1.94,1.38Zm-60.35-.28c-3.16,0-6.62-.8-9.41.28-1.53.96-2.76,2.22-4.71,2.77-1.16,3.73-3.78,5.99-3.88,10.78,4.98.88,6.02-4.47,10.8-4.7.84-.73,1.7-1.44,2.77-1.94,2.6-.44,4.13-1.95,5.81-3.32,1-.11,1.86-.36,2.77-.55.17-1.11,1.59-.99,1.38-2.49-1.21-1.71-3.69-.83-5.54-.83Zm77.24,1.38c.66.35.82,1.21,1.94,1.11,1.51-2.3-1.84-3.96-1.94-1.11Zm-163.89,0c1.42.03.37.91.55,1.94,1.25-.04,1.11-1.47,1.11-2.76-.85.19-.53.19-1.38,0,.01.38-.13.61-.28.83Zm10.8,1.11c.48.25,1.07.62.55,1.11,1.08.3,1.11-1.65.28-1.66,0,.46-.77.15-.83.55Zm142.3,2.49c.95-1.33.52-2.96-1.66-3.04-.74,1.31.03,3.21,1.66,3.04Zm-93.57-.55c1.2-.09.68,1.53,1.94,1.38-.41-.87-.21-1.33.83-1.38-.17-.93-.98-1.23-1.11-2.21h-1.38c-.43.4-.24,1.42-.28,2.21Zm87.48.28c.45.05.56-1.81-.28-1.38-.21.19-.72,1.65.28,1.38Zm-52.32,1.38c-.3-1.03.69-.79.55-1.66-.64-.37-.92-1.11-2.22-.83-.05,1.44,1.51,1.26,1.66,2.49Zm98.56-.55c.48.02.71-.21.83-.55-.43.03-.96-.04-.83.55Zm-181.61,1.94c-.27-1.1.83-.83.55-1.94-.78.23-.72-.39-1.39-.28.53,1.04.04,1.84.83,2.21Zm54.26-.83h1.11c-.04-.32.05-.78-.28-.83.11.66-1.26-.15-.83.83Zm96.34.55c.8.4.69,1.71,1.38,2.21.84-.41,1.08.09,1.66-.28,1.33-2.64-2.04-4.37-3.05-1.94Zm19.93.83c.64.56,2.12.28,2.49-.28.11-.67-.51-.6-.28-1.38-1.14-.86-2.63-.44-2.21,1.66Zm-91.36,1.38c.67-.11.6.5,1.38.28.52-.03.19-.91.83-.83.05-1.71-1.02-2.3-2.21-2.77-.43.63-.43,2.68,0,3.32Zm52.6-.28c.79-.04.51-1.15.55-1.94-.48.02-.86-.06-1.11-.28-.38.46-.64,2.48.55,2.21Zm-47.06,0c1.5.99,3.28,3.77,4.43.83-.32-1.62-3.25-2.09-3.88-2.49.47.13-.77.86-.55,1.66Zm53.43.28c.18,1.3,1.53,1.42,2.77,1.66.57-.72.87-1.71.83-3.04-1.42-.59-3.41-.09-3.6,1.38Zm-130.95-1.38c-1.86-.02-1.36,1.09-1.66,2.21.82.1.71,1.14,1.94.83.55-1.04.18-2.24-.28-3.04Zm43.46.28c-.22.06-.55,0-.55.28.22-.06.55,0,.55-.28Zm104.92,2.49c.67.63,2.43,1.3,3.32.83.7-3.22-3.68-4.7-3.32-.83Zm12.46-1.66c-.67.93.93-.67,0,0h0Zm-120.15.83c.37,0,.25.48.55.55.42-.33,2.32-.61,1.38-1.38-.21.71-2.05-.2-1.94.83Zm2.77.83c.18,1.2,1.23,1.54,1.11,3.04,1.54-.6,1.89-2.52,1.38-4.42-.4.15-1.43-.32-1.38.28.5.17-.48,1.16-1.11,1.11Zm23.53,1.11c.77.61.89,1.87,2.49,1.66.51-.5,1.01-1.01.83-2.21-.71-.77-1.23-1.72-2.77-1.66-.07.85-.28,1.56-.55,2.21Zm6.92-.55c-.14.87.5.98.28,1.94,2,.54,2.32-2.85,1.11-3.04-.07.76-.82.84-1.38,1.11Zm83.05,1.66c-.17-.93-.94-1.27-1.94-1.38-.79.99.44,1.81.83,2.49,1.04-.53,1.17-.53,2.21,0,.37-1.23.96-3.22-.28-3.87-1.16.65.26,2.23-.83,2.77Zm5.81,1.66c1.08-.81.28-2.29-.28-3.04-3.22-.76-1.95,3.67.28,3.04Zm-20.49-1.38h.55c0-.28.22-.33.28-.55-.35-.01-.38-.35-.83-.28v.83Zm2.49,2.76c1.38-.46,2.63-1.06,2.21-3.32-2.25-1.49-3.7,1.87-2.21,3.32Zm-43.46-1.38c.53.12.7.6,1.38.55.77-.15.78-1.07,1.11-1.66-.87-1.12-2.85-1.07-2.49,1.11Zm29.9.83c.33-.79.58-1.47.28-2.21-.92-.09-1.23-.8-2.49-.55.21,1.45.36,2.96,2.21,2.77Zm-73.09-.55c.13-.86-.59-.88-1.38-.83-.35,1.09.65.82,1.38.83Zm92.47,2.21c.89.06,1.17-.49,2.21-.28v-2.21c-2.17-1.16-3.64.75-2.21,2.49Zm-72.81-2.49c-.21,1.37.85,1.47.28,2.49,1.3.61,2.28-.63,1.94-2.49-.4-.41-1.81-.41-2.22,0Zm64.78,1.11h.55c.31-.4.3-.68-.28-.83-.02.35-.35.38-.28.83Zm-69.49,1.94c.42.96,1.39,1.38,2.49,1.66.82-1.65-.02-3.79-1.38-4.15-.6.6-1.21,1.19-1.11,2.49Zm46.79-1.94c-1.2.8-.48,1.84-.55,3.59.4.52,1.81.03,2.21.55,1.42-1.49.34-3.81-1.66-4.15Zm37.37,3.04c.85.2,1.01-.28,1.66-.28.56-3.73-3.84-2.17-1.66.28Zm-44.02-1.11c.36,1.11.87,2.08,1.66,2.76,1.13.12,1.77-.26,2.49-.55.16-1.54-.83-1.94-.83-3.32-1.75-.28-1.93,1.02-3.32,1.11Zm-8.86,1.11c1.21.26,1.99,1.31,3.04.28.16-1.08-.24-1.61-.55-2.21-1.9-.42-2.42.53-2.49,1.93Zm-45.13,1.11c.64-.09,1.06.04,1.38.28.95-.99.17-1.78,0-3.04-.93.33-2.22.61-2.77.55.88.31.71,1.69,1.38,2.21Zm-56.2-2.21c-.14,1.59,1.64,1.65,1.94.83-.19-.73-1.06-1.63-1.94-.83Zm50.66,2.21c.92-.18,1.5-.71,1.38-1.93-.52-.49-1.83-.2-2.77-.28-.16,1.36.36,2.04,1.38,2.21Zm72.26-1.38c.04.89.63,1.22,1.66,1.11.11-.67-.51-.6-.28-1.38-.64-.09-1.06.05-1.38.28Zm-146.73,1.11c.57-.16,1.82.34,1.94-.28-.52-.03-.19-.91-.83-.83.14.87-1.37.1-1.11,1.11Zm76.96-.55c-.67.93.93-.67,0,0h0Zm96.9,1.94c.85.45.87,0,1.94-.28.04-.68.04-1.33-.28-1.66-1.34-.14-1.67.73-1.66,1.94Zm-2.49-1.38c.32,1.09.32-1.09,0,0h0Zm-168.6.55c-.54,2.21,1.59,2.56,3.04,1.93.09-1.01-.31-1.54-.55-2.21-1.11-.19-1.58.26-2.49.28Zm104.37.28c.09.65.33,1.14.55,1.66.74,0,1.58.1,1.94-.28-.09-.65-.33-1.14-.55-1.66-.74,0-1.58-.1-1.94.28Zm13.57,2.77c1.03.19.72.13,1.94.28.32-1.06.66-2.11,1.11-3.04-2.12-1.17-4.32.46-3.04,2.77Zm-20.76.83c.06-.31.31-.43.55-.55-.21-1.54-.89-2.61-2.21-3.04-.73,1.13-.46,3.76,1.66,3.59Zm-76.96,4.98c.54.47,1.55.48,2.21.83,1.68-.99,3-2.35,3.6-4.42,1.08-.77,2.07-1.62,2.22-3.32-.46-.55-.74-1.28-1.66-1.38-.83,4.06-6.4,3.38-6.37,8.29Zm91.64-4.98h1.38c.64-.37.43-1.6.83-2.21-1.76-1.68-3.63.19-2.21,2.21Zm12.46.55c.3-1.13,1.09-3.17-.55-3.32-.63.81-1.69,3.44.55,3.32Zm3.88-1.38c.46.46,1.63.22,2.49.28-.17-.85-.59-1.44-.83-2.21h-1.38c-.22.59-.67,1.54-.28,1.93Zm41.25-1.11c.02-.17.04-.33.28-.28-.03-.34-.08-.65-.55-.55.04.33-.05.78.28.83Zm-92.19.83c-.64.06-1.94-.55-3.04-.83-1.71,2.76,3.26,3.89,3.04.83Zm59.8,1.66c1.19.37,1.96.1,2.77-.55.03-.86-.34-1.32-.55-1.93-1.64-.07-2.48.66-2.21,2.49Zm-35.44,2.21c1.05-.06,1.97-.25,2.77-.55-.35-1.4-.99-2.52-2.77-2.49-.11,1.5-.91,1.84,0,3.04Zm-101.88.28c.53.12.69.6,1.38.55.49-.25.86-.62,1.11-1.11-.73-.93-1.76-1.56-2.49-2.49.37,1.2.13,1.76,0,3.04Zm6.92,0c.65,0,.81.48,1.66.28,0-1.2.09-2.49-.28-3.32h-1.38v3.04Zm74.75-2.77c-1.87-.42-1.77,2.81-.28,2.77,1.21-.5.67-1.8.28-2.77Zm49.56,4.42c.69-.24,2.15-.54,2.77,0v-2.49c-1.9-2.03-4.84.44-2.77,2.49Zm-54.54-3.04c-.84.93,1.02.84,0,0h0Zm31.01,1.38c.15,1.23,2.19,1.74,3.32,1.11-.07-1.23-.3-2.28-1.38-2.49-.5.61-2.07.14-1.94,1.38Zm7.75,1.66c.9,1.21,3.53,1.02,4.15-.28-1.38.09-.89-1.69-1.66-2.21-1.76-.1-2.59.73-2.49,2.49Zm-30.18-.55c-.36.38-1.2.27-1.94.28v1.11c.88.85,1.16-.47,2.21-.28-.16,1.08.24,1.61.55,2.21,1.4.01,1.82-.95,1.66-2.49-1.71.05-1.87-1.45-2.49-2.49-.6.58.14.79,0,1.66Zm37.65.83c1.12.11,2.65.88,3.6.28.38-2.94-3.91-3.79-3.6-.28Zm32.67.28c.49.25.7.77,1.66.55.22-.19.62-1.54,0-1.66-.43.5-1.62.22-1.66,1.11Zm40.97,0h.55v-.55h-.55v.55Zm-176.35,18.25c.43-2.9-.92-6.83,1.11-8.57v-1.94c.65-.09,1.04-.44,1.94-.28-1.05,3.46.28,6.4,1.66,8.29,2.26.97,4.22,2.24,5.81,3.87,1.87.03,4.37.72,6.09,0,.56.46,2.01,1.48,2.49,1.11.43-3.73,5.19-.79,7.75-1.66,1.03-.29.44,1.04,1.39.83-.13-.59.39-.53.83-.55,1.08,1.04,3.24,1.01,4.43,1.94,0-2.12-1.3-2.94-2.49-3.87-2.87.37-4.26-.72-5.81-1.66-1.12.18-1.4,1.18-2.77,1.11-.96-.79-2.61-.89-3.32-1.93.53-.12,1.19-.1,1.11-.83-1.03-.11-.72,1.12-1.94.83-1.34-1.25-5.09-.08-4.71-3.04.85-1.36,3.24-1.18,4.71-1.94-.75-1.83-2.02-3.14-3.6-4.15h-2.21c-1.55-1.86-5.1-1.72-8.58-1.66-.78.05-.35,1.31-1.38,1.11,0-.92-.9-.94-.83-1.94-2.26-1.15-4.72-2.11-7.2-3.04-2.68-.19-4.72.27-7.2.28-.82.56-1.44,1.32-2.49,1.66-.97-.33-3.22-.52-4.15,0-.43.4-.24,1.42-.28,2.21,1.16.41,1.92,1.21,2.77,1.94,2.04.36,4.55.25,5.82,1.38-.27,2.77-2.79,3.3-4.71,4.42-.26,2.59-1.32,5.44-3.05,7.74.58.87,1.57,1.13,2.49,1.11.48-.01.53-.61,1.38-.83.4-.1,1.01.17,1.38,0,.25-.11.26-.66.55-.83.46-.27,1.07-.07,1.38-.28,1.28-.85,2.05-2.58,2.77-3.04,1.18.08,1.37-.84,2.77-.55.52,1.04.85,2.29,1.38,3.32,1.66.37,2.06,1.99,3.87,2.21.8-.4,1.14-1.26,1.39-2.21l.14-.14-.14-.14c.37-.18.51-.59.55-1.11h-.83v.83l-.14-.14-.14.14Zm17.16-13.55c1.3-.36,2.28-1.04,1.94-3.04-1.4.2-1.35-1.04-2.77-.83-.47,1.77-.54,2.85.83,3.87Zm55.09-1.66c-.68.04-1.33.04-1.66-.28-.21,1.22,1.96,2.07,1.66.28Zm91.91,2.77c1,.2,1.34,1.06,2.77.83v-2.49c-1.77-.29-2.46.5-2.77,1.66Zm-39.04-.28c.08-.72-.1-1.19-.83-1.11-.08.72.1,1.19.83,1.11Zm-6.37,1.11c1.03.11,1.62-.22,1.66-1.11-.71-1.71-3.22-.22-1.66,1.11Zm-42.08-.83c-.12,1.13.28,1.74,1.38,1.66.35-.66,1.21-.82,1.11-1.94-.87.32-.67-.43-1.11-.55-.03.71-1.03.44-1.38.83Zm82.78,1.93c.87-.24,1.15-1.06,1.38-1.93-.66-.17-.45-1.21-1.66-.83-.27,1.09-.38,2.01.28,2.77Zm-137.32,0c.87.13,1.08-.39,1.66-.55.04-.68.04-1.33-.28-1.66-1.37-.04-1.96,1.1-1.38,2.21Zm70.32-1.11c0-.28-.49-.35-.55,0,.06.33.31.17.55,0Zm21.59,1.38c.78-.91-.07-1.98-1.38-1.66-.11,1.13.28,1.74,1.38,1.66Zm43.74-.28h.83v-.83h-.55c-.02.35-.36.38-.28.83Zm4.71,0c.71.15.97.37,1.38-.28-.35-.38-1.36-.43-1.38.28Zm16.33,1.94c.11-1.03-.22-1.62-1.11-1.66-.08,1-.07,1.91,1.11,1.66Zm-152.54.28c-.02-.9-.35-1.49-1.11-1.66-.07,1-.07,1.91,1.11,1.66Zm134.82.83c.5,1.07,1.71,1.43,3.05,1.66.45-.84,1.09-1.49.83-3.04-1.29-1.39-4.09-1.44-3.88,1.38Zm-132.88.83c.27-.37.74-.55,1.11-.83-.21-.99-.71-1.68-1.38-2.21-1.43.36-1.49,3,.28,3.04Zm125.96-2.49c-.5,1.39.54,2,1.66,2.49.96-.05,1.05-.98,1.94-1.11-.13-1.96-2.01-2.21-3.6-1.38Zm-172.48,1.94c1.15-.48,1.52,1.21,2.21.28-.78-.24-.59-1.44-1.11-1.93h-.83c-.32.33-.31.98-.28,1.66Zm43.46,1.66c.08-.72-.1-1.19-.83-1.11-.41.38-.14,1.32.83,1.11Zm124.86,1.93c.56-.73,1.74-.84,1.66-2.21-.84-.36-1.29-1.11-2.77-.83-.18,1.56.25,2.51,1.11,3.04Zm9.97-1.38h.83c.08-.72-.1-1.19-.83-1.11v1.11Zm-126.8,2.49h1.38c.86-1.2-.13-2.52-1.11-2.77-.32.68-.92,1.98-.28,2.77Zm140.91.28c.47.55,1.6.43,1.38,1.66,1.24-.15,1.9-.86,2.21-1.93-.43-1.41-1.22-2.47-2.77-2.77-.86,1.04-.47,1.76-.83,3.04Zm-.55-2.77c-.21.06-.54,0-.55.28.21-.06.54,0,.55-.28Zm-16.33,3.04c.78.05,1.15.51,1.94.55,1.03-1.3-.68-1.77-1.38-2.21-.22.52-.46,1.01-.55,1.66Zm-13.57,1.94h2.49c.41-.7.98-1.24,1.11-2.21-1.4.9-1.72-.09-3.32-.28-.33.83-.55,1.77-.28,2.49Zm-5.54,1.38c2.54-.01,1.22-4.06-1.11-3.32-.36,1.55-.22,2.81,1.11,3.32Zm11.91-1.11c.49.62,1.67.54,2.49.83,1.18-1.29-2.42-3.22-2.49-.83Zm-104.1,1.66c.5.42,1.71.98,2.21.55v-2.49c-1.37-.74-2.64.06-2.21,1.94Zm-6.09,0c.64-.09,1.19-.28,1.38-.83-.49-.25-.46-1.02-1.11-1.11-.38.36-.27,1.2-.28,1.94Zm-37.1.55c1.56.27,2.02-.56,1.94-1.94-1.44-1.08-2.99.47-1.94,1.94Zm124.86-1.94c.32,1.09.32-1.09,0,0h0Zm12.18,3.04c1.5.53,2.28,1.78,3.6,2.49,1.04-.07,1.78-.43,2.21-1.11-.79-2.07-2.05-3.67-4.98-3.59.19,1.21-.8,1.23-.83,2.21Zm34.61.83c1.06-.05,1.25.78,1.66,1.38.27-.37.74-.55,1.11-.83-.07-1.49.09-3.22-1.11-3.59-1.1.47-2.01,1.13-1.66,3.04Zm3.32-1.94c.32,1.09.32-1.09,0,0h0Zm-158.36,2.49c.6.23.94.72,1.94.55-.41.65-.58.51-.28,1.38,2.02,0,3.5-.56,3.32-2.77-.26-.29-1.02-.09-.83-.83-1.64.35-2.49-.2-3.32,0,1.03.78-.74,1.08-.83,1.66Zm106.03-1.38v2.76c2.25.23,2.82-4.8,0-2.76Zm-116.83,2.21c.95.12,1.55-.11,2.21-.28.06-.89-.49-1.17-.28-2.21-1.69-.21-2.19.76-1.94,2.49Zm10.8-2.21c-.31.03-.43-.4-.55,0,0,.28.48.35.55,0Zm151.71,1.66c0-.73.1-1.58-.28-1.93h-1.38c-.67,1.35.23,2.59,1.66,1.93Zm-122.09-1.11c-.89,4.05,4.56,4.35,3.6,0-.71-.44-2.89-.44-3.6,0Zm-58.69,2.49c.17-.66.4-1.26.28-2.21h-2.21c0,1.38.89,1.88,1.94,2.21Zm73.09-1.66c.28,0,.33.22.55.28-.03-.43.04-.96-.55-.83v.55Zm-60.35,0c-.28,1.29.46,1.57.83,2.21,1.05-.24,1.6-.99,1.66-2.21-.65-.21-1.91-.55-2.49,0Zm38.76,0c.16,1.13.81,1.77,1.94,1.93.38-.36.27-1.2.28-1.93-.63-.18-1.67-.55-2.21,0Zm16.06.55c.21,1.17-.51,3.27.55,3.59-.26-2.1,2-1.69,1.94-3.59-.34-1.31-1.81-.57-2.49,0Zm-63.4,1.11c.65,0,.81.48,1.66.28.38-.36.27-1.2.28-1.93-1.41-.21-2.29.11-1.94,1.66Zm178.57-.55h1.11c.08-.63-.07-1.04-.55-1.11-.12.43-.87.24-.55,1.11Zm-54.26-.28v.55c.38-.01.61.13.83.28v-1.11c-.38-.01-.61.13-.83.28Zm-10.52,1.66c1.1.09,1.5-.53,1.38-1.66-1.18.03-1.84.74-1.38,1.66Zm-60.35-.55c0-.28-.49-.35-.55,0,.31-.03.43.4.55,0Zm50.39.28c.33.32.98.31,1.66.28v-.83c-.49.25-1.38.1-1.66.55Zm74.75.28h.55v-.55h-.55v.55Zm-24.36.83c0-.28-.49-.35-.55,0,.06.33.31.17.55,0Z"/>
  <path class="cls-5" d="m197.95,53.7h-.28c-.21-.25-.3-.62-.28-1.11.43.07,1.33,1.03.55,1.38v-.28Z"/>
  <path class="cls-5" d="m225.91,35.45c-.79-.05-1.51-.03-1.38.83-1.23.12-.69-1.53-2.21-1.11.56-2.08-.45-2.67-1.94-3.32.14-.87.82-1.21.83-2.21,1.16.26,1.1.19,1.66-.55.32-1.58-1.39-1.43-.55-2.76-.84-.03-.78,1.44-1.66.55-.32-.33-.31-.98-.28-1.66.56-1.22,2.46.96,2.21-1.66.19-1.2-1.28-.74-2.21-.83.1-3.78-.24-7.13-1.11-9.95.62-.39,1.83-.21,1.94-1.11-.32-1.1-.76-1.46-.28-2.76-.39-.72-.94-1.28-1.38-1.94-1.8-.58-4.29-1.23-6.09-.28-5.68-.28-11.62-.4-18,0-4.68.29-9.77-.63-14.67-.55-3.45.05-6.54.64-10.24,0-2.27-.39-5.79-.4-8.58.28-.79.19-2.5-.06-3.32-.83-2.46.86-7.14-.5-9.13.83-.4-.16-.68-.43-.83-.83-1.09.94-3.64.42-5.54.55-1.15.32-1.08-.58-1.94-.55-1.01.1-1.65.56-2.49.83-5.92-.94-11.8.08-17.44,0-3.1-.04-6.09-.72-9.13-.83-3.57-.13-7.15.96-10.52.83-3.44-.13-6.91-1.98-9.97.28-3.29-.02-6.51-.12-10.8-.28-1.03.02-1.58-.44-1.94-1.11-1.89,2.31-9.15,1.66-12.46.83-1.2.97-3.61-.32-4.98.83-2.35-.64-6.15-.59-9.14-.55-1.2.28-1.27-.57-1.94-.83-.87.88-4.82,1.55-5.54,0-.42.5-1.02.83-1.66,1.11-1.06.23-1.07-.59-1.38-1.11-3.83,2.36-9.33.11-13.57.55-1.22.04.03-.68-.28-1.38-1.68-.29-1.67,1.09-2.49,1.66-1.69-.31-2.46.3-3.32.83-4.69-.04-8.14-.33-12.73-.83-2.94,3.8-.76,9.58-2.49,14.38-.36,1.19.79.87,1.11,1.38.21.94-1.12.35-.83,1.38-.56,5.12.73,9.31-.28,13.55.29,1.97.88,2.64,0,4.15.5,1.6,1.4,3.58,0,4.7,1.1,2.2-.44,5.01.28,7.74-.44,1.31-2.28,1.22-2.21,3.04.72.88.65-1.36,1.94-.83.02,4.7.89,7.82,0,11.61,1.04,4.73.81,10.18-.55,14.1.11.72.83.83.83,1.66-.46,6.02.33,11.97.28,17.69-.01,1.39-.16,2.96-.83,4.15,1.07,7.95-.12,17.03,0,24.61.39,1.4-1.27.76-1.11,1.93-.22,1.15.81,1.04,1.11,1.66-.47,2.37-.08,4.83-.55,7.46,1.14,2.08,1.01,6.12.28,8.57.15,1.05.42,1.98.83,2.76.29,1.21-.94.91-.83,1.94-.35,1.09.81.67.83,1.38-.54,3.29-.6,8.56,0,12.17,0,.53-.76,1.51-1.38,2.21.02,3.21,2.93,6.68.83,9.4,1.36,1.48,1.06,5.44.28,7.74.42,2.07.24,4.74.83,6.64.29,1.03-.69.79-.55,1.66.51,1.84.13,5.24,0,8.02-.05,1.15.58,2.47-.28,3.04,1.81,3.78-.13,9.64,1.38,13.55.56,1.38,2.21,1.67,3.32,2.49,4.58.32,9.44.23,14.12.28,1.29.01,2.59.57,3.88.55,2.81-.04,5.75-1.55,8.3,0,5.62-1.63,12.56.09,18.27-1.11,1.2-.28,1.23.61,1.66,1.11.61-.68,1.99-.6,2.77-1.11,9.9-.08,17.97.72,27.41.28.83-.28.49.62.55,1.11,3.81-1.87,10.92.26,14.39-1.38,1.46.8,4.33.7,5.81,0,4.63.26,8.04.62,12.46.55,1.01.18,1.06-.6,1.94-.55,9.45.6,18.36.17,27.41,1.11,3.03-1.35,6.31.17,8.58.55,2.03-.54,5.44-.59,6.37-1.38,5.5,1.55,10.54-.05,15.5.28.78.05,1.69.55,2.49.55,2.62,0,5.69-1.31,8.31,0,3.15-1.37,8.83-.22,12.18-1.38,4.69,1.34,10.93-.22,14.95-.28,1.35-2.7,1.61-8.02,1.11-11.61,1.33.05.25,2.52,1.66,2.49,1.31-1.07-.77-2.95-1.66-3.59.6-8.69.49-16.58.55-27.09.26-.48,0-1.48.83-1.38-.33-.96-.75-1.83-.55-3.32.59-.78,1.47-.46,2.49-.28-.22-1.34-1.87-1.26-2.49-2.21.53-3.37-1.35-10.05.83-13.27-2.4-8.04.27-17.57-1.38-26.54.32-5.53.94-12.02.28-17.69-.11-.94-.05-2.01,0-3.04.22-4.2.59-8.91.28-12.72-.14-1.66-.51-3.27.28-4.98-1.98-4.52.79-10.93-1.11-15.48.94-1.64.58-4.58,1.38-6.36-.24-.77-.66-1.37-.83-2.21.39-7.93-1.41-15.05.28-22.67-.23-1.67-.66-2.05-.28-3.87,1.67-1.1,4.67-2.76,5.54.28-.71.3-1.32-.84-1.66,0-.5,1.6,1.13,1.08,1.38,1.94.07,4.4-.35,11.29.28,15.21-.7,2.07.32,4.92.28,7.46-.02,1.17-.64,2.26-.55,3.32.09,1.09.75,2.01.83,3.04.23,2.75-.75,5.27-1.38,8.02.12.8.98.86.83,1.94-.79,3.49.41,7.67-.55,10.78.04.78.51,1.15.55,1.94-1.02,2.24.09,4.65,0,6.91-.04,1.05-.51,1.99-.55,3.04-.06,1.51.45,2.88.55,4.42.14,2.04.02,3.83.28,5.81.3,2.35.04,4.22-.83,6.36-.27,1.1.83.83.55,1.93-1.29,6.03.43,12.16-.83,18.25.86,2.47.25,5.64.55,8.57.1.95.58,1.86.55,2.77-.03,1.06-.76,2.26-.83,3.32-.05.68.44.91.55,1.66.17,1.16-.37,2.72-.28,3.87.08,1.1.57,2.16.55,3.32-.01.83-.44,1.4-.55,2.21-.65,4.53-.18,10.11,0,15.21.11,3.28-.51,6.2.55,9.12-.46,1.66-.46,3.79-1.66,4.7.11.53,1.07.22.83,1.11-.33,8.63.12,16.33-2.49,22.67-2.7,1.64-8.47.23-13.01.83-.54.07-1.16.53-1.66.55-4.53.23-9-1.18-13.01-1.11-.98.02-1.81.45-2.77.55-1.54.17-2.96-.33-4.43-.28-2.53.09-4.71.72-7.2.55-10.28-.69-21.58.48-32.94-.55-1.3.76-2.62.42-4.43.28-4.15-.33-9.16.12-13.57.28-.6.02-1.12-.32-1.66-.28-3.67.32-8.09,1.64-11.63,0-1.16.69-3.11.58-4.98.55-.69-.42-.38-1.83-1.11-2.21-1.25-.05-.89,1.71-2.21,2.21-2.96.09-6.4-.31-8.58.55-.58-.16-.79-.69-1.66-.55-10.36.56-21.17-.12-32.94-.55-2.46.74-6.63,1.24-9.14.28-5.23.37-11.91-.23-17.44,0-.76.03-1.76.33-2.49.28-.9-.07-1.63-.54-2.49-.55-1.17-.01-2.34.5-3.6.55-3.6.16-8-.21-11.07-.55-4.3,2.01-10.48.21-15.23-.55-1.15-2.19-.02-5.93-.28-9.95-.08-1.25-.49-2.4-.55-3.59-.05-1.06.35-2.45.28-3.32-.08-.94-.88-1.78,0-3.04-.61-2.01-.13-3.09-.28-4.42.43-.98-.94-.17-.83-.83.13-8.03.66-15.23.55-22.95-.27-.92-1.11-1.29-1.38-2.21-.04-2.27-.34-2.92-.28-5.53,1.86-2.76.03-5.97,1.11-9.12.43-.98-.94-.17-.83-.83.44-5.6.02-8.8.55-14.93-.09-1.02-.68-1.53-.83-2.49.64-4.34,1.14-8.59.28-13.82-.16-.72.11-.99.83-.83-2.08-.68-1.39-4.14-2.21-6.08.39-1.09.3-2.65,1.38-3.04-.7-.68-1.14-1.43,0-1.93-.6-1.81.18-4.7-.55-6.91-.08-.73,1.07-.22.83-1.11-.85-1.37-.71-3.56,0-4.7-.25-2.89-.32-5.95-1.11-8.29-.38-1.12.6-.87.55-1.66-.08-.84-1.07-.78-1.11-1.66,1.16-2.16.96-5.67,2.49-7.46-.17-1.21-.72-2.05-.83-3.32-.27-1.19,1.04-.8,1.11-1.66-.31-2.91-.57-5.89-1.66-8.02,1.72-4.14-.5-8.28,0-13.55-.27-1,1.24-.23,1.11-1.11-.62-1.66-1.3-3.17-.83-5.53.32-1.62.85-4.63.83-6.91-.03-3.45-1.14-6.66.83-9.12-.53-.58-.8-1.42-1.11-2.21.64-7.01-1.37-13.13,0-19.63-.45-.93-.85-1.92-1.66-2.49.02-1.55.69-2.64.83-4.7,1.31-1.64,2.91-3,4.43-4.42C9.52.63,13.61.33,19.1.06c4.76-.23,9.84.16,13.29,1.38,1.46-.37,2.41.39,3.88.28,1.41-.11,2.67-1.06,4.15-1.11.84-.03,1.65.45,2.49.55,2.75.34,6.03-.46,8.31-.55,6.45-.27,13.47.55,20.49.55,2.62,0,5.17-.82,7.75.28,2.96-.52,6.04.09,8.86.28,2.91.19,6.43-.83,9.69-.55,3,.25,5.73.96,8.3.83,3.31-.17,5.79-1.09,8.86-.83,1.57.13,4.58.08,6.92.28,2.04.17,4.61.69,7.2.55.71-.04,1.27-.45,1.94-.55,2.25-.35,4.86.55,6.92-.83,1.76.82,5.14.73,6.92,0,2.69.28,6.83,1.38,8.86.55,6.64,1.19,15.44-.42,22.7.28,1.8.17,3.3.85,4.98.83.68-.01,1.21-.45,1.94-.55,2.87-.4,5.97.27,9.14.28,9.77.02,20.26-.65,29.62.55,1.05.52,1.29,1.85,2.49,2.21,1.01,5.1,2.24,11.71.83,16.87,1.32,5.02-.55,7.99.28,13.82ZM21.87,5.59c.67-.32-.31-1.3-.55-.55.37,0,.25.48.55.55Zm199.61,50.04c.02-.48-.21-.71-.55-.83.03.43-.04.96.55.83ZM5.82,123.92c0-.28-.49-.35-.55,0,.31-.03.43.4.55,0Zm-1.66,33.18c-.31.03-.43-.4-.55,0,0,.28.48.35.55,0Zm218.16,38.71c.9.07,1.33-.33,1.38-1.11-.66.17-1.29.37-1.38,1.11Zm-.28,26.54h.55v-.55h-.55v.55Zm-5.26,1.11c.37.36,1.03.36,1.11-.28-.37-.36-1.03-.36-1.11.28Z"/>
  <g>
    <path class="cls-2" d="m191.16,67.11c-.15-.03-.22-.15-.28-.28"/>
    <path class="cls-4" d="m197.95,54.8c-.16-.32-.14-.82,0-1.11"/>
    <path class="cls-1" d="m195.45,42.92c-.1-.18-.11-.45-.14-.69"/>
    <path class="cls-1" d="m166.52,23.7c.29,0,.49.06.69.14"/>
    <path class="cls-3" d="m201.68,80.93c0-.28.06-.49.14-.69"/>
    <path class="cls-3" d="m96.9,156.55c.11-.26.35-.39.55-.55"/>
    <path class="cls-1" d="m102.57,158.62c.03-.15.15-.22.28-.28"/>
    <path class="cls-1" d="m216.63,201.47c0-.28.06-.49.14-.69"/>
    <path class="cls-2" d="m35.3,208.94c.12.25.29.45.55.55"/>
  </g>
</svg>