<?xml version="1.0" encoding="UTF-8"?>
<svg id="Layer_1" data-name="Layer 1" xmlns="http://www.w3.org/2000/svg" viewBox="0 0 226.77 226.77">
  <defs>
    <style>
      .cls-1 {
        stroke-width: .41px;
      }

      .cls-1, .cls-2, .cls-3, .cls-4, .cls-5, .cls-6, .cls-7, .cls-8, .cls-9, .cls-10, .cls-11 {
        fill: none;
        stroke: #000;
        stroke-linecap: round;
      }

      .cls-1, .cls-2, .cls-3, .cls-4, .cls-5, .cls-6, .cls-7, .cls-8, .cls-9, .cls-10, .cls-11, .cls-12 {
        fill-rule: evenodd;
      }

      .cls-2 {
        stroke-width: .3px;
      }

      .cls-3 {
        stroke-width: .25px;
      }

      .cls-4 {
        stroke-width: .32px;
      }

      .cls-5 {
        stroke-width: .31px;
      }

      .cls-6 {
        stroke-width: .31px;
      }

      .cls-7 {
        stroke-width: .31px;
      }

      .cls-8 {
        stroke-width: .29px;
      }

      .cls-9 {
        stroke-width: .28px;
      }

      .cls-10 {
        stroke-width: .35px;
      }

      .cls-11 {
        stroke-width: .29px;
      }

      .cls-12 {
        stroke-width: 0px;
      }
    </style>
  </defs>
  <path class="cls-12" d="m49.02,1.23c0-.24.3-.19.49-.25,0,.24-.3.19-.49.25Z"/>
  <path class="cls-12" d="m224.74,26.81c0-.24.3-.19.49-.25,0,.24-.3.19-.49.25Z"/>
  <path class="cls-12" d="m18.87,60.01c1.22.66,2.51,1.25,2.7,2.95-1.27.39-3.03-.68-3.19-2.21.23-.18.37-.45.49-.74Z"/>
  <path class="cls-12" d="m8.33,104.03c.98.27.32,1.77-.73,1.48-.33-1.07.58-.89.73-1.48Z"/>
  <path class="cls-12" d="m28.19,174.37c2.54,2.91-1.35,5.6-1.23,9.1-.63.92-1.58,1.53-2.21,2.46.41.65.57,1.56.98,2.21,1.1-.78,1.96-1.81,3.68-1.97.54,1.66-1.13,3.09-1.22,4.92-1.52.54-1.62,3.49-3.68,2.71.1-2.11,2.02-3.43,1.47-5.41-1.82.63-3.61-.11-4.66-.98.14-2.83,2.5-2.24,3.68-3.69-.55-2.31.88-2.92,1.71-4.43.17-1.56-.54-2.24-.73-3.44.29-.94.83-1.63,2.21-1.48Z"/>
  <path class="cls-12" d="m37.99,220.36c-.07.57-.65.57-.98.25.07-.57.65-.57.98-.25Z"/>
  <path class="cls-12" d="m61.27,54.11c-.98-3.3-1.94-8.34-.98-12.05.18-1.24-.67-1.46-.74-2.46,2.02-3.38-1.16-9,1.23-11.81,3.82-.63,8.69-.71,13.23-1.23.97-.08,1.23.57,2.21.49.77-.37,1.36-.93,2.21-1.23,6.67-.16,11.16.21,16.91-.98,1.07-.26.8.83,1.72.74,3.93-.04,9.07.99,14.95.25,1.21.58,2.3,1.3,3.19,2.21,3.09-.74,7.91.21,9.8,2.21,2.82-.69,4.02.19,5.64,1.23,1.4.9,3.01,1.54,3.92,2.95.32.34,1.06.24,1.72.25,1.29,2.23,4.42,2.61,5.64,4.92,3.33.76,4.46,3.72,7.35,4.92,1.33,3.34,4.4,4.93,5.64,8.36.95.69,1.7,1.57,2.94,1.97,1.32,2.86,2.02,6.33,4.17,8.36.11.79.47,1.33.49,2.21,1.03,1.35,1.92,2.83,3.19,3.94.43,2.36.83,4.75,2.21,6.15-.42,1.18.13,1.93.73,2.71-.35,2.69.8,5.45,1.72,7.62-.2,3.56.3,6.42,1.47,8.61-.32,3.32-.16,6.44,1.47,8.85-.68,1.81-.03,4.02.49,5.41-.38.11-.21.77-.98.49.6,1.53-.23,4.49.98,5.41-.46,1.49-.17,3.36,0,4.92.1,1.17-.93,1.2-.98,2.21-.1.84.73.74.98,1.23.62-.12-.68,1.22.49.98-1.05.34-1,1.78-.98,3.2-.4,1.07-.77,2.18-.98,3.44,1.93,6.53-3.18,9.81-2.94,16.23-.48.67-.91,1.38-1.72,1.72.21.53.64.84.49,1.72-1.8,3.36-3.06,7.26-4.9,10.58-1.01.79-1.95,1.66-2.7,2.7-.45.9.05,1.47-.25,2.21-.59,1.37-1.71,2.22-1.96,3.94-2.24,1.52-3.63,3.9-5.88,5.41-.32.66-.66,1.31-.98,1.97-2.25,1.92-3.87,4.48-6.62,5.9-.41,1.23-1.27,2.01-1.72,3.2-2.97,1.61-6.8,2.36-9.56,4.18-3.96.13-5.42,2.76-8.33,3.94-2.3-.72-3.86.9-6.37.74-2.08,1.57-5.58.53-7.35,1.97-4.93-.79-10.24.54-15.2.49-2.41-.02-4.69.06-6.62-.25-2.17,1.49-5.64-.37-7.84.49-2.29-.9-5.35-1.03-8.33-1.23-3.42-2.55-7.67-4.27-9.56-8.36-.02-4.77-1.84-8.92-.74-14.02-.6-1.42-.73-3.8.25-4.92-1.22-6.12-.56-12.87-.98-18.45-.69-2.36-1.31-3.98-.49-6.4-.57-1.79-.44-4.14.25-5.9-.35-2.18-2.02-4.58-.74-6.89-.25-1.72-.19-3.53.49-4.92-.86-3.35-2.99-7.84-1.23-11.56-.47-1.17-.27-3.01-.98-3.94,1.51-3.08.51-6.34.49-9.84-.02-3.45,1.72-7.3-.25-10.58,1.02-1.33.13-3.61,1.47-4.92v-3.2c-1.78-2.76-.56-6.15-.49-9.1.03-1.29-.53-2.47-.49-3.69.03-.9.58-1.51.74-2.46.37-2.25-.37-5.14-.25-7.87.05-1.15.42-2.71.25-4.43l.12.12.12-.12c.91.17,1.08-.39.98-1.23-.67-.18-.49.49-.98.49v-.25h-.25Zm14.46,16.48c-.68-1.29-1.23-2.7-3.43-2.46.45,1.83-.55,3.11.24,3.94.78-.17.16-1.12.49-1.23.61,1.23,1.82-.21,2.7-.25Zm26.96-44.02c-.11.93.52,1.12.98,1.48v-1.72c-.46-.06-.54.28-.98.25Zm-7.11,23.12c-.18.4.49,1.07.49.49-.15-.01-.29-.04-.25-.25,1.06-.83,2.58-1.19,3.92-1.72,1.32-1.13,1.43-3.48,2.94-4.43-.14-1.95.87-3.47.98-5.16.25-3.9-2.18-6.72-3.92-9.1-1.55-.16-2.23-1.21-3.18-1.97h-2.7c-.25.57-.51,1.13-.98,1.48.46.24.82-.74.98,0,.33,3.68-1.99,4.92-5.39,4.18-1.02-.7-1.67-1.77-2.45-2.71-.11-.46.33-1.48-.49-1.23-1.44.03-.87,2.08-1.96,2.46-.29,1.27-.47,2.64-1.22,3.44-.18,1.22-.34,2.45-.25,3.94.37.7,1.08,1.05,1.23,1.97-.43,2.4,1.36,2.57,1.47,4.43,2.09,1.02,3.45,2.77,6.37,2.95.35.38.52.96.74,1.48.79-.36,2.7-.88,3.68-.25Zm-17.65-17.71h1.72c.07-1.37-.54-1.67-.49-2.46h-1.23c-.51.81-.43,1.56,0,2.46Zm29.9.25c1.07.35,2.57-.37,2.21-2.21-1.77-.76-3.09.43-2.21,2.21Zm-37.5-1.23c-.21,1.76.66,2.45,2.2,2.46,1.01-.66,1.54-1.92.73-3.2-1.26-.04-2.14.31-2.94.74Zm12.01.98c.13-.63.33-.86-.25-1.23-.33.31-.38,1.21.25,1.23Zm-17.65,0c.04-.36.59-.23.98-.25.08-.65-.51-.63-.98-.74-.07.15-.61.95,0,.98Zm1.72-.98c-.19.06-.48,0-.49.25.19-.06.48,0,.49-.25Zm38.72,1.72c-.03-.46-.16-.82-.49-.98-.31.29-.2,1.02.49.98Zm-40.19.98c.29.37.21,1.1.98.98.53-.62,1.32-.97,1.22-2.21-.9-.59-2.06.29-2.21,1.23Zm51.22-1.48c-.29.04-.7-.04-.74.25.29-.04.7.04.74-.25Zm9.56,2.46c.34-.34.24-1.48-.49-1.48-.05.71.06,1.25.49,1.48Zm-2.45,1.48c1,.1.97-.83,1.47-1.23-.86.04-1.23.57-1.47,1.23Zm-48.04,1.23c.59.3.83.97,1.47,1.23,1.43.04,1.54-1.25,1.47-2.71-1.24-1.12-3.08-.23-2.94,1.48Zm53.67,0c-1.08.31-1.91.87-1.96,2.21-2.81.95-3.71,3.82-7.11,4.18-.87-.69-2.01-1.1-2.7-1.97-.14-1.12.43-1.53.24-2.71.48-.58,1.32-.8.98-2.21-.8-1.08-3.74-.02-4.9-.74-2.89,1.68-4.27,4.9-7.11,6.64-.53.91-.18,1.72-.49,2.46-.7,1.68-2.76,2.41-2.94,4.18-.38,3.76,4.24,3.95,6.13,6.64,1.41-.8,2.26.32,3.19.74,2.37.08,3.93-.65,6.37-.49.98-.41,1.01-1.78,2.7-1.48,1.21-2.06,3.82-2.72,5.15-4.67,1.2.22.93-1.03,1.96-.98.68-1.86,1.53-3.55,2.45-5.16-.15-3.3.33-5.84,0-8.12-.76.03-.7-.77-1.71-.49-.04,1.15-.63.82-.25,1.97Zm-2.45-.74v-.74h-.74c-.04.54.2.78.74.74Zm-1.23.25c.04-.54-.2-.78-.74-.74-.04.54.2.78.74.74Zm-56.62,1.72c.21,1.85,2.54,1.61,3.43.49.05-.79-.43-1.04-.25-1.97-.38-.36-.96-.52-1.47-.74-.17,1.15-1.62.99-1.72,2.21Zm38.23-1.48c.28.97.28-.97,0,0h0Zm-2.21,1.23c.75.38.75-1.61,0-1.23v1.23Zm1.22.25h.74c.07-.64-.09-1.06-.74-.98v.98Zm1.47-.74c.29.97.29-.97,0,0h0Zm-27.2,1.48c.75.38.75-1.61,0-1.23v1.23Zm55.88,2.46c1.84-.03,1.95-1.87,1.23-3.2-.9.05-.94.34-1.72,0-.46,1.03-.32,2.73.49,3.2Zm-15.44-1.72c.77.04.84-.63.98-1.23-.77-.04-.84.63-.98,1.23Zm-42.89,3.94c1.28.06.95-1.51.98-2.71-.93-.43-.93-.26-1.96-.49-.3,1.39-.28,2.79.98,3.2Zm-10.05-.49c.22-.51-.63-1.1-.73-.49.35.06.41.4.73.49Zm2.21,0c-.11,1.43,0,2.61,1.23,2.71,1.06-.25,1.9-.71,1.71-2.21-.6-1.1-2.03-1.49-2.94-.49Zm67.89,1.48c1.21.79,2.48.24,4.17.25,1.4-2.89-4.67-3.56-4.17-.25Zm-73.52-.74c.94.19.94-1.18,0-.98v.98Zm2.21-.49c-.49,0-.31-.67-.98-.49-.26.62.83,1.09.98.49Zm12.99,1.72c.52-.55.18-1.62-.49-1.72-.6.63.1,1.34.49,1.72Zm-12.74,11.81c.25.57.84.79.74,1.72,1.13,0,1.9,1.64,3.19,2.21.4,1.48,1.45,2.32,2.94,2.71.39.18-.06,1.2.74.98,1,.6,1.38-.25,2.45-.25.87-.13.6.87,1.47.74.36-.46,1.6-.03,1.96-.49,4.68,2.04,9.85-1.06,12.25-3.69.57.2,1.39.79,1.96.25.22-1.2-.81-1.16-.49-2.46.87-.11,1.13-.83,1.96-.98.19-1.72,1.97-2.79.98-4.92-1.99-.28-2.47-1.71-2.94-2.95-1.15.24-.94,1.84-2.21,1.97-4.73-.69-6.82-5.24-12.74-3.94-.71-.11-.77-.87-1.71-.74-.47.6-1.75.38-1.72,1.48,1.12,1.49,2.05,2.44,1.96,4.67-.6,1.45-2.61,1.48-4.66,1.48-2.05-1.34-4.21-3.76-3.92-6.64-.98-.9-1.5-2.26-1.47-4.18h-.74c-2.53,3.91.12,8.96,0,13.03Zm67.65-9.35c.74-.23,1.46-.5,2.21-.74.34-.73-.14-1.07,0-2.21-3.2-2.9-5.18,2.13-2.21,2.95Zm9.31-.98c-.62.85-.12,1.63-.25,3.2,1.01.27,1.8,1.32,2.94.74.55-.6.54-1.76.49-2.95-.92-.48-1.47-1.31-3.19-.98Zm-7.11,4.92c.24.99.99,1.47,1.22,2.46,1.26.04,1.97-.49,2.7-.98v-1.72c-.76-.38-1.12-1.17-1.72-1.72-.06-.44.25-1.23-.49-.98-.11,1.45-1.18,1.93-1.72,2.95Zm12.25-1.48c-.19.06-.48,0-.49.25.19-.06.48,0,.49-.25Zm-18.63,2.46c.59.48.75,1.38,1.71,1.48.47-.11.62-.53,1.23-.49.01-1.49-.33-2.62-1.47-2.95-.75.39-1.21,1.08-1.47,1.97Zm-.49,6.15c-1.64-.32-3.4-.84-4.41.25.9,2.21,2.88,3.34,3.68,5.66-.41,1.21-2.16,1.89-1.23,3.69,1.03.62,1.09-.53,2.45-.25.86,2.35,1,5.18.49,7.38-.35,1.5-1.24,2.02-1.96,3.2-.61,1-.89,2.25-1.47,3.2-.68,1.1-1.69,1.8-1.72,2.95-.99.4-1.55,1.23-2.21,1.97-3.7,1.29-5.64,4.34-9.31,5.66-.16.9-.9,1.23-1.47,1.72-4.02,1.46-5.88,5.08-10.29,6.15-.45.69-.81,1.48-1.71,1.72-2.74.03-3.25,2.32-5.64,2.71-.68.37.42,1.01-.25,1.23-2.89-.99-4.21,1.66-6.13,2.46-.03-.46-.81-.17-.74-.74,1.19-2.5,4.39-2.98,6.13-4.92.24.4.65.57.98.25.38-.87-.83-.15-.74-.74.68-1.45,1.45-2.81,2.94-3.44.01-1.71,1.41-2.03,2.2-2.95.47-2.56,1.57-4.49,3.19-5.9.11-2.59,1.25-4.15,2.94-5.17,1.4-4.25,5.37-5.92,7.11-9.84,2.73-.13,5.02-.7,6.86-1.72-.27-1.02.04-1.51,0-1.72-1.05.24-2.74-1.54-4.41-1.97-.73-.19-1.51.33-2.21-.25-1.57.62-2.17.88-3.92,1.48-1.25,1.04-1.39,3.19-3.68,3.2-1.16-.64-.89-2.69,0-3.44,0-.73-.64-.84-.74-1.48.09-3.54-1.99-7.01-1.47-11.81-1.1-1.6-.61-4.8-1.72-6.39-3.45.38-.23,5.26-1.96,6.64.56-.07.92.06.98.49-.54.28-.02,1.62-.73,1.72,1.53,2.2.08,6.09,1.71,8.36.15,5.43-1.25,10.9-1.71,16.48-3.55,4.15-4.25,11.15-8.58,14.51-.08.57-.3,1.02-.49,1.48-.96.11-1.19,2.24-2.45,1.23.11-1.12.83-1.63,1.47-2.21.44-2.64,1.95-5.27,1.96-8.36.01-3.43-1.37-6.6-1.72-9.35-2.88-4.08-7.1-6.81-12.25-8.61-1.85.5-3.2-.47-4.9,0,.84,2.78-1.49,3.89-.74,6.39,2.16.96,3.44-.71,3.43-2.71-1.04-.02-1.54-.58-1.47-1.72,3.32.11,3.9,2.97,6.62,3.69.53,1.19,1.21,2.23,2.21,2.95.35,2.33,3.21,4.57,1.96,6.89-1.21.15-.91-1.22-1.47-1.72-.14.35-.38.6-.73.74-.79-1.73-2.95-.94-4.41-.49-.71,1.71-2.09,2.14-1.47,4.67,1.75,1.04,3.27-.62,5.15.25,1.63,1.81,2.95,3.93,3.92,6.39.12,3.56-.6,6.28-2.45,7.87.12.78-.44.87-.25,1.72-1.46,1.21-2.87,2.5-5.15,3.2-2.84.87-6.48.3-9.07,1.72h-2.7c-1.95,1.38-1.73,4.98.49,5.9.79-.44,2-.06,2.94.49.71-.41,2.13-.38,2.7-.25,2.06,1.7,4.91,2.61,5.15,6.15-1.22,1.32-3.01,2.06-3.19,4.43,1.32.76,2.36.09,3.43,0,.65-.75.91-1.87,1.72-2.46-.04-1.11-.12-2.25.98-2.21.87.52.35,1.7.49,2.46.26,1.42.93,2.84.73,4.43-.56.78-.87,1.58-1.71,1.48v-.25h-.25c.09-1-1.42-.16-1.22.49.77.27.65.12,1.22-.25v.25h.25c-1.19,2.41-3.14,4.07-6.13,4.67-.05.79.43,1.04.25,1.97,1.41-.27,1.33.96,2.7.74,1.42-1.36,4.09-1.47,5.64-2.71.15.14,1.16.58,1.23,0-.35.02-.69.04-.73-.25.96-2.4,2.26-4.46,3.92-6.15.39-5.4-3.48-7.81-3.68-11.81,1.9-.18,2.03,1.41,3.19,1.97,1.32-.17,2.01.28,2.94.49,1.52,2.82,4.25,4.42,5.15,7.87.97.17,1.42.87,1.96,1.48-.17,1.56.66,2.13.98,3.2-.19,1.91.32,3.12.24,4.92,2.93,3.32,1.33,8.71,2.7,13.04-.4,3.51-.82,7.36-.49,11.31.35-.02.69-.04.73.25,1.08.18,1-.8,1.72-.98.91-4.57.43-8.48,0-13.28.13-.69.36-1.28.49-1.97-.03-1.23-1.32-4.19.25-4.67,1.17.79,1.77,2.15,2.45,3.44,2.36-.07,3.68.89,4.9,1.97,1.21-1.65,3.53-2.2,3.68-4.92-.72-1.15-2.17-.5-3.68-.49-3.26-2.06-7.06-3.58-9.56-6.39-.6-1.12-1.28-2.16-1.96-3.2.7-1.07-.24-2.29,0-3.69-1.2-1.18-1.6-3.15-2.45-4.67-.71-.44-1.65-.64-1.71-1.72.25-.33.23-.92.73-.98,2.46.49,4.29,1.59,6.13,2.71.8-.4.94.05,1.96,0,3.57,1.66,6.74,3.73,10.78,4.92.42.81,1.29,1.16,1.72,1.97.58,0,.72.42,1.47.25.79,1.42,2.37,2.05,2.94,3.69,2.37.08,3.01,1.9,5.15,2.21.67,1.3,2.18,1.75,2.7,3.2.46.23.82-.74.98,0,1.11,1.84,2.12,3.77,3.68,5.16.05,3.55,2.62,4.59,2.45,8.36.58.73.71,1.91,1.23,2.7-.54,1.59-1.01,3.25-1.23,5.17-1.23,1.88-2.95,3.27-4.17,5.16.29.86.45,1.85,1.47,1.97,1.47-.75,2.2-.73,4.17-.98,2.2-2.15,4.48-3.96,4.17-8.36-.15-2.08.29-3.01-.49-4.18-.08-.9.04-1.6.25-2.21-.76-1.29-1.34-2.76-1.96-4.18-.33-.57-1.33-.47-1.23-1.48,1.97-.38,2.75,2.46,4.41,3.2.77,2.26,2.5,3.56,4.41,4.67.53,1.85,2.16,2.59,2.45,4.67,1.85,1.42,2.8,3.75,5.39,4.43.64-.43.5-1.63.49-2.71-1.69-1.5-2.25-4.13-4.17-5.41-2.22-4.9-6.64-7.6-9.31-12.05-.92.19-1.17-.3-1.96-.25-2.75-2.9-5.18-6.11-8.58-8.36.06-.88-.74-.9-.74-1.72-3.01-.92-3.48-4.38-7.11-4.67-.55-1.16-1.7-1.74-2.21-2.95-.79.14-1.14-.17-1.72-.25-2.28-2.39-6.26-3.06-8.09-5.9-1.68-.2-3.11-.65-3.92-1.72-1.94.14-4.88-.84-6.62-1.72-.61-.29-1.91.11-1.96-.74-1.17.7-4.21,1.85-4.41-.49.36-1.79,3.83-1.31,5.15-.74,2.42-1.01,4.66.46,7.35-.49.25.16.25.57.74.49,4.68-.08,7.19-.37,11.52-.25,2.53,1.48,5.22,2.8,7.11,4.92-.13.2-.26.4-.24.74,2.2.83,1.63,4.43,4.17,4.92,1.4-1.05,1.84-3.07,1.96-5.41-.62-.69-1.63-.99-1.47-2.46-1.28-.93-2.66-1.76-2.94-3.69,2.75.43,6.16.21,8.82.74.26-.23.08-.91.74-.74,1.84.29,2.36-.75,3.68-.98.08-.74.76-.88.49-1.97-3.15-.89-9.2,1.05-13.97,0,.15-1.66,2.1-1.5,2.94-2.46.16-2.05,1.64-2.79,2.7-3.93-.12-1.68-.91-3.26.25-4.18-2.02-1.01-1.6-4.47-4.66-4.43-.14.44-.13,1.02-.49,1.23.13,1.22.81,2.05.74,3.2-.07,1.07-.88,1.88-1.23,2.95-.45,1.37-.35,2.64-.98,3.69-1.33.96-2.82,1.76-3.92,2.95-3.67,1.78-8.31-.57-12.01.49-2.5-1.46-6.55-1.38-9.8-.49-.72-.02-.54-.94-1.47-.74-1.58.08-3.66,1.92-4.9.74-.14-1.21.8-1.32,1.96-1.23.66-.82,1.85-1.1,2.7-1.72,2.54-.07,3.05-2.18,5.88-1.97,1.38-.66,1.71-2.38,3.92-2.21.36-.87.87-1.59,2.21-1.48.36-.71.67-1.46,1.23-1.97,3.37-.55,4.47-3.39,7.6-4.18.18-1.29.96-1.99,1.72-2.71,3.92-1.14,5.88-4.26,9.07-6.15.56-1.65,1.87-2.55,2.94-3.69.57-.37,1.06.08,1.23-.25.61-.94,2.53-2.71,4.17-3.44,1.35-2.58,4.12-3.73,6.37-5.41,1.03-1.1,1.76-2.5,3.43-2.95,1.83-2.76,4.34-4.83,6.62-7.13.77-1.84,1.23-3.57,0-5.16-2.84.67-3.75,3.28-5.15,5.41-1.93.36-1.69,2.9-4.17,2.71-.52,2.1-2.64,2.59-3.68,4.18-.69-.2-.63.35-1.22.25-1.88,2.21-3.63,4.55-6.37,5.9-.13.3-.19,1.64-1.72,1.23.74-2.19,2.76-3.23,3.18-5.66.25-1.41-.5-3.3-.24-4.92.05-.32.5-.66.49-.98-.03-1.53-.96-3.12-.49-4.92-1.43-1.76-3.12-3.26-5.39-4.18h.25v-.25h.49c.11-1.04-1.79-.77-.98,0h-.25v.25Zm-57.59-6.15h.49c.01-.31.31-.34.24-.74h-.49c-.01.31-.32.34-.25.74Zm74.75,2.71c.78.44.97,1.49,2.45,1.23.67-.73,1.32-1.46,1.47-2.71-.83-2.23-4.85-2.43-3.92,1.48Zm-10.78-2.21c.17-.66-.51-.48-.73-.74-.15.64.1.89.73.74Zm-10.29,1.23c.15.83.07,1.9,1.23,1.72.39-.51.8-1,.98-1.72-.89-.52-1.32-.52-2.21,0Zm15.44,3.2c.98-.24.74.73,1.71.49.67-.72,1.51-1.27,1.23-2.95-1.62-1.22-3.61-.09-2.94,2.46Zm-3.68-1.97c-.19.05-.48,0-.49.25.19-.06.48,0,.49-.25Zm-1.23,4.43c1.75.23,2.6.12,2.7-1.72-.86-1.38-1.96-1.28-3.67-1.48-.04,1.43.44,2.35.98,3.2Zm14.46-1.97c.07-.56-.06-.92-.49-.98-.07.56.06.92.49.98Zm-31.37,0c-.13.77-.43,1.37-.74,1.97.71.11,1.12.52,1.23,1.23,1.11-.79,1.9-1.23,2.94-.98-.12-.56-.49-1.26,0-1.72-1.32-.36-1.96-1.55-3.43-.49Zm21.57.25c-.67.75.75-.67,0,0h0Zm-34.31.49c.19,1.86,1.21,2.13,2.7,2.21-.15-.64.1-.88.73-.74,0-2.1-2.47-2.24-3.43-1.48Zm37.74,3.44c.77-.12.55.76,1.47.49,1.15-.65,2.16-1.44,2.2-3.2-.63-.68-1.26-1.35-2.69-1.23-.05,1.59-1.22,2.06-.98,3.93Zm8.09-3.44h.49v-.49h-.49v.49Zm-38.97,3.44c.55.35,1.18.62,2.21.49.07-.83.39-1.41.25-2.46-1.3-1.63-3.63-.17-2.45,1.97Zm35.78-1.48c.56.07.92-.06.98-.49-.33-.08-.47-.35-.98-.25v.74Zm-84.07,2.21c.42.56,1.14.82,2.21.74.16-1.39-.22-2.23-.49-3.2-.97.42-1.86.92-1.72,2.46Zm60.05-2.21c-.33-.08-.47-.35-.98-.25-.18.84.94.96.98.25Zm-27.94,3.2c.22-1.09,1.53-1.08,1.23-2.71-2.44-1.94-4.02,2.2-1.23,2.71Zm11.52-1.48c-.13,1.62-.5,3.8.74,4.92.48-.75,1.44-1.47,1.71-2.71.11-.49.01-3.98-.49-3.69-.2,1.33-1.03,1.38-1.96,1.48Zm8.58-.25c.71.36.71-1.1,0-.74v.74Zm5.39,8.61c.69.04.48-.83,1.47-.49-.09-2.71,1-4.25.98-6.89-.82-.41-1.58-.87-2.94-.74.53,3.18-2.95,7.14.49,8.12Zm16.42-5.41c.51,1.68,4.08,2.24,4.17-.25-.35-2.44-4.14-2.97-4.17.25Zm-22.55-2.21c-.95,1.01-.74,4.08,1.47,3.44.62-.61,1.22-1.23.98-2.7-.93-.13-1.36-.77-2.45-.74Zm-25,3.94c.98-.16.99.65,1.96.49.54-.53.94-1.19.74-2.46-.75-.23-.99-.98-2.21-.74-.56.93-.17,2.01-.49,2.71Zm-25-1.48c-.32.67-.6,1.37-.49,2.46.7.29.98.98,1.71,1.23.22-.43.46-.85,1.22-.74.56-2.74-.28-4.39-2.45-2.95Zm91.91-.25v.49c.6.38.72-.83.25-.74-.01.15-.04.29-.25.25Zm-59.8.49h.49c.38-.61-.83-.72-.73-.25.15.01.29.04.25.25Zm-2.7,4.43c1.15.85,1.91.29,2.94.49-.48-1,.31-1.91.24-3.2-1.66-2.13-4.52-.13-3.19,2.71Zm-20.1-2.71c0-.25-.43-.31-.49,0,.05.3.27.15.49,0Zm1.23,2.46c.82.33,1.25,1.04,1.71,1.72.89-.85.53-2.26.98-3.94-1,.02-1.16-.8-2.45-.49-.45.53-.16,1.8-.24,2.71Zm9.56-1.72c-.02,1.01-.05,2.02.24,2.71,1.72.41,1.58-1.04,2.7-1.23-.16-.66-.1-1.54-.49-1.97-.9.36-1.34.08-2.45.49Zm-.98,1.72c-1.85-1.07-4.27-2.68-4.9,0-.12.52.51.99,0,1.72,1.18-.2.89,1.08,2.21.74.93-.6,1.33-2.15,2.7-.98v-1.48Zm4.66-.49c.94.19.94-1.18,0-.98v.98Zm17.65-.25c-.59.83.82-.59,0,0h0Zm-14.46.74v-.74h-.73c-.04.54.2.78.73.74Zm58.82-.74c-1.07.67-1.79,2.67-.49,3.69,1.08.27,1.22-.42,1.96-.49.11-1.66-.32-2.79-1.47-3.2Zm0,9.84c-1.65,4-5.88,5.42-8.58,8.36-.85,2.59-2.78,4.1-4.17,6.15.78,5.47-2.13,13.64,1.96,16.48,1.41-1.21,1.17-4.07,2.21-5.66,2.88-2.28,5.32-4.99,8.33-7.13,1.96.15,2.71-.73,3.92-1.48,1.73-1.07,2.59-1.39,2.45-3.69-1.5.54-3.33.56-4.66-.25-1.26-3.03,1.23-3.01,2.45-4.92.58-.91.36-1.57.98-1.97.48-.3.39-.14.74-.49.57-.59.78-1.01,1.22-1.48.45-3.8.42-6.24.49-9.59-1.27-1.02-1.31-3.28-3.43-3.44,1.42,4.21.2,8.51-3.92,9.1Zm-63.48-5.16c1.55,1.78,4.98-.17,3.68-2.71-.7-.37-1.61-.51-2.45-.74-.26,1.3-1.13,1.98-1.23,3.44Zm-20.59-2.71c.28.97.28-.97,0,0h0Zm57.84,3.2c.94-.2,2.18-.11,2.21-1.23-.72-2.83-4.28-1.07-2.21,1.23Zm-41.42-1.48c.16-.25.56-.25.49-.74-.47.1-1.05.09-.98.74l-.12.12.12.12h-.49c-.05.7-.03,1.34.74,1.23.03-.61.46-.76,0-1.23h.24v-.25Zm2.45,0c-.28.02-.38-.36-.49,0,0,.25.43.31.49,0Zm7.6.49c-.17,1.98.58,3.03,2.45,2.95.53-.62,1.23-1.06.98-2.46-.84-.62-2.37-1.49-3.43-.49Zm-28.92,1.23c.15,1.9,3.09,1.29,2.94-.49-.43-1.16-2.9-.83-2.94.49Zm-2.45-.74c.28.97.28-.97,0,0h0Zm83.82,2.71c.84.14,1.14.82,2.21.74.65-.49,1.44-.84,1.22-2.21-.19-.05-.29-.21-.25-.49-1.27-1.02-4.17-.76-3.19,1.97Zm13.97-.25c.48.34.37,1.27.74,1.72,1.99.65,2.48-1.59,1.47-2.46-.73.25-1.96,0-2.21.74Zm-46.08,2.21c.57.17.66.82,1.22.98.24-.83,1.19-.94,1.96-1.23.53-2.95-4.02-2.84-3.19.25Zm8.58,1.23c1.99.08,3.1-3.11.98-3.69-.83.15-1.09.87-1.96.98,0,.65.14,1.45-.49,1.48-.02-.39.03-.85-.49-.74.22,1.09,1.08,1.54,1.96,1.97Zm22.55-3.44c-.99-.86-.58.79,0,0h0Zm-56.12,3.44c.51.14.7.61,1.47.49.65-.74,1.82-.96,1.47-2.71-1.5-1.3-3.45-.41-2.94,2.21Zm7.11-.74c.65.07.63-.51.74-.98h-.74v.98Zm47.55,2.21c.8-.48,1.5-1.62.98-2.71-3.19-1.92-4.52,3.03-.98,2.71Zm-51.22,1.48c.68-.42,1.53,1.08,2.94.74.3-.76.2-1.93,1.22-1.97-.01-.81-.7-.94-.49-1.97-2.21-2.09-4.44.97-3.68,3.2Zm-27.45-3.44c-1.63,3.35,3.15,4.24,2.94.74-.6-.55-2.26-1.04-2.94-.74Zm12.99.98c.04-.61.04-1.19-.49-1.23.11.46-.33,1.48.49,1.23Zm-1.96-.25c-.59.83.82-.59,0,0h0Zm33.33,1.48c-.16,1.48.58,2.05.98,2.95,1.88.25,2.31-.96,2.45-2.46-.88-1.9-1.48-.48-3.43-.49Zm-33.82.25c-.6,1.04.5,1.33.25,2.7.87-.48,1.41,0,2.45,0,1.05-2.28-.62-3.95-2.7-2.7Zm40.44,2.95c2.18.38,2.78-.82,3.19-2.21-1.16-2.46-4.74-.68-3.19,2.21Zm25.98-2.46h.49v-.49h-.49v.49Zm-50.49.49c-.16-.14-.74-1-.98-.25.33-.04.74,1,.98.25Zm45.59-.49c-.42.56-.59,1.37-.49,2.46.93.46,1.42,1.36,2.21,1.97.85-1.74,1.88-4.6-1.71-4.43Zm25.24,2.71c1.47.24,1.52-.93,1.47-2.21-.82-.08-1.09-.71-2.21-.49-.42.94-.36,2.57.73,2.71Zm-91.66-2.46c-.81,1.06-.72,2.62,0,3.44,2,.45,2.07-1.04,3.19-1.48-.35-1.37-1.3-2.14-3.19-1.97Zm73.28.49c.83.75.74-.91,0,0h0Zm-76.71.49c-.02.43.05.77.24.98.79.1,1.4-1.05.49-1.23-.04.29-.39.27-.73.25Zm25.24,4.67c1.54.69,2.85-.44,2.45-2.46-1.8-.94-2.98.31-2.45,2.46Zm-28.18-.25c1.2,1.7,4.35,1.96,3.92-1.48-1.26-.95-3.82-.23-3.92,1.48Zm41.17-1.72c-.03.87-.7,1.1-.74,1.97.81.75.96,2.15,2.45,2.21.46-.76,1.51-.95,1.72-1.97-.55-1.67-1.23-2.75-3.43-2.21Zm-32.11.49c.28.21.66.32,1.22.25v-.74c-.44.14-1.02.13-1.22.49Zm37.01,1.97c1.27-.12,1.51.78,2.94.49.79-.81.32-1.96,0-2.95-1.91-.11-3.06.53-2.94,2.46Zm21.81-.98c-.06.96.53,1.28.73,1.97,1.4.09,2.2-.42,2.45-1.48-.26-2.15-2.34-2.19-3.19-.49Zm-61.52,1.48c-.22-.68.5-2.31-.49-2.21-.36,1.24-.42,2.63-1.47,3.69.31.6.61,1.19.74,1.97,1.6.74,3.21-.07,3.43-1.48.43-.02.76.05.98.25-.32-.61.55-1.19,0-1.23-.99.57-1.77-1.17-3.19-.98Zm45.59-1.72c-.19.06-.48,0-.49.25.19-.06.48,0,.49-.25Zm-41.66,1.48v-.98c-.43.02-.76-.05-.98-.25-.18.92.28,1.2.98,1.23Zm62.01,1.72c.25-.38,1.08-2.33,0-2.46.52,1.15-.9,2.51,0,2.46Zm25.73-2.21c-1.22,1.69.15,3.36.98,4.43.1-1.29,1.59-1.19,2.21-1.97.31-2.34-1.25-3.05-3.19-2.46Zm-32.6,5.41c.31-.77.82-2.31.25-3.2-2.7-1.26-2.85,4.15-.25,3.2Zm-69.36-2.46c.42.01.63-.19.74-.49-.42-.01-.63.19-.74.49Zm74.51,2.46c2.44.33,2.17-3.72-.49-2.95-.65.91-.61,2.56.49,2.95Zm-43.14-1.97c.21-.51-.64-1.1-.74-.49.39.02.19.63.74.49Zm11.27,2.46c.79.73,1.36.15,2.7.25.07-1.14,0-2.13-.49-2.71-1.72-.93-2.5.61-2.21,2.46Zm55.39-1.48c.29.97.29-.97,0,0h0Zm-90.93,1.97c-.17-2.16-4.06-2.48-3.43,1.23,1.52,1.63,3.56.36,3.43-1.23Zm9.8-.74c-.19.05-.48,0-.49.25.19-.06.48,0,.49-.25Zm57.1,1.23c.03-.62.47-.77-.24-.98.04.37-.09.91.24.98Zm24.51,1.48c.35.14.6.38.74.74,1.26-.13,2.33-.45,2.7-1.48-.75-1.84-3.58-2.36-3.43.74Zm-82.1-1.23c.43.82-.12,1.09,0,2.21-.44.46-1.24.56-1.96.74-.05,1.03-.09,2.06.74,2.21.68-.79,1.79-1.16,2.21-2.21,1.69-.07,2.62-1.79,2.21-3.2-1.16-.39-2.26-.21-3.19.25Zm87.5,0c-.21.78.39.76.49,1.23-.6.14-.52.95-1.47.74.45.53-.05,2.01.49,2.46-.07-.65.95-.19.74-.98-.64.15-.88-.1-.74-.74,1.14.94,1.06-.48,2.21,0,.26-.64.89-.91.98-1.72-.44-1.21-1.52-1.75-2.7-.98Zm-90.19,1.48c.77.04.84-.63.98-1.23-.33-.08-.47-.35-.98-.25v1.48Zm59.56,0c-.43.47-.18,1.62-.24,2.46.77.29,1.08-.15,1.96.25.59-.84.13-2.31-.25-2.95-1.13.23-1.62-.18-1.72-.98-.85-.12-1.52-.05-1.22.98.54-.11,1.33-.56,1.47.25Zm-31.12.25c.55-.26,2.41-.73,1.23-1.23-.37.45-1.02.61-1.23,1.23Zm-30.88-.74c-1.55-.74-3.2.34-3.19,1.97.98,1.32,2.61.84,3.68,0,.12-.78-.44-.87-.24-1.72l.12-.12-.12-.12h.73c-.73,0-.86-.12-.86-.12l-.12.12Zm48.53,0c-.28,2,.99,2.44,2.45,2.71.1-.88.65-1.31.49-2.46-.89-.12-1.98-.97-2.94-.25Zm42.15,2.71c-.14-.88.29-1.19.49-1.72h-.98c.1.64.13,1.35.49,1.72Zm-82.59-.25c.33.08.47.35.98.25v-.74c-.56-.07-.92.06-.98.49Zm81.37,2.21c-1.98-.18-3.54.11-5.14-.25-.65-.14-1.24-.72-1.96-.74-3.16-.07-4.64,2.92-7.6,3.69-.7,2.09-2.34,3.23-3.19,5.17.17,1.81-.23,3.05-.49,4.43,1.23,3.44,3.07,6.26,5.64,8.36.92-.18,2.83.76,4.17.98.75.18.72-.42,1.47-.25.77.21,1.04.93,1.96.98h2.45c.06-.43.42-.56.98-.49.56-2.15,2.92-2.48,3.92-4.18h.98c-.1-2.23,3.18-2.85,1.47-5.16-.9.17-1.78.34-2.94.25-1.06-1.14-2.65-1.77-2.94-3.69,1.48-1.59,2.87-3.87,5.39-3.69-.39-2.21.96-3.24,0-4.67-1.17.57-2.94.61-3.67-.49.3-1.14,1.47.04,1.22-1.72-1.24-.69-1.78.61-1.72,1.48Zm-37.5,1.72c1.95-.76-.43-2.37-.98-2.95-.76,1.21,1.15,1.55.98,2.95Zm-59.31.98c1.75.7,3.78-.03,3.68-1.97-1.27-2.23-5.81-1.09-3.68,1.97Zm50.49-3.2c-.1.55-1.3,0-1.47.49-.05,1.85.3,2.58,0,4.18.92-.41.6-1.98,2.94-1.48.39.18-.06,1.2.74.98.98-1.27-1-3.51-2.21-4.18Zm48.28.74c0-.25-.43-.31-.49,0,.28-.03.38.36.49,0Zm-44.85,3.94c1.54.52,3.71-.17,4.66-.25-.49-.53.42-2.13-.25-2.95-.81-.06-2.29-.34-3.43-.74-.49,1.23-1.52,2.38-.98,3.94Zm-43.38-1.72v-1.23h-.74c.03.63.05,1.27.74,1.23Zm3.19-.74c.55.1,0,1.3.49,1.48.95-.15,1.01-.2,1.71.25.44-2.12-.86-2.52-2.21-1.72Zm89.7,0c-.21,1.46.14-.99,0,0h0Zm-94.36.74c-3.58-1.43-3.69,2.47-1.23,3.2.9-.58,1.8-1.15,2.45-1.97-.33-.06-1.29-.13-1.22-1.23Zm95.58.49c.71.36.71-1.1,0-.74v.74Zm-35.29-.25c-1.71,1.03-.86,3.73.98,3.94.24-.75.66-1.31.98-1.97-.35-.96-1-1.62-1.96-1.97Zm33.58.49c.28.97.28-.97,0,0h0Zm-57.6.49c-.03.79-.91.73-.98,1.48.11.71.52,1.12,1.23,1.23.89-.57,1.5-2.67-.25-2.71Zm-33.58.98h.74v-.49h-.74v.49Zm37.74,3.2c.86.04.88.92,1.22,1.48.04-1.1,1.11-1.19,1.96-1.48,1.67-4.32-4.55-2.85-3.19,0Zm4.17-2.21h.49c.01-.31.31-.34.25-.74h-.49c-.01.31-.31.34-.24.74Zm1.71,2.46c1.08-.12,1.22.34,1.96,0,.41-.41.2-1.44.25-2.21-1.47-1.85-3.79.38-2.21,2.21Zm-52.94.74c.88-.26,1.46-.83,1.22-2.21-1.74-2.03-3.8,1.91-1.22,2.21Zm39.21-1.72c.07-.56-.06-.92-.49-.98.06.44-.25,1.23.49.98Zm31.37,1.72c-1.49-.61.14-1.52-.49-2.71-2.21-.04-.15,3.38.49,2.71Zm-19.36-2.46c-.26,1.43,1.06.1,0,0h0Zm50,1.48c.62-.03.95-.36.98-.98-.31-.01-.34-.32-.73-.25.08.57-.04.94-.25,1.23Zm-66.66-.74c-.28.03-.38-.36-.49,0,0,.25.43.31.49,0Zm2.45.25c-.08-.2-.65-.3-.74,0-.16.57.96.53.74,0Zm9.56.25c0-.25-.43-.31-.49,0,.27-.02.38.36.49,0Zm-13.23.49c-.99-.87-.58.79,0,0h0Zm19.36,1.72c-.15-.51.4-1.71-.49-1.48.15.51-.4,1.71.49,1.48Zm49.02,6.15c-.03-1.03.48-1.34,1.23-.98.01-.34-.12-.54-.25-.74h-.49c-.09.72-2.29,1.29-.49,1.72Zm-30.39-.74c.71.36.71-1.1,0-.74v.74Zm-23.04.49h-.98c-.39,1.14,1.27.85.98,0Zm18.87,2.46c.5.65,1.5.79,2.45.98.52-.93-.09-1.54,0-2.7-1.39-1.1-2.5.04-2.45,1.72Zm-30.88-.98c.47.11.44.7,1.23.49.04-.61.05-1.19-.49-1.23-.03.46-.81.17-.74.74Zm6.37.74c-.13-.77-.91-.89-1.71-.98-.21,1.1,1.1,1.48,1.71.98Zm2.7-.49c-.35,2,.67,2.6,1.47,3.44.78-1.16,1.08-3.39-.49-3.94-.04.46-.83.15-.98.49Zm29.17-.49c-.92.69-.08,1.66-.25,2.95-.59,2.77-.85,5.87-.98,9.1.08.58.76.55.98.98.05,2.41,1.98,2.93,1.96,5.41.99.48,1.67,1.28,1.96,2.46,1.89,1.87,4.06,3.47,5.64,5.66.82.24,1.43.7,1.96,1.23,1.51,1.98,1.82,3.76,1.96,6.89-.64,1-1.69,1.59-1.72,3.2,3.09.46,4.39-2.96,5.39-5.41-.59-1.79-.32-2.93.49-4.18-.74-.9-.74-2.54-1.47-3.44.12-3.57-2.77-4.11-3.92-6.39.06-1.54-.16-3.22,1.71-3.44,2.05.47,2.67,3.46,4.9,2.95-.85-2.43-1.58-4.98-2.45-7.38-3.71-.59-7.19-3.4-11.27-4.43-1.37-2.07-2.26-4.62-4.17-6.15h-.74Zm-23.53.98c-1.72.26-1.51,4.28.25,4.18.48-.03,1.51-1.72,1.47-2.95-.63-.94-1.21-1.31-1.71-1.23Zm2.7,2.21c.29.97.29-.97,0,0h0Zm2.7-.25c-.26,1.43,1.06.1,0,0h0Zm42.4,2.71c.83-.07,1.99.19,2.45-.25.06-1.61-1.01-2.1-2.45-2.21-.37.45-.37,2.01,0,2.46Zm-100.24.49c1.69.84,2.81-.48,2.45-2.46-.65,0-1.4.09-1.72-.25-.63.51-.9,1.39-.73,2.71Zm57.1-1.72h.49v-.49h-.49v.49Zm-58.33,1.23c.04-.61.05-1.19-.49-1.23-.39.37-.36,1.4.49,1.23Zm5.15-.25c.44.87.48,2.14,1.96,1.97.96-.26.98-1.47,1.22-2.46-.98-.73-2.65-.51-3.18.49Zm64.21,2.71c1.2.81,2.56.33,3.43-.49-.14-3.72-5.46-4.03-3.43.49Zm-12.01.25h1.72c.01-1.05,1.17-.96.73-2.46-1.06-.09-1.73-.56-2.45-.98-.13,1.37-.87,2.31,0,3.44Zm40.2-1.72c-1.94.13-1.81,3.3.73,2.71.65-.9.62-2.57-.73-2.71Zm-62.74,2.21c-.16,1.33.62,2.37,2.21,1.72v-1.48c-.63-.19-1.73-.65-2.21-.25Zm65.68,2.46c.31.84,1.14,1.15,2.45.98.58-.41.53-1.44.49-2.46-1.03-.9-3.3-.46-2.94,1.48Zm-98.77.74c1.01.19,1.26-.38,2.21-.25v-1.72c-1.19-1.47-3.43.29-2.21,1.97Zm64.21.98c2.53,2.46,4.2-2.15,1.47-2.95-1.72-.25-1.52,1.42-1.47,2.95Zm-42.65.25c.77.12.87-.44,1.71-.25.14-.75.55-2.03.25-2.46-1.77-.22-1.73,1.38-1.96,2.7Zm75-1.72c.28.21.66.32,1.23.25.18-.92-.28-1.2-.98-1.23.05.47-.28.54-.25.98Zm8.09,0c-.19.06-.48,0-.49.25.19-.05.48,0,.49-.25Zm-69.36,1.48c.05,1.79,1.75,3.11,3.19,2.71.28-1.41-1.33-4.06-3.19-2.71Zm-30.14,4.67c1.19-.52,2.53-.9,2.7-2.46-.63-.26-.73-1.07-1.47-1.23h-.73c-.43,1.5-.23,2.27-.49,3.69Zm63.97,0c2.21.41,2.14-1.46,2.94-2.46-.88.14-1.04-.81-1.96-1.23-1.27.35-2.03,2.47-.98,3.69Zm26.96-1.23c1.25.63,2.58,0,2.45-1.48-1.33-1.27-3.52-1.05-2.45,1.48Zm-86.27-1.48c.28.97.28-.97,0,0h0Zm30.39,1.97c.28.54.82.82.98,1.48,1.58-.3,3.39-.37,3.68-1.97-1.46-1.33-4.26-2.76-4.66.49Zm-37.99.74v-1.72c-.74-.49-2.23-.69-3.19-.25-.44,1.98,2.23,1.95,1.71,3.2.61.04.77-.38.98-.74l.12.12.12.12c.61.29.3,1.51,1.47,1.23.28-.29.28-.87.24-1.48-.58,0-.72-.42-1.47-.25l.12-.12-.12-.12Zm22.79-.98c-1.41.43-.92-1.04-1.96-.98-1.87-.08-2.4,1.2-2.45,2.95,1.11.57,3.16.12,3.68.98.97-.91,1.98-1.78,3.43-2.21.08-.9-.27-1.37-.49-1.97-1.43.1-2.27.14-2.2,1.23Zm9.07,1.23c-.21-1.12,1.47-1.63.74-2.46-.34.87-2.25,1.87-.74,2.46Zm32.6-1.72c.33.32.91.32.98-.25-.33-.32-.91-.32-.98.25Zm-17.65.25h.49v-.49h-.49v.49Zm-11.77,3.69c.61-.21,1.31-.32,2.21-.25.49-.95.62-2.1,0-2.95-2.22-.43-3.06,2.02-2.21,3.2Zm28.43-2.71c.28.97.28-.97,0,0h0Zm32.6,0c0,.65-.14,1.45.49,1.48.42-.15-.02-1.17.49-1.23.38-.02.85.03.74-.49-.85-.2-.94.37-1.72.25Zm-51.71,2.95c.84.66,2.38.86,3.19.25v-2.21c-.37-.37-1.4-.07-1.23-.98-.61.21-1.9.48-2.45,0,.15,1,.75,1.54.49,2.95Zm28.68-1.23c1.19-.08-.11-.95-.49-.98-.03.44.3.52.24.98h-.24v.25c-1.73-1.07-3.39.2-2.94,2.71.85.37,1.52.93,2.7.98.86-.44.99-2.67.49-3.69h.25v-.25Zm-30.39-.49c-.11.77.52.79,1.23.74.27-.99-.75-1.22-1.23-.74Zm-16.67.74c.21-.51-.63-1.1-.73-.49.35.06.41.4.73.49Zm25,0c.28.97.28-.97,0,0h0Zm14.46.74h.49v-.49h-.49v.49Zm28.92,1.48c1.09.11,1.82-.14,1.72-1.23-.48-1.67-2.9-.15-1.72,1.23Zm-54.41.98c.76.22,1.14.82,1.96.98.98-.86,1.88-1.83,1.22-3.69h-2.7c0,1.07-.76,1.37-.49,2.7Zm-17.89-1.97c-.3.74.2,1.32-.24,2.21.98.17,1.14,1.15,1.47,1.97.93-.79,1.59-1.85,2.94-2.21-.08-.57.04-.94.25-1.23-1.1-.58-2.71-1.52-4.41-.74Zm26.47,2.95c.31.68,1.25.71,1.72,1.23,1.24-.5,2.78-2.12,1.47-3.69-2.2-.33-2.94.82-3.19,2.46Zm-33.33-.74c-.29-.04-.21-.45-.25-.74-1.2-.14-.25,1.88-1.23,1.97-1-.61-.07-1.68-.98-2.21-.15.78.46.76,0,1.23-.69.2-.63-.35-1.22-.25-1.49.95-1.12,3.92,1.47,3.44.43-1.62,2.11-1.98,3.43-2.71.41.49.66,1.14,1.47,1.23.97-.42,1.78-1,1.47-2.7-.69-.21-1.51-.29-2.21-.49-.26,1-1.08.89-1.71.98h-.25v.25Zm22.06-.49h.49c.01-.31.31-.34.24-.74h-.74v.74Zm6.86.98c.94.19.94-1.18,0-.98v.98Zm-38.72-.25c.28.97.28-.97,0,0h0Zm48.77,3.69c.86.66,2.23.51,3.19,0,.15-.59.35-1.12.24-1.97-.57-1.15-2.27-1.16-3.43-1.72,0,1.28-.56,2.56,0,3.69Zm-56.86-2.71c-.1-.54-1.44-.33-.98.49.07.58.65-.28.98-.25-.08,1.47,1.01,1.77,2.21,1.97.58-.81,1.64-1.14,1.23-2.95-1.44-.05-2.91-.13-3.43.74Zm49.26.74c.83-.28,1.05.17,1.47-.25-.5-.07-.23-.92-.74-.98-.02.63-1.05.26-.73,1.23Zm29.41,1.72c2.14.07,1.52-3.21-.49-2.95-.59,1.11.19,2.02.49,2.95Zm-6.13-1.48c-.03-.63-.05-1.27-.73-1.23-.51.51,0,1.25.73,1.23Zm-66.42-.74c-.32.66-.66,1.31-.98,1.97.82.88,2.41,1.8,3.43.49.14-2.09-.55-2.98-2.45-2.46Zm22.55,1.48c.46.55,1.21-.85,1.96,0,0-.65.09-1.4-.25-1.72-1.26-.18-1.96,1.17-1.72,1.72Zm66.66.74c1.69.52,1.67-1.05,2.7-.49-.38-.78-.09-1.08,0-1.97-.92.16-2.59.54-3.43,0,.09.97.34,1.79.74,2.46Zm-14.95-1.23h.49v-.49h-.49v.49Zm12.74,0c-.59.82.82-.59,0,0h0Zm-66.91.98c-.63-.02-.35-.96-.98-.98-1.14.19-1.93,2.88-.49,3.44.34-.15.04-.95.49-.98-.09.42.19.46.49.49-.18-.76.67-.47.49-1.23l.12.12.12-.12h.49c.04-.29-.05-.44-.25-.49l.12-.12-.12-.12c.07-.44-.23-.51-.24-.25h-.24v.25Zm22.55-.25c.01-.42-.19-.63-.49-.74-.01.42.19.63.49.74Zm1.22,0c0-.25-.43-.31-.49,0,.05.3.27.15.49,0Zm-19.85.98c.09-.75-.8-.51-1.23-.74-.11.77.52.79,1.23.74Zm-13.24.25c.25,0,.29.2.49.25-.02-.39.03-.85-.49-.74v.49Zm63.97,2.46c.36.59,2.06.71,2.7.25,1.28-3.06-3.87-3.33-2.7-.25Zm-31.12-1.72h.49v-.49h-.49v.49Zm1.72.49v2.95c1.4-.34,1.48.64,2.69.49.1-.47.09-1.06.74-.98.14-1.98-.97-2.38-2.21-3.44-.32.42-.51.97-1.23.98Zm-22.3,0c-.48.84-1.46,1.16-2.94.98-.2.69.34.64.24,1.23.75.18.89-.25,1.47-.25-.18.76.67.47.49,1.23.89-.08,1.6.04,2.21.25.75-1.56.62-3.2-1.47-3.44Zm-1.96,9.84v-1.48c-2.34-2-2.71-5.97-7.35-5.66-.86-.69-1.77-1.34-2.7-1.97-1.52.52-3.89-.92-5.88-.49-.43.09-.71.6-1.22.74-1.29.35-1.68.05-2.21.74-1.67,0-2.66.42-4.17,0,.29,1.69-.85,2.37-1.23,2.95-.59.93-.76,1.87-1.72,2.21-.71,2.13-.78,3.39-.73,6.15.79,1.48.2,2.89,1.47,3.94.12-1.68,1.18-2.42,1.22-4.18,2.91-2.63,5.9-6.3,10.54-6.39.48,1.16,1.35,1.93,1.71,3.2-.3.51-.71.92-1.22,1.23-2.56-.5-4.16.73-6.62.98-.04.37.09.91-.25.98.02,1.86,2,1.76,2.21,3.44,1.29-.99,2.85-.61,4.41-.25.77.12.65-.66,1.23-.74.47.11.62.53,1.23.49,1.56-1.31,5.18-.54,6.62-1.97,2.39.33,4.59-.23,6.62.74.94-2.06-1.18-3.01-1.96-4.67Zm-27.2-8.36c.28.8,1.43.86,2.21.49.18-.75-.25-.9-.24-1.48-1.01-.02-1.93.03-1.96.98Zm62.99-.49c-1.52-.71-3.28-.61-3.68.98.79,1.01.64,2.97,2.21,3.2,1.35-.04,1.52-1.26,1.96-2.21.46-.11,1.48.33,1.23-.49-.71-.35-1.74-.39-1.72-1.48Zm33.58,1.23c.58,0,.72.42,1.47.25-.02-.88-.11-1.69-.74-1.97-.49.33-.95.68-.74,1.72Zm-40.44,0c.53-.51.01-.84-.49-.98-.07.56.06.92.49.98Zm25,.98v-.74h-.74c-.05.54.2.78.74.74Zm-42.89,2.46c1.29.14,1.71-.58,2.7-.74-.17-.73-.28-1.52-.73-1.97-2.32-1.05-3.13,1.25-1.96,2.71Zm7.11-1.48c.16.66.7.94.98,1.48.89-.09,1.46-.5,2.21-.74.52-2.52-3.09-2.86-3.19-.74Zm38.97.74c1.58.27,1.86-.76,1.96-1.97-1.91-.57-3.23.83-1.96,1.97Zm13.72-.98c-.25.03-.5-1.06-.74-.25.25-.03.5,1.06.74.25Zm-9.56,2.46c0-.65.14-1.45-.49-1.48.16.92-.68,1.44.49,1.48Zm-32.11-1.23c-.88.79-.59,3.37.25,3.94.8-.14,1.14.17,1.71.25,0-1.06,1.16-.97,1.47-1.72-.59-1.38-1.44-2.5-3.43-2.46Zm-15.44.98c-1.14,4.25,4.61,3.4,2.45-.74-.94.08-1.55.15-2.45.74Zm-11.76,1.48h1.71c.11-.85-.1-1.38-.24-1.97h-.98c-.69.57-.05,1.05-.49,1.97Zm36.03,2.46c.17-1.14,1.49-1.13,1.23-2.71-1.63-2.64-3.37,1.71-1.23,2.71Zm-14.46,0c2.17-.07,2.09-4.02-1.23-3.44-1.22,1.47-.01,3.48,1.23,3.44Zm16.42-3.44c-.19.05-.48,0-.49.25.19-.06.48,0,.49-.25Zm26.71.98c.56.07.92-.06.98-.49-.36-.39-1.09-.27-.98.49Zm-34.56,4.92c.99.08.88,1.25,1.96,1.23.83-.31,1.4-.89,1.72-1.72-.66-2.14-3.88-2.73-3.68.49Zm6.37-2.21c-.21,1.45.14-.99,0,0h0Zm-26.71,1.48c-.38,1.26.38,1.2,0,2.46.74.61,1.09.32,2.21.25,1.27-2.09-.14-4.6-2.21-2.71Zm-40.44.49h.49v-.49h-.49v.49Zm45.83-.25v1.23c1.55-.08.8,2.15,2.21,2.21.19-.85-.27-1.04-.49-1.48.97.24.76-.71.98-1.23-.24-.85-1.8-1.33-2.7-.74Zm5.64.49c-.56.66-.85,1.6-.73,2.95,1.67.71,3.82-.06,3.68-1.97-.54-1.08-1.56-1.31-2.94-.98Zm4.41,2.46c.58.65,1.09,1.36,2.21,1.47.78-.61,1.13-1.65,1.23-2.95-1.14-1.55-3.46-.32-3.43,1.48Zm-9.56.25c.23-1.05-.59-1.05-1.47-.98-.1.92,1.14,1.25,1.47.98Zm18.87,1.72c.88.15,1.19-.29,1.71-.49v-1.97c-2.04-.32-2.46,1.23-1.71,2.46Zm13.23.49c.57.33.81.99,1.96.74.55-.51.77-1.36.98-2.21-.53-.78-1.42-1.19-2.45-1.48-.29.85-.53,1.76-.49,2.95Zm-72.55-1.23c.05.46-.28.54-.25.98.57.66,1.3,1.15,2.21,1.48.52-.71,1.42-1.04,1.47-2.21-1.06-.61-2.16-.89-3.43-.25Zm41.42.25c.21-.51-.63-1.1-.74-.49.35.06.41.41.74.49Zm14.95.25c.21,1.06,1.27.62,1.71.49-.03-1.26-.81-.34-1.71-.49Zm-31.62,24.1c2.78-2.54,4.4-6.24,6.37-9.59.17-3.59-1.61-5.47-1.72-9.35-1.33-1.54-2.54-3.19-4.17-4.43-.83.82-1.97-.15-2.45-.49-2.01-.38-2.58.69-4.16.74-1,.1-.99-.81-2.21-.49-2.12,1.73-5.56,2.13-7.6,3.94-1.34,3.26-2.13,7-3.68,10.58.4,1.89.77,3.82,1.72,5.16,1.88-.33,2.33-2.09,3.92-2.71,1.71-.1,2.15-.29,3.43-.49.61.94,1.6,1.51,1.96,2.71.09,2.46-2.35,2.4-2.45,4.67.19.05.29.21.24.49,3.72.64,6.64-.16,10.78-.74Zm28.68-19.43c2.29,1.6,4.31-1.82,2.45-3.69-3.39-1.28-4.07,1.87-2.45,3.69Zm-5.88-2.71h.74c-.04-.37.09-.91-.25-.98,0,.49-.67.31-.49.98Zm-41.66-.25c-.01.75.22,1.25.73,1.48.06-.35.54-.28.74-.49-.15-.58-.33-1.15-.98-1.23-.05.19-.21.29-.49.25Zm34.31,0c.28.97.28-.97,0,0h0Zm15.44,19.68c.36-.62.87-1.1.98-1.97.22-4.07-1.24-6.47-3.19-8.36-1.17-4.16-5.2-5.44-8.33-7.62-.69-.3-1.51-.3-2.21,0-.87-.8-1.57-1.52-3.19-.98-1.03-1.82-1.97.77-3.43.74-1.02-.45-2.04-.91-3.19-1.23-.56.66-1.47.98-1.47,2.21,1.79,3.87,2.9,8.4,4.41,12.54.61-.04,1.19-.05,1.22.49.41.41.2,1.44.24,2.21,2.39.46,6.77,3.26,8.58.49-1.08-1.46-3.25-1.82-3.43-4.18.35-.72,1.03-1.1,2.21-.98.45-.69.96-1.33,2.21-1.23.82.24,1.12,1.01,1.96,1.23.83,2.2,2.37,3.69,4.17,4.92.36,1.44.67,2.94,1.47,3.93.04.7-.21,1.69.49,1.72,1.31-.63,1-2.62.49-3.93Zm-25.98-17.22c.96.24,1.7-.99.73-1.23-.07.58-.85.46-.73,1.23Zm47.79-.98c-.75,1.34.14,2.9,1.96,2.46.5-.4.57-1.23.49-2.21-.48-.4-1.78-.79-2.45-.25Zm-4.41,1.72c-.21-1.88-3.04-1.54-2.45,1.48,1.63.43,2.58-.36,2.45-1.48Zm-76.22.49c.64.26.91.89,1.72.98.46-.35,1.09-.55.98-1.48-.67-1.21-2.61-1.28-2.7.49Zm85.05-.98c.28.97.28-.97,0,0h0Zm-23.04.98c.05-.54-.2-.78-.73-.74-.05.54.2.78.73.74Zm22.55,1.23c.65-.09.83-.65.98-1.23-.33-.08-.47-.35-.98-.25v1.48Zm-80.14.74c.32.99,1.13,1.49,2.21,1.72.87-.81,1.48-2.84,0-3.44-1,.31-1.99.62-2.21,1.72Zm-6.37.74c-.15-.51.4-1.71-.49-1.48.03.63.14,1.17.49,1.48Zm71.32-.25c.11,1.36-.69,2.57-1.47,3.69.34.64.34,1.63.74,2.21,2.53-.33,2.22-3.51,3.43-5.16-.33-.16-.46-.53-.49-.98-.77.05-1.8-.17-2.2.25Zm-1.96,1.48c.8.06,1.18-.29,1.23-.98-.49,0-.31-.67-.98-.49-.28.29-.28.87-.25,1.48Zm9.8,1.23c1.47.2,1.97.17,2.94-.49-.29-1.27-1.09-2.02-2.7-1.97-.07.83-.39,1.41-.24,2.46Zm-15.44-.74c-1.22,1.77-1.58,4.85.74,5.9,1.28-.52.73-2.87,1.96-3.44,1.28.43,2.5-.79,2.45-2.46-1.79-1.45-3.07.15-5.15,0Zm-61.27,1.23c-.09,1.57.66,2.29,1.96,2.46.7-.52,1.38-1.08,1.47-2.21-.18-1.63-2.82-1.38-3.43-.25Zm58.82,1.23v-.74c-.29.04-.7-.04-.73.25.38.02.19.63.73.49Zm-51.47.49c-.19.05-.48,0-.49.25.19-.06.48,0,.49-.25Zm65.44,5.41c.89-.16,1.31.17,1.72.49,1.06-.33.24-2.54,1.47-2.71-.13-2.25-1.97-2.78-3.92-3.2-.9,2.07.07,3.69.74,5.41Zm-5.64-4.43c-.21,1.45.14-.99,0,0h0Zm-62.5,3.94c.87-.22.6-.03,1.47-.25,0-1.07.15-2.28-.49-2.71-1.76-.48-2.05,1.83-.98,2.95Zm60.29-1.48c.29,2.42.2,5.21,1.71,6.39,2.85-1.15,2.28-8.47-1.71-6.39Zm-68.38,1.48c0-.49.67-.31.49-.98h-.73c.04.37-.09.91.25.98Zm37.5.98c1.65,1.03,4.4,1.36,4.41-1.48-2.03.12-3.6-.2-4.41,1.48Zm-33.82.49c.11.96.18,1.95.49,2.71.91-.53,1.2-.24,2.21-.49.17-1.01.23-2.68-.49-3.44-.07,1.08-1.7.59-2.21,1.23Zm7.35-.25h.49v-.98h-.49v.98Zm26.71,1.48h.74v-.49h-.74v.49Zm2.94,1.72c.38.52.91.89,1.96.74-.2-.85.37-.95.25-1.72-.76-.79-2.4-.55-2.21.98Zm-24.26,1.23c.75.18.47-.67,1.23-.49-.06-.76-.25-1.39-.49-1.97h-.98c-.73.85-.32,1.49.25,2.46Zm49.26-.98c.52.22.72.75,1.47.74.74-.71.72-2.59-.98-2.21.19.85-.27,1.04-.49,1.48Zm-10.29.74c.93-.1.93-1.13,1.96-.49.26-2.56-3.9-1.25-1.96.49Zm-20.34,0c.79.11.87.94,1.72.98.16-.74.94-.86.73-1.97-.76-.96-2.71-.52-2.45.98Zm-26.71,2.46c1.28.14,1.84-.45,2.2-1.23-.05-1.18-.54-1.92-1.96-1.72-1.21.4-1.15,2.27-.24,2.95Zm59.06-2.21c-.36.94,1.1.05.74.98.13,1.11-1.6.36-1.71,1.23,1.16.18,1.61-.35,2.21-.74.23-1.12-.46-2.12-1.23-1.48Zm-20.34,1.97c1.11.13,1.6-.36,1.47-1.48-.29-.28-.87-.28-1.47-.25-.32.76.07.7,0,1.72Zm12.74.49c-.22-.68.5-2.31-.49-2.21-.32.73.07,1.56.49,2.21Zm-57.11-1.48v1.23c.43-.02.76.06.98.25-.02-.71,1.03-1.41,0-1.72-.05.36-.59.23-.98.25Zm51.71.98c.01-.15.04-.29.24-.25-.03-.3-.07-.58-.49-.49.04.29-.04.7.25.74Zm.73,0h.73c-.04-.29.04-.7-.24-.74-.06.35-.4.42-.49.74Zm-6.62.74c.02,1.13.7,1.6.98,2.46,1.3.07,2.44-.01,3.19-.49.42-1.74-1.26-1.36-.98-2.95-.73.33-1.24.25-1.71-.25-.14.76-.89.91-1.47,1.23Zm-36.76.25c1.09.04.6-.83,0-.98v.98Zm23.53-.49c-.49,0-.31-.67-.98-.49-.18.55.9,1.01.98.49Zm10.05,3.44c-.16-.98.65-.99.49-1.97-.47-.84-1.21-1.41-2.7-1.23-.17,1.98,0,3.61,2.21,3.2Zm-28.92-2.46c-.84-.23-1.44-.69-2.7-.49-1.16,2.52,2.67,2.99,2.7.49Zm21.57-.49c.06.96-.89.91-.74,1.97.7,1.42,4.17,2.24,4.17-.25-.61-1.11-1.43-2.01-3.43-1.72Zm-6.13,3.2c.4.42,1.02.61,1.96.49.28-.54.63-1,.49-1.97-1.22-.61-2.68-.53-2.45,1.48Zm-23.04-.49c.19,1.28,2.16,1.7,2.94.98.98-1.89-2.42-3.06-2.94-.98Zm17.89,2.21c.9-.16,1.29-.84,1.47-1.72-.94-3-4.42.92-1.47,1.72Zm-7.35-1.72c-.17,2.22,1.95,1.79,1.96,0-.77-.42-1.29-.53-1.96,0Zm21.57,1.97c.42.06,1.45-.46.74-.74.1.59-1.12-.14-.74.74Zm-29.66-.25c0-.25-.43-.31-.49,0,.28-.02.38.36.49,0Z"/>
  <path class="cls-12" d="m224.01,15.25h-.25c-.71.96.28,1.9.98,2.21-.64.62.74,1.84-.74,1.72.39,3.61.48,5.3,0,8.36,1.37,1.17,1.37,2.69,1.96,4.92-.3,1.09-1.44,1.34-1.23,2.95-.33,1.07.95.52.74,1.48.04,1.35-.78,1.84-.98,2.95.71.92.43,2.79-.49,3.44-.14,1.61.36,2.59,1.23,3.2.78,2.8-1.18,3.94-.49,6.4-.88,1.44-.46,2.77-.98,4.67.98,1.74.58,3.67,1.47,5.16-.57,2.94-.94,5.31-1.23,7.87.29.73.21-.9.98-.49.94,1.25.09,3.7-.49,4.92,1.22,3.34.88,6.33,1.22,9.84-.17.49-1.37-.06-1.47.49.19,1.05,1.19-.22,1.71.49.7,2.18.12,4.05,0,5.9-.99-.23-1.13-.11-1.71.49-.23,1.62,1.43,1.35,1.71,2.46-.59,1.79-.28,4.47-1.71,5.41.18.56.93.54.98,1.23-1.23,4.79.68,8.84-.49,13.28.31.6.79,1.02.98,1.72-1.31,2.62,1.11,6.41-.74,8.61.31.95,1.04.93.98,1.72.07.77-.55.35-.73.98-.36,1.2.62,3.42-.49,3.94-.07.97,1.05.75.98,1.72-.19,1.86-.12,2.36.25,3.93-.58,3.21.19,7.01-1.71,9.35.16,1.83,1.83,5.06-.25,6.15.11,1.37,1.47,1.47,1.96,2.46-.54.98.07,1.76,0,2.95-.33.41-1.39.08-1.71.49.83.48,1.8.81,2.45,1.48.04,1.74.29,2.72-.49,3.94-.48,4.85-.2,9.33-1.23,13.28.08,1.15.77,1.68.74,2.95-.34,1.2-1.69,3.13-.25,3.94-1.72,5.14,2.44,11.27-.74,15,.5,4.13.85,8.07,0,12.3.68,1.56.75,4.35,0,5.9.41,1.72.77,3.49.98,5.41-.43,1.05-1.12,1.83-1.72,2.71-1.42.35-2.13-.08-3.43.25-2.13-1.69-6.43-1.54-9.31-1.23-3.13-1.24-8.07.21-10.05-.25-.75.06-1.1.53-1.71.74-.9.16-.94-.53-1.71-.49-3.59,1.07-7.55-1.23-10.54,0-1.76-.41-5.05-.61-6.86.25-1.25-.44-3.45-.78-4.9-.25-.8-.1-1.08-.72-1.72-.98-.66.63.66.35,0,.98-2.32.04-4.44-.03-6.86.49-3.69.79-6.36,2.51-9.31.25-2,.04-3.91-.02-5.15-.74-.72-.06-.75.56-1.47.49-1.3-.47-2.53.45-3.19-.74-1.32,1.11-4.28.14-5.39.74-1.11.6-.57-.17-2.21-.49-1.36-.27-2.76.16-3.92.49-4.95-.03-9.66-.66-13.73-.49-.02-.39.12-.94-.24-.98-.33.08-.2.62-.25.98-2.27.03-4.38.48-5.39-.49-2.32.64-5.2,1.7-8.09.98-.96-.06-1.27.53-1.96.74-.71.06-.85-.46-1.23-.74-1.21.75-3.18.33-4.41-.25-.78-.04-.82.65-1.72.49-.72.04-1.16-.24-1.96-.25-1.54-.02-3.14.47-4.66.49-1.69.02-1.13-.34-2.7,0-3.28.72-7.32-.82-11.76.49-.93-.05-1.19-.77-1.96-.98-2.32.31-5.06.01-6.86.25-.54.07-.97.45-1.47.49-3.85.29-7.92-.57-11.76,0-.62.09-1.32.47-1.96.49-2.46.08-5.25-.7-7.6-.25-.29.04-.21.45-.25.74-1.43-1.83-3.83-.22-6.62-.25-1.71-.02-3.32-.75-4.66-.74-.88,0-1.81.27-2.7.25-1.14-.04-3.03-.54-4.41-.49-.65.16-.9.74-1.23,1.23-.77.12-.69-.62-.98-.98-5.39.94-11.54-.71-19.12.49-.73-.35-.02-.62-.49-1.23-.87-.38-.15.84-.74.74-1.83.04-1.37-2.23-2.45-2.95.01-3.37-2.88-6.68-.49-10.08-.06-.92-.78-1.19-.98-1.97-.23-1.13.61-1.19.49-2.21.28-1.02-.52-.96-.49-1.72.39-3.74.72-7.96.49-11.81-1.73-1.59.09-6.84-.98-7.87.15-.67,1.02-.61.98-1.48-.11-6,1.26-11.13-.98-15.99,2.5-4.41-1.52-11.17.73-15.25-.23-.83-.57-1.56-1.47-1.72v-3.2c.46-.36,1.27-.36,1.47-.98-.14-1.73-.53-3.67-.24-5.66.3-2.07,1.44-5.58.98-8.85-.07-.48-.44-.97-.49-1.48-.25-2.66.42-5.22.24-7.62-.15-2.13-1.27-3.93-2.21-5.41.21-1.02.88-1.57,1.47-2.21,1.29-3.03-.41-4.71-.73-7.62-.19-1.71.23-3.08-.74-4.18.53-1.21.27-1.69,1.22-2.46.76-2.34-.7-4.31,0-6.39-.21-1.03,1.1-.54,1.47-.98.33-2.3-1.54-3.6-1.47-5.41.04-1.07.74-1.44.98-2.71-.05-.68-.78-.7-.98-1.23.2-1.7.19-2.25-.49-3.69.35-3.16.59-5.74.24-9.1.55-.67.94-1.52,1.47-2.21-.29-.69-.27-1.7-.25-2.71-.1-.84.73-.74.98-1.23-1.13-1.16-.02-4.57-.73-6.15.07-1,.78-1.35.49-2.7-.64-1.51-2.07-4.69-.49-6.15-1.48-3.45,2.34-7.88-.49-10.82-.06-.72.55-.76.49-1.48-1.04-4.1-1.28-8.66.49-11.81.08-1.39-.43-2.19-.25-3.69-.22-.79.81-.34.74-.98-.11-.39-.77-.21-.49-.98.62-5.54-.77-10.72-.49-16.23C.77,4.27,2.58,1.53,3.68,0c9.22.78,17.34-.16,24.02,1.48,2.34-2.22,6.79-.28,10.54-.74C39.35.6,40.35,0,41.42,0c.64,0,1.06.41,1.71.49,2.27.28,4.94-.51,5.88,1.48C50.21.55,52.93.65,54.9,0c1.91.31,2.59.34,4.17.98.88-.02,1.42-.38,2.21-.49,1.05-.03,2.05,1.04,2.7,0,.83.48,2.4.22,2.94.98,5.23.36,9.5-2.69,13.72-.49.69-.37,1.53-.59,2.7-.49.96.26.78.88,1.72.98,1.25.14,2.91-1.24,4.66-.25,1.14-.33,1.67-1.28,3.43-.98.77-.12.69.62.98.98,1.67-1.2,3.86-.91,5.88-.25,1.28.06,1.85-.6,2.94-.74,1.54.91,4.89.01,6.37.98,3.35-1.09,7.78-.68,11.52-.98,1.01.14,1.58.7,2.7.74.96.06,1.27-.53,1.96-.74,5.63.74,11.63.45,16.91.49,2.4.02,4.72,0,6.62.49.82-.21,3.26-.69,3.68.25.48-.5,1.58-.38,2.21-.74,2.04.69,5.55.69,7.6,0,2.66.56,6.14.27,9.31.25,7.92-.06,15.47-.26,23.77,0,.79-.22.34.8.74.98.6-.3.65-1.15,1.47-1.23,5.18.59,10.19-.08,14.7.98,3.87-.2,8.88-.88,11.52,1.23.32.66.66,1.31.98,1.97-.22,1.25-.29,2.2.25,3.2-.94,1.54-1.71,4.49-.98,6.89h-.25v.25ZM152.93,2.71h.74c.07-.56-.06-.92-.49-.98.02.43-.05.76-.24.98Zm-70.1.74c.01-.15.04-.29.25-.25-.03-.3-.07-.58-.49-.49.04.29-.04.7.24.74Zm35.54.74v-.49c-.45-.82-1.2.74,0,.49Zm72.79.25c-.06-.44.25-1.23-.49-.98-.07.56.06.92.49.98Zm-97.54,0c.01-.15.04-.29.25-.25-.03-.3-.07-.58-.49-.49.04.29-.04.7.24.74Zm124.5,0h.49v-.49h-.49v.49Zm-3.43,1.72c-4.03.01-8.17-.06-12.25,0-1.09.02-2.18.53-3.19.49-.4-.02-1.09-.46-1.47-.49-7.23-.67-13.36-.73-20.34-.49-.88-.27-1.64-.65-2.45-.98-5.7.47-11.83.19-17.89,0-2.51-.08-5.21.55-7.84.49-2.18-.05-4.66-.68-6.62-.49-.43.04-.81.52-1.22.49-.53-.03-1.14-.86-1.72-.49-2.5.41-5.48.74-7.35-.49-.35.14-.6.38-.74.74-4.43-.82-8.77.87-12.74.49-.7-.07-1.27-.47-1.96-.49-.89-.02-1.8.27-2.7.25-.89-.02-1.83-.48-2.7-.49-1.45-.02-2.91.7-4.41.74-1.63.04-3.78-.17-5.15-.25-1.39-.08-1.12-.25-1.96,0-2.79.84-5.34-.72-7.35.25-1.51-.83-3.29-.38-4.66,0-5.79-.65-8.65.95-14.21-.25-2.9,1.03-7.46.26-10.29.74-1.93-1.62-4.52.63-7.35-.74-7.21,1.19-16.29-1.03-24.75.74-7.49-1.37-14.7,1.16-21.32,0-.99,2.62-2.24,5.27-.98,8.61-.24.99-.5,1.96-.74,2.95.14,9.64-.6,18.8,0,28.28.03.76-.77.7-.49,1.72.63,2.4.84,5.38-.24,7.38.16.91.39,1.73.73,2.46-1.79.95-.04,3.92-1.22,5.41,1.65,1.5.07,4.17.24,6.39-.19,1.17.87,1.09.74,2.21-1,3.04-.13,7.43-1.22,9.84,1.73,6.73-1.39,14.21.73,20.91-.41,2.17-.13,3.7-.98,5.16.88,2,.01,4.36,1.22,6.15-.9,1.55-.27,4.65-1.22,6.15,1.27,3.19-.65,6.09,0,10.33.8,1.43.4,4.22.49,6.89.12,3.55.85,7.79.49,12.54.34.97.78,1.84,1.23,2.71-.94,4.7-.63,8.69-1.72,12.54,1.31,6.97-.41,15.21.49,21.15-1.4,1.91-.6,3.83-.49,6.15.1,2.11-.71,4.07.49,5.41-.42.81-.22,2.24-.73,2.95,1.04,3.31,1.17,8.11.73,12.54.13.69.36,1.28.49,1.97-.52,1.61-.22,4.04-1.22,5.16,1.25,1.13-.51,1.39.24,3.2,1.22.32.35-1.46.98-1.72.66-.11,2.13.08,2.94-.49,1.46.1,2.58.82,4.17.98,1.73.18,3.64-.59,5.39-.49.8.04,1.45.48,2.21.49,4.03.09,8.25-.04,12.25,0,1.79.02,3.49-.79,4.9.25.79-1.02,1.52-.13,2.7,0,5.69-.89,11.72.36,16.67-.74.74-.27,2.7.8,3.92,0,.64-.07.19.95.98.74,1.74-.24,4.62-.76,5.88,0,.5-.32.45-1.19,1.47-.98,1.78.74,4.74.54,6.13-.49,1.53,1.95,5.05.59,7.6,1.23.82,0,.84-.8,1.71-.74,3.12.67,6.02-.05,10.29.49,2.42-.6,5.16,0,8.33-.49,2.81,1.02,5.75-.13,8.82,0,3.91.17,8.08.66,12.01.49,1.15-.05,2.29-.53,3.43-.49,1.61.05,2.98.89,4.66.49.85-.14,1.09-.88,2.21-.74,3.22.86,6.52-.1,9.8.74.69-.72,1.41-.66,2.21-.74,3.09-.29,7.73.26,10.54.25,1.55,0,3.23-.73,4.66-.74,2.31,0,4.67.89,7.11.74,1.34-.08,2.31-.43,3.68-.49.98-.24.74.73,1.72.49,2.87-.76,8.88-1.51,11.27.25,2.25-1.43,6.47-1.84,9.31-.74,2.26-1.12,7-.87,9.56-.25.06-1.3,1.22.02,1.47-.98,1.17.19,1.58-.38,2.7-.25.95-.13,1.01.63,1.72.74,1.94-1.29,5.29.75,7.11-1.23.41-1.23.32-2.96.98-3.94-.25-1.29-.91-3.44,0-4.43-.78-.45-.53-1.93-.98-2.71,1.36-6.71.73-13.87.49-21.4.09-.81.57-1.23.98-1.72-1.4-5.69-1.23-11.21-.49-17.22.05-1.03-1.2-.76-.98-1.97.29-3.23-.07-7.12.74-9.84-.63-1.24-1.19-3.64,0-4.67.26.23.08.91.74.74.51-.21-.54-.91-.74-1.23-.32-5.77-.06-12.9,0-18.94.08-7.74-.85-15.6,0-22.38-.21-.53-.63-.84-.49-1.72.68-8.56-.16-16.36.49-24.35-.58-.49-.42-1.71-.74-2.46,1.45-2.32-.5-5,.25-8.36-.27-.88-.66-1.73-.73-2.71-.11-1.53.67-3.43.73-5.41.03-.77-.32-1.72-.25-2.46.06-.59.47-1.11.49-1.72.04-1.43-.4-2.9-.49-4.43-.34-6.04.74-12.3-1.22-16.72.59-.22.65-.99.74-1.72-.38-2.3.36-4.48.49-6.64.5-8.11-.7-15.63-.74-23.36-1.01-1.48-2.6-.74-4.17-.74Zm1.47-.74c.08-.33.35-.47.24-.98-.92-.1-.75.74-.24.98Zm4.9,14.51c.2-.18.66-1.7-.25-1.48-.34.31-.43,1.47.25,1.48ZM4.17,25.58c.28.97.28-.97,0,0h0Zm2.7,3.93c0-.25-.43-.31-.49,0,.05.3.27.15.49,0Zm.24,3.44h.49v-.49h-.49v.49Zm.24,4.43c0-.25-.43-.31-.49,0,.28-.02.38.36.49,0Zm214.2,5.9c-.67.75.75-.67,0,0h0Zm-.24,14.76h.74v-.49h-.74v.49Zm.24,1.72h.49v-.49h-.49v.49ZM3.68,82.39h.49v-.49h-.49v.49Zm217.88.49c.56.07.92-.06.98-.49-.43.06-1.23-.25-.98.49Zm0,1.97c.77-.27.65-.12,1.23.25.34-.32.24-1.07.25-1.72-.78.2-1.39.57-1.47,1.48Zm.25,4.43c-.59.83.82-.59,0,0h0Zm-1.23,2.21c-.14.88.73.75,1.47.74.06-.83-.91-1.27-1.47-.74Zm-217.39,1.72c-.59.83.82-.59,0,0h0Zm.49,6.89c-.25-.16-.25-.57-.74-.49-.08.57-.48,1.02,0,1.48.39.07.42-.23.74-.25v.25h.24c1.15.37.55-1.96,0-1.23h-.24v.25Zm219.1,14.51c-.08-.83.33-2.13-.74-1.97.14.76-.07,1.87.74,1.97ZM4.41,135.76c.06-.35.4-.42.49-.74-.5-.22-1.1.64-.49.74Zm220.58,1.23c.29.97.29-.97,0,0h0Zm-2.7,14.02c.36-.39.51-1.95-.49-1.72.1.64.12,1.35.49,1.72ZM3.19,157.4h.74v-.49h-.74v.49Zm221.31,11.81c1.13-.1.94-1.52.98-2.7h-.98c-.08,1.44-.66,1.54,0,2.7Zm.74,4.18c-.32,0-.22-.43-.49-.49-.28.5.39,1.17.49.49ZM3.19,189.13h.49v-.49h-.49v.49Zm197.29,32.47c.17-.18.61-1.2-.25-.98.04.37-.09.91.25.98Zm18.38.25c.58.32.46-.03,1.23.25.31-1.04.1-1.55-1.23-1.48v1.23Zm-2.45-.49c.28.97.28-.97,0,0h0Zm-27.94.74c-.26,1.43,1.06.1,0,0h0Zm-97.79.74c-.59.82.82-.59,0,0h0Zm66.91-.25c-.74.83.91.75,0,0h0Zm43.62.25c.29.97.29-.97,0,0h0Zm-11.03.49c-.29-.04-.56-.44-.74,0,.29.04.56.44.74,0Zm-141.9.74c.01-.15.04-.29.25-.25-.03-.3-.07-.58-.49-.49.04.29-.04.7.24.74Zm49.51,0h.49v-.49h-.49v.49Z"/>
  <path class="cls-12" d="m224.99,15.99v-.25c.57.06.14,1.08,0,1.23-.33-.08-.2-.62-.25-.98h.25Z"/>
  <path class="cls-12" d="m115.19,9.35c1.46-.07,2.68.1,3.43.74,4.18-.45,8.26-.98,12.25-.25.36-.11-.1-.31,0-.74,2.03.67,4.06-.2,6.13-.25,1.78-.04,3.37.62,5.15.74,3.47.23,7-1.06,9.8,0,.91-.48,2.05-.73,2.94-1.23.92-.18.53.94,1.22.98,2.33-1.16,5.19.63,7.35-.49,4.16.55,7.74-.38,10.78.98,1.47-.95,2.95-.37,4.9-.74.53.94.93,2.02,1.96,2.46,1-.22.6-1.86.98-2.71,2.43.72,3.86.99,6.37.25,1.23.22,1.54,1.17,2.7.25.79-.22.34.8.74.98.72-.26.97-.99,1.72-1.23,1.43.31,4.06.52,5.15-.25,2.42,1.9,6.82.29,10.78.49,1.65.09,2.84.75,4.66,0,.04.29.45.21.74.25,1.25,3.67,1.3,8.54,1.96,12.79.07.65-.34.81-.98.74.07.51.91.23.98.74.31,2.79.34,6.71-.49,9.1,2,4.3-.1,10.34.98,14.26-.98,1.93-.05,4.09,0,6.39.1,4.25-.38,9.13-.24,13.77.09,3.12.15,5.85,0,8.85-.06.96.53,1.28.73,1.97-.1,1.12.03,2.31-.25,3.44-1.5,6.2,1.41,17.37-.98,23.12.09.9.5,1.47.73,2.21-.47,2.18.49,4.04,0,6.64-.07.36-.46.86-.49,1.23-.56,5.86,1.69,12.41,0,18.2.64,2.65.17,4.94.25,8.61.1.84-.73.74-.98,1.23,1.8.47.32,3.81.49,5.66-.99-.07-1.7-.42-2.7-.49.2,1.99,1.09.4,2.7.98.29.85.45,1.85.49,2.95-1.16-.6-1.96.43-3.19.49.89,1.39,1.25-.27,2.7-.25.6,1.87.68,5.59.24,8.36-.41.39-1.1-.3-1.47.49.34.77,1.21-.34,1.47.25.55,7.64-.66,16.46-.49,24.84.05,2.29.76,4.65.74,6.89-.02,2.52-.71,4.8,0,7.13-1.32,5.76,1.1,11.27-1.47,15.99-2.94.08-6.05,0-7.84,1.23-3.88-.23-8.19.47-11.52-.74-1.94,1.11-4.28.37-6.37.49-2.03.12-4.05.62-6.13.98v-.25h-.24c.19-.22.26-.56.24-.98h-.73c-.1.51.17.65.24.98h-.24v.25c-2.42.13-4.41-.17-5.88-.98-4.13.26-8.27.81-12.01.74-3.99-.08-7.41-1.08-10.78-.25-1.23.2-3.07-.54-4.17-.49-.66.03-1.48.48-2.21.49-2.88.04-5.74-.67-8.58-.49-1.92.12-3.6.25-5.39.25-.8,0-1.65-.04-2.45,0-.85.04-1.86.58-2.7.49-.24-.02-.66-.5-.98-.49-1.91.04-3.75,1.06-5.64.25-1,.31-1.9.72-3.19.74-1.07.17-1.09-.71-1.96-.74-1.41-.26-1.95.34-2.94.49-.99,0-1.89-.07-2.21-.74-2.7,1.26-5.17-.54-7.84.74-2.5-.5-5.26.12-7.84,0-.43-.02-.9-.5-1.23-.49-.29,0-.71.46-.98.49-1.41.18-3.11-.14-4.66,0-1.18.11-2.42.5-3.43.49-2.22,0-4.57-.62-6.86-.49-2.14.12-4.65.09-7.11,0-.79-.21-.51.64-.98.74-3.72-1.39-8.22.83-12.25-1.23-.6.3-.66,1.15-1.47,1.23-1.32.17-2.01-.28-2.94-.49-4.46.38-9.7.1-14.7.49-.95-.21-.87.6-1.47.74-.92.18-.53-.94-1.23-.98-2.14.61-4.6-.19-7.11-.49-5.27,1.23-10.29-.22-14.71.74-1.62-.48-2.69-.85-3.92-1.23-.31-2.35-.62-5.3-.49-8.36.02-.6.43-.85.49-1.48.41-4.29-1.01-9.45-.25-13.53.26-.92-.61-.7-.49-1.48.66-5.88.19-10.17-.74-15.74-.12-.52.35-.47.74-.49-.6-9.06,1.1-17.16-.74-27.05-.08-.9.04-1.6.24-2.21-.04-.7-.45-1.02-.49-1.72.22-3.16,1.89-6.55-.25-9.35,0-1.68,0-2.4-.24-3.44.38-.52.88-.92,1.22-1.48-.88-2.48-.9-6.68.25-9.1-.88-2.78-.79-6.31.49-8.61-.21-.86-1.12-1-1.23-1.97.18-.8.44-1.52.74-2.21-.55-3.92.52-7.14-.74-10.08,1.51-5.34.33-10.5,1.47-15.99-.2-1.52-.58-2.86-.98-4.18.87-2.85-.33-6.5.74-8.85-.35-.47-.65-.99-.74-1.72.19-2.06.51-2.51-.25-3.94-.06-1.29.86-1.6.74-2.95.24-.89-1.1-.21-.98-.98,1.37-2.99.2-6.77,1.47-10.08-.48-1.16-.77-2.51-1.23-3.69.34-1.39-.19-3.08,0-4.43.19-1.29,1.05-2.46,1.23-3.69.43-2.96-.6-6.52.98-8.61-1.19-.86-.61-3.49-.74-5.41.48-.67,1.23.86,1.47-.25.05-1.14-.88.24-1.23-.49.45-2.12-.32-1.93-.98-3.2,1.02-2.11,1.36-4.71.98-7.62.33-1.11,1.05-1.84.49-3.2.73-.82,2.53-.58,3.68-.98.55.1.78.53,1.23.74,1.41-.85,5.05.49,6.37-.98.3.35.84.47,1.47.49,4.21-.43,8.78.35,12.99-.74.95,1.11,3.03-.43,3.92.74.64.07.19-.95.98-.74,2.5.32,4.48-.12,6.37.74.63-.03.86-.45,1.23-.74,2.28.41,5.09-.12,8.09,0,3.5.14,7.41,1.3,9.56-.74.2.46.32.99.73,1.23,2.66-.73,5,.15,7.11,0,.83-.06,1.25-.63,1.96-.74,2.12-.33,4.7,1.19,7.6.74.79-.22.35.8.74.98.58-1.37,2.43-.66,4.41-.98.56.26-.12,1.76.49,1.97,1.21.02-.1-1.55.49-1.72,2.13-.07,5.2-.83,7.84-.25-.09,1.24.06,2.23.49,2.95,1.3-.54-.6-2.36,0-2.95,1.59-.67,3.35.94,4.9-.25,1.16,1.4,4.47-.79,5.64.49.78.86,1.94-.91,4.17,0l-.12.12.12.12v.49h.49v-.49l.12-.12-.12-.12Zm71.81.74c-.21,1.46.14-.99,0,0h0Zm21.32,0c.29.97.29-.97,0,0h0Zm-129.89,0h-.98c-.19.95,1.17.95.98,0Zm30.14,1.23v-1.23h-.74c-.05.7-.03,1.34.74,1.23Zm-53.92-.25c.46,1.18.9,2.37,2.7,2.21-.19-.93.3-1.18.25-1.97-.85-.2-.94.37-1.72.25-.11-.47.33-1.48-.49-1.23-.14.35-.38.6-.73.74Zm9.07.49c.64.07,1.05-.09.98-.74-.31-.01-.34-.32-.74-.25-.08.33-.35.47-.25.98Zm-19.61-.49c0-.25-.43-.31-.49,0,.05.3.27.15.49,0Zm95.34,1.97c.53-1.05.08-2.29-1.23-2.21-.64.95.12,2.23,1.23,2.21Zm22.3-.74c.93-.22.54-1.99-.74-1.48-.01.75-.14,1.62.74,1.48Zm23.28-.74c-1.3-.28-1.82-.11-3.19,0-.05.79,1.07.4.98,1.23.19,1.5-.39,2.23-.24,3.69.76.02,1.17-.3,1.71-.49.19-2.02,1.11-3.31,1.47-5.16-.87-.38-.15.84-.74.74Zm-151.22.49c.49.5,1.06-.18,1.23-.74-.77-.12-1,.31-1.23.74Zm34.56-.25c.25,0,.29.2.49.25-.02-.39.03-.85-.49-.74v.49Zm27.2,0c0-.25-.43-.31-.49,0,.05.3.27.15.49,0Zm-60.54,1.48c.87-.36,1.34-.37,1.96-.49v-.98c-.94.21-1.71.58-1.96,1.48Zm67.15-1.23c-.71.71.71-.71,0,0h0Zm78.43.25h.49v-.49h-.49v.49Zm-79.9,0c.28.97.28-.97,0,0h0Zm8.09,0c.28.97.28-.97,0,0h0Zm-68.62,1.97c.19-.17.55-1.37,0-1.48-.75,1.05-.49-.96-1.47-.49.06,1.09.67,1.63,1.47,1.97Zm125.24,2.95c-1.32.83-3.41.36-4.17-1.23h-1.72c-.37-1.12-1.82-.28-2.21-1.72-2.55-.15-4.26-1.14-6.13-1.97-.01.31-.31.34-.25.74-2.36-.23-5.4.08-6.86,1.48-.09.91.99.64.74,1.72,1.23-.41,3.11-.15,4.41-.49,1.38,1.48,3.61,2.11,5.15,3.44,2.26.11,3.56,1.19,4.66,2.46.05-.19.2-.29.49-.25.96,1.5,3.08,1.83,4.17,3.2.59.15,1.12.35,1.96.25.29.37.21,1.1.98.98h1.96c.55,1.78,2.88.25,3.19,2.21,3.77.1,5.44-1.92,9.31-1.72.54-.6,1.19-1.1,1.71-1.72-.28-5.37-4.51-6.79-7.6-9.35-3.54-.7-4.98-3.32-8.82-2.71-.33,1.65.75,1.87.49,3.44-.17.83-1.36,1.16-1.47,1.23Zm38.97-3.44c-.87-.16-1.9.1-2.94,0-.35-.03-.41-.46-.74-.49-1.89-.21-4.68-.38-6.62-.25-.43-.22-.71-.59-1.22-.74-.36.79-1.5.79-2.45.98-.67,1.21-1.44,2.33-3.19,2.46-1.16,1.38-1.07,4.01-1.47,6.15,1.8,2.7,5.33,2.61,8.33,3.2,3.71-1.64,5.19-6.72,10.29-6.15-.03-.93.48-1.32,1.23-1.48,1.37.43,1.42,2.18,3.19,2.21,1.88-2.66-2.26-3.01-2.21-5.41-.89.67-1.45-.35-2.21-.49Zm-186.02.49c1.19.13.57-1.56,1.47-1.72h-.98c.16.9-.53.94-.49,1.72Zm14.46-.98h.74v-.74h-.49c-.01.31-.31.34-.25.74Zm13.97-.49c-.58,0-.72-.42-1.47-.25-.27.96,1.46.99,1.47.25Zm164.45.98c1.08.18,1.27-.53,1.47-1.23h-1.71c-.08.57.04.94.24,1.23Zm-182.34-.25c.61.04.77-.38.98-.74-.61-.04-.77.38-.98.74Zm2.45,0c.71.36.71-1.1,0-.74v.74Zm20.83.25c0-.25-.43-.31-.49,0,.05.3.27.15.49,0Zm151.95,110.18c-1.35-2.51.3-4.51.49-7.13.18-2.45,0-5.14,0-7.62,0-3.09-.04-6.55-.49-9.59-.53-3.53-1.98-7.04-.98-10.58-1.08-2.35-1.72-5.16-2.94-7.38.45-1.44-.67-2.98-.49-4.92-.84-.87-1.53-1.91-2.21-2.95v-1.97c-2.06-4.24-2.53-10.09-6.13-12.79v-1.72c-2.15-.38-2.04-3.03-3.43-4.18v-1.72c-2.08-1.27-3.23-3.48-5.39-4.67-2.23-3.01-5.4-5.08-7.11-8.61-1.8-.66-2.71-2.2-3.92-3.44-2.91-1.59-5.44-3.56-7.84-5.66-3.54-.22-4.47-3.06-7.84-3.44-4.22-4.87-12.48-5.68-18.63-8.61h-2.45c-.78-.11-.86-.94-1.71-.98h-4.17c-.64.07-.19-.95-.98-.74-1.69.41-4.32-.22-6.13-.49-.74-.07-.08-1.56-1.23-1.23-.13.2-.25.4-.24.74-3.44.49-6.55-.56-9.56.98-3.68-1.8-9.95-.07-13.23-1.23-6.5,1.89-14.13-.31-20.1.25-.69.06-1.28.49-1.96.49-1.72,0-3.24-.82-4.66.25-1.57-1.04-3.37.34-4.9-.98-.48.69-1.71.85-2.7.98-2.73.37-6.46.35-9.56.49-.65,0-.53-.78-1.23-.74-2.84.99-7.51,1.98-10.29.25-.94,1.15-1.99.4-3.19.25-.96-.13-2.15.37-2.94.25-.7-.11-1.04-.46-1.71-.49-1.61-.07-3.37.71-4.9-.25-3.82,1.71-8.42-.96-12.01.74.27.77.02.56,0,1.48,6.37,1.39,12.21,3.32,15.44,7.87.18.89,1.02,1.27.49,2.21,1.37.44,2.06,1.31,2.7,2.71.53,1.16,1.22,2.07,1.72,3.2.56,1.25.23,4.19.73,6.39-.77,2.2.3,4.82-.49,7.38,1.01,2.78,1.12,7.68-1.47,8.85.82-.25.38.76.49,1.23-.49.74-.14,2.32-.25,3.44,0,.66-.77.53-.73,1.23.49,1.7.28,2.78,1.23,4.18-.41,2.22,1.36,4.15,1.47,6.64,1.08,1.05,1.63,2.63,1.72,4.67-.58,0-.72.42-1.47.25-.6,3.11.94,6.02-.73,8.85.34,1.21,1.29,1.83,1.23,3.44-.21.85-.76,1.37-1.23,1.97,1.34,5.71.21,12.32.49,18.45.2.65,1.15-.55,1.23.49-1.62,6.94-.59,15.65-.24,22.63-.08.58-.3,1.02-.49,1.48.76,3.01.85,5.59.98,8.85-.76,1.45-.67,4.68,0,6.15-.23,1.49-.33,3.11-.73,4.43,1.16,5.52-.41,12.58.73,17.46-.32,1.4-1.38,2.06-1.72,3.44.12.85.74.87.98,1.72.4,1.4-.31,3.76,0,5.16.19.84,1.17,1.11.98,1.97-.28,1.77-.88,3.22-2.21,3.94.19,1.42-.68,1.77-.49,3.2-1.52.85-1.66,3.09-3.68,3.44-.66,1.31-1.17,2.76-1.47,4.43-2.55,1.13-4.53,2.84-6.37,4.67-2.32.21-3.5,1.57-5.88,1.72-.5.56-.96,1.17-1.22,1.97-1.04-.48-2.55-.16-2.45,1.23,2.59-.17,3.9-.75,5.39.74.87-.11,1.13-.83,1.96-.98,1.16.1,2.05-.08,2.94-.25,3.94,1.44,9.06.39,12.25-.98,1,.06,1.38.75,2.45.74,1.13-.09,2.02-.43,2.94-.74.87.57,1.53.4,2.7.25,2.11,1.57,6.04-.56,10.05,0,.41.41.64,1,1.47.98,1.34-.13,2.44-.5,3.43-.98,1.13.01.89,1.4,2.2,1.23,1.37.15,2.32-.13,3.19-.49.87.12.86,1.1,1.96.98,1.11.13.65-1.31,1.71-1.23.56.5,1.43.69,2.21.98,5.45-.53,13.35,1.77,19.12,0,.5.07.48.67.98.74,3.02-.96,6.68.17,9.31-.98,3.29.41,7.84-1.02,11.27-.49,1.63-1.19,4.31-.02,5.88-.98,4.06,1.41,8.3-2.18,13.97-1.48,2.57-.95,6.07-.96,8.33-2.21,1.64.34,2.08-.3,3.43-.74h2.2c1.32-.89,2.96-1.46,4.17-2.46,6.38-1.14,9.77-5.28,15.44-7.13.68-.8,1.34-1.61,1.96-2.46.48-.34,1.4-.23,1.96-.49,1.29-2.07,3.02-3.69,5.15-4.92.12-1.02.86-1.44.98-2.46,2.24-1.12,2.91-3.8,5.15-4.92-.28-1.02.52-.96.49-1.72,3.17-2.64,5.14-6.48,6.86-10.57,1.01-.05.83-1.3,1.71-1.48.06-1.42.84-2.11,1.23-3.2.25.16.25.57.74.49.12-.77-.75-.56-.49-1.48.92-3.04,2.74-6.79,3.92-10.33.55-.18.54-.94,1.23-.98,0-2.14.69-3.57,1.72-4.67-.2-1.67.49-2.46.98-3.44.2-4.68,2.02-9.71,1.96-14.51.26-.56.56-1.08.98-1.48v.25h.25c.32.09.39.43.74.49v-.98h-.74l-.12-.12-.12.12ZM16.67,14.76c-.28.02-.38-.36-.49,0,0,.25.43.31.49,0Zm-1.23,3.94c-.08.57.04.94.25,1.23.88.07,1.7.06,1.47-.98-.2-.52-1.29-.67-1.72-.25Zm199.74,1.97c.02-.4,1.05-1.54,0-1.48.27.63-.75,1.17,0,1.48Zm-196.56,1.48c1-.1.99.81,2.21.49.33-.41.65-.82.49-1.72-1.04-.97-2.83-.37-2.7,1.23Zm185.53,1.23c.97.48,2.24-.86,1.96-2.46-.36-.38-1.25-.22-1.96-.25-.12.58-1.14,2.45,0,2.71Zm-180.14-.74c.05-.7.03-1.34-.74-1.23-.48.47-.26,1.51.74,1.23Zm186.26,3.44c1.17.11,1.83-.29,2.45-.74.29-1.61-.49-2.13-.49-3.44-2.44-.34-3.24,2.99-1.96,4.18Zm-185.53-2.21c.59,2.11,2.5,2.9,2.94,5.16,1.17.11,1.83-.29,2.45-.74-.69-1.77-1.59-3.33-1.96-5.41-1.16-.53-2.08.47-3.43.98Zm174.01-.25c0,1.6.39,1.75,0,2.95.89.24.2-1.1.98-.98,1.07.01,1.42-.7,1.96-1.23-.25-.65-.4-1.4-1.23-1.48-.44.38-.75.89-1.71.74Zm-13.48,2.21c.54-.03.1-1.04.25-1.48h-.74c.15.51-.4,1.71.49,1.48Zm21.32-.74v-.74h-.73c-.05.54.2.78.73.74Zm-190.43,1.72c-.43,2.8,1.93,2.09,3.19,2.7-.22-1.21,1.03-.94.98-1.97-.73-1.62-2.67-1.66-4.17-.74Zm185.77,2.95c1.08,1.94,3.52.79,4.66-.49.02-.92-.25-1.56-.49-2.21-.58-.32-1.69-.1-2.2-.49-.52,1.2-1.07,2.37-1.96,3.2Zm-15.69-2.95c-.74.57-1.9.72-2.7,1.23-.88,3.08-.77,6.24,0,9.35,1.76,1.68,3.45,3.43,4.66,5.66,3.66.84,5.28,3.72,9.07,4.43,1.22,2.13,2.85,3.86,4.66,5.41-.01.31-.31.34-.25.74,2.55.81,1.36,5.36,3.92,6.15,1.1-.57.37-1.47.98-2.46-.39-.34-.63-.85-.73-1.48-.14-4.45-1.91-7.27-3.19-10.58-1.98-1.37-3.39-3.32-4.9-5.16v-1.48c2.58-1.67,3.49,1.88,5.64,2.21,1.57-3.17-2.25-4.87-2.21-8.12-1.15-.73-1.61-2.15-2.7-2.95.51-.14.52-.38.25-.74-.89-.24-.21,1.11-.98.98-2.65-2.42-7.37-2.96-11.52-3.2Zm-172.3.74c-.21,1.46.14-.99,0,0h0Zm9.07.49c.61.04,1.02-.13,1.22-.49-.37-.39-1.03,0-1.22.49Zm-9.56.74c-.29-.07-.62-1.3-.98-.49.21.15.54,1.38.98.49Zm154.89.74h.74c.01-.42-.19-.63-.49-.74.01.34-.12.54-.25.74Zm8.58,2.21c-.59,2.19-.23,3.69.49,4.92.76-.32.7.07,1.71,0,.23-1.49,1.5-1.94,1.23-3.93.59-1.05,1.62-1.65,1.47-3.44-1.86-1.17-3.03,2.06-4.9,2.46Zm-6.37-1.48c.21-.29.32-.66.25-1.23-.9-.24-.97,1.21-.25,1.23Zm39.7,1.97c1.81-.5,1.05,1.57,2.45,1.48-.82-1.41,1.61-4.94-2.21-4.67-.28.95-.68,2.25-.25,3.2Zm-196.31-1.97c-.59.83.82-.59,0,0h0Zm19.85.74c-.19.06-.48,0-.49.25.19-.06.48,0,.49-.25Zm-18.87,1.97c.6.03,1.18.04,1.47-.25.47-2.25-1.83-1.39-1.47.25Zm6.37,2.71c3.67,2.4,2.93,7.57,3.92,12.3.26,1.22,1.46,2.23.49,3.44-1.25.52-1.97-1.41-3.43-1.48-1.04.18-1.38,1.08-1.72,1.97,3.67,1.16,3.9,4.62,4.17,8.85-.83.7-1.02,1.4-2.45.98.28-5.77-2.95-9.28-6.37-12.05-.05.19-.21.29-.49.25-1.64,1.67.27,4.29-.24,6.64.21.77.93,1.04.98,1.97v2.7c1.56,2.86,2.42,6.42,7.11,6.15.38.27.51.8,1.22.74.59-.23.65-.99,1.72-.74,1.14-1.56,1.28-4.12,2.7-5.41-.37-1.65.46-3.87,1.23-5.17-.13-2.39.83-4.08.24-6.89,2.07-2.75-.67-5.62,0-8.61-2.46-3.68-6.14-6.13-8.58-9.84-.58-.08-.92-.39-1.72-.25.04,1.85,1.37,2.39,1.23,4.43Zm150.73-3.69c.01-.42-.19-.63-.49-.74-.01.42.19.63.49.74Zm-141.9,1.48c.36.54.65,1.15,1.72.98.42-.4.61-1.03.49-1.97-.91-.89-1.97-.12-2.21.98Zm176.46.25c.12.78-.44.87-.25,1.72.66,0,.53.78,1.23.74,1.29-.06,1.45-1.87.98-2.95-.74.08-.88.76-1.96.49Zm-2.94,1.48c.75-.52.4-1.76-.73-1.72-.12.94.1,1.54.73,1.72Zm-175.73.25c.87-.03.7-1.1.98-1.72h-.98c.22.9-.43,1.31,0,1.72Zm182.59-.49c-.47,2.47,1.9,2.74,3.68,2.21-.27-1,.09-1.9-.74-2.71-1.47-.33-1.55.74-2.94.49Zm-194.35,1.72c.69.45,2.2.03,2.45-.74-.78-.11-.86-.94-1.71-.98.29,1.11-1.09.55-.74,1.72Zm-1.22,0c.2-1.1-.44-1.37-1.23-1.48-.14,1.05.08,1.72,1.23,1.48Zm12.25-1.23c.28.97.28-.97,0,0h0Zm.73.98c-.71.71.71-.71,0,0h0Zm6.13,1.97c.06-.8-.29-1.18-.98-1.23-.1.84.07,1.4.98,1.23Zm142.89-.74h.73v-.49h-.73v.49Zm-157.59.98c-1.07,1.39-1.66,3.25-1.72,5.66-.99,1.14-1.55,2.71-1.72,4.67,2.46.1,4.01-1.08,6.37-.74,1.13-3.18-.27-7.43-1.72-9.59h-1.22Zm164.7.49c-.89,1.16,1.43.33,0,0h0Zm24.02,4.67c1.21.49,3.22.29,3.92-.49.13-2.1-1.23-2.7-3.19-2.71-.25,1.06-.44,2.18-.74,3.2Zm-4.17-.25c-.23-.76-.98-.98-1.47-1.48-.13,1.11.36,1.61,1.47,1.48Zm-192.64.25c.53.56.84-.2,1.72,0,.12-1.21-1.71-.76-1.72,0Zm21.08.74c.92.1,1.37.13,2.21.74-.21-1.02-.58-1.88-1.47-2.21.13.87-.87.6-.74,1.48Zm153.67.25c.75.38.75-1.61,0-1.23v1.23Zm19.85.49c.34-.32.43-1.47-.25-1.48-.34.32-.43,1.47.25,1.48Zm-189.94-.49c-.67.75.75-.67,0,0h0Zm169.11.98c-.19.05-.48,0-.49.25.19-.06.48,0,.49-.25Zm-149.99,1.72c.14-.15.57-1.17,0-1.23-.14.15-.57,1.17,0,1.23Zm177.2,0h.98c.07-.64-.09-1.06-.74-.98-.08.33-.35.47-.25.98Zm-5.64.74c-.03-.46-.16-.82-.49-.98.06.44-.25,1.23.49.98Zm2.45,1.48c.62.36,1.09.87,1.96.98.89-.52-.23-1.53.98-1.72-.19-.8-.41-1.56-1.47-1.48-.77.45-1.34,1.12-1.47,2.21Zm-194.84-.74c.19-.85-.23-1.08-.74-1.23.23.43,0,1.32.74,1.23Zm176.46.49c.35-.3.46-.85.49-1.48h-1.23c0,.75-.14,1.62.74,1.48Zm24.02-.49c-.19.06-.48,0-.49.25.19-.06.48,0,.49-.25Zm-1.96,1.72c0-.49.67-.31.49-.98-.62-.26-1.09.83-.49.98Zm1.71-.74c.29.97.29-.97,0,0h0Zm-179.65.25c-.95-.93-1.71.96-.98,1.72.89,0,1.08-.72.98-1.72Zm180.14.25c-.21,1.45.14-.99,0,0h0Zm-19.85,2.71h1.47c.55-1.17.13-2.72-1.22-2.71-.47.99-.92,1.57-.25,2.71Zm17.16-1.48c.31.01.34.31.74.25.01-.42-.19-.63-.49-.74,0,.25-.2.29-.25.49Zm2.94.25h.49v-.49h-.49v.49Zm-15.2.49c.28.97.28-.97,0,0h0Zm-10.05,1.48h.49c.01-.31.31-.34.25-.74h-.49c-.01.31-.31.34-.25.74Zm19.36,2.71c1.49.5,1.91,1.21,2.7,1.97-.25-1.97,1.68-1.76,1.22-3.94-1.41-1.72-4.45-.98-3.92,1.97Zm-178.18-2.46v.49c.6.38.72-.83.25-.74-.01.15-.04.29-.25.25Zm165.19,4.92c1.08-.27,1.22.42,1.96.49.79-.6,1.71-1.07,1.72-2.46-.79-2.41-4.89-.45-3.68,1.97Zm-163.23-.74c.36-.06.57-2.02-.25-1.72-.21.21-.67,1.92.25,1.72Zm175.48,3.44c.4,1.07.9,2.04,2.7,1.72-.02-1,.8-1.17.49-2.46-1.32-.88-2.29.41-3.19.74Zm-174.75.98c-.31-.01-.34-.31-.74-.25-.38.61.83.72.74.25Zm168.37.98c.68.39.68-1.06.25-.98.05.46-.28.54-.25.98Zm-189.94.25h.74c-.04-.37.09-.91-.25-.98,0,.49-.67.31-.49.98Zm188.23.25c.01-.15.04-.29.25-.25-.03-.3-.07-.58-.49-.49.04.29-.04.7.25.74Zm-167.64,2.46c.48-1.15,1.01-1.16.98-2.46-.87-.11-1.41-.55-2.45-.49-.2,1.67.34,2.61,1.47,2.95Zm179.65-1.72h.49v-.49h-.49v.49Zm-6.86,1.72c-2.31-3-4.14,2.94-1.23,3.2,1.05-.43,1.43-1.51,1.23-3.2Zm-191.66.98c1.04.19,1.01,1.45,1.96,1.72,1.25-.27,1.22-2.4.25-2.95-1.21-.06-2.07.22-2.21,1.23Zm14.7,1.97c.58.08.46.85,1.23.74.46-.6.91-1.22.73-2.46-.51-.14-.79-.52-1.22-.74-.04,1.03-1.03,1.1-.74,2.46Zm180.63-1.23c.61.37,1,.97,1.96.98-.04-.62.55-.6.74-.98-.06-1.66-2.53-1.43-2.7,0Zm-186.26,0c-.21,1.46.14-.99,0,0h0Zm190.92,1.72c0-.25-.43-.31-.49,0,.28-.03.38.36.49,0Zm-182.59.74c.37.61.06,1.91.49,2.46,1.91.2,2.53-.9,2.7-2.46-.92-.69-2.41-1-3.19,0Zm167.15,1.72c1.19,1.29,2.49.02,1.96-1.72-.75-.24-1.47-.5-2.21-.74-.4.53.62,1.19.25,2.46Zm-173.27,9.1c.19.71.5,1.31.74,1.97-.43,1.04-.08,2.87-.74,3.69-.13,1.03.43,1.37.49,2.21.12,3.69-.11,4.85,0,8.36.39.91.83,2.33,0,3.44-.98-1.39-1.92-2.82-2.2-4.92-.44-.79-1.87-.58-1.72-1.97-2.37-.78-5.37-3-7.11-.49.16,1.23,1.12,1.67,2.45,1.72,1.15,1.81,3.24,2.01,4.41,4.18.42,1.39.27,1.98.98,3.2-.03.71.13,1.61-.24,1.97,1.79,3.62.4,8.57-1.72,11.07-.82,2.62-1.31,5.57-3.68,6.64-.6,1.77-1.49,3.26-3.19,3.94-1.5,2.87-.09,7.08,1.71,8.85,1.28.36,2.29.98,2.94,1.97.19,3.17,2.3,4.41,2.7,7.38-.42.92-.63,1.81-.25,2.95-.47,2.65-2.51,3.71-3.19,6.15-.97,1.35-3.92,1.93-2.94,4.43,1.73.62,2.46-1.76,3.92-2.21,2.07.28,2.29-1.31,3.68-1.72-.39,1.22.85,1.54,1.47.98.52-1.43-1.17-.63-1.23-1.48.35-1.7.5-3.6,2.21-3.94,2.81,3.42,1.36,11.27,2.7,16.72.55.48,1.84.21,2.45,0,.95-4.38-.77-8-.73-12.79-.45-.95-1.23-1.56-1.47-2.71.22-.6.57-1.07.49-1.97-1.42-3.74-3.12-7.2-4.66-10.82-2.36-2.23-3.94-5.23-6.13-7.62,1.28-1.85,4.2-1.55,5.88-2.46,1.02-.28.96.52,1.72.49.6-1.32,3.34-2.44,4.66-1.48,1.11-1.75,4.14-1.58,5.64-2.95.05-1.2.05-2.35-.49-2.95-1.89-.86-4.88-.45-6.86,0-.84,1.04-2.67,1.09-4.17,1.48-.48.43-2.24,1.32-2.7.25.24-1.32,1.36-1.75,2.21-2.46.4-3.2,2.96-5.3,2.45-8.61,2.26-1.28,1.64-5.55,2.45-7.62v-1.72c1.51-3.36.33-8.09,1.22-11.81-.19-.55-.51-.96-.49-1.72-.1-1.17.44-1.69.25-2.95-.63-1.58-.88-3.55-.74-5.9-.91-1.41-1.24-4.26-.24-5.66-1.9-.23-.57-3.69-2.45-3.93-.65,3.21-.18,6.41-.49,10.82Zm-6.37-10.33c-.37.96.25,2.8,1.72,2.7.42-.81,1.38-1.08,1.72-1.97-.33-.16-.46-.53-.49-.98-1.33.48-2.28-.12-2.94.25Zm196.8,1.48c-.03-.79.24-1.88-.74-1.72.21.61-.06,1.7.74,1.72Zm-6.86,4.92c-.35.27-.6.27-.74-.25.42-1.73-.89-1.73-1.22-2.71.66-1,.85-2.97,0-3.44-.93-.51-1.59,1.39-2.45,1.72-.22,1.63.75,2.76,1.96,2.21-.13.87.87.6.74,1.48h-.98c.38.85.22,2.24.25,3.44.7.19,1.3.5,1.96.74.37-.29.6-.71,1.23-.74.32-1.22-.59-1.21-.49-2.21l.12-.12-.12-.12c.37-.53,1.69-.1,1.47-1.23-.77-.12-.87.44-1.71.25v.74l-.12.12.12.12Zm2.21-4.18c1.15,1.14,4.27,2.49,3.43-.74-1.11-.03-1.59-.7-2.45-.98-.31.59-.16,1.65-.98,1.72Zm-196.07,1.23c.51.26,1.3.88,1.96.25-.05-.93-.22-1.75-.49-2.46-1.24-.01-1.61.85-1.47,2.21Zm19.61-1.23c.28.97.28-.97,0,0h0Zm-1.96,5.17c.59.31,1.48.32,1.96.74.87-.52.79-2,.74-3.44-1.81-1.26-3.18.25-2.7,2.71Zm-17.16,2.71c1.17-.09,1.83-.13,2.45-.25.34-1.18.78-1.63.49-2.95-1.66-1.46-4.14.47-2.94,3.2Zm5.88-.98c.78.46,1.03-.06,1.96.25.55-.43.48-1.48.74-2.21-.83-.23-1.44-.69-2.7-.49-.04.78-.57,1.81,0,2.46Zm184.3-1.97c-.28.03-.38-.36-.49,0,0,.25.43.31.49,0Zm-174.25,5.66c.33.24.49.66.74.98,1.21.23,1.66-.3,2.21-.74.1-1.17-.29-1.84-.74-2.46-1.73-.26-2.32.62-2.21,2.21Zm177.69-1.72c-.59,1.99.84,2.96,3.19,2.71.44-.47.18-1.62.25-2.46-1.54,0-2.14-1.34-3.43-.25Zm-188.96.98c.1-.47.95-.19.74-.98-.76-.32-1.39.7-.74.98Zm.98.49c.34,1.13.83,2.12,2.45,1.97.93-.96-.09-1.77-.25-2.95-1.08-.34-1.62.23-2.21.98Zm183.08.25c.29.21.66.32,1.23.25-.02-.43.05-.76.25-.98h-1.23c.01.34-.12.54-.25.74Zm-186.02,3.94c.6-1.14,1.2-3.07-.49-3.44-2.08.4-1.64,3.43.49,3.44Zm189.7-2.95c-.28.02-.38-.36-.49,0,0,.25.43.31.49,0Zm7.11,0c.28.97.28-.97,0,0h0Zm-1.72.25c-.19.06-.48,0-.49.25.19-.05.48,0,.49-.25Zm-6.62.98c-.24.89,1.37.52,1.23,0-.47-.46-.62-.03-1.23,0Zm-175.23,2.71c.13.94.68,1.44.98,2.21,4.59.16.37-6.26-.98-2.21Zm-18.14.25c.17-.18.61-1.2-.25-.98.04.37-.09.91.25.98Zm7.84,1.72c.5.73,2.75.76,2.94-.25-.24-1.24-.97-1.97-2.21-2.21-.29.77-.91,1.22-.73,2.46Zm188.47,2.71c.68-.37-.43-1.01.25-1.23.65,0,1.4-.09,1.71.25.95-.85.6-1.83.49-3.2-.95.05-1.81,0-2.45-.25-.95,1.31-.87,3.67,0,4.43Zm6.13-2.71c-.19.06-.48,0-.49.25.19-.05.48,0,.49-.25Zm-184.55,2.21h.49c.01-.31.31-.34.25-.74h-.74v.74Zm.74,1.48c-.12,1.27.23,2.06.73,2.71,1.3-.09,2.07-.71,2.21-1.97-.43-1.45-1.82-1.8-2.94-.74Zm178.42-.25c-.19.05-.48,0-.49.25.19-.06.48,0,.49-.25Zm6.37.49c-.19.06-.48,0-.49.25.19-.06.48,0,.49-.25Zm-7.84.49c-.26,1.43,1.06.1,0,0h0Zm.98.49c.06,1.04-.23,1.74-.49,2.46.72,1.12,2.58,1.71,3.68.49.17-1.24-.34-1.8-.49-2.71-1.31.77-2-.56-2.7-.25Zm-180.14.49c.31.01.34.32.73.25.01-.42-.19-.63-.49-.74,0,.25-.2.29-.24.49Zm-15.44,1.48c.28.97.28-.97,0,0h0Zm193.62,0c.28.97.28-.97,0,0h0Zm-193.62,1.72c-.13,1.03.43,1.37.49,2.21,1.87.24,2.89-.38,2.94-1.97-.38-1.29-2.75-1.2-3.43-.25Zm19.12,4.18c1.21-.34,1.76-1.35,1.96-2.7-2.11-2.58-5.22,1.98-1.96,2.7Zm-13.48,3.94c-.6-.7,1.2-1.08.98-2.21-.28-.87-.54-1.75-1.23-2.21-.13.86-1.42.39-1.96.25-.44.71-.47,1.82-.74,2.71.92.39,1.8,2.12,2.94,1.48Zm190.68-1.97c.73.17,1.07.73,2.21.49.68-.44.68-2.26,0-2.71-1.69-.22-2.42.52-2.21,2.21Zm-195.33.49c.2-.7-.35-.64-.24-1.23-.58-.08-.92-.39-1.72-.25-.35,1.43,1.06,2.07,1.96,1.48Zm191.41.49c.51.14.7.61,1.47.49.02-.72.93-.54.74-1.48-1.22-.16-1.39.74-2.21.98Zm-176.22,3.2c.33.25.74.41.98.74,1.33.03,2.39-.22,2.7-1.23v-.74c-1.13-1.58-4.18-2.22-3.68,1.23Zm178.18-1.23c.02-.39.62-.19.49-.74h-.74c.04.29-.04.7.25.74Zm-191.41,0c.28.97.28-.97,0,0h0Zm191.16.74c-.26,1.43,1.06.1,0,0h0Zm-194.35.98c-.11.85.1,1.38.25,1.97.77-.05,1.8.17,2.2-.25.52-.99.46-1.77-.24-2.46-.97.01-1.42.54-2.21.74Zm5.15,2.7c.79-.52,1.73-.89,1.96-1.97-.24-.5-.5-.97-.74-1.48-2.49-.9-2.42,2.86-1.22,3.44Zm187.49-2.21h.98c.19-.95-1.17-.95-.98,0Zm3.68-.25c-.04.61.39.76.49,1.23,1.29.15,2.07-.22,2.21-1.23-.51-.76-2.12-.55-2.7,0Zm-1.96.74c.01-.15.04-.29.25-.25-.03-.3-.07-.58-.49-.49.04.29-.04.7.24.74Zm-178.42.25c-.19.06-.48,0-.49.25.19-.06.48,0,.49-.25Zm0,1.97c.55-.11.87-.44.98-.98-.69-.04-.62.7-.98.98Zm-2.21,0c0-.25-.43-.31-.49,0,.28-.02.38.36.49,0Zm-13.48,2.95c.58.59.97,1.75,1.96,1.23,1.07-.46,1.24-2.24.49-3.2-1.71-.24-2.56.38-2.45,1.97Zm16.17-.25c.02.92.76,1.97,2.45,1.72.44-.62.84-1.29.74-2.46-1.32-1.25-3.22-.93-3.19.74Zm183.08-.74c0-.25-.43-.31-.49,0,.27-.02.38.36.49,0Zm-3.67.98c-.15.97.36,1.28.73,1.72.19-.71,1.16-.64.98-1.72-.33-.35-1.39-.35-1.71,0Zm-3.68,1.48c.32-.33.32-.92-.24-.98-.32.33-.32.91.24.98Zm-180.14.98c.58.65,1.09,1.36,2.21,1.48,1.39-.41.86-2.04.24-2.95-1.34-.28-2.55-.25-2.45,1.48Zm4.17.98h.74v-.74h-.74v.74Zm-16.42,1.48c.57.25.79.85,1.71.74.95-.81.41-3-1.22-2.71.18,1-.79.85-.49,1.97Zm197.78,0c.28.97.28-.97,0,0h0Zm.25,1.72c.52.96.84,2.11,2.45,1.97.84-1.16-.02-3.14-1.22-3.69-.34.64-1.19.78-1.23,1.72Zm-4.17,1.48c1.5-.27,2.4-1.51,1.47-2.95-2.25-.58-2.59,2.28-1.47,2.95Zm2.94-.25c.28.97.28-.97,0,0h0Zm-4.41.98c.65.07.63-.51.74-.98-.65-.07-.8.34-.74.98Zm1.72.98c.07-.65-.34-.81-.98-.74-.3.8.79.19.49.98h-.24v.25c-.22-.19-.55-.26-.98-.25-.39.9,1.87,1.15,1.72.25h.25v-.25c.32,1,.97-.25,0-.25l-.12-.12-.12.12Zm-195.58,1.72c-.1-.59.45-.53.25-1.23-.43.02-.76-.06-.98-.25-.13.87.21,1.27.74,1.48Zm22.3,3.2c1.23-.95.61-2.84-.24-3.69-3.86-.37-2.19,4.5.24,3.69Zm179.89-1.72v-1.97h-1.22c.4.66-.15,2.28,1.22,1.97Zm-5.15-1.48c-.08-.2-.65-.3-.73,0-.16.57.96.53.73,0Zm-197.78.25c-.27.02-.38-.36-.49,0,0,.25.43.31.49,0Zm195.09,2.46c.48-.19.37-1.82-.25-1.72-.21.21-.67,1.92.25,1.72Zm-175.97,2.71c.21-1.72-.66-4.39-3.68-3.69-1.93,1.79,1.84,5.09,3.43,2.71.04.37-.09.91.25.98Zm-7.6-.25c1.16.1,1.2-.93,2.21-.98-.18-.73-.28-1.52-.74-1.97-.76.32-.7-.07-1.71,0-.75,1.36-.07,1.72.25,2.95Zm185.77-.98c.03-1.18-1.7-.59-2.45-.98-.03,1.18,1.69.59,2.45.98Zm4.9.25c-.11-.47.33-1.48-.49-1.23-.04.61-.05,1.19.49,1.23Zm-177.93.25c-.21.61-1.71-.07-1.96.49-.2,1.84.56,2.72,1.96,2.95.97-.44.99-2.95,0-3.44Zm174.5.49c-.3.8.79.19.49.98-.5.43-.48-.18-.98.25.06.76.87.77,1.47.98.13-.36.36-.62.49-.98-1.11.23-.36-2.22-1.47-1.23Zm4.9-.25c-.19.06-.48,0-.49.25.19-.06.48,0,.49-.25Zm-12.01.74c.28.97.28-.97,0,0h0Zm8.33,2.95c.88.56,1.14-.71,1.72-.98.27-.13.48.57.74.49.89-.27,1.16-1.43-.25-2.21-.72.95-1.21-.4-1.71-.49.89,1.52-.33,1.58-.49,3.2Zm-5.39-.49c.53-.04.11.87.25,1.23,1.71-.09.95,1.92,1.23,2.7.79-.43,1.28-.43,1.47-.98-.02-.63-.96-.35-.98-.98.61-.78,1.53-1.26,1.47-2.71-.96-1.05-3.06-.29-3.43.74Zm-178.42,2.21c1.12.35,1.94,1,3.19,1.23.47-.75,1-1.45,1.23-2.46-1.16-1.7-4.69-1.72-4.41,1.23Zm187.49-1.23c-.19.06-.48,0-.49.25.19-.05.48,0,.49-.25Zm-202.93,3.69c-.34-.73-.29-1.51.49-1.72.03.61.04,1.18-.25,1.48,1.57-.15,2.96-.48,2.94-2.21-.42-.66-2.46-.67-3.19-.25.76.85-1.84,2.31,0,2.7Zm20.34-1.23c-.27,1.37.51,2.82,2.21,2.95,3.53-1.88-1.53-6.38-2.21-2.95Zm178.42,5.17c1.03.52,1.31-1.56,2.7-1.48.77-1.39.38-2.74-.49-3.69-3.53-.6-2.09,3.56-2.21,5.17Zm-4.9-4.18c.25,0,.29.2.49.25-.02-.39.03-.85-.49-.74v.49Zm-2.94,0c-.31-.01-.34-.32-.73-.25-.38.61.83.72.73.25Zm1.47,1.23c.54.18,1.01-.91.49-.98,0,.49-.67.31-.49.98Zm.25,1.23c.5.49.48-.11.98-.25.25,1.39,1.22,2.06,2.7,2.21,1.21-1.28.68-3.77-.98-4.18-.62,1.01-2.51.76-2.7,2.21Zm-175.48,0c-.34,1.4.64,1.49.49,2.71,1.45-.11,2.68-.43,3.19-1.48-.98-.78-2.06-2.53-3.68-1.23Zm-13.72.25c-.56.99-.53,2.27-.73,2.95.92-.22,2.08-.21,2.94-.49-.04-1.11-.86-1.44-.98-2.46h-1.23Zm20.59.25c.28.97.28-.97,0,0h0Zm177.93,3.44c.52-.64,2.64-1.69,1.47-2.46-.49.82-1.72.9-1.47,2.46Zm-177.93,1.23c-1.01-.55-.77-2.34-2.45-2.21-.7.37-.26,1.87-.98,2.21.26.8.85,1.28.98,2.21,1.7.15,2.55-.55,2.45-2.21Zm174.01-.98c-.25,1.8-1.22,2.87-2.7,3.44.15.59-.31,1.78.25,1.97.04-.29.39-.27.74-.25-.06-.82.38-1.67.98-2.46.52,1.09,2.15.59,3.68.49.68-1.48-.66-1.83-.74-3.69-.97-.08-1.23.57-2.21.49Zm-7.6,2.95c.68,1.44,2.35,1.25,3.92.98-.19-1.01.38-1.26.25-2.21-1.52-1.22-3.94-1.21-4.17,1.23Zm-2.45-.98c.42.01.63-.19.74-.49-.39.02-.85-.03-.74.49Zm-186.02,2.71c1.91.19,2.5-.94,2.94-2.21-.29-.04-.27-.39-.25-.74-2.08-.42-2.48.95-2.7,2.95Zm200.72-1.97c0-.25-.43-.31-.49,0,.05.3.27.15.49,0Zm-14.46.49h.49v-.49h-.49v.49Zm10.29,1.72c.77-.04,1.46-.17,1.47-.98-.57.08-.94-.04-1.22-.25.2.69-.35.64-.25,1.23Zm-10.29,2.46c1.02.28.96-.52,1.71-.49.06-.72-.55-.76-.49-1.48-1.68-.24-1.89,1.05-1.23,1.97Zm-167.64,0c.43.88.46,2.16,1.23,2.71.61-1.03,1.71-1.56,1.47-3.44-1-.88-2.37-.76-2.7.74Zm169.35,1.72c.06.92.57,1.4.98,1.97,1.4.24,2.8-1.25,3.68,0,.18-.75-.25-.9-.25-1.48.49-.41.31.02.98,0-.08-.9-.97-.99-.73-2.21-2.06-.55-3.91.25-4.66,1.72Zm7.6,1.72c1.04-.3,1.32-.09,2.45,0-.04-1.22.55-2.17,0-3.2-3.02-1.44-4.41,1.62-2.45,3.2Zm5.88-.25h.49c.27-.35.26-.6-.25-.74-.01.31-.31.34-.25.74Zm-194.35,1.48c.02.72.56.91.98,1.23.92-.23,2.03-1.56,1.23-2.7-.74.49-2.23.22-2.21,1.48Zm-2.94-.98c.28.97.28-.97,0,0h0Zm180.14-.25c-.19.06-.48,0-.49.25.19-.06.48,0,.49-.25Zm7.6.49c-.19.06-.48,0-.49.25.19-.05.48,0,.49-.25Zm.25,3.69c.34.56.56,1.24,1.72.98.13-.87-.87-.61-.74-1.48.49-.41.31.02.98,0,.07-.83.39-1.41.25-2.46-.32-.34-1.06-.24-1.71-.25-.37,1.1.38,2.31-.49,3.2Zm-9.56-2.21c-.03.61-.04,1.19.24,1.48,1.26.19,2.26-1.17,1.47-2.21-.38.44-1.47.16-1.71.74Zm-164.21-.49c-.48,1.28-.51,2.23.25,3.2.65.26,1.5.29,2.45.25.34-.81.58-1.72.49-2.95-1.02-.21-1.82-.63-3.19-.49Zm172.05,1.72c.46-.53.04-1.67-.98-1.48.09.73.43,1.21.98,1.48Zm6.13-1.23c-1,1-1.05,3.53.74,3.69,2.34-.19,1.78-3.03.49-3.94-.17.77-.65.32-1.23.25Zm-16.42,2.71c.63.27.91.89,1.71.98-.3-1.13.75-2.18,0-2.95-.33.9-1.31,1.15-1.71,1.97Zm-178.67,2.21c.58,0,.72-.42,1.47-.25.47-.59.72-1.4.74-2.46-.78-.37-1.11-1.19-2.21-1.23-.53.81-.86,3.21,0,3.94Zm4.17-2.95c-.29-.07-.62-1.3-.98-.49.21.15.54,1.38.98.49Zm195.82,1.23c.71.36.71-1.1,0-.74v.74Zm-17.89.25c.7.34,1.47-.44.73-.74-.03.46-.81.17-.73.74Zm-.49,0c-.28.03-.38-.36-.49,0,0,.25.43.31.49,0Zm18.38.98c-.39-.02-.19-.63-.74-.49-.39.68.64,1.1.74.49Zm-195.09,1.23c.63.19,1.04.6,1.23,1.23.58-.32,1.69-.1,2.21-.49v-1.48c-.88-.35-1.75-.7-2.94-.74-.34.31-.15,1.16-.49,1.48Zm177.69-1.23c-.14,1.5,1.7-.05.49-.25-.06.19-.21.29-.49.25Zm3.19,22.38c-.79-.71-1.86-1.27-1.96-2.46-.1-1.25.89-2.03,1.47-2.95.58-.08.92-.39,1.71-.25.5-1.8,2.53-2.05,3.68-3.2.25-1.65,1.11-3.45,1.72-4.18,2.58-3.1-1.02-6.89-2.7-9.35-.42.35-1.14-.12-1.96.25-.26,2.14,1.73,2.03,1.96,3.69-.7,2.99-3.75,3.61-5.39,5.66-.69-.2-.63.35-1.22.25-1.75,2.18-5.28,2.57-7.35,4.43-.98,2.21-2.68,3.7-4.66,4.92-.16,1.07-.77,1.69-1.22,2.46-.22,1.26.58,3.54-.74,3.69.36.87.36,2.57,0,3.44,1.33,1.45,5.04.52,6.37,1.97,1.24-1.08,2.76-.36,4.9-.49,1.34-.79,2.37-1.89,4.66-1.72,1.65-1.68,5.47-3.2,3.43-6.39-.69.29-1.69.27-2.7.25Zm-5.15-20.41c-.22-.76-1.15-.82-1.96-.98-.69.48-.99,1.73-.49,2.71,1.45.06,2.74-.04,2.7-1.48l.12.12.12-.12c.44-.03.52.3.98.25.21-.67-1.22-1.59-1.23-.49l-.12-.12-.12.12Zm-162,1.72c.4.37,1.81.37,2.21,0-.18-1.21-.28-2.5-1.72-2.46-.27.71-.44,1.53-.49,2.46Zm163.72-.49c.1.47.95.19.74.98.86-.79.75.19,2.2,0,.08-.82.71-1.09.49-2.21-.73-.39-3.25-.32-3.43,1.23Zm12.99-1.23c-.75.93-.91,3.96.98,3.69,1.21-.34,1.28-1.83,1.71-2.95-.86.1-1.18-.87-2.7-.74Zm-2.94.74c.28.97.28-.97,0,0h0Zm-17.16.74h.74v-.49h-.74v.49Zm-175.48,2.7c.51.76,2.12.55,2.7,0-.24-.99-.33-2.13-.98-2.7h-1.23c-.23.84-.33,1.8-.49,2.7Zm181.85-.98c.64.07,1.05-.09.98-.74-.31-.01-.34-.31-.74-.25-.08.33-.35.47-.25.98Zm-164.21,16.48c2.49-3.58.88-9.52,0-13.77-.72-.27-1.28-.68-1.22-1.72-2.17-.72-3.75-1.13-6.86-.74-1.07,1.23-2.72,1.86-3.92,2.95-.27,1.29-.36,2.75-1.47,3.2.27,1.6-.99,2.65-1.23,4.18-.31,2.03.4,4.33.49,6.64.11,2.92-.33,5.92.25,8.85.66.57,2.69-.24,2.94.74.15,2.28-3.55.7-2.94,3.44,3.46.38,7.13-.78,7.84-3.94,3.84-.82,3.62-5.71,6.86-7.13.08-1.23-.93-1.36-.74-2.71Zm157.83-16.23c.28.97.28-.97,0,0h0Zm6.62.74c-.59.83.82-.59,0,0h0Zm-5.39,2.71h1.47c.26-1.57-.4-2.23-1.96-1.97-.37.76.07,1.35.49,1.97Zm-177.93-1.23h.49v-.49h-.49v.49Zm196.31.98c-.48,1.16-1.78,2.8-.98,4.43.22-1.95,2.36-.66,3.68-1.23-.05-.79.43-1.04.24-1.97-.76-1.12-1.11-1.56-2.94-1.23Zm-195.09,4.67c.86-.37,1.36-1.09,1.23-2.46-2.43-2.54-4.58,2.18-1.23,2.46Zm-3.19-2.21c.28.97.28-.97,0,0h0Zm175.73.25c.2.7-.34.64-.24,1.23.29.94,1.34,1.12,2.7.98.2-1.27-.56-1.57-.73-2.46-.77-.12-.87.44-1.72.25Zm3.43,1.72c-.11-.47.33-1.48-.49-1.23-.04.61-.04,1.19.49,1.23Zm-154.89-.49c.56.07.92-.06.98-.49-.43.06-1.23-.25-.98.49Zm-1.47.74h.49v-.49h-.49v.49Zm153.67,1.72v-.74h-.74c-.04.54.2.78.74.74Zm20.59.74c.22,1.09.74,1.88,1.72,2.21,1.29-.42.8-1.42.49-2.46-1.22.12-1.46-.05-2.21.25Zm-195.33.98c-.12.78.44.87.25,1.72,1.27.11,1.52-1.19,1.22-1.97-.75-.18-.89.25-1.47.25Zm168.13,3.94c.43-.02.76.05.98.25.76-.88.67-3.8,0-4.18.41,2.06-.95,2.33-.98,3.94Zm3.43-3.2c.03-.29.44-.56,0-.74-.04.29-.44.56,0,.74Zm29.41.74h.74v-.49h-.74v.49Zm-12.5.98c.37-.04.9.09.98-.25-.36-.05-.22-.59-.25-.98h-.73v1.23Zm8.82,1.72c-1.11.46-.33-.98-1.22-.74-.24,1.07-.89,1.73-.74,3.2.88.18,1.19.94,2.45.74.22-.76.82-1.15.98-1.97,0-1.16-.81-1.48-.98-2.46.05-.31.38-.5-.25-.49-.15.51.3,1.62-.25,1.72Zm2.45.25h.73c.04-.54-.2-.78-.73-.74v.74Zm-198.76,3.44c1.05-.5,1.42-1.69,1.22-3.44-1.08-.13-.8-.08-1.72-.25-.6,1.03-.82,3.28.49,3.69Zm164.45-.74c-1.49-.26-1.58.87-1.47,2.21.89.42,1.52,1.09,2.7,1.23-.01-1.16.94-1.35,1.23-2.21-1.52.3-1.28-1.18-2.45-1.23Zm25.49,2.71c.17.89.01,2.12.73,2.46.92-.22.93-1.36,1.47-1.97-.43-.45-1.42-1.16-2.21-.49Zm7.6.98c-.39.68,1.06.68.98.25-.5-.14-.48-.74-.98-.25Zm-3.43.49c-.43.55-.12,1.85-.49,2.46.43.22.72.59,1.23.74.93-.36,2.17-2.54.98-3.44-.25.96-.84.04-1.71.25Zm-193.62,3.2c.75-.18.89.25,1.47.25.7-.9.59-2.74-.49-3.2-1.68-.21-1.78,2.08-.98,2.95Zm151.95,2.95c-.73.07-1.49-.69-1.71.25.29.04.7-.04.73.25-.97.83-1.27,2.33-2.94,2.46-1.51,3.16-5.47,3.86-6.86,7.13-2.53,1.72-5.27,1.31-9.31,1.97-.26-.23-.08-.91-.73-.74.08.57-.04.94-.25,1.23,1.61.77,2.56,2.19,3.92,3.2,1.23-.54,1.54-.4,2.21.49.37-.29.29-1.02.98-.98,3.73.52,4.47-2.54,7.84-1.97,1.1-2.02,3.45-2.77,4.66-4.67,1.52-.22,2.21.41,2.94.98.14,1.17.35,2.27.24,3.69,3.81-.02,5.02-2.67,7.84-3.69,1.4-1.38,2.14-3.42,2.94-5.41-.08-2.31,1.72-4.81,1.72-7.87-.31-.1-.5-.32-.49-.74-5.71-.05-11.45.41-13.73,4.43Zm39.7-2.95h.74v-.74h-.74v.74Zm-2.21,2.21c-.71.11-1.12.52-1.23,1.23.22.43.59.72.74,1.23,1.35.13,2.43-.02,2.94-.74.1-1.41-1.25-1.37-.98-2.95-.47-.46-.62-.03-1.23,0,.08-.33.35-.47.25-.98-.29.04-.7-.04-.74.25.55.18.1,1.38.25,1.97Zm-7.35,4.18c-.9-1.07-2.31-1.62-2.45-3.44-2.03-1.14-4.29-.22-6.86-.98-.9-.27-1.51-1-2.21-.98-.73.02-1.38.85-1.96.74-.68,2.58-.72,5.21-.74,8.85,1.79,1.81,2.03,5.18,4.41,6.39,1.77-.11,3.49,1.45,6.37,1.48v.74c2.73-.29,5.04-1,7.84-1.23.88-1.08,2.27-1.66,3.92-1.97,1-2.38,4.26-3.74,3.68-6.89-3.06.78-4.82,2.87-8.33,3.2-2-1.18-4.16-2.22-3.68-5.9Zm3.68-5.41h-.98c-.34,1.47,1.86,1.08.98,0Zm-183.57,2.95c-.35-.93.67-.47.49-1.23-.32-.35-1.12-.62-.49-1.23-.88.35-1.27,1.19-2.21,1.48-.09.83.43,1.05.74,1.48.04-.61.83-.07.98,0l.12.12.12-.12c-.05.54.2.78.73.74v-.98h-.49l.12-.12-.12-.12Zm183.57,4.18c.38.36.96.52,1.47.74.23-.75.97-.99.74-2.21-.65-.54-.83-.62-1.47-.74-.3.68-.72,1.25-.74,2.21Zm-45.1-1.97c-.89,1.16,1.44.33,0,0h0Zm50,1.72h.49v-.49h-.49v.49Zm.74.49h.73v-.74h-.73v.74Zm6.13.74c.88.14.74-.73.73-1.48h-.73c.2.85-.46,1.04,0,1.48Zm-54.65-.25c.04-.62-.38-.77-.74-.98-.07.64.09,1.06.74.98Zm-2.45.74c1.07-.19.41-.68.98-1.48h-.74c.07.75-.78.96-.24,1.48Zm-1.96,1.23c.25-1.48-.59-1.87-1.47-2.21-.64,1.02-.16,2.7,1.47,2.21Zm-5.39.74c.02-.39.62-.19.49-.74-.5-.21-1.1.64-.49.74Zm6.13-.49c.75.67-.67-.75,0,0h0Zm-13.48,3.44c1.09.11,1.55-.41,1.71-1.23.12-.77-.75-.56-.49-1.48h-1.23c-.23,1.2-.73,1.71,0,2.71Zm3.43-2.21c-.18.75.42.72.25,1.48.6.03,1.18.04,1.47-.25-.2-.7-.55-1.25-1.23-1.48-.05.19-.2.29-.49.25Zm35.54,1.23c.31.34,1.16.34,1.47,0-.08-.65-.64-.83-1.23-.98-.08.33-.35.47-.25.98Zm-112,1.72c.2.05.24.25.49.25.19-.17.54-1.37,0-1.48-.11.22-.21.44-.49.49v-.25h-.98c-.02.53.29,1.98.74,1.23h.25v-.25Zm140.68-.25c-.21,1.2.34,1.63.49,2.46.82-.16,1.2-.76,1.96-.98v-1.72c-.29-.12-.56-.26-.74-.49-.92-.11-1.15.49-1.71.74Zm-79.65,2.46c1.68.13,1.85-1.26,2.21-2.46-.51-.39-1.63-.17-2.21-.49-.45.71-.82,2.36,0,2.95Zm6.37-.25c.8-.35,1.52-.77,1.22-2.21-.69-.04-1.02-.45-1.71-.49-.43.68-.45,2.63.49,2.71Zm-88.97-1.72c.01-.42-.19-.63-.49-.74.02.39-.03.85.49.74Zm75.73,2.7c.58.08.92.39,1.72.25.8-.83.4-2.47.25-3.69-2.27-.11-1.67,2.1-1.96,3.44Zm-61.76-2.21c.06-.35.4-.41.49-.74-.5-.21-1.1.64-.49.74Zm153.18,1.72c.37-.55.27-2.27-.49-2.46-.7.46-.8,2.59.49,2.46Zm-200.23-.74c.11-.93-.52-1.12-.98-1.48.14.68-.02,1.66.98,1.48Zm103.18-1.23c-.1,1,.25,1.55,1.23,1.48.19-.53.59-1.37.25-1.72-.6-.03-1.18-.04-1.47.25Zm-100.73,2.21c.8-.25,1.08-.75,1.72,0,.28-.62.98-.82.98-1.72-.72-.35-1.46-.66-2.7-.49-.37.4-.37,1.81,0,2.21Zm81.12-1.72c-.31,1.62,1,1.62,1.22,2.71.56-.18,1.25-.22,1.72-.49v-1.97c-.54.05-.78-.2-.74-.74-1.52-.45-1.2,1.09-2.2.49Zm-48.04.25c-.04,1.43.46,2.33,1.47,2.7,2.74-.52.91-4.51-1.47-2.7Zm6.62,1.97c.62.45,1.28.84,2.45.74.98-1.63.72-.95.24-2.46-1.33-1.13-3.09-.7-2.7,1.72Zm25.73-.74c.96.47,1.1.33,2.21.74-.71-.84-.55-2.56-2.21-2.46-.43.41.22.82,0,1.72Zm8.33.49c.79.11.2,1.6,1.47,1.23.73-.43-.35-1.52.25-1.72.03.95,1.28.68,1.96.98.08-.58.85-.46.73-1.23-.42-.81-1.34-1.11-2.2-1.48-.19,1.28-1.74,1.21-2.21,2.21Zm13.97-1.48c0,.98.49,1.48.49,2.46.57-.07,1.06-.52,1.23.25-.65.43-.09,1.71.49,1.72.45-.29-.13-1.61.98-1.23-.75-1.06-.05-1.1,0-2.46-.5-.48-.51-1.45-1.47-1.48-.34.48-1.27.37-1.71.74Zm6.62,1.23c.8.14,1.14-.17,1.72-.25.09-1.32-.61-1.85-1.96-1.72.03.71-.13,1.61.24,1.97Zm-88.72-.49c.33.73,1.11,1.02,1.72,1.48.02-1.16.12-2.42-.74-2.71-.24.49-1.08.39-.98,1.23Zm4.66-.98c.03.71-.13,1.61.25,1.97h1.23c.72-1.18-.05-2.8-1.47-1.97Zm119.6.25c-.09.83,1.06.41,1.47.74.13-1.13-.83-.99-1.47-.74Zm-107.59,1.72c.75.18.89-.25,1.47-.25.1-.92-.2-1.44-.98-1.48-.33.41-.65.82-.49,1.72Zm5.64.74c.51-.67,2.05-1.83.49-2.46-.23.75-1.19.77-1.23,1.72,1.05-.12.31.66.74.74Zm24.75-.98c.71-.11,1.12-.52,1.23-1.23-.65-.58-1.54.09-1.23,1.23Zm17.89-1.23c-.07,1.06.34,1.62.73,2.21.69-.12,1.04-.59,1.71-.74v-1.23c-.57-.48-1.42-.68-2.45-.25Zm55.63.25h.49v-.49h-.49v.49Zm37.74-.25c.28.97.28-.97,0,0h0Zm-118.38.25v3.69c1-.15.49-.68.49-1.48.44-.7,1.29-1,.98-2.46-.6-.03-1.18-.04-1.47.25Zm46.08,1.48c.66-.06,1.43-1.27.49-1.48-.18.54-1.15.82-.49,1.48Zm52.2.74c.12-.29.26-.56.49-.74-.15-.58-.33-1.15-.98-1.23.61.74-.37,1.79.49,1.97Zm18.14-.25c.56-1-.02-1.81-1.23-1.72-.32,1.3.58,1.39,1.23,1.72Zm-94.11-.98c.12,1.09.93-.05,1.47.49.28-1.25-.99-.57-1.47-.49Zm11.03.49c.07-.34-.15-.96-.25-.49-.07.34.15.96.25.49Zm49.26-.49v.74c1.36-.05,1.39-.75,2.45,0,0-.49.67-.31.49-.98-.97.09-2.35-.23-2.94.25Zm-5.88.25c.21.6.22,1.42.98,1.48-.14-.8.17-1.14.25-1.72-.57-.08-.94.04-1.23.25Zm3.92.49h.98c.17-.66-.51-.47-.74-.74.01.34-.12.54-.25.74Zm38.23-.49c.28.97.28-.97,0,0h0Zm-137.74.98c-.56.08-.27-.71-.73-.74-.26.62.52,1.4.73.74Zm17.16.49c.2-.94-.52-.95-.98-1.23-.06.8.29,1.18.98,1.23Zm7.84-.25c.07-.64-.09-1.06-.73-.98-.07.64.09,1.06.73.98Zm42.64-.25c.17-.66-.51-.48-.73-.74-.17.66.51.48.73.74Zm19.61,0c.5.22,1.1-.64.49-.74-.02.39-.62.19-.49.74Zm18.13.49c.08-.58.85-.46.74-1.23-.52,0-1.27.99-.74,1.23Zm-114.45-.49h.98v-.49h-.98v.49Zm170.33.98c.91.1,1.44-.2,1.47-.98-.92.26-.7-.61-1.47-.49.2.85-.46,1.04,0,1.48Zm-109.31-.25h.49c.27-.35.26-.6-.24-.74-.01.31-.31.34-.25.74Zm-21.32-.25c.28.97.28-.97,0,0h0Zm98.28.49c.36.39,1.09.27.98-.49-.56-.07-.92.06-.98.49Zm-75.73,0c-.21,1.46.14-.99,0,0h0Zm93.38,0c.95,1.28,1.27-.98,0,0h0Zm-81.37.49h.49v-.49h-.49v.49Zm-67.4,1.23c.64.07,1.05-.09.98-.74-.34.01-.54-.12-.74-.25-.08.33-.35.47-.24.98Z"/>
  <g>
    <path class="cls-8" d="m61.39,55.21c-.04-.12-.12-.21-.2-.3-.02-.33.18-.55.32-.81"/>
    <path class="cls-5" d="m130.39,59.03c-.24-.09-.53-.13-.74-.25"/>
    <path class="cls-2" d="m84.19,73.41c.25,0,.43.06.61.12"/>
    <path class="cls-3" d="m73.16,97.02c-.13-.03-.19-.14-.25-.25"/>
    <path class="cls-4" d="m79.41,134.04c.08-.17.15-.34.25-.49"/>
    <path class="cls-2" d="m68.75,136.87c.1-.23.26-.4.49-.49"/>
    <path class="cls-4" d="m141.66,137.73c.17.08.34.15.49.25"/>
    <path class="cls-5" d="m84.43,141.79c0-.25-.06-.44-.12-.62"/>
    <path class="cls-2" d="m92.76,144.98c-.01-.15-.07-.26-.12-.37"/>
    <path class="cls-9" d="m92.76,144.98h.49"/>
    <path class="cls-2" d="m92.76,144.98v.74"/>
    <path class="cls-1" d="m224.99,15.99c-.33-.33-.65-.66-.98-.98"/>
    <path class="cls-7" d="m3.68,101.08c.17-.36.2-.87,0-1.23"/>
    <path class="cls-8" d="m114.58,9.47h.74"/>
    <path class="cls-2" d="m204.15,124.45c.09-.16.09-.4.12-.62"/>
    <path class="cls-3" d="m208.69,77.59c.16.09.3.19.49.25"/>
    <path class="cls-2" d="m207.1,126.66c.22.11.55.11.86.12"/>
    <path class="cls-9" d="m207.95,126.78v-.49"/>
    <path class="cls-10" d="m207.95,126.78l.12.12"/>
    <path class="cls-3" d="m196.44,166.38c.09.16.19.3.25.49"/>
    <path class="cls-11" d="m17.28,200.32c.1-.23.26-.4.49-.49"/>
    <path class="cls-6" d="m68.13,211.27c-.25-.36-.19-.86,0-1.23"/>
    <path class="cls-5" d="m183.08,217.9c.23.13.53.09.73,0"/>
  </g>
</svg>