<?xml version="1.0" encoding="UTF-8"?>
<svg id="Layer_1" data-name="Layer 1" xmlns="http://www.w3.org/2000/svg" viewBox="0 0 226.77 226.77">
  <defs>
    <style>
      .cls-1 {
        stroke-width: .34px;
      }

      .cls-1, .cls-2, .cls-3, .cls-4, .cls-5, .cls-6, .cls-7, .cls-8 {
        fill: none;
        stroke: #000;
        stroke-linecap: round;
      }

      .cls-1, .cls-2, .cls-3, .cls-4, .cls-5, .cls-6, .cls-7, .cls-8, .cls-9 {
        fill-rule: evenodd;
      }

      .cls-2 {
        stroke-width: .35px;
      }

      .cls-3 {
        stroke-width: .45px;
      }

      .cls-4 {
        stroke-width: .4px;
      }

      .cls-5 {
        stroke-width: .27px;
      }

      .cls-6 {
        stroke-width: .32px;
      }

      .cls-7 {
        stroke-width: .33px;
      }

      .cls-8 {
        stroke-width: .38px;
      }

      .cls-9 {
        stroke-width: 0px;
      }
    </style>
  </defs>
  <path class="cls-9" d="m196.3,17.59h.54v.54h-.54v-.54Z"/>
  <path class="cls-9" d="m96.9,45.96c.35.09.42.47.8.54.05.23-.1.25-.27.27h-.53v-.8Z"/>
  <path class="cls-9" d="m106.52,68.44c.07-.34.53-.27.54,0-.24.16-.48.32-.54,0Z"/>
  <path class="cls-9" d="m207.26,107.52h.53v.54h-.53v-.54Z"/>
  <path class="cls-9" d="m27.95,157.57c.19,1.97-1.3,2.27-2.14,3.21-.5,1.16-1.44,3.11-3.21,2.14-.07-1.5.66-2.19,1.87-2.41.27-1.81,1.31-3.87,3.47-2.94Z"/>
  <path class="cls-9" d="m195.24,23.74c-.37.88-.95,1.54-2.14,1.61-1.68,2.59-1.65,5.28-2.94,8.3.61,4.03,2.44,6.83,2.67,11.24.29,1.22,1.68,1.35,1.6,2.94.27.81-.6.47-1.07.54.59,1.16-.21,2.13.27,3.48,1.63-.48.1-2.48,1.6-2.94.73,3.12,3.69,5.38,3.47,8.56-2.66-.46-3.6-2.64-5.88-3.48-2.79-.32-4.88-1.36-7.75-1.61-1.4.74-3.63.65-4.54,1.87-.08,1.3.59,2.15,0,3.21,1.95,1.98,3.66,4.19,6.15,5.62,1.24,2.41,2.83,4.48,5.34,5.62.4-.14.67-.4,1.07-.54-1.34-4.1-3.87-7.01-6.14-10.17-.92-.51-2.42-.44-2.67-1.61.81-1.33,3.72-.41,3.21,1.34.57.12.51-.38.54-.8,1.88,1.42,3.34,3.26,5.88,4.01,1.38,1.65,1.77,4.29,2.94,6.16.18,2.94.05,5.59-1.87,6.42-3.66.01-4.95-2.36-6.15-4.82-.79-.55-1.46-1.21-2.4-1.61.22-.76-.38-.69-.27-1.34-1.68-.48-2.02-2.14-3.21-3.21-2.18-1.97-5.38-2.92-7.48-5.09-2.88-.55-5.95-.63-8.82,0-1.17.08-.91,1.59-2.4,1.34-1.16,1.73-2.26,5.81,0,7.23,2.4-.27,1.98-3.37,3.74-4.28.79-.36,1.59.26,2.4.54.81.28,1.92.42,2.67.8.92.46,1.42,1.96,2.67,1.61,1.48,2.99,5.11,5.22,4.81,9.1.73.88,1.57,1.64,1.34,3.48.26.89,1.07,1.25,1.34,2.14,1.13-.06,1.73.41,2.67.54.78,3.77,5.04,4.05,8.29,5.35,1.67-.2,3.56-.19,4.27-1.34.64.16,1.22.38,2.14.27,1.74-1.47,2.44-3.98,4.28-5.35.26-3.4.87-6.44,1.6-9.37-.51-3.59-1.02-7.19-3.21-9.1v-3.48c-.46-.96-.65-2.2-1.34-2.94.93-1.61-1.4-2.46,0-3.48-1.11-.76-1.2-2.55-2.14-3.48v-2.14c-2.01-3.96-2.95-9-4.28-13.65,1.45-2.56,1.56-6.46,5.34-6.69.88,1.96-.17,4.7.8,6.16,2.07-.1.5-4.55,1.34-5.09.96-.16.81.79.8,1.61.55.25,1.49-.15,2.14.54.3,2.22,1.11,4.04.8,6.16,2.07-.5,3.25-2.62,3.21-4.28-.02-.75-.63-1.37-1.07-2.41-.34-.81-.39-1.6-.8-2.14-1.29-1.68-3.47-2.45-5.35-2.41.2-1.14.62-2.05.54-3.48.61-.19,1.36-.24,1.87-.54-.31-2.32-2.75-5.32-2.14-8.56.13-.84-1.23-.2-1.34-.8.68-.72,1.89-1.02,2.67-1.07,1.01-.06,2.13.55,3.74.27,1.04-.15.23,1.55,1.07,1.61.52-.37.14-1.64.53-2.14,1.78,0,3.79-.23,4.54.8-.04.31.06.48.27.53-.94,1.47-.18,4.38-.54,6.16-.24,1.19-1.14,2.99-2.14,2.14-.58.61.54,1.04.8,1.61.97.26.27-1.16.8-1.34,2.01,3.74.15,8.83.27,12.58.05,1.46.4,2.49.27,4.28-.11,1.52.2,3.12.27,4.82.09,2.25-.2,4.71,0,6.69.08.77.51,1.41.54,2.14.1,2.87-.45,6.36,0,9.64.36,2.58,1.68,5.01.27,7.23.62,3.92-.11,8.44,0,12.58.03,1.19.5,2.32.53,3.48.07,2.96-.41,6-.27,9.1.09,2-.37,3.81-.53,5.89-.23,3.03.99,6.11,1.07,9.1.07,2.56-1.03,4.75.27,6.96.31,2.1-1.23,3.44-.54,5.09.37.87.23,2.26.8,3.75-.6,2.12-.85,4.53-.8,6.96.06,3.29.74,6.87.8,10.17.04,2.2-.9,4.27.27,6.16-.74,2.44-.42,5.73-1.07,8.56.96,2.47.38,6.86-.27,9.37.73,4.47-.02,9.02.53,12.85.29,1.99-.37,3.97-.27,6.16,1.05,2.36.37,5.78-.53,7.76.04,1.21.76,1.74,1.07,2.68-1.38,6-.56,10.54.54,16.33-.64,2.79-.89,6.65-.54,9.63-4.02,1.67-10.28-.6-14.7.8-1.19.12-1.41-.73-2.14-1.07-5.2,0-12.42,1.52-17.1-.27-2.7,1.26-6.85-.36-9.09,1.07-1.77-.73-4.92-.06-6.41-1.07-.65.15-.57,1.04-1.6.8-1.18-.15-2.56-.11-3.47-.53-.77.48-2.01.48-2.67,1.07-3.96-.9-7.57-1.31-11.49-.27-1.75-.33-3.72-.66-5.08,0-1,.28-.42-1-1.34-.8-1.03-.23-1.16.45-1.6.8-5.22-.55-10.74.11-17.1,0-.6-.21-1.45-.15-1.6-.8-4.61.68-8.74.46-13.63.53-.85.23-.83-.42-1.34-.53-4.05.77-10.37.16-14.16-.27-.16-.86.96-.37.27-1.07-.76.22-.72,1.24-1.6,1.34-5.16.86-9.46-.95-13.63-.54-1.09.11-2.24.75-3.47.8-2.06.09-4.41-.44-6.95-.53-1.17-.28-.88.91-1.87.8-1.74-1.12-4.44.04-6.41-1.07-12.49,1.52-24.39.38-37.68,1.07-.47-.06-1.34.27-1.07-.53-.92.51-1.77,1.08-3.47.8-1.32.02-1.24,1.44-2.94,1.07-.27-.36-.25-1-.8-1.07.39-2.12.53-3.23.27-5.62-.18-.98.58-1.03.53-1.87-1.07-13.73.82-28.43-1.07-41.75,1.11-3.5-.71-8.13-.27-12.31.03-.31.55-.8.53-1.07-.05-1.03-.71-2.12-.8-3.21-.13-1.55.4-3.01.53-4.55.28-3.26-.13-6.49,0-9.9,1.26-1.75-.02-3.78-.27-5.89-.19-1.62.3-3.62.27-5.62-.02-1.26-.62-2.72-.53-3.75.02-.27.53-.82.53-1.07,0-.39-.5-.94-.53-1.34-.22-2.48.86-5.06.8-7.49-.05-2.05-.6-4.16-.8-6.16,1.51-5.03-.07-13.11.8-19-1.52-4.87.43-9.66-.27-14.72-.16-.96.31-1.29.54-1.87-2.37-10.63,1.35-23.25-1.07-32.92.19-1.06.43-2.07.8-2.94-.39-.94-.51-2.16-1.07-2.94.17-.98.21-2.11.8-2.68-1.21-6.25.4-12.22,1.07-19,2.52-2.29,6.49-.83,9.62-1.07,1.18-.09,2.3-.92,3.47-1.07,3.6-.45,7.27.74,10.42-.27.55.43,1.71.25,1.87,1.07,1.53-.87,4.45-.36,5.61-1.61,1.52.35,2.04,1.7,4.01,1.61.88.27.39-.56,1.07-.8,1.09-.38,3.71.74,3.74-.8,2.26.15,4.07.74,6.68.53.86-.23.55.69,1.07.8,1.81-.86,4.63-.71,7.22-.8.72-.18,1.02-.77,1.6-1.07,2.63-.18,4.92.95,7.22.8,1.1-.07,1.84-.61,2.94-.54,1.02.06,2.35.18,3.21,1.07,2.06-.48,4.29-1.05,6.41-.8.5.06,1.07.52,1.6.53.71.01,1.34-.49,2.14-.53,1.16-.06,2.4.56,3.47.53,2.49-.05,5.04-.97,7.48,0,.77.06,1.36-.07,1.6-.53,1.86.45,3.96.63,5.34-.27,5.47-.44,11.86,1.55,16.03.27,1.78-.26,3.62.83,5.08,0,.9.08,1.13.83,1.87,1.07.36-.08.22-.67.27-1.07,1.51.27,3.05.51,4.28,1.07,2.42-1.33,5.78.25,7.75-1.07,3.55,1.25,9.98.4,14.43.53.86.21,1.77.37,2.4.8.55-.26,1.06-.55,1.6-.8,7.19-.26,15.69.57,21.38-.27-.18,2.14.48,3.44,1.34,4.55.85-1.4-1.06-2.32-.8-4.01,1.25-.72,2.98.55,4.01-.54.15,1.09,2.03.47,2.67,1.07,1.41-.41,5.08-.99,6.95,0-.22,3.24,2.23,7.1,0,9.1.24.73.5-.71,1.34-.27-.46,1.34.1,1.37,0,3.21-.55,1.5-3.25.85-3.74,2.41-.71.15-1.36-1.1-1.87-.27l-.27-.13-.27.13c.35-1.07,1.02-1.83,1.34-2.94-.71,0-1.53-.1-1.87.27.46,1.29-.24.88-.8,1.61.12.77.56,1.22,1.34,1.34v.27h.27Zm11.49-11.51c.79.37,1.08,1.24,1.87,1.61.94-.53.45-3.16,2.14-2.14.27-1.25-.47-1.5-1.6-1.34-.22.76.38.69.27,1.34-.16.15-1.27.63-1.33,0-.25-.49.96-2.56-.8-2.68-.63.55.37,1.06-.27,1.61h-.27v.27c-.27-.17-.28-.62-.8-.54-.55.63-.28,2.06.53,2.14h.27v-.27Zm-26.46-2.14h.53c0-.27.22-.32.27-.54-.34-.01-.37-.34-.8-.27v.8Zm-10.42.54c.35-.36.35-1-.27-1.07-.35.36-.35,1,.27,1.07Zm-117.05.27v-.8c-1.2.37-2.45-.88-2.4.54.55.16,1.75-.33,1.87.27-1.16.28-.11.68.27,0v.27h.27c.7.73-.43,1.14-.53,1.87.42.83,1.18,1.31,2.67,1.07,1.01-.74.96-2.92-.27-3.48-.46.46-.7-.04-1.6.27l-.13-.13-.13.13Zm-30.73,0c-.73.81.81-.73,0,0h0Zm37.68,1.34c.58.67,1.01,1.49,2.14,1.61.78-.38.82-1.5.8-2.68-.88-.01-1.02-.76-2.14-.54-.24.57-.81.79-.8,1.61Zm63.87,2.41c1.3-.47,1.28-4.48-1.07-3.75-.05,1.65-.14,3.36,1.07,3.75Zm-79.9-3.48c-.35.91-.53,2.94.27,3.48,1.44-.07,1.86-1.17,2.14-2.41-.75-.41-1.05-1.27-2.41-1.07Zm44.89,2.68c.63-.8.99.2.54.8,1.96-.22,3.91-1.69,1.87-3.48h-1.34c.33,1.41-1.6,1.95-1.07,2.68Zm16.3,0c.81-.17,1.54-.42,1.6-1.34-.17-.64-.36-1.25-1.07-1.34h-.54c-.23.66-.52,2.08,0,2.68Zm8.82-2.68c-1.11,1.17-.85,3.3.8,3.75,1.46-.6.86-3.85-.8-3.75Zm-78.3.54c-2.7,1.49-7.54.83-7.48,5.09,1.4-.06,2.67,0,3.74.27,1.15-2.15,4.48-2.12,5.08-4.82-.67.04-.83-.42-1.34-.54Zm95.94,2.41c.12-.92-.11-1.5-.27-2.14-1.57-.04-.97,2.1.27,2.14Zm8.55.8c.78.02.58,1.02,1.6.8.64-.7,1.2-1.48,1.34-2.68-1.41-1.17-3.5-.93-2.94,1.87Zm8.82-1.34c-.05-.87.63-1.29-.54-1.34-.42.4-.39,1.53.54,1.34Zm6.68-.27h.53v-1.07h-.53v1.07Zm-46.76-.54c-.21.06-.53,0-.54.27.21-.06.53,0,.54-.27Zm65.47,1.87c1.17-.32,1.65.35,2.14-.54-.43-.73-.65-1.67-2.14-1.34.24.98-.47,1.43,0,1.87Zm-108.76-.27c.05-.77.03-1.46-.8-1.34-.55.55,0,1.36.8,1.34Zm114.91-.27c.7-.22,1.47.81,1.87,0-.83-.07-.45-1.33-1.6-1.07-.08.36-.38.51-.27,1.07Zm-156.6,1.07c.73.19.54-.53,1.07-.54,0-.8-.48-1.12-1.07-1.34.09.83-.62,1.28,0,1.87Zm87.92-.8c.07-.36-.17-1.04-.27-.54-.07.37.17,1.04.27.54Zm-93.53,1.07c.36.08.51.38,1.07.27.22-.21.28-1.64-.54-1.61-.12.51-.58.67-.53,1.34Zm4.81-1.07c-.46.02-.83-.06-1.07-.27-.43.75,1.15.74,1.07.27Zm109.83,1.34c1.25.08.72-1.24,0-1.34v1.34Zm-6.68,100.64c2.9-.38,7.8-.12,11.49,0,.38.6,1.43.53,1.6,1.34,1.21-.55,1.52-.58,1.87.8-.46.08-1.43-.86-1.34.27,1.23,1.13,1.9-.59,2.67-.8,1.35.97,3.26,1.38,4.54,2.41.67,1.47,1.66,2.62,2.67,3.75.66,1.66,1.91,2.73,2.67,4.28.41,1.47,2.74,2.42,1.6,4.55-2.34-.15-2.26-2.73-5.08-2.41-1.45-.34-2.17,1.19-2.94,0,.26-.9,1.67-.66.53-1.61-1.18-.03-.31,2.01-1.34,2.14-4.85,1.82-11.5-.09-16.83,1.34-1.06-.81-3.93.19-3.74-1.87,2.64-1.14,4.82-8.18,0-8.57-1.24,1.17-1.65,3.17-2.14,5.09-2.24.79-3.96,2.11-5.88,3.21-7.33-.07-12.97-1.82-18.44-3.75-.4.31-.65.77-1.34.8-.17,1.39.32,2.42,0,3.21.56.33,1,.78,1.34,1.34,3.55-.1,5.54,2.72,8.28.54,3.24.41,4.88,2.43,9.09,1.87,1.24.9,3.85.42,5.88.54,4.58,2.63,13.21-.61,17.1,3.21.83.08-.68-.77.27-.8,1.45.11,1.59.51,2.14,1.07-.58-1.2,6.24-1.06,4.81,1.07.97.26.22-1.2,1.07-1.07,2.09,1.11,3.98,2.43,6.68,2.94,1.95,3.17,2.92,8.49,2.41,12.58.86.24.75-.72,1.33-1.34.39-.41,1.36-.72,1.6-1.07.3-.44-.03-1.21.27-1.87.45-1.03,1.94-1.63,1.6-4.02-.37-2.61-3.83-3.58-4.01-6.42-2.46-.48-3.95-1.93-5.88-2.94-1.3-.44-2.6.68-2.94-.8,1.27-1.92,4.02-1.77,6.41-1.34.79.91,1.46,1.93,2.41,2.68.51-.82.03-2.64.8-3.21-.86-.3-.5-1.82-1.07-2.41.72-3.71-.35-8.65,0-12.85-.86-5.53-.53-11.22-1.34-17.13,1.3-2.2,1-5.37,0-7.49.75-.5.51-1.99.53-3.21.04-.31.49-.23.8-.27,0-2.06-1.12-2.98-1.34-4.82-1.52.17-1.02,2.37-2.4,2.68-.91,5.07-4.54,7.41-6.41,11.51-3.58,1.23-5.92,3.7-10.15,4.28-5.73.13-11.06,1.46-16.03.27-.32.4-.23,1.2-1.07,1.07-.93-.05-1.01-.95-1.87-1.07-.81.62-2.76.09-4.01.27-4.88-1.73-12.43.21-18.71-.54-.81.26-1.59.55-2.41.8-2.12-.76-1.23-4.95-1.07-7.23-.02-.87-1.59-.19-1.34-1.34.32-5.6,1.1-12.76.53-18.73.4-.32,1.2-.23,1.07-1.07-.51-.11-1.15-.1-1.07-.8.07-3.99-1.29-6.28-.27-9.64-.41-.39-.56-1.04-.53-1.87,1.01-3.31-.33-6.27-.27-9.9.06-3.33,1.23-6.58,1.34-10.44.84-1.3,2.19-2.09,2.14-4.28,1.92-1.2,2.97-3.27,4.01-5.35,2.39-1.71,5.31-2.89,7.75-4.55,3.11-.63,5.7-1.78,9.09-2.14,2.47,1.34,5.21.34,7.21.27,2.38-.09,4.89.85,7.21.8,1.76-.03,3.9-.4,5.88-.53,1.33-.09,2.7.35,4.01.27,2.51-.16,4.78-.96,7.21,0,3.16-.97,7.5-.3,9.62,1.34.7-.28,1.64-.32,2.67-.27,5.89,1.6,10.3,4.67,14.7,7.76,1.04,2.08,3.19,3.32,4.28,5.62,1.93,1.75,6.05,3.77,4.54,7.23-1.8-.33-1.88-1.95-4.01-1.34-2.61-2.92-7.06-3.99-9.89-6.69-2.64.15-3.42-1.57-6.41-1.07-4.26-2.38-12.22-2.3-17.64-.8-.82-.07-1.51-.27-2.14-.54-.85.65-3.36.81-4.28.54-1.74,1.67-4.16,1.01-5.88,2.68-.62.09-1.03-.04-1.33-.27-2.56,2.8-8.21,3.9-8.82,7.76,4.96.3,7.27-3.39,11.22-3.21-.04-.66-.05-1.3.53-1.34,2.52-1.9,6.04-1.34,8.82-2.68,2.54.27,4.46-1.55,6.15-.54-2.06,1.6-4.1,3.21-4.28,6.69.62,1.13,1.35,2.22,2.14,3.21.7.88,1.48,2.41,3.21,2.14.3-3.53.23-6.56,2.67-8.3,2.81-1.99,6.66-.75,9.35-2.41,3.74,1.87,8.57,2.65,10.96,5.89-.24.12-.48.24-.54.54-.05.23.11.25.27.27.23-.22.16-.73.54-.8.48.77,2.1.39,2.94.8,1.43,1.24,2.17,3.18,3.74,4.28,2.46-1.01,2.93-3.55,4.28-5.09.89.86,2.13-.11,3.47-.27-.25-.91-1.44-.87-2.14-1.34-1.9-3.53-3.31-7.32-5.08-11.51-.04-2.93-.58-4.04-1.6-5.62-.22-.76.38-.69.27-1.34-1.72-1.75-2.22-4.74-2.67-7.76-.81-.79-1.13-2.08-1.34-3.48-1.65-.66-6.43-1.35-9.62-1.07-1.22.11-2.33.85-3.47.8-1.11-.04-2.18-.73-3.21-.8-.51.11-.67.58-1.34.54-2.52-.7-5.23-.69-7.75-.27-1.13.19-2.11.84-3.74.27-.39-.14-.77-.69-1.34-.8-1.98-.38-3.97.41-6.15.8-1.48-.91-3.46.13-5.34-.54-3.26,1.41-6.63.11-10.15,0-2.13-.07-4.47.17-6.68.27-3.91.17-8.08-.26-12.03,0-7.04.46-16.32,1.7-24.32.54-.85.04-1.18.61-2.14.54-9.94-1.25-20.27-.27-31.8-.8-.47-.69-.04-2.28-1.34-2.14-.49.94-1.08,1.77-2.14,2.14-1.67-.45-4.59.35-6.41.54-.6.06-1.8-.71-1.6.27.93.58,2.64.27,3.21.54.55,1.41,2.64,1.28,3.74,2.14.63,0,.79-.46,1.6-.27,3.91,1.35,7.06,3.45,10.69,5.09,2.65,3.15,5.55,6.03,8.28,9.1,1.38,1.92,1.26,5.34,2.14,7.76-1.48,4.64.85,9.01-.54,13.11-.11.64,1.22-.15.8.8-.42,2.03-.28,4.12-.27,6.42.01,3.39-1.12,6.52-.54,9.9.47,2.7,1.61,7.63.54,10.97.58,2.26.09,4.44.8,6.16-.12.68-.37,1.23-.8,1.61.18.97,1.08,1.23,1.07,2.41.07.96-.8.98-.8,1.87.31,1.65.71,3.22,1.34,4.55.14.75-.91,1.7-1.07,2.94.61,2.71.42,5.14,0,7.23-.89-.78-1.85-.78-2.94-.8-.28,1.35.79,1.35,1.07,2.14.98.09.25-1.54,1.6-1.07.54,4.39,1.62,8.37,0,13.38.49,3.23,1.47,8.24,0,11.78.24,1,.6,1.89.8,2.94-1.13,2.59.02,5.32,0,8.3-.01,2.32-1.12,4.59-1.07,6.69.07,3.1,1.96,6.19.53,9.37,1.62,2.99-.14,6.57-.53,9.9-.62,5.18-.22,10.63-3.47,13.38-.41,3.7-3.62,4.59-4.54,7.76-2.33.43-2.85,2.67-4.81,3.48-.63.08-1,.42-1.87.27-.3,1.13-.82,2.03-1.6,2.68-4.15,1.19-8.53,2.16-12.03,4.02-.99.19-1.15-.46-2.14-.27-1.16.98-4.26.02-4.28,2.14,2.31,1.27,6.69.39,8.55-.53,3.12.34,5.75-.52,8.29.8,3.75-2.29,8.49-1.16,13.09-1.61,1.42-.14,2.82-.92,4.28-1.07,1.59-.16,2.99.28,4.54.27,1.68-.01,3.45-.61,5.34-.8,2.34-.24,4.8.21,6.95,0,2.76-.27,5.28-1.37,8.02-.27,5.52-1.98,11.36.99,17.9-.27,3.23,1.18,8.31.56,11.76-.27,1.34.77,3.11.04,4.01.8,5.94-2.06,11.34.83,18.17-.54.76.04,1.11.49,1.87.54,10.89-1.5,21.38-.39,32.33-1.07,1.37.68,2.36,1.74,4.28,1.87,1.36-1.4,2.45-3.08,3.21-5.09.38-.14.65,1.04.8.27-.58.05-.12-.95-.27-1.34,2.47-2.7,4.21-6.13,6.68-8.83.89-3.39,3.16-5.4,4.54-8.3.45-.44.21-1.57.27-2.41.61-.72,1.81-.86,2.14-1.87,1.32-3.76,4.61-5.55,5.08-10.17-.3-.86-2.21-.11-2.41-1.07,1.77-1.97,3.74-3.75,5.61-5.62.1-1.78.58-3.16,2.41-3.21.95,1.75-.73,2.95-1.34,4.01-.36,4.53-3.13,7.53-4.01,11.78-.71,3.42.41,7.25-.53,10.97.21,1.4,1.78,2.24,1.07,3.75,1.22,1.19,2.22,2.59,2.67,4.55,1.42.74,2.22,3.15,4.28,2.41.06-1.97-.67-5.06-1.34-8.03.82-3.18-.24-5.99.27-9.37.5-3.36,2.82-5.91,2.14-10.44,1.6-1.26.2-4.2,1.87-5.62-.07-.82-.58-1.2-.8-1.87,1.84-1.22.81-3.66,1.6-5.89-1.99-3.09.63-6.05,0-10.17-1.22-1.72-2.19-3.7-2.67-6.16-1.93-1.99-4.34-3.5-8.28-3.48-2,.85-3.45,2.26-5.61,2.94.8,1.42-1.16,1.45-1.07,2.94-3.03,2.49-5.43,5.62-8.28,8.3-1.14.92-2.18.81-4.54.8,0-.26-.33-.21-.54-.27-1.59-1.44-3.08-2.99-4.01-5.09.65-1.45.34-2.39.53-4.01.49-.85,1.63-2.17,1.07-3.21-2.24-.18-2.24,2.02-4.01,1.61-1.94,1.81-2.47,5.02-4.01,7.23,1.11-.29,1.08,1.59.8,2.41,1.94.38,2.27,2.36,3.21,3.75.83.78,1.97,1.23,2.4,2.41,3.34.29,4.42,2.42,7.75,1.87.97-.16,2.22-.97,4.01-1.61,2.59-.93,4.88-1.74,6.95-2.94.49-.85.88-1.8,1.87-2.14,1.33.57,2.64.4,3.74,1.61.38,1.18-.12,1.68,0,3.21-1.38,1.38-2.28,3.25-3.47,4.82-3.48,1.15-4.7,4.57-8.82,5.09-2.06,2.04-5.21,2.98-8.02,4.28-.51-.47-1.64-.31-1.6-1.34,2.71-.67,4.91-1.87,6.68-3.48,4.01-1.34,7.09-3.6,10.15-5.89.12-1.67.81-2.76.8-4.55-2.33-.37-2.4,1.53-3.74,2.14-1.56.48-2.18,1.92-4.01,2.14-1.37,2.66-4.45,2.88-6.68,5.09-1.87.27-3.37.91-4.54,1.87-.11.96-.07,2.07-.8,2.41-3.23.2-2.46-3.6-3.74-5.35-.63.97-1.1,2.11-1.07,3.75-.97,1.06-2.8.99-4.28,1.61-1.35.56-2.2,2.05-4.28,1.07-6.31,1.9-16.23,2.37-23.25,1.34-.51.38-.48,1.3-.8,1.87-.56.24-1.6,0-1.34,1.07,3.13,1.22,7.58,1.69,10.96,1.87.27,1.92-2.66,2.84-2.14,5.89-.68.66-.95,1.72-.8,3.21,1.27,1.14,1.69,3.12,4.28,2.94.3-.84.02-.61,0-1.61,2.27-1.74,3.05-4.98,5.08-6.96,1.93-.36,3.68-2.81,5.34-4.28,2.83-.38,4.92-1.5,8.28-1.34.82-.78.89-2.32,2.14-2.68,1.72.22,2.3,2,3.47,2.94,1.52,1.23,3.63,1.8,4.81,3.48,2.95-.53,6.82-.41,9.62-1.61.77-.93,1.06-2.32,2.14-2.94,1.37-.32,2.04-1.34,3.47-1.61.94-.22.6-1.72,2.14-1.34-1.45,3.81-5.55,4.97-6.95,8.83-6.31,5.1-12.95,9.86-20.84,13.38-1.52.17-2.79.59-4.54.53-1.41.64-2.81,1.29-4.81,1.34-1.32-.09-.94-1.47-1.6-1.61.09.62-.04,1.03-.27,1.34-1.12-.47-2.13.68-3.47.8-1.8.17-5.45-.42-8.02,0-.46.08-.95.52-1.34.54-.33.01-.66-.51-1.07-.54-.94-.06-1.88.46-2.67,0-.16-.1.14-1.17-.53-.8-.72.69.72.38,0,1.07-8.08,1.19-16.18-.07-25.92-.27-6.03-2.7-12.67-3.65-15.77-10.17-.86-.66-1.69-1.34-2.14-2.41-.07-2.34-2.19-3.98-1.87-7.49-.66-.76-1.22-1.63-1.6-2.68-.16-1.14.19-1.77.27-2.68-1.22-2.83.33-6,0-9.63-.08-.87-.56-1.82-.54-2.68.06-2.39-.16-7.71-.53-11.51-.04-.4-.48-.94-.53-1.34-.21-1.44.16-3.26,0-4.82-.2-1.9-.58-5.19,0-7.76-.35-.45-.71-.9-.53-1.87-.07-1.14.7-1.44.53-2.68-.26-1.97-1.21-3.25-1.07-5.62,1.59-2.56,5.12-1.28,8.82-1.61,2.59-.23,5.19-1.05,7.48-.27,2.59-1.03,4.97-.02,8.02-.54.85-.04.89.71,1.87.54,2.03-.8,6.3-.84,8.02.27-.06-.8.95-.94,1.34-.54l-.13.13.13.13c-.05,1.03.42,1.54,1.33,1.61.36-1.17-.64-.97-.8-1.61l-.13-.13-.13-.13ZM89.41,15.98c.31,1.06.31-1.06,0,0h0Zm-74.02,1.34c.65.2,1.09-1.73.27-1.34.09.62-.04,1.03-.27,1.34Zm160.87,1.34v-1.87c-1.21.5-.36-1.06-1.34-.8,0,1.34-.16,2.83,1.34,2.68Zm-84.71-2.14c-.64.9.9-.65,0,0h0Zm117.31,0c.31,1.06.31-1.06,0,0h0Zm-12.29,2.94c.31-.4.77-.65.8-1.34-.23-.93-.97-1.35-1.87-1.61.04,1.3-.33,3.01,1.07,2.94Zm-11.22-2.68c-1.07-.26-.8.8-1.87.54-.16,1.59.32,2.53,1.87,2.41.82-.56.6-2.31,0-2.94Zm-166.22,1.61c1.27.4,2.55-.88,1.34-1.34-.53.36-1.24.54-1.34,1.34Zm173.43.27c.66.04,1.11-.14,1.34-.54-1.15.35-.85-.76-1.34-1.07v1.61Zm-171.03-.27c.86.23.84-.41,1.07-.8-.36-.08-.51-.38-1.07-.27v1.07Zm169.69-.8c-.28,1.55,1.16.11,0,0h0Zm-17.37.8h.54c.42-.66-.91-.79-.8-.27.16.02.32.04.27.27Zm36.88,0c-.21.06-.53,0-.53.27.21-.06.53,0,.53-.27ZM15.66,21.07c1.11.04,2.23.09,2.67-.54.59-3.43-2.61-.85-2.67.54Zm10.96,71.19c-.45-1.42-1.37-2.38-2.14-3.48-2.93-.51-3.71.39-5.88,1.07-1,1.86-2.01,3.7-2.67,5.89.7,1.69.08,3.84.27,6.42,1.38,3.52,4.13,5.67,7.48,7.23,1.7-.6,2.93.53,5.08.27.58-.05.85.22.8.8.89-.86,2.24-.92,3.21-1.61,1.94-1.38,2.83-4.01,5.08-5.09.18-1.4,1.13-2.81,1.34-4.55.31-2.61-.38-5.41,0-7.76-.79-2.27-1.8-3.76-1.6-6.42-.63-.79-1.14-1.72-1.6-2.68v-1.87c-1.3-1.9-2.49-3.93-3.74-5.89.24-.47.6-.83,1.07-1.07,2.8-.38,3.85,1.5,5.61,2.41,1.79.93,3.76,2.63,5.34,4.01.64,2.22,2.32,3.39,3.21,5.35.71-.18,1.67-.11,2.14-.54-1.38-1.19-.63-4.14-2.41-5.89.17-1.07-.71-1.08-.54-2.14-1.21-.93-2.94-1.34-3.21-3.21,3.74-.43,7.23,1.67,9.89,3.21,1.44,1.14,1.96,3.21,4.01,3.75,1.81-4.09.25-7.81-2.41-9.9-.07-1.51-1.68-2.68-1.07-4.01-1.89.19-2.43-.96-3.21-1.87.16-.25.62-.99-.27-.8.02.38.04.76-.27.8-1.73-1.84-6.06-1.06-6.95-3.75,1.1-1.32,2.56-1.76,4.81-1.34,2.37-1.46,2.85-4.81,3.74-7.76-2.16-.11-2,2.11-3.47,2.68-1.79.72-4.08.63-5.61-.27-9.73,1.16-11.81-7.61-16.3-12.58-.43-3.99-2.3-8.61.8-11.24,3.59,1.04,4.04,5.23,6.68,7.23,2.59.75,6.19,2.37,9.62,1.87.24-.03.38-.43.8-.54,1.22-.31,2.48-.36,3.21-1.34-.19-.99.46-1.15.27-2.14-6.57,1.2-11.79-1.84-15.23-5.35-.26-.63-.47-1.32-.54-2.14,2.96-.7,8.58,3.19,8.29-2.41-2.2.82-2.62-.99-5.08-.27-1.19-.77-1.84-2.08-2.4-3.48-2.62-.58-4.32-2.1-6.95-2.68-2.55,1.01-3.05,4.08-4.54,6.16-1.37,6.97.19,13.02,2.67,17.93-.11,3.94,2.54,5.13,3.21,8.3-1.8.95-2.96-1.45-2.94-2.41-.9-.89-1.41-2.29-2.14-3.48-.7-1.15-1.71-2.18-2.14-3.48-.55-1.66.29-4.48-1.87-5.35-.13,4.83,1.25,10.31.53,14.99,2.12,5.29,3.53,11.27,5.88,16.33.11.64-.49.58-.27,1.34,1.73,1.44.94,3.74,2.67,5.09-.14,1.04.48,1.31.27,2.41,1.18.43,1.78,1.43,2.41,2.41-.19,1.01,1.47,2.63.53,4.28,1.51,1.34,1.75,3.95,2.67,5.89v2.14c1.49,2.88,2.37,6.47,1.07,10.71-1.5,1.09-2.38,2.79-4.01,3.75-4.48.37-6.64-1.29-9.09-3.48-.57-1.67-.91-3.55-1.34-5.35,1.15-1.08,1.54-2.91,2.67-4.02,1.28-.6,3.16-.43,4.28-.54l.13.13.13-.13v.27h.54v-.54h-.54l.13-.13-.13-.13ZM188.02,22.67c.8.27,1.71.43,2.4.8.52-.65.26-2.24,0-2.94-1.84-.33-2.04.99-2.4,2.14Zm-2.14-1.34c0-.27-.47-.34-.53,0,.06.32.3.16.53,0Zm-2.4.8c.34.01.37.34.8.27.01-.46-.2-.69-.54-.8,0,.27-.22.32-.27.54Zm-2.41,1.61c.63.63,1.31-.04,2.14,0,.42-2.18-2.65-2.48-2.14,0Zm3.47-.8c.38.06.45.44.8.54.08-.36.38-.51.27-1.07-.61-.07-1,.06-1.07.54ZM15.66,25.08c.06-.38.44-.45.54-.8-.31-.04-.76.05-.8-.27-.03-.42.04-.93-.53-.8.42.96-.28,1.47.8,1.87Zm175.84-1.07c.78.39.78-1.2,0-.8v.8Zm19.24-.8h-1.07c-.42,1.24,1.38.93,1.07,0Zm-32.07,1.07c.27-.89-.37-.88-1.07-.8-.08.71.37.88,1.07.8Zm-164.88,0c-1.41.71,1.02-.51,0,0h0Zm3.47,0c-.21.06-.53,0-.54.27.21-.06.53,0,.54-.27Zm165.41,2.41h.8c-.04-.31.04-.76-.27-.8-.06.38-.44.45-.54.8Zm2.67,1.34c.95.45,2.57.95,2.41-.8-.82-.63-2.34-.16-2.41.8Zm-4.28.54c-.06-.47.27-1.34-.53-1.07-.07.61.06,1.01.53,1.07Zm2.67-1.07c-.23-.23-.76.19-.8.27-.25.47.99-.08.8-.27Zm.8.27c-.21.06-.53,0-.54.27.21-.06.53,0,.54-.27Zm-49.17.8c-.21.06-.53,0-.54.27.21-.06.53,0,.54-.27Zm-99.14,1.61h.54c-.02-.73.45-.54,0-1.07h-.54c-.45.53.02.34,0,1.07Zm-21.38,1.34c.24-.48.75-.68.53-1.61-.37.01-.59-.13-.8-.27.16.55-.33,1.76.27,1.87Zm26.99,1.34c.78-.02.99-.61,1.34-1.07-1.06.17-.38-1.4-1.34-1.34-.13,1.22.46,1.52,0,2.41Zm105.02-1.07c.19-.2.66-1.31-.27-1.07.05.4-.1.99.27,1.07Zm56.39-.8v.54c.66.42.79-.91.27-.8-.01.16-.04.32-.27.27Zm-1.07,2.14c.14-.95.32-1.66-.53-2.14-.37.45-.62,2.4.53,2.14Zm-68.94,1.34c.5-.57,1.38-.76,1.07-2.14-1.75-2.02-3.85,2.04-1.07,2.14Zm15.77-2.41c-.3.03-.42-.39-.54,0,0,.27.47.34.54,0Zm31.8.8c-.03-.86-.61-1.18-1.6-1.07-.43,1.32.92,1.67,1.6,1.07Zm-56.12.8c.7.37.92,1.22,1.87,1.34.45-.62.69-1.45.53-2.68-1.14-.59-2.35.06-2.4,1.34Zm-15.23-.8c.73-.2.54.53,1.07.54.33-1.05-.94-1.44-1.07-.54Zm30.46,1.34h1.6c0-.63-.46-.79-.27-1.61h-1.34c.22.93-.5,1.13,0,1.61Zm59.33-.27c-.17-.64-.36-1.25-1.07-1.34-.07.87.32,1.29,1.07,1.34Zm-180.92-.8c.31,1.06.31-1.06,0,0h0Zm100.75,1.34c.37-.34.37-1.26,0-1.61h-.8c-.01.81-.15,1.76.8,1.61Zm28.06-.8c-.08,1.24.47,1.85,1.6,1.87.47-.51.88-1.08.8-2.14-.86-.43-1.77-.22-2.41.27Zm35.28.27c-.9.43-1.14-1.14-1.6-.27.5.25,1.24,1.43,1.6.27Zm-67.88.8c.07-.61-.06-1.01-.54-1.07.06.47-.27,1.34.54,1.07Zm24.05.27c.11-.51.57-.67.53-1.34h-.8c.15.39-.31,1.38.27,1.34Zm44.36-.54h.8v-.8h-.53c-.02.34-.34.37-.27.8Zm-21.91,0c1.13.03.79,1.53,2.14,1.34-.01-.37.13-.59.27-.8-1.22.29-1.51-2.15-2.4-.54Zm40.62.27c.05-.58-.22-.85-.8-.8-.05.58.22.85.8.8Zm-87.65,4.01c-3.47-.36-4.17-3.49-8.28-3.21-.82-.96-2.7-.87-4.28-1.07-.2.78-1.44.52-1.34,1.61.72,1.48.71,2.26,1.07,4.28,1.54,1.93,3.12,3.84,3.74,6.69,1.88,1.18,3.92,3.54,6.41,3.21v-2.14c-.91-1.23-1.71-2.57-2.14-4.28-1.1-.87-3.28-2.06-2.41-4.01,1.88-.1,2.05,1.52,2.67,2.68.5.57,1.66.48,1.87,1.34.74,2.03,1.12,4.41,3.21,5.09,3.49-1.78,1.95-8.42-.54-10.17Zm31-3.75h.8v-.54h-.8v.54Zm38.21,2.14c-.19-.82.27-.98.27-1.61-.86.23-.55-.69-1.07-.8.11.96.07,2.07.8,2.41Zm-57.45-1.07h.53v-.53h-.53v.53Zm59.59.8c.76-.28,1.11-.28,1.87,0,.53-1.77-2.4-1.77-1.87,0Zm14.97.27c.83-.16,1.37-1.19.53-1.61.13.84-.82.61-.53,1.61Zm-48.37-1.07c.31,1.06.31-1.06,0,0h0Zm-37.68.27c0-.27-.47-.34-.53,0,.06.32.3.16.53,0Zm24.59,1.61c.11-1-.21-1.57-1.07-1.61-.46.53.42,1.36,1.07,1.61Zm41.69-.8c.51-.11,1.15-.1,1.07-.8-.7-.08-1.15.1-1.07.8Zm-21.38-.27c-.23,1.58.15-1.07,0,0h0Zm47.83.27c.55-.16,1.86.43,1.6-.54-.73.45-1.25-.42-1.6.54Zm4.01-.27c.31,1.06.31-1.06,0,0h0Zm-152.86,1.07c.01-.46-.21-.69-.53-.8-.01.46.21.69.53.8Zm56.39.27c.74.43.74-1.16.27-1.07-.08.36-.38.51-.27,1.07Zm11.22.54c-.77-.39-.51-1.8-1.87-1.61-.62-.08-.3.77-.8.8.05,1.78,2.35,1.24,2.67.8Zm-71.88,0v-1.07c-.47.15-1.57-.32-1.6.27,1.18-.38.7.91,1.6.8Zm145.11-.54c.27,0,.32.22.53.27-.03-.42.04-.93-.53-.8v.54Zm-14.16.27h.53v-.54h-.53v.54Zm.53.27c.1,2.05,2.91-.4,1.34-.8.23,1.55-.89.07-1.34.8Zm-57.99.27c.02-.38.04-.76-.27-.8.05.23-.1.25-.27.27v.54l.13.13.13.13c-.49.49-1.05.9-1.33,1.61.32.74.76.94.27,1.87,1.21-.13,1.89-1.29,1.34-2.41.35-.26,1.45-1.63.27-1.07v-.27h-.27Zm-29.66-.54c-.97,1.26,1.56.36,0,0h0Zm-43.83.8c.42-.03.93.04.8-.54h-.53c0,.27-.22.32-.27.54Zm114.64,1.34c1.22.24,1.64-2.25,0-1.87v1.87Zm29.66-1.61c-.28,1.55,1.16.11,0,0h0Zm-66.54,1.61c.93-.05,1.74-.22,1.6-1.34h-1.6v1.34Zm70.55-1.07c0-.27-.47-.34-.53,0,.06.32.3.16.53,0Zm-188.93,2.41c.89-.18,1.45-.69,1.34-1.87-.89.18-1.45.69-1.34,1.87Zm42.49,0c-.06-.51.3-.59.27-1.07-.34-.01-.37-.34-.8-.27-.04.66-.05,1.3.53,1.34Zm65.74,1.07c.35-.45.71-.9.54-1.87-1.07.26-.8-.8-1.87-.54-.35,1.19.19,2.05,1.34,2.41Zm60.93-1.34c.19-.2.66-1.31-.27-1.07-.03.67-.51.84.27,1.07Zm-133.35,0c-.77.51-.87,2.82.53,2.68,1.22-.21,1.08-3.01-.53-2.68Zm-13.63,1.61c.7.28.9,1.06,1.6,1.34-.22-1.09-.04-.92,0-2.14-.95-.14-1.38.23-1.6.8Zm6.15,1.61c.59.3,1.09.69,2.14.54.19-.79.8-1.17.54-2.41-1.37-1.05-2.91-.14-2.67,1.87Zm144.3-1.07c.34.49,1.2,1.18,1.87.54-.13-.85-.33-1.63-1.07-1.87.2.91-1.09.34-.8,1.34Zm18.17.27c-.07.87.32,1.29,1.07,1.34.32-.4.23-1.2,1.07-1.07.09.36.38.51.27,1.07.77-.12,1.22-.56,1.34-1.34-.28-.52-1.23-.37-1.6-.8-.01-.16-.04-.32-.27-.27.33,1.31-1.36.61-1.87,1.07Zm-106.89,1.61c-.62-.09-1.03.04-1.34.27.32,1.28,1.18,2.03,1.34,3.48.23-.64.17-.71.27-1.87.62.09,1.03-.04,1.34-.27-.3-1.48-.88-2.68-1.87-3.48-.21.93.4,1.03.27,1.87Zm-58.79-1.34c-.21.06-.53,0-.54.27.21-.06.53,0,.54-.27Zm61.46,1.87c.95-.03-.57-.88.27-.8.73.75,2.21.49,2.94.27-1.08-.35-2.27-.59-3.47-.8-.21.18-.7,1.59.27,1.34Zm-83.38-.8c0-.27-.47-.34-.53,0,.06.32.3.16.53,0Zm76.69.54c.58.05.85-.22.8-.8-.72-.18-.52.55-.8.8Zm66.81.54c.31,1.06.31-1.06,0,0h0Zm-23.79,1.07c-.36.81-.36,2.14,0,2.94,1.35-.19,1.58.73,2.67.8.61-.72.93-1.74.8-3.21-.67-1.05-2.1-.78-3.47-.54Zm-88.18.27c.07,1.32.08,2.57-.53,3.21,1.47-.38.87-1.77,1.87-2.94-.38-.06-.45-.44-.8-.54-.06.21-.22.31-.53.27Zm2.94.27c.46.01.68-.21.8-.54-.46-.01-.69.21-.8.54Zm-12.83.8v-1.07h-1.07c-.12.84.23,1.2,1.07,1.07Zm120.25-.54c-.29,1.81,1.2,1.83,2.67,1.87.46-.43.66-1.12.53-2.14-1.48.1-2.31-.59-3.21.27Zm48.64,2.14c.98-.18,1.02.58,1.87.54.34-.73.65-1.49.53-2.68-1.14.41-1.6-1.23-2.4-.27.43.58-.67,1.29,0,2.41Zm-163.54.8c.77-.8.72-2.97-.53-3.21-2.4-.02-1.82,3.62.53,3.21Zm-29.4-1.61c-.01-.37.13-.59.27-.8-.36-.08-.51-.38-1.07-.27-.08.7.1,1.15.8,1.07Zm150.72-.27c.09.89.8,1.16,1.33,1.61.71-.48.73-1.96-.27-2.14-.04.5-.91.16-1.07.53Zm25.39,1.34c.06-.21,0-.53.27-.54.53,0,.34.73,1.07.54-.21-.69-.27-1.52-.8-1.87-.22.42-1.15,1.49-.53,1.87Zm-92.46-.27c.68-.03,1.04-.39,1.07-1.07-.84-.12-1.19.23-1.07,1.07Zm104.75-.54h.54v-.54h-.54v.54Zm-101.55.8c1.52.23.4-1.88-.27-.8.31.04.29.42.27.8Zm103.95.54c.14-.4.39-.67.53-1.07-.42-.06-1.25-1.03-1.6-.27.74.06.61,1,1.07,1.34Zm-168.09-.8c.31,1.06.31-1.06,0,0h0Zm173.97.27c.27,0,.32.22.53.27-.03-.42.04-.93-.53-.8v.54Zm-111.97.54c.46.01.68-.21.8-.54-.42.03-.93-.04-.8.54Zm32.33-.27c-.76.5-.81,2.53.53,2.41,1.27-.26.89-2.59-.53-2.41Zm22.18,1.61c.3,1.4,1.08,2.31,2.67,2.41.89-.54,1.41-1.44,1.6-2.68-.83-1.53-3.67-1.28-4.28.27Zm-97.54,1.34h1.07c.4-.43.4-1.97,0-2.41h-1.07c-.2.63-.53,1.85,0,2.41Zm-12.56-.27c.16-.19.32-1.89-.53-1.87-.6.64.29,1.28.53,1.87Zm52.91-.8c.71.08.88-.37.8-1.07-.67-.05-.84.41-1.07.8l-.13-.13-.13.13c-.22-.05-.27-.27-.53-.27-.2,1.09.86.92.53,2.14.7.08,1.15-.1,1.07-.8-.07-.29-.53-.18-.54-.54l.13-.13-.13-.13Zm113.57-.8c-.16-.08-1.03-.67-1.07,0,.16.08,1.03.67,1.07,0Zm-110.37,1.07c.55.23,1.2-.69.54-.8-.06.38-.44.45-.54.8Zm4.54-.27c-.81.38-1.57,1.59-2.14,2.14-.82.79-1.62,1.34-2.14,2.14-.97,5.54-.31,9.88.27,15.52-.67,1.91-1.8,3.37-2.14,5.62,5.61-1.88,9.89-5.08,14.16-8.3.47-1.76,1.5-2.96,2.67-4.01,0-2.41.79-4.51.8-6.16-1.01-.69-.62-2.33-1.07-3.48-2.68-.1-2.61,2.56-4.54,3.21-.67,1.38-.93,3.18-2.14,4.01-.14,2.45-1.06,4.11-2.94,4.82-.6-1.56,1.02-3.03,1.6-4.28.42-3.15,2.32-4.81,3.21-7.49,1.52-.88,3.15-1.67,3.47-3.75-3.37-.16-6.59-1.17-9.09,0Zm30.73.27h.53c0-.27.22-.32.27-.54-.34-.01-.37-.34-.8-.27v.8Zm31.8.54c-.69-1.22-4.59-2.48-4.28.54.72,2.04,3.35,1.29,4.28,0,1.48.28,5.73,1.51,5.88-1.07-.03-.51-.88-.19-.8-.8-2.2-.06-2.34,1.94-5.08,1.34Zm-45.16-.27c-.38.6-.2,1.76-1.07,1.87-.57-.21-1.49-.65-1.87-.27-1.85,5.61,2.75,8.65,4.81,12.04,4.49.96,6.49,3.89,11.22,4.02,1.54,1.14,3.05,2.3,4.54,3.48-.08.31-1.18,1.11,0,1.07,1.88-1.4.71-4.4.53-6.96-3.3-2.67-3.03-8.92-6.68-11.24-2.35-.14-2.99-2-4.01-3.48-2.91-.19-4.81-.72-7.48-.54Zm20.31,2.14c.36.48,1.55.83,2.14.27,0-1.25-.62-1.87-1.87-1.87.19.82-.27.98-.27,1.61Zm9.62-1.07h.53v-.54h-.53v.54Zm-15.5.27c-.56,1.85,2.49,4.42,4.28,2.41-.39-1.7-2.04-3.43-4.28-2.41Zm-80.7.8c.47-.15,1.57.32,1.6-.27-.34-.37-1.6-.47-1.6.27Zm91.12.53c-.22,1.58.15-1.07,0,0h0Zm65.2,0c-.21.06-.53,0-.53.27.21-.06.53,0,.53-.27Zm-53.71.8c-.58.04-.57.67-.54,1.34.96.44,2.09,1.3,3.21.8v-1.87c-.82.01-.84-.5-1.87-.8-.43.82.42,1.17-.8.54Zm-101.81,2.14h1.6c.45-.48-.22-1.35-.27-2.14h-1.34v2.14Zm87.12.8c.78.74,1.34,1.69,2.67,1.87,1.31-.21,1.47-3.19.53-4.01-1.69.09-2.99.58-3.21,2.14Zm-48.1,0c.93.31,1.71-1.79.54-1.87-.22.58-.69.91-.54,1.87Zm53.18-.27v.54c.66.42.79-.91.27-.8-.02.16-.04.32-.27.27Zm64.13-.27c-.21.06-.53,0-.53.27.21-.06.53,0,.53-.27Zm-72.95,2.68c.68.57.68,1.82,1.87,1.87,2.71-1.25-1.08-5.05-1.87-1.87Zm9.89-.8c-.21.06-.53,0-.54.27.21-.06.53,0,.54-.27Zm6.68.8h.53v-.54h-.53v.54Zm55.85-.27c-.87.16-1.24-.18-1.87-.27-.17,1.58,2.08,1.88,1.87.27Zm-195.08,4.01c.54.71.92,1.58,2.41,1.34.77-1.01.97-4.5-.54-4.82-1.46.33-1.57,1.99-1.87,3.48Zm141.1.54c.74-.18-.74-1.4.8-1.07-.89-1.53.63-1.28.8-1.87-1.34.27-1.31-.83-2.4-.8-.66,1.44.25,3.33.8,3.75Zm-14.7.8c.31.05.29.42.27.8,2.67.47,3.82-1.68,2.67-3.48-.82.19-.97-.27-1.6-.27-.09,1.34-1.52,1.33-1.34,2.94Zm-47.3-2.14c-.27,0-.32-.22-.53-.27-.73.43.39.9.53.27Zm60.39,3.21c.04-1.02-.01-1.95-.53-2.41.16.52-.83,2.42.53,2.41Zm-60.39-.54c1.16-.08.76-1.42-.27-1.34-.11.65.49.58.27,1.34Zm56.12.54c-.06.86.47,1.13.27,2.14,1.94.38,3.05-2.66,1.34-3.48-.37.61-1.1.86-1.6,1.34Zm5.88-1.07v.54c.66.42.79-.91.27-.8-.02.16-.04.32-.27.27Zm13.9.54c-.03,1.01.52,1.44,1.34,1.61.38-.81.27-1.83-.54-2.14-.07.38-.59.31-.8.54Zm-11.22,3.48c.53,0,.34-.73,1.07-.54.12-1.9-.85-2.72-2.14-3.21-1.61,1.05-1.08,3.65,1.07,3.75Zm-66.01-.54c.84.13.94-.48,1.87-.27-.29-.85,1.04-2.25-.27-2.41-.05,1.37-1.79,1.06-1.6,2.68Zm53.98-1.34c.06-.38.44-.45.54-.8-.82.19-.97-.27-1.6-.27.03.68.39,1.04,1.07,1.07Zm22.45.27c.37-.34.41-1.31-.27-1.34.15.39-.31,1.38.27,1.34Zm-150.98,2.68c.8,0,.91-.7,1.6-.8.81-5.59-5.59-.83-1.6.8Zm137.62-1.87c-.16-.55.43-1.86-.53-1.61,0,.71-.15,1.58.53,1.61Zm-36.34-1.07c.31,1.06.31-1.06,0,0h0Zm54.78,1.07c.61.07,1.01-.06,1.07-.54-.38-.06-.45-.44-.8-.54-.08.36-.38.51-.27,1.07Zm-7.21-.8c-.21.06-.53,0-.53.27.21-.06.53,0,.53-.27Zm-50.24,2.41c.67.22,1.05.73,1.87.8.36-.45.71-.9.53-1.87-.5-.21-.98-.45-1.6-.54.38,1.18-.9.7-.8,1.61Zm24.32.54c.76.31.88,1.26,1.6,1.61,1.14-.2,1.85-.82,1.87-2.14-.92-1.75-3.35-2.19-3.47.54Zm-48.64-1.34v.54c.66.42.79-.91.27-.8-.01.16-.04.32-.27.27Zm1.34.27c.31,1.06.31-1.06,0,0h0Zm59.06,1.87c1.07.62,1.27,2.11,3.47,1.61.29-.6.44-1.34.8-1.87-1.02-.86-1.97-1.78-3.74-1.87.15,1.05-.23,1.55-.53,2.14Zm-29.13-.27c.26.72.67,1.29,1.6,1.34,3-1.25-1.09-4.87-1.6-1.34Zm23.78-1.07c-.63.44-.58,1.56-.54,2.68-.84.86-1.68,1.71-1.6,3.48-1.94,1.54-3.82,3.13-5.88,4.55-3.17.69-6.77,2.41-9.89,2.14-4.24-.36-8.38,1.69-12.29.27-.5.03-.19.88-.8.8-5.97-.1-9.59,2.18-14.7,2.94-.42-.2-.4-.85-1.07-.8-.19.82.27.98.27,1.61-3.58.88-7.53,3.31-6.68,6.96,2.25.6,3.78-2.55,6.41-1.61-.41-1.15,1.03-.87,1.34-.54,1.02-2.1,4.03-2.21,6.68-2.68,2.72,1.02,6,0,9.35.54.76.84,2.23.98,2.67,2.14.82.19.79-.46,1.6-.27,1.87,1.34,2.67,3.75,5.08,4.55,2.66-.92.45-4.4,0-6.16-2.14.63-3.51-2.72-6.41-1.34-.24-.48-.75-.68-.53-1.61,1.94-.02,4.12.21,5.34-.53,2.02,1.26,4.19,0,6.41,0,.65,0,1.31.29,1.87.27.43-.02.96-.5,1.33-.54,5.16-.47,9.39,2.6,13.63,1.07-.08-1.42.69-1.98.53-3.48-1.24-1.2-3.47-.04-5.34-.8.56-2.65,3.95-2.47,4.28-5.35h1.07c.23-2.5,1.05-2.89,1.87-4.55-1.26.1-.72-1.59-1.87-1.61.6-.73-.66-1.32-.8-2.14h-1.33Zm-35.81,1.07c-.36-.08-.51-.38-1.07-.27-.43.75,1.15.74,1.07.27Zm49.7.27c-.17.98.18,1.43.53,1.87,1.52-.41,1.99-.13,2.67.8-.25-1.18-.7-2.15-1.07-3.21-1.05-.16-1.55.23-2.14.54Zm5.88.8c.33.83.81,1.51,1.87,1.61.5-.75,1.71-.79,1.87-1.87-1.01-.42-1.42-1.43-3.21-1.07.2.82-.73.51-.53,1.34Zm-39.82,1.34c.8.46,2.61,1,3.47.54.4-2.47-3.58-3.52-3.47-.54Zm-12.56-1.61c-1.27.76-.91,3.45.27,4.01-.12-1.61,1.2-.1,1.87-.8.3-2.09-.6-2.97-2.14-3.21Zm58.79,1.87c.59-.72-.39-1.59-1.07-1.87,0,.98-.1,2.07,1.07,1.87Zm-153.92-.27h.8c.05-.58-.22-.85-.8-.8v.8Zm101.55,2.14c1.51.96,2.53-.6,2.67-1.87-1.33-1.63-3.74.33-2.67,1.87Zm87.92-2.14c.31,1.06.31-1.06,0,0h0Zm-96.74,0c-.81.9.99.81,0,0h0Zm27.26,1.34c.15-.16.63-1.27,0-1.34-.18.53-.92,1.14,0,1.34Zm21.65.54c.17-.73-.34-2.12-.8-1.34.62.09.26,1.17.8,1.34Zm-52.38.54c.41.28,1.89-.09,1.6-1.34h-1.34c.22.76-.38.69-.27,1.34Zm2.41,0c.13,1.12,1.21,1.29,2.14,1.61.29-.62.16-2.73-.8-2.94-.36.53-.62,1.16-1.34,1.34Zm61.46.54c0-.73,1.12-1.25,0-1.61.37.77-.73,1.36,0,1.61Zm33.67-.8v-.8h-.8c-.05.58.22.85.8.8Zm-191.34,3.21c1.12.14,1.81-.15,2.41-.54-.22-1.2.43-3.03-1.34-3.21-.36,1.25-1.39,1.82-1.07,3.75Zm122.39-3.21c.31,1.06.31-1.06,0,0h0Zm18.97,0c-.21,2.04,1.77,3.15,3.47,2.41.47-.45-.24-.9,0-1.87-1.08-.17-2.31-1.29-3.47-.54Zm-16.57.54c.73-.43-.39-.9-.54-.27.27,0,.32.22.54.27Zm-103.95.8c.47.02.83-.06,1.07-.27.08-.71-.37-.88-1.07-.8v1.07Zm90.59-.54c-.28,2.07.76,2.81,2.14,3.21.07-.47.46-.61,1.07-.54.28-1.82-1.16-4.2-3.21-2.68Zm6.68-.27v1.87c.64.58,1.91.83,2.67.54-.15-1.07-.15-.81,0-1.87-.76-.27-2.08-.93-2.67-.54Zm-43.02.8c.06-.38.44-.45.53-.8h-.8c.04.31-.04.76.27.8Zm75.09,1.87c1.09.12,1.71-.25,2.4-.54.12-3.36-5.03-2.08-2.4.54Zm42.76,1.61c.64-.98,1.44-.86,2.94-1.34.17-1.6-1.4-1.45-1.34-2.94-3.14-1.11-4.03,3.82-1.6,4.28Zm-184.92-3.48h.8v-.54h-.8v.54Zm114.37,1.07h1.07c-.12-.51.36-1.61-.54-1.34.23.85-.42.83-.53,1.34Zm-47.03.8c.95.06,1.4-.38,1.34-1.34-.34-.01-.37-.34-.8-.27.37,1.08-.58.85-.54,1.61Zm60.39-.8c.01-.46-.21-.69-.54-.8-.01.46.2.69.54.8Zm-35.54.8c.06-.95-.38-1.4-1.34-1.34-.19,1.08.26,1.53,1.34,1.34Zm-10.96.27c.68-.03,1.04-.39,1.07-1.07-.63-.72-1.79.44-1.07,1.07Zm56.12,1.07c.51.48,1.77.19,2.67.27-.18-.98.58-1.03.53-1.87-.38-.06-.45-.44-.8-.54-.68.84-1.19,1.84-2.41,2.14Zm-40.08.8c.62.09,1.1.32,1.6.54.83-1.36.22-2.89-1.34-3.21-.33.47.29,1.87-.27,2.68Zm-98.61-1.34c.48.45,1.64.07,1.87-.54-.48-.71-2.03-.8-1.87.54Zm151.25,0c.51-.53,1.26-.13,1.87,0,.22-1.63-2.46-.24-1.87,0Zm-116.51,24.62c-2.8-3.26-5.44-6.68-8.28-9.9-.32-.75-.6-1.54-.8-2.41-2.9-3.79-6.03-7.34-8.02-12.04-.67.05-.84-.41-1.07-.8-.47-.02-.83.06-1.07.27-.21.06-.31.22-.27.54.48,2.1,1.17,4,1.34,6.42,1.26,1.68,2.59,3.3,2.94,5.89,1.69,1.16,2.53,3.17,3.47,5.09,2.15,1.59,3.47,4.02,5.34,5.89,3.31-.26,3.35,4.11,5.88,3.75.58-.48.04-2.1.53-2.68Zm66.81-24.09c.02-.16.04-.32.27-.27-.03-.33-.08-.63-.53-.54.04.32-.05.76.27.8Zm12.56.27c.07-.7-.1-1.15-.8-1.07-.04.67.41.84.8,1.07Zm42.22-.54h.54v-.54h-.54v.54Zm-68.95-.27c-.21.06-.53,0-.53.27.21-.06.53,0,.53-.27Zm.8,1.61c.2.93,1.33.91,2.14.54.19-.82-.27-.98-.27-1.61-.99,0-1.84.12-1.87,1.07Zm-96.74.54c.68-.03.94-.49,1.34-.8-.51-.11-.48-.76-1.34-.53v1.34Zm1.6-.8c.31,1.06.31-1.06,0,0h0Zm84.18.54v-.8h-.8c-.05.58.22.85.8.8Zm28.59.27c.84.12,1.19-.23,1.07-1.07-.68.03-1.04.39-1.07,1.07Zm-8.02,1.07c.59-.67-.02-1.76-.8-1.87-.82.57-.61,2.09.8,1.87Zm-102.62,1.61c2.13.45,2.46-1.76,1.87-3.21-2.07-.3-2.74,2.15-1.87,3.21Zm85.51-1.87c.27,1.07.78,1.9,2.4,1.61.3-.68.66-1.31,1.07-1.87-1.54.38-1.13-1.19-2.41-1.07-.46.34-1.05.55-1.07,1.34Zm66.27-.8h.54v-.54h-.54v.54Zm2.41-.27c-.28,1.55,1.16.11,0,0h0Zm-146.98.27c-1.71-.31-.59.82,0,0h0Zm71.62.27c-.21.06-.53,0-.53.27.21-.06.53,0,.53-.27Zm110.1,2.94c1.35-.26,2.71-.5,3.74-1.07v-1.61c-1.76-.68-3.99-.04-3.74,2.68Zm-191.34-2.41c.31,1.06.31-1.06,0,0h0Zm10.96.27c.17.64.36,1.25,1.07,1.34v-1.34c-.73.02-.54-.45-1.07,0Zm-4.01.8h.8c.05-.58-.22-.85-.8-.8v.8Zm160.87.8c.27-1.16-.59-1.19-1.07-1.61-.17,1.07.15,1.64,1.07,1.61Zm-87.92.54c.48.5.72,1.24,1.34,1.61-.1-.99,1.08-.7.8-1.87-.29-.61-.81-.97-1.6-1.07-.12.51-.58.67-.54,1.34Zm-41.95,1.61c-1.46-.15-1.68-1.53-3.74-1.07-1.47,1.54-1.15,4.93.8,5.09,1.79.14,1.36-1.68,2.67-2.68,1.21-.32.6,1.19,1.87.8,4.54-1.06-.64-8.44-1.6-2.14Zm111.97-1.61v-.8h-.8c-.05.58.22.85.8.8Zm2.41.27c.78.39.78-1.2,0-.8v.8Zm-143.5.54c.81-.08,1.82.04,1.87-.8-.8.09-1.63.15-1.87.8Zm150.72.8c.75.22.69-.38,1.34-.27-.27-.62-.54-1.25-1.34-1.34-.3.84-.02.61,0,1.61Zm-.8,0c-.06-.51.3-.59.27-1.07-.34-.02-.37-.34-.8-.27-.04.66-.05,1.3.53,1.34Zm-5.08.27c.29,1.23,1.2,1.83,2.94,1.61.16-1.68-.25-2.78-1.6-2.94-.77.12-1.22.56-1.34,1.34Zm34.74-.8c.06.86-.47,1.13-.27,2.14.87.61,2.51.14,3.21-.27.14-1.04-.48-1.31-.27-2.41h-.8c0,1.39-1.01.52-1.87.54Zm-109.3.8c.62-.09,1.03.04,1.34.27.02-.91-.79-1-1.34-1.34v1.07Zm102.62-.27c-1.25,1.52-1.82,3.71-1.87,6.42-2,1.3-1.97,4.63-3.47,6.42h-1.07v1.87c-1.75,1.1-1.76,3.94-3.74,4.82.71,1.17-1.25,1.95-2.41,2.14.32.13.61.29.8.54-1.16,1.16-2.72,1.92-3.21,3.75-1.3.66-2.56,1.36-3.21,2.68-2.25.78-2.55,3.51-5.61,3.48.06-2.38-.62-4.13.54-5.62-.32-.04-.76.05-.8-.27-1.05-2.52-3.05-4.09-6.41-4.28-1.51,1.95.74,3.46.8,5.62.06,2.07-1.86,7.39-2.94,8.83-1.47,1.97-3.14,2.9-5.34,3.48-.15.39-.42.65-.8.8-.18.98-.37,1.95-.27,3.21.25.55,1.38.23,1.34,1.07,1.41-.73,2.94-1.33,4.27-2.14.12.51-.36,1.61.53,1.34.16-1.07.56-1.29.8-2.14,5.15-2.24,9.41-5.39,14.16-8.03.39-.5.39-1.39,1.07-1.61.65-.33,1.3-.66,2.14-.8.12-1.84,1.39-2.54,1.87-4.02,3.65-.54,3.57-4.81,7.22-5.35.15-.39-.31-1.38.27-1.34.71.09.94.67,1.6.8-.29-2.01-.47-3.6,1.07-4.28-1.26-1.31,1.45-2.42.8-4.82.73-1.22,1.55-1.57,2.41-2.14-.32-.13-.61-.29-.8-.54,1.42-.09.16-2.87,1.87-2.68-.28-2.48.54-4.48.8-6.69-.75-.77-1.05-.77-2.41-.54Zm-171.29,0c-.31.04-.76-.05-.8.27.31-.04.76.05.8-.27Zm151.79,9.64c-.39-.77-1.31-1-1.6-1.87-1.84-.21-3.15-.94-3.74-2.41-2.97-.5-4.04-2.91-7.75-2.68-.84-.94-2.1-1.47-2.94-2.41-.28.18-2.8-.81-3.74,0-.68.3.11,2.07-.53,2.41.75.03,1.13,1.01,1.87.27.07,1.98,2.35,1.75,4.01,2.14,2.79,3.27,7.28,4.84,12.02,6.16,1.15,3.4,6.5,3.72,6.95,6.96,2.03-.29,4.24-.39,4.54-2.41-2.14-2.95-5.11-5.05-9.09-6.16Zm11.76-7.76c.85.13,1.12.84,2.14.8.76-1.11,3.54.71,4.01-1.07-1.09-.03-2.19-.05-2.94.27-.32-.57-.29-1.5-.8-1.87-1.47.1-1.83.27-3.21,0,.08.5,1.83.48.8,1.87Zm-20.84-.54c.06-.51-.3-.59-.27-1.07-.47.15-1.57-.32-1.6.27.64.25.71,1.08,1.87.8Zm32.6,0c.01-.16.04-.32.27-.27-.03-.33-.08-.63-.53-.53.04.31-.05.76.27.8Zm-25.12,2.68c.84.13,1.04-.38,1.6-.54.24-1.49-.63-1.87-1.34-2.41-.68.58-1.23,2.24-.27,2.94Zm7.75-2.68c.04,1.48.69,2.35,2.14,2.41.06-.38.44-.45.53-.8-.17-.81-1.22-.74-1.07-1.87-.82-.19-.97.27-1.6.27Zm23.52,0c-.6.45.49,1.45.53,2.14.71,0,1.53.1,1.87-.27v-1.34c-.63-.33-1.86-.95-2.4-.54Zm-4.28.54c-.3.03-.42-.39-.53,0,0,.27.47.34.53,0Zm.27,1.07c.42-.03.93.04.8-.54h-.54c0,.27-.22.32-.27.54Zm-149.92,1.87h.8v-.8h-.8v.8Zm83.11,0c.21.06.53,0,.54.27.68-.03,1.04-.39,1.07-1.07-.9-.1-1.14.46-1.6.8Zm6.95,1.34c1.08-.08,1.92-.39,1.87-1.61-1.01-.75-2.26.11-1.87,1.61Zm35.27-1.34c-.65.9.9-.65,0,0h0Zm-122.92,5.35c.82-.16,1.39-.57,2.14-.8-.76-1.53.48-3.4-.53-4.55-3.11-.54-3.31,4.18-1.6,5.35Zm79.1-3.75c-.17-1.08-.66-1.83-2.14-1.61-.55,1.9,1.22,2.75,2.14,1.61Zm-20.04,0c.72-.71-.38-.98-.8-1.34.03.68.49.94.8,1.34Zm64.94-.8c-.06.21,0,.53-.27.54-.13,1.72,1.66,2.7,3.21,1.87v-1.61c-1.14-.52-1.84-1.02-2.94-.8Zm10.42,2.41c.66-.41.95-1.19.8-2.41-2.84-1.4-3.24,2.17-.8,2.41Zm12.56-2.41c-.18,1.08.26,1.53.27,2.41.93-.21,1.03.4,1.87.27.47-.24.34-1.09,1.34-.8.26.5-.8.89,0,1.07.22-.31.35-.72.27-1.34-1.04-.3-1.32-1.36-2.14-1.87-.03.59-1.13.11-1.6.27Zm8.02,3.21c-.62-.07-.61-.72-.27-1.07-1-.51-2-1.03-2.94-1.61-.16.64-.38,1.22-.27,2.14l-.13.13.13.13c-.31-.04-.48.06-.53.27.53-.27.67-.13.67-.13l.13-.13c1.1-.12,3.04,1.46,3.21.54h.27v-.27c.67.04.08.91,0,1.07,1.15.22,1.72-1.94.8-2.14-.26.27-.53.54-.8.8h-.27v.27Zm-185.46-1.61c-.34-.02-.37-.34-.8-.27-.42.66.91.79.8.27Zm5.88,1.34c1.27.2,1.23-.91,1.6-1.61-1.17-.1-1.29.85-1.6,1.61Zm107.43,0c.98,1.53,4.8,1.39,3.74-1.07-1.16-1.22-3.57-.34-3.74,1.07Zm-25.39,1.61c1.48,1,1.81-1.13,2.14-2.14-.53,0-.34-.73-1.07-.54.86,1.7-.89,1.35-1.07,2.68Zm46.5-.27c.05-.31.42-.29.8-.27.37-.34.26-1.16.27-1.87-.75.22-.69-.38-1.33-.27-.57.63-.86,2.18.27,2.41Zm-16.03-1.61h.53c.42-.66-.91-.79-.8-.27.16.02.32.04.27.27Zm-33.4,3.48c1.14.07,1.36-.78,1.87-1.34-1-.07.08-2.22-1.07-2.14-.92,1.26-2.05,1.95-.8,3.48Zm24.32-.54c.59.39,1.15.81,2.14.8.03-.76.61-1.19.53-2.68-1.26-1.2-3.14-.69-2.67,1.87Zm57.99-2.41c0-.27-.47-.34-.54,0,.3-.03.42.39.54,0Zm-76.43,2.14c.97-.18,2.37.06,2.4-1.07-.25-1.78-3.21-1.2-2.4,1.07Zm90.06-1.07c.35-.36.35-1-.27-1.07.04.4-.1.99.27,1.07Zm-84.44,1.87c.98.16,1.08.13,2.41.27.32-.75.29-1.85.27-2.94-2.17-.38-2.97.6-2.67,2.68Zm-20.04-1.61c.02-.16.04-.32.27-.27-.03-.33-.08-.63-.54-.54.04.31-.04.76.27.8Zm.8,1.61c.75.14,1.39.39,2.14.54,2.48-2.54-2.84-4.52-2.14-.54Zm-8.82-1.34c-.41-.3-.56-.87-1.34-.8-.13.69.95,1.52,1.34.8Zm68.95,3.21c.82-.34.62-1.7,1.87-1.61.08-1.41-.44-2.24-1.6-2.41-.04,1.32.09,2.96-.27,4.02Zm23.25-1.34c1.28.21,1.64-.5,2.14-1.07-.66-.5-1.11-1.21-1.87-1.61-.85.62-.76,1.55-.27,2.68Zm-65.74-1.34c-.21.06-.53,0-.54.27.21-.06.53,0,.54-.27Zm80.44,1.87c1.48.81,2.59-.22,2.67-1.61-1.36-.88-2.89.05-2.67,1.61Zm-67.34-1.07h.54v-.54h-.54v.54Zm28.86.27c.08-.71-.37-.88-1.07-.8-.08.71.56.69,1.07.8Zm-132.81,2.14c.67-.4,1.11-1.04,1.34-1.87-.83-.32-1.32-.99-2.67-.8-.76,1.17,0,2.75,1.34,2.68Zm100.48-2.14c.31,1.06.31-1.06,0,0h0Zm-86.05,2.14v-1.61c-.63,0-.79-.46-1.6-.27-.16,1.32.26,2.06,1.6,1.87Zm122.39-1.34c.46.01.69-.21.8-.54-.46-.01-.68.21-.8.54Zm38.48,1.34c.77-.03,1.75.15,2.14-.27.04-.66.05-1.3-.54-1.34-.04.4.1.99-.27,1.07-.84.13-.1-1.33-1.07-1.07.19.82-.46.79-.27,1.61Zm-45.7.27c.58,1.12,1.12,2.27,2.94,2.14,1.01-1.47-.14-2.08-.53-3.48-1.21.03-1.85.64-2.41,1.34Zm9.09,1.07c1.02.13,1.71-.08,2.14-.54-.02-1.14-.94-1.38-1.6-1.87-.38.59-.67,1.29-.53,2.41Zm30.73,2.14c.8-.54,1.03-1.65,2.14-1.87-.61-.91-.96-1.04-.27-2.14h-.8c.35,1.84-2.91,2.41-1.07,4.01Zm2.94-3.21h.54c0-.27.22-.32.27-.54-.34-.02-.37-.34-.8-.27v.8Zm-13.9-.54c-.21.06-.53,0-.53.27.21-.06.53,0,.53-.27Zm20.58,1.61c.71,0,1.53.1,1.87-.27.28-1.85-2.38-1.63-1.87.27Zm-3.21-.27c.01-.46-.21-.69-.54-.8.03.42-.04.93.54.8Zm-2.67,0c.42-.03.93.04.8-.54h-.53c0,.27-.22.32-.27.54Zm9.62.27c.02-.46-.21-.69-.53-.8-.38.39-.39,1.04.53.8Zm-165.95,2.68c.95.16,1.55-1.39.54-1.61-.07.72-1.13,1.02-.54,1.61Zm13.36-.8c.66.04,1.3.05,1.34-.54-.5.12-1.61-.36-1.34.54Zm111.97,0h.54v-.54h-.54v.54Zm-7.75,1.34c.48.35,1.35-.24,2.14.27.46-.94-.29-1.7-1.6-1.61-.27.35-.26.99-.53,1.34Zm17.64-.54c.27-.89-.37-.88-1.07-.8-.08.71.37.88,1.07.8Zm21.11.8c.4.67.92,1.22,1.87,1.34.46-.34.73-.88.8-1.61-.75-.14-.52-1.26-1.34-1.34-.2.78-1.44.52-1.34,1.61Zm-42.76-.27c.02-.46-.21-.69-.53-.8.02.42-.04.93.53.8Zm36.34,0h.53v-.54h-.53v.54Zm-35.28.27h.54v-.54h-.54v.54Zm8.29,2.41c.91.43,2.03.04,2.94-.27.33-2.29-2.78-2.56-4.01-2.41.91.34.97,1.52,1.07,2.68Zm36.88-1.07c.76.66,2.35.5,3.47.8.15-.56.66-.76.53-1.61-.64.11-.58-.49-1.34-.27-.55.07-.25,1-.8,1.07-.69-.57-.47-1.19,0-1.87h-1.87v1.87Zm-145.91-1.34c.31,1.06.31-1.06,0,0h0Zm119.72,2.14c.58.22.91.69,1.87.54.36-.53.51-1.27.8-1.87-.61-.64-1.7-.8-2.67-1.07v2.41Zm-167.02-1.61c.15.39-.31,1.38.27,1.34.13-1.03,1.98-.34,1.87-1.61-.99-.19-1.15.46-2.14.27Zm172.36.54c.82.01,1.36-.24,1.6-.8-.81-.01-1.76-.16-1.6.8Zm9.09,1.61c.18-.53.92-1.14,0-1.34.35.67-.78,1.11,0,1.34Zm4.54-.8c-.51,1.02.71-1.42,0,0h0Zm-39.28,1.61c.45.77,2.07,1.13,2.67.27,0-1.97-2.76-3.11-2.67-.27Zm40.35-.54c.66-1.66-.84-.88,0,0h0Zm5.61,1.87c.23-.39.4-.85,1.07-.8-.16-1-.54-1.78-1.34-2.14-.16.73.13,2.21.27,2.94Zm7.22-1.87c.7.08.88-.37.8-1.07-.7-.08-.88.37-.8,1.07Zm-175.3.27c-1.08-.94-.63.86,0,0h0Zm19.78.54h.53v-.54h-.53v.54Zm-13.9,1.07c.5.39,1.19.6,1.07,1.61,1.95.34,2.75-.46,2.41-2.41-.82.2-.51-.73-1.34-.54-.98.18-1.24,1.08-2.14,1.34Zm-5.61,2.94c1.07-.71,1.01-3.01,0-3.75-3.34-.6-1.6,3.8,0,3.75Zm137.36-.8c1.1.23,1.14.11,2.41,0,.16-.64.38-1.22.27-2.14-1.56-1.75-3.52.14-2.67,2.14Zm-120.52-1.34h.53v-1.07h-.53v1.07Zm145.37,8.83c.31-4.5-2.66-8.06-5.61-9.9h-1.6c-1.8,2.92.19,5.55,1.07,8.03,1,.78,1.89,1.67,2.67,2.68,1.18.61,1.21,2.36,2.41,2.94.12-1.37.98-2.43,1.07-3.75Zm-142.43-7.49c.32-.42.85-1.04.27-1.61-1.11.83-.42-.05-1.34-.54-.54.83.14,1.54,1.07,2.14Zm-4.54.8c.42-.2,1.13-2.37,0-2.41.32.97-.54,2.11,0,2.41Zm149.65-2.14c-.04,1.37.66,2.02,1.87,2.14.28-1.12-.56-1.81,0-2.41-.71,0-1.53-.1-1.87.27Zm-160.61,46.57c-.23.05-.25-.1-.27-.27-.96-.3-2.07-.83-3.47-1.07-1.56-.27-3.9.35-4.54-1.07.53-1.31,2.34-1.1,3.47-1.61,1.04-.46,1.72-1.32,2.67-1.61,3.31.01,5.64-3.2,9.09-1.34.37-.96,1.97-.71,2.94-1.07.45.71,1.42.9,2.4,1.07.44,1.25,1.22,2.17,1.6,3.48,3.06-.92,1.22-4.94,1.07-7.76-2.22-1.52-5.18-2.3-8.02-3.21-1.2.04-2.38.06-2.67-.8,1.22-2.06,1.76-6.48,1.07-8.83-3.7,5.04-8.86,8.61-15.77,10.44-.09-.35-.47-.42-.54-.8.23-1.38.63-2.58,1.87-2.94-.09-1.88,1.35-2.22,1.87-3.48-.15-1.22.47-1.67.27-2.94.51-.12.67-.58,1.34-.54-.26-1.96.85-2.54,1.34-3.75-.22-3.43-.62-7.04-.8-11.24-3.52-1.92-4.72-6.16-9.62-6.69-2.14.68-3.9.31-6.41.8-1.48,2.18-3.99,3.32-4.54,6.42.69,2.34,1.15,4.91,3.21,5.89.03-4.35,2.57-6.17,4.81-8.3.66.23,2.07.52,2.67,0,.85,1.8,4.25,3.81,4.54,6.42.24,2.1-1.71,4.15-.8,6.69-1.4,2.34-2.99,4.49-5.08,6.16-.42,2.34-1.4,4.13-2.94,5.35-1.24,3.58-3.05,6.58-3.74,10.71-.67.58-1.17,1.33-1.6,2.14-.27,2.86.25,4.93.8,6.96-.29,1.23-1.31,1.73-1.34,3.21.74,2.56,2.48,4.11,2.14,7.76.05.75,1.27.33,1.07,1.34-1.03,4.92,1.83,7.63,1.87,12.31.66.59,1.52.98,1.87,1.87.84,5.07,4.58,9,6.95,13.38,1.84-.05,2.91-.13,4.54-.8-.04-1.2.82-2.03,1.07-3.21.59-2.79.27-5.78.8-8.56.43-2.26,2.02-3.86,2.14-6.16,1.94-1.62,4.59-2.54,8.55-2.14,1.46.68,1.95,2.33,3.21,3.21,1.47-3.63-1.4-7.26-3.74-8.83-2.34-.07-4.83.06-6.15.27-.88.45-1.6,1.07-2.67,1.34-2,3.45-5.82,6.17-5.34,11.24-.13.67-.51,1.1-.8,1.61.27,1.79.86,4.11-.27,5.35-2.17-.1-1.84-2.83-2.41-4.55-.41-1.26-1.26-2.47-1.6-3.75-.29-1.07.02-2.41-.8-3.21.37-.34.16-1.26.53-1.61-.93-.23-.96-1.36-1.6-1.87-.59-2.75-1.13-5.92-.53-9.1,1.19-.86,1.09-3.01,1.6-4.55,2.16-1.49,2.69-4.63,5.08-5.89,1.97.91,4.83.6,7.75,1.07,1.34.75,2.16,3.31,3.74,2.94.9-2.65-1.37-2.87-1.34-5.35l.13-.13-.13-.13h.53c.42-.66-.91-.79-.8-.27l-.13-.13-.13.13Zm117.85-45.77c-.47,2.38,2.58,3.68,3.47,1.61.4-1.98-2.16-2.21-3.47-1.61Zm-111.43,1.61c.8.8,1.65,1.56,3.21,1.61.35-.83-.07-.76,0-1.87-.98-.86-2.95-1.58-3.21.27Zm115.71-.8h.8v-.54h-.8v.54Zm45.16.27v1.34c1.45.11,1.75-.92,2.14-1.87-.72-.64-1.42.36-2.14.54Zm-167.55.54h.54c.01-.34.34-.37.27-.8h-.8v.8Zm12.56.54c-2.12,2.07-3.64,4.74-6.15,6.42-.12,2.29-1.88,2.94-3.47,3.75-.47.07-1.33-.75-1.6,0,.84-.04.92.69,1.07,1.34-.99,1.45-2.26,3.63-3.21,5.35-.7,1.27-1.87,2.11-2.4,2.94-.18.28-.03.89-.27,1.34-.89,1.68-2.65,2.71-1.07,4.55,2.47,0,2.97-2.86,4.81-2.68-.12-1.19.45-1.69,1.34-1.87.38,1.28-1.12.66-.8,1.87.82-.25,1.07-1.07,1.6-1.61-.55-.07-.07-1.18-.53-1.34,1.48-1.55,2.62-3.44,3.74-5.35.35-.27.99-.26,1.33-.53.93-2.82,2.68-4.81,3.74-7.49h1.07c1.98-2.18,3.75-4.85,4.54-7.49-1.53-.01-1.87,1.16-3.74.8Zm146.71,0h.53v-.54h-.53v.54Zm-154.46,0c0-.27-.47-.34-.54,0,.06.32.3.16.54,0Zm129.07,1.61c.08-.55.54-.71.8-1.07-.63-.08-.5-.93-1.34-.8.32.48.05,1.56.53,1.87Zm26.72-1.34h.53v-.53h-.53v.53Zm3.74.54c.08-.71-.37-.88-1.07-.8-.08.71.37.88,1.07.8Zm-164.61,1.61c.64-.62.41-.86.27-1.87-1.51-.24-1.73,1.95-.27,1.87Zm168.89,0c-.35-.81-.67-1.65-1.6-1.87-.36.51.91,2.42,1.6,1.87Zm-171.29,0c.4-.23.57-.67.54-1.34-.35-.37-1.16-.26-1.87-.27.38.6.55,1.41,1.34,1.61Zm163.28-1.34c.31,1.06.31-1.06,0,0h0Zm-164.61.8c-.3.03-.42-.39-.54,0,0,.27.47.34.54,0Zm169.16.27c.66.5,1.48.84,2.14,1.34-.07-.82-.58-1.2-.8-1.87-.66-.04-1.3-.05-1.34.54Zm-162.48,2.41c.67.22,1.05.73,1.87.8,2.92-2.23-2.54-5.63-1.87-.8Zm119.99-2.41c.31,1.06.31-1.06,0,0h0Zm25.12.8c.69-.47-.43-.94-.27,0v.27h.27c-.37,1.15-3.11-.08-2.94,1.61.87-.33.21.87,1.07.54.9-.88,1,.29,2.67,0,.15-.56.66-.76.53-1.61-.4-.14-.67-.4-1.07-.54v-.27h-.27Zm-28.86,2.41c.96.69,1.75.08,2.4.8-.81-1.26.87-.9,1.07-1.87-.75-.22-.69.38-1.34.27.08-.62.57-1.15-.27-1.34-.51.83-2.25.43-1.87,2.14Zm-57.72-.27c-.19-.67,1.18-1.1.27-1.61-.35.61-1.22,1.04-.27,1.61Zm6.68.27c.69.56,1.53.96,2.14,1.61.89-1.27-1.14-1.22-.27-2.68-.45-.35-.9-.71-1.87-.54v1.61Zm19.24.8c1.13-.03,1.6-.72,1.87-1.61-1-1.9-3.58.16-1.87,1.61Zm82.04-2.41c-1.13.47-1.9,1.3-2.14,2.68,1.34.09,1.56,1.29,3.21,1.07.65-1.39.55-3.35-1.07-3.75Zm-170.76,2.14c.3-.24.08-.5.27-1.34-.5.06-.59-.3-1.07-.27-.09,1.12.97,1.87.8,1.61Zm93.8-.27h1.87c.36-1.66-2.01-1.12-1.87,0Zm3.21-.54c.5-.04.89-.18,1.07-.54-.61-.07-1,.06-1.07.54Zm.8.54c.04.85.9.88,1.07,1.61v-2.14h-.8c-.06.21,0,.53-.27.54Zm3.74.54c.39-.15,1.38.31,1.34-.27-.31-.04-.29-.42-.27-.8h-.8c.06.51-.3.59-.27,1.07Zm-81.24.27c-.04-.5-.18-.89-.54-1.07.06.47-.27,1.34.54,1.07Zm-16.04-.27c.41-.81-1.38-.7-1.34-.27.31.22.72.35,1.34.27Zm168.89,1.34c.12-.51.76-.48.54-1.34-.34-.01-.37-.34-.8-.27.15.47-.32,1.57.27,1.61Zm-11.76-.8h.53v-.54h-.53v.54Zm-142.97,0c-.05-.4-.65-.25-1.07-.27-.57.98,1.36,1.21,1.07.27Zm38.75.27c.42-.02.93.04.8-.53h-.53c0,.27-.22.32-.27.53Zm-55.05,1.61c.44-.48.39-1.96-.54-1.87.05.76-.23,1.84.54,1.87Zm143.5-1.34h1.07v-.54h-1.07v.54Zm5.34,2.14c.7.63,1.82.04,2.67,0,.18-1.23.66-1.75,1.07-2.14-1.45.2-2.07-.42-3.47-.27.14,1.04-.48,1.31-.27,2.41Zm16.3-1.61c.01-.16.04-.32.27-.27-.03-.33-.08-.63-.53-.54.04.31-.05.76.27.8Zm-99.94.27c.05-.58-.95-.12-1.34-.27-.61,1.06,1.64,1.19,1.34.27Zm31.8,4.02c.63-.35,1.51-.45,2.14-.8-.58-1.02-.67-2.54-1.34-3.48-1.93.54-2.88,3.13-.8,4.28Zm44.63-3.75h.53v-.53h-.53v.53Zm-72.42.54c-.11,1.18.07,2.07.53,2.68,1.35.19,1.93-.39,2.41-1.07-.16-.91-.89-1.25-.8-2.41-1.14-.16-1.09.87-2.14.8Zm-86.85,0c.38.78.99,1.5,1.87,1.07v-1.61c-.96-.16-1.29.31-1.87.54Zm185.46.53s-.03-.52,0-.53c-.67.32,2.32-.38,1.07-.27-.52.05-.8.17-1.07.27-.18.06-.41.52,0,.53Zm-78.3,0h.53v-.53h-.53v.53Zm13.09.54c.68.03.53.9.53,1.61.82.19.79-.46,1.6-.27.15-.87-.18-1.24-.27-1.87-.76.05-1.83-.23-1.87.54Zm37.14-.27c.9.81.81-.99,0,0h0Zm25.12,5.35c2.59.88,4.92-.52,4.81-3.21-.73-.16-.38-1.4-.8-1.87-2.32-.33-4.84,2.27-4.01,5.09Zm-29.66-2.94c.59,1.01,1.66,1.55,3.47,1.34.14-1.52.32-2.08-.27-3.21-1.36-.31-3.09-.24-3.21,1.87Zm7.75,0c1.29.44,1.92,1.07,3.21.27-.28-1.42-.72-2.67-2.67-2.41-.3.59-.69,1.09-.54,2.14Zm-173.16-.54c.46.01.69-.21.8-.53-.46-.02-.68.21-.8.53Zm29.93.54c.01-.46-.21-.69-.54-.8-.01.46.21.69.54.8Zm12.03,1.07c.28.79,1.21.93,1.87,1.34.56-.82.27-2.64-.27-3.21-1.13.02-1.69.63-1.6,1.87Zm145.11-1.07c-.12,2.89,2.82,2.7,4.54,3.75,2.43-3-1.13-5.32-4.54-3.75Zm-6.15.53c.01-.46-.21-.69-.54-.8-.38.39-.39,1.04.54.8Zm-46.23-.27c0-.27-.47-.34-.53,0,.3-.03.41.39.53,0Zm-2.67,1.34c.21-.92-.25-1.18-.8-1.34-.13.84.33,1.09.8,1.34Zm-126.67.8c.62-.2.93-2.08-.27-1.87-.81.01-.83,2.19.27,1.87Zm94.87-1.87c-.21.06-.53,0-.54.27.21-.06.53,0,.54-.27Zm80.7,1.34c.23.81,1.51,1.51,2.4.8-.1-1.8-1.81-2.85-2.4-.8Zm-154.73.8c.9.18.98-.45,1.07-1.07h-1.07v1.07Zm100.75-.27c.04-.32.48-.61,0-.8-.04.32-.48.61,0,.8Zm30.73-.54c.31,1.06.31-1.06,0,0h0Zm11.76.8c.16,1.14-.19,1.77-.27,2.68.97,1.29,3.34,1.36,3.74-.54-.16-1.31-2.31-1.3-1.34-2.94-1.53-.56-.96,1-2.14.8Zm-124,0h.53v-.53h-.53v.53Zm116.51,3.21c2.3-.48,1.57-3.75-.8-3.75-.92.82-.64,3.67.8,3.75Zm-149.38-1.87v-1.61h-1.07c-.55.63-.2,1.98,1.07,1.61Zm-9.89-.53c-.21.06-.53,0-.53.27.21-.06.53,0,.53-.27Zm2.67,1.61h.53v-.53h-.53v.53Zm2.67-.27c.31,1.06.31-1.06,0,0h0Zm7.75-.27c-.21.06-.53,0-.53.27.21-.06.53,0,.53-.27Zm159.27.27c-.65.9.9-.65,0,0h0Zm1.87,2.94c1.25,0,1.69-1.92,1.07-2.94-1.87-.44-3.15,2.6-1.07,2.94Zm-22.45,0c1.05.31.99.06,2.14.27.66-1.07.07-2.83-1.07-2.94-.56.69-.81,1.68-1.07,2.68Zm24.85-2.41v.53c.66.42.79-.91.27-.8-.02.16-.04.32-.27.27Zm-173.16,2.68c.45-.44.21-1.57.27-2.41-1.66-1.26-2.49,2.76-.27,2.41Zm6.15-1.61c-.65.9.9-.65,0,0h0Zm-4.28,2.41c.81.44,1.17,1.32,1.87,1.87.92-.65,1.27-3.23-.27-3.48-.46.61-1.9.24-1.6,1.61Zm32.33-1.34c-.65.9.9-.65,0,0h0Zm-28.59.27c-.23,1.58.15-1.07,0,0h0Zm31.8,1.87h1.07c.37-.35.26-1.16.27-1.87-1.42-.39-1.78,1.23-1.34,1.87Zm57.99-.54c-1,.29-.76-.66-1.6-.54.45,1.58-.5,1.8-.27,3.75.35.37,1.16.26,1.87.27.46-1.24.62-2.77,1.34-3.75-.2-.53-1.32-1.5-1.87-.8.47.06.61.46.53,1.07Zm47.83.54c.56,1.27,2.07,1.18,2.67,0-.69-1.48-2.13-2.12-2.67,0Zm-41.96-.8c-.3.03-.42-.39-.53,0,0,.27.47.34.53,0Zm40.62.27c-.21.06-.53,0-.53.27.21-.06.53,0,.53-.27Zm22.45.8c.48,1.3,1.87,2.6,2.67.8-.46-.34-1.05-.55-1.07-1.34-.71,0-1.57-.15-1.6.54Zm-84.71,0c-.4,2.84.81,6.31,1.87,8.56.78,3.85,3.26,6.01,4.81,9.1,1.43.26,2.36,1.03,3.21,1.87,2.01-.97,3.64,1.66,5.34.27-.14-2.81-4.23-1.65-4.01-4.82,4.9,0,5.54,4.26,10.42,4.28-.29-7.6-5.22-10.19-9.62-14.19-4.99-.62-8.6-1.14-10.42-5.08h-1.6Zm-3.74.8h.54c.42-.66-.91-.79-.8-.27.16.02.32.04.27.27Zm-40.89.8c.01-.46-.21-.69-.53-.8-.01.46.21.69.53.8Zm70.01,1.87c1.21.14,1.14-1,1.07-2.14-.43-.46-1.12-.66-2.14-.54-.08,1.33.02,2.48,1.07,2.68Zm63.6-1.34c-.26-.5.8-.89,0-1.07-.08.16-.66,1.03,0,1.07Zm-50.51,2.14c1.41-.3,2.56.8,3.21-.27-.6-.56-1.07-1.25-1.07-2.41-1.97-.37-2.2,1.01-2.14,2.68Zm5.88-1.07c.8.57,2.75.88,2.94-.54-.52-1.3-3.08-1.5-2.94.54Zm23.25-.54c.48.24.68.75,1.6.54-.19-.82.27-.98.27-1.61-.68.3-1.52.45-1.87,1.07Zm-.27,1.61c-.12-1.22-.58-2.09-1.87-2.14-.95,1.24.6,3.14,1.87,2.14Zm-144.84-1.87c-.21.06-.53,0-.53.27.21-.06.53,0,.53-.27Zm95.94,1.61c-.07.78.6.82.53,1.61.84.13,1.04-.38,1.6-.54v-1.87c-1.03-.58-1.53.25-2.14.8Zm62.8-.8c.34.82.41,1.91,1.34,2.14.62.08.3-.77.8-.8-.07-1.04-1.45-1.76-2.14-1.34Zm4.81,0v.53c.66.42.79-.91.27-.8-.01.16-.04.32-.27.27Zm-164.88,1.34c.49-.62-.46-1.52-1.6-1.34-.25,1.23.56,1.4,1.6,1.34Zm109.56-1.07c.04.92,1.38,1.42,1.87,1.07v-1.07c-.51-.53-1.26-.13-1.87,0Zm-73.49,2.14c.64.25.71,1.08,1.87.8.58-.64.71-2.03.27-2.94-1.67-.25-1.75,1.1-2.14,2.14Zm76.96-1.34c.02-.46-.2-.69-.53-.8.03.42-.04.93.53.8Zm-79.1-.27c.31,1.06.31-1.06,0,0h0Zm6.15.54h.53c.02-.34.34-.37.27-.8h-.54c-.01.34-.34.37-.27.8Zm-6.15.27c-.21.06-.53,0-.54.27.21-.06.53,0,.54-.27Zm62.8,1.61c.35-.36.35-1-.27-1.07-.35.36-.16.81.27,1.07Zm24.32,0c-1.51.67-3.96,1.2-5.34.54-.26,1.53-.98.41-1.6.8.31.04.29.42.27.8-2.56.56-4.02,2.22-5.88,3.48-1.79-.19-2.5.71-3.47,1.34-.1,2.49-2.08,3.09-1.6,6.16.67.22,1.05.73,1.87.8.69-1.42,2.38-3.45,3.74-4.28.62-.38,1.46-.75,2.14-.53-.04,1.42-.46,2.21,0,3.48-.82.19-.79-.46-1.6-.27-1,1.39-3.84,2.93-2.14,5.35,2.14.38,3.64,1.51,6.15.8,1.24-2.24,3.71-3.25,5.34-5.09.08-.62-.04-1.03-.27-1.34.4-.14.67-.4,1.07-.53.42-4.31,3.81-5.64,6.41-7.76,1.12,1.28-2.14,2.87-.53,3.75.05-1.66,1.56-.2,1.87-1.61-1.16-.43-.63-1.28-.8-2.94,1.03-.93,3.16-.76,3.21-2.68-2.81-1.53-5.96.26-8.82-.27Zm-22.98.8h1.34c.18-.9-.45-.98-1.07-1.07.06.51-.3.59-.27,1.07Zm5.08,2.41c1.26-.08,1.37-1.3,1.6-2.41-.33-.58-2.33-.86-2.94-.27.37.5-.22,2.68,1.34,2.68Zm41.69,0h1.34c.59-.74.51-1.36.27-2.41-1.65-.4-2.37,1.24-1.6,2.41Zm-38.21-1.87c.31,1.06.31-1.06,0,0h0Zm26.72.8c.69-.34-.18-1.62-.53-.8.44,0,.15.74.53.8Zm-135.75,1.07c-.16-.02-.32-.04-.27-.27,0-.4.99-1.09.27-1.34-.18.62-.89.72-1.07,1.34.35-.04.99.9,1.07.27Zm79.37-.8c.51-.11,1.15-.1,1.07-.8-.67-.05-.84.41-1.07.8Zm31,0c-.23,1.58.15-1.07,0,0h0Zm-6.41,3.21c.91-.66.13-1.61-.8-1.87.31.58.05,1.73.8,1.87Zm91.93-.8c.72.18.52-.55.8-.8h-.8v.8Zm-60.66,1.07c.12-.84-.67-.75-1.07-1.07.09.62.17,1.25,1.07,1.07Zm-26.19-.8c-.21.06-.53,0-.53.27.21-.06.53,0,.53-.27Zm-7.21,1.07c.52.13,1.37-.72.8-.8.11.64-1.22-.15-.8.8Zm51.04.27c.32.59,1.92-.55,1.07-1.07-.03.69-1.04.38-1.07,1.07Zm-50.51,0c-.21.06-.53,0-.53.27.21-.06.53,0,.53-.27Zm50.77,1.87c.09-1.04-.6-2.27-2.67-1.87-.44.94-.75,2.17,0,2.94.79-.36,1.66-.34,2.14.27-.2-.73.53-.54.53-1.07l.13.13.13.13c.8.18-.25.57,0,1.07.68-.03,1.04-.39,1.07-1.07-.53,0-.34-.73-1.07-.53l-.13-.13-.13.13Zm-20.58,1.87c.8-1.48.16-2.15-.53-3.21-3.33-.82-2.55,4.41.53,3.21Zm-51.57-2.14h.8v-.8h-.53c-.02.34-.34.37-.27.8Zm-47.83.8h.53v-.53h-.53v.53Zm.27,1.61c-1.03,1.74.6,3.81,2.41,2.68-.02-1.23-.37-2.13-.8-2.94-.63,0-.79.46-1.6.27Zm106.36.8h1.34c.08-.61-.06-1.01-.53-1.07.08.7-1.04.21-.8,1.07Zm3.47,2.14c.83-.24,1.86-.28,1.87-1.34-.55-3.14-4.12-.35-1.87,1.34Zm-60.13-.8c.75-.05,1.14-.47,1.07-1.34-.75.05-1.14.47-1.07,1.34Zm52.64,0c0,.8.7.91.8,1.61,1.02.13,1.71-.08,2.14-.53.34-2.36-2.31-3.16-2.94-1.07Zm-108.76,0h.53c.01-.34.34-.37.27-.8h-.53c-.02.34-.34.37-.27.8Zm122.12.54c-.42,2.42,1.86,2.65,3.21,1.87.06-1.13-.25-1.9-.53-2.68-1.17,0-1.58.74-2.67.8Zm-121.05,1.07c1.04-.3.95.95,1.6.27,0-.71.1-1.53-.27-1.87-1.11-.13-1.28.68-1.34,1.61Zm97.81,1.61h2.14c.7-.99.51-2.19,0-3.21-3.1-.82-3.47,1.72-2.14,3.21Zm31.53-2.14c.21.86.74,1.4,1.6,1.61,1.72-1.46-.82-4-1.6-1.61Zm-35.54-.54v.54c.66.42.79-.91.27-.8-.01.16-.04.32-.27.27Zm8.28,1.61c.64.34.79,1.17,1.87,1.07.64-.39.77-2.25.27-2.94-1.44-.11-2.43.24-2.14,1.87Zm-48.9-1.07c.31.34,1.11.21,1.07-.54-.61-.07-1,.06-1.07.54Zm52.11.53h.53c.01-.34.34-.37.27-.8h-.53c-.02.34-.34.37-.27.8Zm-138.16,0h.54v-.53h-.54v.53Zm199.62,1.34h.8v-.8h-.53c-.02.34-.34.37-.27.8Zm-59.86,0c-.23,1.58.15-1.07,0,0h0Zm-46.77,1.07c.08-.7-.37-.88-1.07-.8-.27.89.37.88,1.07.8Zm54.78,1.87c1.06-.27.8.8,1.87.53.11-.51.58-.67.53-1.34-1.5-.17-.07-.59-.27-1.61-.51.06-.59-.3-1.07-.27-.39.86-1.13,1.37-1.07,2.68Zm-111.44-.27c.83.33,1.07,1.24,2.4,1.07.34-.83.5-1.99.27-2.68-1.52-.85-2.73.08-2.67,1.61Zm12.03-.27c.57-1.12-1.31-1.98-.8-1.34.63.09.26,1.17.8,1.34Zm43.83,3.48c-.3,1.39-1.14,2.46-.53,4.01-2.06,4.48-.97,11.99,2.14,14.45-.78-2.66,3.09-4.32,4.28-6.69,2.6-.52,5.01-1.23,5.88-3.48,3.48-1.6,5.71-4.45,6.41-8.83-.51-.48-1.76-.2-2.67-.27-1.14.73-1.84,1.9-3.47,2.14-.64,1.14-1.92,1.65-2.94,2.41-1.4.47-1.59,2.15-3.47,2.14.38-1.85,1.65-2.81,2.67-4.02.63-.26,1.31-.47,2.14-.53,1.03-.75,1.64-1.92,2.94-2.41.86-.72.94.65,1.87,0-.51-1.07,1.01-1.4,1.34-2.41-5.26-3.52-13.49-.07-16.57,3.48Zm-49.97-4.55v1.07c.56.15.76.66,1.6.54,0-.53.73-.34.53-1.07-.08-.81-1.51-1.09-2.14-.53Zm98.88,1.34c.62,1.58,1.87,3.63,3.74,2.41.12-1.25-.53-1.72,0-2.68-1.39-.82-2.94-1.52-3.74.27Zm-3.74,1.87c.41-.94-.14-1.2.27-2.14-.81-.26-1.07-1.06-2.4-.8-.77,1.8.05,3.89,2.14,2.94Zm-9.62.8c.67.4,1.19.95,2.14,1.07.49-.76,1.38-1.11,1.34-2.41-.08-.63-.93-.5-.8-1.34-1.99-.21-3.01.55-2.67,2.68Zm-41.95-.8c.51.11.48.76,1.34.54.06-.3.3-.42.53-.54-.27-.71-.44-1.52-1.34-1.61-.24.48-.75.68-.53,1.61Zm24.58-1.07c-.24-.21-.76.16-.8.27-.38,1.02,1.33.19.8-.27Zm-86.58,1.07c1.21,1.37,1.34,4.02,2.14,5.09.3-.84.02-.61,0-1.61.61-.19,1.37-.24,1.87-.54.23-1.84-1.26-1.95-1.6-3.21-1.1-.21-1.37.41-2.41.27Zm12.56,5.09c1.18-.16,2.15-.53,3.21-.8v-3.48c-2.27-2.24-4.54,2.19-3.21,4.28Zm76.96-5.09c-.66,1.5-1.9,3.91-.8,5.89,2.85.45,2.47-2.34,5.34-1.87.6.65.45,2.05,2.14,1.61.22-1.69-1.55-2.88-.54-3.75-2.19-.49-4.14-1.2-6.15-1.87Zm-110.9,1.34h.53v-.54h-.53v.54Zm40.62,3.21c1.17.19,1.82-.14,2.14-.8-.3-.85-1.06-1.25-2.14-1.34v2.14Zm-13.09-.54c.68.29,1.27-.81,1.6,0-.86,1.14-1.26,2.16-.53,3.75.75.22.69-.38,1.34-.27.16-1.14-.19-1.77-.27-2.68.62.09,1.03-.04,1.34-.27-.36-.81,1-1.83-.27-1.87-.15,1.67-2.94-.5-3.21,1.34Zm55.58-1.07c.31,1.06.31-1.06,0,0h0Zm46.5.27c.41-.81-1.38-.7-1.34-.27.64-.11.58.49,1.34.27Zm-108.5,1.61h1.34v-.54c-.27,0-.32-.22-.53-.27-.03.51-.88.19-.8.8Zm59.86-.27c0-.27-.47-.34-.53,0,.06.32.3.16.53,0Zm-65.47,1.07c.43.46,1.12.67,2.14.54.31-1.38-.75-1.39-1.6-1.61,0,.53-.73.34-.54,1.07Zm29.93-.53c-.81.9.99.81,0,0h0Zm68.41,4.01c.48-1.01,1.1-1.54.27-2.68h-1.34c-.24,1.35-.33,2.42,1.07,2.68Zm-91.12-1.07h1.34c.19-1.08-.26-1.53-1.34-1.34v1.34Zm11.49-.27c-.26,1.33.55,1.59.8,2.41,1.05.16,1.55-.23,2.14-.54.78-2.83-1.96-3.72-2.94-1.87Zm82.57.54c.59.2,1.1-.99.54-1.07,0,.53-.73.34-.54,1.07Zm79.9,4.82c3.29-.6,1.42-3.21,1.6-4.55-1.25.09-.96-1.36-2.14-1.34-.97.89-2.39,5.21.53,5.89Zm-176.64-4.28c.32.31.95.3,1.6.27-.25-.65-.69-1.09-1.34-1.34-.08.36-.38.51-.27,1.07Zm5.35,0h.53c.02-.34.34-.37.27-.8h-.8v.8Zm123.73-.27c.03.77-.15,1.75.27,2.14,1.09-.24,2.16-.51,2.4-1.61-.36-.18-.5-.57-.54-1.07-.82.07-1.51.27-2.14.53Zm-109.56,2.14c.62.09,1.1.32,1.6.54.8-.57.46-1.69.27-2.68-1.46-.12-1.81.86-1.87,2.14Zm115.98,1.07c.65.15.57,1.03,1.6.8.91-.33,1.25-1.25,1.07-2.68-.81-.26-1.59-.55-2.41-.8.48,1.27-.56,1.01-.27,2.68Zm-131.48-1.87h.53v-.53h-.53v.53Zm84.18.27h.8c.05-.58-.22-.85-.8-.8v.8Zm-90.59,2.94c.81.36,2.2.43,2.67-.27.22-2.86-3.58-3.74-2.67.27Zm101.01-.8c.52.38,1.72.87,2.41.27.5-2.23-2.91-3.11-2.41-.27Zm27.53-1.87c-.81.9.99.81,0,0h0Zm-21.65,2.14c.83.41.96,1.54,2.41,1.34,2.25-2.05-2.66-4.99-2.41-1.34Zm-86.58,0h1.07c-.44-.87.48-1.44-.53-1.61.29,1-.66.76-.54,1.61Zm67.34-.8c-.77.77.77-.77,0,0h0Zm.27,1.61c.07.88.75,1.71,2.4,1.61,1.49-3.15-2.59-4.04-2.4-1.61Zm4.28-.8h.53v-.54h-.53v.54Zm3.21.53h.53c.42-.66-.91-.79-.8-.27.16.01.32.04.27.27Zm39.28,2.68c1.1-.15,1.5-1,1.34-2.41-2.16-2-3.62,1.71-1.34,2.41Zm-8.55,0c.64.51,1.53.79,2.67.8.06-.3.29-.42.53-.53-.1-1.15-.21-2.29-.8-2.94-1.78-.08-2.66.73-2.41,2.68Zm16.57-1.87c.12,1.29.85,1.56.8,2.41.22-.67,1.41-.37,1.87-.8.15-1.05-.23-1.55-.54-2.14-1.12-.23-1.26.52-2.14.54Zm5.08,0h.8v-.54h-.8v.54Zm-8.02,1.07c.71.09.94.67,1.6.8.58-.04.57-.67.54-1.34-1.05.66-.69-1.39-1.07-.53.5,1.21-.96.47-1.07,1.07Zm-58.79.53c.97.19,1.44.88,2.4,1.07.48-.36.83-1.55.27-2.14-1.12.13-1.69.8-2.67,1.07Zm-95.94,2.68c1.35-.33.79-2.95-.54-2.94-.98.74-1.06,2.78.54,2.94Zm195.08-2.41c.27,0,.32.22.53.27,0-.27.22-.32.27-.54-.27,0-.32-.22-.54-.27,0,.27-.22.32-.27.54Zm-74.02,1.34c.57.77,1.17,1.5,2.4,1.6.56-.82.27-2.64-.27-3.21-1.47-.23-1.96.53-2.14,1.61Zm-107.69,2.68c.78-1,2.44-1.13,2.14-3.21-.48-.77-2.1-.39-2.94-.8-.56,1.19-.42,3.74.8,4.01Zm101.01-1.61c.89.09,1.19.78,2.41.53.24-.47.64-.78.8-1.34-1.23-.26-.28-1.02-1.07-1.61-1.33.19-2.55.48-2.14,2.41Zm81.77-1.34c-1.5-1.38-3.08-.69-4.28-.27-.59,1.6-.22,4,.8,4.82,2.75.11,4.2-2.01,3.47-4.55Zm-95.13,2.94c1.62.01,2.29-.92,2.14-2.68-1.78-1.24-3.64,1.42-2.14,2.68Zm41.69-2.41c0-.27-.47-.34-.54,0,.06.32.3.17.54,0Zm15.23-.27c-1.42-.29-.31.81,0,0h0Zm-49.7,1.87c.76.57,1.35,1.33,2.94,1.07-.16-1-.57-1.75-1.07-2.41-1.3-.23-1.68.46-1.87,1.34Zm69.48-.27c.5.03.19.89.8.8.4-.4,1.2-.41,1.07-1.34-.75.05-1.83-.23-1.87.53Zm-84.45.54c-.28,1.55,1.16.11,0,0h0Zm53.98,0c-1.46.37-2.03,2.72,0,2.94,1-.25,1.21-2.74,0-2.94Zm-9.09.8c.07.83.27,1.51.53,2.14,1.26.02,2.63.14,2.94-.8-1.21-.29-1.83-2.35-3.47-1.34Zm-110.9,2.41c.34.46.55,1.05,1.34,1.07.77-.12,1.22-.56,1.34-1.34-.18-.98-.99-1.33-1.6-1.87-.28.79-1.35.79-1.07,2.14Zm89.25-1.61c.09.98.3,1.84.8,2.41,1.11.31,1.04-.56,1.87-.53-.14-1.1-.88-1.62-1.6-2.14-.07.62-.71.61-1.07.27Zm6.95,3.21c1.29.22,1.89-.25,2.67-.53.84-4.29-5.34-2.51-2.67.53Zm-13.9.8c1.83.22,2.48-.73,2.94-1.87-.76-.4-1.4-.92-2.14-1.34-1.52.3-2.1,2.2-.8,3.21Zm-108.76-1.61c.71.08.69-.56.8-1.07h-.8v1.07Zm97.27-.53h.54c.42-.66-.91-.79-.8-.27.16.02.32.04.27.27Zm16.84,1.6c.04-.94-.07-1.71-.54-2.14.33,1.15-.85,2.16.54,2.14Zm63.87.54c-.21-1.17.1-1.47-.53-2.41-.39.15-1.38-.31-1.34.27,1.89,0,.01,2.11,1.87,2.14Zm-154.73,3.21c.64.11.58-.49,1.34-.27.35-1.42.51-3.91.27-5.09h-.8c-.37,1.66-2.29,3.46-.8,5.35Zm117.05-4.55h.53c0-.27.22-.32.27-.54-.34-.01-.37-.34-.8-.27v.8Zm-38.48,1.34c.56.15.76.66,1.6.53-.07-.78.6-.82.54-1.61-.64-.25-.71-1.08-1.87-.8-.37.35-.26,1.16-.27,1.87Zm-70.01.8c.75-.22.69.38,1.34.27.66-.85-.04-2.14-.8-2.41.2,1.09-.86.92-.53,2.14Zm157.93-.8c-.21.06-.53,0-.53.27.21-.06.53,0,.53-.27Zm-16.03,4.28c.65.45,2.05-.13,1.6-1.61-1.33-.26-1.74.4-1.6,1.61Zm-175.04,1.87c1.41-.11,2.37-.66,2.14-2.41-.56-.15-.76-.66-1.6-.53-.25.91-.75,1.57-.54,2.94Zm194.01-1.34h1.07v-.8c-.67-.05-.84.41-1.07.8Zm-168.62-.27c-.65.9.9-.65,0,0h0Zm157.67.53c-.3.03-.42-.39-.54,0,0,.27.47.34.54,0Zm-154.19,1.34c1.55.58,1.85-1.7.27-1.34-.22.31-.35.72-.27,1.34Zm150.45.27c.7.37.92,1.22,1.87,1.34.7-.37,1.16-.98,1.07-2.14-.91-.78-3.16-1.41-2.94.8Zm-6.41-.27c.04-.32.47-.61,0-.8-.04.32-.48.61,0,.8Zm-167.82,2.41c.97,0,1.17-.79,1.07-1.87-1.47-2.1-3.44,1.64-1.07,1.87Zm18.44-.54c.57.41,1.19.77,1.87,1.07.54-.35.81-1.79.27-2.41-1.29-.13-1.84.47-2.14,1.34Zm-20.58,1.07c-.16-.82-.07-1.89-1.07-1.87-.82.96.57,1.41,1.07,1.87Zm169.16-1.87c-.21.06-.53,0-.54.27.21-.06.53,0,.54-.27Zm.27,1.34c-.14.69-.11,1-.53,1.87.48.24.68.75,1.6.54-.04-.95-1.38-1.17-.27-1.87,1.27.1.27,1.09,1.34,1.61.17-.8.57.26,1.07,0,.71-.54,1.58-.92,1.34-2.41-.7-.55-1.56-.93-2.94-.8-.28.62-.68,1.91-1.6,1.07Zm12.03,1.34c.67-1.45.86.72,1.87.54.96-.2,1.79-.53,1.6-1.87-1-1.12-4.48-.26-3.47,1.34Zm-183.05,0c.04-.66-.14-1.11-.53-1.34-.04.66-.05,1.3.53,1.34Zm8.28,0c.08-.61-.06-1.01-.53-1.07-.42.4-.3,1.2.53,1.07Zm172.9,1.61c-.48-.24-.68-.75-1.6-.53-.67.4-1.1,1.03-1.34,1.87,1.07-.09,1.48.48,2.67.27.37-.61.92-1.04,1.33-1.61-.28-1.3-.47-1.09-.27-2.68h-1.34c-.34,1.41.55,1.59.53,2.68Zm9.35,0c.63.09,1,.42,1.87.27.41-.55.41-2.4,0-2.94-1.97-.45-2.04.99-1.87,2.68Zm-22.98,1.07c1.9.36,2.01-2,1.07-2.68.55,1.8-1.27,1.23-1.07,2.68Zm-162.47,2.41c.25-.82,1.3-.84,1.34-1.87-.1-.79-.46-1.32-1.07-1.61-1.23.38-1.47,2.86-.27,3.48Zm15.5-3.21c0-.27-.47-.34-.53,0,.06.32.3.16.53,0Zm151.52,3.21c.87,1,2.05,1.69,3.74,1.87,2.77-3.2-3.54-6.96-3.74-1.87Zm14.43-.53c.31.31.94.3,1.6.27.06-1.4-.86-1.82-1.87-2.14.41.88,1.09.9.27,1.87Zm-4.81.27c.07-.61-.06-1.01-.54-1.07-.42.4-.3,1.2.54,1.07Zm-110.1.54c.69.56,2.28.3,2.14-.8-1.26-.15-1.76-.34-2.14.8Zm113.84-.8v.53c.66.42.79-.91.27-.8-.02.16-.04.32-.27.27Zm-177.17.53c-.24-.21-.76.16-.8.27-.38,1.02,1.33.19.8-.27Zm181.72,2.14c.72.53,1.32,1.18,2.67,1.07-.04-.85.71-.89.53-1.87-1.05-.19-1.95-.55-2.4-1.34.06,1.04-.57,1.39-.8,2.14Zm-22.71-.8c-.51-.28-1.54-1.4-1.87-.27,1.11.35.96.57.8,1.87.66.17,1.04.07,1.34,1.07,1.15-.09,1.94-.55,2.41-1.34-.97-.82-1.33-2.24-2.94-2.41-.06.51.3.59.27,1.07Zm-162.21,1.87c-.14-.93-.12-2.02-.54-2.68-.31.5-.29,2.47.54,2.68Zm148.05.8c.86.43,1.77.22,2.4-.27v-1.87c-.78-.2-1.32-.63-1.87-1.07.76,1.33-.57,1.84-.53,3.21Zm6.41-2.68c.47,1.58,1.57,2.53,3.74,2.41-.38-2.37-1.22-3.35-3.74-2.41Zm24.85.27c.05.38,1.75.17,1.6-.54-.55.16-1.86-.43-1.6.54Zm-185.46,1.07c1.08.19,1.53-.26,1.34-1.34-1.08-.19-1.53.26-1.34,1.34Zm118.12.54c-.37-4.45-5.88.77-1.34,2.41.62-1.1,1.45-1.04,1.34-2.41Zm22.98,1.07c1.07.36,1.06,1.8,2.94,1.34,2.05-3.12-2.64-5.13-2.94-1.34Zm39.02,0c1.26.28,1.34-.62,1.87-1.07-.21-2.38-3.25-.9-1.87,1.07Zm4.81-1.87c-.38-.06-.45-.44-.8-.54-.23.55.69,1.2.8.54Zm-84.98,1.34c.07-.96.07-1.85-1.07-1.61-.37.8-.31,1.86,1.07,1.61Zm27.79,1.07c1.37.04,2.01-.66,2.14-1.87-.73-.43-1.62-.7-2.67-.8.54,1.12-.23,1.88.53,2.68Zm59.33-.27c1.03-.04,1.09-1.04,1.07-2.14-.64.11-.58-.49-1.34-.27.11,1.27-.57,1.76.27,2.41Zm-66.01-1.87c-.45,1.64,1.45,1.96,2.4,1.34.27-1.45-1.41-2-2.4-1.34Zm26.99,0c-.38,1.6.74,1.99.27,2.94.88-.78,1.21-.43,2.14-1.07.21-1.68-1.1-2.51-2.41-1.87Zm-141.1,1.34c-.06-.51.3-.59.27-1.07h-.8c-.07.61.06,1.01.54,1.07Zm71.35-.8c.22,1.12,2.4,1.4,1.6,2.68,1.16-.18,2.2-.48,2.41-1.61.06-.51-.3-.59-.27-1.07-2.17.58-2.28-.08-3.74,0Zm24.05,1.34c1.18.08,2.3.66,2.41-.8-.23-1.25-2.86-.94-2.41.8Zm-14.16.8c.59.74,3.87,1.06,3.74-.53-.21-1.68-4.48-2.74-3.74.53Zm45.96-.53c.68.28,1.84.97,2.67.27-.01-.37.13-.59.27-.8-.43-.82-1.46-1.04-2.67-1.07-.31.32-.3.95-.27,1.61Zm-67.88-1.07c-.14.4-.4.67-.54,1.07.64.43,1.26.88,2.41.8.21-.35,1.22-2.07,0-2.14.01,1.4-1.38.59-1.87.27Zm4.28,5.35c.8.26,1.19.95,2.4.8.74-1.67.38-4.43.8-6.42h-.8c.36,3.03-3.23,2.12-2.4,5.62Zm38.75-5.09c.18.53,1.21.85,1.34,0-.4-.31-1.12-.94-1.34,0Zm-64.4,0c.31,1.06.31-1.06,0,0h0Zm12.83,1.87c.6.39,1.29.67,2.41.53.59-.74.51-1.36.27-2.41-1.72-.21-2.94.09-2.67,1.87Zm-16.03-1.61c-.66.69-.86,3.11,0,3.75,1.81.12,2.46-.93,2.67-2.41-.79-.55-1.03-1.65-2.67-1.34Zm10.42,1.61c.6.18,1.34.8,1.87.27.18-1.34-.64-1.68-1.6-1.87-.31.32-.3.95-.27,1.61Zm107.43-.27c-.08.97.04,1.74.27,2.41.99-.54,1.59.18,2.94,0,.77-1.11,1.68-2.06,2.14-3.48-1.09.04-4.29.11-5.34,1.07Zm13.36,1.34c1.05.83,2.23.94,3.21,0,.55-2.84-3.93-3.35-3.21,0Zm-165.95-1.07h.8c-.04-.31.04-.76-.27-.8-.06.38-.44.45-.53.8Zm18.97.8c-1.96-1.99-5.71-.97-8.28-.53,1.64,3.53,5.72,4.62,10.15,5.35,1.87-1.7,5.24-1.89,5.61-5.09-2.56-.46-4.67.1-7.48.27Zm21.38.27c.36.38,1.51.38,1.87,0,.03-1.01-.52-1.44-1.34-1.61-.24.48-.75.68-.53,1.61Zm-41.69,1.34c.81-1.14.13-1.36-.27-2.41-2.73-.62-2.09,3.05.27,2.41Zm148.85-1.34c.84.13.75-.67,1.07-1.07h-1.34c-.02.47.06.83.27,1.07Zm-151.52-.54c-.21.06-.53,0-.53.27.21-.06.53,0,.53-.27Zm144.3,2.14c.13,2.23,4.34,2.72,4.54-.53-1.16-2.17-4.69-1.83-4.54.53Zm-133.61.54c.86-1.27-.41-2.34-1.6-2.41-.15,1.49.25,2.42,1.6,2.41Zm62-1.34v-.8h-.8c-.05.58.22.85.8.8Zm90.86,1.07c.54.8,1.34,1.33,2.41,1.61.07-.55.71-.53,1.07-.8.01-1.26-.47-2.02-1.07-2.68-1.23.2-2.09.76-2.41,1.87Zm-166.21,0c1,.17,1.82-1.36.8-1.61-.11.7-.8.81-.8,1.61Zm86.31-1.61c-3.28-1-2.31,3-2.14,4.01.95-.39,1.78-.89,2.67-1.34-.16-.87.18-1.24.27-1.87-.39-.15-.65-.42-.8-.8Zm13.63.53c.24,1.79,2.27,2.54,3.74,1.61-.3-1.53-2.23-2.89-3.74-1.61Zm14.7.54c.13,1.21.77,1.91,2.14,1.87.48-1.09.38-1.72.27-2.94-1.23-.07-1.75.57-2.41,1.07Zm8.55,2.68c.51-.65,1-1.32.8-2.68-.62-.45-1.14-1-2.14-1.07-.92,1.31-.08,3.27,1.34,3.75Zm30.2-2.68c1.49.91,1.03,3.07,2.94,2.94,1.64-.11,2.33-2.4,1.07-4.01-1.75-.06-3.24.15-4.01,1.07Zm-10.42,2.41c.12-.77.95-.84.8-1.87-.85-.75-2.64-.57-3.47-1.34-.42,1.5.58,3.39,2.67,3.21Zm41.15-2.94c0-.27-.47-.34-.53,0,.06.32.3.16.53,0Zm1.34,1.07c.63.54,1.79.71,2.67.27.22-.76-.38-.69-.27-1.34-1.13-.62-2.38-.18-2.4,1.07Zm-132.28-.27c.23,1.2.73,2.12,2.41,1.87.7-.47.63-1.87.27-2.68-1.37-.22-2.1.22-2.67.8Zm38.21,1.34c.81.53,2.03.64,3.47.54.46-2.36-4.16-4.07-3.47-.54Zm86.58-.27c.81.08.95.83,2.14.54.35-.45.71-.9.53-1.87-.8-.99-3.31-.71-2.67,1.34Zm-142.43-.8c.42-.03.93.04.8-.53h-.53c0,.27-.22.32-.27.53Zm42.49,2.41c1.58-.09,1.97-1.76,1.07-2.94-2.8-1.01-3.15,2.81-1.07,2.94Zm29.66-.8c.43.46,1.12.66,2.14.54.32-.66.39-1.58.54-2.41-1.62-.44-2.89-.17-2.67,1.87Zm20.31,0c.56.15.76.66,1.6.54-.03-1.06,1.12-1.89.54-2.68-1.26.14-2.49-.1-2.14,2.14Zm5.88-1.61c-.26,1.33.55,1.59.8,2.41,1.19-.23,1.71-1.14,2.14-2.14-.8-.62-2.01-1.17-2.94-.27Zm-84.18.54c.01-.46-.21-.69-.53-.8.03.42-.04.93.53.8Zm14.43.8c.9.18.98-.45,1.07-1.07-.84-.12-1.19.23-1.07,1.07Zm-25.65.53c.56-.53,0-1.14-.53-1.34-.04.66-.05,1.3.53,1.34Zm145.37-.8h.53v-.53h-.53v.53Zm-122.39-.27c-.21.06-.53,0-.53.27.21-.06.53,0,.53-.27Zm34.47,1.07c.04-.32.47-.61,0-.8-.04.32-.48.61,0,.8Zm-61.46,0c-.21.06-.53,0-.54.27.21-.06.53,0,.54-.27Zm105.02,1.87c0-.27-.47-.34-.53,0,.06.32.3.16.53,0Z"/>
  <path class="cls-9" d="m206.99,11.3l.27.13c.05.23-.1.25-.27.27v-.27h-.27v-.27l.27.13Z"/>
  <path class="cls-9" d="m156.76,225.55c-2.6.96-5.5.47-8.29.27-4.94-.36-10.11,1.71-14.7.27-7.14,1.06-15.14-.88-21.91.53-.84.04-1.61,0-1.87-.53-1.8,1.33-3.76.33-5.88.27-9.29-.29-21.31.22-32.07-.27-3.15-.14-6.39.56-9.09.27-.71-.08-2.05.18-2.14-1.07-.78.2-.69,1.27-1.87,1.07-6.39.33-12.71-.82-18.71,0-.73-.35-1.65-.49-2.41-.54-5.05-.33-11.21.1-16.84,0-2.31-.04-4.56-.53-6.68-.53-2.33,0-4.53.41-6.68,0-2.1-.4-3.83-1.56-5.61-2.41-.45-2.67-.12-5.3-.53-7.49-.79-.77.67-.46.53-1.34-.26-.75-.71.39-1.07-.27.78-1.42-.11-3.01,0-4.82.02-.39.55-1,.53-1.34-.05-.95-.54-1.55-.53-2.41,0-1.91.67-3.83.8-5.89.15-2.24-.68-4.59-.53-6.69.12-1.81,1.62-4.32,1.07-6.69-1.1-1.34-1.76-3.68-.8-5.62-.35-1.41-2.01-2.75-1.34-5.35.11-.43.71-.73.8-1.34.15-.98-.15-2.21,0-3.21.12-.84.72-1.61.8-2.41.41-3.81-.44-7.88,0-10.71.32-2.07,2-3.65,1.87-5.35-.68-2.93-.53-5.48-1.07-8.83,1.75-3.15-.57-6.13.8-9.9-1.78-2-1.17-4.8-.27-7.23.11-1.09-1.14-.82-1.34-1.61.58-1.38-.3-1.28-.8-2.14-.34-6.26,2.49-11.95.27-16.33.74-2.47.57-4.81.53-7.49-.02-1.15.58-2.24.53-3.21-.04-.73-.54-1.43-.53-2.14.03-1.98,1.18-3.99,0-6.16.65-1.96.67-4.68-.53-6.16,1.03-2.82.34-7.67.53-12.04.07-1.7.62-3.55.53-5.09-.04-.76-.54-1.41-.53-2.14.01-1.74.66-3.63.53-5.35-.13-1.78-1.06-3.68,0-5.62-.1-1.33-.75-2.11-.8-3.48-.03-1.15,1-1.25.8-1.87-.5-2.97-.56-5.16,0-8.56.08-.46.52-.97.54-1.34.02-.44-.5-.62-.54-1.07-.04-.46.2-2.76.27-4.02.12-2.18.07-4.3.8-6.16-.75-2.43-.89-6.38-1.07-9.1-.26-3.94.28-8.01.27-12.31C3.52,1.14,5.58.8,7.38.19c2.77.93,5.68.25,8.02,1.34.99.1.7-1.08,1.87-.8,6.67-.25,14.08-.11,20.58.27,2.61.15,5.14-.51,7.21.27,1.89-.79,4.91-.44,6.95-1.07,1.14.69,1.68.32,2.94.8,1.21-.04,1.93-.56,2.94-.8,2.41,1.11,8-.51,10.96,1.07,8.89-.09,15.65.13,25.39,0,.98-.09,1.48-.66,2.41-.8,5.38.32,8.69,1.14,12.56.8,1.05-.34.65.78,1.34.8,2.74-1.12,6.33-.03,8.55-1.34,4.13-.09,8.93.25,13.36-.54,2.4.43,4.84.78,7.48.54.85-.08,1.78-.54,2.67-.54,1.5,0,2.73.87,4.28,1.07,2.09.28,5.1.08,7.48,0,2.41-.08,4.88-.3,6.95-1.07,3.07.52,8.16-.25,9.62,1.07,1.37-.81,4.22-.69,5.61,0,.99-.17,1.84-.48,2.67-.8,8.01.64,17.32.26,24.05.27.5.12,1.61-.36,1.34.54,1.8-1.41,3.95.07,6.15,0,1.19-.04,2.2-.88,3.47-1.07,3.45-.52,7.41.09,9.35,1.07,1.42,3.22,1.14,7.9.53,10.71,1.02,1.61.98,3.63.27,5.62.64,2.3-.25,6.14.8,8.03-1.61,5.46-.14,10.75-.27,16.59-.04,1.95-.45,3.94.27,6.16-1.35,3.54-.23,5.78-.54,9.64.54.98.5,2.53,1.6,2.94-1.85,4.35-.43,9.2-1.6,13.65.15,2.72.33,7.47-.27,9.64,1.05,1.88.27,5.24.27,8.03,0,3.62.31,7.41.54,10.97.13,2.12-.22,4.26,0,6.16.19,1.7,1.21,3.95,0,6.16,1.12,2.53.49,5.64.54,8.83.04,2.45.42,4.76.27,7.23-.08,1.22-.51,2.51-.54,3.75-.05,2.6.45,5.2-.54,6.96,1.47,3.82.26,9.98.54,14.19.06,1,.49,1.95.54,2.94.29,6.83-.76,13.42.53,20.61-1.1,2.6-.22,5.18,0,7.76.32,3.83-.36,7.56-.27,11.24.04,1.55.58,3.02.54,4.55-.12,4.3-.43,9.02,0,13.65-1.28,2.64-.51,7.34-2.94,8.83-6.23-.14-11.99-.5-19.24-.8-1.06.09-1.74.58-2.67.8-13.78-.79-30.15.19-44.63-.54l.13-.13-.13-.13v-.27c-.21-.14-.43-.28-.8-.27v.8h.27ZM163.17,2.87c-.33-.65-.54-1.42-1.6-1.34-.13,1.12.68,1.29,1.6,1.34Zm-2.67,0c.31,1.06.31-1.06,0,0h0Zm-2.67.8h.53c.3-.39.29-.65-.27-.8-.02.34-.34.37-.27.8Zm1.07.27h.8v-.54h-.8v.54Zm48.9,1.34c-.98-.07-1.93-.52-2.94-.54-2.13-.04-4.32.88-6.42.8-1.41-.05-2.77-.74-4.01-.8-1.67-.09-3.07.46-4.81.54-9.96.42-20.2-.89-30.2-.27-4.26.26-8.36-.53-12.83,0-.62.07-1.48.56-2.14.54-1.3-.05-2.5-.95-3.74-1.07-4.97-.48-10.33.66-15.23.27-.82-.07-1.64-.54-1.6-.54-1.2-.03-2.52,1.14-3.74.27-.96-.07-.98.8-1.87.8-1.18-.58-3.21-.62-4.54,0-2.05-1.22-4.24-.24-6.41-.27-2.61-.04-5.06-.31-7.75-.27-11.15.17-24.62.03-35.54-.27-4.9-1.55-10.15.29-15.77-.54-.15-.78-.42.41-.8.27-2.81-.3-8.5-.57-11.22.8-2.55-1.21-5.09.59-8.02.8-2.32.17-4.82-.71-7.22-.54-.9.07-1.75.71-2.67.8-3.12.31-6.43-.8-9.35,0-.58.67-.68,1.82-1.07,2.68-.21,1.46,1.66.84,1.6,2.14-.62,1.04-1.75,2.1-1.87,4.01-.08,1.32.66,2.7.8,4.28.05.55-.26,1.2-.27,1.87,0,1.75.66,3.96.54,5.62-.07.97-.7,1.97-.8,2.94-.19,1.76.19,3.71,0,5.62-.18,1.82-.87,3.37-.8,4.82.06,1.3.69,2.55.8,3.75.28,2.91-.88,5.95.8,8.03-1.26,3.51-.62,6.96-.54,10.44.04,1.55-.49,3.08-.54,4.55-.09,3.37.16,6.63-.27,10.44,1.94,3.6-.57,9.44.53,13.92-.38.6-1.74.22-1.6,1.34.39.15,1.38-.31,1.34.27-.42,3.24-.85,6.29-.53,9.37.08.77.51,1.59.53,2.41.04,1.62-.61,3.4-.53,5.09.03.79.49,1.66.53,2.41.31,4.88-.09,9.79-.27,15.52.28,1.15.72,2.13.8,3.48-1.08,2.04-.66,4.89-.27,7.49-1.02,3.51-.16,8.84,0,10.97.23,3.17-.51,5.56-.53,8.03-.03,2.9.87,5.97-.27,9.1,1.06,1.84.11,4.47-.27,6.42.83,2.93-.03,5.81.8,9.1-.9,1.95-.98,4.52,0,6.42-1.08,2.56-.57,7.55.27,9.9-1.59,3.49.12,8.37,0,12.04-.03.82-.45,1.65-.53,2.41-.35,3.23.52,6.08,1.87,8.3,2.24.54,4.94.91,6.95.27,5.39.79,12.53,1.33,18.44.27,1.54.77,4.36.27,6.15.8,8.81-.75,18.58-.63,26.99-.54.6,0,1.04.2,1.6.27.93.11,2.69-.16,4.54,0,1.95-1.41,4.81-.58,6.68.27,3.98-1.07,8.55.15,12.56-.27,1.14-.12,2.19-.71,3.21-.8,3.46-.32,7.27.55,10.69,0,.68.84,2.71.32,3.74.8,2.86-1.63,7.82.51,11.22-1.07,2.57.66,5.83,1.01,8.82,1.07,2.54.05,4.76.04,6.68-.53.88.1.84,1.12,1.6,1.34.84.13.2-1.23.8-1.34,8.44-.22,19.69.74,29.93,0,.91.07,1.46.5,2.14.8,2.86-1.53,7.62-.01,11.22-1.07.92.33,2.03.47,2.94.8.83.03.76-.84,1.87-.53,7.52.62,18.21-.31,25.65-.54.94-.22,1.61-.71,2.67-.8,1.38.31,2.95.44,4.01,1.07,1.44-3.92,1.1-8.67,1.07-13.38-.02-3.41-.21-7.32,0-10.44.39-5.94-.71-10.68.27-15.52-.53-2.39-.59-4.99-.27-7.23.14-.95-.14-1.61-.27-2.94-.26-2.84.36-5.58-.53-7.49,1.18-2.1.48-4.17.27-6.16-.04-.41.29-1.04.27-1.61-.03-.68-.55-1.16-.53-1.61.06-1.57.64-2.57.53-4.01-.06-.76-.47-1.57-.53-2.41-.04-.53.54-1.07.53-1.61,0-.24-.48-.98-.53-1.34-.81-5.65-.08-11.38.53-17.4-.05-.84-1.06-.73-.8-1.87.08-2.88.83-4.7-.27-6.96,1.08-1.69.32-4.12.27-6.16-.07-2.79.33-5.53.27-8.3-.26-10.54-1.23-20.97-1.34-32.12,1.04-1.84.06-3.23,0-4.55-.1-2,.55-4.45.27-6.69-.35-2.77-.82-5.91.27-8.83-.92-2.46-.32-4.11-.8-7.23-.37-1.17,1.03-.57.8-1.61-.96-1.62-.34-5.49-.53-8.56.18-.98-.58-1.03-.54-1.87.08-1.55.75-3.01.8-4.55.08-2.33-.98-4.64-.8-6.69.11-1.29.96-2.24,1.07-3.48.18-1.99-.81-2.89-1.07-4.82.93-.23,1.4-.92,1.6-1.87-1.9-1.73-2.75-4.47-3.47-6.69-2.97-.73-6.07-.04-9.09-.27Zm14.96,8.3c.37-.4-.04-1.54-.8-1.61-.53.56.09,1.48.8,1.61Zm-1.87.8c1.08.26,1.08-1.6,0-1.34v1.34Zm.53,32.12c.9.81.81-.99,0,0h0Zm-216.46.8c.04-.32.48-.61,0-.8-.04.32-.48.61,0,.8Zm217.26,59.69c.31,1.06.31-1.06,0,0h0ZM2.3,175.77c-.21.06-.53,0-.53.27.21-.06.53,0,.53-.27Zm219.93,18.73c.31,1.06.31-1.06,0,0h0Zm-132.55,29.98c.31,1.06.31-1.06,0,0h0Zm43.83.54c.08-.73-1.55-1.09-1.87-.54.58.22.91.69,1.87.54Zm62.8-.8c-.4.04-.99-.1-1.07.27.36.35.99.35,1.07-.27Z"/>
  <g>
    <path class="cls-8" d="m206.73,12.5c-.2-.33-.07-.69.27-1.07"/>
    <path class="cls-3" d="m206.99,11.3c-.06-.18-.14-.46-.27-.67"/>
    <path class="cls-7" d="m52.94,10.76c-.09.18-.27.27-.4.4"/>
    <path class="cls-7" d="m125.62,116.48h.53"/>
    <path class="cls-4" d="m194.97,23.74c.12-.25.22-.47.27-.67"/>
    <path class="cls-1" d="m126.96,39.13c.28,0,.47-.06.67-.13"/>
    <path class="cls-5" d="m95.69,52.51c.11.25.28.43.53.54"/>
    <path class="cls-6" d="m26.75,92.39c-.19.08-.2.33-.27.53"/>
    <path class="cls-5" d="m207.93,96.94c.15.03.21.15.27.27"/>
    <path class="cls-2" d="m211.8,97.61c-.08-.18-.16-.37-.27-.54"/>
    <path class="cls-2" d="m190.43,119.02c-.18.09-.37.16-.53.27"/>
    <path class="cls-7" d="m170.52,153.15v-.53"/>
    <path class="cls-5" d="m42.78,159.57c.11.25.28.43.54.53"/>
    <path class="cls-7" d="m156.49,225.55c.24-.12.6-.12.94-.13"/>
  </g>
</svg>