<?xml version="1.0" encoding="UTF-8"?>
<svg id="Layer_1" data-name="Layer 1" xmlns="http://www.w3.org/2000/svg" viewBox="0 0 226.77 226.77">
  <defs>
    <style>
      .cls-1 {
        stroke-width: .39px;
      }

      .cls-1, .cls-2, .cls-3, .cls-4 {
        fill: none;
        stroke: #000;
        stroke-linecap: round;
      }

      .cls-1, .cls-2, .cls-3, .cls-4, .cls-5 {
        fill-rule: evenodd;
      }

      .cls-2 {
        stroke-width: .38px;
      }

      .cls-3 {
        stroke-width: .39px;
      }

      .cls-4 {
        stroke-width: .37px;
      }

      .cls-5 {
        stroke-width: 0px;
      }
    </style>
  </defs>
  <path class="cls-5" d="m224.83,3.46c1.5,2.15,1.35,4.64.3,7.35.83,6.6-1,12.57.61,18.38.3,6.35-1.51,14.93-.61,22.06-1.27,6.99-.13,13.87-.3,21.44-.12,5.31-.14,10.6,0,15.93.09,3.61-.3,7.38,0,11.03.28,3.31.62,7.73.61,11.95,0,2.24-.66,4.32-.61,6.43.05,2.13.92,4.37.91,6.43,0,1.71-.67,3.27-.61,4.9.06,1.59.64,3.05.61,4.59-.02.95-.36,2.11-.3,3.06.06,1.16.59,2.47.61,3.68.02,1.27-.51,2.45-.61,3.68-.37,4.63,1.86,12.47.3,18.69,1.63,3.87.09,8.99,0,14.4-.02,1.18.33,2.52.3,3.68-.08,3.98-.76,8.63-.61,12.87.04,1.17.51,2.24.61,3.37.46,5.08-.54,10.08-.3,15.01.19,4.03,2.41,9.01-.3,12.56-5.04,2.18-12,2.2-18.28,1.23-6.38.8-14.87.04-21.93,0-3.27-.02-6.5.82-9.44-.31-2.49.55-5.26.38-8.53.31-2.78-.07-5.13.12-7.92-.61-7.82.55-16.51.39-24.98.61-5.66.15-11.7-.57-16.75.61-6.86-1.79-17.5.72-25.59-.92-1.98.91-4.2-.2-6.09.92-2.63-1.26-8.19-.59-10.97,0-14.07-.93-29.46-1.33-45.09-.61-3.08.14-6.31-.45-8.84.61-2.3-1.38-5.41-.57-8.83-.31-3.1.24-6.46-.67-9.14-.61-.72-.91-1.52-1.73-2.13-2.76.8-4.53-.71-8.26.91-11.64-1.09-3.24.1-6.06-.3-8.88-.35-2.46-1.58-4.09.61-6.74-.53-4.14.82-9.43-1.52-12.25.53-1.43.21-2.83.3-4.29.08-1.26.58-2.5.61-3.68.01-.38-.6-.68-.61-1.23-.06-2.23.64-6.05.61-8.88-.04-2.81-1.83-6.83,0-9.19-2.3-2.22-.38-6.01-.61-9.8-.05-.87-.6-1.64-.61-2.45,0-.68.48-.81.61-1.53.38-2.06-.83-6.38.91-8.27-.91-1.45-2.53-5.27-.61-6.74.13-1.25-1-1.24-.61-2.76,1.22-5.19-.09-10.68,1.22-15.93-.77-1.67-.99-3.9-1.83-5.51,1.39-2.77,1.12-5.91.91-9.8-.05-.91.56-2.71-.61-3.37.31-.71,1.05-.99.92-2.14-1.15-2.46-.16-4.73,0-7.35.24-4.01-2.52-7.83.61-11.03-1.49-2.83-2.68-9.92-.3-12.87.19-1.72-1.17-1.89-1.22-3.37,1.27-1.02.19-2.7.31-3.68.21-1.75,1.37-3.48,1.22-5.51-.08-1.12-1-1.68-1.22-2.76-.17-.8.09-2.52,0-3.68-.24-3.21-.19-6.24,0-10.42.09-2.12,1.2-4.34,1.22-6.43.01-1.41-.64-2.65-.61-3.98.03-1.32.43-2.77.61-4.29.17-1.4.07-3.09.3-4.29.3-1.54,1.15-3.05,1.83-4.29.78-1.42,1.47-2.49,2.74-3.37,8.02-.33,15.56-.23,24.07-.31,10.33-.09,20.87.51,31.38.31,1.34-.03,2.57-.52,3.96-.61,2.92-.18,6.12-.03,9.14,0,2.92.03,5.78-.15,8.53,0,1.02.05,1.8.56,2.44.61.62.05,1.1-.59,1.83-.61,2.67-.09,5.59-.09,8.83,0,1.22.03,2.4.56,3.66.61,1.54.07,3.18-.6,4.87-.61,1.62-.01,3.32.65,4.88.61,1.19-.03,2.4-.63,3.66-.61,7.45.08,15.74.42,23.76.61,3.79.09,7.52-.61,11.27-.61,2.34,0,4.68.71,7.01.61,1.1-.05,2.24-.59,3.35-.61,6.82-.16,13.11.36,19.5.92,13.4-1.79,28.87-.65,43.26,0,.56.87,1.73,1.12,2.13,2.14h-.31v.31c.11.35.54.78.61.31h.3v-.31ZM89.57,1.62c.35,1.21.35-1.21,0,0h0Zm33.81,1.84c.27,1.21-1,.29-1.52.31-1.91.06-4.07.44-5.18-.61-1.25-.03-1.22,1.22-2.74.92-4.03-.21-6.86.05-9.14,0-3.5-.08-6.52-.35-9.44-.31-1.68.03-3.38.31-5.18.31-2.62,0-5.13-1.09-7.31-.31-1.11.2-1.17-.66-2.13-.61-3.76.89-9.13.45-14.32.61-1.39.37-1.2-.84-2.44-.61-3.34.7-7.11.14-10.05.61-1.18.27-1.08-.75-1.83-.92-1.4,1.63-5.62,1.22-7.31.31-5.25,1.4-15.18,2.18-19.5,0,.19,1.5-1.47,1.43-2.13,1.53-2.14.33-5.23-.5-7.92-.31-3.18.22-5.51,1.17-7.92,1.84,1.18,2.67.38,5.62.3,9.19-.03,1.5.49,3.18.3,4.59-.4,3.05-1.79,6.4-.3,9.8-.79,1.2-.36,3.07-.61,4.6-.28,1.66-.33.56,0,1.84.9,3.52-.44,7.39-.3,10.41,2.25,3.5-.64,10.08,1.22,14.7-.99,2.04.2,4.46-1.22,5.82,1.69,9.1-.02,17.81.3,26.65.21,5.9-.59,11.65.61,17.77-.94,3.32-.45,7.31.3,10.41-1.46,6.56-.16,13.37-.61,19.61.11,1.31.82,2.04.91,3.37-1.38,2.14-.22,5.13-.3,7.66-.03.88-.52,1.82-.61,2.76-.34,3.65-.04,7.94.91,10.72-2.22,3.43-.72,9.43-.91,14.09-.09,2.19-.97,4.27-.91,6.43.03,1.11.53,2.28.61,3.37.12,1.72-.44,3.38-.3,4.9.11,1.24.91,2.37.91,3.68,0,1.77-.94,3.53-.91,5.21.02.95.57,1.95.61,2.76.24,4.47-.62,8.64.3,13.17,1.13.09,1.14,1.3,1.83,1.84,13.42.54,27.1.93,39.91,1.23,8.9.2,17.8.93,26.5.92,4.83,0,9.56-.74,14.32-.61,1.33.04,2.61.6,3.96.61,2.57.03,5.31-.65,7.92-.61,4.45.07,8.78.64,13.1.31,1.11-.08,1.96-.6,3.05-.61,10.86-.1,19.81-.17,30.77,0,1.73.03,3.44-.34,5.18-.31,1.41.03,2.8.6,4.26.61,3.02.03,6.34-1.08,9.45-.61,7.65,2.59,16.49-1.22,23.76.31,2.19.46,4.23.42,6.7.31,1.77-.08,3.6-.54,5.48-.31.85.11,1.88.58,2.74.61,3.97.13,8.65-1.24,12.79-.61,1.36-1.16.94-3.27.92-5.21-.06-5.22.26-11.56.61-16.85-.21-.91-.91-1.33-.61-2.76,1.2-3.4.29-6.8.3-10.11,0-1.71.61-3.41.61-5.21,0-.93-.56-1.82-.61-2.76-.31-6.19,2.2-11.4,0-16.85.5-7.03-.11-13.12.61-20.52.14-1.57-1.46-1.38-1.22-3.06.04-1.18,1.03-1.42.91-2.76-.98-6.15-.43-13.25-.61-18.99-.14-4.3.6-10.31-.31-15.32,1.2-3.29.15-6.78,0-10.41-.1-2.35.54-4.69.61-7.05.32-10.55-.6-21.62.61-31.55-.68-1.36-.76-3.31-1.22-4.9,1.74-7.7-.53-17.56.91-25.73-.31.92.68.54,1.22.61.21-1.43-1.29-1.15-1.83-1.84.42-3.43.92-6.91.3-10.72,1.18-1.82.58-5.18-.61-6.43-2.2-.64-3.44.12-5.79.61-7.18-2.75-15.19-1-23.15-.92-22.12.22-46.05.17-66.72-.31-.04-.57-.2-1.02-.61-1.23-.02.39-.39.42-.3.92Z"/>
  <path class="cls-5" d="m101.45,9.28c1.06-.77,1.85-1.6,3.35-1.84.91-.14,2.06.3,3.05.31,4.46.04,10.2-.02,14.93,0,1.94,0,4.13.34,6.09-.61.96-.15,1.19.44,1.83.61,3.46-1.36,7.89.15,11.88-.61,1.55-.23.7,1.96,2.13,1.84,1.42-.54-.37-.64-.3-1.53,2.49-.63,5.19.12,7.92.31,4.05.28,8.15-.52,11.88-.31,2.67.16,4.79.51,7.01.31.61-.06.87.37,1.22.31.27-.05.3-.58.92-.61,6.48-.31,13.36.61,19.8.31,3.81-.18,8.52-.64,13.1,0,1.05-.17,1.84-.6,2.74-.92,2.37.63,4.66.59,7.31.31.42.7,1.05,1.19,1.52,1.84-.24,6.81.06,12.55,0,18.07,0,.76-.56,1.4-.61,2.14-.03.48.54.98.61,1.53.16,1.37.06,3.7,0,5.21-.12,3.13-2.21,6.04-.61,9.8.37,1.4-.83,1.2-.61,2.45.85,2.68-.49,5.69.3,8.27-1.21,2.17-.34,4.6-.3,7.96.05,4.46-.59,8.9.3,13.17-.71,2.36-1.05,6.91,0,9.19-.74,1.66-.08,3.04-.91,4.29.81,3.07-.51,7.09-.31,10.72.18,3.31,1.71,6.11.61,8.58-1.67-.06-1.75-1.71-2.13-3.06-2.25.01-2.54-1.94-3.96-2.76-3.44-.25-4.63-2.38-7.62-1.53-1.55.44-2.73,2.22-3.96,3.37-1.34,1.25-2.56,2.32-3.66,3.37-.3,1.25.75,1.96,0,2.76-5.5.61-13.41-.13-18.28.92-1.58-.45-2.83-1.24-4.57-1.53.58-1.05,1.73-1.53,1.83-3.06-1.7-.76-3.01-.53-3.66.92.31.91,1.27,1.17,1.22,2.45-2.76,1.98-6.7.06-9.14-.61-3.17,0-5.27.47-9.14.31-1.13,1.52-.41,4.9-.61,7.35,3.71,3.01,10.34,3.08,13.71,6.43.81,0,1.74-.11,2.13.31,3,1.78,6.81,2.74,9.14,5.21,1.43.09,2.13.93,3.66.92,2.22,3.07,6.35,4.24,8.84,7.05,1.72-.21,3.67-.19,4.57-1.23-.64-2.62-3.58-2.94-4.57-5.21-1.25.03-1.22-1.22-2.74-.92-2.81-2.89-7.27-4.12-9.75-7.35-3.82.08-6.4-2.93-9.14-3.98-1.75-.67-3.95-.61-5.18-2.15-1.82-.31-3.83-.44-4.27-2.14,6.88-.48,14.07.85,20.41-.31,3.37,2.02,8.04.13,11.27,1.53,2.39-1.68,7.93-.2,9.75-2.45-.14-2.21-4.36-.31-3.96-3.06.34-1,2.24-.61,3.05-.31,2.12-.52,4.18.09,5.18,1.53,1.19,7.39-9.87,2.32-9.75,7.35.03,1.3,2.38,2.51,3.66,3.37,1.57,1.05,2.97,1.63,3.96,2.76,2.23.08,3.29.43,4.88,0,.98-.27.43,1,.91,1.23.88-.24.76-1.48,1.22-2.15h1.52c1.39-1.36,2.09-3.41,3.35-4.9.45-2.71.24-6.09,1.22-8.27,1.75.69,1.02,3.88,1.22,6.13-1.73,5.06-.23,12.99,0,19.61-.19,1.14-.73,1.92-.91,3.06,1.6,4.54-.54,10.98,1.22,16.24-.72,3.67-.74,7.4-.61,11.03.03.86.54,1.62.61,2.45.19,2.42-1.01,4.75-.91,7.04.05,1.26.81,2.42.91,3.68.09,1.09-.35,2.27-.3,3.37.05,1.18.8,2.17.91,3.37.16,1.75-.55,3.72-.61,5.51-.13,4.26.4,8.7-.3,13.17-.9-.22-.72-1.52-1.52-1.84-.91-.41-1.55-.31-2.13.31-.34,2.38,2.1,1.97,3.66,2.45.66,2.91.14,7.01.3,10.42-2.68,2.3-5.76.85-9.14.92-2.36.05-4.88,1.02-7.31.92-3.07-.13-7.9-.94-12.19-.61-2.87.22-6.21-.57-9.44-.61-14.68-.21-29.84.86-43.56.92-1.12.2-1.17-.66-2.13-.61-3.71.88-10.32,1-14.01,0-2.67.61-7.7.25-9.44,0-1.52-.4-1.3.94-2.44.92-10.83.1-23.7-.22-34.42-1.23-1.03-.21-1,.63-1.52.92-2.28-1.29-4.94-.23-7.62,0-3.1.27-6.35-1.72-9.45,0-6.77-.83-12.95-.54-19.5-.92-2.36-.14-5.07-.4-7.62-.31-5.48.2-11.48,2.28-16.75,0,.12-4.23-1.34-8.25-.91-12.87.06-.63.51-1.25.61-1.84.38-2.27.12-5.35.3-7.66.19-2.42.39-4.57-1.22-6.43.13-1.5,1.24-2.02,1.83-3.06.7-4.56-1.56-9.96.3-15.01-1.01-3.62-.79-7.84-.3-11.03.38-2.53-.78-5.02-.61-7.05.11-1.32.97-2.6,1.22-3.68-1.25-.17-1.16-1.7-1.83-2.45-.08-1.1.56-1.48.61-2.45-.37-3.18,1.05-6.1,1.22-8.88.07-1.13-1.19-2.3.3-3.06-.85-.37-1.15-1.29-1.52-2.14-.65-6.72,1.64-13.26,0-18.99.88-3.18.05-4.64.3-7.96.47-1.27,2.38-1.08,2.13-3.06-.03-.95-1.19.95-1.22,0-1.73-4.33,1.12-8.36-1.52-11.95,2.51-5.47-.7-14.9,1.83-20.83,1.76.06,1.77,1.89,3.35,2.14.95-2.84-2.53-3.75-3.96-5.21-.31-2.21-.06-3.16,0-5.51-.7-2.31-1.26-5.24-.3-7.66-.78-4.73.06-9,.3-13.17-.31-1.06-1.56-1.79-.3-2.76,2.24-.52,1.55,1.91,3.96,1.23-.42-1.82-3.17-1.31-3.96-2.76-.06-1.18-.01-2.26.3-3.06,1.39-.17,1.9.54,3.35.31.89-2.39-2.23-2.4-3.66-3.37-1.19-3.95,1.58-6.81-.3-11.03,1.88-.29,3.16,1.64,4.26.31.22-2.23-2.65-2.57-3.05-4.6-.57-2.93,1.26-4.56,3.66-5.82,1.63-.11,2.5.54,3.65.92,2.88-.57,6.81-.09,9.44-.92,3.19.61,6.33,1.27,10.05.92.64-.06.96-.58,1.52-.61,2.47-.13,5,.46,7.31.31,1.45-.1,2.53-.45,4.57-.31.11,0,.72-.44,1.22-.31.16.04.63.61.61.61.41,0,1.12-.64,1.52-.61,2.31.13,5.72.8,9.75.61,4.08-.19,7.61-1.39,10.97-1.23.74.04,1.44.51,2.13.61,2.32.35,4.61-.33,7.01-.31,4.43.04,9.79.1,14.93.61,1.1-.29.31,1.32.91,1.53Zm-4.88,2.14c.39.42,1.32.3,2.13.31.39-.65,1.39-3.54.3-3.68.36,2.05-1.46,1.99-2.44,3.37Zm69.46-1.84c.41.1.58.44,1.22.31-.17-.44.36-1.58-.3-1.53-.12.59-1.18.24-.92,1.23Zm.92,1.84c.39,1.75,2.23,2.05,4.26,2.14.83-1.08.61-3.03,0-4.29-1.25.89-3.82.45-4.26,2.14Zm-34.73-1.23c-.94,2.63,4.09,4.06,4.27.61-.86-.66-3.04-1.3-4.27-.61Zm20.41,2.14c1.03.73,2.53,1.83,4.27.92.22-1.55-.42-2.24-.61-3.37h-3.35c-.35,1.2-.07,1.14-.3,2.45Zm-66.72.31v-1.53c-.64-.78-1.8-1.05-3.35-.92-1.52,2.35,1.86,4.08,3.35,2.45Zm18.58-.31c.58.34,1.44.39,2.13.61.17-.75,1.18-.65.91-1.84-.8-1.23-3.69-1.39-3.05,1.23Zm7.01.61c.92.61,1.87,1.19,3.66.92.12.74-.56.67-.3,1.53,2.79-.4-.5-2.71,0-4.59-1.77-.78-3.77-.69-3.35,2.14Zm28.33.92c2.08-.06,3.24-1.03,3.35-3.06-2.32-1.97-5.51.71-3.35,3.06Zm23.76.61c.75-.47,1.29-1.16,1.52-2.14h-1.83c-.25-2.42-5.43-3.41-4.27.92.25.26.83.18.91.61,1.68.36,1.67-.98,3.35-.61.05.76-.48.95-.61,1.53h.3v.31h.3c-1.24.39-.57,2.69-1.52,3.37,2.16.1,5.82.82,6.4-2.14-1.21-.73-2.72-1.14-4.26-1.53v-.31h-.3Zm12.19-3.37c-.18,2.02.6,3.08,2.44,3.06.62-.09.6-.83,1.22-.92-.09-1.75-.48-3.2-2.44-3.06-.62.09-.6.83-1.22.92Zm22.85-.31c.58.13.55.88,1.52.61.46-1.33-1.39-1.65-1.52-.61Zm-137.7,3.68c1.21.1,2.25.02,2.74-.61.15-1.58-.29-2.57-.91-3.37-3.32-.96-2.46,2.48-1.83,3.98Zm7.62-2.14c1.08.78,2.82.12,3.05-.92-.63-1.16-3.46-1.4-3.05.92Zm21.02,0c.55.69,1.54.72,2.44.31.26-1.59-.48-2.17-1.83-2.14-.24.57-.51,1.12-.61,1.84Zm28.33-.61c.17,1.26,1.24,1.61,2.74,1.53.09-.62.82-.6.91-1.23-.42-1.73-2.9-1.92-3.66-.31Zm7.01,1.23c1.05.93,3.8,1.54,3.96-.61-1.02-.71-1.21-2.26-3.35-1.84-.52.49-.76,1.28-.61,2.45Zm20.11-2.14c.1,1.84,1.06,2.81,2.44,3.37.75-.68,1.99-.85,2.13-2.14-.73-1.08-2.77-2.21-4.57-1.23Zm39.3,0c-.54.58-.22,2.02-.3,3.06.73.7,1.68,1.17,3.05,1.23.79-.53.62-2.03.61-3.37-1.17-.55-1.86-1.46-3.35-.92Zm21.93.61c.43.07.51.5.91.61,0-.61.83-.39.61-1.23-.61-.64-1.3-.01-1.52.61Zm-180.35-.31c-3.15,1.84-5.98,3.99-7.92,7.05-.02.89-.44,3.23-.3,5.21.74,1.71,1.61,3.28,1.22,6.13,1.19,3.81,4.18,5.8,5.79,9.19,2.97.89,5.33,2.4,7.01,4.6.58,3.7,4.25,4.3,3.96,8.88-.7,1.44-2.09,2.19-4.57,1.84-1.95-1.4-1.18-5.55-3.66-6.43-1.18,1.26-1.86,3.03-2.74,4.6.51,10.05.35,22.6,4.26,31.25,2.36,2.55,7.37,1.35,9.14-.92.76-1.07.36-3.32,1.83-3.68,1.15-.13,1.39.65,1.83,1.23-.28,5.03-3.74,6.86-5.18,10.72-2.84,1.43-4.57,3.98-6.7,6.13-1.68.96-3.61,1.68-4.88,3.06-1.28-.74-2.03,1.33-3.35,1.53-.36.35-1.08.35-1.83.31-1.05,1.81-3.91,1.79-4.87,3.68.96,1.08,3.78.28,4.87,1.23,1.5-1.25,3.77-1.73,6.4-1.84,3.1-2.5,7.34-3.86,10.97-5.82,1.69-2.39,3.76-4.38,6.09-6.13,1.35-4.26,4.97-6.24,6.09-10.72v-3.06c.56-1.06,1.57-1.69,1.83-3.06.17-3.83-1.06-7.24-.61-10.42-1.18-1.98-1.54-4.79-1.83-7.66-2.85-5.2-5.47-10.63-9.45-14.7-4.07-.2-7.28-3.91-9.44-7.05-3.77-1.42-5.66-4.72-8.53-7.05-.47-4.82,1.61-8.09,2.44-11.64,1.38-1.16,2.96-2.12,4.87-2.76,2.35-.29,4.78-.51,5.79-2.14-1.24-2.14-5.68-1.94-8.53-1.53Zm20.11,0c-.45,1.38-.16,2.47.61,3.37,2.09.37,2.64-.82,3.05-2.14-.69-1.34-1.78-1.79-3.66-1.23Zm7.31,0c-.05.36.05.87-.3.92-.17,1.89,3.85,2.19,3.96.31.07-.58-.34-.68-.3-1.23-.62-.47-2.73-.47-3.35,0Zm137.39,0v2.14c.79.65,2.78,1.34,3.96.61-.23-2.08-1.57-3.75-3.96-2.76Zm19.8.92c.48,1.15,1.77,1.48,2.74,2.14,2.23-1.82-2.03-5.17-2.74-2.14Zm-195.27.61c.44.74,2.13,1.31,3.05.61.67-2.31-3.28-3.1-3.05-.61Zm24.07.31v1.84c1.22-.51,2.68-.78,2.74-2.45-.95-.8-1.9.36-2.74.61Zm133.74,1.84c.45.16.77.45,1.22.61.48-1.2-.79-.63-.91-1.23.38-.13.62-.39.61-.92-.95-.14-.97.65-.91,1.53Zm-71.89,1.23c.82,2.27,4.02.91,4.26-.92-.98-1.11-3.91-2.72-4.26.92Zm-58.8-.92c.04-.36.54-.69,0-.92-.04.36-.54.69,0,.92Zm51.79-.31c-.3,2.55,1.3,3.19,3.66,3.06,1.09-1.2.59-2.1,1.22-3.68-1.78.71-3.52-.45-4.88.61Zm52.7,1.23c-.21,1.34.88,1.36.91,2.45,1.3-.12,3.14.3,3.96-.31.87-4.4-3.35-4.6-4.87-2.14Zm57.27-1.53c-3.55.51-9.43,1.34-10.36,5.51.29,2.92-.05,3.38-.92,5.21.64,4.15,4.32,5.26,4.26,10.11,1.52,1.33,3.15,2.55,3.96,4.59-.02,2.23.37,4.86-1.22,5.51-7.21-.06-15.32-2.5-19.5,2.14-.77,2,.13,3.61.61,4.9,2.69-1.41,6.42-.7,10.05-.61,3.64,3.29,10.46,4.39,16.15,2.45.82-2.85.54-6.81,1.22-9.8-1.69-3.71-2.17-8.64-4.87-11.33-.66-2.81-1.97-4.96-2.74-7.66.54-1.5,1.11-2.97,1.83-4.29,1.55-.48,2.56-1.51,3.96-2.14,1.73.11,3.32.08,3.96-.92-.21-3.03-3.77-4.07-6.4-3.68Zm-49.05,2.76c.77.66,1.2,1.65,2.74,1.53.79-.53,1.54-1.1,1.52-2.45-.97-2.4-4.24-2.09-4.26.92Zm-89.87,1.23c1.24-.08,2.07-.58,3.05-.92v-1.84c-1.06-.26-1.62-1.02-3.05-.92-.27,1.17-1.21,2.76,0,3.68Zm64.59-2.14c.33,2.24,3.18,4.1,5.48,2.45.03-1.26.06-2.51-.31-3.37-2.03-.56-4.07-1.08-5.18.92Zm50.57,1.53c.76.35,1.02,1.22,2.13,1.23.48-.54,1.4-.64,1.52-1.53.24-3.07-4.58-3.95-3.66.31Zm-108.45-1.23c-.11,2.71,4.35,2.73,4.57.31-1-.12-.95-1.29-1.52-1.84-1.5.02-2.9.15-3.05,1.53Zm6.7,0c.68,1.6,5.14,2.44,5.18-.31-.63-1.53-4.99-1.95-5.18.31Zm-32.9,2.45v-3.06c-4.41-3.2-4.59,5.25,0,3.06Zm10.66-2.45c.66,1.68,1.97,2.72,4.27,2.76,1.03-1.62.04-2.85-.91-3.98-1.48.04-3.42-.38-3.35,1.23Zm52.09-.61c-.39,2.69,3.07,2.97,4.88,2.45.3-2.93-2.84-3.61-4.88-2.45Zm31.38,3.06c.86.32,2.85.59,3.65,0,.75-2.08-.66-2.21-1.22-3.68-2.87-.57-3.32,2.18-2.44,3.68Zm29.55-3.37c-1.18,1.06-.02,2.44.61,3.37,1.3-.12,3.14.3,3.96-.31v-2.14c-.68-1.04-3.64-1.13-4.57-.92Zm-82.25,2.45c.99,1.11,3.7,1.3,4.26-.31.05-2.21-5.08-3.56-4.26.31Zm29.85,0c.92.34,3.09.58,3.96,0,.47-2.72-1.93-2.55-4.26-2.45-.63.67.48,1.32.3,2.45Zm57.88-1.53c.89.45.89-1.37,0-.92v.92Zm-51.18,1.53c.37,1.46,3.23,1.57,4.26.61,1.08-3.57-4.61-3.58-4.26-.61Zm-74.03.31c.64,1.31,2.78,2.56,4.27,1.23-.15-1.39-.4-2.67-1.22-3.37-2.05-.33-3.2.25-3.05,2.14Zm-14.32-.31c.82.6,1.57,1.28,3.05,1.23.42-.4.3-1.33.3-2.14-.69-.95-3.69-.97-3.35.92Zm150.49.31c-.04,1.49,1.99,2.77,4.57,2.45-.22-1.14.52-1.31.3-2.45-1.41-1.92-4.79-2.88-4.88,0Zm26.2-1.53c.93.84-.83-.93,0,0h0Zm-182.79.61v1.23c.89-.08.94.69,1.83.61.26-.36.4-.82.3-1.53-.65-.24-1.7-.74-2.13-.31Zm146.84,2.14c.25,1.69.56,3.32,2.44,3.37.12-.39.39-.63.91-.61.41-2.56-1.53-3.32-3.35-2.76Zm-4.88,1.53c-13.27-.72-26.55.97-40.82-.31-.47.44-1.19.64-1.83.92-10.57-.49-21.42-1.1-32.29-.31-6.69.49-13.16,1.61-19.8,1.23-9.51-.55-19.16-1.05-28.94-.31-.95-.37-2.03-.61-3.05-.92-4.89.54-12,.31-18.28,0,.1,1.43,1.58,1.48,2.44,2.14,4.19-.44,6.82.92,10.97,1.23,6.79,2.57,14.03,4.68,18.58,9.5.21,2.33,2.46,3.19,3.05,5.21.59,2.05-.25,4.02,0,7.05,1.8,3.03.07,7.47.61,11.95.1.82.58,1.62.61,2.45.14,3.59-1.13,7.29-.91,10.72.05.8.52,1.69.61,2.45.83,6.75-.59,13.71,0,20.22.05.56.59,1.28.61,1.84.05,1.97-.66,3.92.3,5.82-1.81,4.19-.11,8.69,0,12.87.07,2.58-.72,4.89-.91,7.35-.29,3.7.66,7.23.91,11.03.11,1.59-.52,3.32-.3,4.9.16,1.19,1.08,2.38,1.22,3.68.31,2.93-.86,6.58-.61,10.11.08,1.15.62,2.29.61,3.37-.01,1.25-.56,2.44-.61,3.68-.07,1.96.57,3.98.3,5.82-.11.74-.58,1.47-.61,2.14-.16,3.38.34,6.88.61,9.5.32,3.16-.56,6.59,0,9.19-1.68,4.03-4.52,6.89-5.48,11.64-3.48,3.75-8.06,6.39-12.49,9.19-2.2.55-4.3,1.19-7.31.92-1.38.97-2.52,2.17-3.05,3.98,16.01-1.21,32.56-1.59,48.44-2.14,2.11,1.26,6.54,1.08,9.44.61,1.47.92,2.87.3,4.26.31,4.13.01,9.8,2.32,13.1,0,1.56,1.25,3.33.2,5.18.31.67.04,1.5.55,2.44.61.72.05,1.8-.43,2.44-.31.93.17,1.15.9,2.13.92.97.02,2.35-.04,3.05-.92-.55-1.01-2.05-1.15-3.05-1.53-2.4-.92-4.5-1.68-7.31-1.23-1.13-.39-2.07-.98-3.35-1.23-5.79.75-6.62-4.18-11.27-3.68-2.53-1.75-5.42-3.13-6.4-6.43-1.21-.52-2.33-1.13-2.74-2.45.12-1.11.39-2.05.61-3.06-.56-.77-1.83-.81-2.13-1.84.05-2.12-.15-6.52.91-8.58-2.39-5.14-1-11.62-.61-17.77-.23-1-.55-1.9-.91-2.76.91-2.04-.16-4.73,0-7.04.16-1.48,1.23-2.03,1.22-3.68-.15-1.49-.97-2.29-1.22-3.68,1.05-4.48-.38-8.96-.91-12.87,2.89-4.93-2.49-12.89,2.13-16.24,4.14.97,8.11.02,11.58.31,1.62.14,3.19.94,4.57.92,1.21-.01,2.03-.69,3.05-.61,8.66,2.18,19.75-1.88,27.72,2.14,1.21,1.44,2.68,2.62,4.57,3.37,2.15,2.22,2.61,6.16,4.57,8.58.18,1.55.77,2.69,1.22,3.98-1.29,1.83.31,3.14,0,4.59-2.76.9-6.36.96-10.05.92-2.63,1.13-4.68,2.85-7.01,4.29-.66,1.48-1.24,3.04-2.74,3.68.58,2.01-1,1.85-1.22,3.06.79,2.88,1.35,5.99,3.05,7.96,2.01.52,3.3,2.53,5.18,3.68,1.12.69,4.7,2.36,5.79,2.45,1.6.13,2.74-.9,3.66-.92,1.48-.04,2.71-.61,4.57-.61,3.7-2.1,6.82-4.78,11.27-6.13-.6-.58-.52-1.07-.3-1.84.5-.62,1.39-.85,1.52-1.84.95-3.44,2.49-6.28,2.44-10.72-1.99-4.23-4.52-7.92-6.7-11.95.09-1.54,1.47-1.79,1.52-3.37-.1-.81,1.71.29,1.22-.92-.19-1.34-.73-2.33-2.13-2.45-1.71.5-1.15,2.69-1.83,3.98-.69,1.32-1.7,1.67-2.44,2.76,1.57,3.12,3.25,6.13,3.35,10.72-1.25,2.22-.81,6.12-3.04,7.35-1.1.63-2.52.94-4.27.92-.49-.63-.99-1.25-1.22-2.14.44-2.72,3.44-2.88,5.18-4.29-.35-1.89-2.56-1.92-3.05-3.68.61-.82,3.19.35,3.35-.92-.32-1.41-2.91-.54-3.66-1.53-.39-1.54-1.31-3.97-.92-5.82.22-1.04,1.44-1.39,1.22-2.45-1.89-2.57-.72-6.92-2.13-9.5.02-4.35.92-7.38.61-12.25.35-1.13.8-1.97,1.22-3.06.34-.88,1.08-2.19,1.22-3.37.44-3.88-2.61-8.75.61-11.03,1.75.35,3.38,2.24,5.48,1.23.5-1.61-1.17-3.46-2.74-3.98-1.19.23-.82,2.03-2.44,1.84-1.56-.37-1.39-2.49-1.83-3.98-.74.58-1.28,1.37-2.74,1.23-1.31-.07-1.86-2.54-3.05-.92,1.7-.18,1.9,1.15,2.44,2.14-.04,1.29-1.18,1.47-1.22,2.76-.1,4.83-2.27,7.08-4.57,9.19-2.33,2.13-4.3,5.6-7.01,6.74-1.03-.49-2.42-.63-3.96-.61-1.07.04-1.36.88-2.44.92-5.3.75-10.52-.59-15.54-.31-1.21.07-2.31.55-3.35.61-1.84.11-3.28-.49-5.18-.61-4.82-.31-9.28.56-13.71,1.53-.54-.78-1.31-1.34-1.52-2.45,1.31-2.9-.22-6.53,0-9.8.07-.96.57-1.82.61-2.76.12-3.02-.51-5.94-.61-8.88,1.5-4.6-1.5-11.94,2.13-15.32-1.05-.07-1.33-.91-1.52-1.84-.29-3.92-.36-6.55-.91-9.8.97-5.5-.26-10.43.61-16.24,1.37-1.07.99-3.9,3.05-4.29.1-1.63.89-2.57,1.22-3.98,8.41-6.7,25.43-2.66,35.34-4.59,7.42,1.44,16.02,1.19,23.76.31,2.54,1.12,4.96,2.36,8.23,2.76,3.18,2.42,6.35,4.84,8.53,8.27,1.13,4.58,4.84,6.57,5.48,11.64.53,1,1.52,1.53,1.83,2.76,1.03.5.36,2.71,1.52,3.06,2.83-1.51-.73-4.75,0-7.96-.18-.64-.76-.87-.61-1.84-.24-1.36.41-1.84.31-3.06-2.34-4.69-1.91-12.17-4.57-16.54.07-2.42-.49-4.2-.92-6.13-.4-.31-1.13-.29-1.22-.92Zm11.58.31c-.53,1.23-.57,2.1,0,3.06,2.69-.6,3.48,2.13,5.79.92-.66-2.23-3.26-3.98-5.79-3.98Zm24.98,5.21c.24-.73-.63-1.89.3-3.06-3.68-2.18-2.6,2.54-3.66,4.59.38.95.67,1.98,1.83,2.14,1.07-.35,1.93-.92,1.83-2.45-.11-.4-.54-.48-.61-.92h.3v-.31Zm2.74-1.84c.87,1.19,2.1.48,3.66,1.23,1.04-2.19-.91-3.42-3.35-3.06,0,.72-.52.9-.3,1.84Zm-185.22.61c1.27.15.36,2.5,2.13,2.14.25-1.99-.73-2.74-1.83-3.37-.1.41-.43.59-.3,1.23Zm164.51,6.43c-1.93-2.04-3.45-4.5-7.31-4.6-1.05-1.86-6.31-2.53-5.79,1.23,1.5,1.35,2.45,3.26,5.79,2.76,1.51,1.75,4.02,2.49,4.57,5.21.42-.19.05-1.18.61-1.23,3.31,1.68,7.43,5.11,7.01,8.58.94-.99,2.29-1.58,2.74-3.06-1.83-3.67-3.3-7.71-7.62-8.88Zm23.76-3.68c.73.49,1.43,1.01,2.74.92.03-1.89-2.17-.45-2.44-2.45-.26.35-.4.82-.3,1.53Zm-182.18.61c.24.07.6,0,.61.31,1.35.14,1.66-.78,1.52-2.14-1.56-.24-2.52.12-2.13,1.84Zm5.18,1.23c.19,1.49,3.39,1.66,4.26.61.6-4.04-3.72-3.16-4.26-.61Zm173.34.92c.83.4,1.69.75,3.05.61,1.18-2.06-.12-3.33-2.13-3.68-.68,1.29-.83,1.57-.91,3.06Zm-166.64,1.84c1.04.51,3.39,1.13,4.27,0,.22-.94-.31-1.12-.3-1.84-1.81-.76-4.06-.71-3.96,1.84Zm106.62-1.53c.89.45.89-1.37,0-.92v.92Zm-120.03-.61c-.75-.04-1.47-.05-1.83.31v1.84c1.71,1.24,4.86,1.03,5.79,3.06h2.13c.13.99.58,1.66.61,2.76,1.01.5,2.33.31,3.05-.31-1.06-4.76-6.15-5.45-9.75-7.66Zm103.27,3.06c.84.93,2.74,1.79,3.96.61.25-2.09-1.23-2.43-2.13-3.37-.56.97-1.81,1.24-1.83,2.76Zm-28.63-2.14c-.31.51-1.29.33-1.83.61.8,1.55.67,4.02,1.52,5.51h1.52c1.37-1.74-.31-4.74-1.22-6.13Zm10.36,2.14c.43.89,1.28,1.36,2.74,1.23.89-.92.42-2.48-.3-3.37-1.56-.04-2.29.76-2.44,2.14Zm30.77,0c-.95.03-.87-.96-2.13-.61-2.11.16-1.86,1.92-2.74,3.06-1.51,1.97-3.86,2.73-5.48,4.29.32,1.55-.69,1.75-.61,3.06-1.07-.06-1,1.03-1.83,1.23-.06,2.85-1.5,3.95-.91,6.74-.81,1.29-1.18,5.09.91,5.21,1.91-.63,1.23-3.87,3.35-4.29-.54-2.59,1.68-2.39,1.22-4.9,1.28-.96,2.15-2.33,2.44-4.29,2.76-2.23,5.57-4.41,7.92-7.05,2.38-.06,3.24-1.64,4.26-3.06-1.51-2.92-4.48-.35-6.4.61Zm-17.67.61c.62.47,2.73.47,3.35,0,1.08-2.85-4.53-3.15-3.35,0Zm-19.8,0c.81.63,2.74,1.38,3.66.92.57-2.3-3.94-4.35-3.66-.92Zm12.49-.31c.88,1.04,2.68,2.14,4.57,1.23-.1-.71.05-1.18.3-1.53-1.03-1.48-4.25-1.67-4.88.31Zm56.66,1.53c.39.42,1.44.19,1.83.61.8-.54.72-2.14.31-3.06-1.84-.32-2.37.68-2.13,2.45Zm31.07,0c.96.15,1.08-.55,2.13-.31.14-1.57-.57-2.29-2.13-2.14-.6.6-.19,1.75,0,2.45Zm-168.16,0c.49.63,1.53.71,2.74.61.28-.68.68-2.04.3-2.45-1.36-.81-3.2.15-3.05,1.84Zm9.14-1.53c.06,1.05,1,.92,0,1.53.84.07.93.9,1.22,1.53.54.18,1.79-.37,1.83.31-.79.95-.01,2.28.31,3.06.88-.04,1.99.17,2.44-.31.35-2.4-1.24-2.84-2.44-3.68-.23-.94.84-.59.61-1.53-1.21-.31-2.51-1.83-3.96-.92Zm4.87,1.23c.04-.36.54-.69,0-.92-.04.36-.54.69,0,.92Zm100.84,1.53c.39.73.99,1.25,2.13,1.23.25-.66,1.15-.68,1.22-1.53.03-2.29-3.76-2.39-3.35.31Zm-29.55.61c-.39,1.89,1.89,2.36,2.74,1.23-.01-1.41-.33-2.53-1.22-3.06.11,1.23-1.76.47-1.52,1.84Zm8.53-1.23c-.5-.72-1.78-.66-3.05-.61-2.43,3.02,3.6,5,3.05.61Zm-88.04,2.45c-.11-1.42-1.04-2.02-2.13-2.45.08,1.45.73,2.33,2.13,2.45Zm114.85-1.84v1.53c.95.94,2.83.53,2.74-1.23-.31-1.34-1.88-.81-2.74-.31Zm-44.48,1.84c.34-.96.03-.69,0-1.84-.96-.36-1.34.19-2.44-.31.06,1.47.67,2.39,2.44,2.14Zm-17.06.31c.47-.47.54-2.1-.61-1.84-.74.54-.62,1.75.61,1.84Zm83.17.31c.97.65,2.77.87,3.66,0,.54-2.39-4.5-3.37-3.66,0Zm28.03,0c.95.51,1.97,1.41,3.05.92.59-2.56-3.47-4.59-3.05-.92Zm-192.53,1.23c.86-.32,1.27-.32,2.13,0,.4-.51.81-1.03.61-2.14-.86-.16-1.29-.74-2.13-.92-.66.52-1.41,2.03-.61,3.06Zm160.55-.31c1.31.32,1.85,1.41,1.52,3.37.94,1.02,3.24,1.35,3.05-.92-.24-1.08-1.78-.87-2.13-1.84.47-2.11-.78-2.48-1.52-3.37-.38.85-.89,1.56-.91,2.76Zm-57.27-.61c.71.1,1.17-.05,1.52-.31.18-1.21-.68-1.36-1.52-1.53-.27.9-.27.94,0,1.84Zm29.55,2.76c1.32.1,1.6-.84,1.83-1.84-.09-.72-1.06-.57-.91-1.53-3.29-.94-2.71,2.98-.91,3.37Zm5.18-1.23c.28,1.66,1.81,2.06,3.96,1.84.25-.77.84-1.2.91-2.14-.63-2.47-4.17-1.89-4.88.31Zm-133.43-1.23c.52.02.78-.24.91-.61-.48.03-1.06-.04-.91.61Zm123.38-.31c.35,1.21.35-1.21,0,0h0Zm-98.7,3.06c1.45-.01,2.62,1.34,3.66,0,.16-1.7-1.03-2.03-1.52-3.06-2.37-.64-2.28,1.18-2.13,3.06Zm77.68,4.6c-2.16-.99-3.72-2.59-4.87-4.6-9.16-3.39-22.14-4.61-27.42,3.06.97,2.81-2.43,5.55.31,7.35,1.88-1.51,1.61-3.67,3.66-4.9,2.83-1.7,6.54-.25,10.05.61.79,1.66,1.99,2.9,1.83,5.51-1.61,2.59-5.4,1.75-8.22,1.84-.38,4.26,2.04,5.71,3.35,8.27,1.9,1.15,4.61,1.5,6.09,3.06,6.8,1.13,13.04-1.11,19.5.31.99-8.86-.95-15.08-4.26-20.52Zm63.06-5.51c.72.09.57,1.06,1.52.92.42-.5,1.08-.75.91-1.84-.17-.85-1.18-.86-1.83-1.23-.4.51-.81,1.03-.61,2.14Zm-60.62-.31c.15,1.48,2.2,2.35,3.66,1.53.78-2.99-3.2-4.08-3.66-1.53Zm-103.88,0c.51,1.23,1.03,2.43,2.13,3.06.42-.6.29-1.75.61-2.45-.54-.56-1.76-1.45-2.74-.61Zm-10.66,2.14c.69,1.35,2.53,3.24,3.96,1.23.19-1.93-.55-2.92-2.13-3.06-.74.48-1.35,1.1-1.83,1.84Zm111.19-1.53c-.1.71.05,1.18.3,1.53.75.04,1.47.05,1.83-.31v-1.23c-.41-.44-1.73-.44-2.13,0Zm20.41,2.14c.61.71.91,1.74,2.44,1.53,2.46-1.85-2.66-5.44-2.44-1.53Zm66.11-1.53c-.17,1.5.4,2.26,1.52,2.45.8-.42,1.32-1.12,1.22-2.45-.72-.23-2.11-.6-2.74,0Zm-46.91,1.53c.24,2.13,2.62,3.53,4.57,2.14.65-3.16-3.77-4.88-4.57-2.14Zm-144.1,1.53c.76,1.44,3.2,1.55,4.27.31.25-1.58-.69-1.96-.92-3.06-2.14-.11-3.34.72-3.35,2.76Zm131.61-1.53c.59,1.16.45,1.16,0,2.45,1.4,1.71,4.64.86,4.27-1.84-.31-.61-1.35-.48-1.22-1.53-1.72.08-1.68.28-3.05.92Zm-106.02,3.06c1.13-.82,2.57.56,3.66-.31-.04-1.5-.68-2.38-1.22-3.37-2.51-.51-3.17,1.87-2.44,3.68Zm6.4-1.53c.2,1.73,2.69,2.12,4.27,1.53.07-.24,0-.6.3-.61.45-2.81-4.04-3.23-4.57-.92Zm75.86-.92c-.15,1.09,1.89,1.75,2.13.61-.28-.68-1.34-1.37-2.13-.61Zm30.77,3.68c.92.41,2.43.41,3.35,0-.54-1.9-1.97-2.92-3.35-3.98-.85,1.16.27,2.45,0,3.98Zm-130.69-3.68c-.27-.27-.87.26-.91.31-.97.97,1.38.16.91-.31Zm113.02,1.84c-.22,2.65,1.19,3.2,3.35,2.76,0-1.34.18-2.84-.61-3.37-1.13-.02-1.93.31-2.74.61Zm-125.21,4.29c1.17-1.06.09-3.56-1.83-3.37-.76,1.4.2,3.38,1.83,3.37Zm130.39-1.53c.07,2.29,2.18,2.29,3.96,1.53.93-3.36-3.34-3.9-3.96-1.53Zm65.8-1.23c-.07,1.19.32,1.92,1.22,2.14,1.09.07,1.59-.44,1.52-1.53-.08-1.02-1.99-1.22-2.74-.61Zm-191.92,0c-.34,1.09-1.31,1.54-.91,3.37-.86.26-1.37.87-1.22,2.14.64.58,1.45.99,2.44,1.23.33-1.24.33-2.13,0-3.37.68-.33,1.53-.51,2.13-.92-.06-1.57-.88-2.39-2.44-2.45Zm30.16,3.37c.64.6,2.02.23,2.74,0,.05-1.99-.4-3.48-2.74-3.06.14,1.16-.79,2.18,0,3.06Zm115.15,0c.93.99,2.97,1.84,4.57,1.23,1.59-4.39-3.7-4.11-4.57-1.23Zm-109.97.61c1.3.66,2.84.1,2.74-1.53-.91-2.15-3.84-.87-2.74,1.53Zm98.09-1.53c-.69,3.02,3.24,2.49,3.05.31-.66-.92-2.11-1.21-3.05-.31Zm9.75-.31c-.34.03-.47-.45-.61,0,0,.31.53.39.61,0Zm1.52,3.68c-.99-.84-1.35-2.32-2.44-3.06-.28.53-.95.68-1.83.61-.2,1.63.24,2.62.91,3.37h2.74c.72,1.57,1.87,3.84,4.27,2.76.05-.36-.05-.87.3-.92-.62-1.62-1.94-2.54-3.96-2.76Zm-62.45-.61c0-.61.83-.39.61-1.23-.23-.79-.97-1.06-2.13-.92-.59,1.14.13,2.15,1.52,2.14Zm36.56,0c1.08.7,3.22.3,3.05-1.23-.51-1.67-3.77-1.05-3.05,1.23Zm-42.96.92c.59.43,1.87.17,1.52,1.53,2.04-.14.95-2.54.61-3.68-1.66-.25-2.38.47-2.13,2.14Zm117.29-.31h.61v-.61h-.61v.61Zm-157.19,2.45c.18-1.2-.26-1.78-.61-2.45-5.04-.91-1.75,5.78.61,2.45Zm117.29,32.78c.22-4.07,2.31-6.25,2.44-10.41-.67-2.9-1.77-5.37-1.83-8.88-1.16-.98-1.6-2.68-2.74-3.68.22-.94-.53-.9-.31-1.84-1.6-.85-2.38-2.51-3.35-3.98-4.14-2.76-9.84-5.59-16.15-6.13-8.65-.74-15.53,3.33-18.58,9.8-.06,1.66,1.14,2.74.31,4.29,1.22,1.73,2.07,3.84,3.05,5.82,2.77,3.13,6.67,5.14,12.19,5.51,1.39.37,1.2-.84,2.44-.61,2.39,1.56,8.69.54,8.83-3.06-1.95-.8-4.29-1.2-5.79-2.45-2.18-7.45,4.3-4.21,7.62-2.45,2.17,1.15,3.85,2.53,5.48,2.76.3,1.13,1.33,1.52,1.83,2.45.4,1.17.42,2.44.91,3.98.33,1.04,1.39,2.37,1.52,3.37.45,3.37-.67,6.86-3.05,8.58-.44-.45-1.99-.45-2.44,0,1.04,1.3,2.2,2.49,2.13,4.9,1.12.34,1.88,1.5,3.05.92.52-.5.76-1.28.61-2.45-.69-.84-2.27-.78-2.13-2.45,2.38-.27,2.38-2.92,3.96-3.98Zm10.05-32.16c.24.07.6,0,.61.31,1.31-.3,2.15-.59,3.05-.61-.86-.79-1.42-1.79-3.35-2.14-.18.73-.44,1.4-.3,2.45Zm28.03-.31c.58,1.05,1.51,1.75,3.35,1.53.25-1.17-.43-3.78-2.74-3.37-.24.57-.51,1.12-.61,1.84Zm-197.41.92c.95-.06,2.24.21,2.74-.31.65-2.59-3.73-2.46-2.74.31Zm157.8,1.53c1.09.55,2.37.1,3.35-.31.42-1.75-.7-1.95-.91-3.06-2.55-.63-3.26,1.55-2.44,3.37Zm16.45-2.14c.81.79,2.62,2.18,3.66.92.62-2.49-3.35-2.86-3.66-.92Zm16.15.31c.93,4.47-.24,7.07,0,11.03-2.24,2.65-2.68,7.11-3.35,11.33.66-.06.97.25.91.92,6.37-1.15,4.76-10.33,7.31-15.32-1.09-2.39-.57-6.19-.91-8.58-.89-1.11-3.72-.75-3.96.61Zm-186.44,1.23c1.17.36.82,2.24,2.74,1.84,1.06-.6,1.17-2.78.3-3.68-1.95-.33-2.57.69-3.05,1.84Zm179.13,2.45c1.76-1.2.54-3.96-1.52-3.98-2.34.69-1.7,4.69,1.52,3.98Zm-3.96,2.45c.16-.45.45-.77.61-1.23-.76-.86-1.44-1.82-2.44-2.45-.09.42-.76.25-1.22.31-1.41-.93-2.61-2.07-4.27-2.76-.21,1.59-.5,1.9-.61,3.06.74.68,1.73,1.12,3.35.92,1.63.7,1.44,3.25,4.27,2.76l.15.15.15-.15c-.09.5.29.53.3.92.8.09,1-.42.92-1.23h-.92v-.31h-.3Zm-98.1-2.76c.92-.63.65-2.35,0-3.06-3.89-.96-2.87,3.5,0,3.06Zm-41.43,1.84c.68,1.04,2.01.81,3.35.31,1.61-2.85-4.02-4.05-3.35-.31Zm159.94.61c.23-.72.6-2.12,0-2.76-2.14-.33-2.51,3.2,0,2.76Zm-199.23,0c1.25,1.29,4.18.9,6.09,1.53.1-.72.48-1.15.3-2.14-1.77-.77-3.59-1.5-6.09-1.53.25,1.06-.45,1.18-.3,2.14Zm157.8,0c.44,1.93,3.08,3.06,4.88,1.84.59-3.02-4.15-4.68-4.88-1.84Zm7.31,2.76c1.04.69,1.73,1.73,3.66,1.53.17-.44.48-.75.92-.92-.01-1.31-.33-2.33-.92-3.06-1.34.13-2.35-.08-3.04-.61.38,1.61-.63,1.82-.61,3.06Zm6.7-.92c-.01.93.64,1.19.91,1.84,1.48.05,2.44-.4,3.66-.61.49-3.59-3.73-3.51-4.57-1.23Zm-92.61-.92c-.42,2.36,1.45,2.42,3.05,2.76,1.39-2.22-1.54-4.3-3.05-2.76Zm102.66.31c.06.96-.21,2.25.31,2.76,1.97-.27,4.48.01,4.26-2.45-.3-.41-.82-.6-.91-1.23-1.67-.15-2.83.21-3.66.92Zm-141.05,2.45c.2,1.13,1.04,1.61,2.13,1.84,1.77-1.49-1.43-4.76-2.13-1.84Zm155.98,2.76c2.01.66,3.53-.83,2.74-3.06-2.5-1.94-4.9,1.18-2.74,3.06Zm-192.84-2.14c-.28,1.5,1.28,1.17,1.22,2.45-1.39.23-1.46,1.8-1.83,3.06,1.08,1.62,4.7,1.05,4.26-1.53-.24-1.08-1.78-.87-2.13-1.84.26-.86.98-1.26.91-2.45-.42-1.03-2.46-1.35-2.44.31Zm87.74,1.84c-3.13.4-3.62-1.87-5.48-2.76-.71-.1-1.17.05-1.52.31-.07,1.3.89,1.56,1.22,2.45.98.07,1.29-.54,2.44-.31.5,1.89,1.8,3.74,4.26,2.76.31-1.44-.5-1.74-.91-2.45Zm69.46-1.53c-.16,1.28.17,2.08.61,2.76h2.13c1.84-1.95-.82-4.63-2.74-2.76Zm12.19.61c.49,2.08,2.14,4.21,4.87,3.06.18-.73.44-1.4.31-2.45-1.59-2.16-3.5.99-5.18-.61Zm12.49,3.37c.62-1.14-.11-1.92-.3-3.06-1.77.18-2.94-.93-4.26-.31-.53,1.47,1.43,2.01.61,2.76,0-.17-.25-.35-.3,0,.8.87,3.37.75,4.27.61Zm-108.15-2.14c.68,1.43,1.82,3.45,3.96,2.45.34-2.34-2.07-3.34-3.96-2.45Zm89.87,3.37c.66.57,2.23.21,3.35.31.3-.72.54-1.5.61-2.45-1.28-2.17-5.91-1.27-3.96,2.14Zm-46.3,6.74c-.42-1.22-1.42-1.84-1.22-3.68-1.58-1.27-3.05-2.65-4.26-4.29-3.92-1.33-6.77-1.37-11.27-1.23-2.1,1.66-6.09,1.43-7.92,3.37-.22,2.84-1.77,4.34-3.05,6.13.6,1.54-.49,3.27-.31,4.9.15,1.3,1.06,2.21,1.52,3.37.49,1.23-.03,3.02,1.52,3.06.92-1.22,1.67-2.61,3.35-3.06,1.79.65,5.07-.2,5.48,1.84.33,2.48-.53,3.76-1.22,5.21,2.42,1.29,6.51-.55,9.44.31,4.34-1.36,6.14-5.26,8.53-8.58-.97-1.68-.51-4.8-.61-7.35Zm74.64-8.27c.52.02.78-.24.91-.61-.48.03-1.06-.04-.91.61Zm-112.41,1.53c.28,1.18,1.43,1.96,2.74,1.23.45-2.13-1.83-2.12-2.74-1.23Zm112.11,1.23c.36.15.69.33.91.61,1.29-.03,1.92-.72,1.83-2.14-1.33-.96-2.62.3-2.74,1.53Zm-33.51.92c.54.9,2.58,1.38,3.35.31.29-2.23-1.01-2.87-3.05-2.76.22,1.14-.52,1.31-.3,2.45Zm-162.07,1.84c.24.07.6,0,.61.31,1.69.17,2.14-.91,2.13-2.45-1.41-2.38-3.72-.22-2.74,2.14Zm185.53-3.37c-.24.07-.6,0-.61.31.24-.07.6,0,.61-.31Zm-12.19.92c-.17.44-.47.75-.91.92-.33,4.72.96,7.82,2.44,10.72,3.7,1.59,6.27,4.32,9.44,6.43,3.37-.18,7.6.49,10.05-.61,1.65.35,2.23,3.18,4.57,1.84.77-1.23-1.01-2.14-1.22-3.37.68-.13.12-1.51.3-2.14-.68-.75-1.12-1.74-.91-3.37-1.74-.9-1.04-4.26-3.35-4.6-1.62.31-.93,2.94-2.74,3.06-3.88-.09-7.04-.89-7.62-4.29.07-1.56,1.68-1.58,1.22-3.68-3.57-1.17-7.15-.48-11.27-.92Zm-85.6,2.45c.72.62,2.12.89,2.74,0,0-1.78-3.15-2.74-2.74,0Zm-8.23,0c.07.44.5.52.61.92.86.25.79-.43,1.52-.31.51-2.07-2.02-2.32-2.13-.61Zm-74.33,1.23c.32,1.69,3.81,2.29,3.96,0-.32-1.69-3.81-2.29-3.96,0Zm35.34.31v1.84c.49.63,1.53.71,2.74.61.09-1.12-.05-1.99-.3-2.76-1.07-.59-1.36.14-2.44.31Zm43.56,2.14c.7.9,2.6,1.28,3.66.92.75-1.46-.23-2.76-1.22-3.37-1.37.26-2.16,1.1-2.44,2.45Zm61.84-.92c.1.71-.05,1.18-.3,1.53,1.36,1.26,2.74.97,4.27,0v-2.45c-1.8-.18-2.91.35-3.96.92Zm51.18,1.53c.85.82,2.41.63,3.66.31.18-.99-.21-1.43-.3-2.14-1.33-1.37-4.8-.45-3.35,1.84Zm-33.21,0c.83.39,1.49.96,2.44,1.23.45-.67.92-1.32.91-2.45-.91-1.1-4.66-.89-3.35,1.23Zm-162.37,1.53c.13-.58.66-.77.61-1.53-.39-.02-.42-.39-.92-.31-.42.39-.53,1.83.3,1.84Zm77.07,1.23c1.03,1.19,2.66,1.7,4.57,1.23,1.17.79,3.53,2.52,5.18.92v-1.84c-1.15-1.64-2.74-.45-4.27-.92-1.53-.47-2.71-2.66-5.18-1.84.23,1.15-.37,1.46-.3,2.45Zm-31.99-.92c1.04.23,1.19-1.17.3-1.23-.1.41-.43.58-.3,1.23Zm77.99,1.23c1.53.21,2.01-.64,1.83-2.14-1.71-.39-2.06.58-1.83,2.14Zm14.93-.92c-.55,3.18,3.04,3.57,4.57,2.14.12-1.55-.72-2.13-1.22-3.06-1.6-.18-2.23.62-3.35.92Zm27.42-.61c-.1,1.22-.02,2.26.61,2.76,1.21.1,2.25.02,2.74-.61v-1.84c-.62-.56-2.47-.97-3.35-.31Zm-164.81.61c.04.78.44,1.19,1.22,1.23-.07-.58.34-.68.3-1.23-.4-.39-1.12-.39-1.52,0Zm5.48,1.53c.58,1.02,2.69,1.19,3.96.61v-1.84c-1.86-.52-3.38-.28-3.96,1.23Zm144.7-1.53c-1.14.59-2.74.71-3.65,1.53-.05,1.28-.11,2.56.61,3.06,2.02.2,3.1-.56,3.96-1.53-.1-1.23.16-2.81-.92-3.06Zm-108.45,3.68c-.52-1.52-1.37-2.71-3.35-2.76-1.26,2.02,1.43,3.93,3.35,2.76Zm117.9.31c1.24-.02,1.44,1,3.05.61.94-.64.68-2.65,0-3.37-2.57-.51-4.17.42-3.05,2.76Zm-125.82,1.84c.88-.04,1.99.17,2.44-.31.17-1.19-.78-1.26-.91-2.14h-1.83c.04.88-.17,2.01.3,2.45Zm90.17,0c.54.28.94.69,1.22,1.23.96.15.69-.94,1.83-.61-.05-1.78-.94-2.73-2.44-3.06-.3.72-.53,1.5-.61,2.45Zm-113.33.61c.91.86,4.44,1.84,3.96-.92-.9-.62-1.59-1.46-2.74-1.84-.46.86-1.44,1.2-1.22,2.76Zm156.28-1.53c.31,1.65,2.59,2.75,3.96,1.53.01-1.13-.47-1.78-.91-2.45-1.77-.21-2.38-.38-3.05.92Zm-162.98,0c-.57.8-.43,2.92.3,3.37,1.12.1,1.69-.34,2.44-.61-.18-1.66-.87-2.8-2.74-2.76Zm73.42,2.76c2.48.26,3.24,2.26,5.18,3.06.45-.57,1.57-.46,1.52-1.53-.36-2.85-7.54-6.46-6.7-1.53Zm-78.29-2.14c.35,1.21.35-1.21,0,0h0Zm145.92,2.76c.44.47,1.56.27,2.44.31.62-1.26-.19-2.57-1.22-3.06-1.4.05-1.52,1.87-1.22,2.76Zm-59.71-1.84c-.31,2.51,1.77,3.73,3.96,2.76.99-2.13-2-4.5-3.96-2.76Zm73.72,3.37c1.77-.09,1.76-2.27.92-3.37-3.23-1.21-3.04,3.41-.92,3.37Zm4.27-1.53c.52,1.01,2.23,2.11,3.66,1.23.25-2.46-3.13-3.81-3.66-1.23Zm-125.51,1.84c.7.83,1.97,1.08,3.35,1.23,1.59-1.26.38-2.89-.3-4.29-2.42-.39-3.29.78-3.05,3.06Zm37.47-2.45c-.34.03-.47-.44-.61,0,0,.31.53.39.61,0Zm-40.21,2.76c.05-2.95-4.55-3.2-4.26.31.55.88,2.4.45,3.35.92.3-.41.5-.92.91-1.23Zm138.92-2.45c-2.56,1.82-5.43,3.32-8.23,4.9-1.03-.08-2.47.24-3.05-.31-.62,1.72-2.31,2.38-3.66,3.37-5.53.15-7.47,3.92-13.4,3.68-1.64,2.33-5.26,2.14-7.92,2.76-.5,1.79-.64,2.36.3,3.68,4.28-.13,7.87-1.38,11.58-1.23,2.72-2.57,8.94-1.63,10.97-4.9,2.64-1.12,5.42-2.1,8.22-3.06,1.95-3.45,7.2-3.59,8.23-7.96-.19-1.13-1.71-.93-3.05-.92Zm-74.94,3.06c.53-.28,1.06-.57.91-1.53-.4-.62-1-1.04-1.83-1.23-.79,1.12-.66,2.58.91,2.76Zm-90.78-.61c.62.5.84,1.4,1.83,1.53.98-.23,1.59-.85,1.83-1.84-.47-1.14-3.83-2.19-3.66.31Zm-9.14,2.45c1.01-.21,2.08-.36,2.44-1.23-.42-3.13-5.32-.73-2.44,1.23Zm90.48-.61c.55.77,1.19,1.46,2.44,1.53.67-.45,1.43-.81,1.22-2.14-.65-1.59-3.68-1.61-3.66.61Zm48.74-.61c1.06,2.96.18,4.65.91,7.35,1.35.34,1.51-.52,2.44-.61.19-2.52-.74-3.75.91-5.51-.28-1.93-2.97-2.87-4.26-1.23Zm19.5,1.53c.55.47,2.49.47,3.05,0,.42-2.86-3.67-3.35-3.05,0Zm21.93-1.23c.17,1.26,1.02,1.83,2.44,1.84,2.24-2.02-1.48-4.5-2.44-1.84Zm-23.15.31c.22-.23.76-1.5-.3-1.23.05.46-.11,1.13.3,1.23Zm-40.52,0c.34-.44.33-.75-.3-.92-.16.25-.32.5-.31.92l.15.15.15.15h-.31c-1.21,1.67.35,2.54-.61,3.98,1.02,0,1.04-1,2.13-.92,2.24.41,2.34-1.33,3.66-1.84.34.99,1.68.97,3.05.92.01-.93-.64-1.19-.91-1.84-2.94.63-3.47.07-6.4-.31v-.31h-.3Zm27.72,1.23c2.22-.5,1.28,2.19,3.05,2.14,1.37-.16,2.1-.95,1.83-2.76-.71-.71-1.97-.87-2.74-1.53-.65,1.25-1.43,1.57-2.13,2.14Zm-136.17.92c-.11-1.18-2.15-3.89-4.27-2.14-.3,1.42.39,1.85.61,2.76,1.76.24,3.03-.6,3.66-.61Zm69.46,0c1.03.7,1.77,1.7,3.66,1.53.48-1.68-.59-4.26-3.05-3.98-.05.97-.69,1.35-.61,2.45Zm5.79,0c.83.85,2.53,1.59,3.96.92,1.59-3.32-4.04-4.71-3.96-.92Zm106.32-1.84c-.22.94.31,1.12.3,1.84.72.23,2.11.6,2.74,0-.22-.7-.27-1.57-.61-2.14-.88.04-2-.17-2.44.31Zm-160.85,2.45c.42-.39.42-1.45,0-1.84h-.91c-.16,1.08.26,1.58.91,1.84Zm16.45.61c.49-.64.68-2.96-.91-2.45-.11,1.23,0,2.24.91,2.45Zm49.66-.31c.69,1.02,2.53,2.24,4.27,1.23v-1.84c-1.18-.98-3.99-1.4-4.27.61Zm-63.06,0c1.27,1.28,3.76,2.46,4.26,0-.43-1.82-3.66-1.36-4.26,0Zm8.53,2.14h1.52c.75-.54.72-1.85.3-2.76h-2.44c-.1,1.22-.02,2.26.61,2.76Zm70.07-.31c.58.13.77.66,1.52.61,3.24-1.85-1.59-4.87-1.52-.61Zm-7.62.31c.66.78,2.54,1.42,3.35.31.2-1.32-.53-1.72-.91-2.45-1.76-.24-2.75.3-2.44,2.14Zm-104.19-.92c.66.26,1.04.79,2.13.61v-1.53c-1.2-.19-1.58.45-2.13.92Zm178.83,1.84c.95.67,2.75.89,3.66,0-.34-.96-.03-.69,0-1.84-1.59-1.26-4.97-1.43-3.66,1.84Zm17.06-1.53c.61,1.22,1.22,2.45,3.05,2.45.33-2.03-2.18-4.48-3.05-2.45Zm-114.54.31h.61v-.61h-.61v.61Zm42.65-.61c-.24.07-.6,0-.61.31.24-.07.6,0,.61-.31Zm-7.01,2.76c.63.09.61.82.91,1.23,1.33,0,2.82.18,3.35-.61-.09-2.9-3.76-3.52-4.27-.61Zm-92-1.84c-1.21,2.28,1.58,4.13,3.65,3.06.25-2.49-1.31-3.18-3.65-3.06Zm152.32.92c-1.15-1.09-4.66-1.62-4.27,1.23.87.97,1.96,1.7,3.66,1.84.55.47-.06,2.1,1.22,1.84.26.44,1.76-.46,1.83-1.23-.51-1.53-2.19-1.88-2.44-3.68Zm-93.22,1.53c1.11,1.06,3.96,1.35,4.27-.61-.1-.41-.43-.58-.3-1.23-2.07-.64-3.78-.21-3.96,1.84Zm7.92,0c.92,1.6,2.43,2.59,4.57,1.53,1.07-3.8-4.39-5.02-4.57-1.53Zm-11.58,1.23c1.25-.17,1.71-1.14,1.52-2.76-2.46-1.73-3.84,2.13-1.52,2.76Zm18.89-1.84c.02,2.04,2.47,2.71,3.96,1.53-.46-2.35-2.43-3.34-3.96-1.53Zm-62.76,1.84c1.43-2.87-3.52-3.84-3.35-.61,2.51.13,1.56,3.74,4.57,3.37.4-1.73-1.21-1.44-1.22-2.76Zm151.41-2.45c.35,1.21.35-1.21,0,0h0Zm-168.16,2.45c.41.3.61.82.91,1.23,1.4-.92,1.06.71,2.44.61.78-.03.49-1.14.91-1.53-.81-.82-1.7-1.56-3.05-1.84-.52.39-1.2.63-1.22,1.53Zm93.83,1.84c.6-.72,1.64-1,1.22-2.76-.58-.54-2.01-.22-3.05-.31-.57,1.61.78,2.26,1.83,3.06Zm54.83-.31c1.11,0,1.34-.9,1.22-2.14-1.57-2.07-3.88,1.79-1.22,2.14Zm-128.25.92c1.04-.08,2.47.24,3.05-.31.05-5.25-7-2.7-3.05.31Zm69.15-2.76c-.95-.37-1.93-.71-3.35-.61-.57,2.88,3.44,3.79,3.35.61Zm-79.82,2.14c.44.47,1.56.27,2.44.31.04-1.47-1.02-1.84-2.44-1.84v1.53Zm-13.1,0c.48-.03,1.06.04.91-.61h-.61c0,.31-.25.36-.3.61Zm154.15,2.45c1.07.66,2.33,1.13,3.96,1.23.17-.44.47-.75.91-.92.61-4.26-4.91-3.5-4.88-.31Zm-7.62-1.23c.04,1.29,1.18,1.47,1.22,2.76,1.34.13,2.35-.08,3.04-.61.96-2.74-2.75-4.24-4.26-2.14Zm-1.22,2.14c.08-.7-.07-1.15-.61-1.23-.08.7.07,1.15.61,1.23Zm-129.78-.61c-3.52,1.47-9.39-.71-13.1.92-5.6-1.03-10.85-1.17-18.28-1.23-1.07.66-.89,2.58-.91,4.29,2.27,1.99,5.94,1.08,9.14,1.22,2.93.13,5.94.63,8.53.31,1.02-.13,1.83-.58,2.74-.61,1.45-.05,2.99.59,4.57.61,1.38.02,2.66-.38,3.96-.31,5.35.29,10.98,1.84,16.15,0,.69-1.89-.74-4.11-2.13-4.9-4,.38-7.06,1.13-10.66-.31Zm128.56,1.23c-.74,1.03,1.02-.74,0,0h0Zm-154.45,8.27c.54.27.77.86,1.83.61,2.1-2.21-2.02-4.11-1.83-.61Zm7.31.31c1.45-.33,1.24,1,1.22,2.14,1.11.2,1.62-.21,2.13-.61.3-2.79-2.49-3.97-3.35-1.53Zm6.4-.61c-.18,2.94,2.08,3.42,3.66,4.6-.1-1.53,1.02-1.83.61-3.68-1.44-.78-2.27-1.3-4.26-.92Zm7.31,3.06c.56.36,1.03.8,1.52,1.23.72,0,.9-.53,1.83-.31,3.23-3.53-4.69-6.85-3.35-.92Zm7.01,3.06c1.15.89,2.33,1.74,4.57,1.53.57,1.36.84,3.03,3.05,2.76.94-2.18-1.26-3.27-3.35-3.37-.14-1.39-1.24-1.82-1.22-3.37.03-.79,1.3-.32.91-1.53-.08-.94-.66-1.38-.91-2.15-4.63-1.26-3.35,2.69-3.05,6.13Zm123.68-3.98c.75.17,1.61.39,2.74,0v-2.15c-1.68-.98-3.97.19-2.74,2.15Zm5.79,0c.98.44,1.08,1.78,2.44,1.84.61,0,.39-.83,1.22-.61.28-1.71-1.25-1.6-.91-3.37-1.4-.37-2.71.32-2.74,2.15Zm-59.1-.61c-.43,1.76.2,2.68,2.13,2.76.92-1.61-.15-3.93-2.13-2.76Zm66.72,1.84c.52,1.11,1.98,1.28,3.05,1.84,1.23-1.65.93-3.89-1.52-3.98-.64.58-1.61.84-1.52,2.15ZM26.2,199.81c1.88-1.37,3.1-3.42,6.4-3.37,4.55-3.49,11.89-4.18,15.54-8.58.54-.27.77-.85,1.83-.61.36-1.28.65-2.61,2.13-2.76-.7-1.77.61-3.5,1.22-4.9.54-2.83,1.15-5.58,2.13-7.96,0-2.25-.14-4.63,1.22-5.51-.83-1.38-.28-2.29,0-3.98-2.03-4.18-2.64-9.8-5.48-13.17-.05-.97-.69-1.35-.61-2.45-.88-.86-2.1-1.36-2.74-2.45-3.81-8.22-10.7-13.34-17.97-18.07-1.26.08-1.19-.4-2.13,0-2.7-3-7.36-4.04-10.97-6.13-1.79.05-2.74-.04-3.65.31.25.86-.43.79-.31,1.53,4.61,4.66,13.18,5.33,16.76,11.03,3.25.4,5.11,2.21,6.09,4.9,2.3,1.06,4.86,1.85,4.87,5.21-1.28.74-3.46.1-4.87,0-2.02,1.85-3.84,3.9-5.48,6.13-.2,8.6-1.4,15.89,2.13,22.06-.1,1.23.54,1.7.3,3.06,1.48,2.19,2.45,4.89,5.18,5.82.17-3.6,1.98-5.57,3.05-8.27,4.56-2.01,6.3,2.27,4.57,6.13-.36.8-1.09,2.35-1.52,3.06-1.92,3.17-7.65,5.65-8.83,7.35-2.53.52-3.9,2.21-6.7,2.45-1.33,1.63-2.95,2.96-4.87,3.98-.11,1.83-1.7,3.89-1.83,6.13-.05.77.51,1.92.61,2.76.14,1.21-.88,3.39,1.22,3.06.94-2.22,2.19-4.13,2.74-6.74Zm29.55-78.42c.41-.39.47-1.5-.3-1.53-.42.39-.47,1.5.3,1.53Zm39.91,2.14c.63-.18.98-.64,1.52-.92-.27-1.57-2.5-2.79-3.96-2.14.5,1.33.65,3.02,2.44,3.06Zm3.96-.92c.69.53,1.7.74,3.05.61.07-.24,0-.6.3-.61.22-2.18-4.08-3.2-3.35,0Zm-.3,23.89c1.25,1.3,2.82,2.27,4.57,3.06.42,2.03,2.55,2.34,3.66,3.68,2.83-.07,6.5,1.04,10.05.61,3.35-.41,5.82-2.23,7.62-3.98.04-.76.05-1.48-.3-1.84,2.74-1.94,3.43-5.94,5.18-8.88.28-1.2-1-3.21-.92-5.21-2.1-1.36-3.65-3.27-4.57-5.82-3.16-.81-4.91-3.02-8.22-3.68-.83-1.21-1.33-2.75-3.35-2.76-.42-.01-.67.14-.91.31-.04,1.88,2.67.99,2.44,3.06-.32,1.47-2.75.83-3.96.61-.51-.81-.6-2.05-1.52-2.45-1.45-.13-2.59.05-3.05.92,1.06,2.3,3.92,2.79,4.57,5.51-.36,3.52-2.95,4.79-7.31,4.29-1.19-.84-2.33-1.74-3.96-2.14-3.16,3.33-.2,10.06,0,14.7Zm24.68-23.28c.84.89,1.77,1.69,3.66,1.53.23-.72.6-2.12,0-2.76-1.36-.82-3.42-.07-3.66,1.23Zm7.92,2.45c1.63.37,2.2.08,3.35-.61.2-4.1-6.12-3.36-3.35.61Zm-99.62-.92c.94-.03.87.96,2.13.61.06-.34.34-.48.61-.61.66-2.46-3.68-3.19-2.74,0Zm157.19-1.23c.04,1.18.68,1.76,1.52,2.14,1.35-.17,1.62-1.43,1.52-3.06-1.39-.07-2.13.51-3.05.92Zm-32.9.31c.04-.36.54-.69,0-.92-.04.36-.54.69,0,.92Zm25.29,1.53c-.06,1.56.97,1.87,2.74,2.14,3.29-3.19-2.61-5.6-2.74-2.14Zm-138.31,1.23c.93.25,2.31,1.13,3.35.31.67-2.84-4.15-4.09-3.35-.31Zm-6.7,1.23c1.42.57,2.15.68,3.35.31-.24-1.06.45-1.18.3-2.15-1.59-1.69-4.01-1.38-3.66,1.84Zm99.31.31c.57,1.7,3.02,1.81,4.27.61.97-3.88-4.8-4.56-4.27-.61Zm15.84-.92c-.3,1.91,2.43,2.37,3.35,1.23.22-2.53-2.71-3.53-3.35-1.23Zm-57.27,1.23c.07-.44.5-.52.61-.92-.62-.4-.55-1.48-1.83-1.23-.7.86-.17,2.44,1.22,2.14Zm93.22-1.84c-.71.87-.2,2.46.3,3.06,1.35.03,2.7.06,2.74-1.23-.1-1.75-1.67-2.19-3.05-1.84Zm22.24.61h.61c.47-.75-1.04-.9-.91-.31.19.02.36.05.31.31Zm-111.5,1.23c.94,1.35,3.68,2.36,5.79,1.53.43-2.88-5.04-4.48-5.79-1.53Zm31.99-1.53c-4.56-.91-2.22,4.76.92,3.98,1.15-1.68.18-2.98-.92-3.98Zm63.67,1.84c.66.67,1.46,1.18,2.74,1.23,1.45-1.9-2.02-4.63-2.74-1.23Zm16.45,0c.83.91.14,1.94.61,2.76.17-1.26,1.76-1.09,2.44-1.84-.11-1.32-.71-2.14-2.13-2.14-.13.59-.11,1.32-.91,1.23Zm-163.29.61c.65,1.28,1.98,1.89,3.66,2.14,2.72-2.47-3.16-5.7-3.66-2.14Zm-33.51-.92c.25,1.18.35,2.5,1.83,2.45.67-.45,1.43-.81,1.22-2.14-.6-.5-2.22-.99-3.05-.31Zm26.81.61c-.27,1.49.42,2.03.61,3.06,1.27.05,2.54.11,3.05-.61.37-2.87-1.98-4.06-3.66-2.45Zm168.47,1.23c-2.52-.71-8.52-2.68-9.44,1.23,1.67,1.51,2.98,1.23,5.48.61,1.51.53,2.91,1.15,4.26.31.18-.99-.21-1.42-.3-2.14Zm-48.13-.92c-.51,1.01-1.19,2.45-.61,3.68,1.28-.16,1.7.53,2.74.61.44-.48.41-1.43.91-1.84-.61-1.22-1.22-2.45-3.05-2.45Zm-102.36,1.53c-.56-.36-.21-1.62-1.52-1.23-.29,1.03.98,2.05,1.52,1.23Zm-38.99.61c.67.04.65.77.61,1.53,1.71.09,3.42.18,3.05-1.84-1.17-.81-2.96-1.24-3.66.31Zm120.03-.92c-1.01.92-.66,3.32.91,3.37,1.29-.13,1.8-1.05,2.13-2.14-.51-.83-1.68-2.22-3.05-1.23Zm-4.57,3.68c1.4-.62,1.28-2.42.3-3.37h-1.22c-.25,1.21-.82,3.39.91,3.37Zm31.68,0c1.92.86,4.19.1,4.26-1.84-1.1-1.62-5.24-1.34-4.26,1.84Zm27.72-.31c.21,1.14,2.23,1.67,3.35.92-.1-2.74-3.03-4.74-3.35-.92Zm-141.35.31c.77.66,1.32,1.53,3.05,1.23.8-.54.72-2.14.3-3.06-1.65-.83-3.45-.02-3.35,1.84Zm-7.62.61c.78.57,2.42,1.47,3.66.61-.19-1.03-1.08-1.36-1.22-2.45-.75.04-1.47.05-1.83-.31-.4.51-.81,1.03-.61,2.14Zm127.34,1.23c.78,1,3.87.91,3.96-.61.2-2.59-4.61-1.76-3.96.61Zm29.85,0c.94.47.94-2,0-1.53v1.53Zm1.52-.92v1.23c1.12-.23,1.69.75,2.44,0v-1.23c-.97-.47-1.34-.11-2.44,0Zm-40.52,4.29c1.38.25,2.18,1.08,3.66,1.23-.02-1.41.14-3-.3-3.98-1.78-.35-2.81-1.46-4.87-1.53.22,1.72,1.2,2.68,1.52,4.29Zm-23.15-1.84c1.1.9,3.46,1.32,3.66-.61-.46-1.91-3.95-2.14-3.66.61Zm-120.03-1.53c-.36.92-.74,1.83-.3,2.76h2.44c.96-1.9.59-3.56-2.13-2.76Zm38.38,1.23c.1-.41.43-.58.3-1.23h-.91c-.08.7.07,1.15.61,1.23Zm149.27.61c1.28-.7,1.98.53,3.35.61.27-.54.85-.78.61-1.84-1.1-1.06-3.95-.63-3.96,1.23Zm-160.85-.92c-.26,1.81.17-1.23,0,0h0Zm46.91,2.14c.07-.24,0-.6.3-.61-.42-.8-.77-1.68-1.83-1.84-.75,1.05-.2,2.91,1.52,2.45Zm38.08-2.14c-.31,1.63.52,2.13.91,3.06,1.13-.29,2.14-.71,2.13-2.14-.58-1.39-1.34-1.06-3.05-.92Zm-83.78,2.14c.96-.15.69.94,1.83.61.79-1.17,0-2.95-1.52-2.76-.42.39-.3,1.33-.3,2.14Zm121.25,0c.52,1.32,1.14,2.53,2.74,2.76,3.5-2.17-1.65-7.37-2.74-2.76Zm8.23,1.84c1.21-.11,2.92.28,3.66-.31.07-.24,0-.6.31-.61.46-3.99-5.89-2.36-3.96.92Zm-124.9-1.84c.15,1.48.72,2.55,2.44,2.45.87-.35,1.13-1.31,1.22-2.45-.89-1.13-2.8-1.13-3.66,0Zm-22.85,1.84c1.01,1,1.88.28,3.35.61.48-2.43-1.18-2.7-2.74-3.06-.09.93-.94,1.09-.61,2.45Zm183.09,4.6c.66-3.06-3.36-3.67-5.48-5.21-4.01-1.36-8.61-.21-12.18-.31-2.04,1.73-4.7,2.83-7.62,3.68-1.14,2.59-4.65,3.62-4.57,6.74.08,3.3,4.3,4.59,7.92,3.68,1.36-1.8,2.48-3.84,4.27-5.21,3.14-2.22,9.37-2.14,13.4-.61,1.58-1.23,3.86-.87,4.27-2.76Zm-199.24-2.45c.58-.07.67.35,1.22.31.44-.48.64-1.19.91-1.84-.59-.43-1.22-.81-2.13-.92-.79.58-.38,1.51,0,2.45Zm5.79.31c.42.8,1.12,1.33,2.44,1.23.27-.75.71-1.33.61-2.45-1-1.05-3.23-.66-3.05,1.23Zm145.62-.31c-.08,1.1.91,1.12.91,2.14,1.18.06,2.25.01,3.05-.31.51-2.55-2.9-3.61-3.96-1.84Zm11.27,1.84c.49.94,1.34,1.51,2.44,1.84.54-.68,1.2-1.24.91-2.76-1.01-1.07-3.52-1.46-3.35.92Zm-122.47,1.23c.39.73.99,1.25,2.13,1.23.6-.64.23-2.03,0-2.76-1.35-.14-2.27.17-2.13,1.53Zm-28.33,1.23c1.22.1,1.36-.88,1.22-2.14h-1.22c-.42.89-.76,1.52,0,2.14Zm146.23,1.23c.87.67,3.13,1.39,3.96.31.12-1.55-.72-2.13-1.22-3.06-2.29-.47-2.91.75-2.74,2.76Zm-158.72-.61v1.84h1.83c1.42-1.56-.3-3.8-1.83-1.84Zm80.73,2.14c1.85.25,2.53-1.35,1.83-2.76-2.2-.6-3.17,1.63-1.83,2.76Zm71.9-.61c.21,1.14,2.23,1.67,3.35.92.92-3.64-3.3-3.79-3.35-.92Zm-145.92,6.74c.74.17.65,1.19,1.83.92,1.29-1.05.23-2.97-.3-3.98.8-.42,1.05-1.4,2.13-1.53,1.06.36.77,2.08,2.13,2.14,1.35-2.6-2.41-4.49-4.26-5.82h-2.13c-1.31,3.04,1.81,4.73.61,8.27Zm180.04-5.21c1.27,3.93,1.99,8.41,3.35,12.25-1.01,2.24.38,4.42,0,7.35-.17,1.3-.95,1.99-1.22,3.06-.77,3.03-.03,5.19,2.74,5.21,3.75-4.5,2.96-13.51,2.74-19.91-1.85-3.08-2.38-6.79-4.26-9.19-1.75-.23-2.9.14-3.35,1.23Zm9.44.92c-.02,1.25,1.13,1.32,2.44,1.23,1.65-2.13-1.33-3.14-2.44-1.23Zm-33.2.92c.42,1.34,1.67,2.69,3.35,1.84.02-2.06-.33-3.75-2.74-3.37.23.94-.84.59-.61,1.53Zm-82.86,1.23c1.29.13,1.42,1.43,1.83,2.45-.08-1.01.48-1.83.91-3.06-.61-.61-1.2-1.24-2.44-1.23-.35.36-.34,1.08-.3,1.84Zm70.68.61c-.3,2.81,1.07,3.58,3.35,3.06.57-.55.7-1.55.91-2.45-1.23-.73-1.01-2.28-1.83-2.76-.08,1.45-1.85,1.21-2.44,2.14Zm6.09-1.53c-.67,2.7,2.64,2.96,3.96,1.84,0-2.02-2.78-2.82-3.96-1.84Zm-154.15,3.37c.66-1.2.05-2.33-.3-3.37-3.41-.58-2.04,3.76.3,3.37Zm193.75-2.14h.91v-.61h-.91v.61Zm-102.06,2.45c-2.45-2.92-9.1-3.34-10.36.92,1.04,4.53-1.92,9.04,1.22,11.95,2.35-.19,3.07-2.02,6.09-1.53,1.39.95,1.93,2.76,2.44,4.6-.93,3.25-3.03,5.33-7.31,5.21-1.31-.73-3.32-2.96-5.18-1.23.89,6.43,7.94,8.9,16.15,8.27,4.13-1.97,6.55-5.67,9.75-8.58.11-2.03.8-3.49,1.22-5.21-.81-1.94-.4-5.12-.91-7.35-1.18-1.88-2.48-3.47-2.44-5.82-3.51-.46-7.09-.83-10.66-1.23Zm86.82-1.84c-.64,1.22,1.3,3.63,3.04,2.45.06-1.78-1.3-3.48-3.04-2.45Zm12.49.61c.39.02.42.39.91.31.02-.53-.23-.79-.61-.92,0,.31-.25.37-.3.61Zm2.44,1.84c.49.52,1.28.76,2.44.61.15-1.17-.09-1.96-.61-2.45-1.27-.05-1.88.56-1.83,1.84Zm-14.93,34.92c-1.81.34-2.88,1.22-4.88.61-1.69,1.46-4,1.61-6.7,2.45-1.79.56-3.43,1.89-5.18,2.14-8.06,1.16-15.77-1.06-23.15-1.23-2.28-1.18-4.89-2.03-6.4-3.98-4.41-.16-5.04-4.12-8.53-5.21-.83-1.52-2.13-2.56-2.44-4.59-3.29-2.01-4.36-6.23-6.7-9.19.47-.52-.11-1.11.3-2.14-1.88-.56-2.63-2.26-3.66-3.68.49-3.68-2.01-4.61-.91-7.35-1.04-1.2-1.61-2.88-3.05-3.68h-.91c-1.98,7.28,4.61,11.03,4.57,18.38,3.31,2.39,3.95,7.46,7.31,9.8-.33,1.14.76.87.61,1.84,2.31,1.66,4.21,3.73,5.79,6.13,2.01.43,2.62,2.27,5.18,2.14,2.24,3.37,7.92,3.27,11.27,5.51,1.87.16,4.61-.55,4.88,1.23-1.16,1.98-3.33.37-4.88.31-1.99-.08-3.1.59-4.26.61-1.41.02-3.37-.87-5.48-1.23-1.49-.25-3.09.03-4.27-.31-.9-.26-1.6-1-2.44-1.23-3.42-.91-7.1-1.33-9.75-1.84-.36-.07-.85-.02-1.22,0-4.59.2-10.27,3.08-10.97,7.35,1.92,1.44,5.58,1.13,7.62,2.45,5.52-3.62,13.22-3.47,19.8-1.53,5.16-.07,9.89,1.2,14.62.31,4.32-.81,8.13-3.26,11.88-4.29,5.1,1.01,7.61-1.1,12.79-1.23,1.7-1.16,3.59-2.11,6.09-2.45.38-.64.89-1.15,1.52-1.53,2.45-.3,3.18-2.31,5.48-2.76,2.64,2.61-1.34,5.54-.92,8.88-.68.64-1.12,1.53-1.52,2.45.59,1.45.83,3.25.91,5.21,1.48,1.37,2.98,2.72,4.27,4.29,1.65.28,3.01.85,4.88.92,2.21.28,3.37-.49,3.05-2.76-1.48-.35-2.83-.83-3.96-1.53-2.55-2.67-2.05-9.29,0-12.25-.98-3.83,2.68-5.76,2.74-8.58.04-1.49-.85-2.05-1.22-3.37-.31-1.1.34-2.37-.61-3.37-2.97-1.52-4.97-3.62-8.53-3.98-6.77-.69-15.47,2.63-22.24,1.84-3.08-1.74-8.52-2.61-7.31-7.66-2,.51-3.26-2.75-1.83-3.68,1.58-.36.55,1.9,1.52,2.15.83.68,2.44.19,3.05-.31.14-2.7-2.93-2.16-3.35-4.29,1.19-1.46,2.32-2.97,3.96-3.98,3.65-.62,5.69,1.94,8.23.61-2.85-2.82-7.75-3.55-13.4-2.76-4.49,2.78-7.77,8.49-6.09,15.62,2.66,2.84,4.61,6.39,7.31,9.19,1.18-.06,2.24-.01,3.05.31,5.68,5.34,18.19,3.49,27.42,3.37.65.57,1.82.62,1.83,1.84-1.08,2.07-3.26-.14-5.18,0Zm-18.89-32.78c.58.44.87,1.16,1.83,1.23,1.16-.36,2.02-1.03,1.83-2.76-.36-.46-.77-.87-1.22-1.23-1.39.34-2.53.93-2.44,2.76Zm6.7-1.84c-.43,2.05,2.05,2.75,3.05,1.53.25-.87-.43-.79-.3-1.53-.49-.46-2.25-.46-2.74,0Zm-10.66,2.15h1.22c.43-.41.43-1.74,0-2.15-1.48-.38-1.95,1.26-1.22,2.15Zm17.67.92c.66.69,1.04-.25,2.13,0-.15-.97.55-1.08.31-2.14-1.47-1.02-2.51.63-2.44,2.14Zm-28.03.92c.99.18,1.42-.21,2.13-.31.05-1.98-1.33-2.54-3.05-2.76-.39.69.44,2.27.91,3.06Zm32.9-1.23c.13,1.4.66,2.4,2.13,2.45.45-.16.77-.45,1.22-.61.49-2.83-2.03-3.11-3.35-1.84Zm-181.57,1.23c.34,1.5,2.06,2.53,3.65,1.84.77-1.15.12-3.06-.61-3.68-1.8-.18-2.93.32-3.04,1.84Zm7.31.61c.96-.05,1.02.81,2.13.61.58-.75,1.24-1.62.61-2.76-1.83-.52-3.13-.27-2.74,2.14Zm190.1-.61c.91,1.19,2.95,1,2.74-1.23-.68-.24-1.19-.64-2.13-.61-.42.39-.19,1.45-.61,1.84Zm-29.55,2.76c1.14.89,2.19,1.89,4.26,1.84v-3.37c-1.42-1.21-3.86-.09-4.26,1.53Zm-24.98.31c-.15,1.18.58,2.62,2.44,2.76.83-.6,1.66-1.19,1.83-2.45-.94-2.33-3.95-2.78-4.27-.31Zm35.95,1.84c.66-.89.25-2.75-.3-3.37-.76-.26-1.63-.4-2.74-.31-.7,2.11.72,3.7,3.05,3.68Zm-173.65-1.84c-.14,1.37,1.37,1.07,2.13,1.53.39-1.58-1.14-2.3-2.13-1.53Zm177.3.31c-.54,2.47,1.95,2.87,3.66,2.14-.18-.73-.44-1.4-.3-2.45-.95-.41-2.8-.54-3.35.31Zm-172.43,1.23c.61.51,2.33,1.1,2.44-.31-1.73.62-.78-1.46-2.13-1.23-.26.36-.4.82-.3,1.53Zm108.45,3.06c3.22.6,3.2-4.57-.31-3.68-1.04,1.07-.13,2.45.31,3.68Zm-117.59-3.37c-.78,1.01.04,2.45,0,3.68,1.19.18,1.77-.26,2.44-.61.05-1.89-.54-3.13-2.44-3.06Zm199.54,2.76c.66-.26,1.08-.76.91-1.84-.55-.47-.93-1.1-2.13-.92-.78,1.09-.03,2.75,1.22,2.76Zm-62.76-.92c-.2,2.04.54,3.13,2.13,3.37,2.43-1.36.34-5.27-2.13-3.37Zm24.98,3.06c.24-.68.64-1.19.61-2.14-1.19-.33-2.23-.82-3.96-.61-.32,2.35,1.84,3.21,3.35,2.76Zm17.06-.61c.43.08.35.67.61.92,1.19.18,1.77-.26,2.44-.61-.16-.86-.45-1.59-.61-2.45-1.68-.16-2.55.5-2.44,2.14Zm-54.83,1.53h3.35c.58-1.85-1.67-2-.61-3.37-.92.41-2.43.41-3.35,0,.23,1.04-.06,2.19.61,3.37Zm6.09-2.14v1.84c.79.33,1.49.75,2.74.61.17-.75,1.18-.65.91-1.84-.58-1.38-2.42-1.29-3.65-.61Zm-122.77-.31c-.13.69-1.62,0-1.83.61.07.58-.34.68-.3,1.23,2.18,1.59,4.99,2.54,8.53,2.76.43-2.58-1.05-3.24-2.74-3.68-.88.14-.95,1.08-2.13.92-1.18.07-.39-1.85-1.52-1.84Zm167.86,3.98c.76-.99-.22-2.27-.3-3.37-1.54-.27-1.8-.18-3.05.31-.04.88.17,2.01-.3,2.45,1.08.34,1.53,1.32,3.35.92l.15.15.15-.15c-.03.44-.05.87.3.92-.06-.26.12-.29.3-.31.05-.36-.07-.54-.3-.61v-.31h-.3Zm-10.36,1.23c1.24-.25,1.05-.05,2.44,0,.79-.84,1.3-1.96,1.22-3.68-2.54-2.05-5.05,1.8-3.66,3.68Zm-84.69-3.68c-.03,1.16.6,1.65,1.52,1.84.07-.24.26-.36.61-.31.29-1.68-.98-2.14-2.13-1.53Zm-35.95.61v.92h1.52c.34-1.24-.94-1.52-1.52-.92Zm140.44,2.15c.64.6,2.02.23,2.74,0,.18-1.2-.26-1.78-.61-2.45-1.93-.34-2.74,1.14-2.13,2.45Zm14.62-.31c.59-.59-.32-1.23-.3-2.14h-1.83c-.24,1.67.47,2.39,2.13,2.14Zm-80.12-.61c.1.72.48,1.15.3,2.14.8.29,2.61.59,3.35,0,.71-2.74-2.25-3.34-3.66-2.14Zm18.58,1.84c-1.08-.14-1.07-1.37-2.44-1.23-1.02.51-2.15.91-2.44,2.14,1.42,1.77,4.21,1.14,6.09.31.87,1.2,4.47,1.43,4.57-.61-1.07-2.14-4.4-3.48-5.79-.61Zm-10.97,1.23c.27,1.69,3.15,2.9,4.57,1.53.02-2.48-1.43-3.46-3.35-3.98-.02,1.21-1.24,1.2-1.22,2.45Zm49.35,1.53c1.22-.2,2.65-.19,3.66-.61.31-2.46-.93-3.35-3.05-3.37-.5,1.02-.11,2.96-.61,3.98Zm-17.97-3.06c.13,1.19.23,2.42.61,3.37,1.88.16,2.8-.66,3.05-2.15-.27-.54-.74-.89-.92-1.53-.95.06-2.24-.21-2.74.31Zm24.98,3.37c2.68.57,2.28-2.09,1.22-3.06-2.3-.44-1.99,2.04-1.22,3.06Zm-177-.31c.58,1.05,1.51,1.75,3.35,1.53.43,1.92,1.5,3.19,4.26,2.76.05-1.28.11-2.56-.61-3.06-1.18-.06-2.25-.01-3.05.31.27-1.7-.67-2.19-1.22-3.06-1.31-.36-3.22-.68-2.74,1.53Zm165.12.61c.52-.02.78.24.91.61.91.07,1.03-1.13,1.83-.31,1.91-2.64-3.63-3.7-2.74-.31Zm-7.31-1.53c-.21,1.23.29,1.75.3,2.76,1.3-.01,2.31-.33,3.04-.92-.09-1.83-1.62-2.49-3.35-1.84Zm34.42,3.06c.15-2.27.5-3.53-2.13-3.37-.17,2.01.08,3.6,2.13,3.37Zm-182.78-1.23h1.22c.26-.36.4-.82.3-1.53-1.06-.04-1.77.26-1.52,1.53Zm107.23,0c.81,2.25,3.18,2.93,3.35,5.82.92.79,2.43,1.81,3.66.61.16-2.72-2.06-3.03-3.35-4.29-.31-1.32-.25-3.02-1.52-3.37-.44-.52-2.16.26-2.13,1.23Zm-12.18,3.37c2.92-2.81-2.05-5.5-3.35-2.15.93.9,1.02,2.65,3.05,2.45l.15.15.15-.15c.05,1.8-.04,2.75.3,3.68,1.5,1.09,3.82.65,3.66-2.14-.91-.82-1.75-1.71-3.66-1.53v-.31h-.3Zm25.29-2.15c.61.71.91,1.74,2.44,1.53.68-.55,1.11-1.34.91-2.76-1.56-.8-3.2-.79-3.35,1.23Zm5.48,0c1.01.1,1.35.89,2.74.61.12-1.55-1.01-1.85-1.83-2.45-.52.39-.83,1.01-.91,1.84Zm-9.75,3.98c.8.3,2.61.59,3.35,0,.5-2.96-1.37-3.53-3.35-3.98-.79,1.11-.62,2.79,0,3.98Zm-128.86-1.84c-.67-1.56-3.78-1.78-3.35.92,2.18,1.28,5.36,1.55,8.23,2.14.55-1.05-.04-1.47,0-2.76-1.3-.37-2.45-.49-4.88-.31Zm38.39.92c.27.95,1.12,1.33,2.13,1.53.46-.66,1.32-.92,1.22-2.15-.87-.85-3.16-.87-3.35.61Zm-24.68,2.45c3.01.78,5.05-1.28,3.35-3.37-2.63-.45-4.28,1.2-3.35,3.37Zm88.04,0c.6.93,1.22,1.84,3.05,1.53.71-.51.66-1.79.61-3.06-1.61-1.32-3.54-.88-3.66,1.53Zm91.7-.61h1.22c.25-.36.4-.82.3-1.53-.36-.35-1.08-.35-1.83-.31-.04.76-.04,1.48.31,1.84Zm-51.49,2.45c.93.89,2.15,1.56,3.35.61.44-2.61-3.88-4.76-3.35-.61Zm-134.35-1.23v1.84c1.07.54,1.64,1.11,3.05.61.61-.79,1.09-2.04.61-3.06-1.23-.85-2.79.13-3.66.61Zm127.34-.31c.12,1.98,1.91,3.71,3.96,2.76.07-.24,0-.6.3-.61-.22-1.95-2.49-3.61-4.26-2.14Zm-56.97,1.84c.75.04,1.47.05,1.83-.31.21-1.54-.63-2.02-2.13-1.84,0,.81-.11,1.75.3,2.14Zm-40.82,1.23c.8.92,2.3,1.17,3.05,0,.19-2.88-3.44-3.1-3.05,0Zm61.23,1.84c3,.18,2.94-5.72-1.52-3.98-.61,2.15-.03,3.89,1.52,3.98Zm30.46-2.45c.59,1.14,1.3,2.16,3.35,1.84.17-.75,1.18-.65.91-1.84-.02-1.91-4.6-2.98-4.26,0Zm-131.91.92c.73.67,1.86,1.26,3.05.61-.06-1.88-.75-3.13-2.74-3.06-.47.44-.27,1.57-.3,2.45Zm119.42.31c-1.39-2.77-4.73-.87-3.96,2.76-.78.75-2.21.84-2.13,2.45.41,1.05,2.04,1.34,3.05.92.26-2.8,3.31-2.8,3.04-6.13Zm-39.6-.31c.36.05.33.48.3.92.9-.11,1.5-.53,1.83-1.23-.24-.07-.35-.26-.3-.61-.76.15-1.25.58-1.83.92Zm12.19-.61c-.13.89-.64,1.4-1.52,1.53-.81-.78-4.38-1.88-4.57.31,1.35,3.13,7.36,2.81,9.75.92-.18-1.96-1.34-2.94-3.66-2.76Zm107.54,3.06c.1-1.94-1.27-2.4-2.74-2.76.03,1.81.73,2.94,2.74,2.76Zm-92.61-2.14c.18,2.39-.45,4.26,0,7.04,1.58.61,3.06,1.27,4.27,0-.48-3.21-1.45-4.11-.3-7.04-1.66-.91-2.6.51-3.96,0Zm-27.11,1.23c0-.31-.53-.39-.61,0,.06.37.34.19.61,0Zm-73.72,2.45c1.89.17,3.5.05,3.05-2.14-1.46-.83-3.87-.31-3.05,2.14Zm131.61-.92c.81.65,1.62,1.76,3.05.92.83-2.95-2.91-3.05-3.05-.92Zm5.48-.92c-.53,2.91,2.46,3.46,4.57,2.76.1-2.51-2.53-4.28-4.57-2.76Zm-60.93,2.76c1.64.22,1.6-1.25,1.52-2.76-1.53-.18-2.22,1.67-1.52,2.76Zm18.28-.61c.12,1.21,1.24,1.41,1.83,2.14.92-.4,1.88-.76,2.13-1.84-.1-.92-.47-1.57-1.22-1.84-.53-.31-2.23.81-2.74,1.53Zm-63.67,1.53c1.55.2,3.54.44,3.96-1.23v-.61c-1.17-2.02-5.66-1.28-3.96,1.84Zm111.8-1.53c1.05.57,1.29,1.97,3.35,1.53.35-.67.79-1.25.61-2.45-1.22-1.15-3.66-.61-3.96.92Zm-148.97-.92v1.53c1.04.18,1.6.84,2.74.92.42-.39.3-1.33.3-2.14-.6-.5-2.22-.99-3.05-.31Zm81.03,1.23c-.05-.46.11-1.13-.3-1.23-.39.41-.4,1.14.3,1.23Zm75.86,1.23c.86.43,1.75.81,2.74.31-.24-1.06.45-1.18.31-2.14-2-.16-3.06-.45-3.05,1.84Zm6.4.61c.51.41,1.02.81,2.13.61.31-.4.3-1.13.61-1.53-.65-.47-1.36-.88-2.13-1.23-.34.58-.39,1.45-.61,2.14Zm-75.55,1.23c-.96.15-1.08-.55-2.13-.31.12.74-.56.67-.3,1.53,1.77-.29,4.62-.82,5.18.92.22,1.14-.52,1.31-.3,2.45,1.07.25,1.41,1.23,2.74,1.23,1.37-1.72.07-3.78.91-6.74-1.84-2.98-4.41-.44-6.09.92Zm8.53.61c1.67.86,3.72-.27,3.66-2.15-1.49-2.14-4.46.33-3.66,2.15Zm24.68-1.23c1.22,0,1.83.61,3.05.61.45-.45.45-2.01,0-2.45-1.81-.19-2.43.83-3.05,1.84Zm76.77-1.23c-.04.96.78,1.05,1.52,1.23.42-.39.42-1.45,0-1.84-.76-.05-.94.48-1.52.61Zm-163.59,3.06c.09-2.13-1.03-3.05-3.05-3.06-1.37,2.13,1.04,4.33,3.05,3.06Zm-10.36,0c-.07,1.62,2.5,2.03,3.35.92.6-2.84-3.03-3.02-3.35-.92Zm77.68,0c0,.81-.12,1.75.3,2.14,1.4-.08,1.47-.33,2.74,0,.44-.48.64-1.19.92-1.84-.81-1.05-2.82-1.14-3.96-.31Zm-66.41.92c.38,1.46,1.59,2.08,3.66,1.84-.24-.99-.42-2.03-.91-2.76-1.12.1-2.09.35-2.74.92Zm-36.56,1.23c1.9,1.42.2,4.59,1.83,6.13,1.91.19,3.23-.22,3.05-2.15-2.44-.58-1.22-3.03-1.83-5.21-1.27-.64-2.98-.24-3.05,1.23Zm133.13,0c.31,0,.36.25.61.31-.03-.48.04-1.06-.61-.92v.61Zm65.8,2.45c.74.72,3.12,1.09,3.05-.61-.31-1.01-1.61-1.03-2.74-1.23.22.94-.53.9-.3,1.84Zm-166.33.61c1.34.22,1.58-.66,1.83-1.53-.68-.44-1.47-.77-2.74-.61-.05,1.34,1.94.62.91,2.14Zm65.5-.61c.31,1.52,1.68,1.99,3.35,2.14,2.07-2.84-2.83-5.47-3.35-2.14Zm79.51,1.53c.67.77,1.93,2.19,3.35,1.23-.42-1.48-.56-1.54-.3-3.37-1.65.08-3.01.44-3.05,2.14Zm-159.02,2.45c.52-.5,1.53-.5,1.83-1.23-.22-3.4-4.75-.11-1.83,1.23Zm155.98-2.45c-3.02-.4-2.71,3.26-1.22,4.29.75-.47,2.36-.08,3.05-.61.61-1.75-1.02-2.49-1.83-3.68Zm20.41.31v1.53c.58.13.77.66,1.52.61.52-.39,1.2-.63,1.22-1.53-.24-.07-.35-.26-.3-.61-.44-.45-1.99-.45-2.44,0Zm-169.68,1.23c1-.12,1.97-.27,2.13-1.23h-2.13v1.23Zm139.83,1.84c.67.45,1.31.93,2.44.92.86-.57,1.65-1.2,1.52-2.76-1.27-1.41-4.72-1.29-3.96,1.84Zm-7.01-.61c-.29,1.93.45,2.82.92,3.98,2.99,1.57,1.94-4,4.26-3.06,0-1.32-1.62-1.03-1.22-2.76-1.74.19-2.75,1.11-3.96,1.84Zm-150.19-1.23c-.24.07-.6,0-.61.31.24-.07.6,0,.61-.31Zm-2.13,3.98h1.52v-1.84c-.72-.39-.57.04-1.52-.31-.43.41-.43,1.73,0,2.14Zm171.82-.31c1.01.31,1.72.92,3.05.92.35-.36.34-1.08.3-1.84-.91-.54-3.56-.64-3.35.92Zm-51.48-.61c-.13,1.05.12,1.72.3,2.45.96.34,1.29.09,2.44.61.89-1.19-.11-2.6-.61-3.37-.99-.18-1.42.21-2.13.31Zm72.5,1.53c-.23-.99-.5-1.94-1.83-1.84-1.08,1.19.65,2.93,1.83,1.84Zm-46.61,1.53c1.62.81,4.25.27,3.66-2.14-1.37-1.38-3.93-.02-3.66,2.14Zm-136.17,1.23c.05-.36-.05-.87.3-.92.86.57,2.33-.37,3.05-.92.15-.96-.43-1.2-.61-1.84-2.81-.6-4,2.9-2.74,3.68Zm5.48-3.37c-.24.07-.6,0-.61.31.24-.07.6,0,.61-.31Zm125.82,3.98c.86-.57,1.65-1.2,1.52-2.76-3.18-3.84-5.46,2.66-1.52,2.76Zm-15.54-1.53c.01,1.42.87,1.99,2.44,1.84.74-.58,1.39-1.26,1.22-2.76-1.28-.96-3.26-.6-3.66.92Zm6.09.61c.83.96,2,1.59,3.66.92-.13-1.05.12-1.72.3-2.45-1.5-1.35-3.66-.12-3.96,1.53Zm32.6,2.14c.53-1.93-.28-3.08-1.22-4.29-4.26-.25-1.78,4.88,1.22,4.29Zm4.57-.92c1.11.2,1.62-.21,2.13-.61.41-3.88-3.82-2.94-2.13.61Zm-53.01-2.45c-.22,1.96.8,2.67,2.74,2.45.42-.4.3-1.33.3-2.15-.75-.35-2.18-1.02-3.05-.31Zm41.43,0c-.27-.24-.87.19-.91.31-.43,1.16,1.52.22.91-.31Zm-44.78,1.84c-.14-.58.41-1.85-.61-1.53-.04.76-.06,1.49.61,1.53Zm-44.78,0h.61v-.61h-.61v.61Zm-60.93,1.84c1.2,1.49,4.46,2.4,7.01,1.53.56-3.19-6.63-4.96-7.01-1.53Zm113.94,0c.98-.14,1.77-.47,1.52-1.84h-1.52v1.84Zm-93.53,1.23c1.07.87,2.73.58,4.27,0-.26-3.01-4.3-3.6-4.27,0Zm72.2-.92c-.71-.61-1.94-.71-3.35-.61-.18.64-.76.87-.61,1.84.1.72.94.69,1.22,1.23,3.02.49,3.93-2.77,4.57-4.29h-1.52c-.12.93.8,1.56-.3,1.84Zm-64.58-.61c-.25,2.87,3.54,3.04,4.26.92.15-.96-.93-.69-.61-1.84-1.57-.05-3.19-.15-3.65.92Zm7.92-.31c-.16,1.28.17,2.08.61,2.76,1.15.24,1.46-.37,2.44-.31.54-1.87-.9-1.75-.91-3.06-.69.22-1.56.27-2.13.61Zm-22.85,1.23c.91.81,2.49.83,3.66.61.35-1.27-.64-1.19-.61-2.14-1.66-.14-3.13-.08-3.05,1.53Zm38.38-1.53c-.89,1.81.44,3.23,2.44,3.06.17-.75,1.18-.65.91-1.84-.44-1.09-1.88-1.17-3.35-1.23Zm33.82,2.76c-.2-1.74-1.52-2.35-3.05-2.76-2,2.31,1.3,5.09,3.05,2.76Zm17.97-.92c1.71-.22.8.29.92,1.53,1.53-.21,2.12.52,3.66.31.25-2.29-1.08-2.99-2.44-3.68-.21,1.12-2.17.47-2.13,1.84Zm63.06,0c.77.55,1.38,1.27,2.74,1.23.15-.36.32-.69.61-.92.24-2.27-3.57-3.11-3.35-.31Zm-172.12,0c.76.36,1.79.44,2.74.61.52-2.51-2.66-2.69-2.74-.61Zm49.05.31c.42,1.13,2.87,1.66,3.66.61.31-2.54-3.53-3.36-3.66-.61Zm16.45,0c.38,1.43,2.25,1.4,3.35.61.18-.99-.21-1.42-.3-2.14-1.73-.15-2.92-.45-3.05,1.53Zm36.25,0c1.13.4,1.35,1.7,3.35,1.23.35-.67.79-1.25.61-2.45-1.4-.66-4.16-1.27-3.96,1.23Zm40.21,1.23c1.76-.17,4.32.46,5.18-.61-.06-3.31-5.73-3.18-5.18.61Zm-.91-2.76c-.75,2.02,1.02,1.39,0,0h0Zm-59.1.92c-.21,1.54.73,1.92,1.83,2.14,1.67-1.31-.34-3.92-1.83-2.14Zm45.39,1.53c.87.57,3.25.55,3.05-.92-.6-1.41-3.65-1.77-3.05.92Zm8.53-1.84c-.07.24,0,.6-.3.61.42,2.16,4.31,2.41,4.57,0-.52-1.01-3.06-1.28-4.26-.61Zm13.4,1.53c1.09.08,2.37,1.07,3.35.31-.21-2.28-3.01-2.68-3.35-.31Zm-77.07,0c.24.07.35.26.3.61.94.79,2.17-.09,3.35,0,0-2.32-3.29-2.63-3.66-.61Zm49.35,1.23c.81,0,.78-.85,1.22-1.23-.2-1.02-.78-1.66-2.13-1.53-.61.83-.34,2.84.92,2.76Zm43.56-.92c.79.33,1.49.74,2.74.61.64-1.41-.9-2.32-2.44-2.45-.64.75-.44.65-.3,1.84Zm-7.01-.61c-.25.87.43.79.3,1.53,1.31.09,2.46.02,2.44-1.23-.31-1.34-1.88-.81-2.74-.31Zm36.25.61c1.02.57,1.28-1.1.61-1.23-.16.45-.45.77-.61,1.23Z"/>
  <path class="cls-5" d="m207.16,26.74v.31c-.73-.13-1.77-1.27-.61-1.53.62.08.61.82.91,1.23h-.31Z"/>
  <g>
    <path class="cls-4" d="m223.91,3.15c.43.08.71.31.91.61"/>
    <path class="cls-2" d="m162.98,15.1c.31-.2.6-.42.91-.61"/>
    <path class="cls-1" d="m207.16,26.74c.21.1.42.19.61.31"/>
    <path class="cls-4" d="m192.84,63.5c-.14.27-.36.45-.46.77"/>
    <path class="cls-3" d="m132.21,95.66c-.2.11-.49.12-.76.15"/>
    <path class="cls-4" d="m189.03,173.93c.1-.21.31-.3.46-.46"/>
    <path class="cls-4" d="m124.45,182.2c.1-.21.31-.3.46-.46"/>
  </g>
</svg>