<?xml version="1.0" encoding="UTF-8"?>
<svg id="Layer_1" data-name="Layer 1" xmlns="http://www.w3.org/2000/svg" viewBox="0 0 226.77 226.77">
  <defs>
    <style>
      .cls-1 {
        stroke-width: .22px;
      }

      .cls-1, .cls-2, .cls-3, .cls-4, .cls-5, .cls-6, .cls-7, .cls-8 {
        fill: none;
        stroke: #000;
        stroke-linecap: round;
      }

      .cls-1, .cls-2, .cls-3, .cls-4, .cls-5, .cls-6, .cls-7, .cls-8, .cls-9 {
        fill-rule: evenodd;
      }

      .cls-2 {
        stroke-width: .25px;
      }

      .cls-3 {
        stroke-width: .48px;
      }

      .cls-4 {
        stroke-width: .32px;
      }

      .cls-5 {
        stroke-width: .33px;
      }

      .cls-6 {
        stroke-width: .31px;
      }

      .cls-7 {
        stroke-width: .28px;
      }

      .cls-8 {
        stroke-width: .36px;
      }

      .cls-9 {
        stroke-width: 0px;
      }
    </style>
  </defs>
  <path class="cls-9" d="m204.2,67.73c1.08-.01.23,1.74-.51,1.53-.07-.75.57-.78.51-1.53Z"/>
  <path class="cls-9" d="m210.03,69.51c.67-.08.83.35.76,1.02h-.76v-1.02Z"/>
  <path class="cls-9" d="m118.97,73.59c.17,1.19-.4,1.64-.51,2.55h-2.03c.12-1.57,1.2-2.19,2.54-2.55Z"/>
  <path class="cls-9" d="m115.67,78.42c.85,1.63.19,3.86-2.03,3.82-.47-1.47-.39-4.42,2.03-3.82Z"/>
  <path class="cls-9" d="m216.88,93.7c.73-.73-.73.73,0,0h0Z"/>
  <path class="cls-9" d="m109.07,121.2c1.89.3,1.19,2.15,1.01,3.56-.18,1.45,1.09,3.62-.25,3.82-1.71-.88-.81-2.94-1.78-4.33.64-.72.29-2.43,1.02-3.06Z"/>
  <path class="cls-9" d="m211.55,217.45c-2.57.13-5.08-.61-7.61-.51-.86.03-1.68.47-2.54.51-3.41.14-7.04.08-10.4,0-1.35-.03-2.86-.12-4.06-.76-3.05.63-7.19.06-9.89-.51-3.16,1.17-7.96.15-11.92.25-1.39.04-2.71.97-3.8,0-.86.06.51-1.56,0-2.8-1.67-.76-3.08,1.03-2.28,2.8-9.77.15-21.22.25-30.44,1.02-3.62-.77-4.43-7.03-9.13-4.33.06,1.67.07,3.3-.76,4.07-3.95-.47-7.49.01-12.18-1.02-2.74,1.28-6.36-.35-8.62.76-4.71-.63-10.62-.5-14.71.25-2.19-.38-4.2-1.03-6.34-.25-.85-.31-1.93-.66-2.28-.76-3.39.46-7.79.27-11.67-.25-.28-.04-.76.12-1.01,0-.51-.24-.69-.37-2.28,0-.71.17-1.11.4-1.52.51-2.18-.1-4.89.33-6.34-.51-3.37.22-7.67-.17-10.65,0-.66.07-1.09-.09-1.02-.76-.95.86-2.39.24-3.55.25-3.27.03-6.65.2-10.4,0-.9.4-.15-.87-.76-.76-1.34,1.75-4.27.9-6.09,0-2.38.9-4.79.06-6.85.51-.7-.57-.65-1.89-1.27-2.55.03-6.56.47-12.05.76-18.33-.16-.95-.71-1.49-1.01-2.29.51-5.96-.27-12.46.25-19.1.43-.5,1.16-.7,1.78-1.02-.55-.3-1.17-.53-1.78-.76-.83-2.67-.8-5.33,0-8.15-.39-4.58-.53-8.1,0-12.98-.29-.8.4-.62.51-1.02-.8-5.55-1.9-12.15-1.02-18.08-1.12-1.88.24-4.95-1.02-6.37,1.02-3.54.43-7.7.51-11.71.04-1.92.98-4.97-.51-7.13.12-2.91.8-5.21.51-7.89,2.21-5.05-.78-11.58.51-16.81.1-.8-1.28-1.41-.76-1.78.9-2.85.99-6.87.25-9.93.63-1.23.85-4.43,0-5.6-.04-.81.67-.85.51-1.78.06-8.64-.26-19.3.51-26.99-.51-.77-.34-2.21-.76-3.06,1.06-3.26-.13-7.3-.25-10.95-.1-2.97.79-5.54,1.01-8.15,2.26-.6,4.78-1.09,7.1-.76.63.09,1.14.47,1.78.51,2.02.12,3.88-.61,5.83-.76,2.19-.17,3.85.13,5.83-.25,7.31-1.42,16.07-.61,24.1-1.78,3.63,1.4,8.31-.05,12.43,1.02,1.58-.38,2.93-.49,4.57-.25.91.15,1.23-.3,1.78-.51,8.47.17,17.58.4,26.38.25,1.18-.02,2.37-.32,3.55-.51,1.03.07,1.48.73,2.54.76,3.71-.55,6.73-.9,10.15-1.27,2.27,1.33,3.65-.1,6.09.76,3.02-.88,8.03-1.04,10.65-.25.54-.23.75-.78,1.52-.76,7.73,2.01,16.64.33,23.34,1.02-.07.58.06.96.51,1.02-.39.72-1.64.56-2.03,1.27-.05,1.85-.24,2.26.51,3.31,1.6-.01,2.02-1.19,2.79-2.04.13-1.83-1.35-2.04-1.27-3.82,2.83.04,5.99.79,8.62-.25,2.51.85,5.76-.6,7.61.76.62-.49,1.53-.67,2.28-1.02,2.29,1.33,4.74.07,7.1.25.76.06,1.52.51,2.28.51.9,0,1.62-.44,2.54-.51,1.51-.11,3.5.52,5.33.51.73,0,1.33-.31,2.03-.25.8.06,1.68.48,2.54.51.77.03,1.2-.44,2.03-.51,2.4-.19,4.96.35,7.61.25,2.25-.08,4.36-.98,6.09.51.2,3.19,1.06,5.72,1.01,9.17.1,1.08,1.29,1.08,1.27,2.29-.26,1.02-.65,1.89-1.02,2.8-.34,5.71.69,11.84.25,18.59-.21,3.3-1.83,6.35-.25,9.68-.63,1.37-.1,2.9-.76,3.82,1.21,1.23,1.37,5.48,0,7.13-.14,2,.11,3.63.76,4.84-1.65,4.33.4,9.74-1.27,14.77.45,1.68-.31,3.01.25,4.58-.8,1.83-.37,2.3-.51,4.58,1.68,6.08.08,12.96,1.01,18.84-.79,2.08.1,4.08,0,6.37-.06,1.35-.73,2.81-.76,4.07-.05,2.08.71,4.15.76,6.37.09,3.69-1.33,7.71-1.01,11.46-.91.53-2.74.13-4.06.25-.77,1.75.17,3.91,1.52,5.35,1.01.08,1.28-.59,2.28-.51,2.03,2.86.62,7.81.25,11.2.21,1.07.62,3.15-.25,3.82,1.12,1.16,1.22,5.99,0,7.13,1.65,6.43.37,11.99,0,18.08-.45.15-1.49-.31-1.52.25.86,1.89,3.12,2.49,1.52,5.09-1.29.1-1.48-.89-2.28-1.27.04.29-.06.45-.25.51v-.25h-.25c.18-.84-.51-.39-.51,0v.25h.25c-.36.49-.96.73-1.02,1.53.01,1.77,3.13.43,2.79,2.55,1.12.04-.12-.72.51-1.02,2.03,1.43,1.75,5.02,1.78,7.89.03,3.3-.68,6.82.51,9.17-.2,1.67-.73,3.01-.51,5.09-1.24.79-1.96,2.1-3.8,2.29v-.25h-.25c-.13-.39-.26-.02-.25.25l-.13.13.13.13ZM125.31,11.2c.01-.16.04-.3.25-.25-.03-.31-.08-.6-.51-.51.04.3-.04.72.25.76Zm26.13-.51c-.29.03-.4-.37-.51,0,0,.26.44.32.51,0Zm-21.05,1.53c.66-.07,1.09.09,1.02.76-.4.02-.88-.03-.76.51.91.66,1.06-1.2,2.03-1.27.19-.78-.7-.49-.51-1.27-1.23-.21-1.71.32-1.78,1.27Zm8.62,2.04c-.11-2.74-1.69-3.83-4.31-2.8.12,2.25,1.38,3.37,3.3,3.82.6-.08.57-.79,1.01-1.02Zm-66.46-2.29c.01-.16.04-.3.25-.25-.03-.31-.08-.6-.51-.51.04.3-.04.72.25.76Zm11.92-.76c-.2.06-.5,0-.51.25.2-.06.5,0,.51-.25Zm29.68,1.02c-.03-.65-.37-.99-1.01-1.02-.12.8.22,1.14,1.01,1.02Zm75.84-.76c-1.39,1.56-.89,5.58,2.28,4.84.55-.55.88-1.32,1.02-2.29-1.13-.97-1.07-3.39-3.3-2.55Zm-15.98,1.27c.6.87,1.91,1.86,3.04.76.17-1.1-.44-1.43-.76-2.04-1.34-.15-2.14.23-2.28,1.27Zm-64.43,3.31c3.06.91,3.59-1.95,2.79-4.07-2.66-1.31-4.06,2.12-2.79,4.07Zm90.05-4.07c-.29,1-.05.95-.25,2.04.7,1.11,4.67,1.89,4.57-.51-.97-1.02-2.24-2.37-4.31-1.53Zm-49.21,3.56c.19-1.55-.25-2.47-.76-3.31-4.77-1.9-2.9,6.2.76,3.31Zm-97.66-2.55c-.8-.13-1.11-.75-2.03-.76-3.25-.02-5.67,2.09-8.12,2.04-.73,1.05-2,1.56-3.3,2.04-.38,2.03-3.5,2.56-2.28,5.35,2.2-.51,2.57-2.85,4.57-3.56,2.15-2.32,4.59-3.99,9.13-3.31.64-.07,1.44-1.09,1.78,0-.02,1.76-2.52,1.03-3.3,2.04-2.56.23-3.57,2.02-5.33,3.06-1.09-.16-1.04.83-2.03.76-1.31,2.25-3.76,3.36-4.57,6.11,1.81,1.11,1.95.29,3.55,0,.41-.07.86.07,1.27,0,.92-.15,1.08-1.4,1.52-1.78.19-.17.91-.27,1.27-.51.9-.59,1.38-1.03,2.54-1.02.41-2.04,2.1-2.81,3.55-3.82.04-1.14.48-1.9,1.27-2.29,4.34-.31,6.86-2.45,9.64-4.33-2.81-.86-6.17-.36-9.13,0Zm39.06-.25c-.42,1.59-.21,3.01.51,4.07,1.87-.3,2.6-.29,4.31-.51.54-2.56-2.29-4.73-4.82-3.56Zm77.62,1.27c-.99-.14-.46-1.19-1.01-1.53-1.1-.68-2.51.38-2.54,1.53-.03,1.28,1.11,2.03,3.05,2.04.4-.9-.04-1.18.51-2.04Zm12.18-1.02c-.07,2.11.46,3.31-.25,4.84,1.24,1.14,2.65,2.1,4.57,2.55.49-.76-.92-2.62,0-3.82-.95-.91-1.16-2.57-1.78-3.82-.84-.42-1.94-.26-2.54.25Zm26.13,2.29c.59.85,1.24,1.64,2.54,1.78,1.07-1.53.87-4.05-1.01-4.58-1.48-.04-1.08,1.8-1.52,2.8Zm-91.06-2.29c-.69,1.13-.64,2.97.25,3.82,1.22.1,2.01-.57,2.54-1.78-.4-1.45-.87-2.77-2.79-2.04Zm-51.49.76c.16-1.01-.96-.73-1.78-.76.15.7,1.4,1.06,1.78.76Zm15.22,1.53c.39,3.04,4.22,1.91,5.07,0-.29-3.08-4.54-2.6-5.07,0Zm18.77.76c.85.25.88,1.33,1.78,1.53.79-.14,1.65-.21,2.28-.51.35-.84.6-1.78.51-3.06-1.94-1.76-4,.21-4.57,2.04Zm29.42-1.53c.07-.58-.06-.96-.51-1.02.06.45-.26,1.28.51,1.02Zm-4.06.51c.32.52.4,1.29,1.27,1.27,1.33-.42.57-1.93,1.27-2.55-1.36.16-2.12-.13-2.54,1.27Zm90.05-.76c.29,1.01.29-1.01,0,0h0Zm-142.3,2.55c1.14,1.08,2.29.53,3.04-.51.16-2.44-3.49-2.04-3.04.51Zm33.74-.51c.68-.29.67-1.76-.51-1.53.02.8-.68,1.52.51,1.53Zm-74.83,4.84c-1.48-1.74-2.95-3.49-5.83-3.82-.17-.59-.84-.68-1.02-1.27-4.23.9-7.04-.61-10.4-1.02-.79.62-.15,1.09-.25,2.29.7.49,1.29,1.08,1.78,1.78.58,4.93,2.6,8.42,4.82,11.71.15.45-.31,1.5.25,1.53.35-.16.04-.98.51-1.02,3.07.5,5.21-.99,7.36-1.02-.18-.78.26-.93.25-1.53-1.11-1.52-3.12-2.13-5.33-2.55-.63.21-.54,1.16-1.52,1.02-.37-.14-.62-.4-.76-.76.43-.96.66-1.88.25-3.06.48-.45,1.67-.19,2.54-.25,1.74,1.87,4.77,2.76,7.61,2.8,1.71-1.81-1.13-3.12-.25-4.84Zm167.92-.76c.31-2.48-.03-3.94-1.52-5.09-1.02,1.34-3.54,2.16-2.28,4.33,1.12.23,2.23.47,2.54,1.53-.3.8-1.48.72-1.52,1.78.59,1.36.61,3.29,2.79,3.06,1.01-1.28.92-2.32.51-4.07l.13-.13-.13-.13c.56-.11.24-1.4-.25-1.27l-.13-.13-.13.13Zm-58.6-2.04c1-.59.94.31,2.03.25.76-.34,1.21-1,1.02-2.29-1.29-.95-3.51-1.07-3.04,1.53h-.25v.25c-.21-.05-.25-.26-.51-.25-.09.51.05.8.51.76v-.25l.13.13.13-.13Zm33.23-.25c.7.74,2.4.48,3.55.76.3-.63.37-1.5.51-2.29-1.15-1.72-4.45-1.14-4.06,1.53Zm-40.59-.76c.3.21.68.34,1.27.25,1.31-1.72-1.64-2.53-1.27-.25Zm69.76,1.53c.78.24.8,1.24,1.78,1.27,1.43-.71,1.26-2.44.76-4.07-.78.18-.93-.26-1.52-.25-.43.92-.85,1.87-1.01,3.06Zm-136.98-.51c1.69.68,3.27,1.47,4.06,3.06-.6.87-.77,3,0,3.82,1.15.14,1.52-.51,2.28-.76,0-1.54-.43-2.62-.25-4.33-.78-.75-1.57-1.64-1.52-2.55-1.67-.11-4.35-1.94-4.57.76Zm31.71-1.02h.51v-.51h-.51v.51Zm56.31,1.27c.87.4.87,1.67,2.03,1.78,1.14.16,1.02-1.85,2.03-1.02-.18-.78-.18-.49,0-1.27-1.14-.87-3.95-2.36-4.06.51Zm-93.85-.51c.34,1.36.43,2.97,2.03,3.06,2.96-1.07-.3-6.05-2.03-3.06Zm37.03,2.04c.63-.13.85-.68,1.52-.76-.15-.78-.06-1.8-1.01-1.78.38,1.4-.68,1.35-.51,2.55Zm-7.1-.76c-.47-3.86-5.85.8-2.03,2.55h.51c.54-1.02,1.67-1.36,1.52-2.55Zm72.29,1.27c1,1.16,2.86,1.46,4.06,1.27-.89-.46-.8-1.91-.76-3.31-1.45-1.25-4.26-1.09-3.3,2.04Zm-84.47-2.29c-.61.85.85-.62,0,0h0Zm65.7,1.78c.06-.2.21-.3.51-.25-.02-.44.06-.79.25-1.02-.34-.08-.49-.36-1.01-.25.22.9-.65,1.31.25,1.53Zm8.62.25c.1-.49.98-.2.76-1.02-1.05.2-.77-.93-1.78-.76,0,.93.5,1.36,1.01,1.78Zm26.63-.51c.4-.38.37-1.45-.51-1.27-.4.38-.37,1.45.51,1.27Zm-9.38-.51c-.17,1.02.24,1.45.25,2.29,1.2.02,2.5.13,2.79-.76-.54-.9-.75-2.13-2.28-2.04-.1.32-.33.52-.76.51Zm17.76.25c.13,2.25,1.14,3.61,3.3,3.82.98-.54,1.16-1.89,1.01-3.57-1.33-.61-3.2-1.48-4.31-.25Zm-79.14.51c.18-.19.63-1.25-.25-1.02.04.38-.09.94.25,1.02Zm66.46-.76c.04-.55-.9-.12-1.27-.25-.23.66,1.43,1.25,1.27.25Zm36.78,5.09c.91.06.93-.76,1.78-.76.14-2.01.01-3.75-1.01-4.58-3.88-.69-3.18,4.97-.76,5.35Zm-129.87-2.8c.38-2.1-2.27-3.33-3.8-1.02-.48,3.41,3.47,2.86,3.8,1.02Zm89.03,6.11c-.8-.12-.57.78-1.52.51-.22-.37-.38-.81-1.02-.76-2.87-.51-5.57-1.2-7.86-2.29-3.84-.47-8.62-.01-10.65-2.29-.72-.04-.59.76-1.27.76-.43-1.69-1.93-1.07-4.06-1.27-.62-.14-.54-.99-1.52-.76-3.04.33-6.67-.48-9.39-1.27-.98.88-3.42.3-4.82.76-.87-.4-2.01-.53-3.04-.76-.36.49-1.23.46-1.78.76-4.98-1.03-9.69.07-14.46,0-1.06-.93-2.72-.29-4.31-1.02-.8,2.51-3.78.99-6.34,1.27-2.56.9-6.07,3.18-8.62,1.78-5.86,1.33-11.16,3.23-16.23,5.35h-2.03c-3.51,2.92-8.68,4.18-12.18,7.13-2.94.86-4.99,2.62-6.59,4.84-.59-.08-.97.04-1.27.25-2.4,3.37-7.04,4.47-8.88,8.4-1.76.69-2.31,2.61-4.06,3.31-.06,1.89-1.9,2-2.03,3.82-.88.05-.96.9-1.78,1.02-.57,2.23-2.32,3.27-2.28,6.11-2.77,1.88-3.28,6.04-5.83,8.15.1,2.48-.97,3.18-1.78,4.84-1.1,2.27-1.31,4.1-2.79,5.35.07,2.21-1.79,3.58-2.28,5.6-.45,1.86-.2,3.97-.51,6.37-2.45,2.43-1.05,6.14-1.27,9.93-.14,2.36-1.23,4.42-1.27,6.87.43,1.18,1.03,2.2,1.27,3.56-.7,1.73-.29,3.04-.76,4.84,1.09,1.88.25,4.06.51,6.11.35,2.78,1.88,5.54,1.52,8.91,1.19,1.6,1.82,3.77,1.78,6.62,3.23,4.4,2.81,12.45,7.1,15.79.07.78.55,1.15.76,1.78v1.53c1.28,2.2,2.83,4.12,3.8,6.62,1.73.89,2.27,2.98,4.06,3.82,3.35,5.64,9.1,8.86,12.94,14,1.07-.05,1.07.97,2.03,1.02,1.23,2.84,4.64,3.49,6.59,5.6,2.26.02,4.01,1.85,5.83,3.06,1.24.71,4.01,1.85,5.58,3.06,2.41-.05,3.63,1.11,5.07,2.04,3.14.24,5.46,1.31,7.61,2.55,2.73-.11,4.32.93,6.09,1.78,2.67.12,4.64.94,6.6,1.78,1.3-.39,3.27-.12,4.57-.51,5,2.07,13.45-.05,18.26,1.27,2.01-1.32,4.31-.37,6.59-.51,1.9-.11,3.81-1.08,5.83-1.27,1.49-.14,3.04.11,4.57,0,3.1-.23,5.96-1.1,8.88-1.53,2.04-1.18,4.37-2.06,7.61-2.04,1.47-.82,2.87-1.7,5.33-1.53,1.33-1.08,4.16-2.23,5.58-2.8.57-.23,1.35-.06,1.78-.25.45-.2.75-.85,1.27-1.02.37-.11.92.3,1.01.25.6-.28.89-1.22,1.52-1.27h1.52c.41-.69.99-1.21,1.78-1.53,2.27-.15,4.7-1.52,6.59-2.8.88.21.98-.38,1.78-.25,3-2.09,7.03-3.12,10.91-4.33,1.21.44,1.24-.42,2.28,0,.12-.81,1.1-.76,1.27-1.53-1.04-1.58-5.91-1.47-4.82-3.56-.68-.79-.96.67-1.52,0-.69-2.29-1.42-5.58-1.27-8.4.08-1.51.4-2.96,1.27-3.82-.71-2.01-1.12-4.3-1.52-6.62.28-.82.43-1.77.76-2.55.3-4.01-.24-8.37,0-12.48.06-1.05.62-2.06.76-3.06.42-3.05.37-5.97,0-8.66.67-2.04,2.03-3.39,2.54-5.6,1.57-1.06,2.77-2.49,3.81-4.07,2.2-.42,3.22-2.03,5.07-2.8.79-.03.72.8,1.78.51,1.13-1.33,4.33-.58,4.82-2.55-1.82-1.91-5.37-.11-7.86.25-3.77-.19-7.58,1.38-11.41.76-.86.35-1.87.96-2.79,1.02-1.05.07-2.37-.69-3.81-.76-1.85-.1-3.08.38-4.57,0-.57-.15-1.21-.23-1.78-.25-.75-.03-1.25.45-2.03.51-1.47.12-4.2-.38-5.33-.51-1.76-.2-3.55.33-5.07.25-.53-.02-1.04-.43-1.52-.51-.59-.1-1.44.09-2.03,0-.68-.1-1.23-.71-1.78-.76-.58-.06-1.25.52-1.77.51-.58-.01-1.19-.44-1.78-.51-1.77-.21-3.32.2-5.07.25.25,1.28,2.18.87,2.03,2.55,1.84-.41,2.99.5,5.33,0,1.56.64,2.75,1.65,3.81,2.8,1.8,5.04,4.88,9.6,4.57,15.53-.16,3.07.53,7.1-.25,9.68.76,1.36.28,3.96.76,5.6-.59.61-.1,1.46-.25,2.29-.07.37-.47.8-.51,1.27-.14,1.88.25,3.72-.25,5.6-.17.61-.67,1.14-.76,1.78-.26,1.77.15,3.48.25,5.09-1.44,3.86-.92,8.2-2.79,11.71-1.97.9-2.56,3.2-4.82,3.82-.36.57-.19,1.68-1.01,1.78-2.4.82-4.44,1.99-6.59,3.06-7.35,1.73-16.12,4-23.84,4.07-1.61.99-5.77,1.47-8.37.51h-3.3c-.74-.44-1.77-.6-3.05-.51-3.94-1.98-9.97-1.87-13.7-4.07-2.79-.07-4.26-.84-6.09-2.29-4.21-.95-7.14-3.19-10.65-4.84-.54-2.37-3.61-2.44-3.81-5.09-1.06-.47-1.72-1.33-2.79-1.78-.45-1.42-1.98-1.75-2.28-3.31-1.32.23-1.3-.91-1.78-1.53-.78-.07-1.14-.55-1.78-.76-.48-1.43-2.69-2.33-2.03-4.07-2.04-.33-2.36-2.39-3.81-3.31-.35-1-.96-1.75-.76-3.31-.57-.27-1.12-.58-1.52-1.02.19-2.15-1.69-2.2-2.28-3.56-1.48-5.9-5.34-9.41-5.07-17.06-.94-1.94-.74-5.03-1.52-7.13.36-5-1.89-9.86-.51-15.28-1.22-5.95-.95-13.19.51-18.08-.48-7.78,2.2-14.6,2.79-22.15,2.27-4.77,4.68-9.4,6.85-14.26.57-.87,1.45-1.43,2.03-2.29.16-2.56,1.92-3.51,2.28-5.86,3.09-1.82,4.97-4.86,6.85-7.89,2.55-1.77,5.02-3.61,6.85-6.11,2.45-1.44,4.29-3.51,6.6-5.09.58-.18,1.3-.23,1.78-.51.99-.6,1.25-1.39,2.28-2.04,1.38-.86,3.27-.86,4.82-1.53.37-.16.84-.77,1.27-1.02,1.44-.83,2.53-.65,4.57-1.02,1.67-.3,3.03-1.5,4.57-.76.82-.53,1.73-.98,2.79-1.27,2.64.48,3.84-.76,5.83-1.53,6.97.93,15.36-1.62,21.81.76,4.36-.41,8.37,1.57,12.18,2.55h2.03c1.32,1.39,4.18,1.24,5.07,3.06h1.78c.82.79,1.52,1.69,2.03,2.8.54.22,1.35-.08,2.28.25,1.16,1.47,3.54,1.71,4.06,3.82,4.27,1.66,6.45,5.41,10.15,7.64.83,1.97,2.78,2.81,3.55,4.84.62-.03,1.22-.04,1.52.25.18,1.39.51,1.24.51,2.55.89.63,1.8,1.25,2.28,2.29.3,3.18,3.04,3.91,3.3,7.13.99.88,1.55,2.18,2.03,3.56,1.09.01.99,1.21,2.28,1.02.17-1.9-.67-4.9-1.52-6.62-.57-.79-2.77.07-2.79-1.27.07-1.37,1.74-1.14,2.03-2.29-1.38-1.75-1.35-4.92-2.54-6.88.24-2.64-.92-3.71-.51-5.35-.4-.02-.88.03-.76-.51.77-3.68-1.72-5.94-1.01-9.68-1.29-1.08-.92-3.83-1.52-5.6-2.07-1.46-6.11-1.19-8.12-3.31Zm29.93-7.38c.29,1.01.29-1.01,0,0h0Zm-45.15,1.78c.79.08,1.36-1.18.51-1.27-.11.49-.72.46-.51,1.27Zm46.93,3.31c1.42.61,2.07,1.99,3.55,2.55-.22-.96.77-1.11,1.01-1.78.74-2.06-.43-4.22-2.79-4.84-.47,1.48-1.43,2.47-1.78,4.07Zm-26.38-3.31c-.2,1.05.39,1.31.25,2.29,1.12.11,1.61-.42,1.77-1.27-.52-.24-.21-1.31-1.01-1.27-.05.38-.61.23-1.01.25Zm-121.76,3.06c.54.9,2.06.82,3.55.76-.12-1.74-1.15-2.58-1.78-3.82-2.18-.58-1.78,1.44-1.78,3.06Zm127.08-.51c.22-.52-.66-1.14-.76-.51.36.06.43.42.76.51Zm-118.2.25c-.07,1.43.63,2.09,1.78,2.29.52-.08.5-.69,1.01-.76-.04-.81-.58-1.12-.51-2.04-1.16-.23-1.44.42-2.28.51Zm120.23-.25c-.48,1.1-.78.97-.51,2.55,1.22-.03,1.75,1.97,3.04,1.02-.19-1.42.32-4.16-2.54-3.56Zm-122.52.76c.77.7-.69-.77,0,0h0Zm150.42,6.62c1.2-.32,1.17-1.88,2.03-2.55-.45-.73-.88-1.49-1.27-2.29-3.72-.62-3.09,4.29-.76,4.84Zm-165.64-2.04c1.6,1.08,2.17-.8,2.28-2.04-.8.12-.57-.78-1.52-.51-.35.75-.6,1.61-.76,2.55Zm12.94-.76c.36-.34.36-1.44,0-1.78h-.76c-.72.8.13,1.56.76,1.78Zm139.51-1.02c-2.08-.66-4.28.11-6.6,0-1.28,1.2-4.88,1.34-3.55,4.33,1.96.18,2.34-1.22,3.8-1.53,4.14-.62,7.9,1.12,9.89,4.07-.17,2.53,2.18,5.04,2.54,7.64.38,2.75-.27,5.01-1.78,6.88.55,1.13,1.43,1.54,1.27,2.8.38-.77,1.11.21,1.78,0,1.84-1.04,2.57-3.19,3.55-5.09-.93-2.46-.47-5.17-.76-7.89-1.3-1.5-2.1-3.49-2.28-6.11-1.69-.26-1.88-2.02-4.06-1.78-.17-.59-.84-.68-1.01-1.27.15-.83-.17-1.18-.25-1.78-1.01.1-2.31-1.89-2.54-.25Zm-142.3,1.02c-1.79-1.17-3.39.36-3.55,2.29.74,1.04,1.62,1.94,3.55,1.78.94-.8.47-3.16,0-4.07Zm126.58,3.56c-.81-1.07-1.03-2.22,0-3.31-1.83-.13-2.16,3.56,0,3.31Zm-134.19-2.55c.32.35,1.24.39,1.27-.25-.32-.35-1.24-.39-1.27.25Zm69.5,2.55c.66-.91.03-2.29-.51-2.8-3.93-.61-1.83,4.17.51,2.8Zm-101.46-1.53c-.06,1.25.23,2.15,1.27,2.29.07-.36.56-.29.76-.51.13-1.07-.44-1.42-.51-2.29-.8-.12-.99.36-1.52.51Zm107.3,2.04c.73-.03,1.66.14,2.03-.25v-1.02c-.79-.23-.97-1.06-2.03-1.02v2.29Zm-83.45,0c.71.84,1.24.73,2.28.25.43-2.78-2.18-2.12-2.28-.25Zm-18.52,25.72c3.19-1.55,3.97-5.52,6.34-7.89.41-.95.56-2.15,1.52-2.55.06.28.42.61.51.25,0-.34-.44-.23-.51-.51,1.27-2.46,2.32-5.14,3.55-7.64-.58-2.57,1.85-4.63-.25-6.62-1.45.33-1.85,1.7-2.03,3.31-1.79.75-1.25,3.83-2.79,4.84.3,1.57-.72,1.82-.51,3.31-1.06-.05-.78,1.25-2.03,1.02-.37-3.53,2.88-5.58,2.03-10.44,1.76-.39,2.92-2.62,2.79-4.07-1.6-.69-2.71,1.13-3.81,1.78-.01,1.94-1.24,2.66-2.28,3.57-.37,1.67-1.02,3.04-2.03,4.07-.16,5.08-1.42,8.67-1.01,13.24-.89,1.82-1.27,4.16-1.52,6.62,1.75.31,1.45-1.43,2.03-2.29Zm85.99-27.24c-.51,1.01-1.11,1.94-1.01,3.56.84.86,2.16,1.23,3.3,1.78,1.62-.84.88-3.03.51-4.84-1.18.08-1.69-.51-2.79-.51Zm21.05,3.06c.83,1.09,2.8,1.31,3.04-.51-.73-1.12-3.23-2.14-3.04.51Zm6.85.25c0,.51.69.32.51,1.02.58-.18,1.3-.23,1.78-.51.69-2.94-2.26-2.59-2.28-.51Zm6.09-.76c.37.14.62.4.76.76-1.65.53-.54,3.83.25,4.33,4.36.84,3.75-4.96,0-4.33.16-.53,1.3-.96.25-1.27.12.71-1.38-.2-1.27.51Zm-118.71.25h.51v-.51h-.51v.51Zm170.97,4.07c2.56.41,2.61-3.26,1.52-4.33-2.24-.13-2.36,2.8-1.52,4.33Zm20.29,2.04c2.16-1.73-.28-4.46.25-6.11-1.02.26-1.7,0-2.79-.25-2.4,1.74-1.18,6.98,2.54,6.37Zm-167.16-3.31c.45-.48.19-1.68.25-2.55h-1.52c.42.89-.62,2.69,1.27,2.55Zm-10.15-.25c.59-.08.97.04,1.27.25.47-.55-.34-1.36-.25-2.29h-1.27c-.2.96.31,1.22.25,2.04Zm112.37,2.55c3.01.42,3.43-3.08,1.78-4.58-4.11-1.05-3.61,3.37-1.78,4.58Zm37.29-3.56c.36.74.94,1.26,1.78,1.53.66-.35,1.1-.93,1.01-2.04-.72-.71-2.63-.72-2.79.51Zm-172.74,1.78c-.13-1.36.64-.86,1.52-.76.13-1.24-.67-1.54-1.78-1.53.16.69-.32,2.02.25,2.29Zm8.88-1.02c.15-.15.59-1.21,0-1.27-.15.15-.59,1.21,0,1.27Zm168.43.76c1.19-.08,1.52-1.02,1.78-2.04-1.61-.28-2.28.95-1.78,2.04Zm-91.32,1.02c1.04.74,1.19,2.38,3.04,2.29.53-1.22,1-3.39.51-4.84-1.32-.15-3.58.53-3.55,2.55Zm57.83,44.56c-.8.3-.56,1.65-1.78,1.53-.07-1.9-1.18-1.14-2.79-1.27-.69.16-.73,1.74-1.52,1.02,1.15.97,1.51,2.73,3.55,2.8.55-1.23,1.53-2.03,3.04-2.29.59.72.08,1.96,0,2.8,1.81.64,1.44,3.48,3.04,4.33-.2.23-.27.58-.25,1.02,1.63-1.08,2.43,1.83,4.82.76.18.84,1.02,1.01,1.52,1.53.89.71,1.09-.98,2.28-.76,2.03,1.26,3.37-.74,6.09-.25,1.32-.54,1.56-2.17,3.8-1.78.78-1.76,2.27-2.81,3.3-4.33.07-2.31-.59-3.31-.25-5.35-.02-1.25-1.51-3.17-.25-4.07,1.97.54,2.27,3.64,2.03,5.6,1.43.77,2.02,2.39,2.79,3.82,2.05.32,2.81,1.93,5.33,1.78.04-.47.17-.85.51-1.02.17-1.78-1.05-2.17-.76-4.07-3-2.42-4.99-5.85-6.59-9.68-1.42-.7-2.99-1.24-4.06-2.29-.62-2.44-2.86-3.24-3.3-5.86-.89-.55-1.48-1.4-2.03-2.29-.72-.04-1.06-.47-1.78-.51-.6-1.43-2.74-1.32-3.04-3.06-1.6-.77-4.11-.63-4.57-2.55,4-2.04,8.08,2.09,10.91,1.27-.33-2.25-1.81-3.23-4.06-4.07,0-.51.69-.32.51-1.02-2.96.11-6.08.22-9.13-.51-.42-.1-.66-.5-1.01-.51-1.17-.04-2.36.54-3.55.51-2.63-.08-5.4-1.54-7.87-.25-4.32.14-6.71.75-10.65.51-.39.37-.99.54-1.52.76-3.84-.27-5.65,2.79-8.88,2.29-4.62,4.33-10.07,6.34-14.71,10.44.04.81-.67.85-.51,1.78-2.25,1.3-3.07,4.05-5.83,4.84-.52-1.76.71-3.83,1.01-5.6,1.12-1.25,2.77-1.97,3.55-3.56.21.13.41.27.76.25,1.49-1.99,3.1-3.84,5.58-4.84.47-.87.76-1.53.76-2.29,1.24-.79,3.03-1.03,4.06-2.04.36-3.12,2.7-4.25,4.82-5.6-.16-1.6.49-2.39,1.02-3.31-.53-1.33-1.44-2.79-1.02-4.33-.65-.46-1.12-1.25-.76-2.04-3.71-2.29-7.37-5.74-13.44-4.84-1.2,1-3.32,1.08-3.04,3.56,2.64,1.34,7.33-2.31,8.88,1.53.06,1.82-.7,3.82-1.01,5.09-.25,1.04-.68,1.15-1.01,2.04-.13.34.18.96,0,1.27-.42.71-1.44,1.03-2.03,1.78-.58.74-.76,1.91-1.27,2.55-.39.49-1.04.99-1.52,1.53-1.23,1.37-2.67,2.75-4.06,4.33-.21.72.36.66.25,1.27-.71.14-.82.88-1.52,1.02-1.08,3.59-3.03,7.29-3.55,11.46-.09.68.13,1.41,0,2.04-.7,3.26-3.21,6.71-1.78,11.71-.6,1.26-1.02,2.72-1.27,4.33,1.27,1.6.97,5.55-1.02,6.11-1.81-1.14-.71-3.41-.76-5.35-.04-1.41-.64-2.85-.76-4.33-.28-3.29-.05-6.67-1.52-8.91.1-3.78-1.93-6.39-1.01-10.19-.52-3.12-3.21-4.08-3.04-7.89-.66-.65-.88-1.15-.51-2.29-1.68-.78-1.2-3.72-3.04-4.33.85-2.9-1.63-5.43-1.78-8.4-.19-3.98,3.16-6.93,7.36-7.13-.02-.95,1.09-.77.76-2.04-.59.13-1.94.32-2.79-.51-1.1.69-2.99,1.04-4.31.76-.83,1.46-3.33,1.25-4.31,2.55.09,2.46-1.3,3.45-2.03,5.09-.58,6.1,3.22,9.15,3.8,13.24-2.52.23-2.21-2.36-3.04-3.82-2.86-1.63-3.88-5.1-6.34-7.13-1.51.01-2.51-.53-3.55.25-.53,1.11.52,1.97.51,3.31.71.22,1.04.82,2.03.76.93,1.44,2.04,2.7,3.55,3.57,1.95,3.05,4.51,5.48,6.6,8.4.36,1.93,1.63,2.94,2.03,4.84-.6.08-.47.88-1.27.76-1.18-1.19-2.43-2.32-2.79-4.33-2.25-2.24-5.57-3.4-10.15-3.31-1.11.42-1.88,1.17-3.55,1.02-1.96,1.68-2.82,4.47-4.57,6.37,1.28,1.27.22,4.87,1.78,5.86h2.28c.3-2.62,1.31-4.68,3.04-5.86,1.96-1.33,3.4-1.18,5.83-.76,2.12.36,4,.84,5.83,1.53,1.19,2.03,3.69,2.75,4.82,4.84,1.61,3.96,2.21,7.4,3.81,11.2.18.94-.43,1.09-.25,2.04.94,2.11,1.5,5.6,2.28,8.15.54,1.75,1.38,3.52,1.52,4.84.09.86-.3,1.79-.25,2.8.1,2.18,1.03,4.44.51,6.11,1.35,1.61,1.06,4.88,2.54,6.37-.65,3.65,2.29,6.41,1.01,9.17-4.18-1.83-4.64-7.4-9.64-8.4-.3-.55-.27-1.42-.76-1.78-2.22-.57-3.38-2.21-5.33-3.06-2.03.67-3.49-.72-5.07-1.27-.33.69-1.13.91-1.01,2.04,1.13,1.81,3.12,1.27,5.58,1.53,1.27,1.27,2.21,2.87,4.06,3.57.5,1.71,2,2.4,3.3,3.31,3.24,5.83,7.13,11.01,10.91,16.29,1.07,2.94,1.95,5.19,3.3,7.38-.18,3.7,3.09,6.04,3.3,10.19.81,1.13,1.94,1.96,2.28,3.56-.18.92-1.11,1.09-.76,2.55-.49.95-2,.88-2.03,2.29-.12.8.68.67.76,1.27,1.75-.88,4.58-1.62,5.83.25.28,1.51,1.09,2.47,1.27,4.07,1.09.82,2.5,2.53,2.54,3.56-.25,0-.2.31-.25.51-1.29.02-2.1-.44-3.55-.25-1.99-1.56-3.56-3.56-6.34-4.33.06-1.67-2.43-.79-2.28-2.55-.72-.04-.49.86-1.52.51-2.97-1.26-5.72-2.74-9.39-3.31-.72-.64-1.26-1.45-2.03-2.04-1.11.18-1.43-.43-2.54-.25-.4-.37-.88-.64-1.02-1.27-4.16-.06-5.43-3.04-8.88-3.82-.86-1.01-1.69-2.04-1.78-3.82.98-1.85,1.81-4.81,3.81-4.84.19-.96-1.35-.18-1.02-1.27.77-1.4.83-2.07,1.27-3.56.82,1.05,1.42-.65,3.04-.25.12-2.41-1.23-3.35-3.3-3.56-1.74,1.65.86,4.7-1.78,5.6-.03.63-.04,1.23.25,1.53-1.32.88-2.26,2.15-4.57,2.04-2.58,1.32-2.81,4.99-3.55,8.15,1.25,2.05,2.48,4.13,4.31,5.6,2.04.24,4.26.31,4.57,2.29-1.1,1.81-3.55.42-6.09.25-2.35-.16-4.78.31-6.6-.51-2.48.84-5.56-.21-7.36,1.53.41,1.84.74,2.38,1.78,3.31,1.59.24,2.4-.31,3.55-.51,2.99.17,5.79.42,8.37.25,2.25-.15,4.66-1.45,6.34.76,2.99.23,5.26,1.17,8.62,1.02.74.96,2.94.44,3.3,1.78.05,1.24-1.35,1.02-2.54,1.02-1.48.64-3.62.61-5.07,1.27-.81.15-.79-.48-1.27,0-2.65,1.04-3.56,3.18-3.81,6.11.21.29.33.68.25,1.27,1.04,1.61,2.3,2.12,4.31,3.57,1.5,1.07,1.77,2.1,4.06,1.78.38-.3.39-.96.76-1.27-.66-3.7.71-6.47,3.55-7.38,2.07.6,2.09-1.17,4.57-.76.48-.88,1.55-1.16,2.28-1.78,3.15.65,6.61,1.01,9.13,2.29,3.58.14,5.71,1.74,8.62,2.55h2.03c2.46,1.26,4.14,3.31,7.1,4.07.49.36.46,1.24.76,1.78,4.24-.79,6.03,2.89,8.62,4.58,1.79-.55,2.75-.45,4.06-1.27-.25-2.98-3.45-2.98-4.31-5.35-.94-.16-1.49-.72-2.28-1.02-.85-1.77-2.47-2.78-3.3-4.58-2.97-1.1-4.23-3.9-6.34-5.86.19-.96-.31-1.22-.25-2.04-2.12-1.96-4.84-4.63-4.82-7.89-1.77-.77-2.09-3-3.55-4.07-.66-4.52-3.57-6.77-3.8-11.71-2.19-2.13-2.33-6.32-3.55-9.42,1.12-3.4-.25-8.29,2.03-11.97-.53-1.73-.52-2.99-.76-4.58,1.5-2.14,2.02-5.27,2.03-8.91,2.22-1.59.58-7.06,3.55-7.89-.33-2.37,1.07-3,2.28-3.82-.39-1.47-.04-2.27,0-3.82,2.44-1.62,4.45-3.68,6.85-5.35,4.14-1.47,10.29-1.81,13.7.51h2.03c.41.86.98.8.51,2.04,1.69-.37.41-2.92-.51-3.06.5-.48.12-1.2,0-1.78-2.2-.76-3.74-2.19-4.82-4.07-1.44-.51-3.13-.76-4.31-1.53-3.86-.25-5.84,1.42-9.64,1.78-.93-.75-1.54-2.65-3.3-1.78-.53,2.23,1.36,2.03,1.27,3.82-.47.97-1.32,1.56-2.54,1.78-.84,1.28-1.51,2.73-3.04,3.31-.59,2.55-2.15,4.12-2.28,7.13-.67,1.44-1.85,2.38-1.78,4.58-.51.26-.89.64-1.27,1.02-.44,3.67-.93,6.7-1.01,10.18-.71.39-1,1.21-2.28,1.02-.16-2.96,2.02-7.64.51-11.2.58-2.52.98-6.38,3.04-8.15-.08-1.27.59-1.78.51-3.06,1.15.13.6-1.43,1.27-1.78-.15-.61-.36-1.16-.25-2.04.74-1.3,1.57-2.5,1.78-4.33.48-.96,1.79-1.09,1.52-2.8.75-.86,1.67-1.55,2.03-2.8,3.6-1.74,4.93-5.74,9.13-6.87.85-.76,1.64-1.58,2.54-2.29,2.52-1.29,5.47-2.15,8.62-2.8,1.13.28,1.34-.11,2.03.51-.3-1.31.59-1.02,1.27-.76-.05-.8.17-1.87-.25-2.29-1.11-.41-2.23.25-3.04-.76-1.22,1.75-4.8,1.12-7.36,1.53-1.64.82-2.23,2.69-3.04,4.33-1.38.28-1.77-.43-2.54-.76-1.6.32-3.43,3.12-5.07,1.02.11-.91.64-1.4,1.27-1.78,2.65-.06,3.53-1.89,5.33-2.8h1.78c.44-.33,0-1.52.76-1.53.88-.2.98.38,1.78.25.27-.24.08-.94.76-.76,2-.02,3.51-.55,4.82-1.27,4.34.26,9.62-.32,14.46-1.02,1.95,1.27,3.35,3.08,6.85,2.8,3.14,1.26,5.42,3.38,8.62,4.58.4.92.69,1.37,1.52,2.29,3.57,1.55,4.4,4.49,4.06,9.68-.19.74-1.2.66-1.01,1.78.36.75.68,1.52.51,2.8-1.22,1.15-2.83,1.92-3.8,3.31-1.89-.02-2.92.76-4.31.51-1.72-.31-1.94-1.52-3.04-2.8-.89-1.03-1.97-1.35-2.28-2.29-.5-.61.15-2.36-.76-2.55.07.66.09,1.27-.76,1.02l.13-.13-.13-.13c-.65-1.13-.71-2.86-2.54-2.8-.41.52-1.37.49-1.27,1.53.78.19.31-.88,1.27-.51.03.73-.14,1.67.25,2.04,1.05.29.99-.54,1.78-.51l-.13.25.13.25ZM35.01,37.43h.76v-.51h-.76v.51Zm-18.26,0c.04,1.32.63,2.08,1.52,2.55.36-.49.96-.73,1.02-1.53-.37-.75-1.52-1.72-2.54-1.02Zm22.83,2.55c.82.97,1.89.72,3.04.25-.58-1.29-1.58-2.15-3.04-2.55v2.29Zm94.36,1.02c1.42-.02,2.07-.81,2.28-2.04-1.38-1.93-4.01.3-2.28,2.04Zm19.02-2.8c-.27,1.48,1.1.11,0,0h0Zm32.98,1.78c.32,1.04.86,1.85,2.28,1.78.53-1.22.19-3.05-.76-3.56-.47.63-1.35.85-1.52,1.78Zm9.64,1.78c1.66,1.79.92,4.16-.51,5.6-.03,1.22.85,1.53,2.03,1.53,1.05-.74-.39-2.42,1.27-2.55-.03-.91-.94-.93-.76-2.04.59-.26,1.95-.52,2.28-.25.23-.54.77-.75.76-1.53-.88-1.84-2.07-3.35-3.81-4.33-.19,1.42-1.02,2.2-1.27,3.56Zm-157.78-3.31c-.2.06-.5,0-.51.25.2-.06.5,0,.51-.25Zm153.97.76h.51v-.51h-.51v.51Zm-9.89.51h.76v-.51h-.76v.51Zm-75.08.25c-3.85.34-.03,4.43,1.27,5.09v1.27c.59.39,2.02.84,2.54.51-.49-2.38-.28-4.43-1.78-6.11-.85.92-1.1-.92-2.03-.76Zm38.81,1.02c.04,1.23.56,1.98.76,3.06.93-.08,1.74-.29,2.28-.76-.26-1.34-1.88-4.27-3.04-2.29Zm6.59,1.27c.53.31.99.7,1.52,1.02.15-.87.85-1.19.76-2.29-1.29-.1-1.81.55-2.28,1.27Zm40.59,0c-.33-.63.74-1.06,0-1.27-.15.15-.59,1.21,0,1.27Zm-176.04,3.82c1.66-.49.8-2.96,0-3.82-2.95-1.11-2.29,3.97,0,3.82Zm133.42-3.06c.18-.19.63-1.25-.25-1.02.04.38-.09.94.25,1.02Zm8.88,1.53c.75-.35.58-1.62.76-2.55-1.66-.4-2.01,2.21-.76,2.55Zm-121.5,2.04c1.34-.49,1.57-2.54.76-3.82-2.77-1.46-3.05,3.74-.76,3.82Zm101.21-3.31c-.09,1.28.88,1.5,1.78,1.78.41-.48-.44-1.25-.51-2.04-.59-.08-.97.04-1.27.25Zm-21.81,1.78c-.21-2.55-6.06-2.83-4.06,1.53,1.92,1.09,4.22.38,4.06-1.53Zm37.04-1.78c-.27,1.48,1.1.11,0,0h0Zm35.26,1.27c-.15,1.51.88,1.83,2.28,1.78.87-.63.48-2.34,0-3.06-.93.25-2.12.24-2.28,1.27Zm-89.8.25c.29,1.32,1.26,1.96,2.79,2.04-.19-.78.7-.49.51-1.27-.17-1.68-2.68-2.96-3.3-.76Zm44.14-.76c.44.01.65-.2.76-.51-.44-.01-.65.2-.76.51Zm-7.61,3.31c.68-.7.68-2.61,0-3.31-.6,0-.75-.44-1.52-.25-1.35,1.41.28,3.18,1.52,3.56Zm-39.06.76c.96-1.21-.82-1.43-.51-2.8h-.76c-.92.99-.19,2.74,1.27,2.8Zm22.32-1.78c.74.37.74-1.14,0-.76v.76Zm31.2,4.07c1.31.62,2.9.05,3.3-1.02-.4-.96-.34-2.38-1.02-3.06-1.1.05-1.34.97-1.77-.25-.57,1.22-1.61,2.86-.51,4.33Zm37.29-3.82h.51v-.51h-.51v.51Zm-89.54.51c0-.26-.44-.32-.51,0,.28-.03.39.37.51,0Zm62.91,3.06c.8-.55.59-2.44,0-3.06-2.39-.36-2.78,3.55,0,3.06Zm-17.5-.51c.51.82,1.79,1.44,2.79,1.02-.2-.96.31-1.22.25-2.04-.37-.14-.62-.4-.76-.76-1.4-.05-2.43.28-2.28,1.78Zm-127.34,1.53c.57-.7.99-2.04.51-3.06-2.05-.3-2.34,2.87-.51,3.06Zm118.71-2.04c1.34.69,1.1,2.97,3.55,2.55-.15-.92.78-.75.76-1.53-.7-.32-.8-1.23-1.27-1.78-1.3.01-2.83-.77-3.04.76Zm75.59,1.02c.52.4,1.68.99,2.28.51-.44-1.01-.31-2.57-1.78-2.55-.29.56-.65,1.04-.51,2.04Zm-178.32-1.53c-.63,1.19-.34,2.43-.25,3.56.3.12.58.27.76.51,1.84-.02,2.54-1.18,3.3-2.29-.26-1.67-2.3-2.11-3.8-1.78Zm131.9,1.27c.35,1.09.57,2.32,2.28,2.04.44-.58.61-1.42.51-2.55-1.36-.89-1.68.05-2.79.51Zm23.08.76c.92.19,1.37,1,2.28.51.06-.2,0-.5.25-.51-.14-1.73-2.67-2.57-2.54,0Zm-90.3.76c.63.47.84,1.37,1.52,1.78.84-.84,1.19-1.79.76-3.31-.83-.01-.97-.72-2.03-.51.06.82-.45,1.08-.25,2.04Zm51.24-1.78c-.2.06-.5,0-.51.25.2-.06.5,0,.51-.25Zm-76.1,1.78c1.19.26,1.42-.44,1.27-1.53-1.16-.23-1.03.84-1.27,1.53Zm120.74-.25c.8-.13.99.55,1.52,0-.16-.78-.56-1.3-1.52-1.27v1.27Zm-89.79-.25c-.21.95-1.43,1.17-.76,2.29,2.32.5,3.87-.71,4.57-2.55-1.25-1.4-2.24.43-3.8.25Zm31.71-.25c.35-.01.56.12.76.25.12-.79-.68-.96-.76-.25Zm-23.34.25c-.2,1.89-.52,4.03,0,5.09,2.27-.27,2.44-2.65,2.28-5.35-1.04-.2-1.3.39-2.28.25Zm78.89,1.27c.35-.32.39-1.25-.25-1.27-.32.3-.11.96.25,1.27Zm23.34-.76c.29,1.01.29-1.01,0,0h0Zm-80.66,3.56c.56-1.17.42-3.58-1.27-3.31-.48,1.09.18,2.97,1.27,3.31Zm61.39.51c-.44.02-.79-.06-1.02-.25-.99,1.53.48,2.7-.25,4.58,1.49-.48,2.38-.35,4.06,0,1.59-.69,2.4-2.18,4.82-2.04.31-1.14.91-1.98,1.01-3.31-.31-.88-1.69-.68-1.27-2.29-2.95-.36-5.52,1.72-7.36,3.31Zm-56.31-2.55h.51c.01-.33.33-.35.25-.76h-.51c-.01.33-.33.35-.25.76Zm-66.97,3.06c.59.77,1.53,1.18,3.04,1.02.11-.49.09-1.1.76-1.02-.09-1.27-.89-1.83-.76-3.31-2.29-.18-2.78,1.46-3.04,3.31Zm95.63-2.55c-.28.03-.39-.37-.51,0,0,.26.45.32.51,0Zm-153.46,1.53c.39.88.91,1.63,2.03,1.78.47-1.71-1.35-3.54-2.03-1.78Zm92.33,1.53c-.2,2.31,2.38,3.79,3.8,1.78.35-4.33-3.53-4.98-3.8-1.78Zm102.22,2.29c1.14.04,1.48.89,2.54,1.02.38-.32.76-1.04,1.27-.51.74-1.2.6-3.35,0-4.58-3.23-.88-5.34,1.25-3.8,4.07Zm-179.08-3.82c-.28,1.89.79,2.43,2.28,2.55.26-.67.3-1.56.25-2.55-.81-.04-1.87-.6-2.54,0Zm160.31,1.53c-.44,2-.58,4.53,2.28,4.33.22-1.81-.05-3.26,1.01-4.58-.88-.35-2.23.05-3.3.25Zm-88.53.51c-.05,1.86,1.03,1.71.51,3.56.64.55,1.42.96,2.03,1.53.53,1.97-1,1.88-.76,3.56.53.78,2.19.57,2.79,0,.1-2.96-.77-3.89-.51-6.62-.78-1.12-2.44-2.59-4.06-2.04Zm-22.32,2.29c.53-.66.28-2.17-.76-2.04-.46.88-.16,1.85.76,2.04Zm135.45-.76c.29,1.01.29-1.01,0,0h0Zm-143.06,3.56c-.12-1.4-1.86-1.19-1.52-3.06-5.42-.52-.51,6.78,1.52,3.06Zm-45.15-2.04c-.48,1.99,2,2.63,3.04,1.53.22-1.75-.71-2.34-2.28-2.29-.14.37-.39.62-.76.76Zm174.26,0c0-.26-.44-.32-.51,0,.05.31.28.16.51,0Zm3.81,0c-.47.71-.71,1.66-1.01,2.55,1,.52.95,2.51,3.55,2.04,1.03-1.82-.05-5.48-2.54-4.58Zm10.65.76c.25,0,.3.21.51.25-.02-.4.03-.88-.51-.76v.51Zm-200.14,2.55c.63.21,1.36.33,2.28.25.75-3.03-2.68-2.73-2.28-.25Zm160.06-1.53c.3.32,1.05.2,1.01-.51-.47.04-.85.17-1.01.51Zm34.24,2.04c.45.23.88.47.76,1.27,2.22-.01,2.61,2.39,4.82,1.02-.21-1.04-.04-.88,0-2.04-1.4-1.76-4.24-2.83-5.58-.25Zm-31.71,0c2.07,3.35,5.63,5.21,7.86,8.4,0-4.27-4.02-6.65-6.09-9.68h-1.78v1.27Zm19.53,0h.51c.28-.37.27-.62-.25-.76-.01.33-.33.35-.25.76Zm1.01.76c.21,1.48,1.7,1.69,3.55,1.53.11-1.3-.7-1.68-.76-2.8-1.42-.56-2.28.25-2.79,1.27Zm-134.44,1.78c.53,1,1.56,1.49,3.3,1.27.64-1.28-.1-2.58-.51-3.56-2.04-.35-2.83.55-2.79,2.29Zm86.24-1.53v-.51c-.47-.85-1.24.76,0,.51Zm-5.07.25c.84-.07-.53-1.44-.25-.25l-.13.13.13.13c-.51.25-.51.51-.51.76.51-.76.63-.64.63-.64l.13-.13Zm46.93,1.78c.4.37.88.64,1.01,1.27,1.18-.34,2.21-.84,2.54-2.04-1.1-.17-1.36-1.18-2.54-1.27-.43.59-.95,1.08-1.01,2.04Zm-169.19.51c1.01.7,2.47.03,2.03-1.53-1.1-1.52-2.8.46-2.03,1.53Zm182.13.25c-1.93.42.05,2.58,1.01,2.55.07-.52.68-.51,1.01-.76.1-1.97-1.46-3.62-3.3-2.8.36.4,1.32.2,1.27,1.02Zm-60.12-.76c.29,1.01.29-1.01,0,0h0Zm64.68,2.04c.42.94,1.39,1.32,1.27,2.8.6-.33,1.75-.11,2.28-.51.4-1.96-.18-4.83-3.04-4.33.31,1.16-.7,1-.51,2.04Zm-193.54,1.78c2.56.81,2.97-2.8,1.27-3.31-.78.74-1.5,1.55-1.27,3.31Zm174.01-2.29c.06.79.71.99,1.02,1.53.56-.56-.25-1.04,0-2.04-.69-.19-.51.51-1.02.51Zm-86.24,1.53c.07.52.69.5.76,1.02.96.2,1.21-.31,2.03-.25.41-2.46-2.59-2.95-2.79-.76Zm94.62-1.02c-.24,1.26.31,1.73.76,2.29,1.26-.06,1.08-.11,2.03-.25.23-1.25-.84-1.2-.51-2.55-.72.21-1.57.3-2.28.51Zm-53.52,2.29c.71.39,1,1.21,2.28,1.02-.01-.44.19-.65.51-.76-.09-1.1-1.41-.97-1.01-2.55-.78.18-.75-.44-1.52-.25.15,1.08-.18,1.68-.25,2.55Zm9.64,1.78c1.54.02,2.14.23,3.55.76.89-.99,1.41-2.94.51-4.33-2.8-1.75-5.74.79-4.06,3.56Zm47.69-2.55c-.69.77.77-.69,0,0h0Zm-141.54,1.27c.22.46.65.7.76,1.27,1.06.13,1.42-.44,2.28-.51-.03-.73.14-1.67-.25-2.04-1.44-.09-2.1.61-2.79,1.27Zm88.78,0c.29,1.07.79,1.93,1.78,2.29,1.13-.22,1.24-1.47,1.27-2.8-1.15-1.2-2.02-.29-3.04.51Zm60.63,3.56c.44-.49,1.04-.82.76-2.04-1.46.44-.61-1.43-1.52-1.53-.11.48.34,1.53-.51,1.27-.44-1.14-.02-1.72-.76-2.29-.99,1.82.92,3.39,2.03,4.58Zm-71.79-3.56c-.27,1.48,1.1.11,0,0h0Zm-117.19,2.29c-.29-.81-.13-2.07-1.27-2.04-.05,1.15-.21,2.42,1.27,2.04Zm146.36-.51c-.67-.34-.69-1.34-1.77-1.27-.25,1.35,1.14,2.3,1.77,1.27Zm-89.29,1.78c1.28,1.21,1.66,4.58,4.31,3.56-.42-1.17-.61-1.89-.25-3.31-.68-.59-1.27-1.27-1.27-2.55-1.55-.66-2.55.86-2.79,2.29Zm56.82-.25c1.15-.12,1.81-.73,1.78-2.04-1.41-1.15-2.74.8-1.78,2.04Zm-69.76.76c.96.49.96.37,2.03,0,.49-.95-.57-1.33-.25-2.8h-1.52c-.3.71-.28,1.76-.25,2.8Zm77.37.76h-.51c-.39.63.86.75.76.25l.13.13.13-.13c.3.63,1.55.31,1.27,1.53-1.5.07-2.85-.02-3.8-.51v-.76h.25v-.25c.21.05.25.26.51.25.09-.51-.05-.8-.51-.76h-.25v.25c-.23-.11-.45-.22-.51-.51h-1.27c-.6.42-.55,1.49-.51,2.55,1.03.24,2.13.41,2.03,1.78-.36-.02-.72-.04-.76.25,1.54.57,1.5,2.74,3.55,2.8,1.39-.73,3.79-.44,4.06-2.29-.56-.2-1.38-.15-1.52-.76-.24-1.85.4-2.82,2.28-2.55,1.74-4.3-3.41-5.76-6.09-4.07-.02,1.12.02,2.19.76,2.55l-.13.13.13.13Zm61.89-2.55c.06,1.04.95,1.26.76,2.55.89-.43,1.21-1.06,1.27-2.8-.68-.59-1.5-.47-2.03.25Zm11.41.25h.51v-1.02h-.51v1.02Zm-130.38,2.8c1.42.36,2.09,1.46,3.81,1.53.81-2.13-1.1-3.38-1.78-4.84-2.13-.28-2.63,1.59-2.03,3.31Zm44.9-2.29c.37-.14,1.31.3,1.27-.25-.52-.07-.5-.69-1.01-.76.06.48-.29.56-.25,1.02Zm32.47-.51c-1.27-.67-2.19.96-2.79,1.78-.23,1.98,2.35,2.52,3.55,1.53.03-1.83-.34-2.4-.76-3.31Zm-9.64,1.02c.04-.56-.21-.81-.76-.76-.05.56.21.81.76.76Zm54.28-.25c0,.6.44.75.25,1.53.49-.26.79-.71,1.02-1.78-.59-.08-.97.04-1.27.25Zm-15.47,2.29c1.52.93.94,3.98,1.78,5.6,1.68.38,3.92-.29,6.34-.51,1.19-.84,2.21-1.86,3.81-2.29.39-.97,1-1.71.76-3.31-2.25.16-5.65.17-7.86,0-.35-.16-.04-.98-.51-1.02.05.56-.21.81-.76.76-.4-.37-.2-1.33-1.02-1.27-1.4.12-1.76,1.29-2.54,2.04Zm18.26.76c.59.93,1.81,1.23,3.04,1.53.99-.53,1.49-1.56,1.27-3.31-1.48-1.03-4.58-1.66-4.31,1.27l-.13-.13-.13.13c-.45.14-.04.71,0,.25l.13.13.13.13Zm-55.81-2.29c-.38,2.38,1.73,3.47,2.79,3.56.09-2.51-.3-4.24-2.79-3.56Zm12.94,1.78c.34.76,1.08,1.12,2.03,1.27.08-.6.88-.47.76-1.27-.3-1.78-2.68-2.36-2.79,0Zm-36.53,0c.37.14.62.4.76.76,1.24-.03,2.01-.53,2.28-1.53-1.12-1.02-2.71-.82-3.04.76Zm-70.77-.51c-.24,1.93,1.39,2,2.28,2.8.38-.13.64-.38,1.01-.51-.12-1.06-.4-1.98-.76-2.8-1.12-.11-1.96.07-2.54.51Zm91.06,3.56c1.26-.26,1.65-1.4,1.78-2.8-.83-.52-1.84-.87-3.04-1.02-.9,1.42-.28,3.45,1.27,3.82Zm-25.11-.25c1.05.53,1.74.53,2.79,0-.08-1.11-.41-1.97-.76-2.8-2.08-.48-1.72,1.49-2.03,2.8Zm80.41-1.27c.8.04.87-.65,1.01-1.27h-.76c.1.61-.46.55-.25,1.27Zm-44.64.25c.07-.58-.06-.96-.51-1.02-.13.65-.43.99.51,1.02Zm-143.82-.51c-1.7-.79-2.7,1.27-2.03,2.8.85.44,1.12-.13,2.28,0,.25-.95.34-1.74-.25-2.8Zm46.93,1.27c.62,1.16,2.02,1.54,3.04,2.29.39-.45.7-1,1.01-1.53-.62-2.03-3.03-2.97-4.06-.76Zm101.72,4.58c.04-.3.4-.28.76-.25,1.46-2.26-.72-5.56-3.3-4.58-.11-.48.35-1.53-.51-1.27-.22,2.29.76,5.5,3.04,6.11Zm-76.86-3.31c.22,1.39,1.71,1.51,3.3,1.53.35-2.77-2.11-2.88-3.3-1.53Zm13.19,0c.64-.03.98-.37,1.01-1.02h-1.01v1.02Zm-43.88,4.07c.52-.08.5-.69,1.02-.76.02-2.14-.6-3.65-2.54-3.82-2.12.75-.74,5.03,1.52,4.58Zm13.95-.25c.53-.32.95-.74,1.27-1.27-.72-.8-.64-2.41-1.78-2.8-2.42.11-1.76,4.36.51,4.07Zm12.68-4.07c-1.16-.12-1.86.69-3.04,1.02-.36.1-.9-.32-1.27-.25-.53.09-.9.71-1.27.76-.45.06-.79-.44-1.27-.25-3.06,2.36-4.25,6.6-6.09,10.19,0,4.01,3.13,6.8,4.31,10.44,1.41.46,1.7,2.03,2.79,2.8.53,1.26.65,2.91,2.28,3.06,1.82-1.82,3.28-4.01,3.04-7.89-1.05-1.4-1.49-3.43-2.03-5.35-.82-.7-1.93-1.12-2.28-2.29.11-1.47-.11-2.61-.25-3.82,1.08-2.74,2.37-5.25,6.59-4.84.57-.71,1.77-.77,1.78-2.04-1.69.02-1.9-1.38-3.3-1.53Zm121,2.55c.32,1.03.98,1.73,1.27,2.8,1.26-.35,2.56-.66,3.3-1.53.3-2-.6-2.8-1.27-3.82-2.23-.28-1.69,2.21-3.3,2.55Zm-57.07,8.91c.07-1.99-.47-4.36-.51-6.87.34-.08.49-.36,1.02-.25.49.69.84,1.54,2.03,1.53.25-1.44-1.08-1.3-1.52-2.04.38-.22.37-.82.51-1.27-.92-.69-1.27-1.95-2.79-2.04-.46.9-1.44,1.27-1.52,2.55.58.52,1.29.91,1.78,1.53.17,1.52-.81,1.48-.25,2.8-.66.36-1.17.86-1.78,1.27-.15.83.17,1.18.25,1.78,1.35.44,1.76-.9,2.54-.25-.4.38-.19,1.04.25,1.27Zm54.03-9.93h1.52v-.76c-.77-.01-1.29.23-1.52.76Zm-32.22.51c.3,1.01.3-1.01,0,0h0Zm34.75-.25c-.2.06-.5,0-.51.25.2-.06.5,0,.51-.25Zm-139,5.09c-1.76-.35-1.7-2.54-2.54-3.82-1.08-.31-1.29-.02-2.03.51-.21,3.01.1,5.69,0,9.17,1.21,3.79,4.12,5.88,9.13,5.86.23-3.66-4.24-4.48-3.55-9.42-1.17-.04-1.29-1.52-1.01-2.29Zm127.08-2.55v-.76h-.76c-.04.56.21.81.76.76Zm2.28,5.86c-1.11,1.77-5.21.54-7.36,1.27-.68,3.34-.62,7.52-2.28,10.44-2.36,1.11-4.34,2.6-6.09,4.33-3.36.7-6.47,1.66-10.15,2.04-.84-.09-.9-.96-1.52-1.27.05.56-.21.81-.76.76-1.35-.43-3.11-.44-4.06-1.27-1.39.12-2.09-.45-3.04-.76-1.16-3.11-4.36-5.43-3.81-9.42-.97.21-.98-.54-1.27-1.02-.18-1.11.43-1.43.25-2.55-1.25-1.46-2.51-2.91-4.31-3.82-1.27.76-1.57,2.5-2.03,4.07.91,1.63,3.37,1.71,5.58,2.04-1.13.31-.73,2.16-1.27,3.06.48.54.73,1.3,1.01,2.04-.07,3.64,2.75,4.37,3.81,6.88,3.91,1.86,7.25,5.6,13.19,4.58.67.77,1.94.94,3.04,1.27,2.51-.62,5.16-1.1,8.12-1.27.39-.37.99-.54,1.52-.76,5.72-.71,8.27-4.6,11.42-7.89v-1.78c1.1-.77,1.78-1.95,2.54-3.06.21-4.29,2.26-7.2,1.27-11.97-.61-.66-.91-1.63-1.52-2.29-5.07-.79-1.87,3.75-2.28,6.37Zm6.34-4.33h-.76c-.22.82.84.35.76,1.02,1.09-.96,2.42-.23,3.55-1.27-.07-.78-.55-1.15-.76-1.78-1.43-.34-2.91.94-2.79,2.04Zm-187.96,2.29c2.65.37,4.16-1.48,3.3-3.82-2.75-1.35-4.31,1.43-3.3,3.82Zm130.89-2.29h.51v-.51h-.51v.51Zm11.16,0c.29,1.01.29-1.01,0,0h0Zm-10.65.76h.51v-.51h-.51v.51Zm9.38.25c.21.72-.36.66-.25,1.27,1.16.2,1.28,1.43,2.54,1.53-.58-.78-.61-2.1-.76-3.31-.59.08-1.05.31-1.52.51Zm-85.23.25c-.32-.01-.35-.33-.76-.25-.39.63.86.75.76.25Zm139.51.51c-.12.81-.8,1.07-.76,2.04.68,1.15,1.86.26,3.04.76.8-.64,1.65-1.23,1.78-2.55-1.45-1.35-1.95-.5-4.06-.25Zm-154.23,2.8c.78.49,1.5,1.04,2.54,1.27.88-.47,1.74-.97,2.03-2.04-.47-2.44-5.58-4.15-4.57.76Zm28.66-.76c.38.72,1.33.87,2.54.76.26-2.13-2.57-3.68-2.54-.76Zm9.38.25c0-.26-.44-.32-.51,0,.29-.03.4.37.51,0Zm93.35.51c.01-.44-.2-.65-.51-.76-.36.37-.37.99.51.76Zm-29.68.51h1.01v-.76c-.64-.04-.79.39-1.01.76Zm50.73,2.29c-.73-1.13-1.05-2.68-2.79-2.8-.88,1.8,1.05,2.8,2.79,2.8Zm-78.13-2.29c-.61.85.85-.62,0,0h0Zm-43.63,2.55c1.12,1.12.49,3.05.25,4.84.5.69.98,1.39,2.03,1.53.98-1.07,1.84-3.02.25-4.07,1.67-1.4.08-4.15-1.27-4.84-.3.04-.72-.04-.76.25.68.62-.95,1.07-.51,2.29Zm74.07-2.04c.25,0,.3.21.51.25,0-.26.21-.3.25-.51-.26,0-.3-.21-.51-.25,0,.26-.21.3-.25.51Zm-146.62,2.04c1.06,1.21,2.72.04,2.79-1.27-.97-1.6-2.79-.76-2.79,1.27Zm125.31-1.02c-.72,2.29,1.92,3.04,3.55,3.06.32-2.27-.64-3.26-1.78-4.07-.49.82-1.19.85-1.78,1.02Zm-5.07,1.78c.77.35,2.09.41,2.54-.25v-1.27c-.44-.66-1.69-.52-2.79-.51-.31.34.02,1.47.25,2.04Zm49.72-1.27c-.05.99.27,1.6,1.02,1.78.06-.2.21-.3.51-.25v-1.27c-.53-.17-1.13-.67-1.52-.25Zm-53.78,4.33c.56-.29.84-.85,1.52-1.02-.21-1.57-.67-2.89-2.03-3.31h-.76c-.99,1.94-1.13,3.83,1.27,4.33Zm28.92-3.31c.98.2.98-1.22,0-1.02v1.02Zm51.75,1.53c1.04.06.87,1.34,2.03,1.27-.36-1.24.82-2.74-.76-3.56-.83.36-1.57.8-1.27,2.29Zm-6.85-.76c-.34,2.46.67,3.57,2.79,3.56.64-.46,1.21-.99,1.27-2.04-.64-1.99-2.24-3.3-4.06-1.53Zm-111.36.25c-.08.93.28,1.42.51,2.04.76,0,.86-.66,1.52-.76-.08-.6-.31-1.05-.51-1.53-.62-.03-1.22-.04-1.52.25Zm69.5,1.27c-.34,2.35,1.79,2.93,3.3,2.04.4-1.8-.23-2.64-1.27-3.56-.33.86-1.76.61-2.03,1.53Zm-106.28-.76c-.54,1.4-.05,2.59.76,3.31,1.12.1,1.96-.07,2.54-.51.49-2.89-1.19-3.8-3.3-2.8Zm80.16,2.29c.64.88,2.57.51,3.3,0,.06.82-.45,1.08-.25,2.04.49.36,1.02.67,1.77.76.65-.84,1.12-1.44,1.01-2.29-.27-2.19-3.69-1.28-4.82-2.8-.16.94-1.25.95-1.02,2.29Zm15.22-1.53c.45-.06,1.27.26,1.01-.51-.47.04-.85.17-1.01.51Zm50.48-.25c0-.26-.44-.32-.51,0,.28-.03.4.37.51,0Zm-58.09,2.04c.98,1.46,3.78.89,4.31.51-1.07-.11-.73-1.64-1.27-2.29-1.81-.21-3.38-.62-3.04,1.78Zm9.89-1.02h.51v-.51h-.51v.51Zm21.56,2.04h1.78c-.03-1.08-.75-1.45-1.27-2.04-.22.62-.59,1.1-.51,2.04Zm-25.87-1.27c-.09-.21-.67-.31-.76,0-.17.59.99.55.76,0Zm60.62.51c-.18-.82-.79-.82-.25,0,0,.35.12.56.25.76-.52.25-.55.98-.51,1.78h-1.02c.18.75.76,1.11.51,2.29.64.8,2.26.61,2.54,1.78-.89,1.31-1.68,2.73-1.78,4.84.84.86,2.3,1.08,2.28,2.8.6,0,.75-.44,1.52-.25.35-2.42-.19-4.05-1.02-5.86.6-.93,1.24-1.81,2.03-2.55-1.17-1.54-1.07-4.35-2.54-5.6-.81.39-1.12.09-2.03,0Zm5.83,0c-.3.04-.72-.04-.76.25.3-.04.72.04.76-.25Zm-71.02,3.56c-2.16,2.07-5.05,3.42-7.61,5.09-.36,2.78-1.2,5.08-2.54,6.87.98,3.24-1.23,5.11-2.28,7.13,2.42,1.82-.6,5.21-2.54,5.86-.25-.34-.68-.51-1.01-.76.2,1.7,0,2.48.76,3.82,1.3.2,1.84-.36,3.04-.25.59.34.39,1.47.76,2.04,1.21.2,1.63-.4,2.79-.25.71,1.92,1.82,3.44,4.31,3.57.84-2.97,2.58-5.05,4.57-6.88-.76-1.53-1.84-3.81-1.27-5.86-1.64-2.32-.51-5.04-.76-8.4,1.17-1.29,1.36-3.56,3.05-4.33-.12-1.73.97-2.25,2.03-2.8.75-2.81,2.55-4.57,5.07-5.6-.21-.72.36-.66.25-1.27-2.77-3.49-4.87,3.4-8.62,2.04Zm37.03-.76c.25-.26.5-.51.76-.76-.07-1.28-.94-1.77-2.28-1.78-.15,1.5.26,2.45,1.52,2.55Zm-27.9-2.29c-.2.06-.5,0-.51.25.2-.06.5,0,.51-.25Zm-84.72,2.04c-2.83.46-2.9-1.84-5.58-1.53-1.07,2.43-3.59,3.54-5.33,5.35-1.34,1.4-2.08,2.94-3.55,4.07h-1.01c-.62,1.59-.14,2,0,3.31,3.52,1.39,6.3,3.52,8.62,6.11-.11.96.5,1.2.76,1.78,1.99-.32,4.24.31,6.09,0,1.63-.28,2.42-1.6,3.81-2.04-.73-3.45,2.76-2.66,3.04-5.09-1.56-.56-4.42.65-5.33-1.02.24-.86,1.42-.78,2.03-1.27.23.19,1.84.84,1.52,0,0-1.37-2.12-.59-2.28-1.78-.77-.08-1.97.28-2.03-.51,1.9.29.25-2.98,1.78-3.06,1.86-.2,3.23,1.27,4.82.51-.31-2.49-3-2.59-3.8-4.58h-1.27v-1.27c-1.23-.13-1.12,1.08-2.28,1.02Zm57.07,1.78c2.49,1.32,4.07-.67,2.54-2.8-2.11-1.29-3.3.38-2.54,2.8Zm-32.21-1.53c.45.75,2.15,1.15,2.79.25-.05-.88-.9-.97-1.02-1.78-1.39-.29-1.56.64-1.78,1.53Zm52.25-.25c.4-.38.37-1.45-.51-1.27-.4.38-.37,1.45.51,1.27Zm27.14,1.02c.28,1.16.96,1.92,2.03,2.29,1.89-.53,1.18-3.23,1.27-4.33-1.26.52-2.72.83-3.3,2.04Zm27.14-1.27c-.15,1.34.45,1.93.25,3.31,1.66,1.13,3.46,2.12,3.8,4.58h1.52c1.89-4.04-1.88-10.47-5.58-7.89Zm-65.7,4.33c1.42.15,1.22-1.32,2.28-1.53-.8-.98-1.06-2.5-2.03-3.31-.86,1.57-1.21,3.05-.25,4.84Zm44.14-4.07c.4-.02.88.03.76-.51h-.51c0,.26-.21.3-.25.51Zm-87.77,2.55c.69-.82-.2-1.69,0-2.8-.72.27-1.06.27-1.78,0-.59,1.75.13,2.66,1.78,2.8Zm74.83-.76c.25,1.37,1.72,1.5,2.79,2.04-.13-1.06.74-1.12.51-2.29-.56-1.59-3.24-2.24-3.3.25Zm-73.31.76c-.29.03-.4-.37-.51,0,0,.26.45.32.51,0Zm89.54-.25c-.7.97.93,1.12,0,0h0Zm-90.81,2.29c.44.01.65-.2.76-.51-.4.02-.88-.03-.76.51Zm60.88,1.27c-.09,1.03,1.68,3.61,3.55,2.8,3.64-2.99-3.17-6.96-3.55-2.8Zm-28.41-.51c.74.37.74-1.14,0-.76v.76Zm-35.26,2.04c.75.43,1.48.89,2.54,1.02,1.02-.73.52-1.53.51-3.06-.83-.18-1.62-.41-2.54-.51-.11.91-.68,1.36-.51,2.55Zm9.89-2.04c.77.7-.69-.77,0,0h0Zm24.86,7.89c.31-.88.55-1.82.51-3.06-.28-.83-1.34-.86-1.78-1.53.06-1.5-.17-2.72-1.27-3.06.26,2.7-1.14,7.73,2.54,7.64Zm5.07-7.13c-.55,2.68,1.88,2.36,3.3,3.06.25-.95.54-.67.25-1.78.45-.06,1.27.26,1.02-.51-1.03-1.14-2.89-1.59-4.57-.76Zm68.74,3.31c0,1.82,1.87,2.17,3.04,3.31,1.8-.06,1.81-1.91,2.03-3.56-1.11-.75-1.14-2.59-2.54-3.06-1,.21-2.54,2.81-2.54,3.31Zm-74.32-2.55c.04,1.32,3.35,1.95,3.04,0-1.02.04-2.21-.65-3.04,0Zm26.89,3.82c.32-.87,1.26-1.11,1.52-2.04,0-.77-.54-.99-.76-1.53-2.53-.73-2.06,3.24-.76,3.56Zm-72.8-1.78c.39-.37.25-1.33-.51-1.27-.53.51,0,1.09.51,1.27Zm126.58-.25c1.26-.34.4-1.2,0,0h0Zm-48.19,2.55c-1.19-1.04-1.78.31-3.55,0-.88,1.34-.22,2.97.76,3.82,1.93-.01,3.72-.17,4.82-1.02.11-1.04-.83-1.03-.51-2.29.79-.31,1.61-.59,2.79-.51.14-.97.91-1.46.51-2.29-2.26-1.97-3.65.95-4.82,2.29Zm50.98-1.78c-1.52.25-1.99,1.56-2.03,3.31.78.83,1.25,1.97,2.79,2.04,1.19-1.71-.28-3.77-.76-5.35Zm-44.14.51c.29,1.01.29-1.01,0,0h0Zm33.74,0c0-.26-.44-.32-.51,0,.28-.03.39.37.51,0Zm-99.43.51c-.28.57-.42,1.28-.76,1.78,1.05-.2.48,1.22,1.52,1.02.39-.8,1.32-1.06,1.52-2.04-.11-.59-1.12-.68-.51-1.27-.79-.03-.72.8-1.78.51Zm96.39,3.56c1.56.62,1.53,2.15,3.55,1.78.22-.97,1.15-1.23,1.01-2.55-1-2.14-3.14-1.97-5.07-2.8-1.19,1.05.77,1.91.51,3.56Zm-29.93-.25c1.25.06,2.05-.32,2.28-1.27-.76-2.45-4.2-1.14-2.28,1.27Zm24.61-1.02c-2.18-.87-3.83.64-5.58,1.02.59,1.44,3.05,1.01,3.3,2.8h2.28c.38-.72,1.12-1.08,1.27-2.04-.63-.98-.26-2.96-1.52-3.31-.18.78.44.75.25,1.53Zm24.86.51c.58,1.28.11,3.17,2.03,3.56,1.65-.94.21-3.9-.76-4.58.03,1.48-.3,1.6-1.27,1.02Zm-86.5,1.53c.79,1.27,3.5.88,3.55-.76-.64-1.6-4.05-2.46-3.55.76Zm20.55.51c1.59.15,2.69-.19,2.54-1.78-.17-.94-1.51-.69-2.28-1.02-.61.37-.73,2.14-.25,2.8Zm22.58.25c.91-.07,1.22.47,2.03.51-.04-.81.67-.85.51-1.78-.71-1.83-3.04-1.33-2.54,1.27Zm6.59,0c.61-.15,1.16-.37,2.03-.25,1.77-2.89-2.5-2.73-2.03.25Zm-95.88-1.53c-1.83,2.07-3.46,4.33-6.34,5.35-.66,1.46-2.02,2.21-3.3,3.06.32,2.12-2.29,3-3.55,4.33-.28,2.12-1.99,3.54-2.28,5.86-.19,1.48.36,2.9,0,4.58,1.36,3.22.85,8.32,3.55,10.18.28-2.09.87-4.37.25-6.62.31-.8.94-1.26.76-2.55,1.39-.81,2.16-2.25,3.3-3.31,2.16-1.15,4.01-1.05,5.33-3.06,1.2-.15,1.73-.98,2.54-1.53.08-.6.4-.96.25-1.78.84-.43,1.17-1.37,1.78-2.04.44-.23,1.36,0,1.27-.76-.02-1.66-.85-2.23.25-3.31-1.36-2.29-1.49-5.8-2.28-8.66-.78-.19-.75.44-1.52.25Zm120.49,1.02c.29,1.01.29-1.01,0,0h0Zm-31.96,2.29c.59-.02,1.39-1.12.76-1.53-.37.4-1.02.5-.76,1.53Zm-82.44.51c.37.39,1.3.22,2.03.25.2-1.39-.39-1.99-1.78-1.78-.29.3-.29.9-.25,1.53Zm3.04-.25c.44.01.65-.2.76-.51-.44-.01-.65.2-.76.51Zm-31.71,0c.08.6.4.96.25,1.78.98.16,1.04.21,1.77-.25-.18-.58-.22-1.3-.51-1.78-.63-.03-1.22-.04-1.52.25Zm61.64,1.27c1.04.06,1.34.87,2.28,1.02,1.77-2.17-2.57-3.96-2.28-1.02Zm5.07-.76c1.29,2.23-2.06,2.59-1.27,4.33,1.52.04,2.07-.92,3.55-.25.68-.85,1.34-1.71,1.78-2.8-.59-2.2-1.95-.59-4.06-1.27Zm-31.96,1.27h.51v-.51h-.51v.51Zm52.76,1.02c-.28-.65.87-1.31-.25-1.27.13.8-.6,1.04.25,1.27Zm2.28,0c-.66,1.46-1.26,2.38-.25,3.82,1.33.03,1.85.38,2.79-.25.17-1.95-.16-3.4-.76-4.58-.1.83-.61,1.26-1.78,1.02Zm59.61,83.01c.92.1.35-.47-.25-.25l-.13-.13-.13.13c-.67-3.12-1.01-8.77,1.52-11.46.19-1.01.19-1.02,0-2.04.41-.78,1.35-1.02,1.52-2.04.21-4.38,1.97-7.19,3.55-10.18-.55-1.49-1.01-3.06-1.02-5.09-1.06-1.57-2-3.25-2.03-5.86-.35-.67-1.16-.88-1.27-1.78.15-.15.59-1.21,0-1.27-.66.81-1.14-.71-1.52-1.02h.25v-.25c.62.4.74-.87.25-.76.05.22-.1.24-.25.25v.25h-.25v.25c-1.55-2.86-3.36-5.45-5.33-7.89-.6-3.36-.5-5.94-1.78-8.4.49-1.32,1.22-1.52.76-3.31,1.3-1.51,3.29-2.43,5.33-3.57,2.92-1.62,4.94-2.86,5.83-6.62.75-.52,1.61-.93,2.28-1.53-.83-2.83,1.38-5.53.25-8.66-1.05-2.34-5.29-3.26-6.34-.25.3,1.14,1.39,1.49,1.78,2.55,1.3.05,2.93-.22,3.04,1.02-2.21,2.11-3.06,5.58-7.1,5.86-1.57,3-5.3,3.84-6.85,6.88-1.26.09-1.46,1.26-2.54,1.53-.83,3.07-.76,7.05-2.03,9.68.12,3.13,1.53,5.36,1.52,7.89,1.11,1.38,1.21,2.44,2.54,3.31.21,2.33,1.95,3.14,2.79,4.84.2,1.92,1.79,2.44,2.03,4.33,2.04-.02,3.09,2.72,3.8,4.84-.1,2.47.53,4.09.51,7.13-.32.86-1.41.96-1.52,2.04.09,3.33-2.88,4.9-2.03,8.15-1.97.83-1.56,4.03-3.04,5.35.8.76.79,3.52,1.01,5.6,1.07,1.13,1.59,2.82,2.28,4.33-3.63,1.47-7.24.2-11.42.25-2.14-1.5-5.56-1.72-8.37-2.55,0-.77.15-1.68-.76-1.53-.34.64,1,.8.25,1.02-4.88-.39-7.73-3.51-12.18-3.56-1.52-2.04-5.13-1.98-7.86-2.8-.45.65-1.84.36-2.28,1.02-.11.88.1,1.43.25,2.04.95.66,3,.22,3.04,1.78-.11,1.2-1.32.41-2.28.51-1.65.16-3.29.63-4.82.25-.77-.24-.8-1.24-1.78-1.27-1.57,1.31-1.89,3.88-5.07,3.56-.19.99-.7,1.68-1.78,1.78-.03,1.24.14,2.68-.25,3.56.9.89,1.34.68,3.04.76,2.9-1.34,6.26-3.55,9.89-3.31.38-.3.62-.73,1.27-.76,3.12-.62,6.11-.32,8.88-.25.78.74,2.67.38,3.8.76.78.19.49-.7,1.27-.51,5.1,1.26,9.74,3.12,14.71,3.82,2.41-1.34,5.62.08,7.61.76,2.61-1.37,7.27,1.21,9.64-.76.32.78.83.13,1.78.51,1.43-1.45,4.02-1.73,3.8-4.84-.79-.56-1.13-1.58-2.03-2.04-1.6-.08-1.93,1.12-3.55,1.02-.02-.69.42-.51,0-1.02-1.49.86-1.48-1.19-2.28-1.78l.13-.13-.13-.13Zm-118.71-81.22c1.19,0,2.59.22,2.54-1.02-.48-1.64-3.07-1.16-2.54,1.02Zm-32.98.76c0-.68.14-1.5-.51-1.53.15.52-.41,1.77.51,1.53Zm10.65-1.27c-2.23-.51-3.45.09-5.33.51-.94,1.35-1.85,2.72-3.55,3.31-.24,2.48-1.62,3.81-2.79,5.35h1.78c1.9-1.32,4.4-2.04,6.34-3.31h2.03c.99-1.21,1.88-2.52,2.28-4.33-.1-.66-.76-.77-.76-1.53Zm53.01,4.33c2.67.55,2.81-2.03,2.03-3.56h-2.79c.31,1.13.46,2.43.76,3.56Zm-26.89-2.55c.17,1.36,1.25,1.8,2.28,2.29.68-.87-.05-2.02-.25-2.8-.93-.08-1.41.28-2.03.51Zm110.34.25v-.76h-.76c-.05.56.21.81.76.76Zm-1.52,4.07c.38,1.4,2.09,1.5,4.06,1.78,1.36-1.59,1.58-5.89-.76-6.62-1.23,1.03-3.86,2.77-3.3,4.84Zm-56.06-4.58c-.92,1.2,1.49.34,0,0h0Zm8.62.51c-.36,1.56,1.52,1.91.76,3.06,2.35.17,2.42-4.07-.25-3.56-.05.29-.28.4-.51.51Zm3.55,1.78c.18-.19.63-1.25-.25-1.02.04.38-.09.94.25,1.02Zm-31.96-.76c-1.91-.14-2.68.88-3.04,2.29.59.85,1.25,1.64,2.54,1.78,1.68-.53,1.82-2.93.51-4.07Zm-38.56,1.53c-.75,1.85,1.23,3.14,3.04,2.29.4-1.75-.99-4.07-3.04-2.29Zm111.61.25h.51v-.51h-.51v.51Zm11.16,2.04c.55.04.11-.9.25-1.27h-.76c.11.48-.35,1.53.51,1.27Zm-88.53-.76c-2.22-.31-3.59,1.79-2.79,4.84,1.1,0,2.28.08,3.05-.25.03-2.02-1.26-2.94-.25-4.58Zm-26.13,1.53h2.54c0-.68.14-1.5-.51-1.53-.62.56-2.33.04-2.03,1.53Zm49.72,1.53c-.4,1.57-1.95,2.77-2.28,4.84-.34,2.09.41,4.36-.25,6.62.14,1.05,1.95,1.48,1.27,2.55,2.06-.22,2.86,1.46,4.57,1.53,2.19.08,4.18-2.09,6.85-2.04.83-1.96,2.93-2.66,4.06-4.33,0-1.8.13-4.1.51-6.37-.5-1.62-1.51-2.73-2.03-4.33-1.96-1.21-3.83-1.41-6.6-1.02-2.11.76-4.16,1.59-6.09,2.55Zm52.76-1.78c-1.14,1.29-2.73,5.09.25,5.6,1.3-1.1,2.79-.44,4.06-1.53-.89-1.91-1.56-4.04-4.31-4.07Zm-98.67,2.04c.54-.52.13-1.21-.51-1.27-.04.63-.05,1.23.51,1.27Zm-14.46-.25c-.27,1.34,0,1.35.51,2.29.73-.03,1.66.14,2.03-.25.3-.49-.05-2.02-.76-2.29-.11.57-1.25.1-1.78.25Zm-67.73,3.82c1.7-.57,1.26-4.27-1.01-3.82-1.15,1.16.02,3.25,1.01,3.82Zm75.08,1.02c2.11.25,2.54-1.19,2.28-3.31-1.82-2.39-3.93,1.55-2.28,3.31Zm38.3-3.06c-1.42.61-3.23,1.02-4.82.76-.56.62-1.73.64-2.54,1.02-.89.97-.67,3.06-2.79,2.8.47.99-.37,1.63-.25,2.55.32,2.49,3.22,4.47,3.3,7.38,2.76,1.56,4.15,4.49,8.88,4.07.97-.71,3.52-.67,4.82-.25,3.45-2.69,2.71-10.67,2.28-14.51-2.53-1.86-5.81-3.21-8.88-3.82Zm-111.61,1.02c.68.17.49-.53.76-.76h-.76v.76Zm81.17,3.31c1.13-.17,1.31-.73,2.54-.25-.87-.91-.89-2.67-2.03-3.31-.53.99-1.47,2.53-.51,3.57Zm-40.84-1.02c.78-.18.92.26,1.52.25.31-1.34-1.85-1.21-1.78-.25h-.25v.25c-1.15-.77-2.16.45-2.28,1.53.45,1.16,2.45,1.57,3.04.51.15-1-.22-1.48-.51-2.04h.25v-.25Zm2.28,1.02c1.21.28,1.04-.83,1.01-1.78h-1.01v1.78Zm20.55.25c1.1-.03.85-1.71,0-1.78v1.78Zm12.43-.76c-.71.48-.68,2.75-.25,3.56,1.18.08,2.2,0,2.79-.51.02-1.88-.74-3-2.54-3.06Zm-19.28,3.82c.8.39,2.03,1.39,3.04.76.22-.75-.07-2.91-.51-3.82-1.78.08-2.19,1.54-2.54,3.06Zm-14.21-1.53c.59-.59.06-1.35-.76-1.27.08.59.26,1.1.76,1.27Zm-44.9,2.29c1.12.02,1.94-.44,2.03-2.04-.81-.29-1.68-.52-2.79-.51-.71,1.2.39,1.71.76,2.55Zm65.19,0c.79-.03.72.8,1.78.51.39-.37.22-1.3.25-2.04-.79.28-.81.26-.76-.76h-.76c-.25.68-.52,1.34-.51,2.29Zm21.31-1.53c-.14,1.67.26,2.79,1.52,3.06,1.02-.83,2.33-2.35,1.27-3.82-1.6-.42-1.57.8-2.79.76Zm16.74,1.53c0-.26-.44-.32-.51,0,.29-.03.4.37.51,0Zm-61.64,4.84c1.35.09,2.68.2,3.3,1.02-.15.53.31,1.67-.25,1.78-.44.02-.79-.06-1.01-.25-.04-.44,1.44-1,.25-1.02-1.48.53-.27,1.88-.25,3.06,1.04.19.05-1.65,1.27-1.27v.76c2.99.31,4.79-.55,4.06-3.31-2.47-.49-4.02-1.9-3.8-5.09-1.62-.08-4.62,1.69-3.55,4.33Zm32.72-4.33c.29,1.01.29-1.01,0,0h0Zm1.27.76c.19,1.04-.82.88-.51,2.04.5.35,1.45.24,2.03.51.61-.86,1.62-2.22.25-3.06-.04.73-1.06.47-1.78.51Zm5.07,2.55c.65,1.06,1.81.33,3.55.51.35-.33.15-1.2.51-1.53-.89-.8-1.56-1.82-3.55-1.53.32,1.34-.53,1.51-.51,2.55Zm110.85-1.02c.37.56.67,1.19,1.78,1.02.74-.53.32-1.49,0-2.29-1.23-.21-1.71.32-1.78,1.27Zm-128.35.25c.8.38,1.22-1.46.25-1.27-.21.3-.33.68-.25,1.27Zm-56.82,3.31c.52-.07.5-.69,1.01-.76.22-1.66-.56-2.32-1.27-3.06-3.17-.49-2.24,4.29.25,3.82Zm52.76-2.04c.5.69,1.15,1.22,2.03,1.53.49-.61.75-1.46.76-2.55-.69-1.17-2.99-.81-2.79,1.02Zm-9.89-.51c.67.08.83-.35.76-1.02-.67-.08-.83.35-.76,1.02Zm96.64,0c.74.37.74-1.14,0-.76v.76Zm-57.58,1.27c.23.45.61.74.76,1.27,1.41-.09,1.54.05,2.28-.51.57-2.62-3.11-3.53-3.04-.76Zm57.07,1.53c-.04-1.23.15-2.7-1.01-2.8-2.22.26-1.08,4.11,1.01,2.8Zm-145.6-1.27c.03-.48.84-.18.76-.76-.34-.08-.48-.36-1.01-.25.04.38-.09.94.25,1.02Zm72.55,3.82c.48.11.64.55,1.27.51,1.2-.24,1.5-1.38,2.03-2.29-.84-.85-1.81-1.57-2.28-2.8.07,1.41-1.57,2-1.01,4.58Zm55.8-4.33c-.61.85.85-.62,0,0h0Zm-3.55,2.04c1.33,1.01-.8,2.82.51,4.07.87-.11,1.42.1,2.03.25.33-1.86.73-2.12,1.27-3.82-1-.61-.97-2.25-2.28-2.55-.2.99-.59,1.78-1.52,2.04Zm-45.91,1.02c.97,2.4,4.16.79,4.82-.76.06-.48-.29-.56-.25-1.02-2.23-.69-4.27-.47-4.57,1.78Zm13.95-1.53c-.69.77.77-.7,0,0h0Zm41.35.76c.07-.66-.09-1.09-.76-1.02-.22.82.39.8.76,1.02Zm57.33,3.06c.84.07,1.74.92,2.54.25.31-1.16-.89-.8-1.02-1.53-.12-1.15-.19-2.36-1.01-2.8-.54.98-.58,2.47-.51,4.07Zm4.57-1.27c1.36,1.54,3.56,1.58,5.33,1.02-.5-1.71-1.29-3.12-2.79-3.82-1.54.23-2.13,1.43-2.54,2.8Zm-59.61-.25c1.04.67.65,1.24,0,2.04.81.03,1.13.56,1.78.76-1.03.63-1.23-.25-2.28-.25-.24.47.76.85,0,1.02-.72-.46-1.04-1.34-2.54-1.02-1.31,1.88.93,3.08-.25,4.84,1.81-.55,2.41-2.33,4.57-2.55,1.58-2.2,1.27-3.7,1.52-6.62-1.33-.58-2.94.1-2.79,1.78Zm-4.57-1.27c.4-.02.88.03.76-.51h-.51c0,.25-.21.3-.25.51Zm-127.59.25c-.96.9-1.32,2.41-1.52,4.07.37,1.08,1.97.91,2.28,2.04-.99,3.08-1.48,6.66-2.54,9.68-.53,3.84,1.3,5.31,1.01,8.91,1.28,3.34,2.81,4.85,4.06,8.15.84.36,2.37.93,3.04,0-.13-1.79-1.98-3.04-1.52-4.58,1.97-.02,2.33,1.57,2.79,3.06,1.35,1.11,1.83,3.09,2.79,4.58h2.03c-.03-1.98,1.24-2.66,1.27-4.58-1.13-1.16-.88-2.93-1.52-4.58-.65-1.69-2.17-2.11-3.8-3.06-.02-1.77-1.48-2.08-1.27-4.07-3.25-1.66-4-4.69-5.58-7.64.38-.7-.02-2.42-.25-3.31.33-1.02,1.06-1.65,1.27-2.8-.13-1.48-.38-2.85-.25-4.58-1.04-.15-1.01-1.36-2.28-1.27Zm52.25.76c.35,2.4,4,1.87,5.07,1.02,0-.68.1-1.45-.25-1.78-1.47.39-3.36.36-4.82.76Zm28.41,2.29h2.03c.47-.71.71-1.66,1.02-2.55-1.97.07-2.41.19-3.55-.51-.41.95-.05,2.35.51,3.06Zm47.69-2.8c-.21,1.51.15-1.02,0,0h0Zm-40.33.51c-.95.78-.37,2.86.25,3.56,2.25.19,1.74-1.08,2.28-2.29-1.18-.08-1.22-1.32-2.54-1.27Zm49.21,1.53c.06,1.89.77,3.13,3.04,2.8,1.03-1.43-.04-3.2-1.27-3.82-.03.9-1.44.42-1.78,1.02Zm-59.1,0v-.51h-.51c-.04.3.06.45.25.51v.25h.25c-.05.21-.25.25-.25.51.95.1,1.49-.2,1.52-1.02-.46-.03-.54.31-1.01.25l-.13-.13-.13.13Zm-30.44,1.78c.91-.06.93.76,1.78.76.14-.37.4-.62.76-.76.5-2.43-3.2-2.8-2.54,0Zm-6.09.76c.78-.06,1.43-.26,2.03-.51.15-.91-.3-1.23-.51-1.78-2.06-.48-2.4,1.2-1.52,2.29Zm30.95-2.04c-1.74.75-1.41,3.48,1.02,3.31.86-.58.64-2.25,1.52-2.8-1.21.45-1.52-.18-2.54-.51Zm35.51,1.78c-.06-.38-1.02-1.32-1.27-1.53-.3.72-1.26.77-2.03,1.02-.52,1.76-.14,3.32,1.52,3.57.91-.5,1.97-1.84,1.78-3.06Zm-29.42,2.8c.29-.64,1.01-.85,1.01-1.78-.8-.13-1.04-.83-1.27-1.53h-1.27c.05,1.56.54,2.69,1.52,3.31Zm-83.45-1.78c.67.08.65-.53.76-1.02-.32-.01-.35-.33-.76-.25v1.27Zm89.04-1.02v.51c.38.76,1.14-.19,1.01-.76-.48-.06-.56.29-1.01.25Zm-44.14.51c.34.08.48.36,1.01.25.07-.74-.98-.98-1.01-.25Zm5.07,0c0-.26-.44-.32-.51,0,.29-.03.4.37.51,0Zm68.49,1.78c-.08,1.46,1.25,1.94,2.79,2.29,2.21-3.41-2.61-5.36-2.79-2.29Zm76.35.51c.24-1.26-.68-1.36-.76-2.29-2.98-.54-1.06,3.93.76,2.29Zm-107.04-.76c-.24,2.11.69,3.05,2.79,2.8,1.15-2.21-1.47-4.52-2.79-2.8Zm35.51-.76c-.38.04-.94-.09-1.02.25.34.33.94.34,1.02-.25Zm54.79,1.02c.01-.15.04-.3.25-.25-.03-.31-.08-.6-.51-.51.04.3-.04.72.25.76Zm-29.68.51c1.13.05.62-.86,0-1.02v1.02Zm-53.52,2.8c.82.15,1.18-.17,1.78-.25.26-.67.3-1.56.25-2.55-1.98-2.07-3.78,1.2-2.03,2.8Zm84.47-3.56c-.2.06-.5,0-.51.25.2-.06.5,0,.51-.25Zm18.26,3.06c.59.35.84,1.02,2.03.76.87-.78.79-3.67-.76-3.56-.56.8-1.4,1.31-1.27,2.8Zm-145.6,1.78c1.23.22,1.3-.73,2.54-.51.62-1.53-.51-2.22-1.02-3.31-2.62-.31-2.52,2.45-1.52,3.82Zm7.61-3.57c.29,1.01.29-1.01,0,0h0Zm68.49,12.99c.8,1.32,1.78,2.46,2.54,3.82,1.01,5.43,3.41,9.47,6.85,12.48.52-.24,1-.52,1.52-.76.49-3.38-1.27-4.5-2.28-6.37-.64-3.64-1.39-8.96.51-11.71.12-.8-.46-.9-.25-1.78.59-.63.78-1.53,1.27-2.29.24-.37.68-.29,1.01-.76.31-.44.26-1.24.51-1.53.9-1.04,2-1.2,2.79-2.29-1.85-1.05-4.44-.79-6.34,0-.53,1.14-1.56,1.56-2.03,2.8-.99,2.63.74,6.51-2.28,7.13-1.18-.61-.78-3.28-.25-3.82-.58.07-.95-.06-1.01-.51-.67-2.69-.08-5.06-1.52-7.39-1.04.03-2.08.05-2.79-.25-1.16,5.34,1.38,8.67,1.78,13.24Zm-14.97-12.48c-.53,1.49.8,2.79,2.03,3.31.84-.28.78-2.47,1.78-1.78-.42-1.02-1.61-1.27-2.28-2.04-.31.37-.87.48-1.52.51Zm10.91.51h.51v-.51h-.51v.51Zm70.01,1.02c.72.64,1.28-.41,1.52-1.02-.82.02-1.37.33-1.52,1.02Zm-194.56,0c-.06.2,0,.5-.25.51-.14.9.9.63.76,1.53,1.51.07,1.44-1.44,1.78-2.55-.79.14-1.65.21-2.28.51Zm45.66,0c-.21,1.51.15-1.02,0,0h0Zm87.26.51c.01-.44-.2-.65-.51-.76-.01.44.19.65.51.76Zm-10.15,4.07c.61-1.48-.61-1.83,0-3.31-.5,0-.32-.69-1.01-.51-1.03,1.03-.56,3.83,1.01,3.82Zm71.79-2.8h.51v-.51h-.51v.51Zm-182.13,2.29c.15-1-.22-1.48-.51-2.04-3.53-.87-1.66,3.69.51,2.04Zm81.17-1.02c-.28.03-.4-.37-.51,0,0,.26.44.32.51,0Zm102.23,1.53c.56-.63-.02-1.67-.76-1.78.09.76.15,1.55.76,1.78Zm-14.46,1.53c1.15-1.05.34-3.22-1.27-3.06-1.11,1.11-1.47,3.54,1.27,3.06Zm-38.05-2.55c-1.19,1.37-.27,4.1,1.01,4.58-.42.84.19,1.5,1.27,1.53.42-1.54.92-6.12-2.28-6.11Zm-27.9,2.55c.61,1.36,2.59,1.51,4.06.76.13-2.65-4.07-4.59-4.06-.76Zm83.71.25c.38.3.3,1.06,1.01,1.02,1.06-.04,1.04-1.17,1.02-2.29-1.02-.53-2.07.02-2.03,1.27Zm-23.08-.25v.51c.26,0,.3.21.51.25.08-.16.63-.98,0-1.02-.05.2-.21.3-.51.25Zm-160.57,3.06c1.32.14,1.2-1.17,1.27-2.29-1.75-2.1-3.46,1.82-1.27,2.29Zm108.31,0c.77-.16,1.3-.57,1.27-1.53-.47-.2-.93-.42-1.52-.51.03.73-.14,1.67.25,2.04Zm58.85,1.27c-1,.33-.61-.74-1.27-.76v1.78c1.98-.16,3.41-.06,4.57.76.52-.32,1.29-.41,1.27-1.27-.6-1.1-1.44-1.95-1.78-3.31-2.32-.41-2.58,1.83-2.79,2.8Zm-43.63,2.55c1.23,1.14,3.98,1.99,5.83,1.02.1-2.31-1.52-3.73-3.04-5.09-2.11.18-3.14,1.43-2.79,4.07Zm-69.25-2.8c.34.08.48.36,1.01.25-.14-.45-.13-1.06-.51-1.27-.13.38-.38.64-.51,1.02Zm-4.57,1.02h.76v-.51h-.76v.51Zm2.54,2.55c.54.23.75.77,1.52.76,1.18-.78,1.08-2.16.51-3.56-.86-.07-2.06.2-2.54-.25v2.8c.21-.05.24.1.25.25h-.25v.25c-.48.18.27.4.25,0h.25v-.25Zm-8.12-.25c.3.29.9.29,1.52.25-.68-.9.2-1.95-.76-2.29-.34.59-1.02.84-.76,2.04Zm61.64-1.78c.29,1.01.29-1.01,0,0h0Zm-55.8.76c.4-.02.88.03.76-.51h-.51c0,.26-.21.3-.25.51Zm60.62,2.55c.92.17,1.35-.17,1.78-.51.23-1.16-.42-1.44-.51-2.29-1.97-.24-1.95,1.63-1.27,2.8Zm49.97-1.02c.93.25,1.01-1.25.25-1.27-.14.53-.72.82-.25,1.27Zm3.55.51c.78,1.78,2.58,5.11,5.07,2.8.33-1.93-.88-2.64-.25-3.56-1.81.12-2.74-.65-4.31-.76.27.95-.63.73-.51,1.53Zm-113.89,2.04c-.18-1.01-.39-1.98-1.27-2.29h-.51c-.83,1.32.39,3.24,1.78,2.29Zm111.61-.51c.71-.4,1.31-.89,1.77-1.53-.62-.37-2.1.15-1.77,1.53Zm-35.77,3.57c.74,1,2.31,1.27,3.55.51.09-2.72-1.39-3.86-3.04-4.84-.26,1.35-.49,2.73-.51,4.33Zm44.64-2.55c.64.47,1.67.53,2.03,1.27-.37.56-.77,1.09-.76,2.04.9.04,1.13.73,2.03.76-.02-.88,1.69-1.35,1.01-2.04-.17.89-1.85.15-1.78-.76.2-1.07,1.33-1.21,1.01-2.8-1.5-.61-3.64-.23-3.55,1.53Zm-164.12,1.02c.82.22.35-.84,1.02-.76.47.5,1.22.15,1.01-.76-1.51.58-.92-.95-1.78-1.02.08,1.02-.45,1.41-.25,2.55Zm105.52,2.29c.7.32,1.29.74,2.28.76.53-.97-.25-1.74.51-2.29-1.54-.1-3.01-.14-2.79,1.53Zm-100.7-1.27h-1.78c-2.63,3.73-6.19,6.52-7.36,11.71h2.03c.81-.89,1.35-2.04,2.03-3.06.59.08.97-.04,1.27-.25.86-3.17,8.11-4.71,3.8-8.4Zm159.3.51v.51c.62.4.75-.87.25-.76-.01.16-.04.3-.25.25Zm-83.96,2.04c.53.15.72.63,1.52.51,1.37-2.04-1.93-3.36-1.52-.51Zm-5.58-1.02c-.35,1.54.76,1.61,1.52,2.04.16-.28.22-2.1-.51-2.29-.05.38-.61.23-1.02.25Zm-8.62,3.06c.42.78,2.33,1.09,3.3.51-.05-.97-.22-1.81-.51-2.55-1.5-1.15-3.09-.06-2.79,2.04Zm99.69.51c.79.34,2.33.45,2.79-.25.34-2.77-3.44-2.98-2.79.25Zm-185.68-.76c.78.02,1.32.94,2.03.25-.26-.84-.7-1.5-1.78-1.53-.21.3-.33.68-.25,1.27Zm105.52,2.29c.56.37,1.09.77,2.03.76,1.13-1.14.1-3.37-1.52-3.31-.39.63-.06,1.97-.51,2.55Zm-13.44,2.04c.6,0,.75-.44,1.52-.25.31-.79.59-1.61.51-2.8-.63-.21-1-.7-1.78-.76-.96.75.06,2.21-.25,3.82Zm20.8,1.53c.3,1.21-.77,1.9-.25,2.55,1.17-.1,2.7.16,3.04-.76-.09-.67-1.29-.23-1.52-.76.67-.65-.49-.36-.51-1.02,1.01-.79,1.31-3.45.51-4.58-2.43-.57-3.97,3.53-1.27,4.58Zm67.22-4.33c-.07.67.09,1.09.76,1.02.55-.04.54-.64.51-1.27-.59-.08-.97.04-1.27.25Zm-148.14,3.06c.79.03,1.21-.31,1.78-.51-.09-1.01-.55-1.65-.76-2.55-1.7-.07-1.64,2.14-1.02,3.06Zm69.76,1.53c.75-1.59-.16-3.52-1.01-4.33-.82.15-1.18-.17-1.78-.25-.99,1.92-.25,5.16,2.79,4.58Zm-96.9-2.29c.56-.75.25-2.32-1.02-2.04.51.98-.43,1.91,1.02,2.04Zm79.39-2.04c-1.12,1-.67,2.97,0,4.07,1.16.15,1.41-.62,2.28-.76.01-1.88-.61-3.12-2.28-3.31Zm100.45,1.02c.07-.58-.06-.96-.51-1.02-.4.38-.28,1.14.51,1.02Zm-154.22-.76c-.92,1.2,1.49.34,0,0h0Zm146.11,1.02c-.76,1.45-.86,3.07-.25,4.84.66.27,1.24.62,2.28.51,1-1.76,1.26-3.88,0-5.6-.82-.06-1.07.45-2.03.25Zm4.82,3.06c.62.86,2.52.46,3.55.25-.16-1.91,1.29-1.21,1.52-2.29-1.78-.07-5.57-2.06-5.07,2.04Zm-153.72.51c-.08-.94.22-2.25-.25-2.8-2.91-.58-1.72,3.22.25,2.8Zm-28.66.76c.33.44.52,1,1.27,1.02.63.04.79-.4,1.27-.51v-1.27c-1.21-.23-.95-1.94-1.78-2.55.39,1.75-.75,1.96-.76,3.31Zm109.33-1.78c.41.44,1.06.63,2.03.51.06-.2,0-.5.25-.51.05-1.15-.75-1.45-1.78-1.53-.69.56-.07.85-.51,1.53Zm-19.02.25c-.11.88.1,1.43.25,2.04.82.15,1.18-.17,1.78-.25.18-.94-.43-1.09-.25-2.04-.72.4-1.08-.29-1.78.25Zm14.71.25c.06.48-.29.56-.25,1.02.64.88,1.29,1.76,2.79,1.78.72-1.54.23-2.48-.76-3.31-.16.61-1.56-.04-1.78.51Zm13.44,1.02c.77.64,1.02.22,2.28.25.16-1.44-.96-1.58-2.03-1.78-.29.3-.29.9-.25,1.53Zm-19.53-1.02c-.61.85.85-.62,0,0h0Zm-68.74.51c-.66,1.42.13,3.37,2.03,3.06.55-1.5.06-2.98-1.27-3.31-.04.3-.4.28-.76.25Zm-17.25,3.82c-.62-.03-1.22-.04-1.52.25-.2,2.83,3.38,1.87,3.3,4.58-.21.05-.25.26-.51.25-1.32-.12-1.75-1.13-2.79-1.53-.54.25.54,1.6-.25,2.04-.21.05-.25.26-.51.25-1.04-.14-1.33-1.04-1.27-2.29h1.52c-.2-2.26-3.16-1.75-3.3-4.07.67-.35,1.73-.3,2.54-.51-.88-1.41-1.93-2.65-4.06-2.8-.3,1.9,2.14,4.01.25,5.09-1.16-.36-.59-2.47-2.03-2.55-1.05,1.83-1.59,4.17-3.55,5.09.62,1.4,1.62,2.14,1.78,3.56.36,3.27-2.29,6.4-1.52,9.93,4.22,0,6.86-1.6,9.64-3.06h1.78c1.07-1.05,2.09-2.14,2.54-3.82.2.13.41.27.76.25-.13-1.91,1.16-2.4,1.52-3.82.13-2.06-1.81-2.61-1.27-4.33-.8-.47-2.17-.37-2.03-1.78.58.16,1.53.5,2.03,0,.44-2.43-2.25-3.83-4.82-4.07-.3,2.08,2.33,1.23,2.03,3.31l-.13-.13-.13.13Zm85.48-3.57c-.21,1.51.14-1.02,0,0h0Zm69.76.76h1.01c.07-.58-.06-.96-.51-1.02,0,.51-.69.32-.51,1.02Zm-57.33.25c-.21,1.06.49,1.2.51,2.04h1.27c.39-.52.39-2.28,0-2.8-.98-.14-1.04.65-1.78.76Zm-73.82,2.8c1.18.08,2.2,0,2.79-.51-.02-.91-.39-1.47-.51-2.29-2.43-1.66-3.94.98-2.28,2.8Zm132.16-2.04c-.55,2.77,2.82,3.2,3.55,1.27-.04-2.32-2.1-2.67-3.55-1.27Zm26.13-.51h.51v-.51h-.51v.51Zm-13.19.51c-.2.06-.5,0-.51.25.2-.06.5,0,.51-.25Zm-19.02.51c.29,1.01.29-1.01,0,0h0Zm-73.56,1.02c.71.41.7-1.1.25-1.02-.08.34-.36.49-.25,1.02Zm90.3,2.8c-1.06-.63-.66-2.73-1.27-3.82-2.44.15-3.71.03-4.82,1.27.84.09.4,1.47.51,2.29,1.29,1.8,4.59,1.5,5.58.51l.13.13.13-.13c.48-.11,1.09-.09,1.02-.76-.53-.11-.67.17-1.02.25h-.25v.25Zm-129.37,8.15c-5.38.39-6.64-3.35-11.16-3.82-.32-.7-1.02-1.02-1.52-1.53-4.57-1.7-6.8-5.74-13.7-5.09-1.94-2.1-3.79-1-3.81,1.27-.02,2.5,3.24,5.48,4.82,6.11.75,3.24,4.11,3.85,5.58,6.37,2.92.13,5.02,1.08,7.61,1.53,1.24-.11,1.56-1.15,2.54-1.53.85.25,1.15,1.06,2.28,1.02,3.05-.34,5.16-1.61,8.37-1.78,1.14-.29,1.13,1.33,2.03.51.05-2.09-1.9-2.17-3.04-3.06Zm130.13-10.19c.51,1.02,1.43,1.62,2.79,1.78.65-.4.71-2.35.25-3.06-1.37-.03-2.26.2-3.04,1.27Zm-140.27,1.02c.8.64,2.09.79,3.55.76-.1-1.09-.68-1.69-.76-2.8-1.83-.22-3.15.06-2.79,2.04Zm60.12-1.53c.25,0,.3.21.51.25-.02-.4.03-.88-.51-.76v.51Zm63.16,3.82c.14-.37.4-.62.76-.76-.09-1.01-.55-1.65-.76-2.55h-1.01c-.41,1.31-.33,3.06,1.01,3.31Zm-7.1-2.8c.29,1.01.29-1.01,0,0h0Zm-57.58,0c-.2.06-.5,0-.51.25.2-.06.5,0,.51-.25Zm-59.86,1.02c.09.76.68,1.01,1.27,1.27-.12-.73-.43-2.04-1.27-1.27Zm130.89,0c.21.72.29,1.57.51,2.29.82.23.36-.83.76-1.02.56-.29,1.4-.29,1.52-1.02-1.01-.41-2.23-.11-2.79-.25Zm25.87,0c.29,1.01.29-1.01,0,0h0Zm1.27,0c.29,1.01.29-1.01,0,0h0Zm-30.18,3.06h2.54c-.18-.78.44-.75.25-1.53-1.68.49-1-1.38-2.03-1.53-.49.78-.67,1.87-.76,3.06Zm-121-1.27c.8.77-.52,2.09.51,2.55,1.46.03,2.17-.71,2.54-1.78-.43-1.68-2-2.13-3.04-.76Zm147.12-.76c-.21,1.51.15-1.02,0,0h0Zm-26.89,0c-.2.06-.5,0-.51.25.2-.06.5,0,.51-.25Zm28.92,5.86c1.56.13,1.69-1.19,2.79-1.53.25.26.5.51.76.76.09-1.13,1.12-1.12,1.27-2.04.13-.81-.77-1.59-.51-2.8-3.15,0-5.6,1.99-4.56,5.35l-.13.13.13.13c-.25,0-.2.31-.25.51.25-.51.38-.38.38-.38l.13-.13Zm-34.75-3.56c.61-.1.55.46,1.27.25-.29-.64-.42-1.44-1.01-1.78-.29.3-.29.9-.25,1.53Zm32.98-.76h.51v-.51h-.51v.51Zm-141.8,1.78c.35,1.04,2.34,1.87,3.3.76.02-1.47-.32-2.57-1.52-2.8-1.11.15-1.62.92-1.78,2.04Zm106.54-1.02c.92-.25.12,1.24,1.27.76-.04-.7-.92-1.87-1.27-.76Zm36.27,0c.29,1.01.29-1.01,0,0h0Zm-12.68.25c-1.99-.56-1.5,1.38-2.54,1.78-1.95.05-3.99-1.02-5.58-.51-.84,1.23.61,2,.25,3.56,2.09.22,3.92,1.96,6.34,1.02.65-.45-.17-2.38.51-2.8,1.78.14,2.99,2.48,4.82,1.02-.32-2.31-2.93-2.32-3.8-4.07Zm4.31.76c-1.98-.18-1.98.43,0,.25.5.87.5.25,0-.25Zm-138.5,2.04c.63.04,1.23.05,1.27-.51-.52-.07-.5-.69-1.02-.76-.21.3-.34.68-.25,1.27Zm123.03-.25c.01-.44-.2-.65-.51-.76-.36.37-.37.99.51.76Zm-1.27-.51c-1.62-.29-.56.78,0,0h0Zm-1.01,1.78c.12-.8-.32-1.04-.76-1.27.03.65.47.89.76,1.27Zm-109.83,2.04c.93,0,1.36-.5,1.78-1.02-.34-.5-.7-.99-1.78-.76-.36.34-.36,1.44,0,1.78Zm7.1,1.27c1.03.02,1.09-.94,1.02-2.04-1.82-1.51-2.97,1.83-1.02,2.04Zm130.63-1.27h.51v-.51h-.51v.51Zm-125.56,2.8c.56.2.99.53,1.78.51,2.19-2.06-2.36-4.01-1.78-.51Zm-47.18.25c.16-.58.5-1.54,0-2.04h-1.01c.09.93.03,2.01,1.01,2.04Zm55.04-1.53c-2.91-.59-2.21,3.15-.25,3.06.25-.35.68-.51,1.01-.76.19-1.2-.36-1.67-.76-2.29Zm45.41,2.8c1.82.87,3.23-.35,2.79-2.55-2.22-.86-3.77.2-2.79,2.55Zm-13.7-.51c.32.87,1.18,1.19,2.54,1.02.08-1.53.09-2.98-1.27-3.06-.79.31-1.31.9-1.27,2.04Zm6.59-1.02c.51.42,1.18.68,1.27,1.53.63.04.79-.4,1.27-.51-.15-.61-.36-1.16-.25-2.04-1.24-.14-1.8.4-2.28,1.02Zm-25.87,1.78c.42-.34.08-1.44.51-1.78-1.54-1.01-2.05,1.63-.51,1.78Zm11.42-1.53c.26,1.09.47,2.24,1.77,2.29.33-.74.33-1.81,0-2.55-.78-.36-1.14-.11-1.77.25Zm-41.09,2.55c.87.46,1.22-.04,2.28,0,.08-1.18,0-2.21-.51-2.8-2.53-.8-2.69,1.55-1.78,2.8Zm21.56-2.04c.28,1.16.97,1.92,2.03,2.29.65-.64.15-.85.51-1.78-.6-.55-1.55-1.05-2.54-.51Zm-66.97,1.53c-.06-.48.29-.56.25-1.02-.32-.01-.35-.33-.76-.25-.4.38-.37,1.45.51,1.27Zm56.57-.76c-.2.06-.5,0-.51.25.2-.06.5,0,.51-.25Zm-54.79.76c-.3,2.02,2.25,2.01,3.04,1.02-.56-1.18-1.62-2.01-3.04-1.02Zm78.63,2.8c1.07.98,4.31,1.86,5.83.76.48-3.55-6.22-5.95-5.83-.76Zm-70.52-1.53c.61.1.55-.47,1.27-.25.18-.88-1.26-1.42-1.78-.76.45.06.58.44.51,1.02Zm26.89,1.53c.63.04.79-.4,1.27-.51.25-1.18-.33-1.54-.51-2.29-2.51-.76-2.52,2.69-.76,2.8Zm62.91-1.78c.64.27,1.12-.86.51-1.02,0,.51-.69.32-.51,1.02Zm-49.72.76c.42.51.68,1.18,1.52,1.27.44-.41.63-1.06.51-2.04-.74-.71-2.02-.54-2.03.76Zm-8.62-.25c-.19,1.2.36,1.67.76,2.29,1.01.08,1.87.01,2.28-.51.45-2.15-2.1-3.32-3.04-1.78Zm58.09,2.04c.61-1.14.16-3.14-1.52-2.8-.49,1.39-.07,2.8,1.52,2.8Zm-84.72-1.53c.75.44.86,1.51,2.28,1.27-.14-1.24,1.13-1.08,1.01-2.29-1.21.66-2.96-.65-3.3,1.02Zm42.11,1.53c.72.44,2.21.83,2.79,0,.81-2.93-3.91-3.69-2.79,0Zm47.18-1.53c.4.84.38,1.12.51,1.78h1.52c.73-.76.44-2.57-.76-2.8-.41.35-.8.72-1.27,1.02Zm-39.32,2.55c.44-.58.61-1.42.51-2.55-.61-.32-.93-.93-2.03-.76-1.09,1.58,0,2.97,1.52,3.31Zm7.86-2.8c-.29,1.06.53.99.51,1.78.67,0,1.45.1,1.77-.25.41-1.89-1.28-2.49-2.28-1.53Zm71.28,1.78c1.07-.03.84-1.36,1.01-2.29h-.76c-.24.61-.84,1.63-.25,2.29Zm-31.45-1.02h.76v-.76h-.76v.76Zm-89.54,1.53c.34-.32.39-1.25-.25-1.27-.35.32-.39,1.25.25,1.27Zm160.06-.76c.58.07.95-.06,1.01-.51-.45.06-1.27-.26-1.01.51Zm-35.26.76c.29,1.01.29-1.01,0,0h0Zm34.5.76c.17-.68-.52-.49-.76-.76-.05.56.21.81.76.76Zm-3.3.25c0-.26-.45-.32-.51,0,.29-.03.39.37.51,0Zm-2.79.51h.51v-.51h-.51v.51Z"/>
  <path class="cls-9" d="m199.12,21.13v.25c-.25,0-.2-.31-.25-.51l.25.13.25.13h-.25Z"/>
  <path class="cls-9" d="m1.27,16.3c.47-5.07-.25-7.02-.25-11.71C1.88,3.42,3.26,1.26,5.33.76c2.57-.61,5.7.07,7.86.76.7-.48,2.35-.02,2.54-1.02,6.63,2.13,13.36-.98,20.04.51,1.16.23,1.23-.64,2.28-.51,2.95.82,5.93-.28,8.88-.25,1.19.01,2.4.48,3.55.51,2.52.06,4.88-.37,7.36-.25,1.58.07,3.03-.15,4.57,0,1.92.19,3.56.72,5.33.76,2.54.06,5.19.31,7.61,0,.46-.06,1.23-.48,1.78-.51.86-.04,1.66.33,2.54.25,1.22-.11,3.09-.46,5.07-.25.59.06,1.22.41,1.78.51.79.14,2.04-.55,2.54.51,1.1.08.62-1.41,1.78-1.27.76.59,2.78-.07,3.3.76,3.24-2.13,7.81-.06,11.92-1.27,1.04.48,2.58.47,3.55,1.02,1.06.04,1.25-.78,2.28-.76,2.67.38,4.7.19,7.36-.25.88.3,1.83.54,2.54,1.02,5.48-.74,10.51-.66,15.73-.76,4.27,2.28,10.11-.02,14.96,1.78,7.27-1.95,17,.67,24.61-1.27.8-.12.67.69,1.27.76,2.78-.62,5.59.15,8.88-1.02,4.37.54,9.12-.2,13.7-.25,1.12-.36.66.86,1.52.76.93-.08,1.4-.63,2.28-.76,4.77.51,9,.63,13.7.76,1.48,1.28,3.58,1,5.07,2.04.62.43.72,1.25,1.52,1.53.33.94.42,2.12,1.02,2.8.37,4.67-1.79,9.93,0,14.51,0,1.08-.54,1.93-.51,3.06.01.5.52.84.51,1.27-.06,1.62-.68,2.91-.51,4.58.22,2.12.29,5.09.51,7.64.03.37.5.69.51,1.02.06,2.75-.01,5.76-.25,8.4-.16,1.75-1.14,3.92,0,5.86-.02.75-.97.56-.76,1.53.97,3.99.69,9.18-.76,12.73.38,3.17.21,5.77,1.02,8.15-.68,1.26-.61,2.62-.76,4.33-.11,1.21-.49,3.37-.25,5.35.24,1.99,1.47,3.71,1.52,5.6-.85,1.69-.68,4.41-1.27,6.37,1.83,2.77-.36,8.71,1.27,11.2-.06,1.04-.77,1.43-.76,2.55.39,2.47,0,4.35,1.27,6.11-.06,1.05-1.12,1.08-1.01,2.29-.03,2.12.32,4.95-.76,6.87,1.27,4.62-1.19,10.77.51,15.53-.76,2.35.56,5.22-.51,7.13.03,3.96,1.31,9.09,0,12.73.71,1.47.14,3.12.25,4.84.17,2.67.96,5.32.76,7.89-.09,1.14-.68,2.24-.76,3.31-.19,2.61.6,4.91.76,7.13.2,1.13-.84,1.03-1.27,1.53.53.65.77,1.6,1.02,2.55-.32,4.84,1.05,9.48-.51,14,1.18,2.35.14,5.71.25,9.68.11,3.92.53,8.18-1.27,10.44-2.13,1.24-6.5,1.77-9.64,1.27-1.85.6-5.04.86-6.34,0-.79-.42-.71,1.27-1.01.51-2.84-.09-5.43-.28-8.12.25-.77.01-.99-.54-1.52-.76-3.08,1.16-6.4.77-10.15.76l.13-.13-.13-.13c.22-1.19-1.57-.68-.76,0l.13.13.13.13c-3.72.2-7.59.38-11.41.25-1.08.15-1.18-.69-1.52-1.27-.74.19-.49,1.37-1.52,1.27-3.06-.05-5.97-.92-9.38,0-1.2-.24-2.2-.68-3.3-1.02-2.6.83-5.06-.17-7.86.51-1.43,1.33-4.11,2.17-5.83.51-2.98-.33-6.08.47-8.62-1.02-.61.24-1.23.46-1.78.76-3.21-.73-6.33.45-9.64-1.02-6.08.19-13.49,1.28-19.79.25-.78.07-1.14.55-1.78.76-3.82-.62-6.82.25-10.15-.76-2.99.9-5.78-.39-8.62-.51-1.91-.08-3.89.49-5.83.51-6.1.07-12.1.18-17.5-1.53-1.84,1.12-5.05.87-7.1,1.78-14.63-1.31-27.78.83-42.11-.51-3.2.93-7.72.38-11.42-.25-.87-3.07.31-8.95-.51-11.71.51-.6.09-2.11.76-2.55-.74-1.44-.49-3.36-.51-5.6,0-1.3-.36-2.94-.25-4.07.05-.59.5-.94.51-1.53.02-4.11-.43-8.4,0-12.22.06-.55-.04-1.38,0-2.04.15-2.42-.04-4.31,0-7.13.05-3.15-.29-5.92-.51-9.17-.08-1.2.4-2.37.25-3.31-.24-1.51-1.35-3.57-.25-5.6-.92-1.87.6-4.12-.51-6.11.15-1.21.57-2.15,1.01-3.06-.24-3.11.93-4.7-.25-7.38-.35-2.51.68-4.87,0-6.87,1.7-4.92-.12-11.21,0-16.3-1.2-2.95-1.41-7.28,1.01-8.91-1.27-5.77-.05-12.46-.76-17.82.24-.94.61-1.76,1.01-2.55,0-.93-1.49-.37-1.27-1.53-.57-.28-.45-1.25-1.01-1.53.06-2.52.01-4.94-.51-6.87.79-1.76.67-4.42,1.78-5.86.47-3.39-.82-6.91.25-10.18-.3-1.48-1.25-2.31-1.78-3.56,1.42-2.23.95-6.35,1.78-9.17-.82-1.36-1.34-3.18-1.27-4.84.04-.92.65-1.86.76-2.8.37-3.17-.76-6.68.51-9.68.03-1.14-.93-1.27-1.01-2.29.13-3.95-.14-7.49-.25-11.2-.03-.42.82-1.62-.25-1.53-.05-.9,1.19-.5,1.01-1.53v-1.27l.13.13.13-.13c.84.03-.28-1.1-.25-.25l-.13-.13-.13.13ZM79.9,3.82c.55-.58-.51-.99-.76-1.53-.6.64.37,1.13.76,1.53Zm135.45.76c-3.27.85-6.9-.12-11.16.25-.58-.52-1.84-.36-2.54-.76-2.67.47-5.76.48-8.37.76-1.29.14-2.73-.12-4.06,0-1.33.12-2.62.75-3.8.76-1.95.02-3.91-.85-5.83-.76-1.01.04-2.01.53-3.04.51-2.78-.04-6.12-1.6-8.37-.25-2.14-1.37-4.97.38-7.86-.51-.8-.04-.85.68-1.78.51-1.78,0-3.71.16-4.82-.51-4.89,1-10.46-.75-14.71.25-3.11-1.03-7.81-.42-11.41-.25-1.03.02-1.23-.81-2.28-.76-1.19.68-2.92.8-4.82.76.01-.44-.2-.65-.51-.76-.34,0-.23.45-.51.51-2.68-.07-6.01.27-8.62.51-1.97.18-3.69-.54-5.58-.51-.66.01-1.37.46-2.03.51-3.06.24-6.49-.88-9.64.25-.62-.14-.54-.99-1.52-.76-1.75.88-4.43-.29-6.34-.25-2.01.04-3.8.79-6.09.76-1.09-.01-2.24.14-4.06.25-.91.06-1.82-.3-2.79-.25-.57.03-1.18.45-1.78.51-3.29.32-5.95-.27-8.88.25-3.41-1.26-8.27-.08-12.43,0-3.89-1.31-8.57-.59-11.42-.25-1.19.14-2.54-.3-3.8-.25-3.47.13-7.04.89-11.16.51-2.59-1.42-5.45.36-8.12.51-2.55.14-5.3-.67-7.36.76-.04,2-1.22,2.85-1.78,4.33.91,3.02.22,6.3,0,8.66-.22,2.33.15,4.72,0,7.13-.05.85-.47,1.72-.51,2.55-.08,2.01.42,4.07.51,6.11.16,3.66-.53,7.15-.51,10.44,0,.54.47.97.51,1.53.09,1.3-.21,3.01-.25,4.33-.05,1.5-.25,2.99-.51,4.33-.19.78.87.31.51,1.27-.71,10.19.35,22.38,0,32.85-.06,1.76.43,3.48.25,5.09-.08.77-.49,1.32-.51,2.04-.04,1.56.67,3.24-.25,4.58.67,11.95.19,22.54.25,34.63.01,2.04-.28,4.01-.25,5.86.02,1.6.92,2.8,1.01,4.07.25,3.44-.59,7.84-.51,11.46.06,2.57-.1,4.43-1.01,6.37,1.81,1.74.9,3.81.76,6.11-.13,2.28.65,4.88.51,7.38-.1,1.72-.65,3.24-.76,4.84-.07,1-.26,1.97-.25,2.8,0,.43.47,1.06.51,1.53.06.76-.32,1.38-.25,2.04.2,2.16.82,4.08-.25,5.86,2.54,2.92-.83,7.24.76,10.44-1.5,5.15.58,10.98.25,15.02,2.18.5,4.16.74,7.61.51,2.94,1.39,6.14.81,8.62.51,4.33-.52,8.72.12,12.94,0,1.66-.05,3.41-.59,4.82-.51.83.04,1.58.67,2.54.76.77.07,1.59-.08,2.54,0,.97.09,2.24.3,3.04.25,1.15-.07,2.15-.92,3.3-1.02,2.66-.23,5.01,1.36,7.61,1.27,2.55-1.78,7.13-1.52,9.89-.25,5.26-1.67,12.57.25,18.01-.51.55.55,1.48.72,2.28,1.02,3.46-.7,6.86-.58,10.15-.76,2.31-.13,5.49-1.46,7.36.51-.18-1.09,1.32-.83,1.52-.25.87-.15,1.18-.85,2.28-.76,2.58,1.08,5.22-.26,7.36,1.02.4-1.35,1.86-.18,2.54-1.02,1.74.57,2.24,1.1,4.57.76.56.2.33,1.2,1.01,1.27.34-1.53,1.82-1.91,2.79-2.8.84,1.51,2.58.54,3.8.76.57.1,1,.48,1.52.51,3.01.19,6.48-.22,9.89-.25,2.97-.03,6.02.47,8.62.25.86-.07,1.7-.55,2.54-.51,1.02.05,2.14.62,3.3.76,4.28.53,9.38-1.54,11.92,1.02,1.99-1.55,5.39-2.13,8.12-1.02,1.02-2.58,2.95-.53,4.31-.25,1.94.39,3.97-.55,6.09-.76,1.94,1.58,4.71.85,7.61,1.27,2.13-.61,4.81-.99,7.1-1.02.91-.01,1.61.43,2.54.51,1.56.14,3.29-.43,5.07-.51,2.84-.13,5.61.64,8.62-.25-.11-1.16.26-2.8-.25-3.57.38-.8,1.28-1.09,1.27-2.29-1.83-5.83-.18-15.28-1.01-20.37,1.93-5.45-1.03-12.83.76-19.1-.21-.72-.3-1.57-.51-2.29.44-1.1.26-2.98.25-4.33,0-1.49.21-2.99-.51-3.31.23-.45,1.03-.32.76-1.27-.58-9.58-.06-16.74-.25-25.72,1.09-3.21-.96-7.31.51-10.69-.89-1.68.28-3.51.25-5.35-.02-1.24-.73-2.56-.76-3.82-.15-5.68.73-11.33,0-16.55,1.49-3.58.12-8.63,0-13.5-.06-2.66.07-5.58,1.01-7.89-1.21-1.42-.19-3.96-.25-5.86-.45-.74-.53-1.84-.76-2.8.22-1.05.68-1.86.76-3.06-.17-1.02-.8-1.57-1.01-2.55.64-1.23.4-3.34,1.01-4.58-.2-1.02-.45-2.79.51-3.31-.27-.75-.72-1.31-.51-2.55.05-.88.7-1.17,1.01-1.78-1.49-.76-.46-1.8,0-2.29-1.98-3.79-1.27-9.32-.51-14-1,.32-.75-.6-.76-1.27-.96-1.65-.01-3.79,0-5.86.02-3.29-.55-5.91-.76-8.66-.39-5.14.2-10.34.25-15.53-.95-1.51-3.21-1.7-5.07-2.29Zm6.59,4.58c.29,1.01.29-1.01,0,0h0Zm1.78,68.24c-.4-.11-.22-.8-1.02-.51-.24.62,1.14.84,1.02.51ZM5.07,113.82c0-.26-.45-.32-.51,0,.05.31.28.16.51,0Zm217.89,6.37c-.2.06-.5,0-.51.25.2-.06.5,0,.51-.25Zm1.78,5.86c-.2.06-.5,0-.51.25.2-.06.5,0,.51-.25Zm-1.52,37.43c.01-.44-.2-.65-.51-.76-.36.37-.37.98.51.76Zm-1.52,1.78h.51v-.51h-.51v.51Zm2.79,18.08c.07-.67-.09-1.1-.76-1.02-.07.67.09,1.1.76,1.02Zm-1.52,6.11c-.2.06-.5,0-.51.25.2-.06.5,0,.51-.25Zm-.76,12.99c.85.77.77-.94,0,0h0ZM2.79,214.14c.29,1.01.29-1.01,0,0h0Zm221.95.25c.29,1.01.29-1.01,0,0h0Zm-13.7,8.66c.04-.3.45-.58,0-.76-.04.3-.45.58,0,.76Zm-4.57.76c-.11-.48.35-1.53-.51-1.27-.16.62-.51,1.31.51,1.27Zm9.39-1.27c-.2.06-.5,0-.51.25.2-.06.5,0,.51-.25Zm-88.78.76c0-.26-.45-.32-.51,0,.28-.03.39.37.51,0Zm93.09-.25c-.2.06-.5,0-.51.25.2-.06.5,0,.51-.25Zm-17.25,1.02h.51v-.51h-.51v.51Zm-16.23.25c.44.01.65-.2.76-.51-.4.02-.88-.03-.76.51Z"/>
  <g>
    <path class="cls-3" d="m199.12,21.01c0-.26.1-.47.13-.76"/>
    <path class="cls-6" d="m140.4,18.46c0-.26-.06-.45-.13-.64"/>
    <path class="cls-7" d="m199.12,21.13c.15.27.33.52.63.64"/>
    <path class="cls-2" d="m143.45,65.06c.14.03.2.14.25.25"/>
    <path class="cls-4" d="m139.51,77.15c-.09-.24-.13-.55-.25-.76"/>
    <path class="cls-1" d="m141.16,76.51c.27.08.39.31.51.51"/>
    <path class="cls-6" d="m208.89,78.04v-.51"/>
    <path class="cls-8" d="m157.14,83.01c.15.07.46.11.76.13"/>
    <path class="cls-1" d="m204.83,205.1c.08.27.31.39.51.51"/>
    <path class="cls-5" d="m205.72,164.48c-.08-.17-.16-.35-.25-.51"/>
    <path class="cls-5" d="m56.06,138c.17.08.35.16.51.25"/>
    <path class="cls-6" d="m95.38,153.28c.18-.07.29-.21.38-.38"/>
    <path class="cls-5" d="m79.4,174.42c.17.08.35.16.51.25"/>
    <path class="cls-4" d="m211.55,189.69c.24-.09.54-.13.76-.25"/>
    <path class="cls-2" d="m26.51,194.66c-.14-.03-.2-.14-.25-.25"/>
    <path class="cls-6" d="m193.16,197.46c0-.26-.06-.45-.13-.64"/>
    <path class="cls-2" d="m207.88,203.31c.14.03.2.14.25.25"/>
    <path class="cls-6" d="m211.43,217.32c.18.01.31-.03.43-.08.05-.11.13-.21.21-.3"/>
    <path class="cls-2" d="m1.4,16.17c.09.16.2.31.25.51"/>
    <path class="cls-6" d="m186.82,225.47h.76"/>
  </g>
</svg>