<?xml version="1.0" encoding="UTF-8"?>
<svg id="Layer_1" data-name="Layer 1" xmlns="http://www.w3.org/2000/svg" viewBox="0 0 226.77 226.77">
  <defs>
    <style>
      .cls-1 {
        stroke-width: .34px;
      }

      .cls-1, .cls-2, .cls-3, .cls-4 {
        fill: none;
        stroke: #000;
        stroke-linecap: round;
      }

      .cls-1, .cls-2, .cls-3, .cls-4, .cls-5 {
        fill-rule: evenodd;
      }

      .cls-2 {
        stroke-width: .44px;
      }

      .cls-3 {
        stroke-width: .32px;
      }

      .cls-4 {
        stroke-width: .32px;
      }

      .cls-5 {
        stroke-width: 0px;
      }
    </style>
  </defs>
  <path class="cls-5" d="m141.43,57.95c.06-.33.52-.27.53,0-.23.16-.47.32-.53,0Z"/>
  <path class="cls-5" d="m184.89,70.66c0-.26.32-.21.53-.26,0,.26-.32.21-.53.26Z"/>
  <path class="cls-5" d="m210.18,84.15h.79v.53h-.79v-.53Z"/>
  <path class="cls-5" d="m53.46,86c0-.26.32-.21.53-.26,0,.26-.32.21-.53.26Z"/>
  <path class="cls-5" d="m149.86,106.64c.09-.32.7-.21.79,0,.24.57-.96.61-.79,0Z"/>
  <path class="cls-5" d="m210.18,111.41c-.11-.51,1.2-.39.79.26h-.53c.05-.22-.1-.25-.26-.26Z"/>
  <path class="cls-5" d="m183.84,178.36c0-.26.32-.21.53-.26,0,.26-.32.21-.53.26Z"/>
  <path class="cls-5" d="m156.18,217.53c-.06.46-.45.6-1.05.53.06-.46.45-.6,1.05-.53Z"/>
  <path class="cls-5" d="m179.1,218.05c0-.26.32-.21.53-.26,0,.26-.32.21-.53.26Z"/>
  <path class="cls-5" d="m132.74,218.05c-.23-.12-.47-.23-.53-.53-3.62,1.77-10.98-.34-15.54.53-.66.13-1.08.5-1.58.79-1.11-.69-2.5.09-3.69-.79-4.13.11-9.08,1.02-12.12,0-6.85,1.2-15.42.93-22.39.79-.74-.05-1.12-.46-1.05-1.32-2,1.55-7.42,2.75-9.75.79-.62.08-.16,1.25-1.05,1.06-13.11-.95-26.58-.03-40.04-1.06-3.73,1.02-8.96.05-13.43.79-1.09-.41-1.23-1.76-2.11-2.38.22-5.81-.34-10.85.53-15.08.1-1.06-.52-1.89-.53-3.17,0-1.74,1.05-3.74,0-5.29-.15-1.21.99-1.12.79-2.38.16-1.13-.86-1.08-.79-2.12,1.54-4.58-.59-9.89.79-14.56-.04-.84-.6-1.16-.53-2.12.45-8.9-.08-16.78,1.32-24.35.1-2.69-.9-5.02-.79-7.41.05-1.13.73-2.07.79-3.17.08-1.44-.51-2.83-.53-4.24-.02-1.45.67-2.76.79-4.23.24-2.89-1-5.39-.53-8.47-2.63-6.05.23-16.81-1.32-22.76,1.24-6.92-.46-14.15.53-20.11.72-4.34-.51-8.8.53-13.23-.64-1.51-.48-3.16-.53-5.56-.02-1.23-.33-2.84-.26-3.97.05-.88.51-1.77.53-2.65.07-3.82-1.48-8.69,1.58-10.85-.47-.59-1.21-.9-1.32-1.85.29-5.65-.04-9.93,0-16.67.24-.91.64-1.65,1.05-2.38-.8-3.13.03-6.13-.26-9.53,2.5-1.38,7.5-2.44,10.8-1.32,5.48-.82,11.77-.14,17.12.26,2.36-1.12,7.39-.32,11.06-.26,2.87.05,5.4-.89,8.96-.26.22.69-.8,1.45,0,1.85,1.49.16-.08-1.12.79-1.59,1.35-.21,2,.28,2.9.53,4.46.2,10.16-1.53,13.7.26,2.97.11,7.35-1.08,10.27.53,1.09-1.15,3.28,0,4.74-1.06,2.25,1.59,6.98-.68,8.69,1.06.87-.88,2.54-.97,3.69-1.59,7.27.73,15.46.59,23.44.26,1.49.72,4.31.72,5.79,0,3.53.02,7.49.36,10.8.53,1.6.08,3.42.12,4.48-.79,1.1.3,2.71-.16,3.69.79,1.5-1.4,5.29-.5,7.11-1.59,1.12.38,2.24.75,3.16,1.32,1.99-.1,4.03.71,5.79,0,.67,1.24,2.67-.47,3.16.79.7-.71,1.63-1.19,2.63-1.59,3.81.88,8.63.79,12.64,0,3.11,1.57,7.42-.9,10.8.53,3.03-.84,5.69-.12,8.69-.26,1-.05,1.94-.26,2.9-.26.44,0,.9.47,1.32.53,2.05.29,4.91-.75,6.58,1.06.96,6.05-.01,11.67.26,17.73-.17.96.18,1.41.53,1.85-.68,2.09-1.27,5.75-.26,7.94-.07.99-.63,1.48-.79,2.38.62,3.67-.96,9.24.26,12.7-1.77,8.92.66,18.51-1.32,26.73,1.33,1.97.26,4.47.26,6.88,0,.84.45,1.57.53,2.38.22,2.3-.61,4.52-.26,6.62-.71.39-.11,1.3-1.32,1.59-.06.94,1.24.52,1.05,1.59-.12,7.24.9,12.68-.26,19.32.1.8-.86.55-1.32.79,1.11.4,1.11.86.53,1.85.7,2.37,2.47,5.93,1.05,8.73-.13,1.1.77,1.17.53,2.38-.91,5.78.67,13.52-.53,19.05,1.52,6.86-.6,15.39.79,22.49-.71,1.3-.78,3.27-.79,4.76-.02,2.13.4,3.89.79,5.29-1.44,5.38-.08,11.07-1.05,16.67,0,.89.36,1.4.79,1.85-1.31,1.67.74,5.64-1.05,7.14.12.68.37,1.22.79,1.59-.64.68.19,2.84-.79,3.17.89.37.8,1.62.53,2.38-.95,2.68-6.88,1.02-8.95,2.38-1.09.3-1.03-.56-1.85-.53-5.37-.23-8.5-.02-14.49,0-.93.14-1.36-.22-1.58-.79-2.71,1.68-8.28,1.34-10.27-.26-.71-.19.19,1.25-.53,1.06-.84.23-.82-.41-1.05-.79-.93.94-2.98,1.12-4.48,1.06-2.56-.1-5.52-.62-7.64-1.06-1.71,1.66-6.41.2-7.9.79-.54-.35-1.75-2.17-3.16-1.59-.53.53.2,1.15.79,1.32-2.06.22-6.6,1.28-9.22.26-1.38.41-.17-1.77-1.32-1.59-1.53-.03-.67,1.13-1.05,1.85-3.69-.35-6.45.32-10.27-.26h.26v-.26h.53c.58-1.45-1.19-2.63-2.9-2.65.53,1.05,2.04,1.13,2.11,2.65h-.26v.26Zm10.8-205.88h.53v-.53h-.53v.53Zm-43.72,3.97h.53c.01.16.04.31.26.26-.01-.45.2-.68.53-.79.39.31.31,1.1,1.05,1.06.01-.96.66-1.28.79-2.12-.8-.96-1.53-1.99-2.63-2.65-1.05,1.62-.05,2.28-.53,4.23Zm-43.72-2.38c.42.99.28,2.54,1.58,2.65h.79c.77-.55.69-3.06.26-3.97-1.51-.19-1.99.64-2.63,1.32Zm8.96,3.7c.96-.08,1.71.04,2.37.26.22-1.28.18-2.45,0-3.44-1.53-.48-1.03,1.08-1.84,1.32-.62-.61.1-2.57-.53-3.18-2.74.36-1.02,3.98,0,5.03Zm46.88-3.44c1.1.29,1.1-1.88,0-1.59v1.59Zm-62.95,1.59c.5.11.66.57,1.32.53.83.13.7-.71,1.32-.79.16-1.83-.59-2.76-2.37-2.65-.03.99-.64,2.34-.26,2.91Zm148.29-2.91c-1.96-.29-2.08,1.26-2.9,2.12-.3-.65-1.24.29-.53.53,1.15-.88,1.29,1.52,2.9,1.06,1.28-.16,1.43-2.95.53-3.7Zm-63.21,2.12c.83-.69-.3-2.54-1.05-1.59.63.25-.16,1.92,1.05,1.59Zm6.32.26c.72.19.53-.53,1.05-.53-.05-.84-.18-1.58-1.05-1.59.24,1.01-.43,1.69,0,2.12Zm29.24-.79c.7,0,.67.74,1.05,1.06-.38-1.97,2.04-1.12,2.37-2.38-1.21.37-3.16,0-3.42,1.32Zm18.7-1.06c-.37.34-.16,1.25-.53,1.59.61-.08,1.01.04,1.32.26.02-.79,1.58-1.56.26-2.12-.05.39-.64.24-1.05.27Zm-110.62.53c.59,1.1-.5,2.25.53,2.91.27-.84.51-1.71,1.58-1.06.76-.82.37-1.69-.26-2.38-.82-.03-1.26.32-1.84.53Zm10.27,2.91c.64-1.04.17-2.9-.53-3.44-3.49-.68-2.67,4.37.53,3.44Zm5-1.32c.34.37,1.14.26,1.84.27.4-.43.4-1.95,0-2.38-1.46-.14-2.1.53-1.84,2.12Zm70.85,0c.3-.31.3-.94.26-1.59-.39-.14-.66-.39-1.05-.53.44.91-.39,1.74.79,2.12Zm17.91-1.06c.64-.15,1.35-.23,1.32-1.06-.99-.2-1.28.3-1.32,1.06Zm-147.24,1.06c.8.01,1.73.15,1.58-.79-.19-.78-.82-1.12-1.84-1.06,0,.7-.1,1.51.26,1.85Zm90.61.27c-.12-1.25.23-.39,1.05-.53-.52-1.68.39.17.79-.53-.65-.5-1.16-1.13-2.37-1.06-.54.62-.27,2.03.53,2.12Zm-79.81,62.72c-11.49.48-16.08-7.22-20.02-15.08.92-.94.05-2.05.26-3.71.68-.28,1.29-.64,2.37-.53-.14-1.71-2.15-1.54-2.37-3.18-.91-2.09.12-4.04-.26-5.82.33-.55.77-.99,1.32-1.32.74-3.57,3.51-5.12,4.21-8.73,1.1-.57,1.98-1.36,2.11-2.91,1.2-.3,1.59-1.4,2.37-2.12,2.63-1.32,5.88-2.03,8.17-3.71,1.17-.23,2.73-.08,3.42-.79,0-.7.1-1.51-.26-1.85-1.65-.67-3.37.6-5.27.79-3.04.31-6.26-.29-8.95-.26-.34-1.16-1.49-1.5-2.9-1.59-1.55-1.88-3.65-3.21-4.74-5.56-.21-2.97-1.07-5.28-1.32-8.2h-2.11c-.29,1.88,1.24,1.93,1.32,3.44-.05,1.4-1.16,2.7-1.32,4.23-.41,4.11,1.77,7.72,4.48,9.26,3.2.66,5.71-1.14,7.11,1.32-1.75,1.95-4.63,2.76-4.74,6.35-.55-.11-.7.18-1.05.26-.85,2.14-2.18,3.81-3.42,5.56-.6.19-1.34.24-1.84.53.03,1.38,1.28,1.54,1.32,2.91-.07,3.98-1.26,6.85-1.05,11.11-.23,1.18-1.55,1.27-1.84,2.38.47.5,1.31.63,1.84,1.06,1.57,3.36,1.98,7.89,3.42,11.38,2.16,1.62,4.96,2.61,6.59,4.76,1.66,4.3,5.97,5.5,6.06,11.64-.1.87-1.4.53-1.32,1.59,0,.96,1.37.56,1.05,1.85-.24.82-.27,1.85-1.32,1.85-2.73-.55-5.87-3.82-9.22-2.91-1.05.29-2.79,2.03-2.9,3.44-.26,3.41,4.09,2.71,2.9,6.62-1.05.45-2.78.21-4.22.26-3.67-2.49-6.6-5.72-8.69-9.79.41-.38.23-1.35.26-2.12-2.11,1.08-.1,3.31-.79,5.82.37,4.39,2.77,6.75,4.48,9.79,2.91,1.16,4.51,4.41,7.9,4.76,2.75.29,5.01-1.76,8.17-1.06,1.16-.5,2.31-1.03,3.95-1.06.28-2.19,2.69-2.23,2.37-5.03.76-.92,2.32-1.03,2.63-2.38.64-1.08-.26-1.49-.26-2.65,1.88-5.3-.06-12.29-2.63-15.61.46-1.78,3.74-2.14,4.74-.53-.69.56-1.71,1.93,0,2.12-.11-1.35.02-2.45.79-2.91,5.75.63,9.33-3.13,11.85-6.62-.04-1.54-.11-3.11.53-3.97-1.31-1.42-.51-4.96-3.69-4.5-.36,1.96-.76,3.29-.79,5.03-2.47,2.37-4.91,4.77-8.17,6.35l.13-.13-.13-.13v-1.59c.55.11.7-.18,1.05-.26.13-2.2-1.42-4.62-3.16-2.65.47,1.65,1.2,3.03,1.84,4.5h-.26v.26ZM27.12,16.67c.79.17.92,1.02,2.11.79.02-1.21,1.12-1.35,1.32-2.38-.27-.35-.26-.98-.53-1.32-2.6-.67-2.71,1.16-2.9,2.91Zm15.8-2.12c.26-.88-.37-.87-1.05-.79-.08.7.37.87,1.05.79Zm27.66,1.32c.61.72,1.48,1.16,2.9,1.06-.13-.83.81-.6.53-1.59-1.05-1.1-3.56-2.72-3.42.53Zm77.7-1.06c-.64.89.88-.64,0,0h0Zm22.91,1.32h.53c.41-.65-.9-.78-.79-.26.16.02.31.04.26.26Zm5.53,0c.07.99.61,1.5,1.05,2.12,2.07,1.09,4.59.84,6.85,1.32.24.05.72.11,1.05.26,2.78,1.27,6.84,2.62,8.17,4.76.04-.31.42-.29.79-.26,2.09,2.22,5.46,3.16,6.85,6.09h1.05c.82,1.18,1.6,3,3.69,2.12-.97-2.29,1.08-4.44-.26-6.35.8.19.96-.27,1.58-.26.03-4.47,4.34-5.44,4.21-9.26-1.72-.73-3.99-.5-6.06-.27-.99,1.83-.77,4.88-2.63,5.82-1.15-.08-1.47-.99-2.63-1.06-.49.47.21.67,0,1.59.64.24,1.14.62,2.11.53.78,1.42,1.72,2.68,2.9,3.71-.27,1.05-1.15,1.49-2.63,1.32-.61-1.33-1.5-2.37-2.37-3.44-.04.66-.89.08-1.05,0-.36-.26-.53-.71-.79-1.06-3.4-1.02-4.95-5.21-8.96-4.76-.21-.94-1.54-.75-1.84-1.59h-1.84c-.58-.96-1.78-1.33-2.11-1.85-1.1-.05-1.3.81-2.37.79-.82-1.13-3.56-.95-4.74-.26Zm-1.84-.26c-.92.66-.91,2.26-2.37,2.38.05,2.6-1.8,3.3-1.32,6.35-2.79.25-2,2.48-3.95,3.44-1.31-.18-2.16-.83-3.69-.8-.54.43-.61,1.33-.53,2.38,1.11,1.04,2.78.14,4.48.27.9,1.76-.1,4.61-1.84,5.29-1.05-.59-1.8.16-2.63.53-.12,1.18.71,1.4,1.05,2.12h2.63c1.51,1.03,3,1.58,4.22,2.91.18.19.13.87.26,1.06.91,1.31,2.16,2.27,4.21,2.12.47-2.17,2.15-3.13,3.16-4.76.15-4.3-2.26-6.02-2.11-10.32-2.1-3.52-1.01-7.53-.79-12.97h-.79Zm17.65,2.12c1.14.18.71-1.23.79-2.12-1.14-.18-.71,1.23-.79,2.12Zm-159.35-1.59c-.6.45-.1,2.02-.26,2.91.93-.03.07-.38.53-1.06.78-.19,1.11-.83,1.05-1.85-.84.16-.81-.5-1.32,0Zm130.12,3.18c1.12.95,2.54.14,3.95.53-.25-1.31.7-1.41.79-2.38-1.05-1.3-2.01-1.1-3.69-1.59-.23,1.27-1.15,1.84-1.05,3.44Zm-65.06-2.91c-.07.6.06.99.53,1.06.08-.31,1.06-1,.26-1.32-.04.31-.42.29-.79.27Zm101.4.79v1.06c.58.55,1.75.21,2.11-.26,0-1.47-1.19-1.43-2.11-.79Zm-183.85.53c.41-.03.91.04.79-.53h-.53c0,.27-.21.32-.26.53Zm28.18.79c1.06-.08,2.42.14,2.63-.79-.52-.83-1.9-.21-2.37-.53.22.75-.37.69-.26,1.32Zm-26.08,0c.86.06,1.04-1.24,0-1.06v1.06Zm133.8-.26c-.22.57-.65.94-1.58.79-1.97-.28-4.96-1.15-6.06.53-4.61-1.13-10.42.46-15.8-.26-2.65,1.02-5.53.25-7.9,1.32-3.35-.53-7.17-.08-10.27-1.32-.26.35-.43.8-.79,1.06-4.06.4-10.91-.91-15.8,0-5.23-1.76-12.01-.41-17.65-.79-1.64-.83-3.39-.31-5.27-.53-1.3-.58-3.47-1.46-4.74-.53-.4-1.69-3.2-.2-3.42.79,1.59.64,3.59,2.05,5.53.79,3.62,1.91,9.3,1.77,12.91,3.7,2.18-.25,2.97.89,5.27.53,2.33,2.15,5.98,2.99,8.43,5.03,1.43,2.62,3.72,4.38,5,7.15,1.02,2.86,1.37,6.38,2.9,8.73-.47.06-1.32-.27-1.05.53-.27,1.24,1.06.88.79,2.12-.05,2.7-1.3,6.35-.53,8.2-.39.49-1.36.4-1.32,1.32.81,2.94,3.29,6.24,1.05,9.26.86,1.34-.09,1.65-.26,3.18.51,1.97.24,3.48,1.05,4.76-.34.54-1.28.48-1.05,1.59.64,5.22.86,8.21-.53,12.7.4,3.19.34,6.42-.53,9-.13.83.81.6.53,1.59-1.32,5.44,1.07,12.66-1.05,17.73-.1.98,1.07.69.79,1.85-1.42,5.78,1.61,12.69-1.05,17.47-1.4.23-1.97-.16-2.63.53,1.93-.26,2.72.62,3.16,1.85-.27,1.15-1.57,1.24-1.58,2.65,2.34.12,1.75,3.18,2.63,4.76-.56,1.56-1.05,3.18-1.32,5.03,2.23,3.01-.05,7,0,10.59.02,1.17.63,2.3.53,3.44-.12,1.4-1.12,2.77-1.32,4.23-.34,2.47.04,4.66,0,6.88-1.38,2.27-.51,5.37-1.05,8.2.6.63.46,2.01.79,2.91-2.6.92-4.67,1.17-4.21,4.76-1.82,1.96-3.54,4.03-6.85,4.5-.31.4-.33,1.08-.79,1.32-2.79,1.43-5.79,2.65-8.69,3.97-2.52-.72-4.85,1.8-7.37,1.06.25-.7.51-2.27,0-2.91-1-.12-1.24.52-1.84.79-.41,1.39,1.86,1.47,1.32,2.12-1.42,1.48-3.71-.07-4.74,2.38,4.9.89,9.45-1.62,14.22-.26,9.85-1.46,22.22-1.44,31.61-1.85,5.32,1.38,13.6-.6,20.28-.26,1.13.93,2.96.37,4.74.53.78.07,1.43.49,2.11.53,4.83.27,8.29-1.32,11.85.26,2.11-.35,4.05,0,5.79,0,1.15,0,2.41-.52,3.69-.53.75,0,1.37.5,2.11.53,1.46.05,2.94-.47,4.21-.53,1.75-.09,3.98.55,3.95-1.85-2.75-.45-4.19-.57-6.58-1.32-.67-.21-.14-1.62-1.05-1.59-1.12-.27-1.06,1.36-2.11,1.85-3.73.35-5.94-.64-10.01-.53-3.53-1.31-6.41-3.26-10.8-3.71-.3-.84-1.63-.65-1.84-1.59-5.11-.78-7.5-4.29-10.54-7.15.13-1.37-.84-1.63-.53-3.17-2.64-2.26-1.42-5.96-1.32-9.53.18-6.29-1.18-13.16,0-18.26-.76-1,0-3.49-.26-5.56,1.9-4.16-.46-9.01-.53-13.5,0-.67.47-1.39.53-2.12.23-2.9-.55-4.96.79-6.35-.65-4.09.11-9.7,0-14.03.24-.9.74-1.55.53-2.91-1.87-2.97-.89-5.82-.79-9.53.81-.24.71-1.4,1.84-1.32.53.27,1.12.46,1.32,1.06-.02,1.13-.44,1.85-.26,3.18,1.31.57.07,2.94,1.84,3.44.97-.74-.31-3.25,0-5.03.6-2.24,1.63-3.09,3.42-4.23.88-.56,1.69-1.18,2.37-1.32,2.37-.51,5.25.02,7.9,0,4.82-.63,8.56-2.34,12.64-3.7.74-1.28,1.68-2.37,2.9-3.18,1.37-3.34,1.21-7.35.26-11.38-1.03-1.17-2.08-2.32-2.37-4.24-1.27-.9-3.27-1.35-2.63-3.44,2.95-.07,6.54-1.35,9.48-.26,1.95-1.04,3.97-2.01,6.06-2.91,1.38-2.23,3.57-3.65,5.53-5.29.13-2.49,1.71-5.12-.79-6.09-.13,1.28-1.2,1.62-1.84,2.38-.54,2.99-2.53,4.52-3.95,6.62-1.12.02-2.79-.27-3.69,0-1.37.41-2.14,1.7-3.69,1.85-1.09.11-2.52-.59-3.95-.79-2.51-.36-4.29-.95-6.59-1.59-.95-1.52-2.93-1.99-3.95-3.44-.6-.19-1.35-.24-1.84-.53-.42-2.76-1.57-4.78-3.42-6.09.27-2.59-1.84-5.01-2.9-7.14,1.3-2.27-1.22-3.99-.26-5.82.33-.63.26-1.56.53-2.12.25-.53,1.04-.79,1.32-1.32.7-1.33.71-2.78,1.05-3.97,1.63-1.27,2.58-3.23,3.69-5.03,1.67-1.5,3.42-2.92,5-4.5,1.42-.81,3.62-2.13,3.16-3.97-1.25-.2-1.81.3-2.9.26-1.66,1.16-3.15,2.48-5.27,3.17-.09,1.14-.71,1.76-1.84,1.85-.91,2.18-2.72,3.44-3.42,5.82-.96.28-1.58.88-2.37,1.32-.94,3.75-1.86,7.63-1.58,11.91-.28.99.66.75.53,1.59-.51,2.04-1.35,3.76-1.58,6.09-.68,1-1.49,1.86-1.84,3.18-1.35,1.02-2.66,2.09-3.42,3.71,0,1.06,1.23.88,1.58,1.59,4.87.83,4.08-4.02,7.37-4.76.97.61.9,2.28,1.05,3.71,1.97,2.08,4.12,3.98,5.79,6.35-.05.83-1.42.34-1.32,1.32-.69,4.07,3.94,2.82,5.79,1.85,2.52,1.49,1.99,4.42,3.69,6.62.58.39,1.96-.03,2.11.79-1.3,1.5.5,4.61-1.32,6.35-1.41.35-2.43,1.09-3.69,1.59-1.41.32-2.17-1-3.16-.26-.28-1.48-2-1.52-2.63-2.65-.61-1.6-1.1-3.3-2.63-3.97-2.52.56-2.08,3.62-2.11,6.09.52,1.68,2.02,2.38,2.37,4.23-2.33,1.54-6.74-.11-8.43,2.38-.63.11-.57-.48-1.32-.26-.44,1.32-1.67,1.85-3.16,2.12-.62,1.41-.55,3.51-2.11,3.97-1.07.1-1.21-.72-1.84-1.06-.02-2.17-1.21-3.14-1.05-5.03.15-1.88,2.5-3.88.79-5.82.46-7.8-.73-15.06.26-22.76-1.12-4.52-.49-9.51-1.58-14.29,1.31-2.49.55-6.06.53-9.26,1.16-1.93,1.82-4.35,2.63-6.62,1.47-.9,2.18-2.57,2.9-4.23,3.13-3.38,8.12-4.9,12.12-7.41,3-.51,6.26-.77,8.69-1.85.22.39.66.57,1.32.53,1.9-.82,4.15-1.3,7.11-1.06.31-.75,1.23-.89,1.84-1.32-2.19-2.22-6.61,1.14-9.75-.53Zm-50.57-.53c-.31.04-.75-.05-.79.26.31-.04.75.05.79-.26Zm-84.81,2.91c.33.82.31,1.98,1.58,1.85-.27-1.62.58-2.96-.26-3.71.08,1.14-1.24.87-1.32,1.85Zm13.17,0c.5.11.66.57,1.32.53-.19-.6.47-2.06-.53-1.85-.38.32-.4,1.01-.79,1.32Zm10.8-.26c.2.86.73,1.38,1.58,1.59.25-.64,1.06-.7.79-1.85-.67-.6-1.86-.11-2.37.26Zm-5,1.59c.24-.56.41-1.18.79-1.59-.31-.22-.71-.35-1.32-.26,0,1.15-.47,1.46.53,1.85Zm18.96,1.06c1.22.08,1.73-.55,2.11-1.32.06-.5-.3-.58-.26-1.06h-1.32c-.42.55-.18,1.76-.53,2.38Zm127.75.79c.61.36.87,1.06,2.11.79.47-.87.51-3.24-.79-3.18-1.13.1-1.25,1.21-1.32,2.38Zm-21.07-1.85c-.26,1.06.79.8.53,1.85,1.31.27.84-.84,1.84-.27,0-1.25-1.26-2.3-2.37-1.59Zm-111.42.53h.53v-.53h-.53v.53Zm11.85,1.59c-.01.36.12.58.26.79,1.96.1,4.04,2.18,5.79.79-.03-2.95-4.29-1.57-6.06-1.59Zm-21.86,1.32c.07-.69-.1-1.14-.79-1.06-.07.69.1,1.14.79,1.06Zm170.41,2.12c.47.73,2.07.62,2.9.27,1.26-4.12-3.58-3.77-2.9-.27Zm-54-1.06c.93.89,3.68.81,3.16-1.32-1.72-.33-2.93-.38-3.16,1.32Zm31.87,0c.1,1.05,1.07,1.22,1.58,1.85,1.75-.2,1.83-2.35.79-3.44h-1.05c-.23.74-1.31.63-1.32,1.59Zm-128.8-1.06c.31,1.05.31-1.05,0,0h0Zm12.64,2.38c.51.74,1.85,1.07,2.9.53-.15-.86.18-1.23.26-1.85-.95-1.58-3.76-1.85-3.16,1.32Zm-21.33-.53c2.95,1.01,3.1,4.83,5.53,6.35.38,3.87-2.22,6.91-2.37,11.11.26.35.71.52.79,1.06-.76,1.27-1.68,2.37-2.63,3.44.96-.08,1.71.04,2.37.26.51,1.78,1.01,3.57,2.63,4.23.19.66-1.16,1.09-.26,1.59,1.63-1.89,3.3-3.74,5.27-5.29,1.38-.2,2.58-.59,3.42-1.32-.23-1.8-1.71-2.34-2.9-3.18-.66-1.37-1.12-2.93-1.05-5.03-1.62-2.78-2.4-6.41-3.95-9.26-.83.13-1.08-.33-1.32-.79-.1-1.4-.72-2.27-1.32-3.17-1.54-.48-2.58-1.47-4.48-1.59,0,.62.45.78.26,1.59Zm93.5-.27c.12-.83-.23-1.18-1.05-1.06.03.67.38,1.03,1.05,1.06Zm-86.66,1.06c2.75,2.89,6.68,3.34,10.8,4.5,3.11,2.43,6.44,4.64,9.48,7.14.27.35.26.98.53,1.32,5.64,2.45,5.75,10.46,8.69,15.61-.15,1.44-2.04,1.12-2.11,2.65.95,1.16,2.74,1.48,3.42,2.91-.52,2.98,1.08,5.92,1.05,9.26-1.46,2.91-1.56,5.66-1.32,10.06.42.4,1.32-.23,2.37,0,.69-.89,1.35-1.82,1.58-3.17-.13-.75-1.38-.38-1.05-1.59,1.75-3.47.52-9.01,1.32-12.17-.16-.99-1.21-1.08-1.32-2.12.43-.89.69-1.96,1.05-2.91-.32-2.06-.85-3.91-1.84-5.29-.83-4.72-2.38-8.72-4.74-11.91-.18-2.66.73-4.2.79-6.62,1.5-1.78,5.1-4.4,2.9-7.41-2.33.81-4.45.23-6.32,1.32-.31,1.54-1.38,2.32-1.58,3.97.16,1.4,1.48,3.5,0,4.23-3.24-3.01-7.12-5.37-10.8-7.94h-1.84c-.82-.94-2.41-1.11-3.42-1.85-3.07.17-4.57-1.23-7.37-1.32.08.61-.04,1.02-.26,1.32Zm124.32,1.59c1.59.22,2.19-1.17,1.58-2.38-2.1-.72-2.66,1.48-1.58,2.38Zm-165.94-1.85c.3,1.04.3-1.05,0,0h0Zm123,2.12c.76-.12,1.2-.56,1.32-1.32-.83-1.31-2.46.64-1.32,1.32Zm56.63.53c1.07-.65,1.27.26,2.37.26-.03-.76.15-1.73-.26-2.12h-2.11c.23.96-.47,1.41,0,1.85Zm-41.09.26c-.19-.81.46-.78.26-1.59-.46.02-.82-.06-1.05-.26-.57.65-.2,1.96.79,1.85Zm-75.33,1.06c.47-.44-.23-.89,0-1.85-3.12-2.33-3.33,3.53,0,1.85Zm107.73-1.06c.69.08,1.13-.1,1.05-.79-.69-.07-1.13.1-1.05.79Zm2.9.26c.45.48,1.04-.08,1.05-.79-.69-.07-1.13.1-1.05.79Zm-30.82.53v.79c.57.6.9-.22,1.84,0,.11-.99-1.2-1.36-1.84-.79Zm54.79,2.65v-2.12c-.66-.22-1.41-.35-2.37-.26.26,1.33,1.05,2.12,2.37,2.38Zm-31.34,1.06c.33.11.54.34.53.79,1.1.04,2.2.09,2.63-.53.36-2.95-3.67-4.09-3.16-.26Zm-165.41.79c.62-.44.57-1.54.53-2.65-.39,0-1.08-.98-1.32-.26-.12.33-.25,2.34.79,2.91Zm118-1.85c.77,1.09,2.51-1.05,1.05-1.32.2.99-1.01.58-1.05,1.32Zm-91.92,2.65h1.84c.54-1.53.31-3.35-1.58-3.17-.79.64-1.09,2.32-.26,3.17Zm158.83-2.65c.73,1.14.02.89,0,2.38.65.04,1.27.04,1.58-.26-.11-1.02-.29-.94.26-1.59-.51-.32-1.33-1.01-1.84-.53Zm-136.44.26c-.9.74-1.03,1.56-.79,2.91.2.06.52,0,.53.26,2.11-.05,2.24-3.03.26-3.18Zm27.66,1.06c-.19-.72.52-.53.53-1.06-.88-.49-1.11.95-.53,1.06Zm63.21,3.18c1.28-.03,1.83-.81,2.9-1.06.02-.99-.27-1.67-.53-2.38-2.35-1.37-3.45,2.15-2.37,3.44Zm35.56-2.12c-2.06,1.28-4.84,1.84-7.64,2.38-4.62,3.02-8.15,7.98-7.64,15.35,1.87,3.39,6.22,3.68,10.27,3.97,1.3-.73,2.41-1.63,4.74-1.32,2.21-1.14,4.21-2.47,6.85-3.17,3.09-4.92,6.55-9.48,8.69-15.35-.52-.27-.41-1.17-1.32-1.06-1.34,1.12-1.76,3.17-3.69,3.71-1.33-.52-1.52-2.18-3.16-2.38-.57,2.51,1.34,2.53,1.84,3.97-1.59,2.46-5.07,1.84-7.64,2.91-1.2-3.61,2.85-5.99,3.42-9.53-1.71.63-2.4.71-4.74.53Zm-177.26,1.59c.74.22.68-.37,1.32-.26.06-.94-.38-1.38-1.32-1.32.02.99.29.75,0,1.59Zm118,1.06c.8.19.96-.27,1.58-.26.2-1-.32-1.27-.26-2.12h-1.58c.05.83-.18,1.94.26,2.38Zm17.65-.26c.44.57,1.75,1.23,2.63.53.12-1.53-.57-2.25-1.84-2.38.14,1.02-.67,1.09-.79,1.85Zm53.73-1.59c0-.27-.46-.33-.53,0,.06.32.29.16.53,0Zm-180.95,2.38c.22-.66.72-1.04.79-1.85-.63.11-.57-.48-1.32-.26-.63.95-.47,1.69.53,2.12Zm105.62,0c.96,0,1.16-.78,1.05-1.85h-.79c-.35.51.19,1.06-.26,1.85Zm-90.08-.26c-.11-.51-.1-1.14-.79-1.06-.52.5-.15,1.27.79,1.06Zm-24.76-.27c-.09-.21-.7-.32-.79,0-.18.61,1.03.57.79,0Zm57.42,0c-.06.94.38,1.38,1.32,1.32-.19-.81.45-.78.26-1.59-.62,0-.78.46-1.58.26Zm74.54,3.18c.01-1.14,1.07-1.22,1.05-2.38-.15-.9-.86-1.25-2.11-1.06-.89.99-.64,3.5,1.05,3.44Zm-102.46.26c2.19.06,1.37-2.36,1.32-3.44h-1.32c-.13,1.57.28,2.36,0,3.44Zm21.6-2.91c-.22,1.57.15-1.06,0,0h0Zm25.55,1.85c.57-.72.45-1.29,0-2.12h-1.05c-.2,1.26.37,1.74,1.05,2.12Zm118.79-1.32c-1.15,1.58-2.23,4.57-.79,6.62-1.02,1.5.18,4.31.26,6.35-1.31,2.83-3.39,4.88-3.69,8.73-.2.42-1.29-.06-1.05.79-.91,1.82-1.67,3.79-3.16,5.03.11,2.93-2.29,3.35-2.9,5.56-.67.3-1.28.65-1.84,1.06.91,1.99-1.92,2.78-1.84,4.23.05.93.6,1.95,2.63,1.85,1.41-1.85,3.77-2.74,3.69-6.09.62-.09,1.09-.32,1.58-.53,1.88-1.99,3.16-4.59,5-6.62.3-4.02,2.58-6.06,2.11-10.85,2.03-1.9,1.58-4.69,1.05-7.94.31-.83.89-1.4,1.05-2.38-1.6-1.42.51-4.94-1.58-5.82h-.53Zm-36.35,9.53c-.43-1.34-1.79-1.73-1.58-3.7-3.35-2.19-7.54-6.06-12.38-5.03-1.08.21-1.35-.41-2.37-.27-1.3,1.16-4.91,0-5,2.38,1.37,2.24,7.21,0,6.32,4.5-3.22,2.83-7.31.61-11.85.53-1.16-.33-1.44-1.56-3.16-1.32-.37,3.13,2.65,5.08,3.95,7.41,1.52.1,2.4,1.48,3.69,2.12,1.08.53,2.37.49,3.42,1.06,1.08.58,1.79,1.91,2.9,2.38,1.61.69,3.61-.04,5,1.32,4.31-.52,7.9-1.77,11.06-3.44.08-3.02-.46-5.17,0-7.94ZM14.48,42.08c1.11.38,1.03,1.97,2.37,2.12,1.07-.1.97-2.4.53-3.18-1.62.07-2.24.6-2.9,1.06Zm53.73.26c-.64-3.52-5.35,1.7-.79,2.12.63-.67.97-1.15.79-2.12Zm-20.28.53c.66.61,1.63,1.1,2.11,0-.46-.59-.48-1.63-1.84-1.32.08.61-.04,1.02-.26,1.32Zm-13.7,1.59c.6-.69.03-1.79-1.05-1.59.12.76.31,1.46,1.05,1.59Zm96.66.26h1.58v-1.32c-.86-.01-1.01-.75-2.11-.53-.03.82.83.76.53,1.85Zm-52.94-.53c-.83-2.01-2.95-.54-2.37,1.85.93-.14.65.94,1.58.79.32-.83.98-1.31.79-2.65Zm64.79-.26c.08-.7-.36-.87-1.05-.79-.21.95.56,1.31,1.05.79Zm-104.04,1.85c.98.02.75.3,1.58,0,.16-.63.38-1.21.26-2.12-1.61-.94-2.59.47-1.84,2.12Zm108.52,0v-1.06h-1.05c-.2.91.15,1.26,1.05,1.06Zm-100.88,1.85c.06-.3.29-.41.53-.53.07-.77-.6-.81-.53-1.59-.8.19-.96-.27-1.58-.26-.41.9-.27,2.49,1.58,2.38Zm22.65,0c.44.53.71,1.23,1.58,1.32-.76-1.54,0-1.34.26-2.91-1.22-.08-1.82.46-1.84,1.59Zm21.86-1.06c-.07.69.1,1.14.79,1.06-.2-.81.72-.51.53-1.32-.63-.11-.57.48-1.32.26Zm115.36.79c.01-.46-.2-.68-.53-.79-.38.39-.39,1.03.53.79Zm-176.74,1.85c.19.6,1.11.47,1.58.79.16-.9.72-1.39.79-2.38-1.16-.77-2.68.03-2.37,1.59Zm9.22-.26c.09.97-1.51.25-1.05,1.59,1.7,1.65,5.95,1.83,4.48,5.82-1.85,2.18-4.68,1.55-6.32.26-.39-.31-.67-.29-1.05-.53-1.62-1.01-2.81-2.39-4.74-2.38-.31,3.51,2.43,6.19,3.69,9,2.06.57,4.08,1.19,5.27,2.65,1.67.08,2.69.82,3.95,1.32,2.22-.26,4.27-.82,5.79.26,2.2,0,3.23-1.17,4.48-2.12.23-2.31.92-5.04.26-7.41-1.29-1.52-2.51-3.12-3.42-5.03-3.21-1.36-5.44-3.7-10.27-3.44-.93-.34.12-1.68-.79-1.59h-.79c-.34,1.05.87.54.53,1.59Zm134.33-.53c.69.07,1.13-.1,1.05-.79-.34-.01-.37-.34-.79-.26.02.46-.06.82-.26,1.06Zm-77.7,1.59c1.46.06,1.27-2.14,0-2.12v2.12Zm-18.44.26c.42.54,1.32.62,2.37.53-.22-.75.37-.69.26-1.32-.79-1.03-2.55-.42-2.63.79Zm53.47-.79c-.08,1.31.54,1.93,1.84,1.85.48-1.05-.44-3.24-1.84-1.85Zm74.8,0c-.21.49-.44.97-.53,1.59.77.65,1-.96,2.11-.79.13-1.41-.67-.89-1.58-.79Zm-136.44,1.59c-1.45,1.36-3.82,1.81-5.79,2.65-1.35,1.38-2.39,3.07-4.48,3.71-.46,1.04-1.47,1.52-1.32,3.18,1.6,2.81,2.99,5.81,5.01,8.2,3.47.65,5.6-1.34,9.22-1.32,1.22-1.86,3.79-2.37,6.06-3.17,1.32-3.95,5.1-7.09,4.21-11.64-1.95-.29-1.98,1.36-2.63,2.38-2.69.21-3.41,2.4-5.79,2.91-1.34-.98-1.54-2.51-1.32-4.5.58-1.19,2.48-1.04,2.37-2.91-1.84-.81-3.36.81-5.53.53Zm-49.78,2.12c0-.27-.46-.33-.53,0,.3-.03.41.39.53,0Zm185.43,2.12c.32-.75.32-1.63,0-2.38-2.63-.93-2.37,3.21,0,2.38Zm-111.41.79c.85.38,1.48.99,2.37,1.32,1.11-.81,1.22-3.86-.79-3.71-.9.42-1.21,1.44-1.58,2.38Zm-77.96.53c.57.22.9.69,1.84.53.58-.72.16-2.12-.26-2.65-1.59-.37-1.68.78-1.58,2.12Zm60.58-2.12c-.2.06-.52,0-.53.26.2-.06.52,0,.53-.26Zm53.73,1.59c1.13.58,2.6.23,2.37-1.32-1.22-.67-2.47-.1-2.37,1.32Zm15.28.79c.96,1.91.98-.39,0,0h0Zm-89.82.53h.53v-.53h-.53v.53Zm144.6.26v1.85c.61.27.85.91,1.84.79.75-.57,1.23-1.41,1.32-2.65-.7-.96-2.29-.37-3.16,0Zm-6.85,3.7c.61.36.87,1.06,2.11.79.06-.3.29-.41.53-.53.21-1.98-.94-2.59-2.11-3.18.16,1.31-.68,1.61-.53,2.91Zm-12.91-2.12c-.22,1.57.15-1.06,0,0h0Zm-85.08,1.32c.15,1.09.98,1.48,2.37,1.32.26-1.08-.03-1.07,0-2.38-1.53-.39-1.44.85-2.37,1.06Zm53.47,1.85c.71.61,1.69.95,2.9,1.06,1.76-2.84-3.32-4.72-2.9-1.06Zm32.66,1.32c.97-.17,1.47-.82,1.32-2.12-1.27-.13-1.34.95-1.32,2.12Zm30.03,2.12c2.25.05,2.99-3.24,1.32-4.23-.94.82-2.67,2.76-1.32,4.23Zm-22.39-.79c.68.28,1.29.64,2.37.53,1.15-.91.6-2.3.26-3.71-2.49-.56-2.9.96-2.63,3.18Zm-172.26-1.59c.08-.36.37-.5.26-1.06-.46.02-.82-.06-1.05-.26-.05.76-.03,1.44.79,1.32Zm66.11-.26c-.84,2.75,2.37,3.35,3.42,1.85-.21-.91-.14-2.13-1.32-2.65-.78.19-1.63.3-2.11.79Zm114.05,1.59c.95-.1.66-1.45,2.11-1.06-.27.79-.2,1.92-.79,2.38,1.35-.57,1.65-1.44,1.32-3.18-1.61-.89-2.56.4-2.63,1.85Zm-41.09,1.06c.31.04.75-.04.79.27,3.87-1.58-2.21-5.57-.79-.27Zm-125.37-2.38c0-.27-.46-.33-.53,0,.05.32.29.16.53,0Zm131.7,2.65h1.84c.41-.38.23-1.35.26-2.12-2.05-.92-3.43.47-2.11,2.12Zm-131.17-.79c.77.39.77-1.18,0-.79v.79Zm106.67,1.85c.85.39,2.35.39,2.37-.79-.35-2.12-3.74-1.79-2.37.79Zm-100.88,1.59c1.32.31,1.29-1.68,2.37-.79-.02-1.75-2.76-.75-3.42-1.85-.65.98.16,2.38,1.05,2.65Zm58.74-2.38c.19.6-.48,2.07.53,1.85.51-.13.85-1.76.26-2.12-.04.31-.42.29-.79.26Zm90.87,0c-.72.81.8-.72,0,0h0Zm-55.31,1.85c.48.58.88,1.23,2.11,1.06.06-.3.29-.41.53-.53,0-.79.02-1.61-.79-1.59.16,1.66-1.31.49-1.84,1.06Zm-53.21,0c.08.97-.22,2.34.26,2.91h2.9c.32-.82.61-1.68.53-2.91-1.12-1.1-2.28-.81-3.69,0Zm106.67.53c-.21.81,1.69,1.35,0,1.32.23.92,1.86,1.7,2.37.79-.87-.72-.77-2.41-1.58-3.17-.42.2.06,1.29-.79,1.06Zm-42.67.26h1.05c.07-.6-.06-.99-.53-1.06-.14.39-.39.67-.53,1.06Zm35.82,1.32c.78.45,1.37,1.09,2.11,1.59,1.87-.59,1.64-2.41.79-3.97-2.02-.26-2.59.93-2.9,2.38Zm-161.2.26c.57.22.9.69,1.84.53-.37-.95-.22-2.42-1.32-2.65h-.53v2.12Zm67.43.53c.64.51,2.2.25,2.9,0,.06-.21,0-.52.26-.53-.08-1.59-.98-2.37-2.9-2.12.02.59-.57,1.96-.26,2.65Zm-40.83-1.32c.01-.46-.2-.68-.53-.79-.38.39-.39,1.03.53.79Zm6.85,1.59c.63.25.7,1.06,1.84.79.51-.59.23-1.99,0-2.65-1.66-.43-1.61.85-1.84,1.85Zm159.88-1.32c-.06.21,0,.52-.26.53.03,1.65,1.17,2.17,2.63,2.38.82-.64.16-1.13.26-2.38-.92-.47-1.51-.86-2.63-.53Zm-137.23,3.18c2.37,2,3.55-1.07,2.11-3.18-2.68-.36-1.57,1.67-2.11,3.18Zm65.85.26c1.2-.42,2.17-2.21,1.05-3.44-2.69-.87-3.17,3.28-1.05,3.44Zm-104.04-1.59c-.09-.62-.27-1.14-.79-1.32-.05.76-.03,1.44.79,1.32Zm137.23.26c.73,1.08,2.86,2.19,4.21,1.06.11-2.21-3.6-3.34-4.21-1.06Zm-151.19-.79c-.25,1.2,1.11,1.67,1.84,1.06v-1.06c-.6-.13-1.35-.52-1.84,0Zm17.91,2.65c.96.17,1.4-.18,1.84-.53.4-2.91-3.32-1.75-1.84.53Zm26.87-1.59v1.06c.62.13,2.23-.22,1.32,1.32,1.16.56,2.36-.21,2.63-1.32-.93-1.12-2.35-1.91-3.95-1.06Zm31.08,2.12c.34-.63.96-.97.79-2.12-1.73-.5-2.07,1.83-.79,2.12Zm94.03-1.32c-.07.69.1,1.14.79,1.06-.29-.68,1.13-.93.26-1.32-.05.39-.64.24-1.05.26Zm-48.2.26c-.15.64-.26,1.52-.53,2.65,1.05.27,2.25.39,3.42.53-.14-1.01-.55-1.74-.79-2.65-1.45.57-1.32-1.24-2.11-.53Zm-10.01,2.38c.86.61,2.17-.16,2.37-1.06,0-.79-1.24-.34-1.58-.79-.27.61-.91.85-.79,1.85Zm72.7,1.59c1.12,1.57,4.02.64,4.21-1.06-.36-3.03-5.1-3.2-4.21,1.06Zm-35.56-1.59c.33,2.08,2.32,2.43,4.21,1.59-.21-1.81-3.36-4.39-4.21-1.59Zm42.67-.79h.53v-.53h-.53v.53Zm-194.38.79c-.08-.52.36-.53.53-.79-.91.21-1.01-.39-1.84-.26-.17.96.54,1.04,1.32,1.06Zm6.32,1.59c.35.47,1.53.82,2.11.26.39-1.36-.8-1.14-.53-2.38-1.51-.28-1.5.96-1.58,2.12Zm46.36.53c.58.68,1.56,1.36,2.63.79.43-.94.35-2.53-.26-3.18-1.49.08-2.61.55-2.37,2.38Zm9.22,1.85c.11-1.28.67-2.69.26-3.71-3.09-2.55-4.26,4.58-.26,3.71Zm4.21,0c-.69.72-2.06.75-3.16,1.06.49,2.22,2.82,3.78,5,3.44.52-1.46-.08-3.03-.53-4.76.83-.48,1.74-.89,1.84-2.12-1.02-3.39-4.5-.94-3.16,2.38Zm76.91-2.65c.5.55.72,1.4,1.84,1.32.67-1.14-.96-1-.53-2.65-1.04-.16-1.17.59-1.32,1.32Zm17.91-1.32c-.86.73-2.24.92-1.84,2.91.68.81,1.54,1.33,2.9.79-.02-1.57.24-3.41-1.05-3.7Zm-12.91,1.06c-.34.35-.35.98.26,1.06.22-.31.35-.71.26-1.32-.85.33-.2-.86-1.05-.53-.08.52.35.52.53.79Zm31.08,8.47c-.93-1.62-3.4-1.7-3.95-3.71.09-2.12-1.05-3-1.84-4.23-2.91.42-8.39-3.74-9.48.53-.49,1.93,1.09,3.61,1.32,4.76.11.56-.19.72,0,1.06.75,1.29,2.24,2.19,3.16,3.44.65.87.81,1.87,1.58,2.38,2.99-.27,4.29,1.15,5,3.17,1.18.05,1.78.68,2.37,1.32,1.39-.57,2.21-.01,3.16.53.45-.61,2.01-.1,2.9-.26,1.22-1.06,2.36-1.04,3.69-1.59,1.13-2.92-1-4.57-1.58-6.62-3.27.94-4.3-2.1-6.32-.79Zm-133.54-5.82c1.58.26,2.12-.52,2.63-1.32-1.11-.47-1.23-1.94-3.16-1.59-.66.93-.13,2.48.53,2.91Zm86.66.53c.17-1.49-.76-1.88-.79-3.17-4.02-1.45-2.44,5.8.79,3.17Zm-54.79-1.32c.61.27.85.91,1.84.79,1.3-1.9-1.77-3-1.84-.79Zm78.49.79c.61.09,1.01-.04,1.32-.26.11-1-.56-1.21-1.05-1.59-.36.34-.26,1.15-.26,1.85Zm39.25-.53c1.51-.72,1.64.35,2.9.53-.15-.86.08-1.33.53-1.59-1,.8-3.41-1.01-3.42,1.06Zm-77.17,1.59c.51.99,1.58,1.41,2.63,1.85.6-.71.92-1.72.79-3.17-1.15-.49-3.2-.43-3.42.79l-.13-.13-.13.13c-.8-.04-.34,1.08,0,.27l.13.13.13.13Zm66.9-.53c.34-.35.35-.98-.26-1.06-.34.35-.35.99.26,1.06Zm-173.84,1.59c.91.21,1.01-.39,1.84-.26.08-.62.42-.99.26-1.85-.51-.35-1.06.19-1.84-.26-.48.63-.69,1.53-.26,2.38Zm141.97-1.85h.53v-.53h-.53v.53Zm-148.55,1.85c.5.06.58-.3,1.05-.26.11-1.08-.27-1.67-1.32-1.59,0,.7-.1,1.51.26,1.85Zm144.07,2.38c.62-.95,0-2.53-.26-3.44-3.66-1.39-2.62,4.08.26,3.44Zm-107.99-3.44c-.89,2.18.27,4.45,2.9,3.97.47-.5.19-1.75.26-2.65-.79-.71-1.6-1.39-3.16-1.32Zm145.13.27c.3,1.05.3-1.05,0,0h0Zm-137.23.53c-.39.58-.8,1.14-.79,2.12.84.87,2.39.98,3.16,0,.06-.5-.3-.58-.26-1.06.84-.16.81.5,1.32,0v-1.06c-1.65-.65-2.11.52-3.42,0Zm104.57,3.44c1.05.26.79-.79,1.84-.53.28-1.67-.04-2.32-1.32-2.91h-.53c-1.02.78-.21,2.36,0,3.44Zm36.08-1.06c-.95-.19-.89-1.4-1.32-2.12h-2.11c-.06.21,0,.52-.26.53.08.9,1.21,2.12,2.11,1.32-.97.25-1.05-1.3-.26-1.32.2.78,1.23,2.1,1.84,1.59Zm-132.49,2.38c.74-.49.5-1.97.53-3.18-2.85-2.92-4.49,3.69-.53,3.18Zm75.86-1.06c1.19.41,1.91.14,2.9-.26.11-1.34-.62-1.84-1.05-2.65-2.18-.6-2.43,1.54-1.84,2.91Zm59.53-1.85c-.14.94.93.65.79,1.59-.5.11-.66.57-1.32.53-.8,3.37.08,5.67,2.63,7.15.48-.84,1.63-1,1.58-2.38-.72-.66-2.64-.72-1.84-2.12-.94-.41-.16.9-.79.79-1.91.03-.78-1.6-1.32-2.65,1.39.23.04-.65,1.05-.79,1.45.13,2.48-.15,2.37-1.59-2.12.49.04-1.85-1.58-1.59-.21.67-1.09.67-1.58,1.06Zm-184.64.79c.53.62.79,1.5,2.11,1.32,2.01-1.74-2.14-4.42-2.11-1.32Zm51.1,5.03c-.35.44-1.49.09-1.84.53.12.91-.1,1.48-.26,2.12,1.45-.21.85.41.79,1.32,2.17.24,1.06-2.82,2.9-2.91,2.43,1.09,5.94,1.09,8.16,2.38,1.22.26,1.59-.34,2.37-.53,1.21.73,3.28.59,4.74,1.06,1.58-.27,2.43-1.76,4.21-1.06.03-1.44,1.12-1.49,1.05-2.65-.16-2.61-4.93-3.42-7.11-1.59-1.81-.3-3.49-.73-5.79-.53-.66-.48-1.63-.65-2.11-1.32-3.04.14-3.07-2.73-5.27-3.44-.36.78-1.71.58-2.11,0,.86,1.67,0,4.03.26,6.62Zm11.85-5.56c.2.86.73,1.38,1.58,1.59,0-.7-.1-1.51.26-1.85-.85-.15-1.22.18-1.84.26Zm89.55,3.18c.27.17.27.61.79.53,2.02-.1,1.64-2.62.79-3.7-1.61-.81-2.96,1.08-2.11,2.65h-.26v.26h-.79c.02.62,1.12,1.49.26,2.12-.9-.42-1.22-1.42-2.9-1.06-.52.62-.61,1.68-.53,2.91,1.01.48,1.18,1.81,2.63,1.85.92-.23,1.19-1.1,1.84-1.59-.05-1.97-.63-1.98,0-3.71h.26v-.26Zm-44.51-2.65c-.22,1.57.15-1.06,0,0h0Zm5,1.59c.94.06,1.38-.38,1.32-1.32-.95-.07-1.79.77-1.32,1.32Zm-84.55-.26c-.01,1.6.9,2.27,2.63,2.12,1.35-2.12-1.79-3.85-2.63-2.12Zm83.76-.53c-.21.06-.52,0-.53.26.2-.06.52,0,.53-.26Zm38.46.26c-.3.03-.41-.38-.53,0,0,.27.46.33.53,0Zm-141.71,1.85c.5-.95-.07-1.68-1.05-1.85-.45.89-.25,2,1.05,1.85Zm13.17-1.59c-.79,1.89.83,2.6,2.9,2.38-.47-.68-.47-1.82-.79-2.65-.91-.12-1.48.1-2.11.26Zm117.21,3.44c1.04.38,2.46-.31,3.69-.53.46-1.13-.8-1.98-1.05-3.18-2.4-.3-2.7,1.52-2.63,3.71Zm4.74-2.65c.22.75-.37.69-.26,1.32,1.06-.18,1.5.25,2.37.26-.17-1.05.7-1.06.53-2.12-.96.1-1.26.85-2.63.53Zm36.35,0c.45.01.67-.2.79-.53-.41.03-.91-.04-.79.53Zm-185.16,1.32c.5.06.58-.3,1.05-.26.19-.98-.92-.66-1.32-1.06-.08.61.04,1.02.26,1.32Zm42.67-.26c.7,0,1.55.15,1.58-.53-.26-.45-.73-.68-1.58-.53v1.06Zm147.5-.53h.53v-.53h-.53v.53Zm-193.06,0c.3,1.05.3-1.05,0,0h0Zm122.74,3.17c.11-.46.61-1.97-.26-2.12.39.89-.73,2.29.26,2.12Zm-1.84-1.59c.31,1.05.31-1.05,0,0h0Zm-76.91,1.32h.53v-.53h-.53v.53Zm70.06,1.32c.56.23.78.81,1.58.79.45-.43.65-1.11.53-2.12-1-.78-2.46-.61-2.11,1.32Zm-73.49-1.06c.36,1.31.34,3.01,2.37,2.65.03-1.09-.46-1.66-.26-2.91-.76.03-1.72-.15-2.11.26Zm10.54.8c.72.8,3.13.84,2.9-.8-1.06-.24-2.73-.53-2.9.8Zm114.31-.26c-3.22,2.33-5.58,5.5-8.43,8.2-2.57,1.03-3.98,3.24-6.06,4.76-.31.3-.93.3-1.58.26-3.05,2.75-6.65,4.97-9.22,8.2-1.02.38-1.78,1.04-3.16,1.06-1.72,1.27-2.9,3.08-5.79,3.18-1.37,2.51-4.68,3.06-6.32,5.29-5.07.73-7.55,4.05-11.59,5.82,0,1.1-.67,2.51,0,3.44,3.93.12,5.29-3.62,8.69-3.17.53-.52.93-1.18,1.58-1.59h1.58c1.77-1.22,2.68-3.3,5.53-3.44,1.81-2.42,4.63-3.82,7.64-5.03,1.31-1.33,2.23-3.05,3.95-3.97,2.1-.1,3-1.4,4.21-2.38,2.1-.71,3.23-2.4,4.74-3.7,2.91-1.92,6.34-3.33,7.64-6.88-1.2-.29-.79-1.01-1.05-1.85,1.94-.43,3.2-1.54,4.48-2.65,2.48.64,6.76-2.67,4.74-5.56h-1.58Zm-114.84,4.5c-.93-1.09-2.55-1.5-2.63-3.44-.34-.01-.36-.34-.79-.26-.04.31-.42.29-.79.26-.25,3.01,1.96,5.25.79,7.94-2-.11-2.91-1.31-3.16-3.18-1.85-.87-3.46-1.99-5.79-2.38-.36.16-.04,1.02-.53,1.06.15,2.94,2.1,4.07,3.69,5.56-.18,1.23.41,1.7.53,2.65-1.38.02-1.78,1.04-2.9,1.32-.55-.07-.07-1.16-.53-1.32-.73.24-2.47-.54-2.37.53-.84,1.64,1.88,1.98,1.58,3.97,1.98,1.35,3.52,3.42,6.32,3.71,3.79.38,5.63-2.11,8.17-3.71.05-1.71,1.02-2.5,1.58-3.7-1.52-2.53-1.75-6.35-3.16-9Zm141.18-2.91c0-.27-.46-.33-.53,0,.06.32.29.16.53,0Zm-138.81.79c.45.01.67-.2.79-.53-.41.03-.91-.04-.79.53Zm92.98,1.06c-.03-.27,1.14-.54.26-.79.04.36-1.34.53-.53.79v.27h.26c-.09.35-.46.42-.53.79.38-.14,1.36.31,1.32-.26-.24-.12-.47-.23-.53-.53v-.27h-.26Zm4.48,3.18c1.13-.27,2.29-.52,3.16-1.06-.18-1.29.46-1.76,0-2.65-2.58-1.33-4.84,1.5-3.16,3.71Zm-69.54-2.65c.08-.7-.55-.68-1.05-.79.02.71.6,1.27,1.05.79Zm-18.96,2.91c.46.92,2.96,1.18,3.69.26.18-1.94-.61-2.91-1.84-3.44-1.79-.13-1.53,1.81-1.84,3.17Zm13.7-.79c.38.5.59,1.17,1.58,1.06.75-.61.88-1.99.26-2.65-1.22-.08-1.82.46-1.84,1.59Zm113.52-1.32c-4.83-1.28-5.7,5.8-.26,4.23.69-.97.62-2.94.26-4.23Zm-119.84,0c-1.69,2.11-2.2,6.77-2.37,9.53-1.73,1.35-1.85,4.32-2.9,6.35v2.38c-2.29,2.38-2.19,7.15-4.48,9.53-.87,3.1-1.25,6.68-3.42,8.47-.87-.09-1.14-.79-1.58-1.32,2.01-5.98,1.05-12.89.26-19.05,2.07-.88,6.58,1.22,6.58-2.38-1.84-1.53-2.34.38-4.21.79-.89-.07-1.51-.42-2.63-.26-1.17.32-1.06,1.93-2.37,2.12-.09,4.22,1.79,11.02.26,15.08-.08,1.23,0,2.29.53,2.91-.58.21-1.05.53-1.05,1.32v3.44c-1.64,3.85-1.66,8.68-2.11,12.7-3.39,4.79-5.19,11.19-9.75,14.82.18,1.16-.76,1.18-.79,2.12-.93,1.27-3.06,1.34-2.63,3.97,1.84-.09,2.27-.22,3.69.26,1.14-.7,2.13-1.57,3.16-2.38-.15-.86.18-1.23.26-1.85,1.27-.93,1.43-2.97,2.9-3.7.03-2.97,2.4-3.59,2.63-6.35,1.43-.77,1.38-3.03,2.9-3.7.73-2.26,2.4-5.41,3.95-7.67-.35-1.93,1.27-1.9,1.05-3.71.87-.46,1.65-1.56,2.11-2.12.31-.38.87-.3,1.05-.53.24-.29.21-1.03.53-1.32.27-.26.92-.49,1.32-.8,1.39-1.06,2.55-2.57,3.69-3.44.38-.29,1.08-.23,1.58-.53,1.42-.84,2.28-2.12,3.69-2.38.56-.11,1.47.38,2.37.26,1.84-.23,2.81-.39,4.74,0,.66-1.12.13-2.1.26-3.97-1.67-1.59-5.22-1.28-6.58-3.18.59-.29,1.29-.47,1.32-1.32-1.54-.57-1.89-2.62-3.95-1.32-.45,2.04.86,2.31.79,3.97-.44.62-1.54.57-2.63.53-1.1.93-2.03,2.02-3.16,2.91-.59,1-.44,2.73-2.11,2.65-.52-.6.28-1.48,0-2.65,1.83-1.25,1.06-5.11,3.69-5.56.2-1.57.4-3.13,1.32-3.97-.32-3.12,2.11-4.67,1.58-7.15.57.05.84-.22.79-.79-.43-5.37,2.84-7.02,3.16-11.64-1.44-.05-1.54-1.45-3.42-1.06Zm101.67,0c-1.62,1.06-.49,3.97,1.58,3.71,1.2-.5.92-1.16.79-2.65-.83-.31-1.39-.89-2.37-1.06Zm5.27,4.5c1,.63,1.27.36,2.63.53-.31-1.11-.35-1.68.79-1.85-.31-1.19-.57-2.42-1.85-2.65h-.53c-.5,1.18-1.45,1.9-1.05,3.97Zm-144.08-2.65c0,1.59.98,2.19,2.37,2.38.41-.9.61-1.23.26-2.38-1.37.49-1.63-.5-2.63,0Zm23.97,1.32c.95,1.38,1.84,2.21,3.69,2.12.51-1.44-.96-2.58-1.58-3.71-1.55-.32-1.94.52-2.11,1.59Zm135.91.26c.74.93,1.65,1.69,2.37,2.65.5-1.45,2.11-3.19.53-4.5-1.22.1-1.52.33-2.63,0,.15.86-.18,1.23-.26,1.85Zm-42.41-1.59c-.21.06-.52,0-.53.26.21-.06.52,0,.53-.26Zm-9.48,1.85c.57.22.9.69,1.84.53.3-.74.3-1.38,0-2.12h-1.84v1.59Zm4.74,1.32c1.89,3.63,6.18-.08,3.16-2.38-2.36-.51-2.98.71-3.16,2.38Zm23.44,3.18c1-.23,1.42-1.04,1.58-2.12-1.19-.04-1.29-1.18-2.63-1.06-1.2.7-.73,3.24,1.05,3.18Zm-92.45.53c2.32,1.32,3.83-1.83,2.37-3.44-2.14-.21-2.51,1.36-2.37,3.44Zm58.47-2.65c-.08,1.14-.02,2.14,1.05,2.12,1.08-.15,1.38-1.08,1.32-2.38-.68-.61-1.74,0-2.37.26Zm46.62.53v1.32c.64.69,2.15.48,2.9,1.06,1.54-1.93-.96-4.28-2.9-2.38Zm-4.74,3.97c.58-.91,1.31-2.82.79-3.97-.81-.28-1.93.1-3.16-.26-1.04,1.78-.48,4.8,2.37,4.23Zm11.85-1.06c3.9-.97,4.86,1.59,7.9,1.06,0-1.38-1.14-2.22-.53-3.44-1.82-.66-2.06.62-3.42,1.06-.95-.37-1.12-1.52-2.11-1.85-2.19-.34-2.73,1.91-1.84,3.18Zm-127.48.79c1.72.06,2.69-.65,2.9-2.12-1.09-2.51-4.44-.68-2.9,2.12Zm78.23-2.12c.08.62.42.99.26,1.85.84.39,1.55.91,2.9.79,1.58-.82.73-2.54.26-3.97-1.71-.13-2.26.9-3.42,1.32Zm-107.46,1.32c.66.04.82-.42,1.32-.53.21-.92-.39-1.02-.26-1.85-1.84-.55-1.95,1.73-1.05,2.38Zm101.14-1.59c-.44-.35-.88-.7-1.84-.53-.28,1.48,1.62,1.69,1.84.53Zm-13.96.27c-.27,1.24.43,1.5.79,2.12.81.2.51-.73,1.32-.53-.04-1.02-.59-1.52-1.32-1.85-.05.31-.42.29-.79.27Zm5.79,1.06c-.04,1.63-.13,3.31,1.32,3.44,2.39-.38,1.15-2.88,1.05-4.23-1.32-.27-1.45.66-2.37.79Zm42.14,3.17c.59-.92.18-2.72-.26-3.44-2.97-1.5-3.42,4.6.26,3.44Zm-8.43-2.12c.4,1.18.66,2.51,1.84,2.91,1.17-.15,1.4-1.24,1.32-2.65-.74-1.12-2-.71-3.16-.27Zm24.5,19.32c.66-.17.48-.62,1.05-1.06.46-.35,1.27-.26,1.58-.53.43-.37.52-1.17,1.05-1.59.76-.6,1.75-.74,2.37-1.59.75-1.03.65-2.6,1.05-4.23.22-.89.8-1.69.79-2.38-.02-1.64-1.04-2.37-1.32-3.97-2.11-.61-2.92-2.54-5.8-2.38-3.32-4.65-10.1,1.25-8.69,5.29.76-.03,1.72.14,2.11-.26,1.09-.03-.46-1.66.79-1.85,1.71-1.07,4.25.1,6.85-.26,1.1,1.27.75,4.01.79,6.35-1.37,2.74-2.88,4.39-6.06,5.29-2.79.79-5.75-.29-8.16-.26-4.18,3.23-8.85-2.11-13.17.79-1.98-.5-2.58.06-4.21.53-.88.25-2.02.27-2.63.53-1.23.53-1.75,1.58-2.9,1.85-4,.96-7.83-.44-12.12.79-1.29-.19-1.71-2.42-3.42-1.32-1.15.93.24.98.26,2.12-4.47,1.86-10.46,2.19-14.22,4.76-2.83-.51-3.62,2.31-6.06,1.32v2.91c.75.22,1.63.31,2.37.53,3.73-2.65,11.34-1.75,15.28-3.44,8.17.84,15.07-4.06,21.86-.53,2.42-.05,3.86.88,6.32.79.71,1.75,2.75,2.18,5,2.38,1.91,2.05,3.53,4.39,3.16,8.73.62-.08.99-.42,1.84-.27.41-1.7.57-3.66.53-5.82-.97-3.7-4.12-5.21-5.53-8.47,1.04-1.05,3.93-.55,4.48.53,3.01-.07,6.67-.05,10.27.79,6.85-1.26,10.76,4.61,17.65,5.03.31-1.9-.85-2.32-1.58-3.18h-3.42c-3.03-1.45-6.18-2.79-9.22-4.23-2.46-.7-5.23.52-5.79-2.12,1.54-1.8,4.37-.7,6.85-1.59ZM16.59,105.59c-3.97-.79-2.52,4.32-.79,5.03,1.61-.41,2.26-1.79,2.11-3.97-.63-.16-1.23-.36-1.32-1.06Zm132.75,3.97c1.1.55,2.55.18,3.16-.53.25-1.66-.4-2.42-1.05-3.17-3.06-.45-2.55,1.73-2.11,3.7Zm-60.58-2.12c.56.21,1.47.64,1.84.26-.31-.74-.43-1.69-1.58-1.59.08.61-.04,1.02-.26,1.32Zm-44.51,1.32c.81.06.45,1.32,1.58,1.06,2.58-1.7-1.49-4.65-1.58-1.06Zm50.04.53c.27-.7.91-1.03,1.05-1.85-.5-.11-.48-.76-1.32-.53.16.72-.33,2.1.26,2.38Zm42.14,1.59c.6-.46.88-1.23.79-2.38-2.39-2.13-3.68,2.37-.79,2.38Zm48.99-.53c-.1,1.08.89,2.15,2.63,2.12,1.73-3.55-2.39-4.76-2.63-2.12Zm-136.44-1.06c-.64.89.88-.64,0,0h0Zm160.41,2.38c.44.44,1.55.21,2.37.26.78-3.27-2.99-3.8-2.37-.26Zm-39.51-.79c.34,1.96,2.31,2.26,3.95,2.91.76-.5.61-2.31.26-3.18-1.14-.72-3.58-1.34-4.21.26Zm7.11.53c1.52.24,1.43,2.09,3.16,2.12,3.9-1.91-1.97-5.74-3.16-2.12Zm-34.77,1.59c.68.81,1.03,1.97,2.9,1.59.75-.66.91-1.91.79-3.44-1.78-1.56-3.59-.33-3.69,1.85Zm-91.4-1.85c-.84.39-1.46,1-1.32,2.38,1.75,2.12,3.61-1.88,1.32-2.38Zm-4.74,3.97c-.28-1.1-.07-1.17,0-2.38-3.21-3.3-4.14,4.46,0,2.38Zm41.35-2.38c.08,1.25.39,2.26,1.32,2.65,1.25-.15,1.62-2.32,1.05-3.44-1.31-.26-1.57.54-2.37.79Zm78.75-.79c-.4.75-.78,1.51-1.32,2.12v.79c.76.3,1.55.56,2.11,1.06,1.91-.68,1.42-3.91-.79-3.97Zm-147.76,1.59c.2.9,1.7,1.47,2.63.79.32-2.21-2.55-3-2.63-.79Zm178.05-.26c-.13,1.11.15,1.79.53,2.38,2.05.34,2.62-1.14,2.11-2.65-1.04-.26-1.91-.37-2.63.26Zm-139.6,0c-.61,1.02-.18,2.9,1.05,2.91.79,0,.89-.69,1.58-.79-.19-1.05-.19-1.06,0-2.12-1.1.22-2.2-.36-2.63,0Zm-20.02.26v1.32c.34.36,1.14.26,1.84.26.08-1.52-.53-2.11-1.84-1.59Zm56.63,1.32c.55.15.75.66,1.58.53.3-.31.3-.94.26-1.59-1.18.39-.81-.78-1.84-.53v1.59Zm37.4-1.32c-.19,1.51.78,1.87,1.84,2.12.13-1.02.78-1.51,1.32-2.12-.69-.05-2.06-.47-3.16,0Zm-66.64,1.85c.9-.14.4-1.28.26-1.85h-1.32c-.15,1.12.26,1.68,1.05,1.85Zm72.96,0c-.02,1.35,1.11,1.53,1.58,2.38,1.97-.24,2.62-2.45,1.32-3.97-1.56-.07-2.26.73-2.9,1.59Zm57.16-.79h.79c-.04-.31.05-.75-.26-.79-.02.42-.67.21-.53.79Zm-119.05,1.32c.81-.2.51.73,1.32.53.62-.66.1-1.66-1.05-1.32.01.36-.12.58-.26.79Zm101.14-.26c-.11,1.34.62,1.84,1.05,2.65.63-.16,1.2-.38,2.11-.26-.12-.91.1-1.48.26-2.12-.7-.91-2.44-.98-3.42-.26Zm7.11,3.17c1.36.25,2.77.51,3.42-.53.06-1.12-.24-1.87-.53-2.65-2.21-.56-3.57.89-2.9,3.17Zm-15.8-2.38c.44,1.08,1.05,1.25.26,2.38.92-.11,1.3,1.03,2.11,1.06,1.68.06,2.97-1.73,1.84-3.44-1.81-.03-3.02-1.51-4.21,0Zm14.22,1.06c.57-.34.29-2.03-.53-1.85.47.81-.31,1.87.53,1.85Zm8.95-.26c.09,1.23.9,1.74,1.84,2.12,4.53-1.12.23-5.97-1.84-2.12Zm-158.82.53c.38.58.7,1.24,1.84,1.06,1.97-1.84-1.75-4.1-1.84-1.06Zm42.67-.79c.77.39.77-1.18,0-.79v.79Zm89.55-.53c-.2.06-.52,0-.53.27.21-.06.52,0,.53-.27Zm45.04,1.85c.47.24.77.64,1.32.79.4-.57,1.32-.62,1.32-1.59-.43-1.51-3.04-1.36-2.63.79Zm-193.86,1.85c.82.35,2.42.46,2.9-.27-.33-.81-.29-2-1.05-2.38-1.36.29-2.54,1.01-1.84,2.65Zm48.73-2.12c.19.81-.45.78-.26,1.59.22.42,1.04,1.58,1.58.79-.75-.36,0-1.39.53-1.32-.15-.64-.22-1.36-1.05-1.32-.04.31-.42.29-.79.26Zm-41.62,1.85c.5.01,1.05-1.97,0-1.85-.43.31-.96,1.67,0,1.85Zm22.39.79c.32-.79.53-1.69.26-2.38-3.36-1.09-3.27,3.06-.26,2.38Zm5.79.26c.73-.23.87-1.06,1.05-1.85-.79-.26-1.57-.54-2.37-.79-.45.85.13,2.59,1.32,2.65Zm80.86-1.06c-.15.86.18,1.23.26,1.85,2.16.32,2.97-.72,3.42-2.12-1.03.61-.95-.35-1.32-1.06h-1.05c-.18.71-.13,1.64-1.32,1.32Zm30.82,2.38c1.92.08,2.58-1.11,3.42-2.12-.94-3.15-6.17-.52-3.42,2.12Zm-66.9-1.59c.16-1.3-.25-2.04-1.58-1.85-.92,1.28.7,2.45,1.58,1.85Zm-38.45,1.06c.88.09,1.17.77,2.37.53.7-1.41.23-3.69-1.84-3.17-.62.44-.57,1.54-.53,2.65Zm99.04-2.65c-1.02.65-1.24,2.11-1.32,3.71.77,1.02,2.59.9,3.42,0-.03-1.91-.55-3.33-2.11-3.71Zm-102.72,28.58c.43-.93,1.26-2.79,1.32-3.44.1-1.15-.61-1.92-.79-3.18-.07-.52.31-1.28.26-1.85-.2-2.33-.87-4.76-1.32-6.88-.83-.67-1.61-1.38-2.37-2.12-.8-2.29-3.14-3.02-3.95-5.29-2.9-1.41-5.13-3.49-8.96-3.97-1.48.91-4.38-.7-6.32,0,.25,2.09,1.94,2.56.79,4.76,1.43.89,4.4.62,5.79.79,1.38,2.41,4.07,3.5,5.79,5.56.51.73.62,1.85.79,2.91.64.68,1.67.97,2.37,1.59-.31.8-.64,1.58-.26,2.38-.6.81-2.12.69-2.37,1.85,1.06.79,2.75.94,3.42,2.12-.04,2.34.6,3.98.79,6.09-.23.65-1.17.59-1.05,1.59.01,3.63-1.3,5.92-1.58,9.26-2.81,2.11-3.39,6.47-6.85,7.94.02,1.16-.87,1.42-1.05,2.38-1.79.68-2.65,2.28-3.42,3.7-.25.45-.65.77-.79,1.06-2.87,5.98,2.73,11.37,4.21,15.35-.59,1.39-1.95,1.37-3.69,1.06-2.36,1.51-4.62,3.12-5.53,6.09-2.62,2.51-5.87,2.05-10.27,2.38-1.4-.71-1.82-2.39-2.37-3.97-.57-1.63-.69-3.75-2.37-4.23-1.79,2.68-.91,7.41.53,9.79.97.21,1.91.82,2.9,1.32.95.49,2.07,1.41,2.63,1.59,2.68.86,5.19-.07,8.16-.53,1.06-.78,1.85-1.84,3.16-2.38,2.26-.38,4.89-.38,7.37-.53.93-.14.65.94,1.58.79,1.14.18,3.23-.6,2.9,1.06-.93,1.27-2.94,1.46-5,1.59-2.85,2.61-8.95,1.94-9.75,6.62,6.88-1.05,13.04-1.32,17.38-5.03.87-.01,1.31-.45,2.37-.26,2.78-2.77,7.33-3.75,10.27-6.35,1.6-1.66,2.5-4.02,4.48-5.29.9-3.5,3.15-5.66,5-8.2,2.38-.92,4.98-2.86,8.16-2.12.7-1.32,2.75-1.29,3.95-2.12,2.72,1.23,6.15,1.76,6.85,5.03-.41.73-.82,1.47-1.05,2.38-.33.91-1.56.91-1.58,2.12,4.62,2.01,6.23-3.39,7.37-6.62-.27-1.84-1.36-2.87-1.32-5.03-.94.06-1.38-.38-1.32-1.32-1.96-1.19-4.4-1.71-6.58-.79-.83-.4-1.17-1.29-1.32-2.38,2.96-1.62,2.33-7.61.53-10.06-1.26.13-2.21.17-2.9.26-.44,5.12-2.93,8.17-6.59,10.06-2.01,2.48-4.07,4.91-7.64,5.82-.91,1.11-1.75,2.3-3.69,2.38-1.36-.79-1.03-1.9-1.58-3.18-3.33-1.32-7.06-2.26-10.27-3.7-3.79.51-7.07,1.54-8.43,4.5,2.87.95,7.25-2.74,9.22-.26-.2,4.29-2.75,6.23-5.79,7.67-3.53-.16-4.67-2.72-6.32-4.76.34-1.86.66-3.75,1.32-5.29.99-.23,1.4-1.34,2.37-1.85.43-.23,1.2-.01,1.84-.26,1.03-.41,1.75-1.37,2.63-1.59,5.52-1.39,10.92,1.58,14.49,3.7,1.02-1.97-1.01-2.99-.79-5.03-1.62-.49-2.38-1.85-3.69-2.65-1.33.27-2.7-.62-4.21-.79-1.53-.17-3.81.74-4.48-.79,1.61-3.14,4.62-4.88,6.06-8.2,1.39-.46,1.83-1.86,3.16-2.38,1.04-2.57,3.23-3.98,4.74-6.09.45-2.72,1.16-5.18,1.84-7.67.04-.84-.7-.88-.53-1.85.63-1.71.72-4.3-.26-6.09-1.67.36-2.86,1.19-3.95,2.12-1.09,5.4-1.22,10.73-4.74,13.23-.78-.1-1.3-.46-1.58-1.06.47-1.2,1.32-2.29,1.84-3.44Zm-31.08-23.02c-.84,2.6-1.79,5.08-3.69,6.62-.02,2.1-.87,3.36-.79,5.56.27,1.38,2.12,3.17.79,4.5-1.32.18-1.22-1.06-2.63-.79-.14,2.7.9,4.22,1.05,6.62,1.71,1.72,4.42,2.44,4.48,5.82,1.83.39,2.6,4.16,1.05,5.56.69,3.75-2.54,4.78-1.84,7.67,1.76-.09,2.98-.71,4.74-.79,1.54-2.47,3.39-5.44,3.42-9,.02-2.49-1.46-4.97-.53-7.41,2.33-.11,4.98-1.29,6.32-3.18-.32-2.41-1.25-4.21-3.16-5.03-1.25,1.44-.98,3.36-2.9,3.71-2.33.41-4.7-2.46-5.53-3.97-.32-.58-.64-1.37-.79-1.85-.2-.64.11-1.25,0-1.85-.29-1.67-1.42-3.13-.79-4.5.73-1.29,1.64-2.41,2.11-3.97,2.31-.59,4.6-1.2,5-3.7-.86-.72-.96-2.21-2.37-2.38-1.67.44-2.52,1.7-3.95,2.38Zm33.45-1.85c-.22,1.56.15-1.06,0,0h0Zm152.24,1.32c.35,1.37,3.43,1.52,3.42-.26-.36-1.18-3.76-2.33-3.42.26Zm-190.7,1.59c.3-.31.3-.94.26-1.59h-1.05c-.01.81-.15,1.74.79,1.59Zm33.45.79c.64.62,2.7.94,2.63-.53-.64-1.47-2.85-2.31-2.63.53Zm151.45,1.59c.86,1.34,3.91.98,3.42-1.32-.85-1.04-1.47-.91-2.9-1.06.02.99-.27,1.67-.53,2.38Zm-145.13-1.06c-.2,1.35.19,2.1,1.32,2.12.61-.45,1.44-.67,1.32-1.85-.62-1.37-1.57-.85-2.63-.26Zm153.56,2.65c.01-.46-.2-.68-.53-.79-.38.39-.39,1.03.53.79Zm-173.84,2.91c1.04-.16.88-1.82.53-2.65-2.11-1.41-2.54,2.73-.53,2.65Zm-5.79.26c1.58-.31,1.03-1.99.53-2.91h-1.32c-.57.9-.31,2.84.79,2.91Zm-15.28-1.32c.26-.88-.37-.87-1.05-.79-.08.7.37.87,1.05.79Zm74.54-.53c-.64,2.34,3.36,2.58,2.63,0-1.17.29-1.92-.64-2.63,0Zm-32.4,3.71c-.04-.57.93-.12,1.32-.27.34-1.31-.64-1.3-.53-2.38-1.73-.31-1.97,2.23-.79,2.65Zm5.27,0c.5-.06.58.3,1.05.26.68-.46.45-1.84.79-2.65-1.55-1.21-2.82,1.05-1.84,2.38Zm21.6-1.06c.75.22.68-.37,1.32-.26-.16-.81-.58-1.35-1.58-1.32-.04.65-.04,1.28.26,1.59Zm-58.47,1.06c.61.08,1.01-.04,1.32-.27,0-.62-.45-.78-.26-1.59-1.2-.25-1.66,1.11-1.05,1.85Zm101.14-.27c.77.39.77-1.18,0-.79v.79Zm33.71,2.12c.71,1.02,3.48.87,3.69-.79-.88-.43-1.65-.19-1.05-1.59-2.01-.34-2.96.38-2.63,2.38Zm41.88,56.37c1.14-1.33.79-4.15,2.11-5.29v-1.85c.81-.51,1.06-1.58,1.05-2.91,1.76-2.55,3.2-5.43,3.95-9-.16-.63-.38-1.21-.26-2.12,1.97-4.27.63-8.75.26-13.76-.75-.57-.66-1.98-1.58-2.38-.38-1.64-.67-3.38-1.05-5.03-.8-.79-2.16-1-2.11-2.65-1.69-.68-2.3-2.45-3.95-3.18.4-1.52-2-2.36-2.63-3.71h-1.84c-2.09-2.84-4.71-5.14-8.69-6.09-.22.66-.72,1.04-.79,1.85.76,1,2.16,1.35,2.9,2.38,4.63.55,6.65,3.73,8.69,6.88-.17,1.23.41,1.7.53,2.65,2.27,1.12,5.99,3.96,3.69,7.15-.9-.43-2-.04-2.9.26-.13,1.11.15,1.79.53,2.38,1.29.58,2.58-.38,4.21-.26,2.7,1.44.48,7.35,2.37,9-.79,2.73-1.65,5.4-2.11,8.47-1.25,1.21-1.91,3.02-2.37,5.03-1.54.84-2.87,1.88-3.42,3.71-1.81,1.18-3.72,2.25-5,3.97-2.17,1-5.24,1.09-7.11,2.38-5.76.91-11.22-.24-16.33-.26-2.44-2.57-5.19-4.84-6.85-8.2-.5-4.29-2.23-8.06-1.84-12.44-2.2-.27-2.6,1.27-3.42,2.38.82,4.61-.06,8.76,1.84,12.44.84,1.62,3.04,2.45,2.9,4.76-.63.75-.97.26-2.11.26-.02.42.04.92-.53.79-1.05-.58-1.79.17-3.16,0-.43.46-.72,1.84-1.58,1.06-.47,1.65-2.21,2.01-2.37,3.97,1.02.92,1.88,1.99,3.16,2.65,2.26-.91,3.05-3.29,5.27-4.23,2.14-.28,3.41-1.14,5.27-1.06,1.81.08,2.5.9,3.69,1.32,1.27.45,2.87.52,3.95,1.06,1.19.59,2.79,1.5,4.48,1.59,5.64.28,9.7-2.09,15.54-3.17.84-.72,2.29-2.02,3.69-1.32-.59,2.58-1.77,4.57-2.63,6.88,1.13,2.43.27,5.16.26,7.41,1.57.98,2.56,2.55,4.48,3.18,3.46-.6,7.38.87,8.17-3.18-.21-.06-.31-.22-.26-.53-.64-.86-1.5-.29-2.63-.26-2.11-1.14-4.36-2.15-5.53-4.23.17-2.03.45-3.95,1.84-4.76,2.06-.19,3.47.59,4.48-.53.08-2.29-1.82-1.77-3.69-1.59.16-.95-.31-1.28-.53-1.85Zm-4.21-55.84c.33.11.54.34.53.79,1.03.15,1.53-.23,2.11-.53.02-1.16-.13-2.16-1.05-2.38-1,.23-1.52.95-1.58,2.12Zm-47.15,1.06c-.27-.88-.27-2.02-.79-2.65-2.37-.1-1.76,3.38.79,2.65Zm17.38-1.85c0,.62.46.78.26,1.59.94.23,2.4.97,3.42.27v-1.59c-.98-.81-2.7-1.55-3.69-.26Zm-80.33,1.85c.31-.8.64-1.58.26-2.38h-2.11c-.21,1.63.56,2.26,1.84,2.38Zm46.88.79c.43.4,1.94.4,2.37,0,.44-.44.21-1.55.26-2.38-1.56-1.88-3.91.06-2.63,2.38Zm-39.25-1.85c-.04-.85-.6-1.17-1.58-1.06-.2,1.09.9,1.67,1.58,1.06Zm-15.28,2.65h1.58c-.18-1.16.76-1.18.79-2.12-.62-.44-.64-1.48-1.84-1.32-.57.68-1.24,2.32-.53,3.44Zm-40.3-2.12c.06-.38.43-.45.53-.79-.41-.5-1.03.38-1.58-.26.03.67.38,1.03,1.05,1.06Zm114.31.53c.21,1.2,1.29,1.52,2.9,1.32.54-1.2-.35-2.42-1.32-2.91-.85.2-1.38.73-1.58,1.59Zm-120.9-1.06c.15.64.22,1.36,1.05,1.32.48-.69-.11-.8.26-1.59-.61-.09-1.01.04-1.32.27Zm107.46,3.44c1.83.06,2.58.36,3.69-.53.37-.92-.1-2.29-.79-2.91-2.79-.45-3.4,1.26-2.9,3.44Zm-111.68-1.32c-.58-1.01-1.59-1.58-3.16-1.59-1.1,2.3,2.15,3.52,3.16,1.59Zm102.46-.79c.21.06.31.22.26.53.83.12,1.08-.33,1.32-.79-.93.23-1.36-.68-1.58.26Zm45.3,1.59c.62-.09,1.13-.27,1.32-.79-.61-.59-.71-.23-1.32-.53-.34.35-.34.98,0,1.32Zm-87.18,1.06c.54.71,1.97,1.46,2.63.53-.05-1.19-.5-1.97-1.32-2.38-.36.7-1.11,1-1.32,1.85Zm73.49-.26c.18.99,1.93,1.44,2.9.79.42-1.88-2.88-3.21-2.9-.79Zm-32.4-.53c.16,1.43.41,2.77,1.84,2.91.83.12.7-.71,1.32-.79.26-2.52-1.35-2.88-3.16-2.12Zm70.33-.26c.25,1.69,1.69,2.19,2.63,3.18,1.89-1.25-.29-4.62-2.63-3.18Zm-53.47,0c-.99,1-.45,3.85,1.32,3.7.42-1.08,1.69-1.3,2.11-2.38-.7-.88-1.8-1.37-3.42-1.32Zm-106.15.53c.3,1.05.3-1.04,0,0h0Zm169.1,3.18c.55-.16.85-.56,1.32-.79-.36-.84-.06-.88,0-1.85-.79-.26-1.17-.94-2.37-.79-1.01,1.11-.36,3.22,1.05,3.44Zm-135.12-2.65c.38,1.47.94,2.76,2.9,2.65.54-.43.61-1.33.53-2.38-1.29-.83-1.84-.7-3.42-.26Zm6.58,1.32c-.17,1.05,1,.76,1.84.79.21,1.12,1.23,1.41,2.37,1.59.96-.78.55-3.13-.26-3.71-2.17-.42-1.5,2.02-3.95,1.32Zm-44.78-.53c-.09.98.65,1.11,1.32,1.32.06-.21.22-.31.53-.27v-1.32c-.7,0-1.5-.1-1.84.27Zm131.7,1.85c.09,1.23,2.03,1.72,3.16,1.06,1.75-3.1-3.21-4.44-3.16-1.06Zm21.07-1.32c.15.73.28,1.48,1.32,1.32.14-.39.39-.67.53-1.06-.37-.4-1.28-.84-1.84-.26Zm-95.61,0c-2.62,2.04-4.75,4.58-7.9,6.09-1.71,2.78-4.73,4.25-7.64,5.82-1.48,1.87-3.19,3.5-5.53,4.5.23.84-.41.82-.53,1.32-2.29.97-3.24,3.27-5.79,3.97-1.7,2.7-5.55,3.24-6.32,6.88.37.07.3.58.53.79,4.51.12,4.46-4.33,8.43-4.76.74.64-.36,1.6.26,2.12,1.99-.3.21-2.08.53-2.65,1.54-1.54,4.2-1.95,5.27-3.97,3.64-1.81,6.03-4.88,9.74-6.62,3.18-.33,4.38-2.66,6.58-3.97.8-.13,2.41-.42,2.63-1.85.27-1.6-1.26-1.38-1.05-2.91.59-1.7,2.36-2.22,2.11-4.76h-1.32Zm43.99.26c-.87.51-1.03,2.33-.53,3.44.9.16,1.38.73,2.37.79,1.2-1.45-.37-3.8-1.85-4.23Zm12.38,3.18c.26,2.11-1.66,2.04-1.32,4.23-.86.46-1.32,1.32-2.37,1.59-1.44.34-3.24-1.02-3.95.26.66,1.24,2.02,1.13,2.9.26.17.71.75,1.01,1.05,1.59-.71,3.42.97,6.57,1.58,9.53,1.04,1.5,4.45,1.93,5.79,2.38.79.26.74.62,1.32.79,3.04.93,5.6.5,8.69-.26,1.61-2.35,4.14-3.78,6.06-5.82.19-1.34-.72-1.57-.79-2.65-.11-1.17.07-2.05.53-2.65-1.47-5.49-4.82-9.09-8.96-11.91-1.44.13-2.51-.63-3.69,0-.56,1.07.07,2.11.26,3.17h3.95c.78,3.32-1.64,5.53-5.27,5.29-1.94-1.21-1.54-6.44-.79-8.73-2.93-1.32-2.97,2.45-5,2.91Zm55.31-1.59c-.29,1.53,1.26,2.3,2.37,1.59-.2-1.34-1.14-2.78-2.37-1.59Zm-164.36,1.06h.53c0-.26.21-.31.26-.53-.34-.01-.37-.34-.79-.26v.79Zm31.08,1.32c.3.06.41.29.53.53.62-.09,1.13-.27,1.32-.79-.58-.21.05-1.64-1.05-1.32-.36.43-.93.65-.79,1.59Zm103.25-.79c-.09,1.34.83,2.27,2.37,2.65.98-1.24.72-2.65-.79-3.18-.03.68-.88.53-1.58.53Zm-30.29,2.65c.7-.53,1.55-.91,1.32-2.38-.63-.15-1.51-.04-2.63-.26-.48,1.09.28,2.3,1.32,2.65Zm-103.78-1.59c.6.07.99-.06,1.05-.53-.36-.08-.5-.38-1.05-.26v.79Zm36.87,1.85c1.39,1.35,3.38.49,4.21-.79-.59-1.47-5-2.94-4.21.79Zm109.57-1.85c-.16.95.31,1.28.53,1.85,1.37-.39,3.54.18,4.48,1.06-.9-1.65-2.36-3.87-5-2.91Zm-151.71,3.97c1.52.29,1.25-1.22,2.9-.79-.17-1.94-1.63-2.6-3.16-3.17-.05,1.84-1.47,3,.26,3.97Zm92.45-3.18c0,1.98,2.1,2.84,3.69,2.38.2-1.44-.4-2.06-.79-2.91-1.22-.08-2.28,0-2.9.53Zm43.99,2.91c.03-.32.08-.63.53-.53-.04-1.63-.74-2.61-2.11-2.91-1.04,1.04-.65,4.05,1.58,3.44Zm9.48-1.85c.39.14.66.39,1.05.53.14-.42,1.01-1.42.26-1.85-.23.65-1.47.29-1.32,1.32Zm26.08,1.06c.92.22,1.4.88,2.63.79.41-.64.98-1.13.79-2.38-.29-.06-.41-.29-.53-.53-2.01-.35-2.17,1.17-2.9,2.12Zm-194.12,2.38c1.14.29,2.36.32,2.9-1.06-.21-1.11-.72-1.93-1.05-2.91h-1.32c-.38,1.11-.71,2.29-.53,3.97Zm57.42.26c.02-1.34-.45-2.19-.26-3.71-2.83-1.33-1.81,3.91.26,3.71Zm64-2.12c.53,1.05,1.06,2.11,2.63,2.12,1.07-.8,1.55-1.74.79-3.17-1.32-.47-3.24-.84-3.42,1.06Zm-61.63.26c-.05,2.37,1.01,3.04,3.16,2.65.85-2.55-1.41-4.35-3.16-2.65Zm-31.34.26c.12-.83-.56-.85-1.32-.79-.02.79.78,1.34,1.32.79Zm149.61.79h.53v-.53h-.53v.53Zm-13.96,2.91c.73-3-.68-3.6-3.16-2.65-.17.89-.76,1.36-.53,2.65,1.07.98,2.47.94,3.69,0Zm3.95,0c.8,1.83,3.26,1.31,3.95-.26.05-3.51-4.24-3-3.95.26Zm4.48,4.23c-1.1-.04-.96-1.33-2.37-1.06-.43.45-.8.96-.79,1.85.32,1.37,1.83,1.14,1.84,2.65.02,1.75-1.17,2.22-3.69,2.12-2.15-.79-1.52-4.11-1.32-6.62-2.62-1.1-6.38.67-8.16,2.12-.63,4.04-2.54,6.8-6.59,7.41.14,1.2-1.4.71-1.32,1.85,1.3,3.9,4.68,5.7,9.75,5.82,1.01.48,1.18,1.81,2.63,1.85,2.81-1.23,4.42-3.68,8.17-3.97,2.17-2.14,4.45-4.17,4.48-8.47.59-1.26,1.95-1.74,2.63-2.91.13-1.63-.27-2.61,0-3.7-1.56-1.42-.49-4.41-2.37-5.82-1.13,2.12-.6,5.92-2.9,6.88Zm6.85-6.09c-.65,1.53-.26,4.09,1.58,3.97.99-.33,1.49-1.15,1.58-2.38-.6-.99-1.46-1.71-3.16-1.59Zm-125.11,3.71c1.08.61,3.09.19,2.9-1.32-.22-.93-1.05-1.24-1.84-1.59-.9.48-1.43,1.93-1.05,2.91Zm141.7-.79c.36.52.73,1.03,1.84.79.51-.59.23-1.99,0-2.65-1.19-.64-1.92.46-1.84,1.85Zm-175.95,1.32c1.34.2,2.09-.19,2.11-1.32-.83-.31-1.39-.89-2.37-1.06-.53.61-.27,2.03.26,2.38Zm102.72-1.85c-.52,2.13,2.63,3.37,3.16,1.32.21-1.61-2.02-1.92-3.16-1.32Zm-6.85,3.17h1.32c.9-.66,1.35-1.81.53-2.91-2.15-1.62-3.22,1.77-1.84,2.91Zm-37.4-1.85c.19.25,1.24-.17,1.58.53v-1.06c-.54.16-1.83-.43-1.58.53Zm-76.38,5.56c-.15-1.91.87-2.66.79-4.5-.62-.7-1.7-.94-2.63-1.32-1.87,1.64-.83,5.68,1.84,5.82Zm2.63-4.23c.1-.99-.21-1.55-1.05-1.59-.11.99.21,1.55,1.05,1.59Zm20.81,0c.16.63.35,1.23,1.05,1.32,1.16-.36,1.2-1.7.53-2.65-.95.02-1.23.7-1.58,1.32Zm-6.58,4.5c.87-1.92-.76-3.42-2.37-3.71-1.01,2.13.49,4.55,2.37,3.71Zm52.68-2.12c.55.59.88,1.41,2.11,1.32.23-.47.73-.67.53-1.59-.47-1.35-2.4-1.21-2.63.26Zm-21.07.79c.6.42,1.67,1.3,2.63.53.56-2.36-3.06-3.4-2.63-.53Zm86.13,6.35c-3.5-.1-4.99-2.22-6.32-4.5.12-.91-.1-1.48-.26-2.12-.66.05-.83-.41-1.05-.79-2.99-.08-5.65.5-7.11,1.59-1.51,1.12-3.81,3.29-3.16,5.03,2.04-.35,5.67-.36,6.06,2.38-.61.89-.87,2.12-2.63,1.85-.74.94-1.33,2.02-2.37,2.65-1.82.81-5.3-.04-6.06,1.85,2.34,1.82,4.65,4.39,8.69,3.7,1.52.59,3.03,1.19,4.74,1.59,1.42-.79,3.48-2.01,5.53-1.32.36-.69.97-1.15,2.11-1.06,1.38-1.51,2.08-3.42,3.16-5.03.56-.83,2.35-1.49,1.58-3.44-1.11-.65-2.27-1.25-2.9-2.38Zm-113.26-5.29c.33.55.77,1,1.32,1.32.42-.64.98-1.13.79-2.38-.87-.68-2.07.08-2.11,1.06Zm158.04,1.85c1.88.12,2.64-.88,2.37-2.91-2.25-1.3-3.32.96-2.37,2.91Zm-112.21,1.59c.45-.34,1.04-.55,1.05-1.32-.26-1.42-1.2-2.15-2.63-2.38-.68,1.88-.45,3.44,1.58,3.71Zm9.48-2.12c.11-.5.75-.48.53-1.32-.34-.01-.37-.34-.79-.26-.36.34-.46,1.58.26,1.59Zm-80.07,4.5c2.51-.11,2.55-3.58.53-4.23-1.04.52-1.27,3.54-.53,4.23Zm48.46-2.65c.7.08.87-.37.79-1.06h-.79v1.06Zm133.01,6.62c1.45-.22,1.96-1.38,2.9-2.12-.25-1.07-1.22-1.42-1.58-2.38-.79-.06-.9.98-1.58.26.05-1.19,1.1-2.46.53-3.44h-.79c-.76,2.43-1.36,6.08.53,7.67Zm-108.25-5.03c.52.8,1.05,1.59,2.63,1.32-.03-1.18.65-1.64.79-2.65-.83-.89-4.18-1.01-3.42,1.32Zm-57.16,1.32c.06-.3.29-.41.53-.53.02-4.71-4.9.34-.53.53Zm171.47.27c1.69.2,2.29-.69,2.11-2.38-.44-.62-1.54-.57-2.63-.53-.58,1.28-.54,2.2.53,2.91Zm-166.46.26c1.18-.25.72-1.91.53-2.91-2-.56-2.06,2.88-.53,2.91Zm56.89-1.85c.47,1.03,1.05,1.95,2.37,2.12,1.79-1.43-1.43-4.23-2.37-2.12Zm106.15,1.59c.45.01.67-.2.79-.53-.41.03-.91-.04-.79.53Zm-138.28,0c-.29.03-.41-.38-.53,0,0,.27.46.33.53,0Zm70.85,0c-.62.64-.93,2.71.53,2.65,1.62.08,1.44-3.3-.53-2.65Zm83.5,1.59c-.31-.13-.6-.28-.79-.53-.54-1.58-.07,1.98.79.53Zm-199.39,1.32c.58.3,1.08.68,2.11.53.62-.7.04-1.8,0-2.65-1.86-.46-1.55,1.26-2.11,2.12Zm8.43-.79c.08-.36.37-.5.26-1.06h-1.05c-.04.66.4.83.79,1.06Zm35.29.27c.39-.05.97.09,1.05-.27-.4-.15-.66-1.77-1.32-.79.39.05.24.64.26,1.06Zm15.8-.53c.23-.55-.68-1.19-.79-.53.42.02.21.67.79.53Zm-43.72,2.12c.13-1.11-.15-1.79-.53-2.38h-1.05c-.62,1.02-.04,2.76,1.58,2.38Zm59.53-.53c-.79-.76-3.43-2.98-3.42,0,.1.87,1.4.53,1.32,1.59,0,.88-.86.9-.79,1.85.79.7,1.09,1.9,2.63,1.85.65-1.52.32-3.16.26-5.29Zm-20.02,1.85c.28-.68.95-.98,1.05-1.85-.81-3.21-3.61,1.09-1.05,1.85Zm127.48-.79c.43,1.24.84,2.5,2.63,2.38.65-.32,1.03-.91,1.32-1.59-.85-1.81-2.84-3.25-3.95-.79Zm-105.09,1.32h1.32c.4-.84.09-1.16,0-2.12-1.68-.6-1.93,1.24-1.32,2.12Zm100.09,1.32c.6-1.11-.25-1.93-.53-2.91-3.67-.97-2.72,4.16.53,2.91Zm20.02-1.85c.07-.6-.06-.99-.53-1.06.06.47-.26,1.33.53,1.06Zm-128.53,1.85c.64-.15,1.35-.23,1.32-1.06-.15-.64-1-.59-1.58-.79-.53.53.08,1.26.26,1.85Zm-63.21-.79c.83.05.89.87.79,1.85,1.87-.21-.07-3.55-.79-1.85Zm7.11,3.18c.4-.75.64-1.66.53-2.91-2.85-2.22-4.32,3.41-.53,2.91Zm35.82-.53c.44.35.88.7,1.84.53,1.43-2.32-2.11-3.3-1.84-.53Zm91.13,1.59h1.58c.54-1.03.54-2.14,0-3.17-2.16-.6-2.66,2.14-1.58,3.17Zm13.17.53c.87-.63,1.98-1.01,1.58-2.91-3.3-2-4.55,2.09-1.58,2.91Zm13.43-1.59c1.4.36,1.4,2.12,3.16,2.12,1.39-2.29-2.25-4.42-3.16-2.12Zm-89.29,0v1.59c.58.39,1.13.8,2.11.79.41-.38.23-1.35.26-2.12-1.42.11-1.1-.74-2.37-.26Zm85.6,1.06c.9.11,1.5-.08,1.32-1.06h-.79c.19.72-.52.53-.53,1.06Zm8.17-.53c.44.19,1.21,1.4,1.84.53-.29-.53-1.39-1.76-1.84-.53Zm2.11,1.59c.6,1.16,1.22,2.3,3.16,2.12.73-1.02.58-2.89,0-3.97-1.56.1-2.83.51-3.16,1.85Zm6.32,0c.56.94,1.87,2.52,3.16,1.85-.42-.36.9-1.19,1.05-1.85-.7-1.52-4.09-2.94-4.21,0Zm-21.07.79c.66.22,1.03.72,1.84.79.89-.25,1.01-1.28,1.32-2.12-1-.23-1.27-1.2-2.63-1.06-.19.78-.79,1.15-.53,2.38Zm38.72-1.32c.11-.42.83-.23.53-1.06-.66-.28-1.17.89-.53,1.06Zm-33.19.79c-.89-.8-.8.98,0,0h0Zm4.21,2.12c.84.04.78.98,1.58,1.06.57-1.02.88-2.38-.26-2.91-.08.97-1.35.76-1.32,1.85Zm29.24-1.59c0-.27-.46-.33-.53,0,.29-.03.41.38.53,0Zm-80.07.53c.05.84.18,1.58,1.05,1.59.38-.42.54-2.1-.53-1.85-.06.21-.22.31-.53.26Zm21.86,2.38c.57.22.9.69,1.84.53.46-.6.64-1.48.53-2.65-1.49-.95-2.73.36-2.37,2.12Zm-3.42,1.06c-1.21-.43.22-.88,0-1.85-1.13-.27-1.07-1.75-2.9-1.32-.72,1.77-.51,3.5,1.32,3.97.52-.55,1.32-.64,1.58-.8Zm27.92-.79c1.05.28,1.81.78,2.63,0-.15-1.35-1.24-1.76-2.11-2.38-.28.69-.64,1.3-.53,2.38Zm-134.07,1.06c1.76,0,2.11-1.41,2.9-2.38-1.21-1.9-4.07.38-2.9,2.38Zm-17.38-.79c.96,0,1.16-.78,1.05-1.85-.36.01-.58-.12-.79-.26-.67.16-.71,1.64-.26,2.12Zm66.11-2.12c-.2.06-.52,0-.53.26.2-.06.52,0,.53-.26Zm75.59.79c-.21,1.32-.15,1.56.53,2.38,1.1.22,1.24-.51,2.11-.53.36-2.3-1.64-2.14-2.63-1.85Zm-30.82.79c-.02,2.14.45,3.78,2.63,3.71,1.14-.45,1.16-2.01,1.58-3.17-1.17-.31-2.73-1.39-4.21-.53Zm72.17,2.12c.29.06.41.29.53.53,1.29-.11,1.6-1.22,1.84-2.38-1.18-.71-2.32.58-2.37,1.85Zm-20.28,0c.43.4,1.94.4,2.37,0,.07-2.24-2.46-2.26-2.37,0Zm-7.64,1.85c.39.58.7,1.24,1.84,1.06,1.27-.81.51-3.25-.53-3.97-.68.73-.9,1.92-1.32,2.91Zm-102.2-1.32c.3.93.79,1.68,2.11,1.59.41-.38.23-1.35.26-2.12-.64-.61-2.41-.88-2.37.53Zm70.33-.27c-.26,1.28.95,2.03,1.58,1.59.26-1.28-.95-2.03-1.58-1.59Zm5.79,1.32c.32,1.06,2.04,1.32,3.16.79.5-2.36-3.24-3.29-3.16-.79Zm18.17,0c.13,1.46,1.34,1.83,2.63,2.12.73-.58,1.17-1.47,1.58-2.38-1.01-1.45-3.41-1.67-4.21.26Zm-99.3,1.06c.7,0,1.5.1,1.84-.26.51-3.5-4.48-1.73-1.84.26Zm-52.94-1.85c.28.75.28,1.1,0,1.85.43.46,1.1.66,2.11.53.28-1.11-.55-1.79,0-2.38-1.03.26-1.53-.59-2.11,0Zm113.26,3.44c.71-1.38-.38-2.4-.79-3.44-3.46-.62-2.27,4.58.79,3.44Zm9.48-3.18c-1.49,2.25,3.7,2.73,2.63-.26-1.65.16-1.05,1.02-2.63.26Zm4.21,2.38c.36-.34.26-1.15.26-1.85h-.79c.57.77-.48,1.52.53,1.85Zm23.18-.53c-.64.89.88-.64,0,0h0Zm-102.46,1.85c.36.44.67.91,1.32,1.06,1.18.04,1.1-1.19,1.05-2.38-1.3-.07-2.56-.1-2.37,1.32Zm-50.04,2.12c.5.06.58-.3,1.05-.26.21-1.63-1.06-1.76-1.58-2.65-.8,1.07.92,1.42.53,2.91Zm130.91-1.06c.76.2.68,1.25,1.84,1.06.95-.37,1.5-1.14,1.32-2.65-1.49-.87-3.06.2-3.16,1.59Zm-74.01,1.32c.92.87,1.42.12,2.63,0-.82-.99-.37-1.61-.79-2.91-1.78-.2-1.99,1.18-1.84,2.91Zm61.11-1.32c.5,1.09,1.14,2.03,2.9,1.85.97-1,.3-2.3-.26-3.17-1.46-.15-2.51.12-2.63,1.32Zm71.12-.79c-.03.82.83.75.53,1.85,1.27-.23,2.08-.9,2.11-2.38-1.23-.18-1.69.42-2.63.53Zm-183.85,1.06c.13,1.1,1.19,1.27,2.11,1.59.22-.57.68-.9.53-1.85-.66-.92-1.98-.29-2.63.26Zm118.79,3.97c1.23-.35,1.8-1.37,3.16-1.59v-1.59c-.56-.49-1.4-.71-2.37-.79,0,1.59-1.43,2.54-.79,3.97Zm-71.12-.79c.38,1.23,2.56.75,3.16.53-.81-.26.3-.71.26-1.06-1.46.72-2.79-1.76-3.42.53Zm-50.31,2.91c1.42-.79.83-3.89-1.05-3.7-.82,1.1-.87,3.85,1.05,3.7Zm56.1-.26c.85.43,1.75.22,2.37-.26-.26-.97.13-2.61-1.05-2.65-1.57-.13-1.83,1.73-1.32,2.91Zm70.06-.26c.85.55,2.34,1.6,3.69.79.17-2.28-1.59-2.83-2.9-2.91-.26.71-.58,1.36-.79,2.12Zm16.07.26c.58,1.18.76,2.77,2.37,2.91.34-.72,1.17-.94,1.05-2.12-.32-1.2-2.19-1.57-1.58-2.91h-1.05c.75,1.19-.39,1.36-.79,2.12Zm8.96,2.12c.59-3.15-2.42-4.14-3.16-1.85-.43,1.34-.41,1.83-1.32,2.65,1.1,1.16,1.89-.91,3.69,0,.15-.38.41-.65.79-.79Zm16.33-1.06c.77.29.99,1.12,2.11,1.06.66-.4,1.2-.91,1.32-1.85-.77-.82-1.6-1.57-3.42-1.32v2.12Zm-116.16,2.12c.9-.24,1.89-.4,2.63-.79-.29-1.17.45-1.32.53-2.12-1.73-2.34-5.13.75-3.16,2.91Zm89.55-2.91h.53v-.53h-.53v.53Zm-99.82,2.12c.67.56,1.27,1.2,1.32,2.38.84-.03,1.16-.6,1.05-1.59-.03-.68-1.03-.38-1.05-1.06.65-.31,1.65-.28,1.32-1.59-1.74-.25-2.38.6-2.63,1.85Zm119.32,2.91c1.17.48,2.21.56,3.42,0,1.11-3.95-4.37-3.59-3.42,0Zm-6.58-2.12v1.59c.94.3,2.51.91,3.16,0-.06-1.42-2.19-1.93-3.16-1.59Zm31.61,1.06c-.38.14-1.36-.31-1.32.26.39.42,1.36.92,1.32-.26Zm-19.23,2.91c.45.87,1.41,1.24,2.9,1.06.26-.8.93-1.18.79-2.38-1.04-1.51-3.94-.78-3.69,1.32Zm-126.69-.79c.86.07,1.27-.31,1.32-1.06-.64.15-1.36.23-1.32,1.06Zm120.9,4.76c.92.31,1.9.56,2.63,1.06.4-.66.82-1.3,1.05-2.12-.76-.91-1.08-2.27-2.63-2.38-.33,1.62-.1,2.32-1.05,3.44Zm-127.75-.53c.44.62,1.54.57,2.63.53.57-1.36-.51-2.65-1.58-3.18-1.13.18-1.46,1.69-1.05,2.65Zm116.42-2.12c.14,1.95-.76,3.37,1.05,3.71-.24-1.39,1.89-.39,2.37-1.06-.52-.95.12-1.41,0-2.65-.85-.59-2.48-.15-3.42,0Zm-92.19,2.38c.68.03.38,1.03,1.05,1.06-.07-.82,1.12-2.74,0-2.91,0,.97-.75,1.19-1.05,1.85Zm57.95,1.85c1.24.85,2.53.81,3.69,0,.16-2.28-1.7-2.53-2.63-3.71.1,1.3-1.15,1.75-1.05,3.71Zm53.47-.53c.78,1.21,3.03,1.57,3.95.53-.1-1.05.24-2.54-.26-3.18-2.03-.92-3.82.53-3.69,2.65Zm-175.68-1.85h.79c-.04-.31.04-.75-.26-.79-.02.42-.67.21-.53.79Zm106.94,1.32c.58,1.84,3.77,2.15,3.95-.27-.71-1.47-4.16-3.08-3.95.27Zm21.86-.79c.99-.4,1.18-.2.79.79.56.23.78.8,1.58.79.35-.44.7-.89.53-1.85-1.28.19-.92-.7-2.11-1.06-.24.47-1.07.34-.79,1.32Zm6.32-.26c.33,1.52.96,2.74,3.16,2.38.31-.39.23-1.18,1.05-1.06.29,1.18-1.16,1.4-.53,2.12,1.04-.46,2.18.39,2.37-.53-.21-.59-1.63.05-1.32-1.06.08-.62,1.25-.16,1.05-1.06-.8-.33-1.02-.2-1.58.27-.17-2.12-3.15-2.72-4.21-1.06Zm11.33.26v-.53c-1.28-.74-3.25-1.1-3.42,1.06,1.13.03,1.93.53,2.9,0l.13.13.13-.13c.03,1.23,1.57-.32.26-.26l.13-.13-.13-.13Zm15.8-.53c-.16,1.93.56,2.97,2.37,2.91.8-.17.74-1.2,1.32-1.59-.49-1.67-2.13-2.69-3.69-1.32Zm-94.82,2.38c.72.67,3.28.86,3.95,0,.23-1.29-.36-1.76-.53-2.65-2.33-.89-3.53.36-3.42,2.65Zm48.2-2.65c-.29.7.11,2.62,1.32,2.65.95-.19,1.18-1.11,1.05-2.38-.67-.21-1.86-.7-2.37-.27Zm-55.58,3.71c1.3-.26,2.27-2.54,1.05-3.71-2.13-.22-2.84,2.98-1.05,3.71Zm24.5-3.71c-.04.58-.66.57-1.32.53-.14,1.96-.41,3.02,1.32,3.44,1.79-.15,1.74-3.8,0-3.97Zm8.43,1.85c.56-.64.31-2.07-.79-1.85-.57.65-.2,1.96.79,1.85Zm39.77-1.06c.77.39.77-1.18,0-.79v.79Zm16.86,1.32c.64,1.17,1.36,1.24,2.63,1.32.57-.48-.05-2.16.53-2.65-.76-.12-.82-.94-1.84-.79-.27.88-1.09,1.2-1.32,2.12Zm-145.66-.8v1.32c1.46-.37,1.49.12,2.63.53.69-.45,1.32-.97,1.05-2.38-1.53-1.47-1.71.93-3.69.53Zm71.38.53c.39.23.83.4.79,1.06,1.46.15,2.38-.25,2.37-1.59-.78-1.42-2.81-1.14-3.16.53Zm-22.12,2.12c.23-1.18,1.28-1.54,1.05-3.18-3.82-1.62-4.23,2.89-1.05,3.18Zm45.83-1.32c.53.88.84,1.98,2.37,1.85.32-.3.48-.75,1.32-.53.48-.99.22-2.4-.26-3.18-1.13.19-1.16,1.48-2.37,1.59-.34-1.05.87-.54.53-1.59-1.19-.05-1.5.79-1.58,1.85Zm-53.47,2.38c.63.16,1.2.38,2.11.26.4-.75,1.07-1.22,1.05-2.38-.71-.7-1.25-1.56-2.9-1.32-.94,1.23.44,1.82-.26,3.44Zm96.66-2.65c-.6.36-.99-.68-1.05,0,.16.08,1.01.66,1.05,0Zm17.12.53h.53v-.53h-.53v.53Zm-122.48.79c-1.17-2.02-4.47-.68-3.16,1.85.61.88,2.28.71,3.42,1.06.15-1.21-.47-1.65-.26-2.91Zm119.05-.79c.8.72-.72-.81,0,0h0Zm-100.09.79c.21.06.31.22.26.53.82.02,2.39-.57,1.58-1.32-.27,1.4-1.04.1-1.84.79Zm70.59,2.12c1.2-.03,1.1-1.36,1.32-2.38h-.79c.36,1.33-.54,1.4-.53,2.38Zm34.77,1.32c1.16.02,2.15-.13,2.37-1.06-.19-1.4-1.24-1.92-2.11-2.65-1.43.92-1.36,2.43-.26,3.71Zm-67.43-2.38c-.04,1.36.52,2.12,1.58,2.38.97-.17,1.38-.91,1.58-1.85-.01-.87-1.12-.63-1.05-1.59-.72.34-1.35.76-2.11,1.06Zm17.12,1.06c.57.49,1.4.71,2.37.79.32-.83,1.14-1.15,1.32-2.12-.2-.06-.31-.22-.26-.53-.44-.44-1.55-.21-2.37-.27-.23.82-.88,1.23-1.05,2.12Zm19.49-1.06c-.54-.15-.52-.8-1.05-.26-.32,1.11-.06,1.84.79,2.38,1.56-.54,3.07-1.63,1.58-3.18h-1.58c-.06.5.3.58.26,1.06Zm-43.46,1.59c.45.96,1.39,1.42,2.63,1.59,2.35-2.54-2.87-6.18-2.63-1.59Zm30.03-1.32c-.59,3.13,3.01,2.98,4.48,1.85-.39-.99-.43-.8-.26-2.12-.72.2-2.02,1.6-2.63.27.46-.25,1.41,0,1.32-.79-1.12-.79-2.27.25-2.9.79Zm55.84-.79c.58,1.05-.17,1.8,0,3.18.36.59,1.99.78,2.63.26.22-2.51-.27-4.19-2.63-3.44Zm-107.73,4.23c1.58-.23,3.4-2.75,1.84-4.23-2.15.22-3.77.97-5.27,1.85.26,1.64,1.92,2.6,3.42,2.38Zm57.95-4.23c-.8.89.97.8,0,0h0Zm57.95,2.91c1.59,0,2.68-.48,2.9-1.85-.87-2.31-5-.56-2.9,1.85Zm-148.03-1.85c.08-.7-.55-.68-1.05-.79-.08.7.36.87,1.05.79Zm40.83-.53c-.93-.86-.93.83-2.11.53-.36.97,0,2.57,1.58,2.38.68-.46.53-1.76.53-2.91Zm35.56,1.85c-.99-1.16-2.99-3.1-5-1.59v1.85c1.07,1.2,4,1.06,4.48-.53.06.29.43.63.53.26Zm32.66,0c.85,1.47,3.03,1.59,4.48.53.42-3.29-4.29-3.36-4.48-.53Zm13.17.79c2.07.43,1.68-2,1.05-2.91-2.12-.38-1.58,1.89-1.05,2.91Zm32.4-2.38v1.32c.8-.19.77.46,1.58.26.49-.48.6-1.34.79-2.12-.82.15-1.71.22-2.37.53Zm-132.49,2.38c.66.55,1.98,1.19,2.63.26.04-1.45-.5-2.32-1.32-2.91-.59.73-1.4,1.24-1.32,2.65Zm112.73-2.38c-.02.99-.2,2.14,1.05,1.85.67-.65-.56-.56-.26-1.59.32-.03.62-.08.53-.53-.63-.11-.57.48-1.32.27Zm-148.03,2.65c.58.47,1.07,1.04,2.37.79.46-1.5.18-3.42-1.58-3.44-.27.88-.79,1.5-.79,2.65Zm7.11-.53c.77.37,1.58.71,2.9.53.01-.87.75-1.01.53-2.12-1.09-.91-4.1-.84-3.42,1.59Zm52.15-.26c.63.6,1.45,1.01,2.63,1.06-.02-1.22-.36-2.11-.79-2.91-1.53-.3-2.15.31-1.84,1.85Zm56.89,1.06c.8.36,2.1.36,2.9,0,.31-.57.29-1.48.79-1.85-1.26-1.42-4.65-1.68-3.69,1.85Zm23.97-2.91c-.21.06-.52,0-.53.26.21-.06.52,0,.53-.26Zm5.53,1.06c.11-.58-.79-1.46-1.05-.79.51.11.21,1.03,1.05.79Zm-16.86,1.32c.54,1.03,2.61,1.69,3.95,1.06.19-1.17-.85-1.08-1.05-1.85.06-.39,1.34-1.45.26-1.32-1.26.5-3.18.34-3.16,2.12Zm-147.76.53c.99-.32,2.1-.54,1.84-2.12-.66-.5-1.04.22-1.84-.26-.52.55-.2,1.76,0,2.38Zm193.33-1.85c-.33,1.43,1.55,1.62,2.37,1.06,0-.79.02-1.61-.79-1.59-.56.74-.76.18-1.58.53Zm-153.82,0c-.13.83.38,1.04.53,1.59h1.32c.3-.31.3-.94.26-1.59-.38-.39-1.72-.39-2.11,0Zm8.17,2.12c.76.48,2.3,1.26,3.42.53.67-3.08-3.91-4.07-3.42-.53Zm-32.4.53c-.14-.94.93-.65.79-1.59-1.17-2.71-3.73,1.33-.79,1.59Zm124.85-2.38c.64,1.36.68-.91,0,0h0Zm-132.75,1.59c.22-.31.35-.71.26-1.32h-1.05c.09.62.27,1.14.79,1.32Zm158.3.53h.53v-.53h-.53v.53Zm-140.91,1.06c-.2.06-.52,0-.53.27.21-.06.52,0,.53-.27Z"/>
  <path class="cls-5" d="m226.77,5.82c-.8,6.91-2.23,13.88-1.05,20.91-.75,3.3-.76,6.62-.79,9.79-.02,2.41.62,4.99.53,7.41-.08,2.11-1.11,4.21,0,6.35-.64.45-.39,1.45-1.05,2.38.65,4.75-.18,9.18,0,13.5.04.92.5,1.96.53,2.91.08,3.16-.13,6.19,0,9.26.16,3.7-.8,7.05.26,11.38,0,.97-.46,1.7-.53,2.65-.18,2.46.66,4.89.79,7.15.07,1.18-.24,2.42-.26,3.44-.03,1.41.48,2.59-.26,3.7-.18,1.16.76,1.18.79,2.12-1.44,6.66.09,13.37-1.05,21.17,1.53,4.62.86,8.66,0,13.5-.08,1.31.89,1.58,1.05,2.65-2.2,4.86-.04,11.6-1.32,16.41,1.34,1.91-.35,5.68.79,7.41-1.22,5.35.14,12.12-.53,16.14.34.99.41,2.23.79,3.18-.83,3.22-.38,8.09-1.05,11.64,1.08,2.06,0,3.29.53,5.82-.8,2.61-.78,7.44,0,10.06-1.05,2.94.67,5.61-1.05,7.94-5.34,1.57-10.1.97-15.8,1.32-.38.02-1.15-.33-1.58-.27-.59.08-.54.56-1.05.53-.65-.04-1.46-.46-2.11-.53-1.86-.19-3.89-.26-5.79-.26-2.05,0-4.23.6-6.32.53-1.07-.04-2.12-.49-3.16-.53-4.4-.17-8.37.08-13.17.26-.4.02-1.21.3-1.58.27-.38-.04-.64-.54-1.05-.53-1.18.03-2.25.61-3.42.53-.87-.06-1.77-.48-2.63-.53-5.64-.33-11.99,1.1-17.38,0-3.5.92-9.96-.07-13.43.26-7.29.71-16.35-.32-23.18.53-3.71.46-7.37-.02-10.8-.26-2.28,1.47-5.01.43-8.16.26-3.46-.19-7.34.47-10.8.26-3.73-.22-8.93-.94-13.7-.79-2.75.09-5.43.8-8.17.79-5.05-.01-10.85.18-15.8-.79-1.96,1.15-4.99.14-7.9.27-2.66.11-5.43.52-8.43.53-5.66,0-11.76-.36-17.65-.53-3.67-.11-7.61.59-10.54-1.06-.81-2.49.55-4.82.79-7.41.19-2.02-.48-4.05-.53-6.09-.14-6.1,1.72-12.54.26-18.26,1.38-3.91-.14-9.26,1.32-13.23-.2-3-.84-7.08,0-9.53-.77-2.35-.96-4.9,0-7.14-.54-1.4-.23-3.65-1.05-4.76,1.66-8.84-.66-18.05.53-25.93-.84-1.1-.2-3.68-.79-5.03.87-7.98-.35-16.11-.26-24.08.03-2.84.43-5.79.53-8.73.1-2.97-.16-6.01,0-9,.04-.77.44-1.31.53-2.12.3-2.75-.43-5.68-.53-8.47-.16-4.54.51-8.8.26-12.7.4-1.01.44-2.38,1.05-3.18-2.3-6.31-.7-13.65-.53-20.64.15-6.13.06-12.35-.26-18.26,1.31-4.69.86-11.96.26-16.41.93-1.58,3.41-2.94,5.53-3.18,1.02-.11,2.06.29,3.16.27,1.36-.03,2.81-.67,4.21-.79,4.96-.45,10.21.47,14.49.79,2.79-.49,7.87-.59,11.85-.27,7.08.58,16.96.14,24.23,1.59,2.08-.8,3.98-.2,6.58,0,5.98.46,12.54-.5,18.96-.53,2.13,0,4.32.42,6.32.26,1.38-.11,2.63-.75,3.95-.79,1.54-.05,3.31.2,5,.27,6.26.24,12.97.03,19.49-.27,5.71-.26,11.2-.77,16.07,0,5.32-1.02,11.96.02,18.7-.26,1.32-.06,2.63-.34,3.95-.27,1,.06,2.03.7,3.16.79.29.02.68-.48,1.05-.53,1.82-.23,5.29.37,7.64.26.85-.04,1.71-.46,2.63-.53,5.18-.39,10.79,1.37,15.54.27.41-.1,1.13-.48,1.58-.53,1.81-.2,3.62.68,4.74-.53,5.77,1.5,13.52-.02,19.23,1.32,3.09.73,4.9,2.99,6.85,4.5Zm-28.45-3.18c.34.01.36.34.79.26.01-.45-.2-.68-.53-.79,0,.27-.21.32-.26.53Zm18.96,1.85c-1.18.34-2.86.45-3.42-.53.15.95-.78.8-1.58.79-1.31,0-2.02-.61-3.16-.79-.33.11-.54.34-.53.79-3.03.58-5.9-.67-8.96-.53-.79.04-1.56.46-2.37.53-3.49.28-6.77.07-10.01,0-1.15,0-1.33.96-2.63.79-2.16-.06-4.15-.24-5.53-.53-2.09-.43-3.21.27-5,.26-2.8,0-5.26.11-8.17,0-.73.23-1.3.63-2.11.79-4.3-1.18-9.31-.41-12.91-1.32-2.86,2.07-6.54-.45-9.74,0-1.25.18-2.21,1.27-3.42,1.32-1.04.05-1.83-.55-2.9-.79-1.3-.3-2.7,0-3.69-.79-4.12,2.03-9.65.29-15.01.79-2.42.23-4.9.96-7.37,0-9.69,1.51-18.99-.31-28.45,1.06-1.65-.55-3.91-.49-5.53-1.06-.68.55-2.51-.06-2.9.79-2.67-1.38-5.83-.06-8.96,0-1.7.04-3.28-.7-5-.79-4.65-.26-9.51.71-14.49.53-.95.07-.96-.79-1.84-.79-8.58.59-18.68-.54-27.92-.26-1.91,1.38-2.68.99-5.27,1.32-1.81,2.3-2.04,6.49-1.84,10.32.08,1.62.63,2.97.53,4.5-.04.63-.41,1.46-.53,2.12-.41,2.38.26,4.23-.79,5.82,1.26,5.23,1.1,12.31.26,17.2-.26,1.06.79.8.53,1.85-.8,4.27.5,7.65-.53,11.38-.03,1.17.74,1.55.53,2.91-.84,1.99-.22,3.99-.26,6.09-.03,1.67-.8,3.25-.79,4.76.03,3.67,1.2,7.42,1.32,11.11.09,2.93-.8,5.87-.53,8.73.1,1.06.51,1.91.53,2.91.03,1.48-.52,3.05-.53,4.5,0,1.11.52,2.35.53,3.44,0,1.11-.51,2.27-.53,3.44-.11,7.09.63,14.44.53,21.7-.02,1.16-.31,2.26-.26,3.44.04,1.14.49,2.31.53,3.44.11,3.54-.59,7.08.26,10.58-.11.51-1.02.21-.79,1.06,1.04.88.2,2.26.26,3.44.06,1.1.51,2.3.53,3.44.06,4.21-.93,8.9-1.32,13.23.51,1.6.4,3.83.79,5.56-2.04,5.97.03,13.88-.79,20.91-.56,4.8-.48,10.34-1.32,15.08,1.31,2.65.4,6.06,1.05,9.53.8,1.13,1.3,2.58,2.37,3.44,8.54.92,17.97-.39,27.13.79,1.03-.38,2.49-.33,3.42-.79,3.02,1.02,6.2.26,9.22.26,3.77,0,7.32.86,11.06.53,1.02-.09,2.1-.48,3.16-.53,3.33-.15,6.81.53,10.27.53s7.75-.24,10.27-.53c5.72-.66,12.08.53,17.91.27,6.98-.31,14.14-.79,20.81-.53,2.26.09,4.52.78,6.85.53.54-.06,1.26-.5,1.84-.53,1.29-.06,2.69.31,3.95.26,3.43-.12,6.81-.56,10.01-.53,1.46.01,3.03.55,4.48.53,2.53-.03,4.49-1,6.32.53.61-.36.87-1.06,2.11-.79,5.65.18,10.62-.77,15.54,0,1.1.13,1.16-.77,2.37-.53,3.49,1.28,8.49-.59,11.59,1.06.23-.39.21-1.03,1.05-.79,2.72.26,5.48-.4,8.43-.26,2.29.1,4.6.46,6.85.26,1.39-.12,2.85-.79,4.21-.8,1.24,0,2.42.52,3.69.53,1.2.01,2.5-.48,3.69-.53,1.8-.08,3.79.81,5-1.06-.08-1.68.22-3.75-.26-5.03,1.78-6.75-.11-14.42,1.05-20.11-1.11-2.4-.07-6.74.53-9.26-.33-.64-.65-1.29-.79-2.12.47-1.44.5-2.8,0-3.97.55-3.83.97-7.15-.26-10.06.97-1.33.52-3.29.53-5.03.01-1.57.29-3.28.26-4.76-.07-4.2-1.69-6.95.53-9.53-2.31-6.31.74-12.52-1.32-18.52.24-.81.44-1.77.53-2.65.17-1.72-.38-3.68-.53-5.29-.12-1.29-.06-2.99,0-4.23.15-3.29.59-6.31.26-9,.06-1.17,2.57.12,2.63-1.06-1.33-.4-1.87,0-2.63-.79.21-1.46-.11-2.99,0-5.03.2.18.84,1.12.79,0,.07-1.24-1.02.34-1.05-.79-.18-5.16,1.23-11.5.26-17.2,1.5-5.33-.32-12.54.79-18.26-1.27-2.09-.46-4.69-.53-7.41-.12-5.28.54-9.65.53-14.55-.01-3.78-.93-7.44.26-10.06-.5-.55-.46-1.36-.53-2.12-.24-2.71.41-6.15.79-7.67-.96-6.21-.7-13.12-1.58-18.79-.5-.99-2.53-.46-2.37-2.12Zm4.21,103.21c-.22,1.57.15-1.06,0,0h0Zm-34.24,116.17c.28-.67-.56-1.51-.79-.79.63-.11-.15,1.21.79.79Z"/>
  <g>
    <path class="cls-4" d="m45.3,78.07c.17.09.43.1.66.13"/>
    <path class="cls-4" d="m134.72,80.58v-.53"/>
    <path class="cls-2" d="m175.94,86.27c.26.26.53.53.79.79"/>
    <path class="cls-1" d="m162.24,94.21c.18-.09.37-.16.53-.27"/>
    <path class="cls-3" d="m161.32,209.19c.11-.24.28-.43.53-.53"/>
    <path class="cls-1" d="m132.74,217.79c.18.08.37.16.53.26"/>
  </g>
</svg>