<?xml version="1.0" encoding="UTF-8"?>
<svg id="Layer_1" data-name="Layer 1" xmlns="http://www.w3.org/2000/svg" viewBox="0 0 226.77 226.77">
  <defs>
    <style>
      .cls-1 {
        stroke-width: .34px;
      }

      .cls-1, .cls-2, .cls-3, .cls-4, .cls-5, .cls-6 {
        fill: none;
        stroke: #000;
        stroke-linecap: round;
      }

      .cls-1, .cls-2, .cls-3, .cls-4, .cls-5, .cls-6, .cls-7 {
        fill-rule: evenodd;
      }

      .cls-2 {
        stroke-width: .26px;
      }

      .cls-3 {
        stroke-width: .33px;
      }

      .cls-4 {
        stroke-width: .32px;
      }

      .cls-5 {
        stroke-width: .31px;
      }

      .cls-6 {
        stroke-width: .31px;
      }

      .cls-7 {
        stroke-width: 0px;
      }
    </style>
  </defs>
  <path class="cls-7" d="m214.31,49.03c.3-1.03.3,1.03,0,0h0Z"/>
  <path class="cls-7" d="m136.16,61.79h-.52v-1.04c.7-.18.5.54.78.78h-.26v.26Z"/>
  <path class="cls-7" d="m136.68,61.79v-.26c.06-.28.51-.18.52-.52.93.3-.48,1.72-.78.78h.26Z"/>
  <path class="cls-7" d="m25.15,79.51c1.26,2.1-.5,4.83-2.07,5.73-2.47-.41-4.84.23-7.25-.52-.09-1.04.46-1.45.26-2.61,1.41-.68,2.36-1.1,4.66-1.3,1.33-.57,2.36-1.44,4.4-1.3Z"/>
  <path class="cls-7" d="m93.73,89.67c.32.11.53.33.52.78-.42.07-.44-.25-.78-.26.05-.21.26-.26.26-.52Z"/>
  <path class="cls-7" d="m19.2,199.36h.52v.52h-.52v-.52Z"/>
  <path class="cls-7" d="m8.59,143.34c-1.09-2.29-1.14-7.83-.26-10.42-.95-3.28-.31-7.16-.26-11.2.06-5.21-.63-10.92.52-15.63-.22-.74-.3-1.61-.52-2.34.1-1.2.62-1.99.78-3.13-1.2-2.83.31-5.97-.78-8.34,1.18-4.42-.29-9.94,1.29-13.81-2.06-7,.62-14.84,0-22.41-.06-.78-.52-1.79-.52-2.61.01-2.83,1.35-4.92.78-7.82-.63-3.17-.5-8.36.26-12.25.37.06.09.78.52.78.91-1.19-1.25-1.52-1.04-2.87.55-4.63.46-6.85.52-11.99.73-.92.27-3.03,1.55-3.39-.88-1.53-.22-2.92.78-3.91,6.65.05,16.16-.35,24.58-.26.83-.22.98.23,1.29.52,5.85-1.32,12.97.11,19.67-.52.71-.07,1.61-.5,2.33-.52,1.16-.03,2.32.55,3.37.52,1.11-.03,2.1-.56,3.1-.52.51.02,2.56.09,2.07.78.31.21,1.41-1,2.85-.52-.2,1.34.45,1.98,0,2.87-1.35-.35-3.11.72-2.85,2.61.19.02,1.54-.61,2.07-.52-.2-1.01.96-1.21,1.81-1.82-.35-.78-.26-1.99-.26-3.13,4.5.15,7.79-.15,12.42-.26,2.44-.06,5.1.38,7.76.26,1.24-.06,2.66-.6,3.88-.52.75.05,1.39.5,2.07.52,7.45.26,15-1.31,22.25.52.73-.14,1.35-.38,2.07-.52,3.2.32,6.98-.38,10.35,0,2.12.24,4.73,2.05,7.5.52.68.44,2.22.03,2.85.52.73-.39,1.7-.54,2.59-.78,8.12.97,17.23.08,25.62.26.84.46,1.19,1.41,2.07,1.82.82.13.09-1.29,1.03-1.04,2.16.17,5-.35,6.73.26,1.01-1.76,5.05-.48,6.73-1.56.75-.06.89.49,1.29.78,1.84-.84,4.66-.33,8.02-.52,2.96-.17,5.3-1.3,6.99.52,2.21-1.46,7.58-1,10.35-1.04.94-.19.74-1.51,1.81-1.56,1.59.13,1.3,2.16,2.33,2.87.47,5.99-.03,11.34-.26,17.72.27.97-.55.84-.78,1.3.87,1.64.6,3.7.52,5.99-.07,2.07.66,4.39-.52,5.73,1.07,2.13.27,6.16.52,9.12.25,1.04-.77.78-.52,1.82.26,1.2.94,3.13.52,4.17l-.13-.13-.13-.13h-.52v.52h.52l.13.13.13-.13c.52,1.22.43,3.84-.52,4.43.11.5,1,.21.78,1.04-.67,4.19-.47,7.08-.52,11.72-.04,3.81.92,8.11-.52,11.2.6,2.23-.19,4.51-.26,6.77-.09,3.41.75,7.19.52,11.2-.15,2.66-.48,6.68-.52,10.16-.08,9.18.47,18.6.26,27.88-.03,1.29-.47,2.4-.52,3.65-.17,4.66.31,8.91.26,14.07.26.79-.58.46-1.03.52.29,1.09.66,2.11,1.03,3.13-.33,2.63.32,5.3.26,7.82-.01.49-.52,1.26-.52,1.3.02.79.47,1.63.52,2.34.04.72-.24,1.35-.26,2.08-.03,1.43.53,2.83.52,4.17-.01,1.08-.53,2.26-.52,3.39.02,1.83.62,3.72.52,6.25-.12,3.15-.08,5.48-1.29,7.29h-2.59c-.09,1.05,1.27,3.42,3.11,2.61.16,5.27,0,8.58-.52,13.55-2.07,1.25-3.31.69-4.92,2.08-1.2-.53-3.65.2-3.88-1.3-.52,1.48-3.08.89-4.66,1.3-.96.01-1.5-.4-2.07-.78-1.86,1.45-4.59.28-6.99.78-.81.12-.83-.56-.77-1.3-1.18-.14-.69,1.39-1.81,1.3-7.1-.71-11.39.6-17.59-.52-3,.65-6.73.17-10.35.26-3.06.08-6.29.91-8.8-.52-1.29-.34-1.1.8-2.07.78-3.55-.43-7.2.54-10.61.26-.63-.05-1.21-.5-1.81-.52-5.01-.14-10.56.49-15.53.26-3.4-.16-6.75.25-10.35-.26-4.6-.65-9.96-.37-15.53-.26-5.11.1-10.39,1.56-15.78,1.04-5.75-.55-13.09.48-19.67.26-.66-.03-.91-.48-1.3-.78-.87.86-2.48.81-3.88.78-3.48-.08-7.74-.21-11.13-.52-.59.19-1.32.23-1.81.52-.83.22-.8-.41-1.29-.52-7.95.82-16.77-.3-24.84.26-.6-.35-1.93.04-1.81-1.04-2.04.98-5.03,1.01-7.5,1.56-.22-.38-.39-.83-1.04-.78.11-3.37-1.65-6.72,0-9.38-.5-2.54.51-4.55-.52-6.25.22-.65.34-1.4.26-2.34-1.31-5.66.11-11.44-1.03-17.2.24-.47,1.3-1.45.52-2.09.62-1,1.38.74,1.81,0-.29-1.28-.88-1.16-2.07-1.82-.23-2.96.05-6.49.26-9.64.15-2.26.5-4.48,1.29-5.73-1.29-2.8-1.56-9.06-.78-12.25-.99-1.58-1.12-5.25,0-6.77v-.26l.13.13.13-.13c.44.01.67-.19.78-.52h-.78l-.13-.13-.13.13ZM198.79,15.16c-.51,0-.33-.71-1.03-.52-.58,1.17.81,1.73,1.81,2.08-.03-1.2.5-2.87-.78-3.91.16.6.08,1.98,0,2.34Zm-11.9-.78c.35-.33.4-1.28-.26-1.3.14.38-.3,1.35.26,1.3Zm-125.76-1.04c-.99.66-1.61,1.68-2.59,2.34.7,1.2,1.28,2.53,3.36,2.34.92-.9.96-2.69,1.55-3.91-1.39.36-1.09-.99-2.33-.78Zm-12.68,2.08c1.23.67,2.24,1.56,3.36,2.34-.87-1.73-2.34-2.85-3.62-4.17.08.61.41.98.26,1.82Zm114.63-1.56c.3,1.03.3-1.03,0,0h0Zm41.4,1.3c.28,2.67,1.99,3.9,4.4,4.43.89-.76,1.58-1.71,2.07-2.87-.44-1.03-.94-2-1.29-3.13-1.66-.06-4.18.21-5.18,1.56Zm-124.21.78c.55-.26.96-.11,1.55-.78-.12-1.18-1.15-1.45-2.59-1.3-.09,1.13.36,1.72,1.03,2.08Zm12.42-1.82c-.12,1,.07,1.66.52,2.09,1.54.16,2.23-.54,2.07-2.09-1.03-.26-1.55-.26-2.59,0Zm41.4,18.5c.68-1.37,2.09-3.41,2.33-4.43.51-2.2-.38-4.45,0-6.77-1.27-1.24-2.54-2.48-3.11-4.43-.83-.64-1.9-1.04-2.33-2.08-2.69.4-3.38-1.84-5.18-.26-2.5-.11-4.6-.43-6.73.26-1.37,1.85-5.23,2.52-4.14,5.99,2.58.25,2.25-2.42,4.14-2.87,1.96-.28,3.72-.64,5.44-.52,1.15,1.82,4.48,2.26,4.91,4.43.73,3.58-2.47,3.37-5.69,2.87-1.57,1.66-1.61,5.12-.78,7.82,1.75.59,2.63,2.04,3.62,3.39,1.67-.53,1.96.68,3.88.52,1.76-.95,2.81-2.27,3.62-3.91Zm-47.87-16.67c1.5.2,2.34-.25,2.07-1.82-1.4-.1-2.35.24-2.07,1.82Zm68.57-1.56c-.01.33-.33.36-.26.78-.68.27-1.59.31-2.59.26-5.46,2.75-10.37,6.06-11.64,13.03-.56.96-1.51,1.54-1.03,2.87,3.44.51,10.42-.47,12.68,2.08,1.47-1.54.39-3.66-.78-4.69.13-4.5,3.3-6.03,3.88-9.38,1.34-1.26,3.05-2.14,3.62-4.17-1.48-.63-2.16-.46-3.88-.78Zm19.67,3.65c-.56-.59-.88.22-1.81,0,.92.63.77,2.35,2.07,2.61.15-.46-.31-1.53.26-1.56.32.37.89.49,1.55.52,0-1.13-.08-2.34.26-3.13-.26-.87-1.43-.82-1.29-2.08h-1.04c.22,1.9.46,1.87,0,3.65Zm20.96-1.04c.86-.47.71-1.37.52-2.34-2.17-.73-2.41,2.53-.52,2.34Zm-164.32-.52c.14-.21.27-.42.26-.78-.95-.5-3.01-1.5-3.88.52.69,1.19,2.41-.25,3.36.52l.13.13.13-.13c.69.87,1,3.51,2.59,2.61-.4-.9-.47-2.13-1.04-2.87-.14.38-.4.63-.78.78-.11-.23-.23-.47-.52-.52v-.26h-.26Zm3.36.52c1.13-.25,1.95-.81,2.07-2.08-1.51-.13-2.33.43-2.07,2.08Zm81.51-1.3h.78v-.52h-.78v.52Zm-95.22.26c-.15,1.02.22,1.51.52,2.08,1.3.09,1.43-.99,2.85-.78.49-2.04-2.44-2.29-3.36-1.3Zm164.83-.26c.3,1.03.3-1.03,0,0h0Zm2.59,0c-.22,1.54.15-1.04,0,0h0Zm-146.72,1.56c.46.23.66.73,1.55.52.38-.38.38-1.71,0-2.08-1.02.01-1.54.53-1.55,1.56Zm63.14-1.3c-.39.65-1.16.91-1.81,1.3-4.87.56-7.91,1.38-10.09,4.69-.63.58-1.4,1.02-2.33,1.3-1.5,5.56-.71,10.47,1.04,15.37,5.36,1.43,9.75-1.54,12.16-4.69-.64-3.8,2.54-5.06,1.81-8.08-2.19-.21-1.86,2.12-4.14,1.82-1.17-.73-1.43-2.38-1.29-4.43,1.55-2.52,4.39-3.75,5.95-6.25-.52-.26-.41-1.15-1.29-1.04Zm35.97,2.87c.61.08.97.41,1.81.26.55-.99-.01-1.71-.26-2.6-.95.06-.99.36-1.81,0,.25,1.09-.12,1.29.26,2.34Zm72.45-1.82c-.1,1.06.27,1.64,1.29,1.56.49-.57.1-1.83-.52-2.08-.07.37-.57.3-.78.52Zm-165.09,1.3c.43.46.87-.23,1.81,0,.15-1.11-.7-1.21-1.29-1.56-.15.54-.64.74-.52,1.56Zm130.16-.78c.06-.28.51-.18.52-.52-.62.11-.56-.48-1.29-.26-.01.45.19.68.52.78l-.13.13.13.13c.15.38.4.64.77.78.02-.37.04-.74-.26-.78v-.26h-.26Zm5.43.26c.73.41,1.1-.3,1.81.26-.3.31-.29.92-.26,1.56,1.84-.03.46-1.75,1.3-2.87-1.26.04-2.91-.32-2.85,1.04Zm4.4-.78c0-.26-.45-.33-.52,0,.05.32.29.16.52,0Zm-135.59.52c-.1.97.21,1.53,1.03,1.56-.58-.86.57-1.85-.52-2.08-.03.32-.08.62-.52.52Zm2.33.26c.11.59,1.42-.04,1.29.78-.46-.03-.6.26-.52.78,2.08-.17-.16-3.89-.78-1.56Zm-13.97.26c-1.02.33-.62-.76-1.29-.78-.79.84,1.22,2.41,1.29.78Zm-6.21,0c.46.23.66.73,1.55.52v-1.04c-.69,0-1.52-.14-1.55.52Zm34.67-.26c-.07.59.06.98.52,1.04.11-.5.74-.47.52-1.3-.49-.06-.57.29-1.04.26Zm23.81.52c.01-.45-.2-.67-.52-.78.03.41-.03.9.52.78Zm100.14.26c.06-.49-.29-.58-.26-1.04-.45.15-1.52-.32-1.55.26.29.58,1.14.59,1.81.78Zm-111.27-.52c.3,1.03.3-1.03,0,0h0Zm25.36,2.09c.55.92,1.12,1.83,2.33,2.08.66-.81.91-2.04.78-3.65-1.57-.94-2.58.1-3.11,1.56Zm32.35-1.82c-1.05-.92-.61.84,0,0h0Zm23.29,1.3c.66.46,1.26.67,1.81,0,.07-.85-.31-1.25-1.04-1.3-.3.39-.75.64-.78,1.3Zm-98.85-.26c.45.93,1.15,1.62,2.33,1.82,1.01-.73,1.12-1.58.78-2.61-1.85-.63-2.23,1.27-3.11.78Zm126.54-.26c0-.43.72-.15.78-.52-.53-.22-1.61.23-.78.52Zm-1.04.52c-.61-.08-.48-.91-1.29-.78-.15.7,1.06,1.33,1.29.78Zm-138.7,0c.6.08,1.11.56,1.29-.26-.3-.33-.98-.11-1.29.26Zm16.3,185.76c-.8-.32-1.92-.32-2.59-.78-.55,1.42-2.72-.33-3.62.52-1.13-.9-3.21-1.5-4.92-1.04-3.19-1.04-6.67-1.8-9.57-3.13-.38-1.26-1.53-1.76-2.33-2.6.22-1.3-1.96-3.43-2.33-5.73-.34-1.3.8-1.11.78-2.08-.36-2.76-.52-5.73-.52-8.86,1.96-4.32.18-9.11.78-13.29.54-3.8.63-9.01.78-13.81-.33-1.14-.38-1.4-.52-2.34,1.69-5.79-.81-13.53,2.07-18.5,1.84.32,2.55,1.78,2.59,3.91-.24.98-1.76.66-1.55,2.09,1.1,3.84,5.61,4.25,7.25,7.56.92.12,1.42.66,2.07,1.04.35.52.49,1.24.78,1.82,2.91,1.33,3.64,4.84,6.99,5.73.33-3.11-1.69-3.86-2.07-6.25-2.19-1.44-2.97-4.3-5.43-5.47-2.12-4.46-5.16-8-8.28-11.46-.32-2.02-1.62-3.06-2.59-4.43-.12-5.57.4-10.23.26-15.37,1.16-3.57-.02-7.35.26-10.94.05-.63.44-1.2.52-1.82.47-3.88,0-7.79.26-11.72.01-.23.48-.8.52-1.04.13-.77-.14-1.62,0-2.34.59-2.95.37-7.73,1.29-11.72-.54-2.13-2.53-3.96-2.07-6.25-1.53-.89-2.41-2.43-2.33-4.95.82.04.87-.69,1.81-.52,1.61,1.15,3.04,2.49,3.62,4.69,2.13,1.5,4.34,2.93,4.4,6.51.53.54,1.39,1.73.78,2.6,1.23.41,1.18,2.11,1.81,3.13.19.8-.26.95-.26,1.56,1.14,1.2,2.14,2.54,2.59,4.43.93.88,2.08,1.55,2.59,2.87.25,3.13,1.01,5.76,2.33,7.82-.2.98.32,1.25.26,2.08,1.67,1.79,2.68,4.25,3.1,7.3,1.74,2.59,2.29,6.38,3.36,9.64.39.48,1.08.65,1.29,1.3.73,3.78,2.76,5.08,3.11,8.86,1.45,1.84,2.94,3.64,3.88,5.99.21.9-.38,1-.26,1.82.45.82,1.16,1.56,1.29,2.6.16,1.27-.19.72.52,2.09,1.44,2.78,3.45,5.93,4.4,9.64,1.54,2.19,3.14,4.31,3.62,7.56,1.09.92,2.05,2.99,1.55,4.69.82.82,1.42,1.88,1.29,3.65.73.75,1.55,1.39,2.07,2.35.65,2.38,1.53,4.54,2.59,6.51,1.29,5.39,2.32,11.04,4.92,15.11.62,3.11,2.03,5.42,3.62,7.56.45,2.33,1.65,3.9,2.07,6.25,3.96-.22,1.93-4.5,3.62-6.25-.03-1.07.45-1.63.26-2.87,1.52-1.16.82-4.56,2.85-5.21-.16-.63-.52-1.34.52-1.3.65-3.77,1.72-7.13,2.59-10.68.79-.86,1.44-1.85,2.33-2.6-.25-1.64.51-2.27,1.03-3.13.27-3.73,3.02-4.95,3.62-8.34.49-.11,1.11-.09,1.04-.78-.05-3.86,2.67-3.81,2.59-7.29.74-.73,1.17-1.78,2.07-2.34-.31-3,.89-6.74,2.85-8.34,1-2.81,1.63-6,3.62-7.82.92-3.59,1.5-7.52,3.62-9.9.91-5.21,2.28-8.43,4.4-12.51.2-.98-.32-1.25-.26-2.08,1.1-1.78,2.86-4.21,2.59-6.51.54-.15.84-.55,1.29-.78.05-2.82,1.93-3.79,2.59-5.99v-2.6c1.58-2.58,2.48-5.84,3.88-8.6v-2.09c1.16.09.27-1.33,1.81-1.3.69-5.3,3.22-8.74,3.62-14.33.78-.52.83-1.77,2.07-1.82.86.09,1.12.78,1.55,1.3-.19,7.52-1,14.62-.26,21.89.12,1.15.72,2.35.78,3.39.07,1.43-.53,3-.52,4.43,0,1.37.48,2.62.52,3.91.08,2.61-.25,5.25-.26,7.82,0,1.54.43,2.91.52,4.43.16,2.74-.34,5.57-.26,8.34.06,1.93.5,3.8.52,5.73.03,4.25-.59,8.71.26,13.03-.23.72-.32,1.58-.78,2.08.64,2.35-.16,4.67,0,7.03.07,1.08.62,2.19.78,3.39.1.77-.12,1.84,0,2.61,0,0,.76,1.82.77,2.61.03,1.47-.72,2.83-.77,4.43-.07,1.88.61,3.91.52,5.99-1.17,2.14-.63,6.17-.26,9.38.44,3.81-.47,7.27.52,10.68-.55,1.79-1.72,2.95-2.07,4.95-1.72,1.74-4.11,2.81-5.95,4.43-.82-.13-.91.47-1.81.26-.91,1.34-2.3,2.21-3.62,3.13-1.16.11-2.19.63-3.1,1.04-.93.42-1.95.84-2.59,1.56,6.19,1.78,13.04-1.05,19.15.26.87,1.71-.3,3.01-.52,4.43.46.68,1.87.68,2.33,0-.06-1.42-1.46-1.48-1.03-3.39,2.36-3.4,9.24-.82,13.2-2.35,2.56.88,3.89.52,6.73,1.04,2.77-1.38,7.65-.3,10.09.52,1.1-.51,1.83.24,2.59-.52,1.65.38,4.83.46,6.47,0-.94-2.35-4.15-2.43-6.73-3.13.04-.74-.78-.61-.78-1.3-.83.06-1.09-.46-2.07-.26-1.88-1.5-4-2.74-5.95-4.17.26-1.48-.81-1.62-1.29-2.34.07-2.06-.84-3.15-1.55-4.43v-2.08c-.39-.56-1.3-.61-1.29-1.56,2.09-1.79-.71-3.7,0-7.04.19-.92.39-1.17.26-2.34-.15-1.43-.41-3.2-.26-4.95.02-.25.5-.66.52-.78.03-.21-.43-.6-.26-1.04.18-.47.79-.38.77-1.04-1.39-6.58-1.06-14.17-.52-20.32.52.09.81-.05.77-.52-.03-.92-.86.55-.77-.26.53-1.64-.67-3.59,0-5.47-1.91-2.59,1.04-7.04-1.3-9.38.41-3.67.43-7.73.78-11.46-1.85-2.46.66-6.54-1.29-8.34,1.38-8.07.77-15.85,0-24.23-.25-1.04.77-.79.52-1.82-1.24-2.25-.58-6.54-1.29-9.9,1.08-1.73,1.07-3.87.26-5.73.34-3.21.25-6.17-.52-8.86.27-1.21.81-2.13,1.29-3.13-1.48-2.22-1.29-5.99-.52-8.6-.76-1.58-.93-6.24-.26-8.6.42-1.47,2.14-2.65,1.55-4.43.67-1.15,1.92-1.72,3.11-2.34.58-2.19,1.71-3.84,4.14-4.17,1.25.12,1.62,2.25,2.59,1.82.53-.79-.71-1.6-.26-3.13.58-1.49,1.69-2.04,2.07-3.13.67.02.27,1.12,1.29.78,1.12-1.13,3.15-1.35,4.4-2.34,1.13-.75,2.49.33,2.85-1.04v-.78c-2.3-1.01-3.98.85-6.21.78-.73-.31.38-2.47-.77-2.35-1.08,1.61-2.07,3.3-2.85,5.21-1.72-1.13-5-.7-6.73-1.82-5.6,1.54-12.94,1.3-16.82,3.91-2.18-.2-3.15.83-4.4,1.56-.43.35-.09,1.48-.52,1.82-.67.02-.27,1.12-1.29.78-.62,2.51-2.13,4.11-2.85,6.51.17,1.3-.24,2.02-.26,3.13-2.86,4.95-3.48,10.56-6.21,15.63-.33,3.05-1.28,5.48-2.85,7.29-.6,2.44-1.38,4.69-2.85,6.25.76.22-.34.66,0,1.3-.77.44-1,1.43-1.55,2.09.36.34.25,1.13.26,1.82-1.7,5.49-4.45,9.94-5.69,15.89-.65.22-.82.91-1.29,1.3.29,2.25-1.62,3.52-1.04,5.21-1.56,1.55-2.48,3.75-2.59,6.77-1.04.95-1.39,2.59-1.55,4.43-3.84,4.47-4.47,12.17-8.02,16.93-.33,2.45-1.61,3.93-2.59,5.73-.46,3.45-1.4,6.41-3.62,8.08.37,1.85-.74,2.21-.52,3.91-2.51,3.38-3.53,8.26-5.43,12.25-.27,1.89-.79,3.55-2.33,4.17-2.71-.57-2.77-3.81-4.4-5.47-.18-4.25-2.87-5.96-3.1-10.16-1.94-1.52-1.99-4.28-2.59-6.51-.03-.1-.5-.19-.52-.26-.05-.17.36-.3.26-.52-.5-1.09-1.68-1.46-1.81-2.61.15-1.21-.35-1.57,0-2.34-1.92-1.63-2.04-5.07-3.88-6.77-.25-2.79-2.33-3.73-2.07-7.04-2.27-1.79-1.83-6.32-4.14-8.08.8-.83-.61-.92-.52-1.82.03-1.08-.45-1.63-.26-2.87-1.29-.66-1.57-3.57-1.03-5.21-2.43-2.77-2.9-7.5-5.69-9.9v-1.82c-2.31-5.15-5.91-10.37-6.47-16.41-.72-.14-.72-1.01-1.03-1.56v-1.3c-.58-1.12-1.88-2.72-1.55-3.91-1.41-1.01-2.02-2.82-2.85-4.43-.27-.69-.31-1.6-.26-2.61-1-1.95-1.44-4.45-2.85-5.99-.21-.74.37-.67.26-1.3-1.04-.78-1.38-2.26-1.55-3.91-2.6-3.73-4.3-8.35-6.73-12.25,0-1.56-.87-2.25-1.04-3.65-2.33-1.74-4.27-3.87-7.25-4.95-4.65-.69-9.32-1.58-13.2-3.65-.48.38-.69,1.05-1.55,1.04-6.12-.61-10.74-.64-17.34.26-1.07-.58-2.4-.89-3.62-1.3-.21.65-.71,1.02-.78,1.82,3.58,1.28,8.19,1.26,12.68,1.3.7.59,1.39,1.2,1.81,2.08,1.06.19.89-.84,2.07-.52.93,1.32,2.93,1.57,3.62,3.13,2.07-.17,2.7,1.11,3.62,2.08.62,6.68.42,13.42.77,20.84-1.12,1.8-.7,4.81,0,6.77-.39,5.88-1.5,12.07-.52,17.46-.22,2.92-1.07,5.96-.78,9.12.05.59.48.92.52,1.56.06,1.24-.34,2.18-.52,3.39-.66,4.51-.6,8.2-.78,13.29-.9,1.18-1.98,2.17-3.62,2.6.97.58,2.5.61,3.1,1.56-.09,2.53-.22,4.31-1.03,6.51.55-.12.49.37.52.78-.25,6.69-.36,13.54-.52,20.32-.98,3.35.28,6.67,0,10.16-.08,1-.63,1.91-.78,2.87-.58,3.78-.09,7.69,0,11.72-1.69,3.85-.07,9.88-1.29,13.81.75,7.33-.47,14.6-.78,20.84-.5.88-1.28,1.49-1.29,2.87-1.45,1.18-2.87,2.87-4.14,3.91-.09.08-.65-.3-.78.52-1.58.23-2.14,1.49-4.14,1.3-.16-.71.33-2.07-.26-2.35-.81.98.39,2.43,0,2.87-1.77.31-1.22-1.72-3.36-1.04-.38,1.24-.6,1.18-1.81,1.3-.59,1.55-2.27,3.07-1.04,4.95.79.19.76-.45,1.55-.26-.62.6-.4.84-.26,1.82-.46.99-3.02,2.27-.52,3.65.41-.19-.06-1.28.78-1.04-.1.88.45,1.11.78,1.56.42-1.48-1.54-4.55.26-5.99,2.6-.33,4.95-.92,7.25-1.56,1.03,1.32,1.65-.3,3.1-.52,2.12.59,3.84-1.18,6.21-1.3,1.72-.09,3.32.77,5.18,1.04,2.03.3,4.41.72,6.21.78,1.58.05,3.05-.52,4.66-.52,2.96,0,6.2,0,9.06.26,3.93.35,8.38,1.65,11.64-.26-.08-2.44-4.6-.41-5.43-2.08l-.13-.13-.13-.13c.33-.06.34-.78,0-.78.05.22-.1.25-.26.26v.52h-.26v.26ZM106.41,20.11c.01-.45-.2-.67-.52-.78.03.41-.03.9.52.78Zm82.81.78c-.41-.55-1.27-.64-1.55-1.3-.38,1.17,1,1.93,1.55,1.3Zm-96-1.04c-.2.06-.51,0-.52.26.2-.06.51,0,.52-.26Zm-6.73,2.08c1.38.08,2.07-.52,2.07-1.82h-2.59c-.03.81.32,1.24.52,1.82Zm86.95-.78c.07-.59-.06-.98-.52-1.04.04.49.17.87.52,1.04Zm33.38.52c-.16-.71-.51-1.22-1.03-1.56.05.82.18,1.55,1.03,1.56Zm-89.27,1.56c1.1,1.2,3.91.97,3.62-1.3-.73-1.79-3.68-.69-3.62,1.3Zm-58.74-1.04h.78v-.78h-.78v.78Zm99.88,2.61c-.2-1.16.34-1.56.26-2.61-.43-.35-.87-.69-1.81-.52-1.46,1.72-.6,2.67,1.55,3.13Zm48.91-1.82h.78v-.78h-.52c-.02.33-.33.36-.26.78Zm6.73,1.82c1.22-.89.94-2.94-1.55-2.61-.56,1.44.43,2.15,1.55,2.61Zm-105.32-1.04c.01-.45-.2-.67-.52-.78.02.41-.04.9.52.78Zm-35.19.52c-1.69.29-2.8,1.18-4.92,1.04-.95,1.22-2.97,1.35-4.4,2.08.18,1.65,1.63,2,2.59,2.87,2.45-.31,5.43.9,6.73,2.61.38,2.75,3.11,3.12,4.92,4.43,1.37.07,2.57-.01,3.36-.52.82.88,2.07-.08,2.85,0,.8.92,1.96,1.07,3.36.78.3-3.51-1.77-4.64-1.81-7.82-1.22-.86-1.73-2.43-2.85-3.39-3.21-1.34-6.82-.89-9.57-2.87-.02.33-.33.36-.26.78Zm35.97,2.34c.62.03.57-2.74-.52-2.6.25.79-.55,2.64.52,2.6Zm1.29,1.04c.84-.37,1.43-.99,2.07-1.56-.72-.4-.71-1.55-1.55-1.82.66,1.51-1.07,1.31-.52,3.39Zm53.56-2.87c-.2.06-.51,0-.52.26.2-.06.51,0,.52-.26Zm-2.33.26c-.2.06-.51,0-.52.26.2-.06.51,0,.52-.26Zm-46.58.78c.26,0,.31.21.52.26-.02-.41.04-.9-.52-.78v.52Zm92.9,1.04c.66,2.11-.45-1.72,0,0h0Zm-195.63,1.56c.88-.07,2.1.2,2.59-.26-.09-1.79-3.75-2.17-2.59.26Zm194.08-1.3c-.2.06-.51,0-.52.26.2-.06.51,0,.52-.26Zm3.88,2.61c1.22.25,1.71-1.56,1.04-2.34-.49.64-1.32.93-1.04,2.34Zm-53.82-1.56c.35.34.96.34,1.04-.26-.34-.34-.96-.34-1.04.26Zm40.11,10.68c-.61.08-.15,1.23-1.04,1.04-2.78-.5-3.06-3.52-5.95-3.91-1.73,2.16-.9,5.65-.26,8.08.33,1.27-1.5,1.22-.77,2.08.42.88.82-.82,1.29,0,.15,1.33,1.72,2.05.26,2.87.33.45,1.55,0,1.55.78.22,1.43,1.52,1.77,1.81,3.13,1.39.36,1.09-.99,2.33-.78.85,1.14,1.11,2.88,1.04,4.95,1.08.91,1.1,2.88,1.03,4.95,2.03,4.29,2.28,10.38,4.14,14.85.18,1.34-.67,2.18.26,2.87,1.64.08,2.1-1.01,2.59-2.08.59-.62,2.51.1,3.11-.52.37-2.11-1.12-2.35-1.55-3.65-.91.04-1.16.75-2.07.78-.54-3.1-1.8-4.69-1.55-8.08-1.1-.72-1.54-2.58-1.55-3.65-.4-.81-1.19-1.23-1.55-2.08,1.08-1.79-.49-3.76-.52-5.47-.02-1.14.61-2.1,1.03-2.87.7.34,1.44.64,2.59.52.05-.3.41-.28.78-.26,3.1-4.52,6.38-10.24,6.47-16.94-.2-.06-.51,0-.52-.26-3.1,1.57-4.63,4.72-7.25,6.77-2.59-1.25-1.51-4.8-2.85-7.03.57-1.84.03-4.68-.78-5.99-.33-.01-.36-.33-.78-.26-1.58,2.72-2.11,6.32-1.29,10.16Zm-79.18-6.25c.86-.61.47-2.37.26-3.39-2.07-.26-2.79.84-3.1,2.34.95.78,1.27,1.03,2.59,1.04l-.13.13.13.13c-.01.45.19.68.52.78v-1.04h-.26Zm96.78,3.39c1.35-1.6,2.69-3.37,2.59-5.73-1.57-.07-2.35-.93-3.88-1.04-1.67,1.39-2.08,6.9,1.29,6.77ZM23.34,30.01c-1.72,2.96-2.38,6.99-3.36,10.68-3.26-.37-2.72-4.56-6.21-4.69-.83,2.02.48,3.99,1.29,5.21-1.45,1.46-.83,4.81-.78,6.51,2.39,1.33,2.64,4.81,4.4,6.77.16,1.18.15,1.36.52,2.61.15.84-.08,1.31-.52,1.56,1.4,1.72.7,5.54,1.03,8.34-1.1,1.38-1.04,4.86,0,6.25-.38.85-.38,2.32.78,2.35,2.21-3.96,1.96-8.92,1.29-14.33.16-.97.62-1.64.78-2.61-.27-.86-.12-2.13-.52-2.87,1-2.11.84-5.5,2.85-6.25.06,1.37-.42,1.98,0,3.13,3.51.99,3.24-4.01,5.69-4.95.14-1.34.79-2.15,1.81-2.6.13-1.63,1.73-2.18,1.04-3.91-2.49-.34-2.76,1.56-4.66,1.82-2.29-1.17-1.31-5.63-1.55-8.86-1.24-1.01-.28-4.24-2.07-4.69-.95-.17-.99.56-1.81.52Zm7.76,1.3c1.28.25,1.68-.39,1.55-1.56-.79.19-.76-.45-1.55-.26.23.95-.46,1.39,0,1.82Zm125.76-1.04c.08.96.29,1.79.77,2.35.99-.13,1.65.07,2.07.52.04-1.69.65-1.65.26-3.39-1.34-.54-2.08.08-3.1.52Zm48.13-.26c-.49,2.14,1.58,1.71,2.59,2.34-.14-.69,1.06-1.33.26-1.82-.23.7-1.05-.12-.78-.78-.62.16-1.18.37-2.07.26Zm4.4.26c.3,1.03.3-1.03,0,0h0Zm-192,.78c-.03.5-.87-.31-1.55,0-.26,1.21,2.34.57,1.55,0Zm90.57,1.56c-.08,1.19-.27,1.45.26,2.34,2.28,0,2.37-2.5,1.29-3.91.02,1.06-.78,1.3-1.55,1.56Zm-40.11-1.04c-.2.06-.51,0-.52.26.2-.06.51,0,.52-.26Zm-50.46,1.04h.52v-.52h-.52v.52Zm176.22.26h.52v-.52h-.52v.52Zm-158.11.78c.7.18.5-.54.78-.78h-.78v.78Zm81.51,1.04c-.72.12.2-1.42-.52-1.3-.62.33.04,2.16.52,1.3Zm36.49-.26h.52c.01-.33.33-.36.26-.78h-.78v.78Zm-85.91-.26c-.21.49-.43.95-.52,1.56.65.22,1.39.34,2.33.26.16-.62.37-1.19.26-2.08-.96-.19-1.11.44-2.07.26Zm3.88.26c0-.26-.45-.33-.52,0,.05.32.29.16.52,0Zm46.06,0c.3,1.03.3-1.03,0,0h0Zm.52,2.34c-.08,1.64.63,2.49,2.07,2.61,1.52-.84-.03-3.46,1.29-4.17-.43,0-.14-.72-.52-.78-.98.75-1.15,2.31-2.84,2.34Zm34.16,19.28c-.31-3.73,1.86-5.82.51-9.12.56-2.24-.13-2.44-.51-4.43-2.5-2.96-4.99-5.92-8.54-7.82-.61.32-1.95.78-2.59.26.05.57-.21.83-.78.78-1.86-.05-2.77.86-4.66.78-.92.98-1.64,2.16-1.81,3.91.98,1.53,1.86,3.17,2.33,5.21,2.57,1.5,2.93,5.71,7.5,4.43,1.01-2.04-.95-2.23-.78-4.17.2-.06.3-.22.26-.52,2.94-.76,5.18,1.36,6.21,3.39-.51,3.71.36,6.21-.52,9.64,2.03.14,2.51-1.29,3.37-2.34Zm36.48-20.06c.04-.65-.13-1.08-.52-1.3-.41.39-.38,1.49.52,1.3Zm-75.56,1.04c.63,1.05,2.41.9,3.1,0-.15.68.1.94.78.78-.33-1.06-.77-2-1.29-2.87-1.37.18-1.6.25-2.85.78v1.04l-.13.13.13.13.13.13.13-.13Zm40.37-1.04c-.06-.46.26-1.3-.52-1.04-.07.59.06.98.52,1.04Zm53.05-.52c.3,1.03.3-1.03,0,0h0Zm-174.67,1.82c.73-.22.67.37,1.29.26,0-.61.45-.77.26-1.56-.31-.3-.91-.29-1.55-.26v1.56Zm123.43.78c1.5.12,2.2-.57,2.33-1.82-1.27-1.53-4.08.25-2.33,1.82Zm-116.96-1.04c-.06-.46.26-1.3-.52-1.04-.07.59.06.98.52,1.04Zm72.2-1.04c-.79.88.96.79,0,0h0Zm-6.47,2.34c.23,1.33,1.16,1.96,2.33,2.34.3-.65,1.03-.87,1.04-1.82-.47-1.02-1.7.34-2.07-.78.2-.06.51,0,.52-.26-.82-.04-.86.69-1.81.52Zm-33.12.52c.24,1.06.59,2.01,2.07,1.82.28-1.15-.44-1.29-.52-2.08-.64-.03-1.25-.04-1.55.26Zm52.53.78c.08.61.41.98.26,1.82,1.07-.3,1.6-.73,2.33-.78.04-.65-.41-.81-.52-1.3-.75.03-1.69-.14-2.07.26Zm4.14,2.61c.8,1.73-.96,1.82-.52,3.91-.87.95-1.71,1.92-1.55,3.91-1.42.66-1.38,2.78-2.59,3.65-.64,2.57-.52,5.9-2.85,6.77-.85-2.94.11-5.52-.26-7.82-.51-3.19-3.23-5.11-3.88-8.08-.56-.64-1.86-.33-3.1-.78-1.42-.51-4.06-2.47-4.92.26,1.39,1.64,3.96,4.34,6.21,5.99.51,1.4,1.13,2.68,1.29,4.43,3.05,3.13,2.74,9.38,3.36,14.33-.33.8-.94,1.31-1.29,2.08.55,1.9-1.19,2.8-.52,4.95.08.69-1,.21-.78,1.04.69,1.9-.7,3.53-1.03,5.21-.12,1.53.51,3.81-1.3,3.65-1.17-1.68-.29-3.75-.52-5.73-.33-2.86-1.81-5.75-2.59-8.6-.49-1.79-.58-3.61-1.29-5.21.57-2.76-1.5-3.91-.78-5.99-1.87-.12-1.5-2.49-2.85-3.13-1.32-4.49-4.83-6.77-6.47-10.94-2.23-.43-2.38-4.1-4.92-3.39-.03,3.35,3.41,5.41,3.88,9.12.7.16,1.21.52,1.55,1.04.77,2.52,1.9,4.69,3.11,6.77-.08.53-.7.51-.78,1.04,1.4-.7,1.36,1.56,2.33,2.08.18,2.19,1.64,5.27,2.59,7.56.98,4.78,2.62,8.87,3.62,13.55.47,2.19-.1,4.19,0,6.51.08,1.9,1.02,3.77,1.03,5.73-.69.95-.34,2.96-1.03,3.91.41.03.9-.04.78.52-1.17,4.83.9,9.24-.52,13.81,1.5,2.92,4.16.23,4.92-1.56-.54-3.26-.62-9.58.52-12.77.15-1.69-.67-3.5-.52-5.21.12-1.29,1.07-2.74,1.29-4.17.54-3.41-.13-6.18,2.07-7.82.7-7.2,2.04-13.75,4.4-19.28v-2.08c.76-2.27,2.32-3.74,2.59-6.51.69-.61.9-1.7,1.81-2.08.57-3.33,1.76-6.04,2.33-9.38.86-.8,1.54-2.99.52-4.17-2.73-.67-1.16,3-3.37,2.87Zm86.43-.52c.54-.11.68.18,1.04.26.21-.49.43-.95.52-1.56-.79-.01-1.32.24-1.55.78h-.26v.26c-.26-.17-.27-.6-.78-.52-.22.3-.34.7-.26,1.3,1.01-.41.54.68,1.03.78.3-.39.3-.66,0-1.04h.26v-.26Zm-178.55-.52c.26,0,.31.21.52.26,0-.26.21-.31.26-.52-.26,0-.31-.21-.52-.26,0,.26-.21.31-.26.52Zm51.75,19.54c.82-1.61,2.28-2.57,3.36-3.91-.07-2.68,2.14-4.85,2.07-7.56-.01-.45-.37-.94-.52-1.56-.63-2.64-.5-4.16-1.55-5.73-2.51-1.48-6.4-1.28-9.83-.52-.71,2.32-2.43,3.64-3.11,5.99-1.8-.25-1.1,2.02-2.85,1.82-.57,3.38.21,7.35,2.85,8.34,1.86-1.52,3.45-3.3,5.95-4.17,1.78,1.45,1.58,5.84,0,7.3,1.11-.16,1.05.85,2.07.78-.15-.93.77-.79,1.55-.78Zm11.13-17.72c1.11.15,3.09-1.27,1.81-1.82-.47.74-1.28,1.14-1.81,1.82Zm24.32,0c0-.26-.45-.33-.52,0,.29-.03.4.38.52,0Zm92.12,1.3c.2-.18.67-1.55-.26-1.3.14.38-.3,1.35.26,1.3Zm-178.29.26h1.29c-.11-.75-.54-1.19-1.29-1.3-.48.5-.03.65,0,1.3Zm66.76-.52h.78v-.52h-.78v.52Zm17.34,1.56c.73.14.5,1.23,1.3,1.3,1.13-.08,1.61-.81,2.07-1.56,0-.78-.67-.89-.78-1.56-1.85-.39-2.21.73-2.59,1.82Zm91.6,1.04c-.16.62-.37,1.19-.26,2.09,1.28.8,2.27,1.88,3.88,2.34.08-1.83-.87-4.61-3.62-4.43Zm2.33-2.08c0,.86-.44,1.3-.26,2.34,1.43-.03,1.03-2.01.26-2.34Zm-110.49,1.56c.34.79.18,2.08.52,2.87h2.33c.41-.63.96-1.11.78-2.35-1.15-.64-2.52-1.93-3.62-.52Zm85.39,4.95c.14-3.21-2.63-3.48-4.14-1.82.43,1.57,1.23,2.76,3.36,2.61.15-.38.4-.64.78-.78Zm-149.82-1.3c-.63.87.87-.63,0,0h0Zm93.67,1.04c-.31-.29-.47-.74-1.29-.52.68,1.84,1.34,3.69,2.33,5.21-.2-1.12.04-1.06-.26-2.08.31.3.91.3,1.55.26.04.74.48,1.08.52,1.82,1.06.11,1.66-.24,2.33-.52.18-1.05-.25-1.49-.26-2.34-1.24.29-1.57-.33-2.07-.78-.04.48-.17.87-.52,1.04-.79-.51-1.3-1.3-1.29-2.61.73.22.88,1.02,1.29,1.56.22-.3.34-.7.26-1.3-.61-.42-1.49-.58-2.33-.78-.63.35.47.79-.26,1.04Zm2.85-.52c.15,1.18,1.48-1.49.26-.26-.12.12-.3-.05-.26.26Zm71.16.78c.59.19,1.32.23,1.81.52.31-.56.28-1.46.78-1.82-1.38-.08-2.45.14-2.59,1.3Zm2.85.52c.75-.04,1.63-1.29,1.03-1.82-.17.77-1.67,1.05-1.03,1.82Zm-176.22-.26c-.18,1.13.46,1.44,1.04,1.82.86-.43.74-1.86,1.29-2.61-.95.09-1.77.3-2.33.78Zm75.56,4.17c.17-.95-.17-1.39-.52-1.82.31-.3.91-.3,1.55-.26.07-.94-.48-1.26-.52-2.08-.84-.15-1.2.18-1.81.26.64,1.58-.25,3.11,1.04,3.91l-.13.13.13.13c.03.47-.32.55-.26,1.04.51,0,.33.71,1.03.52.6.08.29-.75.78-.78,0,.52.71.33.52,1.04-1.69-.05-1.66,1.62-2.59,2.34.52.06,1.05-1.16,1.55-.26.31,1.18-1.15.58-.78,1.82.38.14.65.38,1.04.52.43-1.74,2.88-1.44,4.14-2.34.18-1.31-.15-2.1-.52-2.87-1.08-.22-1.22.51-2.07.52-.86-1.02-1.19-1.02-2.33-1.82l-.13-.13-.13.13Zm105.58-2.6c0-.26-.45-.33-.52,0,.29-.03.4.38.52,0Zm-7.5.78c-.09.59.2,1.54.26,2.34.82-.13,1.13-.77,2.07-.78.17-.95-.56-1-.52-1.82-.69,0-1.48-.1-1.81.26Zm-17.08,2.87c.8-.19.5.71,1.29.52.97-.18,1.41-1.91.78-2.87-.65-.5-1.02.22-1.81-.26.09,1.04-.46,1.45-.26,2.61Zm11.9-1.56c-.04-.39.09-.96-.26-1.04-.34.35-.34.97.26,1.04Zm11.39,1.04c.04-.3.41-.28.78-.26.01-.79.15-1.71-.78-1.56-.74-.02-.74,1.84,0,1.82Zm-184.5-1.56c-1.55,2.35.93,3.01,2.84,2.87v-2.87h-2.84Zm113.08,4.17c.81.24,1.04,2.41,1.81,1.82.36-.81,2.18-3.19.78-5.21-.61-.34-.48.04-1.29-.26-.41,1.24-.97,2.32-1.29,3.65Zm-104.54-2.87c0-.26-.46-.33-.52,0,.05.31.29.16.52,0Zm94.97-.26c-.2.06-.51,0-.52.26.2-.06.51,0,.52-.26Zm-118,4.17c.22-1,1.69-.73,1.81-1.82-.78-.43-.86-1.56-1.55-2.08-2.38-.52-3.13,3.65-.26,3.91Zm114.37-2.08c.47-.45-.08-1.02-.78-1.04-.07.68.09,1.12.78,1.04Zm6.99-.26c.3,1.03.3-1.03,0,0h0Zm60.55,0c.3,1.03.3-1.03,0,0h0Zm-162.76.52c-.23,2.14.45,3.37,2.59,3.13.35-.69.31-1.78.52-2.61-1.07-1.05-1.39-.94-3.11-.52Zm176.22,1.04c.04-.65-.13-1.08-.52-1.3.12.49-.35,1.57.52,1.3Zm-183.47,2.35c.79-.39,1.01.09,1.55-.26.4-.53.4-2.33,0-2.87-1.8-.15-2.66,1.88-1.55,3.13Zm187.61-2.61h.52c.4-.64-.88-.77-.78-.26.16.01.3.04.26.26Zm-28.46.26c-.2.06-.51,0-.52.26.2-.06.51,0,.52-.26Zm-147.76,1.04c.01-.45-.2-.67-.52-.78.02.41-.04.9.52.78Zm94.45-.26c-.42,3.2,4,1.53,4.66,3.65,0,1.22-.14,2.57,1.03,2.61.71-.67,1.43-1.34,1.29-2.87-.33-.45-1.55,0-1.55-.78.96-.87-.24-1.13.26-2.08-.49-.24-2.26.03-3.11.26.06-.76-.49-.9-.78-1.3-1.07-.3-1.01.55-1.81.52Zm80.99.52h.52c.02-.33.33-.36.26-.78h-.78v.78Zm-84.87,1.56c.33-.45.87-.68.77-1.56-.49-.11-.65-.56-1.29-.52,0,.79-.81,2.12.52,2.08Zm78.4,1.3c1.11-.1,1.23-1.19,1.3-2.34-.76-.02-.57-.99-1.55-.78-.43.84-1.57,2.94.26,3.13Zm-109.72-.26c.99.29,1.33-1.42,1.81-.78-1.53,1.23-.42,3.76,1.81,2.61.61-2.25-2.19-1.9-1.29-3.65-.81-.13-1.01.57-1.55,0-.12.75-.92.81-.78,1.82Zm47.35-1.3c-.43-.44-1.52-.21-1.29.78,1.76-.33.76.5,1.29,1.3.64-.13,1.56,0,1.55-.78-.86.45-1.12-.16-1.55-.78h.26v-.26h.52v-.52h-.78v.26Zm49.42,2.61c4.84-.79-1.71-5.59,0,0h0Zm19.93-.52c.36-.34.26-1.13.26-1.82-.42-.45-1.08-.65-2.07-.52-.18,1.57.1,2.67,1.81,2.34Zm-121.1-.52h1.55c.62-2.14-1.97-1.79-1.55,0Zm-62.62,1.82c.91-.3,1.64-.78,1.55-2.09-1.65-2.88-4.9,1.33-1.55,2.09Zm110.23-2.34h.78v-.52h-.78v.52Zm2.07-.26c-.2.06-.51,0-.52.26.2-.06.51,0,.52-.26Zm-61.33,2.61c1.67.32,1.84-1.46,1.55-2.34h-1.55c.27,1.09-.54,1.76,0,2.34Zm107.39-1.04c.63-.15,1.33-.22,1.29-1.04-.61,0-.76-.45-1.55-.26-.08.6.04,1,.26,1.3Zm-103.51-.78c.79.71-.71-.79,0,0h0Zm2.07-.26c-.2.06-.51,0-.52.26.2-.06.51,0,.52-.26Zm.78,2.09c.01-.45-.2-.67-.52-.78-.29.49-.33,1.23-.52,1.82,2.05.81,1.12-.48,2.59-.78-.01.86-.44,1.3-.26,2.34.45-.02.8.06,1.03.26.66-1.06-.33-2.35,0-3.91-.98.38-.5-.72-1.29-.52.24,1.11-.42,1.31-1.04,1.56Zm43.73,1.82c.63-.67.54-2.06.52-3.39-4.13-1.37-4.38,4.19-.52,3.39Zm-119.03-2.08c-.59,2.33,2.66,2.65,3.11,1.04-.62-1.06-1.96-1.91-3.11-1.04Zm78.41.52c.08-.16.64-1,0-1.04-.08.16-.64,1,0,1.04Zm21.48,1.56c.7.58,2.08.16,2.59-.26-.04-2.87-3.22-2.23-2.59.26Zm-27.17-1.56c.3,1.03.3-1.03,0,0h0Zm56.15,5.99c-1.53,1.67-2.85,3.56-5.18,4.43-.75-.12-1.18-.55-1.29-1.3.53-1.49,1.08-4.75-.52-5.47-.84.54-.87,1.9-.78,3.39-.85,1.05-1.76,2.05-2.33,3.39-2.75,1.57-4.83,3.82-6.21,6.77-2.36,1.54-3.84,3.95-4.4,7.29.2.06.51,0,.52.26,1.55-.7,2.28-2.22,4.66-2.08.55-.32.75-.98,1.55-1.04.62-.11.56.48,1.29.26,1.23-1.02,2.58-1.23,4.14-1.04.4.05.67.57,1.29.78.68.24,1.61.04,2.07.26,1.14.54,1.8,1.91,3.62,1.3,1.22-3.98-3.46-4.12-2.59-8.6,3.3-1.71,3.94-6.1,6.73-8.34v-2.87c.76.07.89-.49,1.3-.78.2-1.34-.28-1.98-.52-2.87-3.59-.54-2.54,2-4.14,3.39.75.77.45-.65,1.29-.52-.42,1.38.78,1.12,1.3,1.56-.26.86-.72,1.54-1.81,1.56.19-.57-.71-1.21-.52-.26.29.06.4.29.52.52Zm-107.91-3.39c.69,0,.56.82,1.29.78,4.14-1-1.71-5.94-1.29-.78Zm50.46,0c.76.28,1.49.58,2.59.52.1-.88-1.15-.41-.78-1.56-1.46.34-1.29-.96-2.07-1.3.18,1.16,1.09,1.48.26,2.35Zm62.62-1.82c-.63.87.87-.63,0,0h0Zm-119.29,2.61c.15-.55.64-.74.52-1.56-.29-1.09-1.62-1.15-3.1-1.04-.5,1.78.41,2.84,2.59,2.61Zm63.92-2.08c.54.14.97.46,1.29-.26-.33-.36-1.27-.4-1.29.26Zm120.33.26c-.2.06-.51,0-.52.26.2-.06.51,0,.52-.26Zm-122.92,1.56c.12-.82-.22-1.16-1.03-1.04-.12.82.22,1.16,1.03,1.04Zm4.14-1.04c-.2.06-.51,0-.52.26.2-.06.51,0,.52-.26Zm118.26.52c-.05.75-.03,1.42.78,1.3.3-.31.29-.92.26-1.56-.49-.06-.57.29-1.04.26Zm-20.18,1.56c.47.4.79.94,1.81.78.8-.62.27-1.23.26-2.34-1.16.05-2.06.36-2.07,1.56Zm-103.77-1.04c.3,1.03.3-1.03,0,0h0Zm3.1.78c-.11,1.15.43,1.65,1.29,1.82.26-.78.5-1.58,1.55-1.56-.18-.82.03-1.06-.26-1.3-.45.76-1.16,1.26-2.59,1.04Zm106.09-.52c.05.99.37,1.71,1.29,1.82.77-.18.87-1.04.77-2.08-.7-.29-1.33-.05-2.07.26Zm-112.3.78c.45.01.66-.2.78-.52-.41.02-.9-.04-.78.52Zm0,.52v1.04c.38.4,1.32.23,2.07.26.12-.82-.37-1.02-.52-1.56-.79.39-1.01-.09-1.55.26Zm-51.5.52c-.07.85.31,1.25,1.04,1.3.07-.48.93-1.46.26-1.82-.22.39-.83.38-1.3.52Zm93.42.78h.78c-.21-.74.37-.67.26-1.3-1.01-.2-1.44.86-1.03,1.3Zm-43.99.52c.75-.12,1.18-.55,1.29-1.3-1.07-.21-1.33.4-1.29,1.3Zm22.51,16.15c.33-.46,2.44.49,3.1-.26.19-3.06-1.74-3.99-2.59-5.99-.59-.41-2.2-.72-1.55-1.56-3.51-1.15-4.67-4.68-6.47-7.56.46-.9-.02-1.71-.78-2.08-1.63.79-1.22,3.64-2.07,5.21.26,1.89,1.99,4.2,0,5.47-.89.21-1.09-.29-1.55-.52-.73,1.87-3.66,1.52-4.66,3.13.07,1.6-.06,3.1.78,4.43,1.19-.42,1.31.21,2.07.78,0,1.72-.5,2.92,0,3.91.33.36,1.12.26,1.81.26-.18-2.01,2.24-1.4,2.07-3.39-1.1-.67-2.43.31-3.1-.26.83-1.19,2.39-1.56,3.62-.78v3.39h-.26v.26c-.45-.68-.91.42,0,.26l.13.13.13-.13c.63.75.27,2.51,1.04,3.13,3.15-1.95,2.91-7.32,6.99-8.34.21.22.71.15.78.52l.13.13.13.13c-.96.08.76.65.52,0v-.26h-.26Zm-78.15-16.94v.52c.33.01.36.33.78.26-.06-.49.29-.58.26-1.04-.49-.06-.57.29-1.04.26Zm-13.2,2.34c.68.88,1.28,1.84,2.07,2.61.92-.29,1.53-.89,1.81-1.82.18-1.49-1.2-1.39-1.03-2.87-1.87-.23-2.49.79-2.85,2.08Zm69.87-1.3c.3,1.03.3-1.03,0,0h0Zm1.55.52c-.29.03-.4-.38-.52,0,0,.26.45.33.52,0Zm29.76,1.04h.52v-1.04h-.52v1.04Zm-79.18,2.08c1.4-.07,2.56-.38,2.59-1.82-.32-.89-1.21-1.21-2.59-1.04-.5.63-.25,2.18,0,2.87Zm55.63-2.61c-.22,1.54.15-1.05,0,0h0Zm-67.02,1.04v1.82c1.63.66,3.63-.02,3.37-2.08-.96-.29-2-.17-3.37.26Zm64.17,2.61c.62-.6,1.47-.95,1.55-2.09-1.63-2.7-4.37,1.26-1.55,2.09Zm2.33-2.35c.02-.45-.2-.67-.52-.78-.01.45.2.67.52.78Zm99.11,1.04c.57.56.9,1.35,2.07,1.3.71-.47.61-2.05.26-2.87-1.44-.15-2.34.25-2.33,1.56Zm-159.92.78c.64.03,1.25.04,1.55-.26.03-.81-.81-.74-.52-1.82-1.59.01-1.04.74-1.04,2.08Zm75.82,0c.66-.03,1-.38,1.04-1.04-.23-.38-.39-.83-1.04-.78v1.82Zm17.34.26c.42.45,1.08.65,2.07.52-.03-.81.81-.74.52-1.82-.87-1.54-2.4-.06-2.59,1.3Zm6.47-1.04c-.62.88.87-.63,0,0h0Zm67.02.52c.37,1.28,1.02,2.27,2.33,2.61,1.44-.73.75-3.6-1.03-3.39-.69,0-.56.82-1.29.78Zm-104.02.52c.41-.02.9.03.78-.52h-.52c0,.26-.21.31-.26.52Zm-69.35,2.87c-2.04-.32-2.8.65-4.66.52-1.67-.78-3.97-.54-5.18.52.03,3.09,1.93,4.31,3.37,5.99,6.99.97,16.25.9,15.01-7.56-2.38-2.15-6.1-.83-8.54.52Zm101.7-.26c.3,1.03.3-1.03,0,0h0Zm82.29,2.87c-2.13.57-4.6.13-7.25.52-.86-.61-2.09-.84-2.85-1.56-.6.08-.99-.04-1.29-.26-2.59,1.95-.37,5.62,1.29,7.03,1.73.02,3.27,1.02,4.66,2.08.65-.92,2.74-.53,3.62-.52,1.21-1.04,2.7-1.8,4.92-1.82.74-2.07,2.31-5.07,1.03-7.56-1.71-.17-2.51,1.65-4.14,2.08Zm-21.74.26c-.2-.06-.3-.22-.26-.52h-1.04c-.08.81,1.2,1.39,1.29.52Zm-150.34,2.61c.76.33,1.63-.09,2.59-.26.08-1.04.01-1.93-.52-2.35h-1.55c-.45.59-.62,1.46-.52,2.61Zm17.6,2.61c.11,1.79,2.84,1.04,2.59-.52-.85-.67-1.65.46-2.59.52Zm-39.07,3.13c.79.25,1.04,1.04,2.33.78v-2.08c-.89.11-1.45-.1-2.07-.26.03.64.04,1.26-.26,1.56Zm114.63-.26c.08-.32-.04-1.61-.26-.78-.08.32.04,1.61.26.78Zm64.43.78c.76.77.98.54,2.07.78-.06-.8-.26-1.47-.52-2.08-1.1-.15-1.2.7-1.55,1.3Zm19.92,1.04c1.18.14,1.93-.14,2.07-1.04-.1-1.29-1.35-1.42-2.85-1.3.08.96.3,1.79.78,2.35Zm-83.06,1.3c1.2.15,1.56-.36,2.33,0-.33-1.03.75-.63.78-1.3-.93-.11-1.24-.83-1.29-1.82-2.85-.84-3.1,1.95-1.81,3.13Zm-102.73.52c-.46-1.02-1.66-1.28-1.55-2.87-1.15.29-1.29-.44-2.07-.52-.56,2.24,0,5.31,1.29,6.51-.18,4.18,2.3,5.67,2.33,9.64,1.05,1.37,1.49,3.37,2.07,5.21,1.64,2.34,2.85,5.12,4.66,7.29.28,1.19.39,2.56,2.07,2.34-.5-1.49-.16-3.84-.26-5.73-.47-1.7-1.9-2.43-2.59-3.91-.35-.33-.35-1.23,0-1.56-.96-1.61-2.08-3.96-1.81-5.99-1.41-2.84-1.9-6.6-3.88-8.86-.33-.34-.33-.96,0-1.3l.13.13.13-.13c.42.05.52-1.71-.26-1.3v1.04l-.13-.13-.13.13Zm8.8-.78h1.55c.45-.5.59-1.32,1.04-1.82-1.22-1.56-3.89-.45-2.59,1.82Zm161.73,0c-.5-.79.3-2.12-.52-2.09-.02,1.13-.54,1.73.52,2.09Zm-94.71.78c2.14.16,3.92-.05,3.88-2.08-1.66-.65-2.83,1.27-3.88,2.08Zm33.38-.52c1.13.18,1.43-.47,1.81-1.04-.43-.35-.87-.69-1.81-.52v1.56Zm-117.74-1.04c-.23-.2-.74.16-.78.26-.37.98,1.29.19.78-.26Zm11.39,1.56c-.12-.49.35-1.57-.52-1.3-.04.65-.05,1.26.52,1.3Zm93.67-.52c-.39,2.21.88,2.76,2.59,2.87.06.46-.26,1.3.52,1.04-.34-1.57.48-3.13-.26-4.69-1.08.13-2.01.41-2.85.78Zm75.3,7.82c-.61,1.48-2.43,3.13-2.07,5.47-3.21,2.76-4.53,7.42-7.5,10.42.2,1.07-.4,1.34-.26,2.34.92-.14.64.92,1.55.78,1.21-1.39,2.7-2.49,3.11-4.69,1.49-1.02,2.49-2.53,3.1-4.43.3-.22.7-.34,1.29-.26.19-.8-.45-.77-.26-1.56,1.55-1.39,2.78-3.1,3.1-5.73,2.01-2.66,3.06-6.3,3.62-10.42-4.64-2.13-4.48,5.12-5.69,8.08Zm-104.54-8.08c1.68.77-.76-.35,0,0h0Zm-77.89,1.82c.82.34.82-2.16,0-1.82v1.82Zm192.26,1.04c.84-1.26.81.53,1.81.52-.34-1.14-.46-1.31-.26-2.61-.97.28-.41-.98-1.29-.78-.81.56-1.51,2.36-.26,2.87Zm-175.7-2.61c-.3.04-.73-.04-.78.26.3-.04.74.04.78-.26Zm16.82,2.35c.97.92,1.36.08,2.33-.26.11-.89-.1-1.46-.26-2.08-1.81-.35-1.76,1.18-2.07,2.35Zm45.03.52c-.35-1.29-1.18-2.11-2.33-2.61.29.75.05,2.03.52,2.61.35-1.15,1.37-.71,1.81,0Zm-74.52-.52c.13-2.78-3.96-.75-2.07,1.82,1.2-.25,2.03-.91,2.07-1.82Zm13.71-1.04c-.62.87.87-.63,0,0h0Zm160.18.26c.46-.06,1.3.26,1.04-.52-.48.04-.87.17-1.04.52Zm-138.96,0c-.57,2.05,1.16,3.37,2.33,2.08-.42-.7-.13-2.13-1.04-2.34.04.57-.92.12-1.29.26Zm77.11,0c-.75.75.75-.75,0,0h0Zm58.74.52c-.99-.21-1.7-.41-1.81.78.31.3.91.3,1.55.26.13-.41,1-1.4.26-1.82v.78Zm-34.42,3.65c-.59.67.26,1.47,1.03,1.56,1.11-.79.42-2.63.78-3.65-1.06-.32-1.26-1.51-2.59-1.56-.91,1.23-.34,3.04.78,3.65Zm-140.25-2.61h.52v-.52h-.52v.52Zm178.55,1.56c.36-.34.26-1.13.26-1.82h-1.55c-.6,1.06.27,1.67,1.29,1.82Zm-181.91.52c.49.29,1.22.33,1.81.52.18-.99.17-1.25-.26-2.09h-1.3c.19.8-.45.77-.26,1.56Zm20.18,1.56c1.8,1.72,3.92.61,3.37-2.08-1.42-1.57-3.84-.93-3.37,2.08Zm62.1-3.13c-.2.06-.51,0-.52.26.2-.06.51,0,.52-.26Zm8.54,8.86c-1.07-.74-1.52-2.11-3.62-1.82-1.07-1.24-1.62-3.58-.78-4.95.65-.13,1.98.02,3.11-.26.15-.94-.3-1.26-.52-1.82-2.73-.02-2.15,2.15-4.92,1.3-.09,1.22-1.37,1.23-1.81,2.09.87.04,1.86,1.63,3.11,2.08-.21,1.89-.74,1.84,0,3.39,1.38-.09,1.54,1.06,2.59,1.3,1.54.13,2.01-1.49,2.84-1.3Zm108.42-7.82c-.19,1.76.28,2.84,2.07,2.61.03-.32.08-.62.52-.52-.07-1.06-.49-1.77-.78-2.61-.8-.03-1.24.32-1.81.52Zm-85.91.26c.37.29.63.28.78-.26-.36.01-.57-.12-.78-.26v.52Zm.52,2.35c.88.24,1.52.73,2.85.52.69-.61.79-1.81,1.04-2.87-2.05-1.27-3.31.64-3.88,2.35Zm-21.74,0c.76-.07.79.59,1.55.52.33-.62,1.13-.77,1.03-1.82-.36-.68-.95-1.13-2.07-1.04-.41.55-.18,1.73-.52,2.35Zm27.69-.26c.96,1.07,3.34.42,3.1-1.3-1.06-1.63-3.1-.38-3.1,1.3Zm-10.09,1.04c0-1.13-.38-1.87-1.3-2.09-.34.6-.21,2.52,1.3,2.09Zm-66.25-.78c-.01-.36.12-.57.26-.78h-.78c-.01.45.2.67.52.78Zm93.67,1.3c.13.39.38.66.52,1.04,1.42-.08,2.9-.42,2.84-2.6-1.22-1.24-3.37-.05-3.36,1.56Zm-40.37-1.3c1.34.63,1.21-1.51,0,0h0Zm-59,2.08c1.12.87,1.71,1.11,3.62.78-.08-.96.22-2.31-.26-2.87-.56-.48-1.9-.18-2.85-.26-.41.54-.18,1.73-.52,2.34Zm156.81-1.3c.12-.81-.55-.83-1.29-.78-.12.81.55.83,1.29.78Zm-188.64,1.04c-.11-.63.47-.57.26-1.3-.31-.3-.92-.29-1.55-.26-.2,1.16.24,1.66,1.3,1.56Zm171.82,3.13c.09-1.82,1.68-2.13,1.81-3.91-.33-.36-1.22-.16-1.55-.52-.5,1.13-1.75,3.62-.26,4.43Zm-130.68-2.61c.18-.87-.44-.95-1.04-1.04-.12.82.22,1.16,1.04,1.04Zm-48.91-.52c-.2.06-.51,0-.52.26.2-.06.51,0,.52-.26Zm52.27.52h.52v-.52h-.52v.52Zm-51.23,0c-.29.03-.4-.38-.52,0,0,.26.45.33.52,0Zm99.11,0c-.31.04-.74-.04-.78.26.31-.04.73.04.78-.26Zm9.06.52c-.29.03-.4-.38-.52,0,0,.26.45.33.52,0Zm34.42,3.39c.83.06,1.09-.46,2.07-.26.57-.73,1.18-1.41,1.03-2.87-2.68-1.42-4.94.91-3.1,3.13Zm59-3.39c.3,1.03.3-1.03,0,0h0Zm-189.42.26c0-.26-.45-.33-.52,0,.05.31.29.16.52,0Zm-12.42.78c.2.85.94,1.13,2.07,1.04.3-.31.29-.92.26-1.56-1.18-.23-1.47.43-2.33.52Zm199.77-.26c.3,1.03.3-1.03,0,0h0Zm-92.38.78c.01-.45-.2-.67-.52-.78-.01.45.2.67.52.78Zm8.28.78h1.04c-.29-.57-.3-1.44-1.04-1.56v1.56Zm-93.93,1.04c.77.31,1.11-1.1.52-1.3-.99.95.03-1.07-.52-1.04-.68.46-.3,1.5,0,2.34Zm89.53-2.08c-.29.03-.4-.38-.52,0,0,.26.45.33.52,0Zm-65.47.52h.52v-.52h-.52v.52Zm66.5-.26c-.16.01-.31.04-.26.26.93.28.36,2.07,1.29,2.34.61-.08.97-.41,1.81-.26.19-.96-.64-1.45,0-2.08-.87-.42-1.89.08-2.33-.26-.01-.16-.04-.31-.26-.26-.01.16-.04.31-.26.26Zm-5.43.26c-1.04-.92-.61.84,0,0h0Zm-108.16,1.3c-.02-.45.06-.81.26-1.04-.36.01-.57-.12-.78-.26-.41.39-.38,1.49.52,1.3Zm6.21,3.39c-.86.47-.81,1.27-2.07.78-.12.72-.13.73-1.04,1.04-.76,4.21-4.26,9.16-1.81,14.07v2.6c2.82,1.41,5.01,3.46,7.76,4.95.04.39-.09.96.26,1.04.15-.97,1.12-1.13,1.55-1.82-1.29-1.4-3.48-1.88-2.85-5.21,1.54-.45,1.79-2.19,3.62-2.34.63-1.63,1.57-2.94,2.59-4.17-.21-1.4.11-2.75,0-4.69-.49-.29-.55-1.01-1.04-1.3-1.4.43-2.45,2.96-5.43,2.61-.64-.39-1.18-.89-1.29-1.82.22-.56.67-.89.52-1.82h.78c.13-3.44,3.33-4.63,3.62-8.6-2.78.5-5,1.57-5.17,4.69Zm88.24-3.39c.78.17.9,1,2.07.78.58-.47.61-1.32.26-2.08h-1.81c.22.83-.41.81-.52,1.3Zm14.75.78c.33.36,1.12.26,1.81.26.15-.62.37-1.19.26-2.08-1.2-.81-2.38.29-2.07,1.82Zm-65.21-.52c-.19.71.51.53.52,1.04,1.39,0,2.08-.69,2.07-2.09-.45-.27-2.67-.09-2.59,1.04Zm75.3,1.3c1.16.31,1.54.12,2.59-.52.03-.81-.32-1.24-.52-1.82-1.7-.24-2.36.58-2.07,2.35Zm-6.21-.52c.42-.42.31-1.64-.52-1.56,0,.69-.14,1.53.52,1.56Zm81,1.56c1.08.04,1.28-.8,2.33-.78.39-4.1-4.43-1.53-2.33.78Zm4.91.78c2.27.58,1.99,3.73,2.59,5.99-1.06.15-1.03,1.39-2.33,1.3-1.8-.36-.86-3.47-3.1-3.39-1.13,1.12-1.01,3.5-2.33,4.43.28,2.46-.38,6.37,1.03,8.34-.36,1.03-.75,2.03-1.29,2.87,2.34,2.24,5.25,0,7.24-1.04,1.22-1.12,1.58-3.1,3.37-3.65.71-2.72-.63-5.88.52-8.08-1.15-2.62-2.05-5.63-2.33-7.82-1.17-.74-1.6-2.21-3.11-2.61-.29,1.57.64,2.99-.26,3.65Zm-160.69-1.82v1.56c1.51,1.48,3.92-.75,2.85-2.61-.45.15-2.12.41-2.85,1.04Zm-38.82,0h.78v-.52h-.78v.52Zm93.67-.26c.3,1.03.3-1.03,0,0h0Zm-80.48,0c-.2.06-.51,0-.52.26.2-.06.51,0,.52-.26Zm74.01.78c.52-.99-1.17-1.03-1.29-.52.49.11.65.56,1.29.52Zm28.98-.26c.38.57-.03,1.94.78,2.08-.39-1.47.15-1.45.78-2.34-.53-.56-1.02.07-1.55.26Zm2.33-.26c-.2.06-.51,0-.52.26.2-.06.51,0,.52-.26Zm-105.84.78c-.22,1.54.15-1.04,0,0h0Zm97.56,0c-.22,1.54.15-1.04,0,0h0Zm32.35.52c.01-.45-.2-.67-.52-.78.03.41-.04.9.52.78Zm55.63-.26c.3,1.03.3-1.03,0,0h0Zm-149.57,21.1c.25-.95-1.16-.22-1.03-1.04-.89-4.41-3.07-9.02-1.04-13.55.68-.27.87-1.03,1.55-1.3.25-2.18,2.28-2.57,2.33-4.95-1.57-.72-2.37,1.38-4.14,1.3-.25.97-.6,1.83-1.81,1.82-.54,2.06-1.64,3.56-2.59,5.21-1.23,6.15,1.11,10.76,1.29,16.93.93,3.06,3.62,4.35,4.66,7.3.8.41,1.52.9,2.07,1.56.29.57.67,1.06.52,2.08.89.41,1.38,1.22,1.55,2.35,1.35.29,2.04,2.69,3.36,4.43.94,1.23,2.25,1.67,2.59,2.87.82,2.88-1.38,5.43-4.14,5.21-1.3-.11-1.67-1.36-3.11-1.82-.73-1.16-1.51-2.24-2.33-3.39-.73-1.02-1.46-2.88-3.1-2.87-2.03,3.35-1.59,9.08.78,11.72,1.47.86,2.97,1.7,3.88,3.13,1.3-.18,1.8.44,3.1.26.61.08.48.91,1.29.78,4.52.06,6.31,2.86,9.57,4.17,1.92,2.75,4.58,4.77,5.43,8.6,4.85,2.85,5.36,10.06,7.25,15.89-.67.02-.27,1.12-1.29.78-.71-1.11-1.18-2.46-1.29-4.17-2.03-1.09-3.04-3.2-4.92-4.43h-1.3c-.62-1.02-2.31-.97-2.59-2.34-3.88-.43-4.99-3.66-9.06-3.91-2.47-1.85-4.51-4.14-6.99-5.99-.38-1.18-.93-2.19-2.33-2.34-1.25,1.64-.31,3.41,0,5.47,1.43.96,2.34,2.55,3.62,3.65.8.68,2.44.83,2.33,2.34-2.63,1.12-5.21,1.36-8.54,1.3-2.21-.64-3.9-1.8-5.43-3.13-.2-1.8-1.95-2.03-2.33-3.65-.26-.87.57-2.83-.52-2.87-.81-.13-.19,1.19-.78,1.3,0,3.92,1.48,6.32,2.33,9.38,1.33.14,1.47,1.48,2.33,2.08.61.53-.35,1.03.26,1.56.8.19.32-.9,1.3-.52,1.28,2.5,6.83,2.69,9.83,1.82,1.36.86,2.27.57,4.4.52-.27.97.87.51,1.04,1.04.68,3.55-1.45,4.27-2.33,6.25,2.32,2.83,4.98-1.08,7.76-1.04.43-.35.55-1.01,1.55-.78.89-1.36,1.88-2.62,3.37-3.39,1.18-.11,2.19-.4,3.62-.26,1.28,1.02,2.54,1.85,3.37,3.39.36.68.01,1.8,1.04,2.08.14,1.86.67,3.32.52,5.47-.55,2.16-2.36,4.37-2.33,6.25,1.13,0,2.02-.23,2.85-.52.51-2.18,1.63-3.74,2.59-5.47-.2-2.2.46-3.54,1.55-4.43-.08-1.83,2.1-5.19.52-7.82.35-2.94-.91-4.5-.52-6.77-.58-.71-.94-1.66-1.29-2.61-.19-.8.45-.77.26-1.56-1.18-.72-1.15-2.66-1.55-4.17-1.17-1.08-1.37-3.14-2.33-4.43.04-1.78-.84-2.62-1.04-4.17-2.17-.94-3.27-2.96-2.84-6.51-1.66-1.46-2.88-3.36-4.4-4.95v-1.04c-2-1.2-3.6-2.8-3.62-5.99-.85-.18-1.35-.73-1.81-1.3v-1.3c-2.03-.83-2.15-3.57-3.88-4.69v-1.04c-3.53-2.79-5.2-7.45-8.54-10.42-.72-1.01-1.06-2.4-1.55-3.65.02-.16.04-.31.26-.26.11.33.33.53.78.52Zm-49.68-20.58c-.27,1.51,1.12.11,0,0h0Zm12.94.78c.3,1.03.3-1.03,0,0h0Zm100.4,2.87c2.09.56,2.58-2.14,1.55-3.13-2.12-.59-2.62,2.11-1.55,3.13Zm-18.12-1.04c.94,0,1.14-.77,1.04-1.82h-1.04c-.58.56.22.89,0,1.82Zm-69.35-.26c.08-.35.37-.5.26-1.04h-.78c-.07.59.06.98.52,1.04Zm74.01.26c.18-.7-.54-.5-.78-.78-.05.57.21.83.78.78Zm93.16,1.3c.81.12,1.15-.23,1.03-1.04h-1.03v1.04Zm-139.99.26c.41,1.06,1.19,1.76,1.03,3.39h1.04c.5-.49.08-.96,0-1.56.62-1.05,1.56-.47,2.07-1.3-.66-.37-1.37-.7-1.55-1.56-1.33-.13-2.22.2-2.59,1.04Zm-37.26.26c.75.38.75-1.17,0-.78v.78Zm101.18-.78c-.27,1.51,1.12.11,0,0h0Zm-26.65,2.08h1.04c.52-.65.12-2.05-1.04-1.82v1.82Zm29.24,0c.11-1.15-.43-1.65-1.3-1.82-.52,1.1.54,2.19,1.3,1.82Zm6.47,49.5c.44.1.49-.2.52-.52v-.26h-.26c1.48-1.47,2.66-3.23,3.62-5.21,2.54-.74,3.28-3.3,5.17-4.69.39.31.3,1.08,1.04,1.04-.2-3.68,2.15-6.33,4.66-8.08-.38-1.51.52-1.74.78-2.61-.22-2.31.79-3.38,2.07-4.17-1.11-.32.32-1,.51-1.56.47-1.35.49-3.4,1.04-4.69-.43-.43-.21-1.53-.26-2.34,2.72-3.75-.97-8.58-.78-11.72-1.86-2.21-2.88-5.26-6.21-5.99-.82,2.01,1.25,3.22,1.81,4.69.1,3.2,1.82,6.79,1.81,10.94-.6,1.23-.86,2.64-.52,4.17-.48.39-.39,1.35-1.29,1.3.11,2.19-1.16,3-1.81,4.43v1.82c-2.83,3.05-4.88,6.9-7.76,9.9-.97-.28-.74.65-1.55.52-2.41,3.05-5.58,5.32-7.5,8.86-.54-.11-.69.18-1.03.26-.57,2.73-2.03,4.56-3.88,5.99.35,2.78-1.42,3.43-1.29,5.99-1.58.67-.68,3.83-2.07,4.69.09,2.44-1.36,4.42-.78,6.51-.77,1.31-1.12,3.04-1.81,4.43-.31,1.08.18,2.96-.78,3.39.88,1.72-.24,4.06-.26,6.25-.01,1.68.87,3.46-.26,4.95,1.39,2.71-.13,7.6,1.81,10.16,1.08-.04,1.45.47,2.33,0,.07-.95.6-2.7.26-3.91,1.05-.77,1.57-2.06,1.55-3.91,1.34-1.08,3.04-1.8,5.69-1.56,1.01,1.33,2.97,1.7,3.88,3.13,2.57-.12,5.78,1.04,7.24,2.87.51-1.14,2.84-.44,3.11-1.82.02-1.06-.96-1.12-2.07-1.04-.25-1.42-1.37-1.42-2.33-1.56-.29-1.71-2.55-1.42-2.59-3.39-1.11.61-1.9-.23-2.07-1.3.34-.78.65-1.61,1.55-1.82,2.93.08,6.28.46,8.54-.78-.77-1.05-2.92-.7-3.36-2.08-.02-1.06.96-1.12,2.07-1.04,2.03-.91,3.4-2.48,5.43-3.39-.04-.3.06-.46.26-.52.02-2.51.38-4.34-.26-6.51-2.06.7-3.24,2.29-3.36,4.95-1.74,1.91-5.78.99-7.76,2.08.09-.52-.05-.82-.52-.78-.92.03.55.86-.26.78-2.28-.27-4.1.92-5.69.52-.87.77-2.24,1.05-3.88,1.04.18.98-.66.32-1.03.52-1.42.75-2.09,2.73-4.14,2.87-1.47-3.17,1.1-4.76.78-8.34.99-1,1.7-2.29,1.81-4.17.68-.53,1.35-1.07,1.29-2.34,1.18.06,1.18-1.07,1.55-1.82,1.07.67.3-.22.78-.78,2.09-.59,2.66-2.7,4.66-3.39,1.86.01,3.88-.38,6.21-.26,2.23-1.4,5.73-1.52,8.8-2.08,2.42-1.56,4.63-3.33,6.47-5.47.14-1.01-.46-1.27-.26-2.34-.1-.97,1.05-.68.78-1.82-.48-1.6-.36-3.8-2.33-3.91,0,2.88-1.12,6.62-5.43,5.99-1.64-1.55-5.24-3.55-8.02-1.56-.71,2.38.78,2.25,1.03,4.17-.56,1.34-1.82,1.99-3.88,1.83-.32-.76-1.07-.7-1.55-1.56-.6-1.07-.74-2.83-.26-4.17v.26h.26Zm-83.84-50.55c-.3.04-.73-.04-.78.26.3-.04.73.04.78-.26Zm47.09.78c.3,1.03.3-1.03,0,0h0Zm23.03,1.3c.42.04.52-1.7-.26-1.3-.33.34-.33.96,0,1.3h-.26v.26c-1.26.64-1.85-.17-3.1,0-1.87.25-3.43,1.85-5.18,1.82-1.89-.03-3.47-1.3-5.43-1.82-.84.63-1.81,1.13-2.33,2.08.28.67.53,1.5.78,2.34.71,2.45,1.46,3.39,3.62,4.43,5.54.6,9.5.29,12.42-3.13-.25-1.55.28-2.32.52-3.39.03-1.07-1.03-1.04-.78-2.34l.13-.13-.13-.13Zm78.67-.78c0-.26-.45-.33-.52,0,.06.31.29.16.52,0Zm-77.63,1.3h1.03v-.52h-1.03v.52Zm81.25.78c-.22-.74.36-.68.26-1.3-.93-.14-1.54,1.39-.26,1.3Zm-44.51.26c-.22,1.54.15-1.04,0,0h0Zm-93.93,3.13c.78.08.92.81,2.07.52.97-1.25-.78-2.25,0-3.39-1.13.65-1.88.14-2.59.26.9.13.38,1.7.52,2.61Zm-37,1.04c.85.26,2.51-1.39,1.81-3.13-3.13-2.03-4.08,2.43-1.81,3.13Zm169.75-2.87c.02-.41.66-.2.52-.78-.53-.23-1.16.68-.52.78Zm-53.31,1.3c.43-.4.11-1.21-.26-1.56-.45.34-.95,1.65.26,1.56Zm-42.18-.78c.3,1.03.3-1.03,0,0h0Zm-43.47.26c-.08.95.04,1.7.26,2.34,1.25-.31,2.08.05,2.59-1.3-.26-1.26-1.59-1.46-2.85-1.04Zm66.24,3.13h1.04c.37-.35.37-1.48,0-1.82-1.28-.15-1.48.94-1.04,1.82Zm76.08-1.56c-.22,1.54.15-1.04,0,0h0Zm-6.47,1.83c.92-.23,1.33.67,1.55-.26-.58-.11.04-1.43-.78-1.3-.36.42-.92.64-.78,1.56Zm-125.76-.52c.3,1.03.3-1.03,0,0h0Zm89.27,1.83h.78c.15-1.02-.22-1.51-.52-2.09h-1.04c.05.9-.09,2,.78,2.09Zm40.11,1.3c1.2-.45,2.97-.31,2.59-2.34-1.55-1.2-3.02.07-2.59,2.34Zm-165.35-1.3c-1.1.46-1.87,1.24-2.33,2.34.54,2.73,4.89,1.27,4.14-1.82-.67-.33-1.98-.94-1.29-1.82-.46.15-1.52-.32-1.55.26.3.39,1.08.31,1.03,1.04Zm160.18-.26c.49-.06.57.29,1.03.26.2-.89-.99-1.02-1.03-.26Zm-183.72.26c-.63.87.87-.63,0,0h0Zm17.34,2.6c1.66.11,2.84-.27,2.59-2.08-1.64-1.1-3.6.01-2.59,2.08Zm33.38-2.08c-.8.2-.32-.9-1.29-.52-.39,1.13,1.18,1.41,1.29.52Zm8.28,1.56c.2.06.51,0,.52.26.92.06,1.35-.37,1.29-1.3-.56-.22-.58-.98-1.29-1.04-.65.21-.54,1.19-.52,2.08Zm-20.19-.26h1.29v-1.56h-1.03c0,.61-.45.77-.26,1.56Zm14.75,2.6c.61-.08.97-.41,1.81-.26.32-1.68.05-2.37-.77-3.39-1.82-.76-1.96,2.49-1.04,3.65Zm37.78-2.34c.41-.03.9.04.77-.52h-.52c0,.26-.21.31-.26.52Zm43.99.78c-.11-.5-.09-1.12-.78-1.04-.38.36-.13,1.24.78,1.04Zm52.27,0h.52v-.52h-.52v.52Zm-77.11.52c-.29,1.25.81,1.1.52,2.34h2.07c.22-.73.84-1.07.78-2.08-.9-.8-2.19-.78-3.36-.26Zm-7.25,1.04c-2.27,3.07-.59,9.14-2.59,11.46.47-.03.61.26.52.78.03,3.86.94,5.79,2.59,8.34,1.28-.07.42-1.9,1.55-2.61-.81-6.51-1.17-11.39,0-17.72-.62-.16-1.18-.37-2.07-.26Zm81.77.52h.52v-.52h-.52v.52Zm15.27,53.67c-.33-4.11.59-10.54-1.29-13.81-.02-1.33-.11-2.72.52-3.39-.63-.24-.69-1.05-.78-1.82.32-1.5.69-2.96.52-4.95,2.41-2.34,1.71-7.12.26-9.9.18-1.75-.27-2.86-.26-4.43.08-.6-.75-.29-.78-.78v-1.3c-2.25-2.33-3.69-5.49-5.69-8.08-2.69-.77-3.7-3.22-6.73-3.65-.3-1.32-2.61-1.8-3.62-1.56-.36-.01-.57.12-.78.26.62,2.24,2.92,2.79,4.92,3.65,1,1.42,2.78,2.07,3.88,3.39,1.52,2.51.08,6.64-.26,9.64-1.27.73-1.92,2.07-2.59,3.39-.61,0-.76.45-1.55.26.11,1.26-1.37,1.95-.52,3.13,2.63.71,4.66-1.37,6.73-2.08,1.07-1.94,2.2-5.49,1.03-8.08.53-.34.47-1.26,1.55-1.04,2.63,2.04,1.75,7.62,3.36,10.68.27,1.14-.87.86-.78,1.82.19.42,1.27-.06,1.04.78-.38,3.7-2.67,5.47-3.11,9.12-2.63,1.87-5.88,3.11-8.28,5.21-1.12,2.85-1.6,7.2-1.81,10.16,1.64,2.17,1.68,5.95,3.36,8.08v1.82c1.2,1.75,2.45,3.44,3.36,5.47,2.7,1.1,4.32,3.3,7.76,3.65.69-1.41-.69-2.23-1.29-3.13.06-1.8-1.72-1.74-1.55-3.65-1.53.09-1.51-1.58-2.07-2.34-.73-.99-1.7-1.44-2.07-2.34-.56-1.37-.5-2.99-.52-4.95,1.73-1.3,3.09-.53,4.66-.52.17.7.74.99,1.03,1.56-.37.41-1.04.51-.78,1.56.88.19.43-.96,1.03-1.04.53.25.22,1.34,1.04,1.3.35-.69.41-1.67,1.03-2.08Zm-137.92-51.07c1.15.11,1.41-.67,1.29-1.83-.45.02-.8-.06-1.04-.26-.4.38-.23,1.33-.26,2.09Zm70.9,1.82c1.24-.94,2.83.08,3.88-1.04.06-1.27-.55-1.87-1.29-2.35-.52,1.48-2.74,1.23-2.59,3.39Zm65.99-3.39c-.2.06-.51,0-.52.26.2-.06.51,0,.52-.26Zm-143.1,1.3c-.17,1.47.24,2.37,1.04,2.87.18-.68,1.21-.51,1.55-1.04.08-.95-.04-1.7-.26-2.34-1.08-.13-1.75.14-2.33.52Zm-31.57,1.3c.83.37.65-1.56.26-1.56-.3.31-.29.92-.26,1.56Zm179.58-1.3c-.08.6.04,1,.26,1.3.8.03,1.24-.32,1.81-.52.14-1.07-1.4-1.33-2.07-.78Zm-186.05,2.08c.09-.52-.05-.82-.52-.78v1.04h.26c-1.22,1.38-3.2,1.99-5.43,2.34-.4,1.6-1.76,2.22-3.36,2.61-1.93,2.74-2.08,7.28-4.14,9.9.12,2.38-1.26,3.25-1.04,5.73.49.55.75,1.33,1.04,2.08-.22.65-.34,1.4-.26,2.34.34.7.69,1.38,1.04,2.08.46,4.92,3.1,7.65,5.43,10.68-2.51,3.23-5.59,6.9-5.69,11.72.87.94.92,2.72,1.29,4.17,1.42,1.35,2,3.55,3.88,4.43,1.42-1,.39-4.47,2.07-5.21,1.45-.21,2.19-.6,3.62-.26.07,1.06.74,1.52.78,2.61-.88,1.03-.9,2.91-1.04,4.69-1.44.81-1.89,3.4-3.88,2.87.04.65.05,1.26-.52,1.3-2.55.22-3.94-.72-5.69-1.3-.73-.9-1.27-2.83-2.85-2.08-.53,3.4,1.63,4.09,2.59,5.99,2.07.09,2.92.6,4.66.52.02-.41-.12-.99.26-1.04.5.37.74.99,1.55,1.04,1.17-.65,2.43-1.2,3.88-1.56,1.58-2.41,3.18-4.79,5.18-6.77.19-1.46.93-2.36,1.81-3.13-.05-1.01,0-1.92.26-2.6-.72-.75-1.51-1.43-1.29-3.13-3.03-1.37-2.24-6.6-4.92-8.34-.21-.49-.43-.95-.52-1.56-.69-.17-.98-.75-1.55-1.04.09-.34.46-.41.52-.78-.8.37-1.16.12-1.81-.26-.05-2.38-2.3-2.54-2.59-4.69-1.43-.81-2.53-1.97-3.11-3.65.42-2.26-.5-4.11.26-5.47-1.23.29-.58-1.33-1.29-1.56.33-5.09,1.44-9.27,3.62-13.03.22.76.83-.16,1.29,0,.76.82.27,1.56,0,2.6-.16,2.07.15,3.67.52,5.21,2.36,1.27,3.42,5.24,7.25,4.17-.59-.28-.1-1.64-.26-2.35-1.2-.53-1.96-1.5-2.85-2.34-.51-1.49-.91-3.08-1.55-4.43.76-1.33-.63-3.22,0-5.47,1.21-1.3,3.71-1.3,4.92-2.6,2.05-.02,3.65-.49,4.66-1.56,0-1.13.08-2.34-.26-3.13-2.45-1.03-3.38.02-6.21.26l.13-.13-.13-.13Zm130.93,1.82c1.76.38,1.45-2.44.26-2.6-.75.19-.66,2.07-.26,2.6Zm51.5-1.56c-.31.56-.28,1.46-.78,1.82h1.81c0-.87.84-.89.78-1.82-.82-.36-.86-.06-1.81,0Zm-89.79.52c.3.63,1.22-.29.52-.52,0,.34-.45.24-.52.52Zm-45.03.52h.52v-.52h-.52v.52Zm-62.36,1.56c1.1-.03,1.72-.7,1.29-1.56h-1.04c-.3.31-.29.92-.26,1.56Zm61.33.26c1.27-.5.69.87,1.55.78,1.07.34,1.6-2.2.52-2.34-.55.66-2.04.37-2.07,1.56Zm117.48,1.3c.21-.83.16-1.92.52-2.61-2.53-.93-2.75,2.95-.52,2.61Zm-71.94-.52c.15-1.11-.09-1.82-1.29-1.56-.11,1.06.26,1.64,1.29,1.56Zm-50.2,1.04c1.05.1,1.8-.09,1.81-1.04-.22-.56-.64-.92-1.55-.78.15.85-.18,1.21-.26,1.82Zm85.91-.78c.41,1.38.96,1.59.52,3.39,1.11.09.7-.95.52-1.56.73.22.67-.37,1.29-.26v-1.04c-.7.54-1.47.74-1.29-.78-.45-.02-.8.06-1.04.26Zm-75.56,3.13c.41-.54.5-2.43-.52-2.35.61.93.03,1.5.52,2.35Zm116.19,2.87c1.46-.9,1.29-4.26-.26-4.95-1.35.85-2.13,4.64.26,4.95Zm-58.74-3.65c-1.66.97.96,4.07,0,5.99.33.11.53.34.52.78,4.59-.15.09-4.55,1.03-6.51-.66-.46-1.05-1.2-2.07-1.3-.3.82.41.63.52,1.04Zm5.17-.26c.01-.45-.2-.67-.52-.78.02.41-.04.9.52.78Zm-24.06,2.61c.04-.82,0-1.57-.52-1.82-.38.41-.53,2.07.52,1.82Zm71.16-1.3c-.08,1.29.53,1.9,1.81,1.82.39-1.54-.69-2.63-1.81-1.82Zm-116.96,2.34c1.06-.23,1.7-.9,1.81-2.08-.49.06-.57-.29-1.04-.26-.41.62-.85,1.23-.77,2.34Zm-39.33-2.08c-.2.06-.51,0-.52.26.2-.06.51,0,.52-.26Zm-2.33,3.13c1.3.09,1.77-.65,2.07-1.56-.39-.82-1.26-1.16-2.33-1.3-.35.81-.45,2.4.26,2.87Zm109.46-2.34c.3,1.03.3-1.03,0,0h0Zm11.9,6.25c-.55,2.39-2.74,3.15-3.88,4.95h-1.04c-.87,2.17-3.28,2.78-3.62,5.47.55.57,1.25.99,2.59.78.35-.52.49-1.24.78-1.82,3.12-1.03,3.98-4.34,6.99-5.47.67-4.02,7.19-4.8,4.66-9.64-.45.02-.8-.06-1.04-.26-1.33,2.49-3.33,4.29-5.43,5.99Zm-10.61-4.69c.3,1.03.3-1.03,0,0h0Zm-8.02.78c.87.79.79-.96,0,0h0Zm80.22-.26c-.2.06-.51,0-.52.26.2-.06.51,0,.52-.26Zm-1.29,1.3c.3,1.03.3-1.03,0,0h0Zm-202.61,1.56c-.22,1.54.15-1.04,0,0h0Zm69.61.78c.07-.68-.09-1.12-.78-1.04-.07.68.1,1.12.78,1.04Zm134.82.52h1.04v-1.04c-.38.14-1.34-.3-1.29.26.3.04.28.41.26.78Zm-138.7.78c.8-.06.81-.92,1.04-1.56h-1.29c-.04.64-.04,1.25.26,1.56Zm6.21-.26c-.11-.49.35-1.57-.52-1.3-.04.65-.05,1.26.52,1.3Zm108.94-1.04c-1.17.58-1.52,2.35-.78,3.65,1.94.13,2.12-2.89,2.07-3.91.05,1.08-.89.06-1.29.26Zm-143.1,2.08c1.02.44,1.76,1.06,3.11.52.06-1.1-.76-1.32-1.04-2.08-1.33-.13-2.06.36-2.07,1.56Zm-17.6,1.3c2.08.43,2.47-1.79,1.29-2.61-1.11.11-2.09,1.41-1.29,2.61Zm43.21-1.56c.08-.35.37-.5.26-1.04h-.78c-.07.59.06.98.52,1.04Zm64.69-1.04c-.2.06-.51,0-.52.26.2-.06.51,0,.52-.26Zm-56.15,2.61c-.03-.64-.04-1.25.26-1.56-.83-.53-.91-.3-1.81-.52-.92,1.25.55,1.94,1.55,2.08Zm-31.57,3.91c1.82-.14,0-1.39,1.29-2.35-.23-.2-.58-.28-1.04-.26v1.56c-.68-.08-.85.36-.78,1.04l-.13.13.13.13c-1.44.07-2-.51-2.59.52.02,1.54.47,2.65,2.07,2.61.97-.41,1.11-1.66,1.29-2.87-.3.04-.46-.06-.52-.26h.26v-.26Zm139.73-.52c-.38-.13-.65-.39-1.03-.52-.27.66.87,1.15,1.03.52Zm-34.67,0c-.29.03-.4-.38-.52,0,0,.26.45.33.52,0Zm2.85,2.87c.73-.57,1.5-1.09,1.29-2.61-.49-.11-.47-.75-1.29-.52-.47.49-1.01,2.76,0,3.13Zm44.77-.52h1.81c.31-.65.37-1.53.52-2.34-1.78-.23-2.56.55-2.33,2.34Zm11.13-1.04c1.07.21,1.33-.4,1.29-1.3h-1.29c.15.83-.48.81,0,1.3Zm-130.93,1.56c.29.05.4.29.52.52,1.03.26.78-.78,1.81-.52v-1.82c-1.06-1-2.3.29-2.33,1.82Zm104.8-1.82h.52v-.52h-.52v.52Zm-31.57,1.82c.04-.89-1.32-2.01-1.55-1.04.66.2,1.25.47,1.55,1.04Zm-69.61,0c.18-.19.64-1.28-.26-1.04-.03.65-.49.82.26,1.04Zm103.77,0c1.08-.14,1.03.88,1.29,1.56.98.24,1.62-2.18.52-2.34.1.97-1.62.11-1.81.78Zm22.77,2.34c.87-.08.73-1.18.78-2.08-.53-.08-.69-.52-1.03-.78.43,1.59.11,1.77.26,2.87Zm-192.52-1.82c-.15,1.28.33,1.92,1.29,2.08.6-.52,1.47-.78,1.29-2.08-.53-.78-1.58-.15-2.59,0Zm66.24,1.56c-.04-.83.25-1.99-.78-1.82-.45.53-.49,2.22.78,1.82Zm111.01,2.35c-.07.6-.69.6-1.04.26-.08.6.04,1,.26,1.3.79-.16,1.02-.89,1.81-1.04-.53-.07-.52-.7-.78-1.04.96-.17.79-1.46.78-2.6-1.13.27-.85-.88-1.81-.78-.72,1.06-.9,3.81.78,3.91Zm-187.35-2.87c.5.9.88,2.23-.26,2.08.38.14.65.39,1.03.52.61-.52.27-1.98,1.04-2.34-.62-.65-.69-.25-1.81-.26Zm74.78,2.08c1.09.21.88-1.4,0-1.3v1.3Zm-52.53-.26c.02-.45-.2-.67-.52-.78.03.41-.03.9.52.78Zm-9.83.26h.52v-.52h-.52v.52Zm169.23.26c.02-.16.04-.31.26-.26-.03-.32-.08-.62-.52-.52.04.31-.04.74.26.78Zm2.59.78c.03-.34.04-1.89-.26-1.04-.03.34-.04,1.89.26,1.04Zm-37.52,2.34c.79-.19.94.27,1.55.26.6-1.15.91-3.1-.78-3.65-1.17.22-.68,2.09-.78,3.39Zm-136.37-2.87c-.63.87.87-.63,0,0h0Zm6.73.78c-.1,1.66.82,2.3,1.55,3.13,1.56.38,2.01-1.1,2.85,0-.73-1.02-.36-1.71.26-2.6-.86-1.92-3.15-1.66-4.66-.52Zm57.71.26c.76.19.99.91,2.07.78-.06-.49.29-.58.26-1.04-.66-1-2.11-1.45-2.33.26Zm-74.78.26c.33.36,1.55.45,1.55-.26-.43,0-.15-.72-.52-.78-.03.67-1.01.37-1.04,1.04Zm42.44-.52h.52v-.52h-.52v.52Zm-30.02,1.82c.81.12.83-.56.78-1.3h-.78v1.3Zm67.28-1.3c-.2.06-.51,0-.52.26.2-.06.51,0,.52-.26Zm-42.18.78c-.45.74-.85,2.27,0,2.87,1.28-.24,1.54-.49,2.59-.52.33-.47,1.3-1.62.52-2.34-.89-.03-1.5-.64-3.11,0Zm76.85,1.56c-.67-.36-.74-1.34-1.29-1.82v1.56c.33.05,1.27.76,1.29.26Zm-91.34-1.04c-.2.06-.51,0-.52.26.2-.06.51,0,.52-.26Zm123.95,1.56c.16.01.31.04.26.26h.52c-.01-.36.12-.57.26-.78-.59-.07-.97.06-1.04.52Zm2.59.26v-.52c-.48-.87-1.26.78,0,.52Zm-136.11,2.34c.18.78,1.03.87,2.07.78.23-.64.6-1.13.52-2.08-1.22-.38-2.61-.24-2.59,1.3Zm166.65-.78c-.2.06-.51,0-.52.26.2-.06.51,0,.52-.26Zm-55.12.52c.3,1.03.3-1.03,0,0h0Zm-81.77,1.56c.06.37.43.44.52.78,1.59.12,1.89-1.05,2.33-2.09-.91-.42-2.64-.26-2.85,1.3Zm104.02,1.82c1.68-.48.63-1.99.52-3.39h-1.29c.03,1.33-.65,2.98.77,3.39Zm56.15-1.3c.68-.18,1.16-.57,1.04-1.56h-1.29c-.03.64-.04,1.26.26,1.56Zm-163.8,0v-.52c-.48-.87-1.26.78,0,.52Zm1.04.52c1.02.32,1.39-.91.52-1.04-.13.38-.38.66-.52,1.04Zm-22.51,1.3c.82-.13.91.47,1.81.26.36-.34.26-1.13.26-1.82-1.31-.1-2.43-.01-2.07,1.56Zm160.95-1.04h.52v-.52h-.52v.52Zm-141.54,1.3c1.2.01.94,1.48,2.33,1.3.04-.92.74-1.17.78-2.08-.61-.52-1.65-.6-2.85-.52.08.6-.04,1-.26,1.3Zm4.92,2.08c.75.38.75-1.16,0-.78v.78Zm-39.33.52h.52c.01-.33.33-.36.26-.78h-.78v.78Zm51.75.78c.96.18,1.14-.41,1.04-1.3h-1.04v1.3Zm86.69,1.04c.96-.18,1.11.45,2.07.26,1.52-2.4-2.55-3.21-2.07-.26Zm-83.32,0c.14-.6-.42-1.8-.78-1.04.53.07.24.97.78,1.04Zm-57.45-.26c.55.81,2.34.68,2.07-.78-.57.38-1.93-.03-2.07.78Zm35.45,0c0-.26-.45-.33-.52,0,.05.32.29.16.52,0Zm109.72,0c0-.26-.45-.33-.52,0,.05.32.29.16.52,0Zm-105.83,1.04c.21.74.58,1.32,1.29,1.56.8.19.5-.72,1.3-.52.15-.85-.18-1.21-.26-1.82-1.28-.24-1.76.32-2.33.78Zm140.51-.52c-.3.04-.73-.04-.78.26.3-.04.73.04.78-.26Zm-119.29,1.3c-.21.74.37.67.26,1.3h1.29c.3-1.24-.7-2.03-1.55-1.3Zm84.36.78c.84-.15,1.2.18,1.81.26v-1.3c-1.08-.13-1.59.31-1.81,1.04Zm-88.24.52c-.08-.35-.37-.5-.26-1.04-.49-.06-.57.29-1.04.26-.12.81.65.93,1.04.52-.14.54,1.01.55.26.26Zm65.72-.52v2.08c1.52.14,2.63-.13,2.59-1.56-.24-1.31-1.63-1-2.59-.52Zm6.73,2.34c1.62.42,1.36-1.07,2.85-.78.07-2.79-4.11-1.64-2.85.78Zm10.35-.78c-.16-.79-.58-1.33-1.55-1.3-.12.81.65.93,1.04.52.02.41-.04.9.52.78Zm-60.29.26c.33.01.36.33.78.26.01-.45-.2-.67-.52-.78,0,.26-.21.31-.26.52Zm61.07,1.82c.31.3.92.29,1.55.26.23-.82.78-1.14.26-2.08-1.04.17-1.87.55-1.81,1.82Zm-100.14-.26c.22-.3.34-.7.26-1.3-.95-.25-1.03,1.28-.26,1.3Zm3.1.78c.71-.22,1.37-1.35,1.04-1.82h-1.55c.19.59.23,1.33.52,1.82Zm106.87-1.56c-.29.03-.4-.38-.52,0,0,.26.45.33.52,0Zm-70.38,2.08c.01.16.04.31.26.26-.08-.81.75.66.78-.26-.52,0-.33-.71-1.04-.52v.52Zm39.33,3.13c.78-.72,2.5-1.2,1.55-2.87-2.14-.61-2.52,1.87-1.55,2.87Zm6.47-2.61c-.22.83.41.81.52,1.3.83-.03,1.14-.59,1.03-1.56-.79-.19-.76.45-1.55.26Zm6.47,1.3c.3-.31.29-.92.26-1.56h-1.3c-.1.97.21,1.53,1.04,1.56Zm11.64-.52c-.09,1.31.73,1.69,1.55,2.09.31-.55.97-.76,1.03-1.56-.61-1.41-1.17-.7-2.59-.52Zm40.89,1.56c-.05-.82-.18-1.55-1.04-1.56-.48.56-.04,1.77,1.04,1.56Zm-104.28-.52c.04-.31.46-.59,0-.78-.04.31-.46.59,0,.78Zm115.15-.26c.45.01.66-.2.78-.52-.44-.01-.66.2-.78.52Zm-13.97.26c.34.34.96.34,1.04-.26-.65-.03-.81-.5-1.04.26Zm-179.84,1.56c.1-.97.04-1.78-.77-1.82-.75.5-.55,1.99.77,1.82Zm30.54-1.56c.87.79.79-.96,0,0h0Zm54.86,1.56c.56-.54-.13-.74,0-1.56h-.78c-.14.92.22,1.34.78,1.56Zm-3.62,0c0-.26-.45-.33-.52,0,.06.31.29.16.52,0Zm3.36.78c-.2.06-.51,0-.52.26.2-.06.51,0,.52-.26Zm-76.08,1.04c-.02.41-.66.2-.52.78,1.58.64,1.08-2.37.26-1.3.2.06.3.22.26.52Zm71.68,0c-.37,1.58.97,1.46,1.55,2.08-.08.32.04,1.61.26.78.07-1.96,1.12-1.73.52-3.39-1.08-.13-1.75.15-2.33.52Zm-78.92,1.04c-.01-.36.12-.57.26-.78-.35-.08-.49-.37-1.04-.26-.05.65.4.82.78,1.04Zm32.86.26c-.63.88.87-.63,0,0h0Zm165.35,1.56c.63-.15,1.33-.22,1.29-1.04-.45-.33-.68-.88-1.55-.78-.34.78-.27,1.32.26,1.82Zm-163.54.78h.78c.05-.57-.21-.83-.78-.78v.78Zm65.73,0c-.08.69.36.86,1.03.78v-1.04c-.45-.02-.81.06-1.03.26Zm2.59,0c.3,1.03.3-1.03,0,0h0Zm-4.66,2.09c1.12.09,1.36-.72,1.55-1.56h-1.55c.13.82-.56,1.02,0,1.56Zm84.36-1.04c.3,1.03.3-1.03,0,0h0Zm-98.59,4.17c-.16-.45-1.23.02-1.29-.52.4-.81,1.19-1.23,1.55-2.08v-.52c-.61-.26-1.27-.46-2.07-.52-.05.29-.29.4-.52.52.02,1.68,1.32,4.88,2.33,3.13Zm-46.06-1.04c-.22.83.41.81.52,1.3,1.68.26,2.15-1.35,1.55-2.61-1.2-.08-1.7.54-2.07,1.3Zm5.43,1.82c.81-.12.68.7,1.29.78.43-.61,1.44-.63,1.29-1.82-.45-.68-.93-1.32-2.07-1.3-.09.87-.75,1.16-.52,2.34Zm40.89,0c.3,1.03.3-1.03,0,0h0Zm12.68.78c-.22,1.54.15-1.04,0,0h0Zm-32.6,0c-.39.04-.95-.09-1.04.26.34.34.96.34,1.04-.26Zm-69.09.78c.3.64,1.22-.29.52-.52,0,.34-.45.24-.52.52Zm92.12,3.39c.84-.76,1.06-3.08,0-3.91-.98.98-2.56,3.6,0,3.91Zm9.83-1.82c.3.22.7.34,1.3.26-.49-1.28.49-2.2-.26-2.35-.12.93-.87,1.21-1.04,2.09Zm25.88-1.56c.3.33,1.08.21,1.04-.52-.59-.07-.97.06-1.04.52Zm72.46.78c.01-.45-.2-.67-.52-.78.02.41-.03.9.52.78Zm-71.16,0c.4,1.97,2.89,1.1,4.4.78-.12-2.15-2.94-.96-4.4-.78Zm-121.36,1.3c.45.01.66-.2.78-.52-.45-.02-.66.2-.78.52Zm62.62.26c0-.26-.45-.33-.52,0,.29-.03.4.38.52,0Zm12.42.52c.09,1.48.67,2.45,2.33,2.34.06-.2.22-.3.52-.26.16-.62.37-1.19.26-2.08-.35-.77-2.9-1.39-3.11,0Zm79.7.26c.3,1.03.3-1.03,0,0h0Zm-91.86.78c.75.38.75-1.16,0-.78v.78Zm67.8-.52c.3,1.03.3-1.03,0,0h0Zm63.66.78c.07-.59-.06-.98-.52-1.04-.48.46.07.81.52,1.04Zm-27.17,1.82c.04-.3.41-.28.77-.26.19-.98-.29-1.27-1.03-1.3-.36.33-.45,1.56.26,1.56Zm-109.2-1.3c-.2.06-.51,0-.52.26.2-.06.51,0,.52-.26Zm31.31,1.82c.46.88,1.87.21,2.33.52.32-.63.64-1.27.78-2.08-1.25-.48-3.7-.61-3.1,1.56Zm85.91-1.04c-.52-1-3.31-1.33-2.85.78.68-.22,1.42.79,1.81,0-.54-.08.27-.9.78-.78,0,.14.21.3.26,0Zm4.92.26c.36.39,1.25.82,1.81.26.13-1.73-1.53-1.34-1.81-.26Zm-45.28,1.04c.99-.23.57-2.11-.78-1.56.13.65,0,1.57.78,1.56Zm18.37.52c.49.11.65.56,1.29.52.46-.66,1.28-.97,1.04-2.34-.38-.4-1.33-.23-2.07-.26.06.84-.46,1.1-.26,2.08Zm-13.72-1.56v1.3c.87.41,1.77-.16,1.55-1.56-.64-.03-1.25-.04-1.55.26Zm56.15.78c0-.52.71-.33.52-1.04-.65-.27-1.15.88-.52,1.04Zm-138.44-.78c-1.94-.31-.83.8,0,0h0Zm103.76,1.3c.72.42.72-1.13.26-1.04-.08.35-.37.5-.26,1.04Zm-164.32.26c.01-.45-.2-.67-.52-.78.02.41-.04.9.52.78Zm1.03-.52c-.2.06-.51,0-.52.26.2-.06.51,0,.52-.26Zm110.75.26c-1.05-.92-.61.84,0,0h0Zm69.35-.26c-.3.04-.73-.04-.78.26.31-.04.73.04.78-.26Zm-93.42,2.61c.62.11.56-.48,1.29-.26-.15-.85.18-1.21.26-1.83-.82.13-.91-.47-1.81-.26-.52.6-.26,2,.26,2.34Zm-89.28-1.04v-1.04c-.39.04-.95-.09-1.03.26.5.11.02,1.19,1.03.78Zm161.99.26c.95.56,1.17-1.33.26-1.04.06.49-.29.58-.26,1.04Zm-79.18,0c.08.61.41.98.26,1.82,1.07-.07,1.01.34,1.81,0,.28-.72.51-2.25-.26-2.61-.56.31-1.19.54-1.81.78Zm-79.18,0h.52c.4-.64-.88-.77-.78-.26.16.02.31.04.26.26Zm111.79,1.56c0-.61.44-.77.26-1.56-.8.19-.5-.71-1.3-.52-.08,1.12-.02,2.1,1.04,2.09Zm-59-1.3h.78v-.52h-.78v.52Zm108.94,1.3c.65.04.81-.4,1.03-.78-.6-.18-.69-.87-1.29-1.04-.13.82.46.92.26,1.83Zm35.71.78c-.01-.45.2-.67.52-.78-.24-.89-.8-1.46-1.55-1.83.4.81.25,2.18,1.03,2.61Zm-101.7-1.3c1,.3,2.27,1.41,3.11,1.04-.49-.55-.9-1.18-1.04-2.09h-1.81c.02.45-.06.81-.26,1.04Zm48.39-1.04c-.56.75-1.29,1.31-1.04,2.87.69.43,1.45.8,2.33,1.04,1.15-1.38.02-3.45-1.29-3.91Zm-136.89,3.65c1.57.95,4.62-.12,3.88-3.13h-1.04c.37,2.36-2.45,1.53-2.85,3.13Zm130.68-1.04c.53-.08.51-.71,1.03-.78-.26-2.84-3.79.09-1.03.78Zm-63.14-1.04h.78v-.78h-.78v.78Zm82.81-.52c.3,1.03.3-1.03,0,0h0Zm2.07,1.82c-.19-.8.71-.5.52-1.3-.54-.15-.84-.55-1.29-.78-.71.85.02,1.91.78,2.08Zm-161.73-1.56c.3,1.03.3-1.03,0,0h0Zm94.71,1.56c.03-.81-.32-1.25-.52-1.82h-.78c-.28.47-.07,2.19,1.29,1.82Zm-92.38-1.04c.3.63,1.22-.29.52-.52,0,.34-.45.24-.52.52Zm53.57-.26c0-.26-.46-.33-.52,0,.29-.03.4.38.52,0Zm94.71,1.04c.73-.05,1.1-.45,1.03-1.3h-1.03v1.3Zm30.02-.78h.52v-.52h-.52v.52Zm-165.35.52c.01-.45-.2-.67-.52-.78.02.41-.04.9.52.78Zm6.47-.26c.01,1.29.25,2.35.78,3.13.23-.77.39.61,1.04.26.07-1.03.43-1.8.52-3.39-1.14-.36-1.39-.15-2.33,0Zm35.97,0c-.03.64-.04,1.25.26,1.56h1.03c.12-.54.38-1.67-.52-1.82-.04.3-.41.28-.78.26Zm-31.83,0c-.2.06-.51,0-.52.26.2-.06.51,0,.52-.26Zm10.87.26c.09.69.68.88,1.29,1.04.15-.96-.7-1.61-1.29-1.04Zm86.69.78v-1.04h-1.29c.05.73.45,1.11,1.29,1.04Zm29.24,0c1.22-.01.23,2.2,1.29,2.34-.52-.94.03-1.26.26-2.08-.32-.54-.75-.98-1.29-1.3-.08.35-.37.5-.26,1.04Zm-117.74-.52c.62,1.34.67-.9,0,0h0Zm16.04,0c0,.79-.15,1.71.78,1.56.56-.22.42-1.14.77-1.56-.89.21-1.09-.49-1.55,0Zm9.57.26c.79.71-.71-.79,0,0h0Zm126.28,1.56c.1-.68.77-.79.78-1.56-.78-.16-1.47,1.1-.78,1.56Zm-168.72-.52c.01-.16.04-.31.26-.26-.03-.32-.08-.62-.52-.52.04.31-.05.74.26.78Zm25.62-.52v.52c.64.41.76-.88.26-.78-.01.16-.04.31-.26.26Zm70.9,0c-.23-.2-.74.16-.77.26-.37.99,1.29.19.77-.26Zm73.23,1.82c.21-.33,1.57-1.62.26-1.82.12.67-.91,1.48-.26,1.82Zm-24.58-1.3c-.33-.01-.36-.33-.78-.26-.4.64.88.77.78.26Zm-153.45,1.82c.08-.16.64-1,0-1.04-.08.16-.64,1,0,1.04Zm2.59.26c-.34-.65.76-1.08,0-1.3-.15.16-.61,1.24,0,1.3Zm-10.09.26c0-.26-.45-.33-.52,0,.29-.03.4.38.52,0Z"/>
  <path class="cls-7" d="m.57,112.34c-.38-1.82.75-5.44.52-8.08-.08-.85-.53-1.5-.52-2.35.01-1,.41-1.88.52-2.87.13-1.23-.7-4.4,0-5.47.14-.21.47.13.52-.26.07-.51-.34-1.06-.26-1.56.17-1.11.71-2.08.78-3.13.1-1.53-.46-3.15-.52-4.69-.03-.86.25-1.7.26-2.61.03-2.49-.61-5.11-.52-7.82.05-1.38.51-2.76.52-4.17,0-2.73-.78-5.6-.78-8.34,0-2,.66-3.99.78-5.99.23-3.87-.65-8.15-.52-12.25.1-3.19.96-6.33.78-9.12-.15-2.2-.84-4.72-.78-7.56.09-4.33,2.42-9.21,0-13.03.84-2.61-.84-8.22,1.29-10.68,2.22-1,5.48.53,7.25-1.04,7.73,1.88,17.12-1.56,24.07.26,7.68.09,13.64-.73,20.44,1.04,4.16-1.33,8.6-.65,13.2-.78,2.53-.07,4.84-.82,6.99-.52.6.08,1.01.5,1.29.52,1.57.08,3.3-.52,4.92-.52,1.64,0,3.15.59,4.66.52,2.75-.13,5.37-1.13,8.02-1.04.88.03,1.77.44,2.59.52,2.68.26,5.52.1,8.28.26,2.33.14,4.76.8,6.99.78,4.18-.04,8.42-1.71,12.42,0,2.71-.6,5.54.23,8.54.26,4.49.05,8.98-1.2,13.2,0,3.73-.76,8.55-.26,13.2-.26,2.9,0,5.92-.52,8.8-.52,11,0,21.88-.02,32.09-.26,3.33-.08,5.63-1.51,9.57-1.56,2.1-.03,4.44-.09,6.47,0,.65.03.98.39,1.81.52,4.01.63,7.33,1.18,8.8,4.43.3,2.15.68,4.13.52,6.25-.89,11.6-1.42,22.15-.26,34.65.07.76-.49.9-.77,1.3.37,1.05.72,1.88.77,2.61-.38,2.09-.87,4.23-.77,6.25.06,1.27.75,2.49.77,3.91.02,1.06-.58,2.12-.52,3.13.06.96.49,1.68.52,2.61.04,1.19-.59,2.6-.52,3.91.03.61.53,1.26.52,1.82-.05,2.7-1.04,5.68-1.03,8.6,0,2.27.77,4.5-.52,6.25.73,1.18.59,3.22,1.29,4.43-.95,4.69.77,10.99-1.29,14.85.25,1.75.94,4.43.26,6.25,1.8,2.47.75,7.87,0,11.72,1.01.29.66,1.95,1.29,2.6-1.02,2.19-.43,3.85-.77,6.25-.2.89,1.05.33.77,1.3.78,7.63-.86,13.04-.52,20.84.37,1.33-.79,1.11-1.03,1.83,1.05,1.2.49,4.02,1.29,5.47-1.58,7.13.15,13.83-.26,21.1-.03.56.1,3.11-1.03,3.13.08.79,1,.73,1.03,1.56-.96,5.26.36,11.56.52,17.72.06,2.47-.59,4.84-.77,7.3-.29,3.78-.39,7.52-1.29,10.68-3.26,4.26-9.86,1.34-15.01,2.08-.68.07-1.3.09-1.03-.78-2.28,1.47-4.64.32-6.99.26-1.64-.04-3.27.53-4.92.52-2.07-.01-3.95-.2-6.21-.26-.69-.02-1.41-.52-2.07-.52-.4,0-1.02.47-1.55.52-1.55.14-5.96-.15-9.06,0-1.09.05-2.03.52-3.11.52-1.83,0-3.8-.48-5.69-.78-.88.24-1.9.35-2.85.52-1.48-.76-3.77.36-4.66-1.3-3.1,1.45-9.73,1.64-13.46.78-.5.54-2.17-.1-2.33.78-1.4-1.02-4.74-.09-6.21-1.04-9.01,1.28-16.56-.29-24.58,1.3-.64-.58-1.6-.48-2.85-.52-2.06-.07-5.06-.33-6.99-.26-1.33.05-2.5.64-3.88.78-2.33.25-5.4-.21-8.28-.52-5.97-.64-16.32.31-24.84,0-3.77,1.7-8.19-.15-12.68-.26-4.62-.12-9.29.66-13.71.52-1.05.36-.92-.47-1.29-.78-1.01,1.28-2.46,1.01-3.62,0-.29,1.36-2.3.99-3.1,1.83-1.37-.13-2.46.18-3.62,0-.62-.09-.87-.56-1.55-.78-.56-.18-1.27-.09-1.81-.26-1.09-.33-2.29-1.01-3.36-1.04-1.5-.04-3,.85-4.66,1.04-.7.08-1.7-.02-2.59,0-.34,0-.85-.33-1.29-.26-.59.1-.45.58-1.04.52-.97-.1-1.7-.87-2.85-.78-3.29.49-6.51,1.73-9.83.78-.54-3.69-.98-7.69-.78-11.46.09-1.56.32-2.34.26-3.91-.07-1.9-.4-4.91-.26-6.77.02-.29.46-.69.52-1.04.25-1.47.15-2.73,1.04-3.91-.09-1.83-.03-3.5.52-4.69-.31-1.16-.47-2.48-.78-3.65.83-3.01.32-8.3,0-11.72-.23-2.46.25-4.74.26-7.29,0-2.14-.6-4.39-.52-6.51.04-.97.5-1.69.52-2.61.06-3.17.19-6.69,0-9.64-.05-.83-.48-1.73-.52-2.61-.14-3.15.13-6.4.52-9.38-1.43-7.27.89-15.95-1.04-22.67.27-1.74-.12-3.03,0-5.21h.26v-.26c.21.05.26.26.52.26-.06-.46.26-1.3-.52-1.04v.26h-.26v.26ZM6.01,25.32c.83,2.47.21,5.1,0,8.34-.5,7.54-.59,17.48-.26,26.58-.67,4.66.49,12.37-1.55,16.93.11.85,1.15.75,1.04,1.82-.29,5.62-.35,10.27-.78,15.37-.34.26-.78.43-1.03.78-.2.06-.3.22-.26.52.84.85.18-1.14,1.29-.78.72,8.21-.4,15.53,0,23.71.28,5.62.47,11.38.26,16.67-.37,9.16-.45,17.61-.26,26.31.11,4.79.24,9.59.26,14.33.02,6.92-.01,14.34-.52,20.58.2.58.54,1.02.52,1.82-.08,3.22.24,6.84-1.04,8.86,1.22.99.29,2.56,1.04,3.91-.75,2.52.64,5.32,0,7.82,4.29,2.43,12.03,1.34,16.56,2.87.62-.41,1.45-.62,2.33-.78,2.19.74,4.33-.02,6.47,0,.36,0,.95.5,1.29.52,1.54.09,3.17-.52,4.66-.52,3.87,0,7.75,1.06,11.13,0,2.41.15,6.78.74,9.06.26.7.25.97.94,1.55,1.3.14-.67-.03-1.12,1.04-1.3,2.39.16,2.97.08,5.69,0,.43.43,1.89-.16,1.81.78,2.19-1.55,8.35-1.02,12.42-.26,2.13-1.38,5.12-.28,7.76-1.04.86,0,.88.85,1.81.78,2.82-1.11,6.29-.53,9.58-.78,3.21-.25,6.61-.05,9.58-.52,2.87.58,6.62,1.06,9.31.26,6.51.5,13.26-.39,18.63.26.52.06.84.52,1.04.52.5,0,.67-.43,1.29-.52,1.12-.16,3.31-.05,4.66,0,3.36.13,6.19-.39,8.02,1.04,2.56-.98,6.58-1.13,9.31-.52-.15.54-.64.74-.52,1.56,1.13.18.42-1.49,1.04-1.82,1.55-.37,1.93.72,2.85.26,4.22-.68,8.86-.48,13.71-.52,2.17-.02,4.46-.3,6.47-.26.37,0,.44.47.78.52,1.97.29,4.47-.18,5.95-.26,6.65-.36,16.82-.9,24.33-.26,1.36-1.32,4.42-.94,5.95-2.09.05-1.62.02-3.14-.52-4.17,1.28-7.06.13-15.99,1.55-23.45-.67-5.03-.8-12.73-.26-18.24.01-.43-.41-.87-.52-1.83.23-6.67,1.18-12.59-.26-17.98.6-7.19.65-14.57.52-22.67,1.45-5.77.24-10.3.52-16.93-.12-.98.51-1.22.77-1.82-1.05-.4-.7-1.11-.77-2.08-.17-2.23.6-4.72.52-7.04-.15-4.34-1.44-8.7,0-12.51-1.05-1.11-.4-4.17,0-5.47-.81-1.83-.17-3.69,0-5.47.24-2.54.54-5.55.26-8.08-.23-2.09-1.17-4.43.52-5.73-.35-2.31-.82-5.07-.78-7.82.08-4.49.08-9.36.78-13.55-1.02-2.37.13-5.04,0-7.82-.08-1.71-.77-3.4-.78-5.21,0-1.59.53-3.31.52-4.95,0-2.14-.06-4.15,0-6.25.07-2.43-.62-4.13-.77-5.99-.17-2.09.46-3.79.26-5.73-.47-.39-.61-1.12-1.03-1.56-1.77-.38-3.58-.74-4.92-1.56-1.18.2-1.9.86-3.1,1.04-1.19.15-1.99-.08-2.59-.52-.46.23-.66.73-1.55.52-1.14-.52-2.28.19-3.11.26-.4.03-.89-.28-1.29-.26-2.31.12-5.09,1.01-7.51,1.04-2.42.03-5.27-1.56-7.25-.26-4.59-.67-9.7,1.28-13.45-.52-.21.57-.52,1.04-1.29,1.04-.76-.35-1.6-.33-2.07.26-1.34-1.36-3.9.12-5.43-1.04-2.69.19-5.72.75-8.8.78-3.52.04-7.18.24-9.83-.78-.36,1.06-2.26.32-3.1.26-6.71,1.12-13.55.28-19.41.52-8.91.37-18.86-1.07-27.95.26-2.52-.79-6.29-.65-9.32-1.56-.88-.1-.41,1.15-1.55.78-2.06-.46-2.43.19-4.14.52-4.89-.85-9.44-.29-13.97-.52-.66-.03-1.36-.31-2.07-.26-1.64.11-1.77.63-3.36.78-2.1.2-4.83.2-6.73-1.04-.88,1.07-2.31.38-3.62.52-1.28.14-2.48.68-3.88.52-.67-.08-1.36-.46-2.07-.52-5.28-.47-10,.63-13.45-.26-1.19-.24-1.25.65-2.33.52-2.71-.26-4.86.54-6.47-.78-1.18,1.09-1.98-.23-3.88.52-1.03.17-1.04-.69-2.07-.52-1.89,1.76-6.01.03-8.54.78-.96-.5.06-3.02-1.55-2.87.6,2.29-2.05,3.32-2.33,5.47-.11.84.4,1.43.52,2.34.35,2.68-.5,5.77-.52,8.34-.13.74-1.35.38-1.04,1.56-.03.9.89.84,1.04,1.56.21,1.25-1.13.94-.78,2.34ZM172.91,5c.01-.45-.2-.67-.52-.78-.37.38-.38,1.01.52.78Zm50.72,1.3h.52v-1.04h-.52v1.04ZM6.52,7.08c.76.38.76-1.17,0-.78v.78Zm218.92,12.51c-.2.06-.51,0-.52.26.2-.06.51,0,.52-.26Zm-1.81,16.15c.01-.45-.2-.67-.52-.78-.01.45.2.67.52.78ZM2.9,67.79c-.2.06-.51,0-.52.26.2-.06.51,0,.52-.26Zm219.69,79.99c-.62.87.87-.63,0,0h0Zm-220.73,1.3h.52v-.52h-.52v.52Zm222.8,27.1c.53.23.98-.86.52-.78-.02.41-.66.2-.52.78Zm0,3.13c-.07-.88-.31-1.6-1.29-1.56-.2,1.16.24,1.66,1.29,1.56Zm-.26,16.15c-.42-.86.9-1.84-.26-1.83-.35.35-.49,1.82.26,1.83Zm-1.03,23.45c.3,1.03.3-1.03,0,0h0Zm-15.79,3.91c.45-.02.8.06,1.04.26v-1.82c-.49.06-.57-.29-1.04-.26-.39.83-.08.92,0,1.82Zm-68.05-1.04c.3,1.03.3-1.03,0,0h0Zm-2.85,1.3c1.02.33.67-.71,1.03-1.04h-1.03v1.04Zm-92.64,1.04h.78c-.04-.49-.17-.87-.52-1.04-.08.35-.37.5-.26,1.04Zm80.22.26c.11-.5.56-.66.52-1.3h-.78c.14.38-.3,1.35.26,1.3Zm92.64-.52c-.09-.21-.69-.31-.78,0-.17.6,1.01.56.78,0Z"/>
  <g>
    <path class="cls-1" d="m136.16,61.53c.18.08.36.16.52.26"/>
    <path class="cls-5" d="m8.72,143.99v-.78"/>
    <path class="cls-4" d="m30.97,16.85c.09-.18.26-.26.39-.39"/>
    <path class="cls-4" d="m177.7,17.63c.27,0,.46-.06.65-.13"/>
    <path class="cls-3" d="m67.72,205.22c-.26,0-.46-.06-.65-.13"/>
    <path class="cls-4" d="m117.66,32.74c.27,0,.46-.06.65-.13"/>
    <path class="cls-2" d="m112.74,36.91c.14.03.2.14.26.26"/>
    <path class="cls-3" d="m214.05,41.99c-.1-.25-.13-.56-.26-.78"/>
    <path class="cls-5" d="m109.12,55.67c.27.02.4-.12.52-.26"/>
    <path class="cls-4" d="m218.32,58.8v-.52"/>
    <path class="cls-3" d="m144.96,62.05c-.1-.25-.13-.56-.26-.78"/>
    <path class="cls-3" d="m104.21,87.98c.27,0,.46-.06.65-.13"/>
    <path class="cls-4" d="m95.15,92.67c0-.27-.06-.46-.13-.65"/>
    <path class="cls-2" d="m26.58,93.71c.09.17.2.32.26.52"/>
    <path class="cls-6" d="m134.35,164.97c.11-.37.51-.61.78-.78"/>
    <path class="cls-4" d="m120.38,116.51c.17.09.42.1.65.13"/>
    <path class="cls-4" d="m27.35,134.35c-.27,0-.46.06-.65.13"/>
    <path class="cls-4" d="m49.35,155.98c.27,0,.46.06.65.13"/>
    <path class="cls-3" d="m.83,112.86c-.1-.25-.13-.56-.26-.78"/>
  </g>
</svg>