<svg xmlns="http://www.w3.org/2000/svg" id="Layer_1" data-name="Layer 1" viewBox="963.78 680.38 226.79 226.75">
  <defs>
    <style>
      .cls-1, .cls-2, .cls-3, .cls-4, .cls-5, .cls-6, .cls-7 {
        fill: none;
      }

      .cls-1, .cls-8 {
        stroke-width: 0px;
      }

      .cls-2 {
        stroke-width: .25px;
      }

      .cls-2, .cls-3, .cls-4, .cls-5, .cls-6, .cls-7 {
        stroke: #000;
        stroke-linecap: round;
      }

      .cls-2, .cls-3, .cls-4, .cls-5, .cls-6, .cls-7, .cls-8 {
        fill-rule: evenodd;
      }

      .cls-3 {
        stroke-width: .32px;
      }

      .cls-4 {
        stroke-width: .32px;
      }

      .cls-5 {
        stroke-width: .31px;
      }

      .cls-6 {
        stroke-width: .31px;
      }

      .cls-7 {
        stroke-width: .29px;
      }
    </style>
  </defs>
  <g>
    <path class="cls-8" d="m1124.71,712.76c-.92,1.94-3.49,2.05-5.2.75.17-1.22-.43-1.67,0-2.51,2.17-.65,4.8-.17,5.2,1.76Z"/>
    <path class="cls-8" d="m1170.25,762.22c.04-.3.45-.21.74-.25-.04.29-.45.21-.74.25Z"/>
    <path class="cls-8" d="m1184.36,801.64c.29-.99.29.99,0,0h0Z"/>
    <path class="cls-8" d="m1154.91,810.93c.04-.62.84-.07.99,0-.04.63-.84.07-.99,0Z"/>
    <path class="cls-8" d="m1007.37,864.41v-.5h.49v.5h-.49Z"/>
    <path class="cls-8" d="m1129.66,901.56c.85.65-1.27.61,0,0h0Z"/>
    <path class="cls-8" d="m1070.24,690.92c3.7.25,6.74-.99,10.4,0,6.15-1.08,16.16.78,22.03-.75.7.21,1.02.81,1.98.75,10.74-.98,21.5.13,30.94-1.51,4.36.18,8.93.15,12.38,1.25,8.63-.31,17.25-.96,26.98-1.51,1.2.54,2.41,1.08,3.22,2.01.24,1.25-.51,1.5-.74,2.26.53,1.29,1.07,2.68,1.24,4.02.47,3.68-.54,7.5-.5,11.55.03,2.54.49,6.01.25,9.04-.11,1.31-.18,3.26,0,4.02.29,1.21-.02,3.53,0,5.27.07,7.45.67,14.65.49,21.59-.03,1.03-.46,1.94-.49,3.01-.03,1.26.53,2.69.49,4.02-.08,3.07-.43,6.21-.74,9.29,1.96,10.28.08,23.08,1.24,32.64.03.74-.44,1.47-.5,2.26-.06.86.45,1.68.5,2.76.09,2.09-1.2,4.19,0,6.03-.08,7.72-.32,13.37-.25,19.83.02,1.77.83,3.96-.25,5.77.51,3.32.61,8.21.25,11.3-.36.95.68.48.5,1.26-.52,2.94-.5,6.27-.5,9.54,0,5.16.35,11.06.5,16.32.03,1.16-.34,2.42-.25,3.52.06.66.48,1.14.49,1.76.1,4.86-.85,9.46-1.24,14.06-.14,1.69.3,3.51-.74,5.02-3.41-.59-7.79.82-11.14-.75-1.01.07-1.44.72-2.48.75-2.71-.51-5.1.16-7.67-.25-.88-.13-.61.89-1.48.75-4.71-1.09-8.3-.24-13.37-.25-.82-.17-1.2-.79-1.48-1.51-.47.03.29.84,0,1.51-5.04-.53-9.35-.08-15.1.25-1.12.47-.43-.9-.99-1-1.41-.26-1.28,1.04-2.48,1-9.9-.41-20.54,2.39-30.2.75-.96-.13-1.02.64-1.73.75-4.38-.83-10.16-.24-14.85-.75-.86.03-1.17-.49-1.73-.75-3.15-.03-6.69,1.31-9.41,0-4,.88-9.81-.26-13.37.25-.98.32-.6-.73-1.24-.75-4.66.94-10.78.21-15.84.25-1.82.02-3.46.75-4.95,0-1.75.79-4.06.33-6.44.25-2.39-.07-4.97.45-6.68-.75-.84.1.66.97-.5.75-3.37-.22-5.61,1.22-8.17-.25-.88-.13-.61.89-1.49.75-3.15-1.43-7.19,1.07-9.9-.75-2.69.19-6.07.6-9.16.75-3.14.15-5.26-.68-7.92-.5-.99-.84-1.76-1.9-2.23-3.26.12-.63,0-1.51.74-1.51-.9-.96-.81-2.98-.49-4.52-.52-2.74-.61-5.04-.25-7.78-.31-1.02-.46-2.21-.74-3.26.52-3.03.63-10.61-.5-14.31-.05-1.06.38-1.62.5-2.51-.09-1.93-.34-3.8-.25-6.03.12-2.91,1.09-6.05.74-8.79-.09-.71-.45-1.32-.5-2.01-.06-1.06.29-2.14.25-3.26-.07-1.83-.76-3.69-.74-5.52,0-.76.42-1.23.5-2.01.17-1.68-.67-3.41.25-5.27-.91-5.38.12-13.78-.25-20.59-.1-1.83-.69-3.23-.25-5.52.11-.54.47-1.24.5-1.76.07-1.3-.53-2.73-.5-4.02.03-.9.44-1.9.5-2.76.08-1.2-.32-2.27-.25-3.26.12-1.54.95-3.39,0-5.27.61-1.8.61-3.98,0-5.77-.14-1.15.61-1.39.74-2.26-.96-5.02-.7-10.04-.25-15.32.04-.79,0-1.52-.5-1.76.92-3.01-.49-8.47.99-11.05.05-1.05-1.21-.78-.99-2.01.43-2.6.19-5.34.5-8.03.78-6.85-.52-16.3,1.24-22.6,0-2.63-.32-5.87-.49-7.53.9-1.6,1.69-3.58,1.49-5.52-.14-1.29-1.31-2.19-1.49-3.51-.14-1.04.45-1.9.49-2.76.11-1.98-.76-4.1.74-5.78,2-.83,4.46-1.43,6.19,0h2.97c2.6.97,4.57.27,7.92,1,.14,1.89.13,3.22.99,4.77-1,1.56-3.83,3.92-1.98,6.03,1.95-.03,2.39-1.59,3.47-2.51-1.14-2.56,1.66-3.55,1.49-5.02-.22-1.82-2.06-.62-2.48-2.76,2.04-.65,4.39-1.03,7.18-1,2.36.02,5.16-1.09,6.19.25.98.07.76-1.07,1.73-1,2.1.64,4.62-.55,6.44.5,2.53-.21,4.12.05,6.93,0,1.65-.26,2.02-.81,3.47,0,2.47-.68,5.34-.61,7.92-.5.56.02,1.15.45,1.73.5,2.76.24,5.68-.6,8.42-.5,1.64.06,3.11.57,4.7.5,1.56-.07,3.29-.61,5.69-.5,4.27.19,8.23.33,12.87.5l-.12.12.12.13c.07.41-.24.43-.25.75.22.2.56.27.99.25.11-.52-.17-.67-.25-1h.25v-.25Zm75.01.5c-1.36-.11-1.72,1.02-2.97,1.51.41.93.46,2.21,1.24,2.76,4.79,1.84,4.78-4.01,1.73-4.27Zm-155.46,1c-.6.84.83-.61,0,0h0Zm55.94,0c-.11.79.53.8,1.24.75,0-.35.12-.55.25-.75-.32-.34-1.17-.34-1.48,0Zm117.83,1.76c.7.31,1.53.31,2.23,0v-1.51c-.29-.29-.88-.28-1.49-.25.38,1.22-.72.95-.74,1.76Zm-75.75.75c.76-.15,1.29-.53,1.98-.75-.08-.59-.3-1.04-.5-1.51h-.74c-.46.54-.66,1.34-.74,2.26Zm69.56-2.01c-.04,1.46.2,2.64,1.24,3.01.62.04.77-.39,1.24-.5.15-1.81-.88-3.25-2.48-2.51Zm16.58,3.77c1-.41,1.17-1.66,1.49-2.76-.69-.47-.82-1.51-2.23-1.25-.53,1.17-1.01,3.84.74,4.02Zm-117.33-3.01c.03-.3.44-.57,0-.75-.04.3-.44.57,0,.75Zm47.28,0c.29,1.55.67,3,2.72,2.76.06-.2.21-.29.5-.25.65-.68.65-2.34,0-3.01-.7-.33-3.2-.66-3.22.5Zm49.51-.5c-.15,1.41.47,2.03,1.24,2.51.04-.29.39-.27.74-.25.38-.36.22-1.29.25-2.01-.59-.24-1.59-.83-2.23-.25Zm-150.51,3.26c-.23.77-1.21.79-1.24,1.76.15,2.23.29,3,1.98,3.77.34-.74,1.86-.29,2.23-1,.23-1.74-.87-2.13-.74-3.77.14-.78,1.16-.66,1.24-1.51-.33-3.32-5.39-3.29-3.46.75Zm77.73-2.76c-.88,3.48,4.29,5.04,3.96,1-.44-.47-.88-.94-1.24-1.51-1.18-.11-2.03.12-2.72.5Zm52.97-.25c.29.99.29-.99,0,0h0Zm-121.3.5c-.05,1.97.74,3.1,2.23,3.52.61-1.08,1.73-2.03.99-3.77-1.4.45-2.1-.77-3.22.25Zm21.54-.25c-.21.71-.29,1.55-.5,2.26,1.13.27,1.55,1.27,3.22,1,.59-.78.27-1.17.5-2.01-.91-.84-1.54-1.81-3.22-1.25Zm91.1,0c-.36,1.19,1.8,1.84,1.73.5-.55-.22-1.14-1.07-1.73-.5Zm2.47,1.51c-.33,1.59,1.32,1.17.99,2.76-3.21,1.52-8.72.7-11.63,2.51.67,2.24-1.49,3.91.25,5.77,2.3.89,5.36-.38,7.18.75-.4,3.52-4.23,2.48-7.67,2.51-.85,3.35,1.67,5.29,3.71,6.53,3.91.54,5.28-1.51,8.91-1.25.6-.73,1.58-1.08,2.47-1.51.88-2.45,2.92-3.74,3.96-6.03-.08-2.59.22-4.47-.49-6.03-.46-.49-.91-.08-1.49,0-.28-1.89-2.5-1.81-2.97-3.51.22-.94.71-1.62.74-2.76-.77-1.9-3.26-1.57-3.96.25Zm9.9,2.26h1.48c.49-.92,1-1.83.99-3.26-2.13-2.25-4.36,1.42-2.47,3.26Zm-156.94-3.26c-.31,1.32.51,1.49.5,2.51,2.01.22.95,3.56,2.97,3.77,1.66-.49,3.03-1.16,2.72-3.01-1.44-.96-4.65-.32-4.21-3.77-1.04-.21-1.17.49-1.98.5Zm73.77-.25c.29.99.29-.99,0,0h0Zm113.37,0c-.1,1.03.25,1.58,1.24,1.51-.2-.87.37-.96.25-1.76-.76-.18-.73.43-1.49.25Zm-179.96,2.26c.35.07.28.55.49.75,1.95.49,2.39-1.68,1.73-3.01-1.53-.05-1.77,1.22-2.23,2.26Zm33.67-1.76c-.67,2.61,1.55,2.28,1.24,4.52-1.04.11-1.25,1.08-2.72.75.13-1.14-.5-1.5-.74-2.26-2.05-.16-2.82.99-3.46,2.26,2.34,1.38,6.2.53,8.91,1,.78-1.55.67-4,1.49-5.52-1.6.51-2.64-2.36-4.7-.75Zm18.81,1.51c1.42,1.43.18,4.01,1.98,5.02,1.31-.18,1.55-1.44,2.97-1.51.04-.71.46-1.05.5-1.76-1.02-.89-.85-2.99-1.98-3.77-.79,1.04-3.41.22-3.46,2.01Zm12.62-1.76c.29.99.29-.99,0,0h0Zm47.03,2.01c.21-1.05-.48-1.19-.5-2.01-.75-.31-2.3.42-2.97,1,.79,2.55,1.21,5.47,2.72,7.28,1.94-.29,3.17-1.3,4.21-2.51-.45-1.97-2.65-2.17-3.47-3.77Zm-48.52-1c-1.88-2.69-4.18.95-4.21,3.26.52.82.62,2.05,1.98,2.01,1.15-1,1.74-1.47,3.47-1.51-.19-1.09,1.24-1.38.5-2.26-1.58-.27-.58,2.09-1.73,2.26v-3.51c.51-.15,1.72.41,1.49-.5-.33-.71-1.1.19-1.49.25Zm6.44-1c-.18.57-1.39.1-1.98.25-1,2.41-.63,5.72,1.73,5.52,1.42-.12,1.47-1.9,2.48-3.01-.56-1.11-1.35-1.97-2.23-2.76Zm56.19.25c.18,1.57,1.13,2.37,2.72,2.51.53-.73.2-2.25-.25-2.76-.84.07-2.01-.2-2.48.25Zm-50.5,5.52c2.11-.12,1.78-2.72,1.98-4.77-2.54-3.07-4.8,3.88-1.98,4.77Zm31.19-4.77c.72.37.72-1.12,0-.75v.75Zm26.24-.25c-.16,1.42.54,1.96.99,2.76,1.46-.19,2.49-.82,2.48-2.51-.8-.64-2.54-1.15-3.46-.25Zm28.22,2.26c.82.25.78,1.39,1.98,1.25.59-.9.6-2.4.74-3.77-2.14-.42-2.15,1.33-2.72,2.51Zm-60.9,0c-.49-.25-.39-1.11-1.24-1v1.26c.32.64,1.21-.23,1.24.25-.17,2.54,2.48,3.83,4.21,2.26.32-1.36-.25-3.01-.74-4.27-1.45-.62-2.62.29-3.47,1.51Zm-19.56.75c.89.94,1.03,2.64,1.98,3.52,1.02-.2,1.27.38,2.23.25,2.96-3.22-3.35-8.88-4.21-3.77Zm25.74-1.51h.49c.01-.32.32-.35.25-.75h-.74v.75Zm-26.49-.25c-.71.35-1.26-.68-1.48,0,.43.33,1.41,1.4,1.48,0Zm8.66,3.77c.18-.91.96-1.2.99-2.26-.31-.53-.68-.98-.99-1.51-2.81-.6-2.51,4.28,0,3.77Zm56.69-1.76c.79.12.74,1.09,1.48,1.26.37-.88-.29-2.88-1.24-3.26-.38.37-.22,1.29-.25,2.01Zm-22.77-1.25c-2.24-.43-3.88,1.69-5.2,3.01-.03,3.05,4.06,5.06,6.44,3.26-.53-1.91-.04-4.55-1.24-6.28Zm56.44,2.51c.31.86,1.16,1.17,2.48,1,2.66-2.31-2.44-5.29-2.48-1Zm-136.4,2.01c.91-.04.66-.72,1.73-1,.29-1.55-.37-2.14-.74-3.01-4-.72-3.39,4.12-.99,4.02Zm7.18-3.26h.74c-.02-.39.03-.87-.5-.75.01.35-.12.55-.25.75Zm1.98-.5c-.6.84.83-.61,0,0h0Zm-28.71,0c-2.24.45-3.04,4.95-.74,5.77,1.15-.26,1.93-.89,2.72-1.51.14-2.23-.66-3.52-1.98-4.27Zm128.48,2.01c.28.88.74,1.59,1.98,1.51.25,1,1.13,1.37,1.98,1.76,1.22-.86,1.75-2.41,2.72-3.51.35-1.27-1.13-.69-.99-1.76-1.52,1.61-4.85-.14-5.69,2.01Zm20.55-2.01c-1.1,2.65-1.55,5.96-3.71,7.53.23,3.86-5.43,5.94-5.94,2.26-.39-2.78,3.35-3.75,3.22-6.28-3.29-.64-4.69,2.76-7.43,3.52-1.66,3.42-4.74,5.41-5.69,9.54-.92,1.27-3.18.63-4.21,1.26.31,3.11,3.08,3.74,2.97,7.28.72.61,1.21,1.45,1.48,2.51.17.93-.42,1.08-.25,2.01,2.23-.09,2.79,1.52,2.47,4.02.89,1.1,2.05,1.94,2.48,3.51-.34.32-.25,1.09-.25,1.76,1.38,3.71,1.09,8.31.99,13.06-.24.43-.82.51-.99,1,1.31.17.5,2.51,2.72,1.76.82-.96.34-2.25.49-3.26.68-4.39,3.68-6.21,5.2-9.79,1.6-1.31,2.83-2.99,3.96-4.77,2.7-1.76,6.59-4.37,10.15-1.76.11-3.04-1.83-4-3.71-5.02-1.51,0-2.7.58-3.71-.25-.71.96-2,1.32-3.22,1.76-1.1,1.47-1.85,3.32-4.21,3.52.17,1.01-.24,1.43-.25,2.26-1.3,1.19-1.11,3.89-3.22,4.27-.98-.57-.68-1.78-.5-3.01-.67-2-1.13-4.21-1.48-6.53-.77-.31-1.33-.83-1.73-1.51-1.22-3.45-4.02-5.3-5.7-8.29.97-.61,1.76-1.39,3.22-1.51.85.47,1.4,1.26,2.72,1.26,1.41-.08,1.57-1.43,3.47-1,.72-.69,1.64-1.18,2.97-1.25,1.16-.25.82,1.01,1.98.75,1.63-.69,2.25-2.4,2.48-4.52,1.35-.72,1.56-2.19,2.48-3.01.04-.04.94.03.99,0,.31-.2.73-.97.99-1.26.42-.48.95-.82.99-1.51-1.53-3.43,1.42-7.29-.74-10.29h-1.49Zm-170.8,1c-.65-.57-1.89.19-1.24.75.19-.09,1.6.71,2.48.75.22-.53.75-.74.74-1.51-.35-.53-1.71-.81-1.98,0Zm91.09,2.01c.4.52,1.24.58,2.23.5.35-.48.65-1.01.74-1.76-1.04-1.17-3.03-.69-2.97,1.25Zm76.49-1c.07-.66-.09-1.08-.74-1-.07.66.09,1.08.74,1Zm16.09,2.76c1.2-.29,1.59-1.4,1.73-2.76-.39-.36-.49-1.01-1.49-.75-.54,1.12.24,2.2-.25,3.52Zm-181.2-1.26c-.26,1.46,1.07.11,0,0h0Zm32.43.25c-.28.03-.39-.37-.5,0,0,.25.43.32.5,0Zm42.82,0c.29.99.29-.99,0,0h0Zm19.8.5c-.19.06-.49,0-.5.25.19-.06.49,0,.5-.25Zm81.69,3.51c.47-.66.26-2.31,0-3.01-.92-.17-.65-.12-1.73-.25-.63,1.52-.1,3.47,1.73,3.26Zm-50.5,32.64c-.53-1.14-.64-2.7-1.98-3.01-.44-2.82.48-5.49-.74-7.53-1.03-.07-.96.33-1.73,0-.31-1.94-1.45-3.05-1.98-4.77-1.67-.14-1.85-1.81-2.72-2.76-.03-.45.3-.53.25-1-1.14.19-1.01-.28-.74-1-1.66-.33-2.32-1.67-3.96-2.01-.74-1.93-3.1-2.21-3.96-4.02.04.54-.88.11-1.24.25-1.58-1.91-4.94-2.02-6.44-4.02h-1.98c-.97-1.51-3.66-1.51-4.21-2.76-1.66.05-1.32-.45-3.46,0-1.58-.6-3.12-.33-4.95-1-.62.21-1.33.33-2.23.25-.78.04-.83-.67-1.73-.5-3.13.79-6.43-.74-9.9-.75-3.55-.01-8.41,1.03-10.64-1-5.35,2.41-15.32.06-21.54,2.26-6.58-.04-16.01,1.9-21.78,0-5.2,1.23-10.54.92-15.84.5-.68.23-1.05.77-1.73,1-1.55-.79-4.79-1.2-6.19,0-1.49-.54-3.35-1.91-5.2-1.26-.5,2.12,2.43,3.97,4.21,3.77.81-.44.62-1.88,1.49-2.26,2.26.8,5.46.66,7.92,1.25.6.98,1.54,1.61,2.48,2.26,1.11.12,1.85-.13,2.72-.25.77.72,1.45,1.54,2.23,2.26,1.6,2.23,2.55,5.11,3.47,8.03-.18,2.79-.47,6.13.74,8.29-.62,1.13.11,3.62-.5,4.77,1.64,3.27.59,7.74.5,12.05-.11,5.32.26,10.29,0,14.06.2.88,1.51.64,1.48,1.76-1.27,2.11.7,6.03-.99,7.78,1.25,1.72-.12,4.58.25,7.03.41.84.83,1.67,1.24,2.51-.85,6.39,2.68,12.45,0,17.82.59.33,1.64.18,1.48,1.26-1.05,1.97-2.52,4.78-1.48,8.04-.92.41-.57,2.1-.99,3.01.86.3.79,1.54,1.24,2.26.19,1.29-.35,1.82-.25,3.01,1.33.79.24,4.22-.5,5.27,1.92,1.23.6,5.75.99,8.54-.24-.43-.68-.64-1.49-.5-.22,1.54.59,2.59,0,3.77,2.91,1.16-.34,4.48.74,6.78-.36.89-1.76.73-1.48,2.26,1.07.41.51,1.27.74,2.76-.95.71-1.14,2.19-.99,4.02,1.54,1.37.56,5.29,1.48,7.28-.92,1.01.24,3.05-.49,4.52.54-.05.79.2.74.75.09,2.01-.4,3.44-1.24,4.52,1.64,2.53-.45,5.31,0,8.54-.87.54-1.28,1.54-2.48,1.76v2.26c-2.45,1.28-3.46,4.02-5.69,5.52-3.49.73-7.24,1.2-9.65,3.01-1.17.15-3.15-.52-2.97,1,1.35.77,3.85.02,5.69.75,4.21-1.04,9.2.29,13.12-1.76,1.29.12,2.25.57,3.71.5,5.1-1.23,10.72.36,16.83-1,4.02,1.48,8.28,1.25,12.38,2.01,3.74-1.36,7.38.34,11.88.25.38-.28.52-.82,1.24-.75.98.46,2.43.36,4.21.5,1.73.13,4.2.89,4.95-.5-.44-1.47-2.84-.97-3.96-1.76-.84-.07-1.42-.4-2.48-.25-1.57-1.25-4.52-1.11-6.44-2.01-3.52-.62-7.5-.76-8.91-3.52-.57.08-.95-.04-1.24-.25-.32-1.93-1.96-2.53-2.72-4.02-.44-2.06-1.31-3.69-1.24-6.28-1.49-1.29-.73-5.59-.25-7.78-1.29-5.27-1.91-10.85-.74-16.82.13-.89-.88-.62-.74-1.51,1.02-9.41-2.88-19.12,0-26.86-.54-.62-1.04-1.29-1.24-2.26.37-2.93.23-4.64-.74-6.78.5-2.34,1.08-4.6,2.48-6.03,3.81-1.42,6.46,1.87,10.15,0,2.2,1.29,4.62-.21,6.93-.25,2.23-.04,4.39.85,6.44.5-.57.56.09.98,0,1.76-.63.03-1.27.05-1.24.75,1.46.08.42,2.04,1.24,2.26,1.02-.54-.07-1.92,0-3.01.95-.41,1.42,0,1.73-.75-.35-.57-1.03-.8-1.49-1.26,4.36-3.22,8.02,2.58,9.41,6.28.07,1.41-1.96.69-1.73,2.26,1.17.18,1.7-.28,2.72-.25,1.26.73,2.51,1.47,2.97,3.01,1.1.14,1.77.72,2.23,1.51,1.38,4.37,5.33,6.14,6.68,10.55,1.97,1.27,2.49,4.01,4.46,5.27,1.66,4.42,5.78,6.36,7.18,11.05,2.12,1.08,3.44,4.15,5.2,4.77-.58,2.2,2.53,2.55,2.48,5.02.42.33.83.66,1.73.5,1.65,1.93,2.72,4.44,4.21,6.53,1.53.62,2.48,1.84,3.46,3.01v1.51c1.75,1.15,2.48,3.35,5.2,3.51.77,1.48,1.69,2.8,3.46,3.26.2.76,1.72,1.08.99,2.01,2.49-.12,4.38,2.38,5.94,4.02,1.16.25,2.49.32,2.72,1.51,2.89.59,5.28,1.67,6.44,4.02,2.94.11,4.35,1.78,5.94,3.26,2.96-.07,4.12,1.68,5.69,3.01.23-1.19,1.72-1.1,2.72-1.51.46.63.68,1.48,1.74,1.51,1.47.33,1.68-.64,2.72-.75,2.72,1.24,5.98.07,8.91.5,1.26.19,2.07.9,3.22,1,3.28.3,6.83.12,9.9.25-.25-2.26-1.91-3.09-4.21-3.26-2.06-3.01-6.06-4.07-8.91-6.28-.85.11-1.39-.1-1.98-.25-.99-.92-2.2-1.62-2.48-3.26h-1.98c-.81-2.02-3.67-1.97-3.96-4.52-1.12.33-2.23-.04-2.48-1.25.08-1.09,1.21-1.12.99-2.51-.89-.21-2.37-.8-3.22-.25.61-1.1.5-1.93-.74-2.26-.31.84.97,1.33.25,1.76-.99-.83-1.83-1.08-1.73-2.51-.81-.41-1.15-.65-1.98-1.25-.9-.66-2.68-1.31-2.97-3.26.77-.32,1.18-2.01.74-2.76-1.42-.44-.93,1.06-1.98,1-1.22-1.33-1.98-2.98-3.22-4.27-1.04-1.08-2.71-1.67-3.22-3.26h-1.24c-.56-2.02-3.01-2.13-3.96-3.77.19-.22.27-.57.25-1-.78.12-1.01-.31-1.24-.75-.38-1.79-2.33-2-2.48-4.02-1.11-.88-2.02-1.97-2.97-3.01l.12-.13-.12-.13c.62.13-.46-1.48-.25-.25l-.12-.12-.13.12c-1.71-1.32-2.59-3.79-4.7-4.02v-1.51c-2.73-4.18-5.64-8.18-8.91-11.8-.15-1.84-1.4-2.49-1.98-4.27-.21-.66-1.04-1.8-1.48-3.26-.58-.67-.66.67-1.24,0-.57-2.27-2.26-3.4-3.71-4.77-1.28-3.73-3.92-6.07-4.46-10.54-.57-.76-1.47-1.18-1.98-2.01-.07-.85-.39-1.44-.25-2.51,1.34-.61,2.8-.14,4.46-.75,1.46-2.79,5.14-3.33,6.93-5.78,1.84.36,1.49-1.5,3.47-1,.15-1.6,1.85-1.64,1.98-3.26.22.2.56.27.99.25.72-1.3,1.53-3.19,2.97-3.01.4-1.42.95-2.63,2.23-2.51,1.17-3.85,1.04-6.46,3.71-8.79,0-.59-.43-.74-.25-1.51,1.42-.82,1.28-3.22,2.72-4.02-.42-2.45.01-4.89-.25-7.03.63-2.12,1.81-3.69,1.49-6.78-2.41-1.21-2.04-5.18-.99-7.53l.12.13.13.13h.5c.13-.2.26-.41.25-.75h-.99v.25Zm-24.75-34.65c.95.88.59,3.08,1.98,3.52.75-.49,1.25-1.25,1.24-2.51-.67-1.06-2.25-3.1-3.22-1Zm78.97,0c-.03-.64-.36-.97-.99-1,.03.64.36.97.99,1Zm-35.4.25h1.24c-.1-.48-.09-1.08-.74-1.01.31.81-.8.19-.5,1.01Zm-155.95,1c.14-.82-.17-1.17-.25-1.76h-.99c-.1,1.11-.07,2.08,1.24,1.76Zm18.57-.5c.29.99.29-.99,0,0h0Zm172.78.25v1.76h1.48c.15-.85.35-1.65.74-2.26-1.16.11-.89,1.12-2.23.5Zm-68.82,0c.29.99.29-.99,0,0h0Zm-2.97,3.52c.76-.4,1.21-1.11.99-2.51-2.54-1.31-3.09,2.02-.99,2.51Zm36.63-2.01v1c.54-.38,2.06-1.08,1.49-1.76-.14.61-.94.56-1.49.75Zm39.11-.5c-.32-.01-.34-.32-.74-.25-.38.62.84.74.74.25Zm-.74,1.25c.33.08.47.36.99.25.19-.86-.95-.98-.99-.25Zm-70.3,1.76c-.02-.64-.92-.59-1.24-.25v1c1.3-.63,2.81-.03,2.48,1.76h1.98c.21-.71.29-1.55.49-2.26-.93-1.25-2.62-1.51-3.71-.25Zm63.37.25h.49c.01-.32.32-.35.25-.75h-.74v.75Zm-4.46-.25c0-.25-.44-.32-.5,0,.28-.03.38.37.5,0Zm.49.75c.45.33,1.69-.14,1.74-1-.93-.02-2-.19-1.74,1Zm10.4.75h.99c-.17-.94.68-1.47-.5-1.51-.14.53-.61.72-.5,1.51Zm-187.14,0c-.48,1.65.69,2.99.99,4.52.09.45-.14,1.02,0,1.51.26.92.89,1.5.99,2.51.06.61-.18,1.32-.25,2.01-.39,4-.48,7.27-.49,10.55-1.11,2.39-1.5,5.52-2.23,8.29.49,1.3,1.23,3.45.25,4.77,1.19,1.64,1.14,4.53,1.98,6.53,2.47-.34,4.81,1.42,6.44,2.76,4.03-1.69,7.59-5.18,6.93-10.79-1.87.86-4.5,4.01-6.68,1.51-1.01-2.36-.12-5.59,2.23-6.02.78-2.31,3.14-3.01,3.22-6.03-3.03,1.08-6.75,1.66-6.93-1.25-.09-1.48,1.72-2.28,2.23-4.02.46-1.57-.03-2.64.25-4.27-1.23-2.6-1.89-5.78-3.47-8.03-2.69,1.28-3.4-2.64-1.98-4.27-.45-.38-.58-1.08-.99-1.51-1.44-.21-1.93.55-2.47,1.25Zm121.79,0c.15,2.13,4.53,2.91,4.95.5-.87-1.52-3.78-1.84-4.95-.5Zm58.17,0c-.42-.33-.83-.66-1.73-.5-.2.87.28,1.06.5,1.51.96-.29,1.72-.77,2.23-1.51-.63-.67-.35.48-.99.5Zm-187.14,0v.5c.61.39.73-.85.25-.75-.01.15-.04.3-.25.25Zm190.36,1.01c-.04.62.39.78.5,1.25.7-.26,1.03-.26,1.73,0,.75-.79.49-1.22.74-2.26-1.39-.96-2.16.57-2.97,1.01Zm-32.18,0c.07-.34-.15-.98-.25-.5-.07.34.15.98.25.5Zm-157.19,1.51c-.33,1.55,1.05,2.74,2.97,2.76-.34-1.43.65-1.52.5-2.76-1.07-.44-2.49-.74-3.47,0Zm127.24,3.01c.65.08.81-.35.74-1h-.74v1Zm52.98.25c-.11-.47.34-1.51-.5-1.26-.53.52-.13,1.2.5,1.26Zm9.16.5c.7.1,1.4-1.07.99-1.26-.29.46-1.31.17-.99,1.26Zm-12.13.25c.22-.44.6-.73.74-1.25-.97-.25-1.61,1.12-.74,1.25Zm-46.78.5c.43,1.32.97,2.53,2.48,2.76,1.46-.54,1.56-3.2.49-4.27-1.68-.2-2.72.25-2.97,1.51Zm47.53-.25c.77.1,1.01-1.21.25-1.25.2.71-.35.65-.25,1.25Zm6.68.5c1.38.6,1.75-1.63.49-1.51-.22.45-.69.64-.49,1.51Zm-168.82-.5c0,1.58.65,2.52.99,3.77,1.09-.33,2.05.75,2.72,0-.37-1.84-1.58-6.15-3.71-3.77Zm112.63.25c.01-.15.04-.3.25-.25-.03-.31-.07-.59-.5-.5.04.29-.04.71.25.75Zm-128.48,1.51c.58.33,1.71.11,2.23.5.19-1.28-.25-1.93-.99-2.26-.18.82-1.15.84-1.24,1.76Zm180.95-.75c.08-.34.35-.48.25-1h-1.24c.03.64.36.97.99,1Zm8.91.25c-.02,1.2.83,1.51.99,2.51h1.24c-.08-.44,0-2.93-1.24-3.01-.04.46-.84.15-.99.5Zm-9.16,1h.99v-.75c-.62-.04-.78.39-.99.75Zm12.87-.25c-.26,1.46,1.07.1,0,0h0Zm-46.29,18.33c1-1.91,2.98-2.84,3.47-5.27,2.27-.37,2.74-2.58,2.72-5.27-1.06-1.6-.9-3.68-.99-5.77-1.31-2.53-3.84-.9-7.42-1.26-1.43,1.4-4.72.9-5.69,2.76-.18,1.44,1.42,1.07,1.24,2.51-.08.83-.57,2.06,0,2.76,2.22-.25,4.33-1.48,5.69.5,1.6,3.81-1.6,6.39-2.72,9.04,1.04,1.01,1.85-.43,3.71,0Zm-5.69-17.83c-.26,1.46,1.07.1,0,0h0Zm37.38,2.76c.33.51,1.66.76,2.23.25-.16-1.27.01-1.72-.25-2.51-1.34.07-1.72,1.1-1.98,2.26Zm13.62-.75c.78.12.87-.45,1.73-.25v-1h-1.24c-.25.33-.24.93-.5,1.26Zm-188.38.5c-.07-.66.96-.2.74-1-1.05-.36-1.71.77-.74,1Zm163.63.5c.98-.01,1.47-.51,1.48-1.51-.94.09-1.43.09-1.48,1.51Zm-32.18.25h.99c-.09-.58-.16-1.18-.99-1v1Zm57.18.25c.47.11.62.54,1.24.5.36-.63.6-.99.25-1.76-.75.16-.84.99-1.48,1.25Zm-18.32.5c.57.34.82,1.01,1.98.75.01-1.1-.67-1.49-.99-2.26-.16.67-.71.96-.99,1.51Zm-2.97-.5c-1.59-.26-1.37.41-2.72-.25-.48.1-.2.97-.99.75.11,1.14.64,1.87.99,2.76,1.08.09,1.13-.87,1.49-1.51-.15.65.1.9.74.75-.96-1.56,1.91-2.26.5-3.26v.75Zm-170.56,1.51c.08-.92-.38-1.29-.99-1.51-.66.75.15,1.52.99,1.51Zm183.92.5c.88.06,1.48-.17,1.73-.75-.87-.21-.55-1.62-1.98-1.26-.11.86.1,1.41.25,2.01Zm-48.27.5c1.23,0,1.87-.61,1.73-2.01-1.39-1.15-2.72.74-1.73,2.01Zm41.09-1c.79-.38,1.09-.09,1.98,0,.04-.96-1.01-.82-1.48-1.25.36.95-.68.48-.5,1.25Zm16.59-.25h.5c0-.25.2-.3.25-.5-.32-.01-.34-.32-.74-.25v.75Zm-1.98-.5c-1.49-.18-2.02.63-2.72,1.25.25,1.39,2.5,1.91,3.22,2.01.26-.84.12-2.57-.5-3.26Zm1.73,1.76c.06-.36.41-.42.5-.75-.51-.22-1.11.65-.5.75Zm-193.33-.25c-.12,1.05-.95,1.38-.99,2.51.41,1.35,1.42,2.07,3.22,2.01,1.53-1.62,1.21-5.31-2.23-4.52Zm5.2.5c-.6.84.83-.61,0,0h0Zm10.65,1.51c.38-.38.44-1.72-.5-1.51.03.64.14,1.2.5,1.51Zm3.47-.25c.17-.84-.51-.82-.74-1.26.23.44,0,1.35.74,1.26Zm169.32-1.26c-.19.06-.49,0-.49.25.19-.06.49,0,.49-.25Zm-18.81,2.76c.46.71,2.06.7,1.98-.5-.21-1.62-2.24-1.41-1.98.5Zm7.18-.5c.39-.38.18-1.03-.25-1.25-.39.38-.18,1.03.25,1.25Zm9.16-1c.75.69-.68-.76,0,0h0Zm-10.89.75h.5c.01-.32.32-.35.25-.75h-.74v.75Zm-159.66.5c.01-.15.04-.3.25-.25-.03-.31-.08-.59-.5-.5.04.3-.04.71.25.75Zm175.75.5c-1.26,1.16-2.66,2.38-2.48,3.77,1.01-.61,1.55.1,2.23.5,1.05-.44,1.35-1.65,1.73-2.76-2.05.16-.4-2.33-1.49-2.76-.46.48-.03.63,0,1.26Zm-4.95.5c-.01-.35.12-.55.25-.75h-.49c-.28.36-.27.61.25.75Zm8.42-.75c-1.59-.29-.54.77,0,0h0Zm-6.68,1.26c.07-.57-.06-.94-.5-1-.07.57.06.94.5,1Zm-20.55-.25c-.6.84.83-.61,0,0h0Zm-26.49,1.51c.01-.43-.19-.64-.49-.75.02.39-.03.87.49.75Zm1.73-.25c.29.99.29-.99,0,0h0Zm24.75,0c.14.8-.47.78,0,1.26.76,0,1.78-1.18.74-1.51-.04.29-.39.27-.74.25Zm-169.81,5.52c1.83.84,3.16-.52,2.97-2.51-1.57-1.53-4.26.35-2.97,2.51Zm180.7.5c0,.5.68.32.5,1h2.23c.65-1.47-.36-2.83-.99-3.77,0,1.5-1.72,1.26-1.73,2.76Zm7.43-1.76c-.66-.17-.94-.72-1.49-1-.08,1,.48,1.36,1.49,1.26l.12.12.12-.12c-.15.8.46.78,0,1.26-.74-.33-1.26-.26-1.73.25.09,1.08.66,1.67,1.73,1.76.48-.77.51-2,2.23-1.51.05-1.04,1.22-.94,1.49-1.76-1.46.18-1.76,1.15-2.97,1,0-.76.14-1.65-.74-1.51h-.25v.25Zm-29.71,1.51c.72.37.72-1.12,0-.75v.75Zm34.41,2.01c1.72.69,4.27.19,4.46-1.51-.78-1.81-4.84-.91-4.46,1.51Zm-38.12,1.26c1.34-.23,1.9-1.25,2.23-2.51-.57-.42-1.06-.94-1.98-1-1.12.93-.95,2.23-.25,3.52Zm4.95-1.51c1.04.59,2.72.46,3.47.25-.9-.26-.87-1.46-1.24-2.26-1.6-.2-2.46.35-2.23,2.01Zm-158.18-.5c-.9,1.19,1.45.33,0,0h0Zm187.39,1.51c-.83,2.59,2.86,2.45,1.24,4.27,1.27-.21,2.48-.49,2.97-1.51-.77.36-.96-.04-1.49-.5.22-.55-.04-1.08.25-2.01-.76-.74-1.82-.38-2.97-.25Zm-186.15,2.26c-.61-.47-.77-1.4-.99-2.26-1.83-.35-1.1,1.9-1.24,3.26.67-.17.48.52.74.75.96-.11,1.01-1.15,1.49-1.76Zm175.26-1.25c.13.95.96,1.2,1.73,1.51.44-.56.97-1.02.74-2.26-.9-.67-2.16.04-2.47.75Zm16.83.5c.33.78-.73,1.39,0,1.76.59-.33.24-1.59,1.24-1.51-.21.29-.33.67-.25,1.25,1.04.3.44-1.06.99-1.25-.19.96,1.32.47.99-.25-.86.04-1.05-.61-1.73-.75.09.76-.81.52-1.24.75Zm-10.89,0h.49v-.5h-.49v.5Zm-40.6,3.01c.62.38.81,1.19,1.24,1.76h1.48c.31-1.35,1.31-2.02,1.48-3.51-1.15-1.84-4.9-1.19-4.21,1.76Zm11.39-2.76c-.19.06-.49,0-.5.25.19-.06.49,0,.5-.25Zm28.22.75c.67.17.48-.52.74-.75-.54-.05-.79.21-.74.75Zm-32.92,1.76c.49.5,1.13.86,2.23.75-.01-.43.19-.64.5-.75-.11-1.32-.51-2.33-1.98-2.26-.69.27-1.04,1.78-.74,2.26Zm10.4,0c1.3.15,1.66-.66,1.73-1.76-.58-.08-1.02-.3-1.48-.5-.21.63-.32,1.34-.25,2.26Zm21.29-1.76h.5v-.5h-.5v.5Zm3.96.75c.51-.01,1.84-.44.99-1-.06.39-.54.17-.74,0-.08.34-.35.48-.25,1Zm-27.48,2.76c1.03-.38.82-2.01,1.48-2.76-.25-.28-1.35-.94-1.73-.25,1.7.29-.62,2.1.25,3.01Zm-139.36-2.26c.29.99.29-.99,0,0h0Zm156.2,1.01c.01,1.16.87,1.46,1.98,1.51,1.78-1.99-1.25-4-1.98-1.51Zm19.31-.75c.32.01.34.32.74.25.01-.43-.19-.64-.49-.75,0,.25-.2.3-.25.5Zm-197.29.75c-.03.3-.44.57,0,.75.08-.59.86-.47.74-1.25-.79.21-.77-.4-1.24-.5-.18.69.49.51.49,1.01Zm184.17-.75c-.19.06-.49,0-.5.25.19-.06.49,0,.5-.25Zm11.63,2.01c.33.36,1.4.36,1.73,0,.03-.94-1.76-1.01-.5-1.76-.15-.02-.29-.04-.25-.25h-.5c.04.79-.46.79-.5,2.01Zm-37.87.75c1.5.43.72-1.44,1.98-1.26-.24-2.35-2.3-.53-1.98,1.26Zm29.7,1.51c1.59-.14,2.49-.99,2.48-2.76-.46-.96-1.46-1.36-2.97-1.25,0,1.07-.42,3,.49,4.02Zm-183.18-2.26c-.17.84.42.92.99,1-.24-.91.97-.35,1.48-.5.21-.54.64-.86.49-1.76-.32-.01-.34-.32-.74-.25-.04,1.78-1.52,1.59-2.23,1.51Zm178.97-.25c.79.12.87.96,1.73,1,.28-.3.28-.89.25-1.51-.61-.57-1.98-.77-1.98.5Zm-1.48-.5c0-.25-.43-.32-.5,0,.05.3.28.15.5,0Zm11.39,1c.01-.43-.19-.64-.5-.75.02.4-.04.87.5.75Zm-185.41.25c.29.99.29-.99,0,0h0Zm143.82.5c.33-.04.75,1.02.99.25-.41,0-.14-.7-.49-.75,0,.33-.44.23-.5.5Zm25,.5c.44.23.41.92.99,1,.36-.39,1-.5.74-1.51-.29-.27-1.57-.11-1.73.5Zm4.95.25v1.51c.78.65,1.86.86,2.72.25.19-1.12-.33-1.51-.25-2.51-1.01.07-1.68.47-2.48.75Zm-15.84,6.28c-.06-.16.35-.73.25-1.26-.12-.62-.48-.54-.5-1-.02-.82.52-1.96.25-3.01-.65.07-.2-.97-.99-.75-1.74-.18-3.82,1.48-5.2,2.51-.57,1.77-.65,4.03-.99,6.03.7,1.64,1.42,4.58.74,6.78-3.25.28-3.17-2.81-4.21-4.77-2.2-.13-3.48,2.75-5.45,1.25-.29,1.22-1.09,1.91-2.48,2.01-1.45,2.55-3.35,4.64-5.2,6.78v1.76c-3.45,2.76-3.02,11.26.5,13.56,1.91-.73,1.04-3.89.99-6.03.77-1.31,1.36-2.8,1.73-4.52,1.69-1.65,5.62-2.98,6.68,0,.06,1.31-.6,1.9-.74,3.01,2.56.26,3.56-2.65,4.7-4.02.99-1.19,1.95-1.21,1.73-2.26.48.1.02,1.15.99.75.1-1.35-.69-1.05-.25-2.26,1.33-1.16.51-4.5,2.72-4.77,2.13,2.33,6.26,4.24,10.4,4.02.94-.05,1.61-.6,2.48-.5.62-1.38,1.58-2.41,2.23-3.77,2.56-.58,3.48-2.83,4.7-4.77-.65-1.76-1.32-3.51-1.24-6.03-1.6-.89-1.96-3.03-3.71-3.77-1.03,4.23-1.78,8.74-7.67,8.03-.67-1.22-2.03-1.81-2.48-3.01Zm23.76-4.27c.35.65.8,1.2,1.98,1,.38-.51.38-2.25,0-2.76-1.15.09-1.63.86-1.98,1.76Zm-44.31-.75c.01-.43-.19-.64-.5-.75-.35.37-.36.97.5.75Zm9.9.75c.13.36-.29,1.3.25,1.26.41-.59,1.38-.61,1.24-1.76-1.01.6-.4.24-.99-.25-.54-.46-1.52-.6-1.98-.5-.08.02-.66.76-.99.75-.29,0-.54-1.21-.99-.75.2,1.62,2.59.96,3.47,1.25Zm-7.67,1c.87.83,1.42.2,2.48,0-.5-.84-.84-1.83-2.23-1.76-.34.32-.25,1.09-.25,1.76Zm48.02-.5c-.38.46-.38,2.05,0,2.51.71.3,1.31.53,1.98.25.73-1.34.01-3.12-1.49-3.01-.06.2-.21.29-.49.25Zm-7.92,2.01c.04-.62.05-1.22-.49-1.25-.61.5-.48,1.17.49,1.25Zm-183.18,1c1.1.11,1.84-.14,1.73-1.25-.76-.59-2.17-.16-1.73,1.25Zm163.38-.25c.02-.15.04-.3.25-.25-.03-.31-.07-.59-.5-.5.04.3-.04.71.25.75Zm16.59-.5c-.15,1.49.51,2.16,1.98,2.01v-1.51c-.45-.38-1.53-.89-1.98-.5Zm6.44,2.26c.21-.62.33-1.34.25-2.26-2.71-1.35-2.55,2.32-.25,2.26Zm7.67-2.26c.83.76.75-.93,0,0h0Zm-43.82.75h-.99c-.2.97,1.18.97.99,0Zm28.47,2.51c1.06-.66.67.34,1.48.5v-1.76c-.29-.29-.88-.28-1.48-.25-.03.94-.28.72,0,1.51Zm-182.44-1.01c-.11.79.53.8,1.24.75v-1c-.6-.1-.54.46-1.24.25Zm11.14,15.82c-.45-2.5-.41-6.08,0-8.54.3-1.81,1.48-3.32,1.24-4.77-.22-1.34-1.69-2.55-2.97-2.51h-.5c-.45.72-.57,1.77-1.24,2.26-1.11,7.39.42,11.75,1.24,17.58,1.15.42,1.06,2.11,2.72,2.01,1.91-2.3-.03-3.42-.49-6.03Zm133.18-15.06c.01-.15.04-.3.25-.25-.03-.31-.07-.59-.5-.5.04.3-.04.71.25.75Zm47.78.75c-.21-.71.35-.65.25-1.26-1.12.37-2.01.98-2.97,1.51.96.03.76,1.23,1.73,1.26,1.17-.91,2.98-1.17,3.22-3.01-1.72-.48-1.03,1.47-2.23,1.51Zm-41.59.25c.44-.39,1.32-.34.99-1.51h-1.98c.15.68.49,1.18.99,1.51Zm-136.64-.25c.93.11.76-.75.25-1-.08.34-.35.48-.25,1Zm141.1-.5h.5c.38-.62-.84-.74-.74-.25.15.01.29.04.25.25Zm-131.94,2.26c.92-.16,1.38-.78,1.24-2.01-1.78-1.35-3.21,1.57-1.24,2.01Zm159.17-1.01c.01-.15.04-.3.25-.25-.03-.31-.08-.59-.5-.5.04.29-.04.71.25.75Zm-180.21,0c-2.7,1.21-2.26,6.65.74,7.03,2.29-1.63,2.6-6.39-.74-7.03Zm184.42,3.77c1.32.09.82-1.68,1.24-2.51-.96.22-.41-1.1-1.48-.75-1.05.42-1.07,3.14.25,3.26Zm8.91,3.01c.8-1.7,1.95-3.04,1.73-5.77-.53-.21-.84-.65-1.73-.5-.23,1.62-.68,5.37,0,6.28Zm-178.97-5.02c-.14,1.39.74,1.76,1.98,1.76-.12-.79.45-.89.25-1.76-.95-.34-1.33-.58-2.23,0Zm125.75.75c.43-.02.77.06.99.25.21-.29.33-.67.25-1.25-.78.28-.65.12-1.24-.25v1.25Zm49.26,1v1.51h-1.24c-.45.63-.85,1.32-.74,2.51,1.29-.79,1.5.74,2.97.5.23-.44,0-1.35.74-1.26-.08.34-.35.48-.25,1,1.85.29.42-2.75,1.49-3.26-1.36.72-2.8-.37-1.73-1.51-.76-.19-.48.69-1.24.5Zm-47.78,1.51c.07-.57-.06-.94-.49-1-.39.37-.28,1.12.49,1Zm-121.79-.25c.09,1.5.86,2.3,2.48,2.26.36-.56.62-1.21.5-2.26-.57-.39-2.4-.39-2.97,0Zm165.85,3.51c-1.91-.74-3.35-1.96-5.45-2.51-2.78,1.46-1.42,6.3-3.22,8.29-1.03.26-1.68-.53-2.23,0-.89,3.19,1.35,5.31,3.22,6.53h1.24c.63-.69.5-1.75.25-2.76.67-1.23,2.61-2.91,3.96-1.26.81,2.76-.03,4.66.5,8.04-.9-.24-.21,1.13-.99,1-.04,1.8-1.25,2.41-1.48,4.02,2.65.57,3.13-3.17,5.45-3.77.91-1.75.62-4.72,1.73-6.28-.49-.68-.15-2.19-.25-3.26.28.4,1.33,1.3,1.98.5-.98-1.09.6-1.72.49-2.76-1.64.41-.39-2.11-1.98-1.76.08,1.51.09,2.94-1.24,3.01-.66-2.35-.67-5.35-1.98-7.03Zm7.42,1.26c.32.6.81,1.02,1.73,1,.56-.27.9-.76.99-1.51-.32-1.02-1.15-1.52-1.73-2.26.19,1.45-1.25,1.25-.99,2.76Zm-179.47-1.51c.89.01,1.2.63,1.98.75,0-.67.09-1.43-.25-1.76-1-.1-1.72.09-1.73,1Zm178.73-.5h.5v-.5h-.5v.5Zm-16.83,1c.79-.38,1.09-.09,1.98,0-.14-1.25-1.88-1.14-1.98,0Zm-174.27,1.51v-.75h-.74c-.04.55.2.8.74.75Zm16.83,1.76c.89.15,1.2-.29,1.73-.5v-1.76c-1.53-1.07-2.6.95-1.73,2.26Zm170.06,0c.05-.37.6-.23.99-.25-.11-.47.34-1.51-.49-1.26.04.57-1.19,1.11-.5,1.51Zm-12.87,1.51c.12-.59,1.15-2.5,0-2.76-.88.55-.99,2.23,0,2.76Zm15.35,0c.15-.51,1.25-.07.99-1-.47.06-.55-.28-.99-.25.15.45-.73,1.04,0,1.25Zm-25.99,5.52c.78-1.55,1.63-3.03,1.73-5.27-.66-1.06-1.79-.2-2.23-1.26.07.41-.23.43-.25.75-.47.36-1.08.58-1.73.75-1.47,2.36-3.04,4.62-4.95,6.53-.84,2.74-2.63,4.53-4.46,6.28-.4,1.68-1.3,2.87-1.98,4.27-2.9.83-3.43,4.05-6.19,5.02-1.16,2.51-3.6,3.71-4.7,6.28.56,1.29,1.49,1.64,2.72,1.51.48-.05,2-1.11,2.72-1.76.66-.59,1.18-1.92,1.98-2.76.47-.49,1.13-.57,1.48-1,.91-1.1,1.5-2.32,2.97-3.01.21-.29.33-.67.25-1.26,3.03-2.79,5.86-5.78,8.67-8.79.29-1.3.8-2.37,1.73-3.01.6-.1.54.46,1.24.25.7-.83-1.06-.79-.74-2.01.67-.33.89-1.11,1.49-1.51v.25h.25c-.21,1.05.67.99.99,1.51-1.89,3.05,5.04,3.19,1.98-.5-1.42.37-2.4.28-2.72-1v-.25h-.25Zm-5.69-6.28c.93,2.14,2.73.36,0,0h0Zm38.37,2.26c.58-.13.85,1.27,1.24.5-.75-.41.43-2.78-.99-2.51.18.93-.42,1.08-.25,2.01Zm-3.96.75c.55.45,1,.99,2.23.75.42-.41.61-1.05.5-2.01-.83-.25-.99-1.17-2.23-1-.25.67-.51,1.32-.5,2.26Zm-180.46-1c.63-.03.96-.37.99-1-.78-.12-1.1.22-.99,1Zm3.47.5c-.87,1.54-2.4,2.42-2.48,4.77-1.52,1.05-1.66,3.5-3.71,4.02-2.41-1.75-6.05-7.05-9.16-3.51.86,1.69,3.88,1.79,2.97,4.52,2.68.38,3.16,2.98,5.2,4.02,3.58-.14,4.93-2.53,7.42-3.77.52-3.57,1.47-6.71,2.72-9.54.97-.69,3.26-.05,3.47-1.51-2.07-1.5-5.05.17-6.44,1Zm141.59-.75c-.19.06-.49,0-.49.25.19-.06.49,0,.49-.25Zm13.62.25c-.24.91,1.38.54,1.24,0-.47-.47-.62-.03-1.24,0Zm20.05.5h.5v-.5h-.5v.5Zm-22.28,3.77c1.13-.02,2.51.21,2.97-.5.28-1.87-.91-2.26-2.23-2.51-.5.75-.33,2.17-.74,3.01Zm27.97-2.51h.5v-.5h-.5v.5Zm.5,1.26h.5v-.5h-.5v.5Zm-.25,2.51c-.18-.57.45-1.96-.5-1.76-.36.4-.51,1.99.5,1.76Zm-4.7-.5c.65.08.81-.35.74-1h-.99c-.06.47.28.55.25,1Zm-48.27,2.26v1c.58.25,1.22.44,1.98.5.53-.72.89-1.6,1.24-2.51-1.21-.92-2.74-.18-3.22,1Zm52.48-.75c.01-.43-.19-.64-.49-.75.02.39-.03.87.49.75Zm.74-.25c.33.08.47.36.99.25v-.75c-.56-.07-.93.06-.99.5Zm-45.3,1.76c.01-.15.04-.3.25-.25.1-3.46-3.65.35-.25.25Zm40.35,1c1.58-.07,2.79-.51,3.22-1.76-.79.39-1.09.09-.99-1-2.3-.33-3.12,1.12-2.23,2.76Zm-20.55.25c.71.2,1.32.51,1.98.75.14-.36.38-.61.74-.75-.4-.93-.09-2.58-1.48-2.51-.05,1.21-1.51.98-1.24,2.51Zm-42.82-.25c.19-.17.64-1.5-.25-1.26-.39.38-.18,1.03.25,1.26Zm48.77,1c1.2-.22,1.27.72,2.47.5.02-1.02-.81-1.19-.49-2.51-1.52-.2-1.94.71-1.98,2.01Zm-45.55,0c.43.68,2.09.73,2.23-.25-.58-.41-.87-1.12-1.73-1.25-.22.45-.69.64-.49,1.51Zm-133.43,1.76c.42,1.38,2.7,2.8,4.21,1.51.45-2.3-1.49-2.17-1.49-4.02-1.88-.15-2.4,1.08-2.72,2.51Zm148.52,1c1.42-.06,1.29-1.71,1.24-3.26-2.19-.7-3.95,2.54-1.24,3.26Zm-130.21-2.01c.72.37.72-1.12,0-.75v.75Zm2.97,1.51c1.25,1.33,3.96-.28,2.72-2.26-1.9-.25-2.43.88-2.72,2.26Zm141.84,1c.57.26.8.87,1.73.75,1.21-.83.92-2.26.25-3.52-.47-.28-1.17-.32-1.73-.5-.21.96-.32,2.02-.25,3.26Zm6.19-2.51c-.61.71-1.2,1.05-.74,2.26.79.04,1.09.57,1.98.5.2-.89,1.16-2.32.74-3.01-.42.79-1.74-.28-1.98.25Zm28.22,1.51h.49v-.5h-.49v.5Zm-4.7,1.26c.29,1.13,1.17,1.66,2.48,1.76.62-.94.09-2.5-.5-3.01-.95.13-1.92.23-1.98,1.26Zm-68.07-.75c.83.76.75-.93,0,0h0Zm50.99,2.51c.7.46,1.27,1.06,2.23,1.26.61-1.1,1.03-2.55.25-3.77-1.76-.12-2.59.72-2.48,2.51Zm-150.75-1.25h.5v-.5h-.5v.5Zm-17.57,0c0-.25-.44-.32-.5,0,.05.3.27.15.5,0Zm120.55,1.76c.89.58,1.2.25,2.48.25.46-.54.66-1.34.74-2.26h-2.23c-.17.83-.29,1.71-.99,2.01Zm15.6-.75c.3,1.11,1.07,1.77,2.72,1.51-.08-.58.04-.96.25-1.26-.68-.06-.76-.74-.99-1.25-1.19-.2-1.52.46-1.98,1Zm4.7-.5h.74v-.5h-.74v.5Zm39.11,4.27c1.05-.02,2.12-.2,2.97-1-.54-1.25-.17-2.08-.5-3.26-.85.11-1.39-.1-1.98-.25-.61,1.46-1.27,2.89-.49,4.52Zm-53.47-3.77c.4,1.1,1.56,1.43,2.23,2.26.58-.08,1.02-.3,1.49-.5v-1.25c-1.45-1.28-2.34-.38-3.71-.5Zm32.92,1c.78.37,1.19-1.44.25-1.26.1.61-.45.55-.25,1.26Zm-161.89,0c.72.07.95-.97.25-1-.08.34-.35.48-.25,1Zm142.58-.75c-.02.44.05.78.25,1,.77.12,1.1-.22.99-1-.79.15-.77-.47-1.24,0Zm15.1,0c0-.25-.43-.32-.5,0,.28-.03.38.36.5,0Zm-161.15,2.26c.72.06.85-.47,1.24-.75-.03-.64-.36-.97-.99-1-.03.71-.93,1.07-.25,1.76Zm161.64-.5c.26.75.19,1.82.74,2.26,1.64.52,2.29-.43,2.48-2.01-.54-1.47-2.42-1.45-3.22-.25Zm-143.57,1.76c.58.19,1.71.5,2.23,0,.48-2.65-3.11-3.6-2.23,0Zm149.27-.25c.19.39.78.38.74,1,1.77.12,2.59-.72,2.48-2.51-1.35-.66-3.57-.8-3.22,1.51Zm-10.89,0c.19.05.29.21.25.5,1.01.02,1.94-.03,1.98-1-.24-1.63-2.11-.7-2.23.5Zm-145.06-.5c-.34,3.28,1.77,4.07,3.22,5.52.21.71.29,1.55.49,2.26,2.74.99,2.59,4.91,5.69,5.52.87-.63.3-1.92.25-3.01-2.16-2.58-3.54-5.95-5.94-8.29-.34-1.07-1.07-1.65-.99-2.51-1.38-.11-2.03-.41-2.72.5Zm109.91.75c.57.26.8.86,1.73.75.21-1.38-.25-2.09-1.49-2.01.08.58-.04.96-.25,1.25Zm20.05,1.26c.21-.63.33-1.35.25-2.26-.53-.46-1.81-.17-2.72-.25-.21,1.88,1.1,2.23,2.47,2.51Zm39.11-.5c.39,1.15,2.46,1.68,3.46.75v-2.01c-1.01-1.3-3.69-.83-3.46,1.26Zm-51.74-1.51v2.26c.58-.08.93-.4,1.73-.25-.1-.9.09-2.1-.74-2.26-.05.37-.6.23-.99.25Zm-107.93.5c.43.01.63-.19.74-.5-.39.02-.86-.04-.74.5Zm176.25,1.25c0-.5.67-.32.5-1-.63.27-.87-1.08-1.24-.25.78-.12.19,1.15.74,1.25Zm-22.77,2.26c.98.05,2.08.91,2.72.5.13-1.38.54-2.54-.5-3.77-1.21.61-2.29,1.36-2.23,3.26Zm-168.82-.75h1.48v-1.51c-.47-.28-1.17-.32-1.73-.5.03.72-.13,1.64.25,2.01Zm184.91-1.25c.36,1.4.94,2.56,2.97,2.26.36-.56.62-1.21.5-2.26-.8-.86-2.7-1.03-3.47,0Zm-46.78-.25c.29.99.29-.99,0,0h0Zm-119.31,1.25c-.28.03-.39-.37-.5,0,0,.25.43.32.5,0Zm99.76.75c-.6.84.83-.61,0,0h0Zm-120.55,1.76c-1.01-1.56-4.81-2.79-5.45,0,3.03,1.02,6.27,1.98,9.16.75-1.7-.32-1.56-1.21-3.71-.75Zm110.4-.5c.77.12.79-.54.74-1.25h-.74v1.25Zm72.78-1.25c-1.28.04-1.54,1.11-1.49,2.51.65.51,1.45.87,2.72.75-.03-.78.78-.72.49-1.76-.62-.46-.79-1.37-1.73-1.51Zm-29.7,5.02c5.69-2.16,11.44.99,14.36,4.02-.15,1.74,1.49,1.67,1.73,3.01-.1,2.88-.49,5.36,1.49,6.53-1.41,1.28-3.54,3.1-5.69,1.51-.68.4-1.64.52-2.72.5-2.33-1.59-5.97.56-8.91,1.26-.61.85-.17,1.28-.74,2.26-.6.22-1.07.58-1.98.5-.57,1.63-2.32,3.3-1.98,5.02,2.08.48,4.72-.99,6.93-.5.36.8.85,1.48.74,2.76-2.8,2.87-7.55,3.56-12.62,3.52-1.84-.72-3.63-1.51-5.44-2.26-.71-1.04-1.12-2.38-2.97-2.26-1.05,3.35,3.07,3.57,2.97,6.78,2.89,3.01,7.92,4.17,13.37,3.26.64.27.92.91,1.73,1,.88-.36,1.55-.94,2.48-1.25h1.49c3.82-1.57,7.45-3.32,10.4-5.78.24-.67.54-1.29.74-2.01.99-.84,2.26-1.39,3.22-2.26.22-4.21,2.05-6.79,2.47-10.8-.31-.94-1.67-.82-2.23-1.51.06-.55,1.66-.8,1.98-.25,1.04.05.76-1.23,1.98-1,.44.47.88.94,1.24,1.51-.23,4.18,2.49,10.48-.74,13.06-.78.52-1.38-.23-1.98.25-.48.67,1.05.98.5,2.51-2.63,3.95-5.21,7.94-8.91,10.8-.07,1.51-1.11,2.06-.99,3.77-.93.31-1.4,1.09-1.98,1.76.03,1.79-.39,3.13-.5,4.77,1.01-.19.85.81,1.98.5,2-1.07.93-5.25,3.96-5.27-.3-2.33,1.05-2.38,1.98-3.77.46-.68.6-1.61.99-2.01,1.18-1.21,3.17-1.71,4.21-2.76.49-2.18,2.04-3.29,2.97-5.02.53-3.56,2.69-5.94,2.97-9.54.08-1.02-.49-2.1,0-3.26-.61-2.51-.59-5.13-.99-8.29-1.7-2.2-3.13-4.69-4.46-7.28-4.34-1.38-5.63-5.84-10.89-6.28-.66-.51-1.39-.94-2.23-1.26-4.13-.28-7.39-1.12-12.13-.5-3.28,1.95-7.02,3.42-9.41,6.28.59.92.38,2.56.25,3.52-.62-.3-.3-1.54-1.48-1.26-.52.55.39,1.08.25,2.01-3.24,1.86-6.4-.41-8.17-2.26-.61-2.75-1.76-4.98-.5-7.78-2.23-1.4-5.09.39-6.93,1.01-2.38,2.83-1.41,9.12.74,11.55,2.17.98,4.33,1.97,4.95,4.52,1.37.62,3.36.62,4.21,1.76.02.39-.03.87.5.75.06-.47-.28-.55-.25-1,2.24-1.23,6.27-1.92,9.16-1,.4-.35.78-.71,1.24-1-.12-1.22-1.44-1.21-1.73-2.26.33-3.53-1.87-4-.99-7.53,1.52.54.69-1.31,1.24-1.76,3.42-.68,5.8-1.86,9.16-1.25Zm-40.85-2.76c.31.1.51.32.5.75,1.22.06,2-.31,2.23-1.26,0-2.1-2.83-1.07-2.72.5Zm63.87-.5c-.73,2.52,2.74,2.94,2.97,1,.06-.48-.28-.55-.25-1-1.04-.65-1.52-.39-2.72,0Zm-170.56,2.01c.57-.48,1.2-.89.74-1.76-1.95-1.07-2.46,1.34-.74,1.76Zm11.63-1.76c.29.99.29-.99,0,0h0Zm100.5.25c-.11,1.12.14,1.87,1.24,1.76.38-.45.89-.77.74-1.76-.36-.37-1.62-.37-1.98,0Zm69.06,3.01c.49.34,1.41.24,1.98.5.83-.6.4-1.79,0-2.51-1.58-.26-2.24.41-1.98,2.01Zm-12.87.25c.13-.37.37-.63.5-1-.98-.31-1.33.88-.5,1Zm-39.85.5h.5c.28-.36.27-.61-.25-.75-.01.32-.32.35-.25.75Zm-133.92.25c.02,1.53,1.85,2.29,2.97,1.26.07-1.58-1.25-1.74-2.47-2.01-.02.39.03.87-.5.75Zm181.7,0c-.08.92.04,1.63.25,2.26h1.73c1.34-1.52-.33-3.65-1.98-2.26Zm-5.7,1.76c-.16-1,.94-.72,1.73-.75.12-1.04-1.16-.67-1.73-1,.21.66-.75,1.38,0,1.76Zm3.22-1.51c.29.99.29-.99,0,0h0Zm-172.04,3.51c.59.55,1.88.66,2.72.25-.23-1.15.62-1.21.5-2.26-1.06-2.21-4.26-.75-3.22,2.01Zm144.56.5c.54.21.84.65,1.73.5,1.64-1.43-.52-2.43,0-3.77-2.54-.48-1.87,1.52-1.73,3.26Zm5.94-2.51c.43.75-.08,1.27.25,1.76,1.58,1.05,2.86-1.02,1.98-2.51-1.17.1-1.36.08-2.23.75Zm-108.67,1c.62.04,1.2.05,1.24-.5-.57-.17-.66-.83-1.24-1-.46.45.2.64,0,1.51Zm71.05-.25c.39-.37.27-1.12-.5-1-.07.57.06.94.5,1Zm19.8,0c.63-.03.96-.37.99-1h-1.24c-.06.48.28.55.25,1Zm-68.07,1.51c.95.2.95-1.2,0-1v1Zm75.25,2.26c.97-.23.92-.55,1.98-.25.86-.97.67-3.39-1.24-3.01-.58.75.15,2.83-.74,3.26Zm-92.58-2.51h.49v-.5h-.49v.5Zm107.93,1.26c.36.14.6.39.74.75,1.23-.09,1.7-.95,1.48-2.51-1.62-.31-2.09.56-2.23,1.76Zm-47.03-.5c.95.2.95-1.2,0-1v1Zm76.98-.25h.74v-.75h-.5c-.01.32-.32.35-.25.75Zm-119.07,1c.7.21.64-.35,1.24-.25.1-.86-.07-1.43-.99-1.26.18.77-.43.74-.25,1.51Zm45.05-.25c.83.17.91-.42.99-1-.32-.01-.34-.32-.74-.25-.21.29-.33.67-.25,1.26Zm61.39-.5c.66.17.48-.52.74-.75h-.74v.75Zm6.93,1.76h1.73c.49-.92.57-1.31.25-2.51-2.03-.55-2.69,1.04-1.98,2.51Zm-119.81-2.01c-.25,1.39.1,2.65,1.49,3.01,2-.64.34-4.1-1.49-3.01Zm-65.35,3.26c.17,1.08,1.19,1.3,1.48,2.26-.89,2.86-3.16,4.33-2.72,8.54.79,1.12,1.56,2.27,2.97,2.76,1.74,0,3.54-.08,4.7.5.27,2.62-1.46,3.2-2.72,4.27-1.18,1.89-2.23,3.93-3.46,5.78.28,2.38-1.32,2.84-1.73,4.52.24,1.92-.41,2.94-.74,4.27,1.19,1.25,1.25,3.98,1.98,6.03.35.98.99,1.25.99,2.26,0,1.09-.54,1.8-.99,2.76.66,1.07,1.68,2.02,2.23,3.26.45,1.02.37,2.24.74,3.26.72,2.01,2.5,3.47,2.72,5.52-.68,1.87.31,2.63.49,4.27-1.66,1.33-3.19,2.79-5.2,3.77-1.08.17-1.98-1.16-2.97-.25,1.2,1.96,4.07,2.24,7.18,2.26,1.75-1.24,2.03-3.96,4.21-4.77-.1-2.27.6-3.75.74-5.77-2.08-4.09-3.32-9.02-4.46-14.06,2.17-2.08,5.88.32,8.17-1.76-.46-1.63-2.24-1.92-3.46-2.76-1.13-3.61-3.57-6.12-3.47-10.29.49-1.01.94-2.06.74-3.77,2.28-2.46,5.1-4.38,7.18-7.03.55-.94,1.11-1.88.99-3.51-3.13-1-6.42-.24-9.66-1.51-1.75-1.83-1.97-5.2-2.72-8.03,1.01-1.07.72-3.46.74-5.52-2.29-1.02-3.53,1.07-3.96,2.76Zm60.15,0c1.17.26,1.25-.58,1.73-1-.12-.73-.89-2.09-1.73-1.26.65.43-.35,1.3,0,2.26Zm120.31-.25c1.71.15,2.77-.37,2.47-2.26-2.05-.59-2.56,1.5-2.47,2.26Zm-173.77,3.01c2.39-.68,5.86-.25,5.94-3.26-1.08-.41-1.41-1.59-2.72-1.76-.09,2.67-1.93,3.56-3.22,5.02Zm45.3-2.76c.46-.49.08-1.55-.25-2.01-.69.21-1.35,2.29.25,2.01Zm17.82-.5h.5c.01-.32.32-.35.25-.75h-.74v.75Zm-75.99,2.26c1.36.3,1.21,2.12,3.22,1.76.05-.28.27-.39.49-.5.3-1.56-.56-1.94-.49-3.26-1.69-1.65-2.79.33-3.22,2.01Zm62.88-1.51c.25-1.17-.43-1.4-1.49-1.25-.13,1.05.83,1,1.49,1.25Zm100.75,1.51c.65-.43,1.24-.92.99-2.26-1.89-1.98-3.23,1.9-.99,2.26Zm-141.84-2.01v.75c.93.19,1.21-.28,1.24-1-.57-.08-.95.04-1.24.25Zm128.23.25c-.4.81.14,1.31.99,1.51-.21-.66.75-1.38,0-1.76-.05.37-.6.23-.99.25Zm7.18,1.76c.87.03,1.11.72,1.98.75.48-.56.22-1.89,0-2.51-1.36-.13-2.07.41-1.98,1.76Zm30.7-.5h.5v-.5h-.5v.5Zm-110.9,1.76c1.5.04,1.21-2.53-.5-2.01-.14.98.21,1.46.5,2.01Zm49.51,0c.02.39-.03.87.49.75v-2.01c-.76.19-.47-.69-1.24-.5-.67.75.14,1.53.74,1.76Zm-67.09,3.01c.64-.02.26-1.07,1.24-.75-.21-1.04.57-3.09-.74-3.01-.77-.08.63.73-.25.75-.65-.18-.24-1.43-.99-1.51-.1,1.43-.79.06-1.73.25-.38.36-.22,1.29-.25,2.01.49.43,1.53.29,1.98.75-.08.58.04.96.25,1.26h-.25v.25h-.5c-.21.95.82,1.18.25,1.76-.73-.99-1.38.22-1.73,1,.72.19.48,1.36,1.48,1.26.21-1.21.69-2.15,1.48-2.76-.46-.04-.15-.85-.49-1h.25v-.25Zm5.2-3.01c.61.03,1.19.04,1.49-.25.1-.61-.45-.55-.25-1.26h-1.24v1.51Zm-46.29,0h1.48c-.2-.71.35-.65.25-1.25-1.15-.16-1.89.09-1.73,1.25Zm7.67.25c.2-.47.42-.92.5-1.51h-.74c.14.44-.3,1.47.25,1.51Zm143.82,0c.21-.29.33-.67.25-1.25h-1.24c-.19.94.28,1.22.99,1.25Zm20.05,1.51c1.21.22,1.64-.34,2.48-.5-.19-.95.3-1.2.25-2.01-1.08.18-1.39-.43-2.48-.25-.46.54-.17,1.84-.25,2.76Zm-184.17-2.26c-.28.03-.38-.36-.5,0,0,.25.43.32.5,0Zm63.62,2.26c.79.04.74.93,1.49,1,.76.19.48-.69,1.24-.5v-2.01c.47-.34,1.1.29.99-1-1.04.6-4.06-.6-3.71,2.51Zm83.42-.25c1.74.24,2.16-.98,1.73-2.26h-1.98c-.08.92.04,1.63.25,2.26Zm-128.72-1c.43.01.64-.19.74-.5-.39.02-.86-.03-.74.5Zm50.75-.25c.29.99.29-.99,0,0h0Zm119.81-.25c.33,1.24,1.17.39,0,0h0Zm-196.05,2.76c.38,1.54,1.24,2.59,2.97,2.76,3.16-1.7-1.73-6.18-2.97-2.76Zm132.68-.25c-.72-.52-3.06-.71-3.46.5-.4,1.22,1.7,4.28,2.48,4.27.64-.01,1.4-1.78,1.98-2.51-.71-.69-.33-1.79-.99-2.26Zm-70.05.5c.57.07.93-.06.99-.5-.44.06-1.24-.25-.99.5Zm-46.54.5h.74v-.75h-.74v.75Zm132.44-.5c-.6.84.83-.61,0,0h0Zm-73.77.5h.74v-.5h-.74v.5Zm29.95,35.9c-.58-2.26-3.62-2.02-4.21-4.27-.09,1.93-2.85.52-3.71-.25-.85,1.1-2.47.48-3.47,1.76-.14,1.79-1.52,2.3-1.49,4.27,3.22.68,9.48-.26,9.66,4.27-.36.47-1.6.06-1.49,1,.78.63,1.66.03,2.23.5.68,1.9.86,4.32,2.23,5.52,1.15,0,2.64-.33,2.23,1.26-.21.71-1.52.3-1.98.75-.78,4.99-1.18,10.35-3.22,14.06-.04,4.79-.91,9.92-2.23,13.81-.97.19-2.09,1.56-2.97,1-.21-1.63,1.34-1.48,1.48-2.76-.74-4.35-3.45-6.71-3.96-11.3-.68-.99-1.32-2-1.98-3.01-.15-2.39-1.76-4.54-1.48-6.53-1.88-.94-3-2.65-3.71-4.77-1.66-1.41-2.59-3.56-3.47-5.77-.25-1.17.99-.83.74-2.01-.85-.19-.31,1.02-1.24.75-2.62-2.95-4.99-7.49-4.7-12.55-.71-1.71-1.86-2.96-1.98-5.27-1.05-.9-2.42-4.5-.74-5.77,1.39-.24,1.68.64,2.72.75,2.94.17,4.88-.51,6.68-2.01.28-1.47,1.29-2.2,2.48-2.76-.51-3.1.87-5.38.74-7.28-2.4.58-4.75,1.98-6.93.25-.71-.98-.14-2.13,0-3.51,2.39-1.26,4.78-2.52,6.19-4.77-2.83-1.38-5.67-1.17-9.41-.75-1.66,1.99-3.54,3.78-5.45,5.52-.08,1.84-.5,3.34-.5,5.27-.05,1.05,1.22.78.99,2.01-.38.71-1.6.55-1.98,1.25-1.09,2.47-.18,5.52-.99,8.04,1.64,1.85,2.86,4.12,3.47,7.03-.6.78-1.06.15-2.23.25-.27-.47-.32-1.19-.5-1.76-3.2-1.77-4.01-5.98-6.93-8.03-.42-1-1.17-1.66-1.49-2.76-1.5-.2-2.14-2.45-3.47-2.01-.37,1.92-.88,4.21-.25,5.77,1.17.49,1.86,1.46,2.97,2.01.71,1.62,1.61,3.06,3.46,3.52,1.41,3.43,5.22,4.42,5.69,8.79,3.8,2.09,6.3,5.5,7.92,9.79,1.98.67,2.8,2.52,3.22,4.77-.22.44-.55.78-.99,1-1.65-.97-2.7-1.72-5.45-1.51-1.49.12-3.45-.34-4.95-.25-1.04.06-2.08.64-2.97.75-2.05.25-3.75.18-4.95,1.25-.75,2.3-3.4,6.94.25,8.03,1.43-2.15,3.37-3.78,5.2-5.52.92.5,1.75-.06,2.48.25,1,2.33-.29,5.6,2.72,6.03,1.49-.5,2-1.99,2.48-3.52,1.33-.32,2.03-1.29,3.22-1.76,1.48.64,2.11.6,3.96.75.88,1.45,3.22,1.42,3.96,3.01.5,1.67,1.46,2.87,1.49,5.02.88.27,1.46.86,1.73,1.76.04,3.31.65,6.04,1.98,8.04-.07,1.91.96,3.19,1.49,4.77.43,1.3.25,2.77,1.49,3.26,1.33.17,1.08-1.24,2.23-1.25,1.4.84,3.46.55,5.2.5.7-1.04,1.37-2.12,1.98-3.26,2.96-1.43,4.37-4.44,6.93-6.28,2.86-1.36,5.52-2.93,9.65-3.01.45,1.03.27,2.73-.25,3.52,1.8,2.61,1.63,7.22,4.95,8.29,3.53.36,5.38,1.98,9.41,1.26-1.84-2.49-5.95-2.67-5.69-7.28,2.23-1.82,3.15-.59,5.2.5,1,.53,1.27,1.21,2.23,2.01.37.31,1.02.2,1.49.5,1.08.69,1.36,1.53,2.23,1.76,1.71.46,3.4-.4,5.45.5-.12.9-.4,1.45,0,2.26,1.05.15.18-1.65,1.24-1.51.48.1.02,1.15.99.75.07-1.07-.76-1.24-.5-2.51,1.31-.43,2.07-1.41,3.22-2.01.65,0,1.55.23,1.24-.75-2.27-.15-4.9-.11-6.68.25-2.69-1.29-3.9-4.07-6.93-5.02-.63-2.37-3.73-2.24-4.21-4.77-1.89.16-2.31-1.18-3.22-2.01-.04.55-.62.54-1.24.5-3.21-1.73-7.53-3.01-11.64-1.26-1.01.19-.85-.81-1.98-.5-1.78,1.55-4.25,2.38-5.45,4.52-1.16.08-1.62.87-2.72,1-.88.95-1.28,2.39-2.72,2.76-1.36-5.72,2.52-8.08,2.23-14.06.11-.8.94-.88.99-1.76.2-3.98,1.8-6.29,3.22-9.54,1.2-.28,1.95-1.04,2.23-2.26-1.19-1.69-1.39-3.94-.74-6.53-1.27-.72-1.61-2.38-2.72-3.26.41,1.67-.81,1.69-.99,2.76.36,3.55-.84,5.56-1.98,7.53-.43.74-.22,1.97-1.24,2.01-2.08-1.94.21-6.66-1.24-9.54l.12-.12-.12-.13c.5-.09.77.05.74.5,1.52-.26.84-1.41,1.24-2.51-.44.03-.52-.31-.99-.25-.12.79.45.89.25,1.76-1.24.5-1.36.38-1.36.38l-.12.12Zm49.26-35.65c-.21,1.49.14-1.01,0,0h0Zm38.37.25c1.84.07-.28,2.69-.99,1.76.32,1.01.77,1.9,1.73,2.26,2.01-.19.75-2.7,1.24-4.02-.75.03-1.69-1.04-1.98,0Zm-129.71.75c.61-1.56-.78-.83,0,0h0Zm83.92.5h1.49v-1.26c-.51.15-1.63-.31-1.73.25.37.22-.07.38.25,1Zm-76.24-.25c.72.37.72-1.12,0-.75v.75Zm80.7,2.01c.35.06.28.55.49.75h1.73c.71-1.36-.67-2.11,0-3.51h-.74c.15,1.57-1.84.98-1.48,2.76Zm-87.38-1.76v.5c.61.39.73-.85.25-.75-.01.15-.04.3-.25.25Zm-58.42,2.01c.42-.87.33-2.2-.99-2.01-.02,1.03.03,1.97.99,2.01Zm66.09,2.76c.38-3.31-1.71-4.12-4.21-4.52-1.13,3.27,1.54,7.23,4.21,4.52Zm65.35-3.26h.5c0-.25.2-.3.25-.5-.32-.01-.34-.32-.74-.25v.75Zm4.95,2.26c.58-.08.93-.4,1.73-.25.5-.92.04-1.5-.25-2.26-1.55-.31-2.14,1.39-1.49,2.51Zm-81.94-1.51c-.28.03-.38-.36-.49,0,0,.25.43.32.49,0Zm2.23,0c-.25.84.77.39,1.24.5.04-.73-1-.76-1.24-.5Zm-58.42.75c-.65-.26-1.52-.3-2.48-.25-.12,1.35,2.47,1.86,2.48.25Zm85.4,1.51c.05-.19.21-.29.49-.25-.28-.55-.28-1.39-.99-1.51-.04.79,0,1.52.5,1.76Zm58.42,0c-.25,1.3-.11,1.43-.25,2.76.91.08,1.38-.28,1.98-.5v-2.51c-.78-.12-.87.45-1.73.25Zm33.17,0c-.9,1.19,1.45.33,0,0h0Zm-92.09,1.26c.72.07.95-.97.25-1-.08.34-.35.48-.25,1Zm-30.2,1.25c.27.81.79,1.38,1.98,1.26.76-.53.55-2.17,0-2.76-1.24-.09-1.69.62-1.98,1.51Zm86.64-1.25c-.28.03-.39-.36-.5,0,0,.25.43.32.5,0Zm-143.82,1h.74v-.5h-.74v.5Zm55.45-.25c0-.25-.43-.32-.49,0,.05.3.28.16.49,0Zm79.96,1.26v-1.51h-.99c-.1.94.2,1.47.99,1.51Zm-131.2-1.26c-.39.94-1.54,1.12-1.73,2.26.37.62.48,1.52.5,2.51.93.56,2.02.96,3.71.75,1.31-2.51-.37-4.56-2.48-5.52Zm62.38,1.76c-.77-1.16-1.41-1.96-3.22-1.51-2.1,2.14.39,5.82,1.49,7.78,1.48-1.18,1.47-3.87,1.73-6.28Zm23.52,1c.7.31,1.53.31,2.23,0-.08-1,.44-1.39.25-2.51-1.88-1.21-3.28.96-2.47,2.51Zm99.76,0c2.67,2.19,4-3.23.25-2.51-.26.66-.3,1.54-.25,2.51Zm-41.09-.5c.22-.52-.64-1.13-.74-.5.35.06.42.41.74.5Zm3.47,1.51c.29-.3.28-.89.25-1.51-1.46-1.17-2.27,1.88-.25,1.51Zm-95.06,2.01c-.6.84.83-.61,0,0h0Zm34.66,3.01c.81.47,1.31.51,2.72.75.97-1.18,2.46-.75,3.96-1,0-.59-.42-.74-.25-1.5h-1.24c-.11.48.76,1.08-.25,1-.17-3.51-4.93-2.53-4.95.75Zm46.29-2.76c-.6.84.83-.61,0,0h0Zm50.75,1.76c.98-.32.51-2.41-.74-2.01-.28.7-.28,1.95.74,2.01Zm3.46-1.51c.08.59.3,1.04.5,1.51.8-.15,1.15.17,1.73.25.66-1.68-.82-2.81-2.23-1.76Zm-192.83,3.26c.44.98.98,1.85,2.23,2.01,2.69-2.64-1.18-6.45-2.23-2.01Zm176.5-1.51h.5c.01-.32.32-.35.25-.75h-.5c-.01.32-.32.35-.25.75Zm19.8,1.26c.44.22.63.7,1.49.5.18-.58.63-1.88-.5-1.76.1.86-.74.75-.99,1.26Zm-6.19.5c.25.83.69,1.48,1.73,1.51.32-.46-.22-1.27.25-2.01-.94-.12-1.58.07-1.98.5Zm-169.07-.25c-.75.85.92.76,0,0h0Zm173.03,1.76c.7-.3,2.42-.88,1.73-1.76-.2.97-1.53.79-1.73,1.76Zm-169.56-1c.29.99.29-.99,0,0h0Zm147.78.5c.49.46,1.82.37,1.49-.75-.88-.13-1.28.21-1.49.75Zm-81.94,2.51c.32-.76.99-1.17.74-2.51-1.82-1.88-2.81,2.27-.74,2.51Zm105.7-2.26c-.19.06-.49,0-.49.25.19-.06.49,0,.49-.25Zm-97.28,2.51c.98-.01,1.47-.51,1.48-1.51-1.03-.97-2.37.53-1.48,1.51Zm69.56-.5c-.14,1.39.24,2.27,1.48,2.26,1.05-.36,1.06-1.77.99-3.26-1.09.06-1.49.84-2.48,1Zm16.83,1.25c.98.16.99-.67,1.98-.5v-1.51c-.8.15-1.15-.17-1.73-.25-.42.42-.2,1.47-.25,2.26Zm12.13-1.51c.55.53,1.63.18,1.73-.5-.29-.29-.87-.29-1.48-.25.01.34-.12.55-.25.75Zm-177.49,3.01c.48-.6,1.47-.68,1.24-2.01-1.92-1.2-3.02,1.39-1.24,2.01Zm70.3-1.26c.72.37.72-1.12,0-.75v.75Zm3.71,0c.24,1.01.96,1.54,2.23,1.51.34-.49.24-1.43.5-2.01-.96-.72-2.09.11-2.72.5Zm95.8,1.51c.35.07.28.55.49.75.58.4,1.97-.05,2.48-.5.08-1,.01-1.86-.5-2.26-1.64-.16-2.13.85-2.47,2.01Zm3.46-1.26h.5v-.5h-.5v.5Zm-39.85-.25c-1.22,1.24-.08,3.3,1.24,3.52.45-1.74.93-3.1-1.24-3.52Zm42.08.75h.74c0-.35.12-.55.25-.75h-.99v.75Zm-109.41-.25v1.26c.6.25.53.08,1.48.25-.29-.63-.12-1.72-.99-1.76-.05.2-.21.29-.5.25Zm15.59,3.01c.64.5,1.92,1.06,2.48.25.05-1.3-1.01-1.49-.74-3.01-.85.64-1.83,1.16-1.73,2.76Zm46.79-2.26c.35.07.28.55.49.75.72-.11,1.13-.53,1.24-1.25-.62.45-1.4-.48-1.73.5Zm33.66,2.01c1.38.14,2.24-.24,2.23-1.51-.81-2.34-4.48-.03-2.23,1.51Zm12.87-2.01c-.33,0-.23-.44-.5-.5-.6.29.28,1.18.5.5Zm-138.38.75c.56.07.93-.06.99-.5-.56-.07-.93.06-.99.5Zm.99,1c.93.11,1.13-.53,1.49-1-.64-.57-1.4.25-1.49,1Zm20.79-.5c-.12.79.45.89.25,1.76,1.43.02,2.68-.12,3.47-.75.29.07,1.03,1.11.99,0-.11-.56-1.22-.1-1.73-.25-.29-.37-.29-.63,0-1-1.11-.47-2.21-.67-2.97.25Zm79.21,2.26c.82,0,1.23-.42,2.23-.25.21-.96.66-1.68.99-2.51-1.95.03-3.28.69-3.22,2.76Zm6.19-.5c.47.7,1.06,1.27,2.23,1.26.49-.59.57-1.6.5-2.76-.96-1.27-3.3-.85-2.72,1.51Zm-162.64-.25c.39.94.86,1.8,2.23,1.76.75-.33.98-1.18.99-2.26-.81-.69-3.17-1.39-3.22.5Zm55.2-.75h.74v-.5h-.74v.5Zm40.85,1.51c.89.15,1.2-.29,1.73-.5.16-2.12-1.84-.82-1.73.5Zm84.16-1.25c-.47.06-.55-.28-.99-.25-.35,1.12,1.14,1.36.99.25Zm-122.53,3.51c.58.41.87,1.12,1.73,1.26,1.33-1.25.38-3.62-.74-4.52.34,1.77-.73,2.11-.99,3.26Zm26.24-.5c1.62.31,2.09-.56,2.23-1.76-1.02-1.71-3.39-.14-2.23,1.76Zm5.45-.25c1.23-.16,1.31.85,2.72.5-.31-1.11-.66-2.18-1.48-2.76-.61.55-1.1,1.23-1.24,2.26Zm64.61-2.01c-.28.03-.38-.37-.49,0,0,.25.43.32.49,0Zm31.19.5c.39.94,1.04,1.62,1.73,2.26,1.01-.23,1.46-1.03,1.24-2.51-.99-.74-2.19-.44-2.97.25Zm-34.16.75c-.33,1.51,1.07,1.26,1.24,2.26,1.51-.07,1.12-2.99.49-3.26-.25,1.18-1.04.27-1.73,1Zm41.34,2.01c.69.3,1.71.28,2.72.25.02.39-.03.87.5.75.45-.8-.36-2.47-.74-3.26-1.65-.49-2.7.21-2.48,2.26Zm-12.38-1.51c-.81-.08-1.21-.8-1.98-.5-.8.31-.74,1.05-.74,2.51,2.08-.47,3.38-.55,5.2.25.04-.88,1.22-.6.99-1.76-.77-1.04-2.45-.4-3.46-.5Zm17.57,2.51c-.43-.57.1-2.1-.74-2.26-.23.68-.72,2.6.74,2.26Zm-42.58,0c.35.98,1.71,1.26,2.48.5-.37-.96-.36-2.31-1.49-2.51-.16.84-1.21.79-.99,2.01Zm-71.79,3.01c-1.48.33-1.55-.77-1.98-1.51,1.84-2.13-1.39-4.96-1.98-1.76,1.27,1.79,2.03,2.96,1.24,5.52.65.93,1.38,1.79,3.22,1.51.5-1.11.3-1.67.25-3.01-.22-.11-.44-.22-.49-.5l.12-.13-.12-.12c.93-.11.58-.42,0-.5,0,.5-.12.38-.12.38l-.12.12Zm115.85-3.51c.52-.95-1.45-1.18-.74-.75.59-.1-.14,1.14.74.75Zm-38.12,1.76c.75.25,1.1.89,2.23.75.84-.58.96-3.04-.49-3.26-1.2.21-1.44,1.38-1.73,2.51Zm-55.94,0c.89.59,2.46.09,2.48-1-.65-1.35-2.9-1.18-2.48,1Zm-18.81,1.51c.71-.03,1.62.14,1.98-.25.26-1.6-.52-2.15-1.24-2.76.08,1.34-1.22,1.27-.74,3.01Zm4.7-2.51c.29.99.29-.99,0,0h0Zm94.56,2.51c.79.2,1.25.74,2.23.75,1.02-1.13.61-2.48-.25-3.52-1.84-.27-2.09,1.06-1.98,2.76Zm-186.65-1c.76.75,2.61.54,2.72-.75-.46-1.41-2.81-.62-2.72.75Zm84.41-.5v-1c-.95-.2-.95,1.2,0,1Zm113.13-.5c-.11.68-.13,1.97-.25,3.26.47.52.78,1.22,1.24,1.76.7-1.73-.16-2.27.25-4.52-.57-.11-.66-1.11-1.24-.5Zm-21.29,1.76c1.17.74,2.18-.55,2.48-1.51-1.03.29-2.42.22-2.48,1.51Zm4.7-.25c.45.8,1.06,1.44,1.98,1.76.78-.54.57-2.41,0-3.01-1.22-.14-1.83.33-1.98,1.25Zm14.36-.25c-.7.1-2.39-.13-2.23,1.51.67.75,1.42,1.41,2.23,2.01.64-.75-.07-2.89,0-4.02v.5Zm-38.62.75c.24,1.01.96,1.54,2.23,1.51.21-.54.64-.86.49-1.76-1.05-.8-1.82-.28-2.72.25Zm-132.44.25c.88-.21-.61-1.33-.74-.5.22.11.44.22.5.5h-.25v.25c-.04.71.61.72,1.24.75.4-.99-1.07-.09-.99-.75h.25v-.25Zm35.4,1.26c.41.59,1.44.54,2.47.5.04-.29-.04-.71.25-.75.16-1.54-3.31-1.99-2.72.25Zm104.21-.75c.39-.02.86.03.74-.5h-.5c0,.25-.2.3-.25.5Zm-98.77,2.51c.8.14,1.15-.17,1.73-.25-.03-.72.14-1.64-.25-2.01-1.72-.43-2.04,1.12-1.48,2.26Zm130.95-1.76h.49v-.5h-.49v.5Zm-34.91,2.76h1.24c.68-.45.58-1.98.25-2.76-1.92-.4-2.25,1.88-1.49,2.76Zm-136.64-2.01c-.68.76.75-.69,0,0h0Zm33.66,1.25c.32-.33.15-.76-.25-1,.04.38-.09.93.25,1Zm115.36-.75c-1.21.28-1.42,1.58-2.72,1.76-.95-.38-1.77-.88-2.97-1-1.77,2.96,1.54,4.68,1.24,7.78,1.09.82,2.15,1.66,3.46,2.26.74,2.51,3.38,3.09,5.45,4.27.8-.06,1.05.44,1.98.25,0,.5.68.32.5,1,.85-.64,1.91.1,2.97,0,3.46-.31,7.11-1.98,9.41-3.51.99.75,1.93,1.56,3.46,1.76.5-1.14.8-3.22,0-4.27-1.49.25-1.41,2.08-2.72,2.51.08-1-.44-1.39-.25-2.51-2.1-1.96-3.9.67-5.2,1.76-.87-.12-1.61-.38-2.72-.25-.74-.75-1.79-1.2-1.98-2.51-1.26-.48-3-.47-2.72-2.51.77-.39.89-1.44,2.23-1.25.43-1.44,2.06-2.87,1.73-4.27-.34-.74-1.79-.36-2.48-.75.22,2.56-3.29,1.35-4.95,2.01-.82-1.26-1.95-2.21-3.71-2.51Zm14.6,1.51c.44.9.75,1.92,1.98,2.01.5-.42,1.15-.67,1.24-1.51-.73-.76-1.43-1.56-2.48-2.01-.1.65-.74.76-.74,1.51Zm-124.51-.5h.74v-.75h-.49c-.01.32-.32.35-.25.75Zm118.08,0c.17-.68-.51-.49-.74-.75-.15.65.1.9.74.75Zm-178.98,1.76c.04-.29.39-.27.74-.25-.24-.68-.11-1.73-1.24-1.51-.26.29-.11,1.59.49,1.76Zm83.42-1.51c-.28.03-.38-.36-.5,0,0,.25.43.32.5,0Zm.99,2.01c.94.03,1.33-.49,1.49-1.26-.47-.36-.71-.95-1.49-1-.65.44-.65,1.82,0,2.26Zm110.65-1.51c0-.25-.44-.32-.5,0,.28-.03.38.37.5,0Zm-3.71.5c-1.01,1.02-.55,3.78.99,3.77.92-.57,1.6-1.39,1.49-3.01-.58-.5-1.66-.5-2.47-.75Zm-127.24,3.51c-.5-.92.25-.76.99-1v-1.76c-.78.04-.83-.67-1.73-.5-1.07.94-.19,2.83.74,3.26Zm-47.28-1.51c1.29.19.68,2.32,1.24,3.26,2.87.63,3.04-3.24,1.48-4.27-1.34-.1-2.23.25-2.72,1Zm39.11.25c1.01-.08.71-1.11,0-1.25v1.25Zm1.24.75c1.26.65,2.61,0,2.47-1.51-.49-.34-1.41-.24-1.98-.5-.28.55-.64,1.03-.5,2.01Zm35.4.75c.11-.86-.1-1.41-.25-2.01-2.66-2.14-2.88,2.78.25,2.01Zm67.58.5c.41.33.83.66,1.73.5.3-.68.62-3.22-.25-3.52-.18,1.32-1.75,1.23-1.48,3.01Zm-157.68-1.51c.29.99.29-.99,0,0h0Zm91.34.5c-.6.84.83-.61,0,0h0Zm-10.64,2.76c.95-.21,1.86-.46,1.98-1.51-.25-1-1.08-1.41-2.48-1.25,0,1.1.22,1.96.5,2.76Zm32.18-2.51c-.54.57-.29,2.46.25,2.76.81-.43,1.41-1.08,1.49-2.26-.48-.3-1.26-.96-1.73-.5Zm-50.99.5c-.28.03-.38-.36-.5,0,0,.25.44.32.5,0Zm3.22,1.76c1.07.51,2.7.29,2.72-1-.42-1.52-3.33-1.3-2.72,1Zm113.13-1.25c.01-.43-.19-.64-.5-.75-.35.37-.36.97.5.75Zm-82.93,1.25c-.3-1.1-1.13-2.34-2.23-1.25-.13,1.05.43,1.4.5,2.26h1.24c0-.43.18-.65.5-.75v.25h.25c.87.15.43-.9,0-.25v-.25h-.25Zm14.36-.75c.47.11.62.54,1.24.5.1-.81-1.05-1.43-1.24-.5Zm-24.01,1c.09.83.74,1.09,1.24,1.51.64-.53.91-1.42.74-2.76-1.1-.03-1.85.3-1.98,1.25Zm-85.4-.75c-.19.06-.49,0-.5.25.19-.06.49,0,.5-.25Zm68.82.75c.07-.66-.34-.82-.99-.75-.07.66.34.82.99.75Zm41.59,1c-.23-.61-.64-1.02-1.24-1.26-.06.89.36,1.31,1.24,1.26Zm-93.32,0c.33.33.92.33.99-.25-.33-.33-.92-.33-.99.25Zm36.39,2.51c1.02.05.93,1.23,1.73,1.51.15-.89.35-1.39.5-2.76-.3-.62-.85-.98-1.48-1.25-.64.44-.42,1.75-.74,2.51Zm-49.51-2.26c-.75.85.91.76,0,0h0Zm78.97,2.76c.91.08,1.38-.28,1.98-.5.18-.77-.25-.91-.25-1.51-1.57-1.25-3.16.93-1.73,2.01Zm25.5-.25c.67.32,1.38.61,2.47.5.46-2.24-3.04-3.7-2.47-.5Zm9.9-1.51h.49v-.5h-.49v.5Zm-102.24,5.02c2.32.18,4.11-5.18.99-5.27-.31,1.79-1.19,3.71-.99,5.27Zm99.76-5.02c-.52.6.06,1.61.25,2.26.84-.07,2,.19,2.47-.25-.07-1.41-1.2-2.88-2.72-2.01Zm-27.73.75c.29.99.29-.99,0,0h0Zm1.73,0c.08.59.39.94.25,1.76,1.93.13,2.78,1.37,4.95,1.25.08-.59.86-.47.74-1.25-.65-2.3-3.76-1.66-5.94-1.76Zm-89.36.25c-.12.79.31,1.03.74,1.25.29-.3.28-.89.25-1.51-.47-.06-.55.28-.99.25Zm111.64,1c.08-.34.35-.48.25-1h-.74c-.07.57.06.94.5,1Zm-.74,3.26c.89,1,1.44.87,3.22.75.06-.2,0-.5.25-.5.06-1.83-2.21-2.18-.99-3.77-2.31.22-1.22,2.47-2.48,3.52Zm-24.51-.25c1.27.6,2.4-.39,2.23-2.01-.85-.18-1.16-.16-1.98-.75-.3.7-.27,1.73-.25,2.76Zm19.31-.25c.66.67.83,1.83,2.48,1.51,1.04-.96.39-3.23-.99-3.26-.48.6-1.39.77-1.49,1.76Zm-106.19-1.26c-.19.06-.49,0-.5.25.19-.06.49,0,.5-.25Zm120.31,2.76c.47.11.62.54,1.24.5.6-.39.93-1.07.99-2.01-1.23.24-.98-1.02-1.73-1.26-.3.78-.58,1.59-.49,2.76Zm-120.55-1.26c-.2,1.54.63,2.04,1.98,2.01.12-.84.95-1.87.5-2.51-.71-.27-1.88-.04-2.48.5Zm188.38,0v-.5c-.46-.84-1.21.75,0,.5Zm-3.22,4.27c-.37.88-1.44,1.04-1.48,2.26.16.76.55,1.28,1.48,1.25.51-.08.49-.68.99-.75-1.34-2.21.53-3.67,1.24-5.27-1.44-2.33-3.34.19-2.23,2.51Zm6.93-3.01c-1.65-.58-3.33,2.49-1.98,4.27.99.08,1.37-.45,2.48-.25.69-.96.8-3.64-.5-4.02Zm-21.29,1c.17-.19.62-1.23-.25-1,.04.38-.09.93.25,1Zm-47.28,1.26c.85.04,1.82-1.37.74-1.76-.25.58-.85.81-.74,1.76Zm-18.07-1c.42.01.63-.19.74-.5-.39.02-.86-.03-.74.5Zm9.9,1.51c.42.33.83.67,1.73.5.49-.52.19-1.67,0-2.26-1.3-.15-1.42.9-1.73,1.76Zm-26.24,0c.45.55.9,1.1,1.98,1,.49-.52.19-1.67,0-2.26-.9-.43-2.04,0-1.98,1.25Zm-91.59-.25c.1.42,1.45.84,1.73.25.02-.82-1.69-1.69-1.73-.25Zm109.91,0c.01-.15.04-.3.25-.25-.03-.31-.08-.59-.5-.5.04.3-.04.71.25.75Zm-45.8-.25c0,1.18-.22,2.56.99,2.51.94.12.5-1.16,1.73-.75v-1.76c-.51-.39-2.22-.39-2.72,0Zm48.77,2.26c1.3.15,2.09-.22,2.23-1.26-.2-1.14-1.21-1.44-2.72-1.25-.04,1.05-.09,2.09.5,2.51Zm66.59-2.26c.29.99.29-.99,0,0h0Zm2.48,2.51c1.75.35,1.82-1,1.98-2.26-.43-.66-1.73-.59-2.48-.25-.43.86-.13,1.8.25,2.51h-.25v.25c.17,1.42.23,2.95,1.73,3.01.34-.32.25-1.09.25-1.76-.66-.33-1.62-.37-1.73-1.26h.25v-.25Zm-54.7-.75c.59.32.91.92,1.98.75.42-.4.61-1.05.49-2.01-.85-.49-3.13-.59-2.47,1.26Zm-19.8-.75c0-.25-.43-.31-.5,0,.28-.03.39.37.5,0Zm.74.25c-.05,1.55.3,2.71,1.48,3.01.24-.34.66-.5.99-.75,0-1.25-.21-2.29-1.24-2.51-.29.21-.66.33-1.24.25Zm-32.68.25c.4.77.58,1.76,1.73,1.76.49-.17.66-.67.74-1.25-.44-.53-2.04-.76-2.47-.5Zm47.03,1.51c0,1.12,1.33,2.21,3.22,2.01,2.45-3.53-3.21-5.35-3.22-2.01Zm9.65,2.51c.72.27.93,1.06,1.98,1,.32-.68.61-1.39.5-2.51-1.46-.87-2.4-.26-2.48,1.51Zm-51.49,1.76c1.33-1,.49-3.04-.74-3.52-1.17.9-.78,3.29.74,3.52Zm49.26-2.76h.5v-.5h-.5v.5Zm-115.11,1.25c.75.34,2.04.41,2.48-.25-.21-1.5-2.61-1.65-2.48.25Zm47.03,1c.95-.62,1.96-1.2,2.23-2.51-1.3.17-2.98,1.08-2.23,2.51Zm32.92-.25c.04-.29.39-.27.74-.25.3-.69.54-1.05.25-1.76-1.4-.46-2.45,1.26-.99,2.01Zm-93.32-1.51c-.08-.2-.66-.3-.74,0-.16.58.97.54.74,0Zm59.41.25c-.28.03-.39-.37-.5,0,0,.25.43.31.5,0Zm132.19-.25c-.79,1.21-1.78,2.21-2.72,3.26,1.18,1.35,1.13,5.95,3.96,4.02.19-1.45-.74-1.76-.99-2.76.47-1.36,1.17-2.49,1.24-4.27-.29-.29-.87-.29-1.48-.25Zm-54.96,1c.19.06.29.21.25.5.65.08.81-.35.74-1-.56-.07-.93.06-.99.5Zm-64.86,1v2.76c1.89,1.88,4.33-.3,3.71-3.26-1.46-.98-2.46.01-3.71.5Zm32.43-.5c.83.76.75-.93,0,0h0Zm-102.98,1.25c-.06-.47.28-.55.25-1-.32-.01-.34-.32-.74-.25-.39.38-.36,1.43.5,1.25Zm62.63,0c.25.59,1.35.3,1.73.75-.16,1.08.43,1.41.74,2.01,1.76.29,2.77-1.29,1.98-2.76h-2.72c-.37-.38-.07-1.43-.99-1.25h-.49c-.21.29-.33.67-.25,1.25Zm123.03,0c-.11-.47.34-1.51-.49-1.25-.38.36-.24,1.31.49,1.25Zm-116.59-.75c-.19.06-.49,0-.5.25.19-.06.49,0,.5-.25Zm23.27.75c.72.37.72-1.12,0-.75v.75Zm41.34,1.51c.34.56,1.87.74,2.48.25-.2-.8-.16-1.85-.5-2.51-1.74-.34-2.14.67-1.98,2.26Zm-132.68-1c.44-.06,1.24.25.99-.5-.56-.07-.93.06-.99.5Zm75.25,1c.08-.66-.34-.82-.99-.75-.25.84.34.82.99.75Zm106.2-.25c.37.39,1.11.28.99-.5-.46.03-.83.16-.99.5Zm-180.71,1c.63.36.7,1.3,1.98,1,.77-1.25-1.84-3.46-1.98-1Zm76.24-1.26c-.19.06-.49,0-.5.25.19-.06.49,0,.5-.25Zm58.42,1.26c.29.04.27.4.25.75,1.15-.5,3.25-.05,3.22-1.76-.93-.34-2.84.23-3.47,1Zm-127.98-.5c-.08.58.04.96.25,1.25.91.09.75-.91.99-1.51-.57-.08-.95.04-1.24.25Zm72.03,1.51c-1.98-3.18-4.24,3.27-1.98,4.27,1.26-.81,2.07-2.08,1.98-4.27Zm60.65,3.01c.46-.54.17-1.84.25-2.76-2.42-2.83-3.9,3.51-.25,2.76Zm-3.71-1.25v-1.26c-.47.06-.55-.28-.99-.25-.1.94.2,1.47.99,1.51Zm-138.87.5c.39-.36.86-.63.99-1.26-.49,0-.31-.68-.99-.5-.4.3-.9,1.59,0,1.76Zm144.56,1.51c-.24,1.79,2.08,2.66,3.22,1.51.34-2.3-2.15-2.71-3.22-1.51Zm-49.02-.25c.75.69-.67-.76,0,0h0Zm54.71.5c-.6.1-.54-.46-1.24-.25-.38.76,1.28.66,1.24.25Zm-65.85,1.51c.21-.29.33-.67.25-1.26-.91-.24-.99,1.23-.25,1.26Zm70.8-.25h.5v-.5h-.5v.5Zm-42.08,0c-.22-.19-.71.15-.74.25-.35.95,1.23.18.74-.25Zm36.64,1.51c-.22-.62-.22-1.45-.99-1.51-.56.64.14,1.53.99,1.51Zm-39.61.5c.69.45,1.96-.24,1.73-1.51-1.02.05-1.41.75-1.73,1.51Zm40.6.75c.81.18,1.58.4,2.47.5.57-.65,0-1.66-.25-2.26-1.63-.31-2.16.49-2.23,1.76Zm3.71-.75c.65.08.81-.35.74-1h-.74v1Zm39.11-.25c-.03.62-.04,1.21.25,1.51.57.08.95-.04,1.24-.25-.73-.66.64-1.88-.5-2.01.08.66-.34.82-.99.75Zm-198.03.25c.04-.3.44-.57,0-.75-.04.3-.44.57,0,.75Zm45.55-.25v1c1.02-.03,1.55.44,2.72.25.58-1.84-2.29-1.24-2.72-1.25Zm124.76,2.26c.09-1.08,1.37-.95.99-2.51h-.74c-.15.62-.71,2.11-.25,2.51Zm25.25-2.26c-.23,1.07.59,1.07,1.49,1,.1-.61-.45-.55-.25-1.26-.6-.1-.54.46-1.24.25Zm-124.27,1h.5c.28-.36.27-.61-.25-.75-.01.32-.32.35-.25.75Zm94.07-.75c-.29.04-.7-.04-.74.25.29-.04.7.04.74-.25Zm-77.73,2.26c.06-.52,1.09-.07,1.24-.5,0-.75.02-1.53-.74-1.51-.28.4-1.29,1.34-.49,2.01Zm106.44-1.26h.5c.01-.32.32-.35.25-.75h-.74v.75Zm-183.43,1.26c-.71.03-1.62-.14-1.98.25-.48.56-.22,1.89,0,2.51,1.35.04,2.35-.29,3.46-.5.4-.93.21-2.47.25-3.77-1.52-.46-.86,1.3-1.73,1.51Zm56.93-1c.29.99.29-.99,0,0h0Zm49.01,1.51v-1.76c-1.48-.41-1.81,2.28,0,1.76Zm43.57-1.76c-.19.06-.49,0-.5.25.19-.06.49,0,.5-.25Zm3.71,1.26c.44.29,2.1-.86,2.72.25.03-.62.04-1.21-.25-1.51-1.18.06-2.29.19-2.48,1.26Zm4.95-1c-.6.84.83-.61,0,0h0Zm6.44,1c-1.94-.41-4.01-1.54-3.96,1.51-.46.28-1.19.3-.99,1.26,1.01.27,1.22-.27,1.49-.75.35,1.15,1.68,1.3,3.22,1.26.85-.67.95-2.35.25-3.26Zm-144.07.25c.04-.3.44-.57,0-.75-.04.3-.44.57,0,.75Zm12.38,1.51c.33.36,1.4.36,1.73,0,.13-.97-.44-1.23-.25-2.26-1.26-.03-1.53.96-1.48,2.26Zm-4.7-.75c-.74-.33-1.25-.26-1.73.25-.07,1.24.51,1.83,1.73,1.76.62-.38.74-2.58.25-3.26-.56.39-.47.52-.25,1.26Zm138.13-.25v.75c1.14.58,2.43.01,2.23-1.51-.7-.53-2.11-.09-2.23.75Zm-173.78,1.51c1.17.66,2.97.08,2.48-1.76-1.62-.22-2.5.31-2.48,1.76Zm65.6-.5c-.08,1.08-.02,2.03.99,2.01,1.01-.13,2.12-3.09.74-3.26.27.73-.78,1.08-1.73,1.25Zm5.2.5c.53.8,1.11,1.55,2.72,1.26.41-.42.2-1.47.25-2.26-.86-.21-1.32-.84-2.48-.75.16.92-.54.96-.5,1.76Zm92.09,1c.34-.01.54.12.74.25,1.29-.42,1.36-3.14-.5-3.01-.32.64-.87,1.95-.25,2.76Zm29.71-.25c.95-.21,1.86-.46,1.98-1.51-.97-2.25-4.1-.13-1.98,1.51Zm-178.73,1c1.62-.2,2.56-1.08,2.47-3.01-1.93-.96-3.77,1.42-2.47,3.01Zm5.94-3.01v1.51c1.4-.11,3.29.99,3.22-1-.54-1.25-1.84-.39-3.22-.5Zm8.91,1.26c.15-1.07-.08-1.76-1.24-1.51.28.63-.04,1.89,1.24,1.51Zm24.01,0c.51,1.15,2.54.73,2.72-.5-.53-1.35-2.64-1.41-2.72.5Zm52.48-1c.4.69.83-.37.25-.5,0,.25-.2.3-.25.5Zm2.97,4.27c1.88-.22,2.84-2.59,1.98-4.77-2.66-.4-4.59,3.59-1.98,4.77Zm72.28-1.76c2.43.57,2.63-1.97,1.48-3.01-2.44-.76-2.21,1.95-1.48,3.01Zm8.17.25c.25-.33.41-.76.74-1,.02-1.52-1.05-1.95-2.23-2.26-1.3.88-.82,3.85,1.49,3.26Zm-140.36-1c-.14-.81.17-1.17.25-1.76-.34-.08-.47-.36-.99-.25-.52.65-.28,2.14.74,2.01Zm10.64-1.76c-.14.9.73.76,1.48.75.34-1.13-1-1.22-1.48-.75Zm18.07,0c.37,1.13.65,2.36,1.73,2.76,1.15-.09,1.63-.85,1.98-1.76-.35-1.13-2.37-1.7-3.71-1Zm79.96,1.76c.53.47,1.81.17,2.72.25.28-.97.58-1.16.25-2.26-1.96-.32-2.57.74-2.97,2.01Zm-22.77-1.51c-.22-.19-.71.15-.74.25-.35.95,1.23.18.74-.25Zm16.83,1.51c.54.21.84.65,1.73.5.14-.53.62-.72.5-1.51-.83-1.07-2.33-.33-2.23,1Zm39.61-.5h.74c-.04-.3.04-.71-.25-.75-.02.4-.63.2-.5.75Zm-105.7.75c1,.18,1.41-.24,1.24-1.26h-1.49c-.2.71.35.65.25,1.26Zm47.03-1.26c-.19.06-.49,0-.49.25.19-.06.49,0,.49-.25Zm-94.81,1c.72.37.72-1.12,0-.75v.75Zm140.85-.25h.5v-.5h-.5v.5Zm-44.8,1.25c1.16.08.66-1.16,0-1.25-.46.48.15.45,0,1.25Zm15.35-.5c0-.42.69-.14.74-.5-.15-.14-1.17-.59-1.24,0,.33,0,.23.44.49.5Zm.99.5c.88.06,1.29-.36,1.24-1.25-.62.21-1.33.33-1.24,1.25Zm-122.04-.25c-.33,0-.23-.44-.5-.5-.6.29.28,1.18.5.5Zm20.3.5c-.1-.48-.09-1.08-.74-1-.07.66-.08,1.26.74,1Zm2.72-.25c.03.55,1.05.11,1.48.25v-1c-.41.34-1.58-.09-1.48.75Zm67.58-.5c-.2.95,1.17.32,1.73.5.23-1.02-1.34-.87-1.73-.5Zm49.01.75c.72.37.72-1.12,0-.75v.75Zm-93.57,0c.29.99.29-.99,0,0h0Zm8.91.75c.08-.34.35-.48.25-1-.92-.1-.76.75-.25,1Zm32.92-.75c.03.64.36.97.99,1,.08-.34.35-.48.25-1-.62-.03-.77-.47-1.24,0Zm5.7,0c-.21,1.49.14-1.01,0,0h0Zm54.21.75c.58-.08,1.07-.26,1.24-.75-.71-.05-1.35-.03-1.24.75Zm-138.87,0h.49v-.5h-.49v.5Zm25,0c.43.01.63-.19.74-.5-.39.02-.86-.03-.74.5Zm12.62,0c.43.01.63-.19.74-.5-.39.02-.86-.03-.74.5Zm81.44.25h.5c0-.25.2-.3.25-.5-.32-.01-.34-.32-.74-.25v.75Zm14.36-.5c-.03-.55-1.05-.11-1.48-.25-.24.71,1.61,1.24,1.48.25Zm16.34.25c.39-.02.86.03.74-.5h-.5c0,.25-.2.3-.25.5Zm-113.62.5h.74v-.75h-.74v.75Zm87.38-.25c.42.01.63-.19.74-.5-.43-.01-.63.19-.74.5Zm14.85.5c-.37-.05-.23-.61-.25-1h-.74c-.15.67.73,1.57.99,1Zm-55.94,0c.72.37.72-1.12,0-.75v.75Zm48.52-.5c-.6.84.83-.61,0,0h0Zm-142.34,1.76c-.15-.52.4-1.74-.5-1.51.15.52-.4,1.74.5,1.51Zm3.47-.5c-.08-1.29-.85-.58-1.49-1,.03.8.56,1.1,1.49,1Zm67.83.5h1.24c.2-.47.41-.92.5-1.51-1.26-.2-1.38.77-1.73,1.51Zm5.94-1.25c-.28.03-.39-.37-.5,0,0,.25.43.31.5,0Zm82.18.5h.5c0-.25.2-.3.25-.5-.32-.01-.34-.32-.74-.25v.75Zm-176,.5c.36.61,1.63-.67.99-1-.16.51-1.25.07-.99,1Zm1.98-.5c.83.76.75-.93,0,0h0Zm145.56.5c.03-.3.44-.57,0-.75-.04.3-.44.57,0,.75Zm-93.82-.25c-.6.84.83-.61,0,0h0Zm59.66.25c0-.25-.43-.32-.5,0,.28-.03.39.36.5,0Zm-15.35,1.25c0-.25-.43-.32-.5,0,.28-.03.39.37.5,0Z"/>
    <path class="cls-8" d="m1037.32,795.86c-1.82.98-4.63,2.84-7.18,1.51-1.17-1.84-.2-5.83.5-8.03-.78-1.46-.52-3.75,0-5.27.14-1.39-.81-1.69-.99-2.76.68-1.23.76-3.08,1.24-4.52.06-.98-.53-1.3-.74-2.01,1.61-3.27-1.13-7.8,0-11.05-.73-1.58-.01-3.45-.99-5.02.27-5.85,1.12-11.67.99-16.57-.45-.72-.43-1.91-.99-2.51.65-2.54-.19-6.39.74-8.04-.76-1.24-.58-3.42-.99-5.02,0-1.1.62-1.55.99-2.26.04-.79-.66-.84-.5-1.76.29-.38.72-.61.74-1.25.03-2.9.64-5.21,1.24-7.53-.69-.72-.47-2.37-.5-3.77.45-.38.58-1.08.99-1.51,1.93-.44,3.85-.54,5.69,0,4.32-.73,10.46-.82,15.1,0,.79-.21,1.82-.16,2.47-.5,3.21.42,5.81,1.47,9.41,1.51,2.75,1.48,5.24,3.22,8.42,4.27.47,1.2,1.63,1.7,1.98,3.01,3.07,1.74,4.94,4.7,7.67,6.78.46,3.46,3.02,4.81,4.95,6.78-.46,2.37.53,3.18,0,5.27.47,1.37,1.37,2.29,2.23,3.26,1.13,5.85,2.32,13.46,3.22,20.34-1.33,2.42.31,5.7-1.73,7.28,1.28,4.77-3.33,5.63-3.22,10.04-1.17.4-1.52,1.63-3.22,1.51.78,1.95-1.39,2.22-1.48,4.02-2.54,2.08-5.45,2.82-6.93,6.28-2.16.66-4.06,1.58-5.45,3.01-.89-.15-1.4.09-1.49.75-4.37.34-6.95,2.5-10.89,3.26-7.45-.78-14.17,3.21-21.04.5l.12-.12-.12-.13c-.03-.45.3-.53.25-1-.65-.08-.81.35-.74,1v.25h.25Zm5.94-83.61c0-.25-.43-.32-.5,0,.28-.03.39.37.5,0Zm-2.72,2.26c-.16.95,1.73.47,1.98.25.18-.77-.25-.92-.25-1.51-.7.04-1.7-.21-1.73.5h-.25v.25c-.27-.06-.17-.5-.5-.5-.21.54-1.09.41-1.49.75,0,.6.71,1.77.99,1.26-.21.05-.23-.1-.25-.25.17-.5.66-.67,1.24-.75l.12.12.12-.12Zm6.68,0c0-.5.68-.32.5-1-.32-.01-.34-.32-.74-.25.13.79-.58,1.03.25,1.26Zm-11.14-.5c-.21.71.35.65.25,1.26,1.05.14,1.15-.68,1.48-1.26-.33-.36-1.4-.36-1.73,0Zm18.57-.25c-.36.14-.6.39-.74.75h-3.22c-.87,1.36-2.5,1.28-3.96,2.01-1.06.53-1.52,1.35-2.48,1.51-1.21.2-2.85-.46-4.21-.25-2.52.39-3.66,1.49-3.96,3.77,2.79.9,4.96-.75,8.42-.5,5.74.62,9.01,3.75,14.6,4.52.77,1.26,2.4,1.59,3.47,2.51.83.72,1.29,1.95,2.23,2.76,1.64,1.44,3.28,2.64,4.7,4.52,1.16,1.53,2.47,2.99,3.47,4.52.55.85.89,1.98,1.49,3.01,1.41,2.46,2.75,4.99,2.97,8.54.62.83,2.06,3.27.49,4.02-1.19-.05-1.86-1.68-2.97-1-1.62,2.13,2.51,1.69,3.22,3.01-.26,1.7-.19,2.79-.25,5.02-.83,2.84-3.37,3.94-3.71,7.28-.9.93-1.47,2.19-2.72,2.76-2.2-.23-2.4,1.58-3.71,2.26-3.15.86-8.65,1.35-11.39-.25-.09-1.08-.94-1.39-1.98-1.51-.84,4.27,3.87,4.4,6.68,5.27.59-.15,1.13-.36,1.98-.25,2.04,1.11,5.7-.36,7.43-.25,2.29-2.11,3.95-4.86,6.68-6.53.49-2.26,2.02-3.48,1.98-6.28.56-.68,2.34-.14,2.72-1-.8-.02-1.52-.13-1.98-.5.79-2.57,1.57-6.58.5-9.54.87-.46.79-1.88.74-3.26-.34-.74-1.14-1.02-1.48-1.76.86-1.63-.55-3.13-.25-5.02-1.19-.96-2.22-2.1-2.48-4.02-1.24-.41-1.48-1.85-1.73-3.26,1.42-3.46,4.13.36,5.44,1.51.05,1.29,1.17,1.49,2.23,1.76.57-.71-.29-1.57,0-2.76-1.04-.51-2.21-2.03-1.98-3.01-1.87-.62-2.77-2.21-4.21-3.26-.8.05-1.05-.45-1.98-.25-1.15-1.01-1.75-2.58-3.96-2.51-.16-.67-.71-.95-.99-1.51-1.79.06-2.63-.85-3.71-1.51-2.91.06-4.96-1.95-7.92-2.26-.73-.76-1.71-1.27-2.23-2.26.62-3.26,6.34-1.35,7.18-4.27-2.28-1.38-4.79-2.51-8.42-2.51Zm-9.41,1.51h.5v-.5h-.5v.5Zm22.28.25c-.19.06-.49,0-.49.25.19-.06.49,0,.49-.25Zm-1.98,2.01c-.6.84.83-.61,0,0h0Zm-.25,1.51c-.19.06-.49,0-.5.25.19-.06.49,0,.5-.25Zm-1.24,2.01h.5v-.5h-.5v.5Zm8.42.75c.65.07,1.06-.09.99-.75-.47.11-1.07.09-.99.75Zm-6.44.25h.5v-.5h-.5v.5Zm10.15,1.25c.42-.42.2-1.47-.74-1.25-.05.72-.03,1.37.74,1.25Zm-4.7,1.51c.67.56,1.99.16,2.47-.25.36-3.04-2.64-1.83-2.47.25Zm-31.19.75c.22-.8-.38-.79-.74-1-.07.66.09,1.08.74,1Zm3.22.25c-.13.89.21,1.29.74,1.51.07-.35.54-.29.74-.5.2-.87-.46-1.06,0-1.51-.92-.27-.7.62-1.48.5Zm-6.44.75c-.2-.13-.4-.26-.74-.25.17,1.08.32,2.19.74,3.01.96-.54,1.41-1.58,1.98-2.51-.89.06-.91-.75-1.73-.75v.25h-.25v.25Zm9.41,1.25c.08-.34.35-.48.25-1-.84-.19-.97.96-.25,1Zm.99,0c.98.17.81-1.06,0-1v1Zm1.24,1c1.61.38,1.89-1.07,1.49-2.01h-1.24c-.38.37-.22,1.29-.25,2.01Zm-1.98-.25c-.29.04-.7-.04-.74.25.29-.04.7.04.74-.25Zm-11.14.5c-.28.03-.39-.37-.5,0,0,.25.43.32.5,0Zm19.56.75v-.5c-.46-.83-1.21.75,0,.5Zm-14.85,2.01c1.59,1.7,3.31.18,5.94,1,.47-.61.92-1.24.74-2.51-2.72,1.08-3.88.22-5.94-1-.32.76-.99,1.17-.74,2.51Zm-4.21.25c.52.14.71.62,1.49.5.56-.44.49-1.51.74-2.26-1.18.14-2.23.42-2.23,1.76Zm16.09-.5c-.13,1.65,1.35,2.4,2.72,1.76.49-1.91-1.91-1.99-2.72-1.76Zm5.44,2.26c.67,1.15,3.1.98,2.97-.75-.49-.93-1.43-1.39-2.48-1.76-.11.89-.55,1.45-.5,2.51Zm24.51-1.76c-.21-.21-.7.18-.74.25-.23.44.91-.08.74-.25Zm3.96,2.01h.5v-.5h-.5v.5Zm-22.77.5c-.6.84.83-.61,0,0h0Zm-8.17,3.26c.82-.09,1.07-.75,1.49-1.26-.68-.24-.47-1.36-1.73-1-.5.58-.25,1.93.25,2.26Zm-4.46-.25c.03-.62.04-1.21-.25-1.51h-.74c.04.79.17,1.5.99,1.51Zm-7.92-.75c-3.05.02-6.04.04-7.42,2.76-.22,3.57,1.11,5.57,2.97,7.03,2.21-.36,5.08-.04,7.18-.5,0-2.25,2.2-2.29,1.73-5.02-1.58-1.33-2.16-3.67-4.46-4.27Zm17.33.25c-.07,1.25.51,1.83,1.73,1.76.55-.88.31-1.01.99-1.76-1.08.19-2.29-.31-2.72,0Zm7.92,3.77c1.2-.1-.06-1.23.25-2.01-1.36.62-1.06-.82-2.72-.5.07.68-1.03,1.44-.25,2.01.08-.75,2.11-.25,2.47.25l-.12.13.12.12c-.6.56-1.06,1.36-.25,1.51.25-1.51.37-1.38.37-1.38l.12-.13Zm-33.66-.25h.49v-.5h-.49v.5Zm20.55,3.01c.11-1.06,1.06-1.27.74-2.76-1.74-1.97-3,2.66-.74,2.76Zm8.17-2.26c.88-.14.61.89,1.48.75.45-1.23-1.28-1.69-1.48-.75Zm6.19,1.51c.51-.52,0-1.27-.74-1.25.03.64.45.88.74,1.25Zm14.6,1.26c.19-.17.65-1.5-.25-1.26.14.37-.29,1.3.25,1.26Zm-14.36,1.76c.72-.11,1.13-.53,1.24-1.26-.25-.33-.23-.93-.74-1-.23.66-1.03,1.6-.49,2.26Zm-18.57,0c1.22.4,1.55-.87.99-1.51h-.74c-.28.3-.28.89-.25,1.51Zm8.42,1.51c.38-.46.38-2.05,0-2.51h-.99c-.39.92-.51,2.78.99,2.51Zm-4.45,1c-.03-.8.25-1.92-.74-1.76-.99.3-.42,2.11.74,1.76Zm28.96-.25c-.18.77.25.92.25,1.51.88.06,1.29-.36,1.24-1.25-.65-.32-.75-.55-1.49-.25Zm-21.29,6.53c-1.32,2.93-.78,6.35-4.21,7.28-.62-.54-1.89-.42-2.23-1.26-1.13-1.84,1.3-4.45-.5-5.52-2.26.68-5.12,4.29-5.2,7.78-.05,2.28,1.55,3.46,1.73,5.27,1.67-.02,2.5.81,3.71,1.25,1.4-.26,2.6-.71,4.21-.75,2.38-1.77,3.7-4.62,5.45-7.03.16-3.46-.09-4.32,0-7.78-1.38-1.2-1.69-3.48-2.47-5.27-1.31,1.34-.21,3.6-.5,6.03Zm5.2-4.02c.32.34,1.17.34,1.49,0,.02-.94-.4-1.44-.99-1.76.04.79-.66.84-.5,1.76Zm-21.04.75c.75-.16,1.27-.56,1.24-1.51-.19-.06-.29-.21-.25-.5-1.38-.22-1.88,1.35-.99,2.01Zm-7.18-1.25c.32.01.34.32.74.25.01-.43-.19-.64-.5-.75,0,.25-.2.3-.25.5Zm21.29,0c-.21,1.49.14-1.01,0,0h0Zm-1.73,2.26c.34-.32.24-1.09.25-1.76-.41-.42-1.45-.2-2.23-.25-.53,1.17.41,2.22,1.98,2.01Zm-11.39,10.04c-1.24-1.17-2.18-2.64-2.23-5.02-.86-.04-1.24-.58-1.48-1.26-.06-2.45-.32-4.69-1.98-5.52-.14.36-.39.61-.74.75,0,1.43.19,1.52,0,2.76.6,2.14,1.37,4.53,2.23,6.78.2.54,0,1.17.25,1.76.1.23.54.47.74.75,1.12,1.59,1.09,2.62,2.47,3.51.64.41,1.42.93,2.23.5-.18-1.99-1.68-2.65-1.48-5.02Zm-2.97-11.55c0-.25-.43-.32-.5,0,.28-.03.39.37.5,0Zm7.18,1.76c.18-1.19-.14-1.86-.99-2.01-.48.67-.47,2.52.99,2.01Zm-15.59-.25c.25.67.41,1.43,1.24,1.51.69-.72.7-2.61-.5-2.76-.08.59-.86.47-.74,1.25Zm34.66-.75h.74v-.5h-.74v.5Zm15.6,2.51c-.44-.03-.52.31-.99.25-.37-.38-.08-1.43-.99-1.25v1.51c.58.15,1.9.82,1.98,0h.25v-.25c.2.13.4.26.74.25-.14-.36.29-1.3-.25-1.26-.09.33-.44.4-.5.75l-.12-.12-.12.12Zm-49.76,4.02c.33.25.75.41.99.75,1.07-.25,1.92-.73,1.73-2.26-1-.15-.81-1.52-2.23-1.25-.23.85-.69,1.47-.5,2.76Zm10.4-1.51c.89-.1,1.58-.41,1.73-1.25h-.99c.26.94-.52.81-.74,1.25Zm24.01-.5c.08-.66-.34-.82-.99-.75-.07.66.34.82.99.75Zm.74.25v.75c.49.34,1.41.24,1.98.5v-1.26c-.36-.37-1.62-.37-1.98,0Zm13.37,4.52c.58-.08,1.02-.3,1.48-.5v-1.51c-.53-.47-1.32-.67-2.23-.75-.67,1.2.27,1.99.74,2.76Zm-13.12.5c.36.37,1.62.37,1.98,0,.7-2.64-2.64-2.5-1.98,0Zm-32.43-1c.29.99.29-.99,0,0h0Zm-2.97,3.01c.61.03,1.19.04,1.49-.25.17-1.26-.51-1.66-1.73-1.51,0,.67-.09,1.44.25,1.76Zm29.95.75c1.06.46.88-1.59.74-1.51-.22.53-.75.74-.74,1.51Zm1.24,1c.36.14,1.28-.29,1.24.25.18.77-.68.48-.49,1.25.8.63,2.05.04,1.73-1.25-1.29-.12-1.29-1.53-2.23-2.01-.09.9-.66.92-.25,1.76Zm-33.91,0h.49v-.5h-.49v.5Zm49.75.5c.11.85,1.12,1.69,1.74,1.25.1-1.11-.41-1.59-1.24-1.76-.05.28-.27.39-.5.5Zm-42.82.75c0,.67-.09,1.43.25,1.76,3.17.41,1.92-4.15-.25-1.76Zm25.75,1.26c.81.05.98-1.18,0-1.01v1.01Zm-29.46,2.76c.34-.32.25-1.09.25-1.76-2-.54-2.22,2.1-.25,1.76Zm27.72,1.25c1.28.04,2.25-.22,2.23-1.51-.82-2.11-4.02-.42-2.23,1.51Zm3.96-2.01c.35.06.42.41.74.5.08-.34.35-.48.25-1-.56-.07-.93.06-.99.5Zm11.88,2.51c-.2-1.4.75-2.43-.25-3.01-.31.56-.6,2.83.25,3.01Zm4.46-.75c.75-.29.92-1.18.49-2.01-.37.04-.91-.09-.99.25,1.12.08-.11,1.59.5,1.76Zm-41.34-.75c-.74,1.68-2.66,2.16-3.71,3.52-1.21.53-2.21,1.27-3.47,1.76-.34.74-.36,1.82.25,2.26,2.29-.96,5.3-1.66,5.69,1.51-.46,2.05-1.89,3.1-3.22,4.27-.59-.15-.41-1.09-1.48-.75,1.4,2.41-1.47,3.09-1.24,5.78,2.01.65,3.22-1.56,5.45-1.51-.07-.57.06-.94.49-1,2.48,0,3.52-1.46,5.2-2.26.54-2.3,1.78-3.89,2.23-6.28-.76-1.99-1.17-4.34-1.49-6.78-1.4-.52-3.13-.82-4.7-.5Zm15.84.25c-.34,1.45.97,2.52,1.98,1.76-.89-.02-.2-1.64-.74-2.01-.7-.21-.64.35-1.24.25Zm8.42.75h.5c.01-.32.32-.35.25-.75h-.74v.75Zm-9.9.5c.25,0,.29.2.49.25-.02-.39.03-.87-.49-.75v.5Zm-19.31,1h.5v-.5h-.5v.5Zm38.37,5.27c1.03-.29,1.9-.75,1.98-2.01-.19-.06-.29-.21-.25-.5-1.71-.4-2.43,1.28-1.73,2.51Zm5.2-.25c.07-.66-.09-1.08-.74-1.01-.04.63.38.79.74,1.01Zm-29.46.25c-.22-.19-.71.15-.74.25-.35.96,1.23.18.74-.25Zm19.8.75h.74v-.5h-.74v.5Zm2.47,2.76c.45-1.06-.17-2.94-1.98-2.51-.7,1.46.54,2.45,1.98,2.51Zm-11.14-1c.01-.43-.19-.64-.5-.75-.01.43.19.64.5.75Zm-7.67.5c-.04-.38.09-.92-.25-1-.32.33-.33.94.25,1Zm8.91.5c1.21.22,1.56-.43,1.73-1.26-.75-.32-1.73.11-1.73,1.26Zm-28.96-.25c-.5-.07-.66-.5-.99-.75-.1.55.74,1.38.99.75Zm18.32,2.01c-1.06-.07-1.22.77-2.48.5.05.47-.28.55-.25,1,.47.28,1.17.32,1.73.5,1.15-.92,1.7-2.46,2.48-3.77-.7.21-.64-.35-1.24-.25-.38.37-.22,1.29-.25,2.01Zm3.71.5c.72.75,1.22.24,2.23.5-.25-1-.91-1.59-1.73-2.01-.14.52-.61.72-.5,1.51Zm10.4,1.76c.89-.19,1.65-.5,1.48-1.76-1.39-.37-1.94,1.05-1.48,1.76Zm-18.57-1v.5c.61.39.73-.85.25-.75-.02.15-.04.3-.25.25Zm13.61,3.51c1.5-.29.9-1.19,1.24-2.51h-1.98c-.32,1.22-.74,2.17.74,2.51Zm-11.39,2.51c.95-1.02.56-3.54-1.24-3.26-.54,1.14-.36,3.47,1.24,3.26Zm4.21-1.76c.49.43.57,1.27,1.73,1v-2.01c-.57.08-.95-.04-1.24-.25.18.77-.68.48-.5,1.26Zm-15.35,3.01h1.24c-.19-.95.3-1.2.25-2.01-1.67-.28-1.93.77-1.48,2.01Zm4.21-1c.32,1.28,2.84.86,2.72-.5-.7-.49-2.73-1.01-2.72.5Zm-9.16.5c-.08,1,.48,1.36,1.49,1.26.54-.58-.56-2.17-1.49-1.26Zm25.5,1c.95.2.95-1.2,0-1v1Zm-21.78-.5c.75.69-.68-.76,0,0h0Zm12.87,1.51c.25,0,.3.2.5.25-.02-.39.03-.87-.5-.75v.5Z"/>
    <path class="cls-8" d="m1037.32,727.32v-.25c1.33.39-.46,2.21-.25.25h.25Z"/>
    <path class="cls-8" d="m1183.62,745.15c.11-4.21-.83-6.71.5-10.29-.07-1.81-.89-2.75,0-4.27.22-.8-.38-.79-.74-1,.35-2.4-.37-5.85.5-7.78-.32-2.18-.64-4.38-.5-7.03.29-.45.05-1.96.74-1.26.14-.56-.47-.36-.5-.75-.11-.83,1.2.58,1.49-.75-.03-.55-1.05-.11-1.49-.25-.46-2.52.06-4.77,0-7.28-.02-.78-.43-1.45-.49-2.26-.3-4.12.43-8.46.25-12.8-.61-1.39-1.45-2.54-2.97-3.01-.4-.99,1.07-.09.99-.75-.57-1.21-1.98.08-2.97,0-2.29.07-4.27-.19-5.45-1.25-.78.55-2.33.32-3.22.75-.69-.22-1.51-.31-1.98-.75-3.72,1.48-7.94-.06-12.38.25-3.88.27-7.97-.54-11.14.5-.65.07-.2-.97-.99-.75-2.05,0-4.12.7-5.94.5-.49-.05-.76-.5-1.24-.5-.54,0-1.02.48-1.48.5-.56.03-.97-.46-1.48-.5-.48-.04-1.25.46-1.73.5-.56.05-1.05-.48-1.73-.5-1.37-.04-2.97,0-4.46,0-2.71,0-6.34,1.57-8.41,0-1.9,1.59-4.84.34-7.43.5-1.31.08-2.98.89-4.7.25-1.1-.03-1.53.62-2.47.75-1.36-.86-3.04.04-4.7,0-.73-.02-1.43-.46-2.23-.5-3.27-.18-6.94.86-9.41-.5-2.55.9-6.11.28-9.66.5-3.82.24-7.63,1.2-10.64-.25-4.87.18-9.64.99-14.36.75-1.62-.08-3.15-.89-4.7-.75-.62.05-1.1.49-1.73.5-5.11.07-10.33-.72-15.59-.25-.92-.27-.71.62-1.49.5-1.43-.31-3.15-.32-4.21-1-3.46.32-7,.49-10.64.5-1.27,0-2.58.47-3.96.5-1.07.02-2.14-.33-3.22-.25-2.24.16-4.08.69-6.19.5-2.13-.18-6.35-.67-7.92.25-1.25-.92-3.03-.16-4.7-.25-2.15-.12-4.14-.98-6.44-.75-2.03.2-3.63,1.28-5.69,1-1.09,1.31-1.48,4.27-.74,6.03-1.11,3.36-.55,6.95-1.73,10.04-.55,2.94.67,5.62.74,8.03.06,1.94-.41,4.1-.25,6.28.16,2.18-.09,5.05-.25,7.03-.13,1.74.16,3.5,0,5.02-.28,2.62-.91,6.67,0,9.79.3,1.14-.87.79-.99,1.51,2.1,4.96.25,11.49.25,17.32,0,5.36,1.47,10.52,0,14.81-.14,1.07.83,1,.99,1.76-.38,1.99-1.25,5.76-.25,7.53-.7,2.39-.78,6.92,0,9.29-1.47,4.13-.69,9.47-1.73,14.31-.12,1.13.88,1.12.99,2.01-.98,3.03-.76,6.24.5,9.04-.46,1.29-1.19,3.1,0,4.02-1.19,1.72-.84,5-1.49,7.28,1.06,8.83-.5,20.14.99,28.87-.08,1-1.02,1.14-.99,2.26.61,1.79.65,4.02-.25,5.52.18.91.09,2.08.49,2.76-.94,5.22-.28,12.7.74,18.08-.44,1.48-.9,2.94-1.24,4.52,1.68,3.41-.33,9.32,2.23,12.05,1.55.36,3-.24,4.46.5.94.04,1.19-.63,1.98-.75,12.59.35,22.73-.04,35.4.75,1.13.06,1.03-1.14,2.23-1,6.13,1.28,12.51.58,18.57.75,1.03-.18-.26.88.5,1.25.65-.18.24-1.43.99-1.5,1.74,1.11,3.54-.04,5.2,0,1.85.04,3.51,1.39,5.44.75v1.76c.89-.02.2-1.64.74-2.01,2.14.09,4.62,1.07,6.68-.25,1.01.23,2.23.25,2.97.75,1.33-.33,4.06-1.05,5.2,0,3.09-1.58,8.96.56,11.63-.75,6.35,1.68,15.28-1.4,22.03.5.69-.31,1.26-.73,2.23-.75,4.35.63,8.45,1.26,11.88,0,2.7.75,5.13-.61,7.92.5,2.22-1.17,7-1.45,8.91-.75,1.39.14.41,1.31,1.24,1.76,1.39-.09,1.79-1.19,2.47-2.01,2.26.63,6.04-.27,7.92.75,1.05.15.48-1.36,1.73-1,1.5-.48,1.13.39,2.48.5,2.06-.13,3.2-.26,4.95.25,5.22-.75,12.78.07,19.06-1.26,3.96.4,9.88.71,13.37,0,1.54-1.21,1.58-3.92,2.97-5.27-.43-1.22-.04-2.14.74-2.76-.3-.91-1.07,1.03-1.49,0-.08-.66.52-.65.99-.75-.77-.75-.59-2.72,0-3.51,0-.84-.81-.86-.74-1.76.16-.88-.09-1.63.5-2.51-.18-2.7.29-4.73.25-7.28-.07-.66.09-1.08.74-1,0-.84-.81-.86-.74-1.76.33-6.23-.29-13.21.5-19.08.12-.79-.45-.89-.25-1.76.09-1.16,1.12-1.85.5-3.01-.39-.89.84-.15.74-.75.2-1.04-1.18-.47-.99-1.51.74-3.17-.35-6.81-.25-10.29.03-1.08.47-2.22.5-3.26.02-.95-.47-1.9-.5-2.76-.07-2.04.79-3.91.25-5.78,1.45.61,2.01-.61,3.46,0,1.83,3.67,2.27,10.33.5,14.31.37.71.52,1.65.74,2.51-.39.69-.53,1.63-.99,2.26.92,1.8,1.29,2.71,1.73,4.77.12.96-.88.79-1.24,1.25v2.01c-.13,1.05,1.14.69,1.49,1.26-1.32,2.66-.31,5.29-1.24,8.29,1,5.67-1.3,13.19,0,19.33-.58,4.78-.66,10.98.5,15.57-.52,1.41-.09,2.71-1.24,3.77.62,1.79-.25,3.82-.99,5.02-3.58-.24-7.02.81-9.65-.5-2.72,1.03-7.24-.09-10.89,0-1.13.03-2.37.47-3.46.5-3.68.12-7.44-.5-11.14-.5-6.48,0-12.84-.35-19.31.5-.99.25-.75-.75-1.73-.5-1.25-.26-1.42.57-2.48.5-.2-.72-1.79-.03-1.73-1.01-1.11,1.03-2.5.27-3.96,1.01-.16-.6-1.53.04-1.74-.5-3.66.72-8.34.41-11.39,1.76-.76-.56-1.97-.68-2.97-1-4.77,2.32-11.42-1.44-16.58.75-2.57-.27-4.87.11-6.93-1-2.08.57-4.59.7-7.18.75-.86-.05-1.32-.51-1.98-.75-4.34,1.12-8.76.74-12.38-.25-4.93,1.45-11-.09-16.59.75-4.33-.94-9.06.14-13.61,0-3.61-.11-7.18-.64-10.4.5-5.06-.29-9.45-.85-13.61.25-2.73-.71-5.54-.67-8.42-.5-10.09.59-20.28-1.63-29.95,0-.5-.48-.58-1.01-.25-1.76-1.55-.18-1.52-1.97-2.48-2.76.46-4.02.19-10.52.74-14.81-1.11-2.63-1.96-7.77-1.48-11.55-.33-.92-.7-1.8-.99-2.76-.01-1.52,1.29-1.71,1.24-3.26.74-.59-.4-.5-.5-1-.13-.71.37-2.04.25-3.01-.07-.54-.48-1.21-.5-1.76-.12-3.4,1.33-7.08-.5-10.04,1.5-5.7-1.86-10.26,0-15.82-1.5-4.17,1.29-8.39-.5-12.05,1.13-4.33.06-7.56,0-12.55-.21-.97.61-.89.74-1.51-.87-2.42.08-4.83-.25-7.28-.13-1-.89-1.95-.99-3.01-.3-3.35,2.24-6.82.25-10.04-.03-1.04.43-1.57.25-2.76,1.62-2.02.8-6.79.99-10.8.06-1.35.65-2.7,0-3.77-.49-.79.18-1.61-.25-3.26.79-1.46,1.21-3.29.99-5.77-.41-.84-.86-1.64-1.24-2.51.07-3.01-.91-6.88.99-8.54-.81-1.03-.06-2.47-.25-3.77-.23-1.56-1.7-3.37,0-5.02.06-.73-.56-.77-.5-1.51,1.62-7.35.53-15.98.99-24.6,1.65-2.05.53-4.5.25-7.03-.42-3.84.25-7.84.5-12.05.25-4.26-1.02-9.4,0-14.56.99-1.26,1.7-2.8,2.97-3.77.29.04.44-.05.49-.25,3.23.33,6.71-.33,9.9-.25.94.02,1.86.54,2.72.5,1.81-.07,3.61-.34,5.94-.25,5.9.24,12.44,0,18.81,0,10.35,0,19.72-1.12,30.2-.25,3.02.25,6.43-.03,9.16.25,3.71.38,7.45-.54,10.4.5,5.38-.84,11.89-.41,18.07-1,2.23-.21,3.87-.3,6.44,0,2.85.33,5.93.58,8.67.75,4.56.28,9.62-1.29,14.36,0,3.76-.7,8.38-1.56,11.88-.5,8.33-1.47,17.71-.97,26.49-1,2.77,0,5.81.89,7.92,0,1.19,1.1,3.37-.24,4.46.75,2.83-.31,7.24-.55,9.4,0,.99.25.75-.75,1.73-.5,7.16.96,13.85-.96,20.3.75,1.43,2.24.28,4.49.5,7.78.07,1.04.34,2.2.5,3.26.16,1.09.53,2.37.5,3.26-.08,2.03-1.47,3.95-.74,6.03-.41,1.61-.86,3.17-.99,4.77-.29,3.46,1.06,7.07.74,10.29-.06.62-.49.96-.5,1.51-.07,5.33.98,10.46.5,15.57.4.99-1.07.09-.99.75-.24.91,1.11.21.99,1-.38,2.13-.74,5.3.25,7.03-1.43,4.61.71,7.75-.99,11.8-.11,1.29.59,1.74.74,2.76-.84,6.75,1.96,12.54-.5,18.58-.32,1.24.6,1.23.5,2.26-.17,8.48.29,16.78,1.49,24.35-1.25,1.22-1.25,4.09,0,5.27.46,1.47-1.02,3.37.25,4.02-.02.65-.96.36-.99,1,.31,1.69,1.57,2.42,2.23,3.77-1.34,1.65-1.57,4.43-2.23,6.78-1.71-.47-2.9.9-3.47.75.47-1.36.07-2.76-.25-4.02.62-2.31.68-5.78-.25-7.28,1-3.22.45-7.25.5-11.05.03-2.81.45-5.86-.5-8.03l.12-.12-.12-.13c.45-.18.91-1.74,0-1.51,0,1.51-.12,1.38-.12,1.38l-.12.13c-1.25-3.26-.05-9.17-.25-11.05-.17-.93.87-.63,1.24-1,.13-1.38.6-2.41,1.74-2.76-.64-.52-1.38-.95-2.23-1.26-1.08,1.28,1.85.62.74,2.01-.22.2-.56.27-.99.25-.93-.13-.45-1.48-.5-2.01-.38-4.51-.17-10.44,0-15.57-.03-.78.3-1.2.5-1.76-1.17-4.68-.63-9.5-.74-14.06h.25v-.25c.25.16.25.58.74.5-.2-.87.37-.96.25-1.76-.97-.4-.51.65-.99.75v-.25h-.25Zm-15.84-62.27c.47.11.45.72,1.24.5-.07-.63-1.1-1.39-1.24-.5Zm-195.56,1c.29.99.29-.99,0,0h0Zm213.63.25c-.09-.2-.66-.3-.74,0-.16.58.97.54.74,0Zm-1.48.25c-.6.84.83-.61,0,0h0Zm-212.14,2.51c.08-.34.35-.48.25-1h-.74c-.07.57.06.94.5,1Zm-2.47,3.01h.49c.01-.32.32-.35.25-.75h-.5c-.01.32-.32.35-.25.75Zm215.11.25c-.26,1.46,1.07.11,0,0h0Zm-214.62,32.89c.81.05.98-1.18,0-1v1Zm214.86,10.79c-.19.06-.49,0-.49.25.19-.06.49,0,.49-.25Zm-216.6,6.53h.74v-.5h-.74v.5Zm1.73-.25c-.08-.2-.66-.3-.74,0-.16.58.97.54.74,0Zm214.86.5c0-.25-.43-.32-.49,0,.28-.03.38.37.49,0Zm-215.11,2.01c0-.25-.43-.32-.5,0,.05.3.27.15.5,0Zm215.36,12.8h.5v-.5h-.5v.5Zm-215.11.75c.01-.15.04-.3.25-.25-.03-.31-.07-.59-.5-.5.04.29-.04.71.25.75Zm215.61,10.29h.74v-.75h-.5c-.01.32-.32.35-.25.75Zm-217.34,25.86c.01-.43-.19-.64-.5-.75.02.4-.03.87.5.75Zm.25,18.33c.18-.19.62-1.23-.25-1,.04.38-.09.93.25,1Zm-.74,2.51h.74v-.5h-.74v.5Zm218.08,19.83c-.19.06-.49,0-.5.25.19-.06.49,0,.5-.25Zm-.74,60.26c.29.99.29-.99,0,0h0Zm-66.83,9.04c-.75.85.91.76,0,0h0Zm37.62,1.51c.39-.38.36-1.43-.49-1.25-.39.38-.36,1.43.49,1.25Zm-14.11-.75c-.19.06-.49,0-.49.25.19-.06.49,0,.49-.25Zm-163.38,1.51c.01-.43-.19-.64-.5-.75-.01.43.19.64.5.75Zm70.3-.25c-.6.84.83-.61,0,0h0Z"/>
    <g>
      <path class="cls-5" d="m1069.38,691.04c.35-.02.64.02.87.13"/>
      <path class="cls-2" d="m1117.65,835.16c-.23-.1-.4-.26-.5-.5"/>
      <path class="cls-3" d="m1117.9,738.5c0-.26-.06-.44-.12-.63"/>
      <path class="cls-5" d="m1168.15,735.23c0-.26-.06-.44-.12-.63"/>
      <path class="cls-4" d="m1144.01,775.28c.17-.08.34-.15.5-.25"/>
      <path class="cls-7" d="m1039.05,812.69c-.25-.16-.49-.34-.74-.5"/>
      <path class="cls-2" d="m1083.24,848.97c-.13-.03-.19-.14-.25-.25"/>
      <path class="cls-2" d="m1063.19,847.46c-.13-.03-.19-.14-.25-.25"/>
      <path class="cls-4" d="m1002.67,847.58c-.17-.08-.34-.15-.5-.25"/>
      <path class="cls-4" d="m1078.91,858.38c.08-.17.15-.35.25-.5"/>
      <path class="cls-4" d="m1162.58,871.43c.17.08.34.15.5.25"/>
      <path class="cls-5" d="m1040.42,714.64c.02-.35-.02-.65-.12-.88"/>
      <path class="cls-6" d="m1037.32,727.32c-.13-.29-.09-.74-.25-1"/>
      <path class="cls-2" d="m1067.65,740.75c.13.03.19.14.25.25"/>
      <path class="cls-5" d="m1086.83,754.69c-.09-.16-.1-.41-.12-.63"/>
      <path class="cls-5" d="m1037.07,795.86c.16-.09.4-.09.62-.12"/>
      <path class="cls-2" d="m1184.49,793.48c-.13-.03-.19-.14-.25-.25"/>
      <path class="cls-6" d="m1183.87,746.15c-.15-.29-.13-.74,0-1"/>
    </g>
  </g>
  <rect class="cls-1" width="2154.33" height="1303.94"/>
</svg>