<?xml version="1.0" encoding="UTF-8"?>
<svg id="Layer_1" data-name="Layer 1" xmlns="http://www.w3.org/2000/svg" viewBox="0 0 226.77 226.77">
  <defs>
    <style>
      .cls-1 {
        stroke-width: .35px;
      }

      .cls-1, .cls-2, .cls-3, .cls-4, .cls-5, .cls-6, .cls-7, .cls-8, .cls-9, .cls-10, .cls-11, .cls-12, .cls-13 {
        fill-rule: evenodd;
      }

      .cls-1, .cls-2, .cls-3, .cls-4, .cls-5, .cls-6, .cls-7, .cls-8, .cls-9, .cls-10, .cls-11, .cls-13 {
        fill: none;
        stroke: #000;
        stroke-linecap: round;
      }

      .cls-2 {
        stroke-width: .34px;
      }

      .cls-3 {
        stroke-width: .32px;
      }

      .cls-4 {
        stroke-width: .42px;
      }

      .cls-5 {
        stroke-width: .27px;
      }

      .cls-6 {
        stroke-width: .32px;
      }

      .cls-7 {
        stroke-width: .32px;
      }

      .cls-8 {
        stroke-width: .33px;
      }

      .cls-9 {
        stroke-width: .31px;
      }

      .cls-10 {
        stroke-width: .54px;
      }

      .cls-11 {
        stroke-width: .38px;
      }

      .cls-12 {
        stroke-width: 0px;
      }

      .cls-13 {
        stroke-width: .34px;
      }
    </style>
  </defs>
  <path class="cls-12" d="m49.44,18.45c0-.26.33-.21.54-.27,0,.26-.33.21-.54.27Z"/>
  <path class="cls-12" d="m203.4,25.94c.57-.12.51.38.54.8h-.81c.14-.21.28-.43.27-.8Z"/>
  <path class="cls-12" d="m203.4,27.01c.11.56-.19.71-.27,1.07-.73.2-.54-.53-1.08-.54.23-.4.68-.57,1.35-.53Z"/>
  <path class="cls-12" d="m187.28,47.33h.54v.53h-.54v-.53Z"/>
  <path class="cls-12" d="m60.99,50.8c.05,1.18-1.06.08,0,0h0Z"/>
  <path class="cls-12" d="m152.34,60.7c.79-.39.79,1.19,0,.8v-.8Z"/>
  <path class="cls-12" d="m22.03,70.59c.31-1.06.31,1.06,0,0h0Z"/>
  <path class="cls-12" d="m22.3,104.28c.56-.11.71.18,1.08.27-.07.47-.46.61-1.08.54v-.8Z"/>
  <path class="cls-12" d="m19.35,105.08c.13.83-.67.95-1.08.53.07-.47.46-.61,1.08-.53Z"/>
  <path class="cls-12" d="m13.17,122.72c-.31.59-.9.89-1.07,1.6-1.19-.26.3-2.48,1.07-1.6Z"/>
  <path class="cls-12" d="m159.06,129.14c.52-.11.39,1.22-.27.8v-.53c.23.05.25-.1.27-.27Z"/>
  <path class="cls-12" d="m160.14,129.41c.71-.08.88.37.8,1.07-.71.08-.88-.37-.8-1.07Z"/>
  <path class="cls-12" d="m190.77,138.5c.07-.34.54-.27.54,0-.24.16-.48.32-.54,0Z"/>
  <path class="cls-12" d="m148.58,163.1c.04.5.18.89.54,1.07-.32,1.19-1.49,1.55-2.69,1.87-.74-1.59-.22-3.61,2.15-2.94Z"/>
  <path class="cls-12" d="m153.42,164.97c.12.57-.38.51-.81.53.37.61,1.34.63,1.61,1.34-.06,3.85-7.12,6.72-7.79,1.6,1.27.16,1.84,1.01,3.22,1.07,2.43-.54,3-4.99,0-5.35,1.11-.67,3.58-.83,3.76.8Z"/>
  <path class="cls-12" d="m41.38,182.35h.54c.12.57-.38.51-.81.54.05-.22.27-.27.27-.54Z"/>
  <path class="cls-12" d="m17.47,213.63c.31-1.06.31,1.06,0,0h0Z"/>
  <path class="cls-12" d="m16.66,216.3c1.39-1.06,1.04,1.39,0,0h0Z"/>
  <path class="cls-12" d="m17.73,217.64c0-.26.33-.21.54-.27,0,.26-.33.21-.54.27Z"/>
  <path class="cls-12" d="m23.11,200.8c3.79-5.59,9.95-8.82,16.39-11.76.7-1.18,1.41-2.84,2.69-2.67-.37-2.39.79-3.38,0-6.68-.91-1.1-3.56-.46-4.03.53.84,2.31,3.25,4.47,1.08,6.42-.81-.41.22-1.17,0-1.87-1.25-.17-.68,1.46-.81,2.41-6.02-.47-7.84,3.25-11.82,4.81-1,2.07-2.38,4.78-4.3,5.08-.81,1.25-.69,3.41-2.15,4.01-1.11-2.23,1.31-3.11,1.08-5.35,2.63-2.64,4.87-5.66,6.99-8.82,2.05-.09,2.02-2.26,3.76-2.67.16-.85-.5-.83,0-1.34.77-.21,1.43-.54,2.15-.8.66-2.37,2.72-3.36,3.49-5.61,2.48-1.54,4.59-3.45,6.18-5.88,2.75-1.19,4.3-3.56,5.91-5.88,2.21-.29,2.39-2.62,4.84-2.67,1.26,1.48-.26,3.26-1.61,3.74.69.72.01,1.58-.27,2.14-.12.74,1,.25,1.07.8-.04.31.06.48.27.54.9-.43-.84-.85,0-1.34,2.76-1.36,1.31-6.9,3.23-9.09,1.15-.1,1.88-.62,2.96-.8,1.83-2.1,5.37-2.5,6.45-5.35-.07-1.54.2-3.41-.27-4.55h-1.88c-1.05,1.54-2.4,2.78-3.49,4.28-2.69.71-3.95,2.84-6.72,3.48-.9.36-.99,1.51-1.61,2.14-2.89,1.23-5.66,2.57-7.26,5.08-2.76.64-3.76,3.03-6.18,4.01-2.55,3.7-5.02,7.48-8.87,9.89-1.41,2.52-3.91,3.96-5.37,6.42-.53.45-.34-.02-1.07,0,.6,1.03-.32,1.24-.27,2.41-2.91,2.09-3.5,6.5-5.11,9.89-.98.1-1,1.15-1.88,1.34v1.87c-1.58,2.52-4.11,5.31-4.3,9.09-.11,2.14.64,4.28.81,6.68,2.06.45,1.44-1.77,2.96-1.87-1.02,1.76.21,3.44.81,5.08-1.12.67-2.89.69-4.3,1.07,0-.63.46-.79.27-1.6-1.48-.31-1.24,1.08-2.42,1.07-.88-5.94,1.19-12.25.27-19.52.07-1.09,1.56-.77,1.61-1.87-.4-.31-.66-.77-1.34-.8.68-.85,0-1.89,0-2.94,0-.43.5-.72.54-1.34.07-1.12-1.05-1.81.27-2.67-1.17-.56-1.63-3.34,0-3.74-1.95-1.56.08-4.01-1.08-5.88.06-1.01.85-1.3,1.08-2.14-.49-.76-.42-2.08-1.08-2.67.47-4.64.48-9.83.81-14.17,0-1.08-.73-1.41-.81-2.41.2-1.58,1.23.52,1.34-1.34-.43-.9-.85.84-1.34,0-.17-3.7.58-9.33-.27-12.03,1.17-2.29-.47-5.24,1.34-6.68.72,0,.58.84,1.34.8.24-.91,0-2.81-1.34-2.94-.67-1.94.24-4.54,0-6.68-.1-.9-.85-2.42-.27-3.74.42-.96,1.76-1.09,2.42-1.87.97.55,1.81,1.22,2.42,2.14.74-.3.71-2.31.27-2.94-1.3-.22-1.9.25-2.69.53-.42-1.09-.8-2.11-1.88-1.87.07-.83.27-1.51.54-2.14.39.06.09.8.54.8.75-1.29-.73-1.34-1.07-1.87-.15-.59.51-.38.54-.8-1.5-1.87.02-4.6,0-6.95-.02-2.23-1.05-4.09-1.08-5.88.36-.27.53-.72,1.08-.8-.45-1.33-.28-3.29-.81-4.54,1.63-2.82.38-5.4,0-8.82-.05-1.36.91-.06,1.08-1.07-.06-.39-.8-.09-.81-.54,1.3-3.32-1.35-7.4.27-10.16-1.05-1.3.56-3.07-.54-4.55.34-1,1.1-1.58.81-3.21-.07-.91,1.47-.92.54-1.87-.36.08-.22.67-.27,1.07-1.39-4.95.61-10.54-.54-16.04.02-1.05.47-1.67.81-2.41-.07-.56-1.18-.07-1.34-.54,1.11-1.68.29-4.38.81-6.15-.48-.41-.81-.98-1.08-1.6,1.3-4.54-.59-10.72,1.08-13.9-1.32-4.31.14-11.61-.54-16.84.68-2.26,3.32-2.57,6.18-2.67,5.59,1.98,12.32-.17,17.46,1.34l-.13.13.13.13v.54h.54v-.54l.13-.13-.13-.13c1.73-.71,3.55-.08,5.38-.27,1.39-.14,2.6-.82,4.03-.8,1.48.01,2.78.67,4.3.54,1.27-.11,2.11-.98,3.49-.8.82-.01,1.37.24,1.61.8,3.6-1.11,7.69-1.38,11.82-.27.98.08,1.75-.04,2.42-.27.72,1.1,2.49.3,4.03,0,2.89-.56,6.99,1.2,9.14-.54.87.47,2.72-.03,3.22.8,4.67.04,10.45-1.34,13.97,0,1.42-.45,3.03-.72,4.57-1.07,7.78.81,15.88.49,23.64.8,1.12-.04,1.59-.73,2.69-.8,2,.51,4.41.6,6.45,1.07,3.25-1.81,8.7-.66,13.7-1.34,2.9.86,5.43.77,8.6.27.85-.13,1.05.38,1.61.54,1.63-.54,4.25.65,5.64-.54.53,0,.34.73,1.07.54,5.06-2.07,9.48,1.05,13.97-.8,2.38.54,3.26.55,5.37-.27,1.46.35,4.02.53,5.1-.27.84.95,2.1,1.48,2.15,3.21,1.15-1.95,5.22-4.82,7.25-1.87.33-.47.53-1.08,1.08-1.34,4.14.5,9.06.54,12.63.27.43.64,1.26.89,1.61,1.6-1.22,3.8-.69,8.29-1.08,13.37-.21,2.74.14,5.73.27,8.82.2,4.55.81,9.32.81,13.9-.02,7.94-.33,15.88-.27,23.8.07,10.18-.77,24.82,0,38.5.45,7.89.59,15.91.27,23.8.01.81-.57,1.04-.81,1.6.51.39.03,1.75.54,2.14-.16,3.8.15,7.91.27,11.5.05,1.48.07,3.18-.54,4.28.16.56.66.76.54,1.6.28,6.66-1.04,15.47-.54,22.19.04.55.19,1.08.54,1.6.78,12.77-.11,24.42,1.34,38.5-.25,1-1.1,1.4-1.34,2.41-4.93-1.97-12.25-2.73-17.2-.8-3-.72-6.12.3-8.6-.8-4.72,1.83-10.24.37-15.58,1.07-.85.13-1.05-.38-1.61-.53-1.16.5-3.05.5-4.3-.27-2.55.04-7.13,1.75-10.21.27-.63.08-1.01.42-1.88.27-.82.01-1.37-.24-1.61-.8.12,1.28-3.37,1.03-2.15-.27-1.17.63-2.75,1.28-3.76,0-.78,1.52-4.95,1.78-5.91.27-.4.4-.81.8-1.34,1.07-1.47-.02-2.74-.33-4.3-.27-.65.02-1.22.49-1.88.54-2.59.16-5.36-.55-8.06-.54-3.02.02-6.76.84-9.41-.27-2.05.39-3.33.2-4.84.8-5.29-1.04-10.9,1.19-14.51-.54-1.82.26-4.89-.13-6.72.8-1.13-.4-3.09.04-3.49-1.07-.38.24-2.75.76-2.69-.27-.26.46-.84.58-1.34.8-4.69-.08-7.5.04-12.36.27-1.12-.13-1.7-.8-2.69-1.07-.84-.12-.76.67-1.08,1.07-3.66-.71-12.21.94-16.66-.8-5.06.9-15.11.96-19.08-.54-.4.12.11.34,0,.8-2.46-.53-5.92,1.27-7.79-.27-2.33.5-5.36.21-6.99-1.34,1.35-1.33-.91-1.58-.54-3.48-1.31.85-1.04-.92-2.15-.27.22-2.26,1.42-4.42,3.22-4.28-.46-3.15,2.05-5.13,3.49-7.22v.27h.27c.45,1.04,1.34-1.2.27-.27v-.27h-.27ZM187.81,11.5c.31.22.72.35,1.34.27-.35-1.06.78-.65.81-1.34-.95.12-1.67.48-2.15,1.07Zm-83.02.54c.51-.3,1.23-.38,1.34-1.07h-1.34v1.07Zm96.46,1.07c.6-.58.4-1.46.27-2.14-1.69-.34-1,1.89-.27,2.14Zm6.18-1.07v-.8h-.81c-.05.58.22.85.81.8Zm-113.12,1.07c0-.71.15-1.57-.54-1.6-.37.37-.26,1.61.54,1.6Zm-37.08,1.6c.36,1.16.89,2.14,2.15,2.41,1.52-.55,2.01-1.61,1.61-3.48-1.33-.02-1.71-2.39-2.95-1.6.98,1.14-1.08,2.14-.81,2.67Zm49.44-2.67c-.58.23.1,1.7-.54,1.87-1,.29-.77-.66-1.61-.53-.67.58-1.52.99-1.34,2.41,1.05-.07,1,.97,2.15.8.52-.28.37-1.23.81-1.6.81.63,0,2.81,1.34,3.48.06.86-.47,1.13-.27,2.14.96-.07.99.8,1.88.8.42-2.2-.66-2.91-1.61-3.74.53-1.39-.42-2.98-.54-4.54,1.09.19,1.54-.26,1.34-1.34-.82-.19-.79.46-1.61.27Zm76.04.8c.68-.03,1.04-.39,1.07-1.07-.84-.12-1.2.23-1.07,1.07Zm28.21-.53h.54v-.54h-.54v.54Zm-13.17-.27c-.21.06-.53,0-.54.27.21-.06.53,0,.54-.27Zm-156.37,1.34c-.05-.4.1-.99-.27-1.07-.35.35-.35,1,.27,1.07Zm76.04-.54c.17,2.33.82,4.18,2.42,5.08.82-2.14,1.32-4.14-.27-5.61-1.19-.29-1.34.45-2.15.53Zm66.1,1.07c.88.37.52,1.98,1.35,2.41-.23-1.12,1.2-.58,1.61-1.07-.14-1.03.48-1.3.27-2.41-.84-.76-3.09-.4-3.23,1.07Zm-133.27,3.74c1.51-.38,3.07-4.22.81-5.08-1.13.57-2.04,1.36-2.42,2.67.43,1.65.61,2.52-.27,3.74.63.08.5.93,1.34.8-.19-.72.56-.52.81-.8.11-.64-.49-.58-.27-1.34Zm96.73-2.41c1.19.12,1.7-.45,1.88-1.34-1.32.07-.82-1.68-2.42-1.34-.04,1.11-.09,2.23.54,2.67Zm29.82-2.14c-.83.2-.52-.73-1.34-.54-.32.8,1.13,1.15,1.34.54Zm1.35,3.48c1.92-.26,3.17-1.89,2.42-4.01h-2.96c-.06,1.57.17,2.87.54,4.01Zm12.63-4.01c-.47.15-1.58-.32-1.61.27.47-.15,1.58.32,1.61-.27Zm-113.65,5.62c-.71-.45-1.98.4-2.42,1.07.96-.02,1.55-.42,2.42-.54.88,1,.34,3.4,2.15,3.48.65.11.58-.49,1.34-.27.02-1.14.54-1.96,0-2.94.83-.2.52.73,1.34.54.1-.8.43-1.36.8-1.87-.5-.3-1.29-.32-1.07-1.34,1.16-.19,2.72.03,3.22-.8-1.76.92-.85-1.39-1.08-2.67-3.94-.8-.7,5.54-3.76,5.62-.45-.44-.21-1.57-.27-2.41-1.38-.2-1.49,1.02-2.15.8.62.21-.14,1.26-.54,1.34Zm65.83-5.08c-1.46-.65-1.06.74-2.69.53-.46,1.3-.4,1.5-.27,3.21.99.18,1.9.61,2.69.27.71-1.26,1-2.63.27-4.01Zm-30.36.53c-.24-.21-.61-.29-1.07-.27-.11,1.23-1.19,1.49-1.61,2.41,1.57.12,2.21,1.4,3.76.8-.06-.86.47-1.13.27-2.14-.42-.02-1.02.13-1.07-.27h.27v-.27c.66.42.79-.91.27-.8,0,.26-.33.21-.54.27h-.27v.27Zm41.65,1.6c.66.04,1.3.04,1.61-.27.11-.64-.49-.58-.27-1.34-.36-.44-1.52-.09-1.88-.53-.13,1.02.08,1.71.54,2.14Zm15.85-1.34c-.14-.21-.28-.43-.27-.8-.99.18-2.04.29-2.96.53-.19,1.17.14,1.82.8,2.14,1.49.32,1.63-.69,2.42-1.07v.27h.27c.1,1.25-.47,1.52.27,2.14,2.6-.07.25-2.26,1.08-3.48h-1.08c.04.31-.06.48-.27.54v-.27h-.27Zm-130.04.54c1.04.21,1.04-1.28,0-1.07v1.07Zm27.94,2.14c.63-.54,1.67-.65,1.88-1.6-.16-.56-.67-.76-.54-1.6h-2.69c-.7,1.42.26,2.75,1.34,3.21Zm8.6.8c.98-1-.42-1.61,0-3.48-.83.2-.52-.73-1.34-.53-.88.38-1.83,1.78-1.08,2.94,1.11.21,1.38-.41,2.42-.27-.16.16-.63,1.27,0,1.34Zm56.96-1.87c.77,1.42,1.21,1.5,1.34,3.48.63.21,1.86.53,2.42,0-.77-2.08-.48-4.05-1.34-5.61-1.58-.06-2.18.86-2.42,2.14Zm25.25,0c1.62-.36,1.7.8,3.23.54.24-.65.62-1.16.54-2.14-.3-.06-.42-.3-.54-.53-1.82-.03-2.69.89-3.23,2.14Zm38.42-1.87c0-.27-.47-.34-.54,0,.3-.03.42.39.54,0Zm-164.43,1.6c-.55-.07-.54-.71-.81-1.07-2.34.44-4,.44-4.57,2.94,1.03-.75,1.04.7,1.88,0,.43-1.05-1.16-.09-1.07-.8-.02-.46.2-.69.54-.8.55.16,1.02.41.81,1.34,1.86.34,2.17-.87,4.03-.54.65-.62-.42-.71-.54-1.34,1.2.3.97-.82,1.34-1.34-1.28-.2-1.23.91-1.61,1.6Zm9.67,0c.47.56,2.21.81,2.69.54v-2.14c-1.65-.21-2.46.41-2.69,1.6Zm46.75-.27c-.49,1.79.74,2.61,2.42,2.94.23-1.02.73-1.77.54-3.21.84.12,1.2-.23,1.08-1.07h-1.08c.16,1.96-2.1.17-2.96,1.34Zm38.42.27c1.05.29,1.08-1.59.27-1.6-.32.42-.86,1.04-.27,1.6Zm60.45.8c.45.35.9.71,1.88.53.67-1,.13-2.7-1.08-2.67.69,1.48-.64.93-.81,2.14Zm-152.08-.27c.34.37,1.27.37,1.61,0,.29-1-.67-.76-.54-1.6-.89,0-1.03.76-1.08,1.6Zm27.95-1.07c.42-.03.93.04.8-.54h-.54c0,.27-.22.32-.27.54Zm13.7.53c1.03.21,1.03-1.28,0-1.07v1.07Zm67.17-.8c0-.27-.47-.34-.54,0,.06.32.3.16.54,0Zm-22.3.54h1.07v-.54h-1.07v.54Zm83.29.27c-2.65-.89-6.01,1.27-10.21.54-2.61,2.31-2.05,7.77-4.84,9.89-.71,0-1.58-.15-1.61.54.43,1.08,1.83,1.21,2.95,1.6.69,2.42,2.17,6.63-.54,8.02-3.34.15-6.83.16-9.14,1.34.2.82-.28.97-.27,1.6,1.45,2.74,4.26,4.14,6.18,6.42h3.49c.83.52,1.49,2.61,2.68,1.87-.47-.36-.98-2.21,0-2.41.27,0,.32-.22.54-.27,2.04.11,1.61,2.68,4.03,2.41,1.05-.47.64-2.39,2.15-2.41,1.62.57,1.55,1.43,1.61,3.21,1.35-.8,1.19-3.09,1.61-4.81-1.21-4.31-3.85-8.59-5.91-12.83-.11-2.6.08-4.91.27-7.22,1.77-2.25,4.35-3.69,6.98-5.08,1.26-.26,2.92-.32,3.22-2.14-.21-.06-.31-.22-.27-.53-.96-.76-1.83.35-2.96.27Zm-106.13,1.6v-1.34c-.59-.3-1.1-.69-2.15-.53-.6,1.18.89,2.54,2.15,1.87Zm75.23.54c.6-.21,1.46-.15,1.61-.8-.58.04-.12-.95-.27-1.34-2.29-.64-1.31,1.13-1.34,2.14Zm-134.61-.54c-.07,1.08,2.2.6,1.61-.54-.43-.08-.46.25-.81.27v-.27h-.27c0-.53.73-.34.54-1.07-1.06-.41-1.75.91-1.08,1.34l-.13.13.13.13Zm54.54-1.34c-.36-.08-.51-.38-1.07-.27-.43.75,1.16.74,1.07.27Zm99.41,0c.31,1.06.31-1.06,0,0h0Zm16.66,0c.31,1.06.31-1.06,0,0h0Zm2.96.27c0-.27-.47-.34-.54,0,.06.32.3.16.54,0Zm-141.33,1.07c.47-.24.83-.6,1.07-1.07-.82-.26-1.47,1.83-1.07,1.07Zm49.71,0c.62-.09,1.26-.17,1.07-1.07h-1.34c-.02.47.06.83.27,1.07Zm-106.67,0v1.07c1.66.3,2.09-1.89,3.22-.53.11-.64-.49-.58-.27-1.34-1.68-.43-1.41,1.09-2.96.8Zm105.33-.27c-.23,1.58.16-1.07,0,0h0Zm60.99,2.94c.02.78.61.99,1.08,1.34.35-1.16,1.07-1.84,2.42-1.34-.14-1.64-1.22-2.35-2.42-2.94.88,1.49-1.03,1.59-1.08,2.94Zm6.18,10.7c-1.16-1.07-2.72-1.75-2.95-3.74-3.31-1.97-6.5-4.05-10.21-5.62-2.78.09-3.74-1.63-5.91-2.14h-2.42c-.63-.08-.5-.93-1.34-.8-3.27-.28-6.11,0-9.41-1.07-.06.3-.3.42-.54.54-6.16.07-9.96,1.02-15.31,2.67-.83.2-.52-.73-1.35-.54-.69.74-1.96.9-2.68,1.6.55.61.55,1.77,1.07,2.41.21.06.53,0,.54.27,1.84-.13,3.35-.59,4.57-1.34,2.91.16,7.78.39,10.75-.27.64.7,1.07,1.61,2.15,1.87-.13-1.29.48-1.84,1.34-2.14,6.19.97,11.1.18,15.58,3.74.03-.59,1.14-.11,1.61-.27,1.24,1.17,3.55,1.28,4.57,2.67,3.51.16,4.93,2.41,8.06,2.94.34.73.8,1.34,1.88,1.34.37-.81-.13-.95,0-2.14ZM33.05,17.11c-.21.06-.53,0-.54.27.21-.06.53,0,.54-.27Zm18.27.8c.38.78,1.68.65,2.42,1.07.43-2.25-1.57-2.02-2.42-1.07Zm34.93.27c.72.24-.12,1.08-.81.8.13,1.62,1.72,2.11.81,4.01,1.05-.04.78-1.2.54-1.87,1.42-.19,1.58-1.64,2.15-2.67-.9-.22-1.96-1.41-2.69-.27Zm1.88-.54v-.53h-.54v.53h.54Zm24.18.27c.02-.46-.21-.69-.54-.8.03.42-.04.93.54.8Zm54.54-.27c1.37,1.58.95-1.57,0,0h0Zm5.11-.53c-.29,1.55,1.16.11,0,0h0Zm-116.88.53c.31,1.06.31-1.06,0,0h0Zm6.99,6.95h1.34c-.49-2.03,2.35-3.35,1.07-6.15-1.1-.67-1.07.48-2.42.27-.87-.12-.22-1.74-1.61-1.34-1.46,2.53,1.15,4.89,1.61,7.22Zm.8-6.95c.31,1.06.31-1.06,0,0h0Zm54.81,2.14c.86-.04,1.18-.61,1.07-1.6-1.04.23-.44-1.17-1.61-.8v.8h-.27v.27c-1.13-1.18-2.62.62-2.42,2.41.79-.07.83.6,1.61.54.57-.5.93-1.21,1.34-1.87v.27h.27Zm-87.59-.53h1.07c-.22-.76-.61-1.36-1.34-1.6,0,.63.46.79.27,1.6Zm24.18-1.34c.31,1.06.31-1.06,0,0h0Zm19.88.8c.08-.7-.1-1.15-.81-1.07.11.51.1,1.15.81,1.07Zm45.14,1.07c.83.2.51-.73,1.34-.53-.18.98.58,1.03.54,1.87h2.69c-.3-1.61-.34-2.71-.27-3.48-2.17-.02-3.41.88-4.3,2.14Zm-63.14-1.6c-.04.31.05.76-.27.8-.13-.32-.29-.61-.54-.8-1.12.76-1.68,2.07-2.69,2.94v-1.6c-.62-.09-1.03.04-1.34.27.12.95.48,1.66,1.07,2.14.11-.34.35-.55.81-.53.17.72,1.12.67,1.07,1.6,1.08,0,.89-1.25,1.61-1.6-.74-2,1.07-2.08,1.61-3.48-.65-.11-.58.49-1.34.27Zm68.52,1.6c1.21-.37,1.2-.08,1.88.54.18-.36.58-.5,1.07-.54v-1.87c-.84.77-2.93.3-2.96,1.87Zm52.66-1.87c-.21.06-.53,0-.54.27.21-.06.53,0,.54-.27Zm10.21,4.81c.98-.38,1.21.15,1.88-.54.23-2.1-1.13-2.62-1.34-4.28-.47,1.15-1.87.77-2.42,0,.97,1.26,1.67,2.79,1.88,4.81Zm-159.33-2.41c.65.09,1.27-2.01.27-1.87.21.93-.4,1.03-.27,1.87Zm65.29.8c1.71.1,1.6-2.41.27-2.67h-.54c.07.91-.21,2.17.27,2.67Zm35.2,0c1.66.14,2.47-.57,2.69-1.87-1.2-1.85-2.71.17-2.69,1.87Zm-58.84-2.14c-.09,1.07-.01,1.98.54,2.41h1.34c.75-1.48-.02-3.32-1.88-2.41Zm30.63,1.87c.85.83,2.03.8,3.22.27.29-1.98-1.49-1.9-2.69-2.41-.08.81-.83.96-.54,2.14Zm109.09-1.87c.31,1.06.31-1.06,0,0h0Zm-189.69,2.67c.44.4,1.98.4,2.42,0,.89-2.54-2.81-3.66-2.42,0Zm13.16-2.14c-1.42.71,1.02-.51,0,0h0Zm144.55,1.87c1.38-.4,1.33.64,2.15.8v-.54c.16-.01.32-.04.27-.27-.75-.24-1.64-.33-2.15-.8.37-.34.41-1.31-.27-1.34.24,1.02-.44,1.71,0,2.14Zm-147.78.27c.47,1.55.88,1.6.81,3.48,1.37-.41,1.42-2.15,2.95-2.41-.13-1.37-2.15-2.04-1.88-2.94-.02-.16-.04-.32-.27-.27-.34.91-1.49,1.01-1.61,2.14Zm179.21.27c.63-.09,1.11-.32,1.61-.53v-1.34c-.97-.43-1.3.05-2.15-.27-.57,1,.03,1.52.54,2.14Zm-171.15.54c1.16.97,3.71.38,3.22-1.87-1.12-1.12-4.09-.64-3.22,1.87Zm67.71-2.41c-.32.04-.76-.05-.81.27.32-.04.76.05.81-.27Zm6.18.53h.54v-.53h-.54v.53Zm-66.63.8c.23,1.02,1.05,1.45,2.15,1.6.39-.59.82-1.15.81-2.14-.64-.89-2.78-.59-2.96.54Zm30.09.27c.8.32,1.15-1.13.54-1.34-.12.51-.77.48-.54,1.34Zm-41.11.54c.48.24.34,1.09,1.34.8.43-.58-.84-1.46.27-2.14-.86-.73-1.38.6-1.61,1.34Zm9.67-.54c.03-.42.68-.21.54-.8-.55-.23-1.21.69-.54.8Zm158.25,8.02c1.35.36,1.05-.92,1.88-1.07.2.78.64,1.33,1.08,1.87.71,0,1.54.1,1.88-.27.01-1-.91-1.06-.54-2.41-.32-.04-.76.05-.8-.27.1-1.44-1.39-1.29-1.35-2.67,1.73-.18,2.72-3.38.54-3.74-1.34.7-3,2.95-1.34,4.28.02,1.08-1.64.07-1.61.54.05,1.18-.61,1.97.27,3.74Zm-101.56-6.42c.08-.61-.07-1.01-.54-1.07-.5.47.07.83.54,1.07Zm-28.48-.54v.54c.66.42.79-.91.27-.8-.02.16-.04.32-.27.27Zm9.4,1.34c.86.38.68-1.6.27-1.6-.31.32-.3.94-.27,1.6Zm-6.45-.27c.77.05,1.47.03,1.34-.8-.45-.45-1.58-.21-1.34.8Zm-5.11.54c.08-.16.67-1.03,0-1.07-.08.16-.67,1.03,0,1.07Zm137.84,0c1.36-1.08-.94-1.25,0,0h0ZM19.35,31.02c1.59,2.96-.97,5.74-.54,8.82.48,3.37,1.39,6.61,2.69,8.55,1.29.86,2.96,1.33,3.49,2.94,2.71.92,5.35,2.87,9.14,1.87,1.06-1.61,2.33-3.03,2.15-5.88-1.86-3.59-.44-10.44-4.03-12.3-.46,1.86-1.46,3.18-2.96,4.01-5.12-.31-6.21-6.16-4.03-10.16-.7-1.7.4-3.57,0-4.81-3.85-.6-4.05,4.69-5.91,6.95Zm60.46-6.68c-.3.03-.42-.39-.54,0,0,.27.47.34.54,0Zm82.49,1.34c-.99-.16-.72,2.3.27,1.87.15-.47-.33-1.57.27-1.6,1.22.25-.14,1.67.54,2.14,1.32-.02,1.94-.74,3.22-.8.03-.83-.85-.76-.54-1.87-1-.43-1.96-.9-2.95-1.34.18.82-.46,2.18-.81,1.6Zm45.68,2.41c.7.1,1.57.23,2.96.27.31-.59.9-.89,1.08-1.6-.49-.4-.67-1.12-1.34-1.34-.3.5-.32,1.29-1.34,1.07-.52-.97.34-1.44.54-2.41h-1.08c.02,1.62-.3,2.91-.81,4.01Zm-146.97-3.48c.31,1.06.31-1.06,0,0h0Zm97.27,91.97c3.09-.99,5.58-1.54,8.06-2.67.69-.38.4-1.74,1.34-1.87,1.01-.38,2.3-1.17,2.69-1.6.12-.13.66.11.81,0,1.17-.86,2.35-3.15,4.03-4.55.59-.49,1.39-.6,1.88-1.07.5-.47.71-1.44,1.35-2.14.62-.68,1.83-1.17,2.15-1.6.34-.47.28-1.82.8-2.41.8-.91,1.82-1.52,1.88-2.94.72-.35,1.43-.72,2.15-1.07.56-1.49,1.31-2.79,2.15-4.01-.34-2.93,1.36-5.41,1.07-8.29,1.18-1.68,1.75-3.96,2.96-5.62-.11-1.48-.3-2.26.27-3.48-1.67-1.68-1.32-6.03-1.34-8.56-.96-2.07-1.43-4.64-1.88-7.22-2.27-3.53-4.09-7.52-6.72-10.69.19-.99-.46-1.15-.27-2.14-3.29-2.88-6.35-5.97-10.48-8.02-1.44-2.49-4.23-3.63-6.45-5.35-2.7-.08-4.49-1.06-5.91-2.41-1.21,1.36-3.21-.59-4.57-.8-3.78.02-6.86-.66-9.67-1.6-1.34.24-1.73,0-3.22.27-.59-.58-2.03-.3-2.69-.8-8.95.43-18.54-3.35-28.21-.54-1.07.26-.81-.8-1.88-.53-7.28-.3-12.91,1.01-21.23.53-2.02,1.26-4.44.57-6.72.54-5.63-.08-10.79.83-16.93.27-.85.04-1.18.61-2.15.53-1,.19-1.15-.46-2.15-.27-4.88.74-10.75.87-15.31-.27-1.99.5-5.58.42-7.26-.27-1.56,1.62-4.64.77-6.45,1.34-.47,2.55,3.23,1.97,4.84,1.6,2.49,1.35,6.93.77,9.13,2.41.37-.61,1.87-.1,2.69-.27,1.12.37,2.38.93,3.76,1.34,1.19.35,3.21.17,3.49,1.6.69.29,1.28-.81,1.61,0,.73.64-1.3,3.35.54,3.48,1.61.18-.03-2.88,1.61-2.67,1.86.02,1.93,1.82,4.03,1.6.67.99,2.12,1.47,2.95,2.41.2.22.07,1.08.27,1.34.79,1.01,1.73,1.27,2.15,2.14.46.94.85,2.84,1.08,4.54.24,1.76.62,3.83.8,5.62.21,2.02-.39,3.73-.54,5.61-.26,3.31.92,6.58,1.07,9.62.06,1.31-.32,2.7-.27,4.01.04,1,.49,1.99.54,2.94.22,4.67-.62,9.26-.54,13.63.06,3.36,1.39,6.4.81,9.63-.4.94-.85,1.83-1.08,2.94.6,1.7.83,4.5,0,6.15,1.34,4.41.76,8.85.54,13.9,1.34,2.89-.21,6.71-.27,9.89,2.17,4.02,1.32,11.48.54,15.77.42,4.97,1.09,10.21.81,14.44-2.53,2.47.54,5.64,0,9.36-.61,1.09-.66,2.74-.81,4.28,2.67,4.25.63,10.06.81,14.97-1.24,2.87-3.91,4.31-5.91,6.42-2.62,1.23-5.61,2.08-7.79,3.74-3.55.56-5.16,3.07-9.4,2.94-1.11.99-3.73,1.76-5.11,1.6.08-.7-.1-1.15-.8-1.07,1.8-1.6,2.81-3.97,4.57-5.61,2.29.3,3.87,1.32,6.18,1.6,2.37-.8,4.96-1.5,4.84-3.74-.16-2.87-5.91-3.61-5.91-6.15,1.58-1.64,2.86-3.57,2.69-6.95.3-.5.67-.94.81-1.6.04-2.08,1.66-6.01-.81-6.68-1.34-.09-.97,1.53-1.61,2.14-.13,1.12-.52,1.98-.81,2.94-3.24,2.84-3.68,8.46-8.87,9.36-2.16,3.38-1.53,9.52-3.22,13.37.76,1.08.84,1.78.54,3.48-1.41-.56-2.25-1.66-2.95.27-.71,1.24,2.25.7,2.42,1.34-.2,1.29-.51,1.95-.27,3.21-.71.46-1.35.98-1.08,2.41.75.14,1.4.39,2.15.54,1.62-1.19.85-3.55,0-5.08,1.03-.13,1.33-.99,1.61-1.87,2.49.22,6.43.75,8.33-.8,1.06.2,1.95.56,2.95.8,2.42-.57,6.83-.99,9.13,0,4-.3,7.1-1.03,12.63-.8,1.91-1.29,4.31-.6,6.99-.8,1.83-.14,3.54-.68,4.83-.53.74.08,2.19,1.03,2.42,1.07,1.29.22,3.47.07,4.84,0,3.04-.16,5.9-1.64,8.87-1.07,1,.19,1.67.98,2.69,1.07,1.28.12,2.69-.62,4.03-.54,1.05.07,2.01.78,2.96.8.91.02,1.52-.41,2.42-.54,6.62-.94,13.02.96,18.54-.8-2.38-2.45-7.14-1.3-10.75-2.14-.7-.11-.81-.8-1.61-.8-1.78.17-2.3-.92-4.3-.53-2.5-1.88-5.38-3.38-8.87-4.28-1.19-1.75-3.25-2.65-4.57-4.28-2.54-4.5-1.51-9.89-1.88-15.24-.18-2.68-1.75-5.11-1.88-7.49-.07-1.21.58-2.36.54-3.48-.08-1.97-1.57-3.15-1.34-5.08.21-1.01.94-1.85,1.07-2.94.19-1.5-.48-2.77-.54-4.28-.09-2.38.8-4.7.54-7.22-.31-2.93-1.57-5.74-.54-8.56.02-1-1.16-.81-.81-2.14,1.11-3.73-.13-7.36-.54-10.43.87-9.11-.27-19.41-.27-29.68.53-.45.43-1.53,1.08-1.87-1.16-3.41-1.26-7.09-1.61-9.89-.4-3.19.51-5.71.81-9.09.17-1.97-.44-4.12-.27-6.15.06-.79.49-1.62.54-2.41.24-4.38-.36-8.84,0-13.63-2.93-4.39,1.51-7.48,2.96-10.7,3.29-1.63,5.56-4.28,8.87-5.88,4.95-1.23,8.98-1.75,14.51-.8,2.15,1.94,5.55,1.3,8.87,1.6,3.16.29,5.04,1.76,7.25,2.41,2.17.63,4.88.38,6.18,1.07,2.54,3.8,7.67,5.02,9.94,9.09.32.66.39,1.57.54,2.41,2.64,1.56,3.98,4.42,5.37,7.22-.42,4.93,2.05,9.8,1.61,15.24-.27,3.29-1.54,6.61-1.34,10.16-1.28,2.64-2.4,5.46-2.69,9.09-.7.44-1.08,1-1.61,1.6-1,1.14-1.35,1.85-2.15,2.94-.29.4-.83.45-1.07.8-2.53,3.65-3.73,8.32-8.87,8.82-.73.34-.85,1.29-1.61,1.6-2.03-.37-3.21,1.81-5.1,2.41-2.6-.45-3.12,1.17-5.64.8-1.02,1.48-3.92,1.09-5.1,2.41-1.09-.27-3.75.19-5.64,0-5.6,1.6-12.79-.79-18-.27-.4,2.08,2.46,2.24,4.3,2.94,2.97,1.13,5.34,3.13,9.67,2.41,1.06.64,2.17,1.23,3.49,1.6,1.75-.41,3.07.5,4.57.53,1.29.04,2.23-.42,3.49-.53.69-.06,1.18.26,1.88.27,1.3.01,2.71-.65,3.49-.8.67-.13,1.54.33,2.15.27.53-.06,1.06-.76,1.61-.8,1.4-.11,2.08-.02,3.22-.27,1.95-.43,3.26.22,4.84.27,2.3.06,4.42-1.49,6.99-.8.86-1.02,1.72-2.03,2.69-2.94Zm-5.11-90.37c-.46-1.02.46-1.76-.81-1.87-.52.95.38,1.17.81,1.87Zm60.72.53h.8v-.53h-.8v.53Zm-42.72.27h.54v-.54h-.54v.54Zm-.54,3.48c.8-.02.72-2.29.27-2.67-.13.82-2.2,2.23-.27,2.67Zm20.42-1.6c-.34-.01-.37-.34-.81-.27-.42.66.91.79.81.27Zm-177.6,1.34c.63.17,1.25-1.58.27-1.34.09.62-.04,1.03-.27,1.34Zm2.69,0c-.21.06-.53,0-.54.27.21-.06.53,0,.54-.27Zm161.21.8c-1.69-.88-2.71,2.78-.54,2.94,1.13-.34.74-2.87,2.42-1.87-.54-.71-.94-1.56-1.88-1.87v.8Zm11.29.27c.71.08.88-.37.81-1.07-.71-.08-.88.37-.81,1.07Zm13.7-.54c.42-.03.93.04.81-.53h-.54c0,.27-.22.32-.27.53Zm-174.64.54c-.11,1.18-.07,2.21,1.34,1.87,0-.79.8-2.14-.27-2.41-.04.49-.91.16-1.07.54Zm-14.24.27c.34.01.37.34.81.27-.04-.31.05-.76-.27-.8,0,.35-.47.24-.54.53Zm188.08,0c.31,1.06.31-1.06,0,0h0Zm6.45,5.35c.7-.16.97.11.81.8-.22-.14-.44-.28-.81-.27v1.34c.56.15.77.66,1.61.53-.29-.81.42-1.86-.27-2.67.69-.28,1.26-1.73,1.88-.53.53-.52-.54-.82-.54-1.6.31-.65.5-2.31.27-2.67-1.1.65-1.68-.11-2.42-.53,0,.26-.33.21-.54.27.23.67.35,1.43.27,2.41h-1.34c-.82.58-.24,3.3.81,2.67v.27h.27Zm-18.54-4.28c.06-.38.44-.45.54-.8-.16-.01-.32-.04-.27-.27h-.54c.05.4-.1.99.27,1.07Zm-152.61-.27c-.12.92.11,1.5.27,2.14.64.16,1.23.38,2.15.27.52-.65.26-2.24,0-2.94-1.07-.08-1.98-.01-2.42.54Zm130.85,0c.9.81.81-.99,0,0h0Zm-120.64,1.34c.08-.16.67-1.03,0-1.07-.08.17-.67,1.03,0,1.07Zm134.34,1.6c.67.87,1.95-.73,1.08-1.34-.05.75-1.28.33-1.08,1.34Zm-139.45-.27c.08.63.42,1,.27,1.87.82-.19.98.27,1.61.27.31-.58.69-1.09.54-2.14-1,.28-.87-.56-1.34-.8.08.71-.37.88-1.07.8Zm8.6,2.67c.71-.54,1.58-.92,1.34-2.41-.4-.76-1.41-.92-2.69-.8-.09,1.6-.1,3.13,1.34,3.21Zm-4.03-2.67c-.32.04-.76-.05-.81.27.32-.04.76.05.81-.27Zm6.18,1.34c.71.08.88-.37.81-1.07-.71-.08-.69.56-.81,1.07Zm66.63,0c-2.28,2.28-3.2,5.91-5.64,8.02.58-.05.86.22.8.8-.57,2.55-1.28,4.97-2.95,6.42-2.08.16-3.39,1.09-4.84,1.87-.66.83-.29,1.97-.81,3.21-.54,1.3-1.74,2.04-1.88,3.48-.19,1.96.99,3.89,1.61,4.81.45.66.36,1.62,1.34,1.34.04-2.01,1.3-3.92,2.96-5.08.46-2.36-.18-4.24,1.08-5.62,1.36,1,1.65,4.37,1.07,6.42,1.02.39,1.89.53,1.34,1.87,1.67-.15,1.8,1.24,3.49,1.07.39-2.58-1.83-3.84-2.15-5.88-.41-2.57.54-4.86-.27-7.22,2.01-3.26,3.03-7.5,4.3-11.5.7-1.17,2.11-1.64,2.15-3.48-.48-.24-.68-.75-1.61-.54Zm-2.96,1.6c.34-.31.22-1.11-.54-1.07-.08.61.06,1,.54,1.07Zm6.72,8.02c-.7-1.37-3.12-.17-3.49.54.16,1,.94,1.38,1.34,2.14,3.81.41,4.68-2.11,6.99-3.21-.08.71.56.69,1.08.8.27-1.25-.76-1.2-1.34-1.6.44-1.5-1.27-.88-1.34-1.87.15-.55.81-.52.27-1.07-.63.08-1.16.57-1.35-.27.18-.36.58-.5,1.08-.53-.23-1.35.01-1.58-.27-2.67-.93.21-1.13-.3-1.61-.54.41,1.23-.34,2.84.54,4.01-1.37.38-1.15-.82-1.88-1.07.19.97.1,2.21.54,2.94.25-.46.94-.69,1.35-.27.35-.67-1.06-.84-.27-1.07,1.67,1.06-1.27,1.87-.54,3.74-.43-.07-.46.25-.81.27v-.27h-.27Zm-77.38-7.49c-.04.66.14,1.11.54,1.34.15-.56.67-.76.54-1.6-.47-.02-.84.06-1.07.27Zm78.19.53c-.38-.06-.45-.44-.81-.53-.24.55.7,1.2.81.53Zm-86.25,0c-.44.7.76,1.61,1.61,1.87.36-.45.71-.9.54-1.87-.53-.53-1.53-.17-2.15,0Zm169.81.8c.35-.36.35-1-.27-1.07-.35.36-.35,1,.27,1.07Zm-95.38,2.14c1.53-.13.63-1.21,1.08-2.14-1.09-.02-1.16.99-1.08,2.14Zm18.27-.8c.16,1.44,1.28,1.94,2.96,1.87.25-.91,1.19-1.13,1.07-2.41-.82-1.13-3.71-1.04-4.03.53Zm-79.53-.53c-.88,1.35-2.78,1.69-5.11,1.6-1.15.29-1.35,1.51-2.69,1.6-.75-.68-1.12-1.74-1.88-2.41-.11.96-1.03,1.12-1.08,2.14-.21,1.54.92,1.76.54,3.48-.96,2.51-2.9,6.19-.54,8.29,3.95-.16,6.09-.5,9.94-.8,2.1-3.35,4.15-6.74,6.99-9.36.05-2.26,1.9-2.75,2.15-4.81-3.05-.95-5.71,1.27-8.33.27Zm86.25-.54c-.81.9.99.81,0,0h0Zm72.55,1.34c-.09-.62-.28-1.15-.81-1.34-.05.77-.03,1.46.81,1.34Zm-72.82.27c-.21.93.4,1.03.27,1.87,1.63.28,2.07-.62,3.23-.8v-2.14c-1.79-.83-1.88.99-3.5,1.07Zm-73.08,7.49c-1.41-.8-1.63-2.88-.54-4.28-.6-1.01-.82-2.39-1.07-3.74-1.43-.08-1.53,1.15-1.61,2.41,2.21,2.31,0,3.53,0,6.95-.32.04-.76-.05-.8.27,1.05,1.8,4,.63,4.03-1.6Zm41.38-4.81c.03-.33.08-.63.54-.54.46.53.31,1.65.81,2.14.56-.97.18-1.23.54-2.41-1.37-.21-3.06-.11-1.88.8Zm38.69,1.07c.51,1.5,2.87,1.15,3.5,0-.23-1.96-3.32-2.04-3.5,0Zm-34.93-.27c-.1,1.26.64,1.68,1.07,2.41-.44-1.41,1.13-.84.81-2.14-.57-.21-1.5-.65-1.88-.27Zm99.68,2.94c1.36.02,1.43-1.25,2.69-1.34v-1.34c-.63-.09-1.11-.32-1.61-.53-.67.76-.84,2.01-1.08,3.21Zm-1.07-2.67c-.28,1.55,1.16.11,0,0h0Zm-72.55,2.14c.44,1.43,3.19.57,4.84.8.32.4.23,1.2,1.07,1.07.93-.05,1.75-.22,1.61-1.34-.32-.54-2.97.51-2.96-1.07-1.13-.14-1.5.47-2.42.53-.46-.68.41-1.04-.54-1.07-1-.11-1.58.21-1.61,1.07Zm54.54,1.07c-.56-.24-.82-.79-.81-1.6h-1.88c.07,1.48-.32.16-1.08.27-.36,1.58-.23,3.16,1.34,3.48.62.08.3-.77.8-.8.15.38.42.65.81.8.16-.56.56-.86.81-1.34h.27v-.27c.32.04.23.49.27.8.9-.48.69-1.46,2.15-.8.15-.16.63-1.27,0-1.34-1.2,1.24-1.93-1.3-2.69-.53-.11.56.18.71.27,1.07h-.27v.27Zm-69.59,2.67c-1.09-1.01-1.14-2.39-.54-4.01h-1.07c.27,1.6-.11,3.85,1.61,4.01Zm8.87-1.34c1.04.23,2.25.23,2.96-.8-.6-.12-.11-1.32-.27-1.87h-1.88c-.51.65-1,1.32-.81,2.67Zm4.03-2.14c.46.01.69-.21.81-.53-.42.03-.93-.04-.81.53Zm69.59,1.87c-.06-.47.27-1.34-.54-1.07-.07.61.07,1.01.54,1.07Zm-97.8,1.34c.79-.07.82.6,1.61.54-.06-.86.47-1.13.27-2.14-.45-.36-.9-.71-1.88-.54v2.14Zm2.69-1.34h.54v-.53h-.54v.53Zm42.72,2.41c1.84.22,3.5.62,4.84,1.34-.13-1.67-2.78-1.26-1.88-3.21-.57-.24-.79-.82-1.61-.8-.16,1.18-1.78.9-1.34,2.67Zm-13.97-.27c.85-.08,2.08-1.59,1.07-1.87-.42.54-1.84.97-1.07,1.87Zm-80.34,1.07c1.53,1.29,3.57.04,3.76-1.6-1.16-1.77-4.95-1.22-3.76,1.6Zm-40.3,0c1.54-.29,1.27,1.23,2.96.8.12-.51.58-.67.54-1.34-.18-.98-.99-1.33-1.61-1.87.12,1.55-1.34,1.52-1.88,2.41Zm106.67,0c1.07-.33,1.1.5,2.96.54.4-.4.8-.8,1.07-1.34-.49-.4-.63-1.15-1.07-1.6-2.15-.36-2.61.97-2.96,2.41Zm22.03-2.14c.07.96-.5,1.29-.54,2.14.86,1.39,1.9,1.32,4.03,1.07.02-1.09-.88-1.27-.54-2.67-1.2-.27-1.66-1.01-2.96-.54Zm-22.84,1.07c0-.53.74-.34.54-1.07-.68-.28-1.19.9-.54,1.07Zm12.63-.8c-.65.9.9-.65,0,0h0Zm-17.47,3.21c1.43.63,3.04-.66,2.69-2.67-1.88-1.09-3.31,1.32-2.69,2.67Zm75.77,30.21c-.85,1.14-2.05-.58-2.42.54-.99,1.52,1.1,1.84,2.42,1.34,1.16,1.97,3.25,3,4.83,4.55h5.11c4.26,2.02,10.03.62,9.94-5.08-.91-.61-.99-2.05-1.34-3.21-.76.22-.69-.38-1.34-.27-.92,1.14-2.12,1.99-2.96,3.21-1.1.78-3.27.49-5.11.53-.6-.74-1.4-1.28-1.07-2.94,1.45-.98,3.88-.51,4.84.27,1.22-.66,1.07-2.68,1.61-4.01-1.51-3.32.56-7.37,1.34-10.16-.3-.86-1.4-.92-1.61-1.87.48-5.23-1.09-10.15-1.88-15.51-1.35.18-2.08-.25-3.23-.27v3.47c1.9,3.29,1.59,8.28,2.69,11.76-1.2,1.92.11,6.34-1.07,8.29-.09,1.76,1.13,3.42.27,5.08-3.25-.68-5.83-.25-9.13-.27-.76,1.29-1.82,2.29-1.61,4.55l-.13-.13-.13.13Zm16.39-29.95c.51.47,1.78.19,2.69.27.8-1.06.47-2.36-.27-3.21-2.3-.5-2.69.88-2.42,2.94Zm-102.1-2.14c0-.27-.47-.34-.54,0,.06.32.3.16.54,0Zm36.54,5.61c-.85-1.65-1.53-3.47-3.49-4.01-2.54.12-4.15-.68-5.37-1.87-.29.61-1.69.1-2.42.27-.88,1.35-.7,2.52-.27,4.28-.92,1.23-2.42,1.87-4.03,2.41-.93-1.14-1.75-1.24-4.03-1.34-1.04,1.72-1.81,3.73-1.61,6.68.58,3.17,3.5,4,4.57,6.68,2.77,1.31,5.73-.8,9.13-.54,1.41-.56,2.52-1.42,4.03-1.87.52-1.27,1.62-1.96,2.69-2.67-1.17-2.21,1.07-4.99.81-8.02Zm-22.3-4.28c-.06-.47.27-1.34-.54-1.07-.08.61.06,1,.54,1.07Zm31.17.27c-.03-.68-.39-1.04-1.08-1.07-.12.84.23,1.19,1.08,1.07Zm-88.13,2.67c.62-1.25-.08-3.24-1.61-3.21-2.11.71-.82,4.81,1.61,3.21Zm132.19-2.94v2.41c1.31-.12,2.15-.71,1.88-2.41-.98.24-1.43-.47-1.88,0Zm-180.29,2.14c2.28-.17.11,2.61,1.08,3.47,2.66.36.43-2.57,2.15-3.21-1-.29-.76.66-1.61.53-.42-1.05.13-1.67-.27-2.41h-.81c.37,1.08-.58.85-.54,1.6Zm6.18.53c.79.77,2.45.65,2.42-.8-.68-.57-1.06-1.44-2.42-1.34-.06,1.12.44,1.26,0,2.14Zm192.65-1.34c.07-.36-.17-1.04-.27-.53-.07.36.17,1.04.27.53Zm-94.58.27c.27,0,.32.22.54.27,0-.27.22-.32.27-.54-.27,0-.32-.22-.54-.27,0,.27-.22.32-.27.54Zm27.14.27c.05-.58-.22-.85-.81-.8-.05.58.22.85.81.8Zm6.99,1.87c.34.11.55.34.54.8.51.06.59-.3,1.08-.27-.77-.89.52-2.17-.27-2.94-.18.8-.58-.25-1.08,0-.09,1.6.97,1.57-.27,2.41Zm-99.95-.27c.3.06.42.3.54.54,1.34.08,1.84-.67,1.61-2.14-1.27-.7-2.07.35-2.15,1.6Zm88.67-1.34c.46.01.69-.21.8-.54-.42.03-.93-.04-.8.54Zm69.86.53c.06-.21.23-.31.54-.27v-.8h-.8c.04.4-.1.99.27,1.07Zm-65.29,2.41c1.27.2,1.76-.38,2.42-.8-.4-1.19.43-2-.81-2.14-.63,1.19-2.46.91-1.61,2.94Zm-119.57-1.6c.04,1.3,1.05,1.63,2.42,1.6.39-.59.67-1.29.54-2.41-.8-.47-3.14-.56-2.96.8Zm167.93.8c.04-.32.48-.61,0-.8-.04.32-.48.61,0,.8Zm15.58,3.21c.63-.62,1.45-1.06,1.61-2.14-.15-1.1-1-1.5-2.42-1.34-1,1.08-.94,3.15.81,3.48Zm-153.69-1.34c1.08.56,2.4.19,2.69-.8-.55-1.01-3.13-1.3-2.69.8Zm99.68-1.6c-.21.06-.53,0-.54.27.21-.06.53,0,.54-.27Zm-97.53,12.57c.54-.22-.17-1.41-.27-1.87-.56-.16-1.76.33-1.88-.27v-3.21c-2.33-1.6-4.16-3.7-5.64-6.15-2.33-.91-6.12-1.21-8.06.27-6.45-2.6-5.5,6.16-5.64,10.43,1.63,1.77,3.7,3.09,5.11,5.08,2.67-.07,2.78,2.4,5.11,2.67.31.76,1.08,1.07,1.34,1.87,2.48,1.81,5.58,3,8.33,4.54.71,1.52.65,3.51,2.15,3.48.83-1.01-.26-2.41,0-3.74-.49-.4-.63-1.15-1.08-1.6-.52-2.3-1.32-3.85-2.96-5.35-1.85-1.7-5.75-2.85-5.64-6.42.51-.56.73-1.41,1.88-1.34,1.4.3,2.02,1.38,3.49,1.6.08,1.33,1.61.81,1.34,1.87,1.08-.56,2.19.02,2.15,1.34-.76.99-1.15-.1-2.15-.27.57,1.15-.43,1.89,0,2.67.49.41,2.2.41,2.69,0-.46-1.97.36-3.86-.54-5.61l.13.13.14-.13Zm-36.54,37.17v.53l-.4-.13.13.4c-.94-.16-.47.96,0,.27v.27h.27c.06.92.8,1.16,1.61,1.34,1.05-.38,1.18-1.68,1.08-3.21-.85.3-.61.02-1.61,0l-.13-.14-.13.14c.26-1.05-.59-1.55,0-2.14.84.41,1.5.17,2.15-.27.77-3.08-1.88-2.76-2.69-4.28-.95.79-1.19.83-2.42.27-.52.46-.87,1.1-2.15.8.12.61,1.11,1.73.27,2.41-1.51-.28-.41-1.96-1.34-2.41-.88.1-1.02.94-1.34,1.6.4.31,1.1.33,1.34.8-.56.58-.77-.13-1.61,0-.28,1.62.62,2.06.81,3.21h-.81c-.9,2.52.46,5.29.81,7.22.28,1.57.62,1.53,1.34,2.94.27.53.39,1.43.54,1.61,1.16,1.36,3.33,1.45,4.57,2.67,2.76.38,4.49,1.3,7.52.8.03.69,1.05.38,1.07,1.07-1.25,1.34-2.92,2.27-5.11,2.67-1.45,2.03-3.35,3.61-4.3,6.15-.76-.22-.7.38-1.34.27.05,2.54,2.69,2.5,3.76,4.01,1.59-.03,2.38-1.64,3.76-1.07,1.17-2.05,3.76-2.67,4.57-5.08,1.49-.07,1.7-1.7,2.95-2.14,1.24-.43,4.42-.31,6.18,0,.33.06.57.6,1.08.8.73.29,1.73.07,2.15.27,2.18,1.03,1.89,1.93,2.96,4.01.3.58.72.91.8,1.34.3,1.5-.22,3.07,0,4.81-.65.15-1.38.23-1.34,1.07,1.41.19.28,1.62,1.34,2.41-.61.73-2,.68-2.15,1.87-.4-.31-.68-.31-1.07,0,0,.63.46.79.27,1.6-4.28,5.28-8.4,10.71-11.28,17.38-.62-.09-1.03.04-1.34.27-1.08,1.95-1.36,4.71-2.69,6.42.5.4.4,1.38,1.34,1.34,1.73-.69,2.46-2.36,3.22-4.01,1.64-1.58,3.56-2.88,4.57-5.08,2.09-1.39,3.32-3.65,5.11-5.35l.13.13.13.13c.83-.2.52.73,1.34.54v-1.6l-.13-.13-.13-.13c.16-.37,1.04-.04,1.08-.53-.46.01-.7-.2-.81-.54,1.69-1.89,2.67-4.47,5.11-5.61-.1-2.9,2.25-3.72,1.34-6.68.1-.88,1.43-.54,1.34-1.6-.59-1.14-.18-3.3,1.34-3.21-.17-2.59-1.26-6.57.81-8.56-.47-3.15-1.02-7.81-.81-10.96-1.48-2.27-1.27-6.22-3.22-8.02v-1.6c-2.65-2.08-3.34-6.12-5.91-8.29.07-1.05-.97-.99-.8-2.14-3.4-2.41-5.45-6.16-8.06-9.36.32-.04.23-.49.27-.8-.48-.03-.57.33-1.07.27-2.08-1.94-3.15-4.89-4.57-7.49-1.11-4.33-1.7-9.18-2.15-14.17.89-.99,1.36-2.39,2.42-3.21.27.17.28.62.81.54-.78-2.28.58-4.05,1.34-5.61-1.08-.44-1.64,1.68-3.22,1.6-.77,1.64-2.11,2.72-2.96,4.28.08,2.38.19,4.97-1.07,6.68.74,3.15-.3,7.17.54,9.89,1.1,3.57,2.74,5.88,3.76,9.63.61.37,1.04.92,1.61,1.34.71,1.34,1.63,2.48,2.42,3.74.11.56-.18.71-.27,1.07,1.31.66,1.86,2.08,2.42,3.48-1.3.84-3.19,1.1-3.22,3.21.76.4,2.03.3,2.69.8.39-.95,1.09-1.59,1.88-2.14.62.72,1.61,1.07,1.61,2.41.76.14,1.14.65,1.88.8,1.17,1.33,2.04,2.96,2.42,5.08,1.56,1.27,3.26,3.71,4.03,6.15.32,1.02,1.09,3,0,4.01-2.53-.87-3.9-2.9-5.1-5.08-2.07-.79-3.85-1.88-5.1-3.48h.27v-.27c.53-.32-.07-.92-.27-.27h-.27v.27c-2.12-1.19-4.21-2.4-4.57-5.35-2.28-.49-2.2-3.34-4.3-4.01-2.03,1.01-1.49,4.58-1.61,7.49.79,1.62,2.39,2.43,2.15,5.08-.43-.08-.46.25-.81.27-3.72-.79-6.79-2.79-10.75-4.01-.98-1.25-1.43-3.03-1.88-4.81,2.13-.83,2.2.39,4.03,0,.22.31.35.72.27,1.34,1.12.03.42-1.56.8-1.6.37.26.35.9.81,1.07h-.27v.27Zm129.77-47.86c-1.43-.86-1.58.84-2.69,1.07-3.32-.09-4.92,1.52-6.45,3.21.31,3.34-.98,5.09-1.88,7.22.65.95,1.1,2.12,1.61,3.21,4.06.76,6.97-.04,11.55-.27v-1.34c1.42-.02,1.29-1.66,1.88-2.41.89-1.12,2.31-1.66,2.96-2.94-1.72-2.58-8.07,2.76-9.4-1.6,1.3-2.01,5.41-4.97,2.42-7.49v1.34Zm-121.71-.8c.31,1.06.31-1.05,0,0h0Zm88.4.8c.09-.36.38-.51.27-1.07-.4.04-.99-.1-1.08.27.51.03.19.88.81.8Zm35.2.8c.71.81,1.19,1.84,2.69,1.87.24-.56,1.15-.47,1.08-1.34-.47-1.32-1.69-1.89-2.96-2.41-.22.67-.74,1.05-.81,1.87Zm42.99,0c.43.46,1.12.66,2.15.53v-1.87c-.5-.21-.98-.45-1.61-.53-.3.51-.34,1.26-.54,1.87Zm-178.14.8c1.49.24,1.88-.63,2.42-1.34-.51-2-3.87-.75-2.42,1.34Zm140.79-2.41c-.4.05-.99-.09-1.08.27.36.35,1,.35,1.08-.27Zm-136.49.8c.31,1.06.31-1.06,0,0h0Zm-.27,4.01c-.11.91.08,1.52,1.07,1.34-.21-2.08,2.25-1.5,1.88-3.74-.54-.53-.78-1.36-1.61-1.6-.39,1.01.74.51.54,1.34h-1.08c-.05,1.03,0,1.97.27,2.67h-1.07Zm171.42-2.41c-.11-.51-.1-1.15-.8-1.07.11.51.1,1.15.8,1.07Zm-133.54,1.87c1.35.85,2.22.18,2.96-.8-.04-2.81-3.28-1.71-2.96.8Zm-42.72-.54c.06-.38.44-.45.54-.8-.16-.02-.32-.04-.27-.27h-.54c.05.4-.1.99.27,1.07Zm175.45,2.94c2.2.16,1.84-3.41.27-3.74-.03,1.68-.83,2.05-.27,3.74Zm-159.06-.8c.76-.69-.02-2.11-.54-2.41-.3.74-.49,2.26.54,2.41Zm76.84-1.87c.27,0,.32.22.54.27-.03-.42.04-.93-.54-.8v.53Zm-47.56,1.6c.12-.51.58-.67.54-1.34-.8-.32-1.15,1.13-.54,1.34Zm-3.22.27c-1.29.3-1.13-.83-2.42-.54.3,1.01,2.32,2.34,2.42.54Zm148.31.53c.52.63,1.36.63,1.88,0,.05-.67-.41-.84-.81-1.07-.24.47-.99.44-1.07,1.07Zm-99.41-.27c-.22.76.38.69.27,1.34,1.06-.01,1.6-.55,1.61-1.6-.71,0-1.53-.1-1.88.27Zm4.03,1.34c-.12-.5.37-1.61-.54-1.34-.41.38-.26,1.39.54,1.34Zm-91.35,1.87c.04-2.87-4.28-4.26-4.03-.27.55.08.53.72,1.08.8.76-.61,1.66-.49,2.69-.27l-.13.13.13.13c-1.52,1.7-1.07,3.43-2.15,6.15.79.46.92,1.59,2.42,1.34,2.24-.55.47-4.38,1.08-6.15.45.35.9.71,1.88.54.54-.44,1.25-.72,1.34-1.6-.3-1.21-1.39-1.53-2.69-1.07.04.66.05,1.3-.54,1.34-.23-.39-.4-.85-1.08-.8l.13-.13-.13-.13Zm175.45-2.41c.16,1.09.59,1.91,1.61,2.14.88-.2.81-1.33,1.08-2.14-.98-.37-1.84-.78-2.69,0Zm-164.97,2.67c-.1-.96-.41-1.29,0-2.14h-1.34c.16,1,.51,1.81,1.34,2.14Zm27.14-.54c-.04-.94-.81-1.15-1.34-1.6v.8c.92-.2.34,1.09,1.34.8Zm1.88,1.61c1.18.11,1.82-.33,1.88-1.34-.46-.79-1.26-1.24-1.88-1.87-.47.94-.21,2.2,0,3.21Zm44.07-1.34c.86.38.68-1.6.27-1.6.04.66.04,1.29-.27,1.6Zm-72.55-1.07c.22,1.21.15,2.7,1.88,2.41v-2.14c-.58-.21-1.5-.65-1.88-.27Zm79.8,3.21c.67-.58.55-1.94.8-2.94-.65.11-.58-.49-1.34-.27.4.85,0,2.5.54,3.21Zm-97.8-1.34c0-.71.15-1.58-.54-1.61.16.55-.43,1.86.54,1.61Zm96.73-1.07c-.34-.01-.37-.34-.81-.27-.42.66.91.79.81.27Zm8.87.8c-.19.9.55.88.81,1.34.31-.32.3-.94.27-1.6-.47-.02-.84.06-1.08.27Zm-18.54,1.87c1.12-.21,1.51,1.69,2.42.8-.8-.18.26-.57,0-1.07-1.02.03-.75-1.21-1.61-1.34-.15.65-1.04.57-.81,1.6Zm3.23,2.41c-1.39-.58-1.65,2.04-1.88,3.48.6.39,1.29.67,2.42.53,1.55-1.2.7-2.69.54-4.28-.13-1.3.69-3.11-.54-3.74-1.09,1.02-.46,2.12-.54,4.01Zm7.79-1.6c-.73-.6-1.11-1.57-1.88-2.14.07,1.27.46,2.22,1.88,2.14Zm-5.64,1.34c1.6.08,2.52-.52,2.96-1.6-.32-2.95-4.71-1.08-2.96,1.6Zm88.13-2.14c.45-.53-.02-.34,0-1.07-1.03-.21-1.04,1.28,0,1.07Zm-84.64,4.28c-.79,1.27-.47,3.62-1.61,4.55-.58.5-1.97.18-2.96.27-.51.77-.3,2.67,0,3.48,3.3-.28,3.9-3.25,7.52-3.21,1.49,1.06,2.37,2.41,1.88,4.81-.78.47-1.63.87-2.15,1.6.71,1.97,3.76,1.6,5.64,2.41,2.83-1.46,7.58-1.01,10.21-2.67.12-3.06-.85-5.04-1.07-7.75-1.82-1.84-2.99-4.34-5.11-5.88v-.8c-1.33-.64-3.37-.57-5.37-.53-.93-.32-1.36-1.14-2.68-1.07-1.66,1.02-1.63,3.73-3.49,4.55-1.11.23-1.72-1.71-2.42-.27.47.25,1.34.09,1.61.54Zm98.07-3.74h1.34c.04-.84-.69-.92-1.34-1.07v1.07Zm-147.78.27c.31,1.06.31-1.06,0,0h0Zm-27.41,1.07c.51-.11,1.16-.1,1.07-.8h-1.07v.8Zm104.25-.27h.81v-.53h-.81v.53Zm59.11,1.6c1.06.58,3.23.28,3.22-1.07-.51.08-1.03-.53-1.88-.8-.43.64-1.32.83-1.34,1.87Zm-182.97.27c.85-.3.61-.02,1.61,0,.13-.61.53-1.37,0-1.87h-.81c.12,1.01-.53,1.25-.8,1.87Zm119.03-.8c-.69.91-1.5,1.72-2.42,2.41.2,2.74.63,5.25,2.15,6.68,1.46-.12,2.21.48,3.76.27,1.6-.99,2.79-2.4,4.03-3.74.08-2.13-.56-3.54-.81-5.35-.85-.75-2.81-.41-3.49-1.34-.4,1.03-1.71,1.15-3.22,1.07Zm24.45.27c.22.75-.38.69-.27,1.34,1.51.17,1.97-.71,2.15-1.87-.85-.04-.9.71-1.88.54Zm-96.19.27c-.36,0-.25-.47-.54-.53-.31.55.42,1.27.54.53Zm93.23.27c.36.08.51.38,1.07.27.08-.7-.1-1.15-.8-1.07.01.37-.13.59-.27.8Zm-120.37,2.94c1.44-.08,2.16-.88,1.88-2.67-.64-.34-.99-.97-2.15-.8-.61,1.53-.58,2.27.27,3.47Zm179.48-2.67c.65-.11.59.49,1.34.27v-.53c-.17-.65-1.26-.04-1.34.27Zm-56.96-.27c-.21.06-.53,0-.54.27.21-.06.53,0,.54-.27Zm37.35.27c.31,1.06.31-1.06,0,0h0Zm-131.92,2.41c.6.21,1.05.56,1.88.54.75-.72.96-1.71.54-2.94-2.03-.42-2.3.92-2.42,2.41Zm148.05-.53c-.05,2.83,1.81.72,2.42,2.41.05-1.02,1.45-.7,1.88-1.34-.28-.88-.83-1.49-1.61-1.87-.44,1.27-1.49.29-2.69.8Zm-16.39,2.41c-.19-.79-.07-1.89-.8-2.14-.55.85-.84,2.29.8,2.14Zm1.88-1.61c-.21.06-.53,0-.54.27.21-.06.53,0,.54-.27Zm-180.02.8h.54v-.54h-.54v.54Zm23.11-.27c-.19,1.44.46,2.04.8,2.94.52-1.19,1.47-.3,2.15-1.34-.2-.61-.24-1.37-.54-1.87-1.04-.14-1.31.48-2.42.27Zm63.41,0c-.65.9.9-.65,0,0h0Zm49.44,17.11c.72-1.15-.67-.88-.8-1.87,1.69-2.87,3.76-5.35,7.52-6.15,0-.71.1-1.53-.27-1.87-1.46,1.53-6.31,3.32-6.18-.8.84-2.37,5.09-1.36,5.91-3.74-.35-.77-1.7-.55-2.42-.27-1.59-1.28-3.91-1.81-5.91-2.67-3.36.58-5.26,2.6-6.45,5.35-.08,1.06.62,1.34.54,2.41-.99,4.03,1.66,6.47,5.11,6.95-.13.84.33,1.09.8,1.34.04-.32-.05-.76.27-.8.86.48,1.03,1.65,1.88,2.14Zm-135.42-15.24c-.63-.39-.5-.56-1.34-.27,0,.71-.1,1.53.27,1.87,1.89.1,1.84-1.73,2.69-2.67-.44,0-.15-.74-.54-.8-.35.64-.69,1.28-1.07,1.87Zm192.11,0c.85.34.85-2.22,0-1.87v1.87Zm-141.6-1.07h.54v-.53h-.54v.53Zm139.99,0c.46.01.69-.21.8-.53-.42.02-.93-.04-.8.53Zm-172.5,3.21c.62.59,1.52-.05,2.15-.27-.1-.97-.63-1.51-1.61-1.6.04.85-.71.89-.54,1.87Zm-11.82-1.34c-.13,1.2.8,1.34,1.88,1.34.31-.32.3-.94.27-1.6-.77.03-1.76-.15-2.15.27Zm20.69,1.87c.95,1.51,3.83,1.25,3.76-1.07-.85-1.73-3.7-.43-3.76,1.07Zm19.34,1.6c.16-.47-.33-1.57.27-1.6.66.35-.29.99.27,1.07.3-.95,1.62-.88,1.61-2.14-1.45-1.12-1.31,1.26-2.96.8-.23.84-1.01,1.13-1.07,2.14.82-.08,1.05.86,1.61.27v.27h.27c0,.53-.73.34-.54,1.07.76-.22.7.38,1.34.27.03-.96.64-2.55-.54-1.87v-.27h-.27Zm40.03-1.34v-1.6h-1.88c.15,1.01.38,1.94,1.88,1.6Zm-63.41-.54c-.24-.21-.77.16-.81.27-.38,1.02,1.34.19.81-.27Zm10.21,8.02c.56-1.05.6-2.62,2.69-2.14.87-1.41.49-3.37-.27-4.54-1.97.44-2.15-.89-3.49-1.07.89,2.85-.07,5.93,1.08,7.75Zm-28.75-3.21c.62-.45.95-1.19,1.34-1.87-.95-.84-1.05-2.52-2.96-2.41-.58,1.66-1.15,4.6,1.61,4.28Zm90.81-3.48h.54c0-.27.22-.32.27-.54-.37.01-.59-.12-.81-.27v.8Zm-11.55,1.6c-.25-.48-.15-2.68-1.07-1.6.62.27,0,1.79,1.07,1.6Zm-61.26,1.87c1.69-.57,1.19.45,2.42.8.32-.75.3-1.84.27-2.94-.45-.45-1.58-.21-2.42-.27.55,1.15.6,1.65-.27,2.41Zm174.64-2.14c-.21.06-.53,0-.54.27.21-.06.53,0,.54-.27Zm-189.16,3.47c.32.13.61.29.81.54,1.26.18,1.54-.6,2.15-1.07-.07-2.43-3.27-2.14-2.96.53Zm84.64,0c.63.09,1.01.42,1.88.27.18-.8,1.03-.93.8-2.14-.94-1.04-2.9.14-2.69,1.87Zm24.72-1.87c-2.5.61-4.78,2.32-6.72,2.41-.89,1.16-1.79,2.32-2.96,3.21-.22,2.44.71,3.75,1.34,5.35,2.93.38,2.63,3.97,5.11,4.81,1.24-.73.7-3.23.8-5.08.55-.08.72-.54,1.08-.8,3.55-.59,2.3,3.59,4.84,4.01,1.68-1.89,5.13-2.02,6.45-4.28-1.91-2.64-1.93-7.17-4.03-9.63-1.97-.47-3.94-.48-5.91,0Zm-67.71.27c-.3.03-.42-.39-.54,0,0,.27.47.34.54,0Zm34.39,0c.31,1.06.31-1.06,0,0h0Zm-86.78.8c.55.07.06,1.19.81,1.07.24-.48.75-.68.54-1.6-.66-.04-1.3-.05-1.34.53Zm29.55,1.07c.21,1.03.93,1.57,1.61,2.14,1.02-.59,2.32-.91,2.42-2.41-.98-2.07-3-.96-4.03.27Zm17.73,1.07c.93.75,2.66.95,4.03.54v-2.41c-1.08-1.29-4.28-.5-4.03,1.87Zm40.84-1.61c-.15,1.33.61,2.12,2.15,2.41.28-1.06,1.33-1.35,1.34-2.67-.97-.63-2.65-.07-3.49.27Zm-48.37,1.87c-.03,1.18.32,2,1.34,2.14,1.46-.51,2.51-1.42,2.95-2.94-1.35-.77-3.41-.31-4.3.8Zm6.18-.8c-.23,1.58.15-1.07,0,0h0Zm-42.72,1.34c.21,1.66,1.58,2.17,1.61,4.01.23-.39.4-.85,1.07-.8.13.84-.82.61-.54,1.6.74-.25,1.12-.84,1.34-1.6-.93-1.24-.98-4.4-3.49-3.21Zm88.13,0c.31,1.06.31-1.06,0,0h0Zm-83.02,2.14h1.08c.37-1.35-.94-1.03-1.34-1.6,0,.63.46.79.27,1.6Zm84.37-1.07c.08.91.43,1.54.27,2.67.79-.07.83.61,1.61.53,1.96-1.55.68-4.9-1.88-3.21Zm13.17,4.81c.2-1.58,1.79-1.79,2.69-2.67-.31-.99-.03-1.55-.27-2.14-3.19-1.28-3.27,3.56-2.42,4.81Zm-105.59-4.28h.54v-.53h-.54v.53Zm13.7.27c1-.1.7,1.08,1.88.8-.01-.37.13-.59.27-.8-.59-.2-1.89-1.05-2.15,0Zm20.15,2.14c.46-.01.69.21.8.53,1.16.17,1.51-.46,2.15-.8.09-1.07.01-1.97-.54-2.41-1.96-.25-2.51.88-2.42,2.67Zm66.1-.27c.79.34,1.77-.02,2.42-.53v-1.6c-1.85-.33-2.05.99-2.42,2.14Zm-68.78-1.6c.31,1.06.31-1.06,0,0h0Zm-22.03.8c-.12.92.1,1.5.27,2.14h1.61c-.34-1.23.49-1.3.81-1.87-1.18.17-.6-.81-1.34-1.07-.47.24-.78.65-1.34.8Zm36,.54c.82.41.82-1.75,0-1.34v1.34Zm135.95,0c-.06-.47.27-1.34-.54-1.07.04.5.18.89.54,1.07Zm-167.93,0c.78.39.78-1.2,0-.8v.8Zm120.37,1.07c.03-1.19-1.15-1.17-1.88-1.6.35.8.77,1.55,1.88,1.6Zm48.9-.8v-.8c-.31.04-.76-.05-.81.27.38.06.45.44.81.53Zm-180.56,1.07c1.8.24,1.67,1.46,1.07,2.94,1.03.24,2.42,1.06,3.22,0,.02-2.07-2.65-1.46-2.96-3.21.4-.49.72-.91,0-1.34.21,1.19-1.44.53-1.34,1.6Zm6.45-1.07c-.42-.02-.21-.68-.81-.53-.24.55.7,1.2.81.53Zm170.61,14.44c.17-1.53,1.21-2.19,2.15-2.94,1.1-1.94,2.89-4.6,4.3-5.35-.27,0-.34.47,0,.53-.14-2.72,1.83-3.35,2.15-5.62-.81-1.5-2.57-1.85-4.03-.8-.4,1.56-1.19,2.74-1.61,4.28-4.17,2.89-6.32,7.79-10.21,10.96-.35.37-1.17.26-1.88.27-2.47,3.33-7,4.62-10.21,7.22-1.95-.33-1.88,1.34-3.22,1.6-.67-.51-1.06.22-1.88-.27-1.1,2.74-5.24,2.46-7.26,4.28h-1.88c-1.99.96-4.48,1.42-5.91,2.94-.01.16-.04.32-.27.27.35,1.61,1.83,2.1,3.22,2.67,2.32-1.17,4.51-2.46,6.72-3.74.51.11.49.76,1.34.53,1.58-1.11,2.96-2.25,5.37-1.87,2.2-3.04,7.63-1.26,9.13-4.81,3.74-1.09,6.46-3.2,10.21-4.28,2,.67,5.5-.4,8.06-.8,1.96.7,2.21,3.7,1.61,6.15-2.26,1.25-1.03,4.27.27,5.61-.27,1.61.4,2.28.54,3.48-1.22,3.34-6.2-.52-6.72,2.67,1.91,1.3,4.71.71,6.45.8,3.04.15,5.48-1.58,9.14-1.34,1.98-2.67,2.7-5.76,2.15-10.43-.94-2.09-1.88-4.19-3.49-5.62-2.96-1.15-5.55-2.68-8.06-4.28-4.66.14-6.29,1.65-10.48,2.14-.12-.51-.58-.67-.54-1.34,1.41-1.18,3.15-2.04,4.84-2.94Zm-128.16-13.9c-1.31-2.28-3.4,1.23-1.88,2.67,1.42-.1,1.92-1.12,1.88-2.67Zm92.16-.53c.31,1.06.31-1.06,0,0h0Zm56.69-.27c-.21.06-.53,0-.54.27.21-.06.53,0,.54-.27Zm-2.42,1.34c.67.04,1.3.05,1.34-.54-.53,0-.34-.73-1.07-.53.06.51-.3.59-.27,1.07Zm-182.17-.54c-.65.9.9-.65,0,0h0Zm29.02,2.41c.77-.03,1.76.15,2.15-.27v-2.41c-1.56-.13-2.97.58-2.15,2.67Zm44.87-1.07c.95.12.95,1.2,2.15,1.07,2.09-1.83-1.89-3.64-2.15-1.07Zm91.89-1.07c.31,1.06.31-1.05,0,0h0Zm-77.38.8h.54v-.54h-.54v.54Zm35.2,1.07c.84.12.86-.57.81-1.34-.16-.15-1.27-.62-1.34,0,.4.23.39.86.54,1.34Zm51.59.8c.45.36.9.71,1.88.54.13-.94.4-1.74.27-2.94-1.93-.41-2.07.97-2.15,2.41Zm-153.42-1.07c-.23,1.29.25,1.89.54,2.67,1.67.26,2.44.04,3.49-.8-.37-.85-.06-.89,0-1.87-1.15-1.26-2.82-1.1-4.03,0Zm136.49,2.67c1.03-.13,1.72.08,2.15.54.29-1.05.71-1.96.54-3.48-.52-.38-1.08-.71-1.88-.8-.76,1.02-1.95,2.28-.81,3.74Zm-171.15,0c-.4-.12.11-.34,0-.8-.17-.37-1.04-.04-1.08-.54.04-.31.49-.23.81-.27,0-.9,0-1.78-1.07-1.6-.14.84.63,1.09-.27,1.34.04-.76-1.36-1.02-1.34-.27.89.36,1.11,1.39,1.88,1.87-.88,1.01.54,1.45.27,2.67,1.37.16,2.54-2.61,1.08-2.14v-.27h-.27Zm131.12-3.21c-.24-.21-.77.16-.8.27-.38,1.02,1.34.19.8-.27Zm1.61.27c-.09.89-.78,1.19-.54,2.41.43.55,1.35.62,2.42.53.17-.93.71-2.5.54-2.94-.72-.68-1.42.16-2.42,0Zm-120.37,3.74c-.29-1,1.01-.42.81-1.34-.14-.84-.47-1.49-.81-2.14-.87.16-1.25-.18-1.88-.27-1.15,1.26.61,3.22,1.88,3.74Zm21.23-2.94c.01-.46-.21-.68-.54-.8.03.42-.04.93.54.8Zm-18.81,1.34c.38.07.31.58.54.8,1.35.18,1.61-.71,2.15-1.34-.42-1.82-2.69-1.5-2.69.54Zm79.53,0c.73,0,1.26-1.12,1.61,0-1.11.06-.7,1.62-2.15,1.34-.74,3.64,2.43,5.56,2.69,9.09-.23.39-.4.85-1.08.8-.62-1.79-2.39-2.44-4.57-2.67-.27.36-.44.81-.8,1.07.3,1.22.91,2.12,2.15,2.41,1.11,3.4,5.2,2.18,8.6,3.21.23-.58,1.18-.43,1.61-.8v-1.87c-2.52-2.21-3.07-6.4-5.37-8.82.66.42.79-.91.27-.8-.52.95-.44-.39-.54-.53-.56-.87-1.35-.39-1.34-1.07,0-.66,2.41-.94,1.61-2.41-1.06.29-2.36-.79-2.69,1.07Zm6.18-1.07c-1.28-.3-1.13.83-2.42.54.03,1.48,1.29,1.75,2.42,2.14.81-.87.88-1.89,0-2.67Zm-55.08.8c.34.01.37.34.8.27.01-.46-.21-.69-.54-.8,0,.27-.22.32-.27.54Zm83.29.27c-.11,1.18.45,1.69,1.35,1.87,1-.08,1.85-1.71,1.07-2.67.02,1.68-1.73-.08-2.42.8Zm-81.68,4.01c.87.15,1.25-.18,1.88-.27.05-1.03,0-1.97-.27-2.67-2.28-1.7-3.06,1.61-1.61,2.94Zm-29.56.53c.03-.87.75-1.04,1.34-1.34-1.19.12.18-2.32-1.08-2.14.37,1.64-1.49,2.6-.27,3.48Zm110.7-2.14c-.11-.64.49-.58.27-1.34h-.81c-.04.66.14,1.11.54,1.34Zm64.21,2.41c.3-.68,2.08.11,2.42-.53-.08-1.53-.72-2.49-1.61-3.21.32,2.02-1.3,2.76-1.88,2.41.59.21.35,1.26,1.08,1.34Zm-109.35-2.94c.63.08.5.93,1.34.8.04-.66.05-1.3-.54-1.34,0,.44-.75.15-.81.54Zm24.99,1.6c.06-1.04-.58-1.39-.81-2.14h-1.34c-.2,1.63.51,2.34,2.15,2.14Zm-67.44,1.34c1.06-.01,1.6-.55,1.61-1.6-.12-.77-.57-1.22-1.34-1.34-.26.77-.89,2.12-.27,2.94Zm-5.64-1.07c.86.38.68-1.6.27-1.6-.31.32-.3.94-.27,1.6Zm85.98,4.28c1.34.97,3.26.76,3.49-1.34-.01-.88-1.15-.64-1.07-1.6.33-1.08.68-1.92,0-2.94-.66.65.2,1.16,0,2.14-.67,1.11-2.45,1.12-2.42,2.94h-.27v.27c-.97-.01-.06-1.9-1.34-1.6-.2,1.47-.42,6.32,1.88,4.01-.69-.29-1.29-.67-1.61-1.34.36-.27,1-.25,1.07-.8l.13.13.14.13Zm-30.9-4.81c-.36,0-.25-.47-.54-.53-.31.55.42,1.27.54.53Zm77.11,2.67c.84-.13.71.72,1.35.8.45-.84-1-1.09-.27-1.34,1.29.65,2.33-.99,2.42-2.41-2.2-1.06-2.83,1.6-3.49,2.94Zm19.08-1.07c1.07,1.56,2.64.33,3.49-.53-.15-.48-.14-1.11-.54-1.34.08.61-.06,1-.54,1.07-.36-.8-1.14-1.18-2.15-1.34-.16.64-.39,1.22-.27,2.14Zm-67.17-.53c.95.05,1.16-.63,1.61-1.07-.37.01-.59-.12-.81-.27-.08.63-.93.5-.8,1.34Zm8.33,1.07c.62.54,2.06.27,2.42-.27.33-2.47-3.04-2.21-2.42.27Zm-90.81-.27c.24-.48.75-.68.54-1.6h-1.07c0,.71-.15,1.58.54,1.6Zm68.25.8c-.08.61.07,1.01.54,1.07.42-.4.3-1.19-.54-1.07Zm4.84,1.87h1.61c-.05-.58.22-.85.81-.8v-2.41c-1.2.3-1.08-.71-1.88-.8-.95.12-1.28,1.03-2.96.54-.11,1.05-1.5.82-1.61,1.87.66.15.57,1.04,1.61.8-.03-.67-.51-.84.27-1.07.27.35.26.99.54,1.34.66-.04,1.3-.05,1.34.53h-.27v.27c-1.11-.11-2.01,2.5-2.95.8-.72.26-1.38.59-2.15.8-1.03,4.46,3.84,2.35,5.64,1.07-.12-.92.11-1.5.27-2.14-.24-.12-.48-.23-.54-.54h.27v-.27Zm56.69-3.21h.54v-.53h-.54v.53Zm-156.38.27h.54v-.53h-.54v.53Zm91.08,2.94c.77-.03,1.76.15,2.15-.27-.2-1.5-1.13-3.68-2.96-2.67,1.14.61-.21,2.12.81,2.94Zm14.24-2.14c-.18,1.08.26,1.53.27,2.41.8-.1,1.36-.43,1.88-.8.03-1.18-.32-2-1.34-2.14.04.48-.27.63-.81.53Zm-30.63.54c.55.24,1.21-.69.54-.8-.02.42-.69.21-.54.8Zm-34.39.8h.54v-.53h-.54v.53Zm38.96,1.34c.51.06.59-.3,1.08-.27.19-.99-.94-.67-1.34-1.07-.09.62.04,1.03.27,1.34Zm-49.98-.54c0,.71-.1,1.53.27,1.87.89-.63,2.48-.56,2.69-1.87-.06-.3-.3-.41-.54-.53.11,1.08-1.67.29-2.42.53Zm128.16,1.61c-.15-.78-.42.41-.8.27-.39-.68-.25-1.88-.81-2.41-2.33-.18-2.66,1.63-3.22,3.21.88.85,2.52-.41,3.22.27.06-1.52,1.32-.25,1.61-1.34Zm-121.45-1.07v1.87c1.02.57,1.68-.1,2.96,0,.35-.55-.13-2.05-.54-2.67-1.22-.14-1.61.54-2.42.8Zm-23.11,1.87c.56.53,1.78.2,2.42,0-.02-.88-.77-1.02-.54-2.14-.51.06-.59-.3-1.08-.27-.57,1-.7,1.41-.8,2.41Zm158.25-.8c.23.25,1.71.57,1.88,0-.45-.45-.5-1.29-1.07-1.61-.15.65-1.04.57-.81,1.61Zm-93.23,1.34c-.19-.99.46-1.15.27-2.14-.31-.22-.72-.35-1.34-.27-.57.83-.37,2.74,1.08,2.41Zm26.87-1.34c.61.07,1.01-.06,1.07-.53-.32-.34-1.12-.22-1.07.53Zm77.38,2.14c1.29.03,2.17-.33,2.42-1.34-.81-.26-1.44-.71-2.42-.8-.4.39-.4,1.75,0,2.14Zm-77.65-.27c.61-.19,1.37-.24,1.88-.53.08-.61-.07-1.01-.54-1.07.31,1.29-1.25.72-1.34,1.61Zm-109.35-1.07c-.36-.08-.51-.38-1.08-.27-.43.75,1.16.74,1.08.27Zm105.59,1.34c.44.81.83,1.67,1.88,1.87.38-.78,1.4-.92,1.07-2.41-.78-.26-2.92-.7-2.96.53Zm-65.83.27h.54c.42-.66-.91-.79-.81-.27.16.01.32.04.27.27Zm-39.76,1.34c.57.35.79-.13,1.61.27.5-1.25-1.71-.97-1.61-.27Zm34.93,1.6c1.18-.11.86,1.28,2.42.8.12-.96.69-1.29.27-2.14-.8-.99-3.4-.78-2.69,1.34Zm118.76.27c.06-.3.3-.42.54-.54.22-1.56-1.31-1.37-2.69-1.34.29,1.05,1.05,1.63,2.15,1.87Zm-112.58.27c.23,1.02,1.05,1.45,2.15,1.6,1.05-.38,1.35-1.85.54-2.67-1.22-.1-1.75.34-2.69,1.07Zm-50.24,1.87c.78.39.78-1.2,0-.8v.8Zm2.15,2.94c1.29.17,2.15-2.99.54-3.21.09,1.34-.9,1.6-.54,3.21Zm43.79-1.34c.21,1.85,2.94,1.51,2.69-.54-.48-.24-.68-.75-1.61-.53.34,1.05-.74.69-1.08,1.07Zm127.63,2.67c.29,1.31,1.56,1.66,2.42,2.41-.14,1.57.14,2.72,1.61,2.67.71-.72,1.59-1.27,1.34-2.94-.5-.48-1.93-.04-2.15-.8-.19-1.17.78-1.19.8-2.14-.69-.65-.75-1.93-1.61-2.41-1.11.77-2.21,1.54-2.42,3.21Zm28.48-2.41c-.23,1.58.15-1.07,0,0h0Zm-54.27,3.21c1.17,0,2.49.16,2.95-.53-.01-1.15-.29-2.03-.8-2.67-1.38.39-2.93,1.5-2.15,3.21Zm3.49-2.94c.95,1.92-.4-.81,0,0h0Zm29.29,1.6c.85.13,1.18.79,2.15.8.17-.99,1.1-1.22.81-2.67-1.93-.31-3.04.18-2.95,1.87Zm-91.89.27c0-.53.73-.34.54-1.07h-.81c.05.4-.1.99.27,1.07Zm-41.11-.53c-.82.33-1.04.2-1.61-.27-.62,1.12,1.9,1.16,1.61.27Zm44.87,2.94c1.19.29,1.34-.45,2.15-.53v-1.87c-1.04.05-1.98,0-2.69-.27-.34,1.41.56,1.58.54,2.67Zm51.05-2.14c0,1.23,1.8,1.86,2.15.54-.77-.13-1.58-1.02-2.15-.54Zm26.33.27c-.06,1.46-1.6,1.44-3.22,1.34-.19,1.35.99,1.33,1.08,2.41h2.42c.7-.86.27-2.39.27-2.67.56.15.77.66,1.61.53-.3-1.05.81-1.86-.27-2.14-.04.76-1.12.49-1.88.54Zm-120.37.8c.71,1.05,2,1.29,3.22.54.44-1.83-3.18-2.32-3.22-.54Zm47.02,12.3c2.68.02,4.35-3.74,6.45-4.01.86-1.73,1.34-3.84,2.95-4.81.28-1.71-.3-2.55-.8-3.48-2.48-.13-4.72-1.24-5.91.8-.17,3.12-1.4,5.2-2.69,7.22.16,1.76-.79,2.42-1.88,2.94-.25-.47,0-1.43-.8-1.34-1.23,1.6,2.03,2.67,2.69,2.67Zm35.47-11.5c.82.41.82-1.75,0-1.34v1.34Zm-5.37,1.07c-.34-.01-.37-.34-.8-.27-.66,1.74.73,2.01.8.27Zm6.99,6.95c1.79,3.48,3.25,7.28,4.84,10.96-.76.22-.69-.38-1.34-.27-.18,1.07-.85,1.65-1.08,2.67,1.85.88,3.07-.99,4.03-1.87,1.65.04,3.14-.09,4.03-.8.29-1.71-.91-1.95-.54-3.74-1.08-.27-.81-1.69-1.34-2.41-.29-.4-.83-.39-1.07-.8-1.73-2.9-2.15-6.52-2.69-10.69-.45-.45-1.58-.21-2.42-.27-.69,2.53-2.64,3.79-2.42,7.22Zm-39.5-6.68c-.34-.01-.37-.34-.81-.27-.42.66.91.79.81.27Zm72.01,1.34c.12-.59.62-1.45-.27-1.6.15.47-.33,1.57.27,1.6Zm-44.87,2.14c1.68.61,3.82.58,3.49-2.14-1.14-.2-1.7-.98-3.22-.8.63,1.1.01,2-.27,2.94Zm-13.43-.53c.85,1.31,2,.18,3.49,0v-1.6c-1.46-.74-3.6-.09-3.49,1.6Zm49.97-1.34c-.11.64.49.58.27,1.34,1.04.21,1.56-1.64.54-1.87.04.48-.27.63-.81.54Zm2.95.8c.44.54.56,1.4,1.07,1.87.72-.26,1.38-.59,2.15-.8-.06-.84.18-1.96-.27-2.41-1.36.08-2.64.23-2.96,1.34Zm23.11-1.07c-.52-.35-1.08.2-1.88-.27-1.94,2.54,2.03,3.86,1.88.27Zm-131.66,1.6c-.38-.06-.45-.44-.8-.54.2,1-.3,1.3-1.08,1.34v2.41c.65.42,1.15,1,2.42.8.86-.31.34-1.98,1.61-1.87v-1.61c-.34-.37-1.32-.12-1.34-.8.57.16.97-1.6,0-1.34-.14.67-.51,1.1-.81,1.6Zm60.19-.54h.54v-1.07h-.54v1.07Zm-65.29,1.07c.93.21,1.13-.3,1.61-.53.02-.91-.79-1-1.34-1.34.16.87-.18,1.24-.27,1.87Zm68.25-1.07c.53.45.34-.02,1.08,0v-.8h-.81c.01.37-.13.59-.27.8Zm-24.45,1.07c-.16,1.05.23,1.55.54,2.14h1.34c.42-.92,1.83-3.1.81-3.74-.3,1.13-1.88.98-2.69,1.6Zm83.83-.53c-.72.18-.52-.55-.81-.8-1.81-.85-1.88.99-3.49,1.07-.09,1.16.65,1.49.8,2.41,1.59.25,2.23-.46,3.49-.53v-2.14Zm-167.12,2.41c-.16-1.42,2.82-1.92,1.08-3.21-.73.14-2.01,1.64-1.08,3.21Zm2.42-2.67c.31,1.06.31-1.06,0,0h0Zm107.47,1.6c.35-.35.35-.99-.27-1.07.04.4-.09.99.27,1.07Zm37.35.8c.24.47.65.78.81,1.34,2.36.24,3.46-1.53,2.42-3.21-1.5.19-2.75.17-3.22,1.87Zm-38.96.27v1.07c1.13.03,1.89.62,3.76.53.21-.5.45-.98.54-1.6-1-1.49-2.75-.7-4.3,0Zm48.36,1.34c1.09.52,1.3,1.92,2.96,1.87.84-1.06.8-2.09.54-3.74-1.61-1.37-3.52.01-3.49,1.87Zm-52.93,1.07c2.11.13,2.78-1.15,3.23-2.67-2.07-1.43-4.38.11-3.23,2.67Zm41.91-1.87c.08-.7-.1-1.15-.8-1.07-.08.7.1,1.15.8,1.07Zm22.84,2.67c2.2.14,3.3-.82,2.96-3.21-2.09-1.79-3.62,1.52-2.96,3.21Zm-47.02-3.48c-3.07,2.55-7.01,3.15-11.82,4.28-.62.08-.3-.77-.8-.8-.38,1.67-2.65,1.46-3.76,2.41-3.5-.01-5.66,1.58-8.87,1.34-.29.25-.08.99-.8.8-1.72.05-2.38.36-3.76.53-.53-.45-.74-1.23-1.07-1.87-.67.76-2.01.85-2.69,1.6.7-.07,1.16.1,1.08.8-.99,1.95-3.95,1.96-4.57,4.28.32.66.92,1.05,1.61,1.34,2.01-2.37,7.12-1.65,9.94-3.21h1.61c1.75-1.11,4-1.73,6.99-1.6,2.39-1.72,7.13-1.11,9.67-2.67.84-.13.71.72,1.34.8,1.75-1.72,8.12,1.16,8.6-2.41-.67-.85-3.01-.03-3.49-1.07-.18-2.14,2.95-.99,3.49-2.41-.35-1.26-1.43-1.78-2.69-2.14Zm52.66,16.04c-.5-1.28-1.42-2.15-2.15-3.21-1.01.44-1.93-.48-1.88-1.87.57-.83,1.71.76,2.15,0,.2-.99-.92-2.31-.27-4.55-.39-.15-.66-.42-.81-.8-.87-.06-1.14.47-2.15.27-.12-.5.37-1.61-.54-1.34-.05,1.17.21,2.66.27,4.55.64.39,1.96.5,1.08,1.87-3.28-1.64-7.55-2.29-9.67-5.08-1.92.39-1.92-1.12-3.76-.8-.33-.74-.78-1.36-.81-2.41-1.63.08-2.67.73-3.76,1.34-2.96-.15-5.89-1-9.14-1.07-.93-.74-.53-2.1-.81-2.94-1.04.79-2.35.11-4.03.53-.15,1.19-1.05,1.63-2.15,1.87.32,1.12-.43,1.17-.54,1.87.68,1.97,4.5,1.74,4.3,3.74.04-.5.18-.89.54-1.07,1.83-.31,3.55-.31,5.37,0,5.25-.8,10.49,1.12,14.24,3.74.43-.75,1.21.38,2.15,0,.75,1.04,2.07,1.51,2.69,2.67h1.34c1.2,1.75,3.48,2.42,5.1,3.74,1.34.08,2.46-.04,3.49-.27.42.02.21.68.81.53.43-1.22-1.11-.49-1.07-1.34Zm-75.5-15.77c-.21.06-.53,0-.54.27.21-.06.53,0,.54-.27Zm-105.86,1.34h.54v-1.07h-.54v1.07Zm7.25,0c-.04-.4.1-.99-.27-1.07-.35.36-.36,1,.27,1.07Zm-5.64-.53c-.19.99.46,1.15.27,2.14,1.62.1,2.42-.62,2.42-2.14-1.19.28-2.08-.53-2.69,0Zm103.71,3.74c1.6.35,1.57-.94,2.95-.8.19-1.17-.46-1.51-.27-2.67-.98.09-1.49-.3-2.15-.54.02,1.43-1.49,2.5-.54,4.01Zm36.81-2.41c.07-.38.44-.45.54-.8h-.81c.04.31-.04.76.27.8Zm-133.8.53h.54c.42-.66-.91-.79-.81-.27.16.01.32.04.27.27Zm102.37,0c0-.27-.47-.34-.54,0,.3-.03.42.39.54,0Zm59.65,1.34c-.29,1,1.01.42.8,1.34,1.03-.32,2.09-1.71,1.35-2.94-1.38-.12-1.31,1.2-2.15,1.6Zm-143.21.8c.73,1.47,2.73.95,4.03.27.18-2.73-3.76-2.57-4.03-.27Zm18.54.27c1.17.27,1.24-.55,1.88-.8-.17-.81-.6-1.37-1.61-1.34-.24.84-.81,1.17-.27,2.14Zm-44.33-.8h.81c-.04-.32.05-.76-.27-.8-.07.38-.44.45-.54.8Zm102.91.27c-.65.9.9-.65,0,0h0Zm91.35,3.74c2.03.32,1.57-1.82,2.15-2.94-1.52-1.54-3.02,1.36-2.15,2.94Zm-174.91-2.14c.61.08,1.01-.06,1.08-.54-.36-.08-.51-.38-1.08-.27v.8Zm2.15.53c.63.08,1.11.52,1.61,0-.03-.68-.05-1.38-.81-1.34.29,1-1.01.42-.81,1.34Zm70.4-1.07c-.65.9.9-.64,0,0h0Zm-42.18,3.21c1.55.11,1.91-.96,2.15-2.14-1.14-1.91-3.23.34-2.15,2.14Zm-49.17-1.34c.08-.16.67-1.03,0-1.07.26.5-.8.89,0,1.07Zm181.63.8c.73.53,2.58.39,2.42-.8-.42-1.55-2.8-1.25-2.42.8Zm-89.47-1.07c.31,1.06.31-1.06,0,0h0Zm-92.16,1.61c1.07-.56,1,1.2,1.34,2.14.51-1.29,1.1.48,2.42,0,0-.89-1.08-.71-1.34-1.34,1.38-.35.39-2.31-.81-2.41-.42.65-1.45.7-1.61,1.61Zm188.88-1.07c-.51-.11-.49-.77-1.34-.54-.85,1.82,1.1,2.36,1.34.54Zm-134.61.27c0,.17-.12-.7-.27,0-.4,1.87.34,1.07.27,0Zm89.74,1.61c.89.45,1.24,1.44,1.88,2.14,1.07-.28,2.01-.68,1.88-2.14-.68-.66-1.19-1.49-2.15-1.87,0,1.15-1.22,1.1-1.61,1.87Zm-112.31-1.61c-1.62-.27-2.09.6-2.96,1.07-.59.17-.85-.76-.81.27.81,2.24,3.41.97,4.84,1.6.16-1.49-.48-2.2-1.07-2.94Zm59.38.54h.54v-.54h-.54v.54Zm-70.39,0c-.12.95-.91,1.24-1.08,2.14.39.42,1.08.53.81,1.6.73-.52,1.23-1.27,1.61-2.14-.39-.62-.85.52-.81-.53.32-.33,1.94-.72,1.08-1.34-.03.59-1.14.11-1.61.27Zm165.78,1.07c-.09-.62-.27-1.15-.8-1.34-.13.84.34,1.09.8,1.34Zm-172.76.53c.9-.08,1.07-.89,1.34-1.6h-1.61c-.04.66-.04,1.29.27,1.6Zm1.88-1.34c-.48,1.04-.38,2.65-1.61,2.94-.73.19.19-1.26-.54-1.07-.97.72.42,1.75.27,3.21.61-.46,2.25.1,2.42-.8-.4-.05-.99.09-1.07-.27.13-.32.29-.61.54-.8,2.49.34,2.8-1.49,3.49-2.94-1.84.33-2.07-.85-3.49-.27Zm113.12,1.6c.86.82,2.79.53,3.23-.53.35-2.07-4.17-1.87-3.23.53Zm-6.99,2.94c1.17-.19,1.52.46,2.69.27.04-1.93,2.03-1.91,1.88-4.01-2.88-1.14-5.62.34-4.57,3.74Zm-77.92-1.87c1.07.08,1.45-.51,1.34-1.6-1.22-1.02-2.54.92-1.34,1.6Zm-44.6-.8c.86.23.84-.41,1.08-.8-.51.11-1.16.1-1.08.8Zm24.45,1.87c1.14.38,1.54,1.38,2.96.8-.67-.92-.13-1.77-.27-3.47-1.73.07-2.89.69-2.69,2.67Zm92.43.54c1.33.26,1.6-.55,2.42-.8.33-.79-.43-1.85.8-2.14-2.51-1.14-4.98.81-3.22,2.94Zm-88.67-1.07v-.8c.4-.05.99.1,1.07-.27-.36-.08-.51-.38-1.07-.27-.15.16-.63,1.27,0,1.34Zm83.83-.54c-.34-.01-.37-.34-.81-.27.03.68.39,1.04,1.08,1.07.19-.28,1.05-1.23.27-1.6.01.46-.21.69-.54.8Zm40.57-.53c-.43,2.24,1.27,2.77,2.96,2.14.14-1.12-.47-1.49-.54-2.41-.98-.08-1.75.04-2.42.27Zm-98.07.53h.54v-.53h-.54v.53Zm103.17,1.87c.55.79,1.19,1.49,2.15,1.87-.64-1.06.46-1.1,1.34-1.34.35-1.59-.69-1.81-.81-2.94h-2.15c.14,1.12-.47,1.49-.54,2.41Zm40.3-.8c0-.8-.7-.91-.81-1.6-2.32-.55-1.67,2.97.81,1.6Zm-189.69-.27v-1.07c-.88-.06-1.06,1.25,0,1.07Zm171.69-.27h.54c.02-.34.35-.37.27-.8h-.54c-.01.34-.34.37-.27.8Zm-131.39.27v1.6c.85-.13,1.05.38,1.61.54.31-.67,1.07-.9,1.07-1.87-.83-1.32-1.41-.79-2.69-.27Zm-18.27,1.6c.39-.41.36-1.25.81-1.6.21-.06.53,0,.54-.27-.87.15-1.25-.18-1.88-.27.39.5.01,1.77.54,2.14Zm133-1.6c.46.01.69-.21.81-.53-.46-.01-.69.21-.81.53Zm-59.65,3.48c.65.51,1.33,1,2.69.8.16-.55.52-.91,1.07-1.07.37-1.77-.68-2.72-.81-3.21-1.36.17-3.15,1.01-2.95,3.48Zm22.84-1.87c1.22.14,1.75-.39,1.61-1.6-1.33-.25-1.86.29-1.61,1.6Zm-106.13-1.34c.12,1.18-.45,1.69-1.34,1.87-.09,1.07-.01,1.97.54,2.41,1.34.35,1.14-.82,2.15-.8-.69-1.6,1.35-1.84.54-2.67-.59,1.85-1.36-.25-1.88-.8Zm11.29.54c.42-.03.93.04.81-.54h-.54c0,.27-.22.32-.27.54Zm111.5,0c-.37.34-.26,1.16-.27,1.87.63-.08,1.11-.52,1.61,0,.18-.71.51-1.27.8-1.87-.11-.34-.34-.55-.8-.54.37,1.52-.94,1.05-1.34.54Zm5.91.53c.62-.09,1.26-.17,1.07-1.07-.84-.12-1.2.23-1.07,1.07Zm37.88-1.07c-1.41.11-2.38.66-2.15,2.41,1.41.83,2.62-.83,4.03,0-.55-.88-1.5-1.36-1.88-2.41Zm-181.09,2.14c.01-.81.16-1.76-.81-1.6-.48.51-.08,1.65.81,1.6Zm128.16-1.6c-.21.06-.53,0-.54.27.21-.06.53,0,.54-.27Zm29.29,1.07c.99.5-.67,1.97.27,2.41.03-.59,1.14-.11,1.61-.27.49-.54.85-2.17.27-2.94-.21-.06-.53,0-.54-.27-.83.06-1.04.74-1.61,1.07Zm-164.43-.27c.29.62,1.92-.13,1.07-.54.19.73-1.27-.19-1.07.54Zm110.43,1.07c.23.39.4.85,1.08.8-.67-1.12.83-1.44,0-2.41.21,1.1-1.29.5-1.08,1.6Zm21.5.54h1.07c.16-.63.88-2.05,0-2.14-.28.79-1.36.79-1.07,2.14Zm-88.67-1.6c0-.27-.47-.34-.54,0,.06.32.3.16.54,0Zm58.31,2.14c.31-.32.3-.95.27-1.6-.49-.5-1.36-.61-2.15-.8.22,1.18-.15,2.53,1.88,2.41Zm90.82-.53h1.61c.32-.74.58-1.12.27-1.87-1.47-.21-2.1.41-1.88,1.87Zm-189.69-1.34c-.2.63-.53,1.85,0,2.41,1.71.19,2.06-.86,2.96-.8.13-1.02-.11-1.67-.81-1.87-.22,1.67-.98-.06-2.15.27Zm26.33,2.14c-.42-.12-.23-.84-1.08-.54-1.41,1.01-.67,4.14-3.49,3.74.49,1.21.01,3.37,1.61,3.48,2.65-.45.41-4.13,2.15-5.35.94.8,1.62-.37,2.69-.27.09-.63.42-1,.27-1.87.18-.53,1.6.17,1.34-.8-1.13.24-1.52-.27-1.88-.8-.91.43-1.02,1.66-1.61,2.41Zm105.33-2.14c0-.27-.47-.34-.54,0,.3-.03.42.39.54,0Zm23.37.27c-.51,1.02.71-1.41,0,0h0Zm-144.82.27c0-.27-.47-.34-.54,0,.3-.03.42.39.54,0Zm-4.57,1.07c-.04-.5-.18-.89-.54-1.07.06.47-.27,1.34.54,1.07Zm140.52,2.94c1.72-.25,2.83-1.11,2.69-3.21-.51-.03-.19-.88-.81-.8-1.71.74-1.83,2.09-1.88,4.01Zm-150.19-2.67h.81c-.06-.47.27-1.34-.54-1.07-.08.36-.38.51-.27,1.07Zm54.81,0c.92.11,1.53-.08,1.34-1.07h-1.34v1.07Zm72.54,0c.08-.61-.06-1-.54-1.07-.08.61.06,1.01.54,1.07Zm20.42,0c.75.43.74-1.15.27-1.07-.08.36-.38.51-.27,1.07Zm12.09-.8c-.65.9.9-.65,0,0h0Zm-124.94,0c-.21.06-.53,0-.54.27.21-.06.53,0,.54-.27Zm109.09,3.21c-1.79.28-3.01-1.18-4.03-.8-.36.8-.27,2.05-.27,3.21-2.81,1.33-3.32-1.59-4.3-2.94-.96.83-2.47,1.1-3.23,2.14.35,2.75-1.02,3.8-1.61,5.61.87.33.2-.86,1.07-.53.12,1.42,1.03.39,1.34,1.6,4.25-.22,6.99,2.56,10.75.54,1.64-1.31.77-3.78,1.34-5.61.56-1.78,2.5-2.36,2.69-4.01-.54-.62-.28-2.03-1.07-2.41-.83,1.13-1.93,2-2.69,3.21Zm-128.16-1.07c.59.3,1.1.69,2.15.53.16-.64.39-1.22.27-2.14-1,.19-1.15-.46-2.15-.27.13.84-.48.94-.27,1.87Zm139.45.8c1.6,1.18,2.73-.68,3.49-1.87-.44-.63-1.57-.58-2.69-.54-.26.81-1.07,1.08-.8,2.41Zm-153.69-1.07c-.06-.47.27-1.34-.54-1.07.04.5.18.89.54,1.07Zm113.12-.8c-.72.65-.01,2.13,0,2.94.83-.07,1.52-.27,2.15-.53.39-1.81-.73-3.26-2.15-2.41Zm5.91,0c-.09,1.22-.28,1.48.27,2.41,1.91.38,2.08-.96,2.42-2.14-1.02-.51-1.46-.38-2.69-.27Zm-74.42,1.34c.31-.79.16-.99-.54-1.34-.43.4-.39,1.52.54,1.34Zm115.26-1.07c.31,1.06.31-1.06,0,0h0Zm14.51,0c0-.27-.47-.34-.54,0,.06.32.3.17.54,0Zm25.52,1.34c.1-2.62-2.82-1.16-2.96,1.34,1.55,1.07,2.92-.32,2.96-1.34Zm-100.49.8c.85.04.52-1.08,1.08-1.34-.62.08-.3-.77-.81-.8-.24.59.04,1.15-.27,2.14Zm-101.03-1.61c-.65.9.9-.65,0,0h0Zm110.16,0c0-.27-.47-.34-.54,0,.06.32.3.17.54,0Zm60.45,1.34c.3.68.66,1.3,1.08,1.87.48.16,1.12-.78,1.34,0-1.04.48-.11,2,.27,2.67.45-1.6.1-4,.8-5.35-.99-.09-1.49-.66-2.42-.8.18,1.08-1.13.66-1.08,1.61Zm-44.06.27c.43,1,.93,1.92,2.42,1.87,1.1-.45,1.44-2.53.54-3.48-1.71-.19-2.63.41-2.95,1.61Zm-118.76,4.54c.04,2.41-.84,3.89-.27,6.15.58.67,1.46,1.04,1.88,1.87,1.9,4.4,4.24,9.61,3.22,16.04-.51.11-.67.58-1.34.54.32,1.31-.08,2.99-.81,4.01-.19,1.02,1.09,1.29.27,2.14,3.19-1.11,3.16-5.42,6.18-6.68,1.12-3.27,2.16-6.07,1.88-10.16-1.19-1.14-1.76-2.88-2.42-4.54-1.03-1.12-2.03-2.26-1.88-4.55-1.79-1.61-3.17-3.61-3.49-6.68.64-.88,1.21-1.82,1.08-3.48-.73.2-.54-.53-1.08-.53-.48,2.55-1.72,4.35-3.22,5.88Zm41.38-5.61c-.41.84-.92,1.58-1.34,2.41,1.04.7,1.11-1.46,2.95-.8.12-1.82,1.84-.41,2.15-1.87-1.68-.41-2.8.82-3.76.27Zm109.62.8c.92.2,1.05-1.02.27-1.07-.09.36-.38.51-.27,1.07Zm7.25-.54c.31,1.06.31-1.06,0,0h0Zm-13.17,4.55c.9.45,1.93.15,2.42-.53-.44-1.26-1.23-2.16-1.35-3.74-.33,1.57-1.06,1.99-1.07,4.28Zm5.64-2.67c-.69.56-.92,1.58-.8,2.94.85.32,1.33,1,1.61,1.87,1.24-.91,2.56-1.73,2.15-4.28-1.06-.82-2.79-.97-3.76-1.87-.37,1.08.48.95.8,1.34Zm25.53-.54c-1.76,1.72-4.47,2.5-6.45,4.01-.06.21,0,.53-.27.53-.05,3.17.49,5.75,2.15,7.22,2.57.14,4.33,2.43,6.99,1.6-.31-2.69-2.44-7.7,2.15-8.29,1.06.75,1.54.73,3.23,1.07.27.97,1.02,1.47,2.15,1.6,1.43-1.07,1.86-3.13,1.88-5.61-1.62-3.66-8.57-2.95-11.82-2.14Zm-89.47.54c.02-1.43-1.58-.53-1.61.27.62.09,1.03-.04,1.34-.27v.27h.27c.4.31.66.77,1.34.8-.09-.62-.17-1.25-1.07-1.07l-.14-.13-.13.13Zm6.72.27c.39.95,1.05,1.63,2.42,1.6.52-1.31,2.21-.24,2.42-2.14-.8,0-.91.7-1.61.8-.16-.56-.57-.86-.81-1.34-1.32-.15-1.91.42-2.42,1.07Zm6.45-.53c-.39,2.17,1.17,2.4,1.34,4.01-.43.46-1.12.67-2.15.54-.86,1.34-.36,3.25,1.61,3.21.87-.94,2.04-2,1.34-3.74.7-.82,1.17-1.87,1.08-3.48-.55-.64-2.22-1.21-3.22-.53Zm88.66,0c0-.27-.47-.34-.54,0,.3-.03.42.39.54,0Zm-196.14,2.14c.67.35.84-1.06,1.08-.27-.43,1.05.7.55.81,1.07-.47.07-.61.46-.54,1.07,1.49.33,1.12-1.2,2.15-1.34-.23.85.42.83.54,1.34,1.31-.3,2.39-.83,2.15-2.67-.86.06-1.14-.47-2.15-.27-.16.55-.42,1.01-1.34.8.19-.82.19-.51,0-1.34-.56-.15-.77-.66-1.61-.53-.24.83-.9,1.25-1.08,2.14Zm21.23-2.14c-.24,1.02-1.08.2-1.88.27.42,1.46-.76,2.51.27,4.01,2.03.14,2.8-.95,2.69-2.94.51-.12,1.62.36,1.34-.54-1.42.41-2.09.79-2.42-.8Zm2.69.27c-.01.37.13.59.27.8.71.08.88-.37.81-1.07-.47-.02-.83.06-1.08.27Zm143.75,3.21c1.43-.3,1.87-1.02,1.88-2.14-1.48-1.5-3.29.9-1.88,2.14Zm-151-1.87c-.3.03-.42-.39-.54,0,0,.27.47.34.54,0Zm-2.42.27v1.34c.56.15.77.66,1.61.54-.01-.37.13-.59.27-.8-1.31-.03-.56-1.31-1.34-1.34-.06.21-.22.31-.54.27Zm29.55,2.41c1.04.14,1.11-.68,1.88-.8-.39-.86-.58-1.92-1.88-1.87-.65.7-.65,1.97,0,2.67Zm72.81,15.24c2.64-.35,3.78,0,6.18-.8,2.42-3.59,4.36-6.02,4.3-12.03-.54-.7-1.07-1.44-1.34-2.41-1.68-.82-3.74-1.27-5.1-2.41-2.23-.43-2.9.68-4.3,1.07-1.46-.61-2.47-.02-4.03-.53.35.83-.07.76,0,1.87,1.09.78,2.24,1.51,3.22,2.41,1.02,3.78-3.08,2.46-5.64,2.67-.67,5.34,2.97,8.36,6.72,10.16Zm-16.66-14.71c-1.67-.56-3.65-.82-4.3-2.41-1.53.07-3.21.12-4.57.53.88.42,1.19.4,1.88.54.3.94,1.32,1.74,1.88,3.21.19.49.04,1.33.27,1.87.64,1.53,1.64,2.19,1.61,3.74-.03,1.51-.91,3.13-2.42,4.01.22,1.11-.37,2.23,0,2.67,1.08-.17,1.36-1.15,2.69-1.07,2.33,1.49.33,3.92,0,6.42-.47,3.55.58,6.93.27,9.62,2.32.9,2.46,3.97,3.22,6.42,1.27.43,2.32,1.08,3.76,1.34.38,1.31,1.37,2.02,2.68,2.41.86-.3,1.29-1.04,1.35-2.14-3.12-.01-3.6-2.65-5.11-4.28-.22-.76.38-.69.27-1.34-.77-.66-1.06-1.8-1.61-2.67-1.47-6.05.87-11.15,2.95-15.24.25-2.44.27-6.54,0-9.89-1.6-1.26-3.51-2.21-4.84-3.74Zm-83.02,0c.71.08.88-.37.81-1.07-.71-.08-.88.37-.81,1.07Zm129.51-.27c.01,1.57,2.28,2.59,3.49,1.34.09-2.41-2.13-2.33-3.49-1.34Zm17.73,1.34c.32.31.95.3,1.61.27v-2.14c-1.38-.22-1.64.68-1.61,1.87Zm9.41-.27c.21-1.28-.56-1.58-1.61-1.6-.09,1.16.74,1.4,1.61,1.6Zm-171.15-.27c.78.39.78-1.19,0-.8v.8Zm164.97-.53s.02.25,0,.27c-1.27,1.45,1.29-.49,0-.27Zm-147.51,2.14c.76.22.7-.38,1.34-.27.15,2.45-.45,3.61.81,5.62.56-.69-.6-.99,0-1.87,2.49.72,1.48-3.75,4.03-2.94-.02-1.6-1.44-.86-3.22-1.07-.6.71.4,1.36-.27,1.87-.72-.66-.29-1.27-1.07-2.14h.81c-.03-1.98-2.58-.57-2.42.8Zm180.56-1.07c.78.39.78-1.2,0-.8v.8Zm-160.94.8c.57.33.78,1.01,1.61,1.07.77-.51.65-2.12-.27-2.41-.39.5-1.47.32-1.34,1.34Zm-13.43-.8c-.3.03-.42-.39-.54,0,0,.27.47.34.54,0Zm142.94,0c-.74.81.82-.73,0,0h0Zm-13.7,0c-1.83,1.68-4.32,1.34-6.45,2.94-1.05,4.32,1.03,8.55,3.76,10.69,1.63.7,3.57,1.08,4.57,2.41,1.02-.67,1.93-.15,2.96-.27.28-.03.7-.51,1.07-.54.44-.03.7.41,1.08.27,1.36-.52,1.82-2.11,3.22-2.67.04-2.34.42-2.59-.27-4.55-1.98-1.83-5.62-.77-6.99-3.48-.19-1.89.84-2.55,1.08-4.01-1.08-.53-2.82-.41-4.03-.8Zm11.82,1.34c1.03.22,1.04-.57,1.34-1.07-.34-.01-.37-.34-.81-.27.2.82-.74.51-.54,1.34Zm-162.82.54c.61.08,1.01-.06,1.08-.54-.51-.03-.19-.88-.81-.8.22.76-.38.69-.27,1.34Zm182.97,1.34c2.65,3.95,2.8,9.24,4.84,13.37-.79,1.89-.93,4.42-.81,7.22-.97.88-1.25,1.39-1.08,3.74,1.08.08,1.07,1.26,2.42,1.07,2.66-1.6.07-7,1.88-9.62-.53-2.04-1.17-4.85-.54-7.22-.61-1.98-1.88-3.3-2.69-5.08.53-2.93-1.42-3.39-1.34-5.88-2.27-.57-2.36,1.04-2.69,2.41Zm-186.73-2.14c-.21.06-.53,0-.54.27.21-.06.53,0,.54-.27Zm166.85,1.07c-.21.06-.53,0-.54.27.21-.06.53,0,.54-.27Zm-162.02.8c.31,1.06.31-1.06,0,0h0Zm14.24,0c-.39.15-1.39-.31-1.34.27.34.36,1.32.41,1.34-.27Zm178.41,2.67c.43.46,1.12.66,2.15.53.43-.64.88-1.26.8-2.41-1.42-.78-2.62.7-2.95,1.87Zm-53.74-1.34c.31,1.06.31-1.06,0,0h0Zm24.72,0c-.67.91-1.03-.73-2.15-.27-.49,1.48,3.19,1.35,2.15.27Zm-116.88,2.67c.87-.02,1.45-.34,1.61-1.07v-.8c-.32-.31-.95-.3-1.61-.27-.4.39-.4,1.75,0,2.14Zm87.32,17.11c1.03.22,1.04-.57,1.34-1.07-1.03-.22-1.04.57-1.34,1.07Zm-9.4-4.28c1.01.33,1.73.96,2.69,1.34,2.71.16,4.3,1.42,6.72,1.87,1.99-.52,2.65-2.35,5.11-2.41.5-1.38,1.97-2.28,2.95-2.41-.55-.07-.54-.71-.8-1.07,1.68-1.29.2-4.42,1.61-5.62-2.56-.93-2.58-4.38-4.57-5.88-3.87,0-8.63-1.05-12.36-.27-.37,2.12-2.5,2.5-2.15,5.35-1.11,1.13-.8,3.18-1.61,5.08.83,1.31,1.7,2.58,2.42,4.01Zm42.45-12.83c.22.58,1.02.59,1.08,1.34.93-.05,1.02-.95,1.88-1.07.16-1.05-.23-1.55-.54-2.14-1.69-.26-1.94.93-2.42,1.87Zm-149.66,0c1.54.22.18-1.66-.27-.8.31.04.29.42.27.8Zm122.79-.8c0-.27-.47-.34-.54,0,.3-.03.42.39.54,0Zm-38.69.27c-.65.9.9-.65,0,0h0Zm-105.32.27c-.23,1.58.16-1.07,0,0h0Zm174.91,4.01c.5.83.82,1.86,2.15,1.87.77-.57,1.51-1.17,1.61-2.41-.87-1.1-1.84-2.09-2.69-3.21-.72.89-.6,2.61-1.08,3.74Zm-155.3-1.34c.92.04,1.75-2.16.27-2.14.12.92-.11,1.5-.27,2.14Zm146.17-.8c.48-.06,1.35.27,1.08-.54-.61-.07-1.01.07-1.08.54Zm-159.33.54h.54c.02-.34.35-.37.27-.8h-.8v.8Zm-4.57-.27c-.22,1.66-.56,3.37.81,4.01.14-1.58,1.55-.56,2.42-1.07-.42-1.23-.02-2.04.27-3.21-1.02.1-2.01.08-3.49.27Zm47.02,3.21c1.08.26,1.25,1.43,2.69,1.34.46-.34,1.06-.55,1.08-1.34-.26-2.03-2.67-2.65-3.76-2.41,1.69.44-.21,1.15,0,2.41Zm119.03.53c-.06-.86.48-1.13.27-2.14-.51-.03-.19-.88-.8-.8-.42,1.09-.87,2.67.54,2.94Zm12.63-.8c-.07.78.61.82.54,1.61,1.4-.31,2.93-.47,4.03-1.07-.22-3.09-3.9-3.09-4.57-.54Zm15.31-.8c-.03,1.01.53,1.44,1.34,1.6.7-.29,2.05-1.84.81-2.41-.51.47-1.72.25-2.15.8Zm-27.14,1.07c.81.41.71-1.38.27-1.34-.22.31-.35.72-.27,1.34Zm-162.82,0c.19-.2.67-1.31-.27-1.07.05.4-.1.99.27,1.07Zm41.91-.27c.31,1.06.31-1.06,0,0h0Zm58.3,1.34c.4.94.69,1.99,2.15,1.87,1.7-1.9-.65-3.63-2.15-1.87Zm63.41,3.48c1.15-.01,1.14-1.19,2.42-1.07.6.21,1.05.56,1.88.53v-1.34c-1.29-.12-1.13-.12-2.42,0,.78-.52.71-2.42-.54-2.41-.68,1.78-1.58,1.7-1.34,4.28Zm31.7-4.01c-.23,1.58.15-1.07,0,0h0Zm-89.74,1.87c.75.43.74-1.16.27-1.07-.08.36-.38.51-.27,1.07Zm-110.7,1.6c1.14-.03,1.61-.72,1.88-1.6-.4-.14-.68-.4-1.07-.54-.37.62-1.08.88-.81,2.14Zm44.33.27c.58-.23.95-.66.81-1.6-1.43-1.25-2.84,1.56-.81,1.6Zm67.17,0c.7.08,1.16-.1,1.08-.8-.4-.32-.76-.67-1.08-1.07.24.98-.47,1.42,0,1.87Zm8.87-1.34h.81v-.53h-.81v.53Zm45.95,3.48c.58-5.95-4.25-4.06-3.76,0,1.27,1.03.83,3.05,1.08,4.55.66.52,1.93-.06,2.69-.27-.29-1.62.62-2.06.8-3.21-.11-.51-1.04-.21-.8-1.07Zm-57.23-2.67c.84.12,1.2-.23,1.08-1.07h-.81c.06.51-.3.59-.27,1.07Zm72.01-.8c.31,1.06.31-1.06,0,0h0Zm-148.04,12.03c.44-.08.46.25.81.27.19-1.35-.09-2.23-.81-2.67.68-.12,1.09-.52,1.35-1.07.16.85-.51.83,0,1.34,1.3.22,1.91-1.65,1.88-1.87-.81.81-.32-1.04-1.08-1.07-.08-.7,1.04-.21.81-1.07-.43-.02-1.03.13-1.08-.27.5-.51.03-.67,0-1.34,1.61.37,2.44-3.14.81-3.47-.22.67-1.23.56-2.15.53-.22.5-.35,1.08-.81,1.34.46.34,1.06.55,1.08,1.34-.22.05-.27.27-.54.27-.35-.09-.42-.47-.81-.53.12.92-.11,1.5-.27,2.14,2.24.61-.28,3.4.54,5.88l-.13-.13-.13.13c-5.04-2.35-1.75,5.65.27.27l.14.13.13-.13Zm142.67-9.89c-.08.7,1.04.21.8,1.07.9-.61,2.35-.7,2.15-2.41-1.56-.13-2.93-.07-2.95,1.34Zm-171.42,1.34c-.21-.95-.39-1.93-1.08-2.41-.02,1.18.39,1.93,1.08,2.41Zm178.41-1.34c-.43,1.5.67,1.47.81,2.41.76-.04,1.12-.49,1.88-.53-.21-1.1.41-1.37.27-2.41-1-.73-2.04.34-2.96.53Zm-134.88,1.07c.93.99.66,2.08,1.88,2.14,2.4.12,1.83-3.45-.27-3.47-.37.61-1.34.63-1.61,1.34Zm81.68,8.02c-.24-2.32-3.01-4.25-4.03-5.35-.83-.89-.96-2.18-1.88-2.94-2.91-.83-5.04-1.14-8.33-.8-1.75,1.29-3.27,2.81-4.57,4.54-.28,2.66-.3,4.09-.27,6.42,1.89-2.1,7.4-2.28,8.33.8-.41,1.37-1.44,3.9-.27,4.55.26-.27.53-.54.81-.8.23.31.35.72.27,1.34,1.01-.53,1.74.26,2.95.27,3.12-2.04,7.41-3.82,6.99-8.02Zm65.56-8.82c-.17,1.5.59,2.09,1.61,2.41.45-.62,1.5-.65,1.34-1.87-.67-1.05-1.84-1.17-2.96-.54Zm-196.14,2.67c.73,0,1.8-1.03,1.08-1.6-.37.52-.97.82-1.08,1.6Zm2.42,1.07c.59-.57,1.03-1.3.81-2.67h-.81c.3,1.03-.48,2.35,0,2.67Zm101.03-.8c.93.59,1.57.43,2.42-.27-.09-.62-.32-1.11-.54-1.6-1.51-.26-1.96.54-1.88,1.87Zm-12.09-1.34v.8c.48.4,1.94.15,1.88-.8-.96.22-1.3-.6-1.88,0Zm63.68,0c-2.75-.61-6.67-.28-8.87.53-.13,2.9-2.89,3.19-3.76,5.35v5.35c1.3,1.52,3.27,4.24,5.91,4.54.7.08,1.41-.4,2.15-.53,1.04-.19,2.19.27,2.69-.8.04-1.65-1.79-1.43-1.61-3.21.34-1.45,1.72-1.85,3.22-2.14,1.51.28,1.04,2.54,2.69,2.67,2.13-3.88,0-9.81-2.42-11.76Zm4.03,1.87c.62.36.89,1.08,2.15.8.39-.59.68-1.29.54-2.41-1.06-1.2-2.26.56-2.69,1.6Zm-154.76-1.34c-.22,1.58.15-1.07,0,0h0Zm102.64,1.07c.28.7,1.09.88,2.15.8-.13-.84.82-.6.54-1.6-1.04-.37-2.78-.96-2.69.8Zm63.68,1.87h2.42c.16-1.08.93-1.57.81-2.94-1.98-.94-5.41.44-3.23,2.94Zm-126.28,5.08c.31.22.72.35,1.34.27-.41.41-.48,1.83.54,1.6-.1-1.97,1.55-2.2,2.15-3.48-1.08-.35-2.03-.83-2.42-1.87.71-.68.13-2.05,1.08-2.94-.26-.55-.55-1.06-.81-1.6-.89.19-1.72.43-2.69.54-.05,1.03,0,1.97.27,2.67,3.56-.1,1.13,2.63.27,4.01.05.22.27.27.27.53h-.27v.27h-.54v.53c.31.04.48-.06.54-.27h.27v-.27Zm131.39-6.68c.83.2.52-.73,1.34-.54v-.53c-.27,0-.32-.22-.54-.27-.3.42-.87.56-.81,1.34Zm-169.54,0c.03,1.13.79,1.53,1.34,2.14.18-.36.57-.5,1.08-.53.18-1.08-.26-1.53-.27-2.41-1.28-.29-.99.97-2.15.8Zm170.62.53c.36,1.69,1.64,2.47,3.22,2.94.96-1.43,1.92-2.63.54-4.01-1.68-.07-2.2,1.02-3.76,1.07Zm-146.97,1.34c.27.35.26.99.54,1.34,1.43.27,1.87-.46,2.69-.8-.36-1.04.14-1.39-.27-2.14-1.52,0-2.66.39-2.96,1.6Zm26.87-.8c.31,1.06.31-1.06,0,0h0Zm49.17,1.6c-.15-.47.33-1.57-.27-1.6-.52.4-.81,1.53.27,1.6Zm-103.17-.27c.15,1.21,1.54-1.53.27-.27-.13.13-.31-.05-.27.27Zm45.68.8c.01-.46-.21-.69-.54-.8.03.42-.04.93.54.8Zm-43.53-.27c-.3.03-.42-.39-.54,0,0,.27.47.34.54,0Zm-3.22,1.07c.09-.33-.04-1.65-.27-.8-.09.33.04,1.65.27.8Zm172.5,1.6c1.39-.05,1.35,1.33,1.88,2.14.51.06.59-.3,1.07-.27-.37-1.27,1.68-1.52.54-2.67-.54,1.01-.77-.92-.27-1.07-1.53-1.27-4.5-1-3.22,1.87Zm-70.93-.54h1.61c-.06-1.01-.27-1.88-1.35-1.87.16.87-.18,1.24-.27,1.87Zm81.14.27c.1-.8,1.11-.68.81-1.87-.87.15-1.25-.18-1.88-.27-.5.97.33,1.66,1.07,2.14Zm-23.38,1.34c.62.36.89,1.08,2.15.8.77-1.6,1.66-2.08,1.07-4.01-1.66.34-4.12.9-3.22,2.94h-.27v.27c-.63-.54-.63.12,0,.27h.27v-.27Zm33.85-.54c1.44.98,2.92-1.05,4.03.27.24-.65.63-1.16.54-2.14-1.95-1.63-3.81.62-4.57,1.87Zm-145.36-.8c.07,1,.42,1.72,1.08,2.14.22-.67,1.42-.37,1.88-.8.17-1.42-.34-2.16-1.08-2.67-.42.65-1.46.69-1.88,1.34Zm117.68,1.34c1.53-.27,2.09-1.47,1.34-2.67h-1.34c-.41.49-.41,2.19,0,2.67Zm-33.05-.8c.72,3.28-.36,6.9,0,10.69,1.97,3.57,3.16,7.9,7.79,8.82.01.88.46,1.33.27,2.41,1.33-.14,1.43-.11,2.42-.27,1.29.55,3.03,1.31,4.84,1.6,1.69.28,5.31.71,5.91,0,.29.25.08.99.81.8.85.13.95-.48,1.88-.27,2.35.85,5.35.65,7.52,1.07,5.29-1.95,11.41-3.08,16.12-5.62.12-1.13,1.06-1.44.81-2.94-1.03-.23-2.16-.35-3.49-.27-2.5,2.05-6.52,2.61-9.4,4.28-3.37-.38-6.37.65-8.33,2.41-.76-.31-.88-1.26-1.61-1.6-4.57-.03-7-.31-10.48-1.07-.64-.11.15,1.22-.81.8.87-1.8-1.92-1.67-2.15-3.21-2.51.18-3.68-.97-4.84-2.14-.82-3.14-3.88-4.67-4.3-8.02-.18-1.42.72-2.99-.27-4.55-.04-.84.71-.89.54-1.87-.34-.82-.75-1.57-1.07-2.41-.84.32-1.66.66-2.15,1.34Zm-41.38.27c.11-.33.35-.55.81-.53.08-.71-.37-.88-1.08-.8.15.39-.31,1.38.27,1.34Zm-88.13-1.07c-.21.06-.53,0-.54.27.21-.06.53,0,.54-.27Zm101.83,1.07c-.09,1.08,0,1.96.81,2.14,1.02-.32,1.89-.79,1.61-2.41-.85-.34-1.31-.07-2.42.27Zm-107.47,1.07c.37-.34.41-1.31-.27-1.34.15.39-.31,1.38.27,1.34Zm6.45,0c.05-.76.03-1.46-.81-1.34-.05.76-.03,1.46.81,1.34Zm173.3,1.07c.52,1.51,2.82,1.1,3.76.27-.02-2.58-3.67-3.14-3.76-.27Zm22.84-1.87c.31,1.06.31-1.06,0,0h0Zm-30.63,2.94c.67-.05.65.6,1.08.8,1.22-.3,2.34-.7,2.15-2.41-1.42-.78-3.42-.09-3.23,1.6Zm-168.47,1.34c.48.5.73,1.24,1.34,1.61-.08-.71.37-.88,1.07-.8v1.34c1.17-.17.96-.91.81-1.87-.93-.26-1.17-.59-2.42-.8-.16-1.14,1.45-.52,1.07-1.87-.37.01-.59-.13-.8-.27-.14,1.11-1.04,1.47-1.08,2.67Zm42.72-2.41c0-.27-.47-.34-.54,0,.06.32.3.17.54,0Zm147.51,3.48c-1.76.23-2.02-1.02-3.22-1.34-2.08-.51-4.83-.36-6.99-.8-.79,2.1-3.5,2.45-5.64,3.21-.86.3-1.53.99-2.15,1.07-1.97.26-3.7-1.14-5.64-1.34-.97-1.62-2.18-3-3.49-4.28-.86.16-.83-.5-1.35,0-.27,0-.32.22-.54.27.28,3-.02,6.37,1.61,8.56,3.78,1.97,11.25,4.67,14.78.8,1.73.51,4.23.25,5.64,1.07,1.85,2.89,3.73,7.15,2.95,11.76,2.14,1.43,3.61,3.54,5.91,4.81,1.26-.79,3.74-.37,4.57-1.6-1.2-2-3.84-2.55-4.57-4.81-.45-1.4-.35-3.93-.27-5.88.03-.65.48-1.17.54-1.87.22-2.59-.57-5.19.27-6.68-1.1-.69-2.05-1.53-2.42-2.94Zm-167.66-2.67c.42-.03.93.04.81-.54h-.54c0,.27-.21.32-.27.54Zm-16.39.8c-.05-.4.1-.99-.27-1.07-.35.36-.35,1,.27,1.07Zm188.62.8c-.06.51.3.59.27,1.07h1.88c.55-1.58-1.43-1.59-2.15-1.07Zm-91.35.8c.36.38,1.2.71,1.61.27.43-1.41-1.68-1.33-1.61-.27Zm-55.62,2.41h1.61c.63-.44.58-1.56.54-2.67-1.92-1.01-3.01.97-2.15,2.67Zm109.08-1.34c1.03.69,2.58,0,2.42-1.34-1.17-.33-2.67-.42-2.42,1.34Zm-116.61.53c.78.2.7,1.27,1.88,1.07.69-.38,1.28-.86,1.07-2.14-1.2-1.39-2.43.19-2.96,1.07Zm87.32.8c.54.54,1.28-.08,1.88-.27-.12-.92.1-1.5.27-2.14-1.85-.33-1.53,1.5-2.15,2.41Zm-35.2-.53c.18-.9-.45-.98-1.08-1.07-.12.84.23,1.19,1.08,1.07Zm16.12,1.07c.18.8,1.07.9,2.15.8.5-.57.72-1.42.81-2.41-1.25-.69-3.01.13-2.96,1.6Zm44.87,1.07c.37,1.1,2.13,2.31,3.22,1.07-.26-1.79-.47-3.63-2.42-3.74.29,1.45-.91,1.41-.81,2.67Zm-150.73-1.07c.13-.84-.33-1.09-.81-1.34-.13.84.34,1.09.81,1.34Zm-1.34,1.34c-.41-1.33.34-1.58,0-2.41h-.81c.13.94-.44,2.58.81,2.41Zm138.1-1.07c-.06-.51.3-.59.27-1.07-.19-.21-1.5-.6-1.61,0,.61.2.59,1.02,1.34,1.07Zm-127.36,1.34c.04-.66.05-1.3-.54-1.34.05.87-.63,1.29.54,1.34Zm85.44-.27c.06-.38.44-.45.54-.8-.55-.24-1.21.69-.54.8Zm-97.8.53v-.53c-.5-.89-1.31.8,0,.53Zm95.11,2.14c1.05-.93,1.46.2,2.42-.27.71-3.9-4.86-2.75-2.42.27Zm31.17-2.67c-.68,1.34-.72,1.76-.54,3.74,2.16-.08,3.83-.64,3.49-3.21-.77-.99-1.35-.55-2.96-.53Zm-128.97.53c.31,1.06.31-1.06,0,0h0Zm48.09,1.87c.54,0,.34.73,1.08.53.55-.61,1.31-1.01,1.34-2.14-1.26-.8-2.4-.17-2.42,1.6Zm74.69-1.6c-.23,1.58.15-1.07,0,0h0Zm-122.25.54c-.51,1.02.71-1.41,0,0h0Zm116.34,0c-.19,1.61.11,2.74,1.88,2.41.58-.53,1.15-2.07.54-2.94-1.25-.26-1.62.35-2.42.54Zm7.25,1.87c.66-.41,1.83-.32,1.88-1.34-.37-.7-.98-1.16-2.15-1.07-.54.62-.27,2.05.27,2.41Zm-122.25-1.6c-.65.9.9-.65,0,0h0Zm144.02,1.87c.42-.08,1.55-1.52.27-1.6-.04.43-.9,1.38-.27,1.6Zm15.58-.27c.4.66.92,1.22,1.88,1.34,1.86-1.54-1.63-4-1.88-1.34Zm-157.72,2.67c-.12-.99,1.29-2.14,0-2.67.04.77-.75,2.08,0,2.67Zm7.79-1.61c.35-.36.35-1-.27-1.07.05.4-.1.99.27,1.07Zm90.55.8c1.22.12,1.59,1.09,2.96,1.07.61-.68.11-1.89-.27-2.41-1.52-.17-2.63.06-2.69,1.34Zm-79.53,2.67c-.53,0-.34-.73-1.08-.54-.02,1.18.64,1.68,1.34,2.14-.69-1.11.21-1.34.54-2.14-.03-.5-.89-.19-.8-.8.6-.48.95-1.19,1.07-2.14-.87-.31-1.55-.31-2.42,0,.33,1.28,1.35,1.87,1.34,3.48Zm96.73-2.67h.54c.02-.34.34-.37.27-.8h-.81v.8Zm31.44,2.41c.31-.86.74-1.76,1.88-1.07.02-1.27-1.83-.68-2.42-1.34-.77.88-1.02,2.1.54,2.41Zm4.57-1.6c.19.61.24,1.37.54,1.87,1.15.08,1.78-.37,2.42-.8v-1.6c-.93-.67-2.35.04-2.96.54Zm-49.17-.27v1.6c1.44,1.49,5.32,1.17,3.5-1.87-1.59-.25-2.45.75-3.5.27Zm57.5.53c.03,1.22-.27,2.76.8,2.94.38-.6,1.46-.51,1.88-1.07.19-1.35-.3-2.02-.8-2.67-.9,0-.92.87-1.88.8Zm-44.6.8c-.57-.51-2.23.08-2.15-1.07-2.52-.64-3.33,2.03-1.61,2.67.87-.82,3.03-.37,3.76-1.34l.13.13.13.13h.27c.21-.19.6-1.49,0-1.6.02.38.05.76-.27.8h-.27v.27Zm14.51-1.07c-.57.68-1.72.78-1.61,2.14.6.38,1.29.67,2.42.53.45-.96.25-2.45-.81-2.67Zm-12.9,3.21c1.24,1.91,3.95-.05,2.69-2.14-1.87-.26-2.81.41-2.69,2.14Zm4.57,1.07c.94.92,2.44.41,3.22-.27-.29-1.05-.35-2.32-1.34-2.67-.92.69-2.18,1.04-1.88,2.94Zm26.33-2.67c-.65.9.9-.65,0,0h0Zm-134.88,3.21c.4-.31.66-.77,1.34-.8.08-.97-.04-1.74-.27-2.41-2.68-.78-2.6,2.76-1.08,3.21Zm4.3,2.14c.87.06,1.14-.47,2.15-.27.57-3.33-1.93-2.38-2.42-4.28h-1.07c.28,2.25.62,2.79,1.34,4.55Zm98.34-3.48h.54v-.53h-.54v.53Zm10.48-.53c-.21.06-.53,0-.54.27.21-.06.53,0,.54-.27Zm29.29,1.34c.31,1.06.31-1.06,0,0h0Zm-144.55,1.07c.67.05.65-.6,1.08-.8-.37-.08-.51-.38-1.08-.27v1.07Zm113.92,1.87c.57.41,1,.97,1.61,1.34-.19-1.88,1.79-1.6,1.34-3.74-1.41-.61-2.82.4-2.95,2.41Zm8.33-1.87c-2.03-.06-3.77,1.54-5.11,2.41-.06.21,0,.53-.27.53.01,1.95-.17,4.09.54,5.35.62-.08,1.03.04,1.34.27.84-1.6,1.28-2.25,1.34-4.28,2.33-.25,3.42-2.9,5.64-2.41-.2-1.65-2.55-1.84-3.49-1.87Zm-125.21.53c-.23,1.58.15-1.07,0,0h0Zm3.22,0c-.05,1.1,1.2.5.54,1.6.8.46,1.36-.09,1.88.27.32-1.12-1.13-.48-1.34-1.07.35-.36.35-1-.27-1.07-.05.31-.43.29-.81.27Zm127.36.54c-.23-.4-.86-.39-1.34-.54-.54,1.03,1.43,1.64,1.34.54Zm-116.34.27c-.23,1.58.16-1.07,0,0h0Zm-13.16,3.21c1.11-.15,1.41-1.09,1.34-2.41-1.87-1.56-3.69,2.11-1.34,2.41Zm6.45-2.41c-.82.9.99.81,0,0h0Zm163.63,3.74c.47-.02.84.06,1.08.27.26-1.16,1.05-1.81.8-3.48-1.44-.73-2.87,1.56-1.88,3.21Zm-166.58-2.41c-.1.9,1.19.42.81,1.6.89-.08,1.65-.04,1.88.54.82-2.03-.96-3.83-2.69-2.14Zm160.41,4.54c.73-.2.54.53,1.07.53,1.28-1,.11-3.44,0-5.35-.06-.21-.22-.31-.54-.27-1.43.92-.2,2.96-.54,5.08Zm-62.07-3.21c.31,1.06.31-1.06,0,0h0Zm20.96.27c.73.33.67,1.03,1.61.54.1-.89-1.45-1.49-1.61-.54Zm3.49-.27c-.3.03-.42-.39-.54,0,0,.27.47.34.54,0Zm31.17,3.48c1.11-.06.84-1.66,2.15-.8-.47-.89.14-1.19,0-2.41-.51.06-.59-.3-1.08-.27-.54.88-1.56,2.44-1.07,3.48Zm-59.11-2.14c.71.08.88-.37.81-1.07h-.81v1.07Zm36.54-.27c-.08,1.24.47,1.85,1.61,1.87.31-1.04,1.12-1.5.27-2.41-1.24-.39-.94,1.44-1.88.53Zm-12.63.27h.54v-.53h-.54v.53Zm20.96,1.87c.57.24.79.81,1.61.8-.27-1.25,1.08-.89.81-2.14-.96-1.18-2.32.08-2.42,1.34Zm6.18-.27c1.11-.21,1.38.41,2.42.27v-1.87c-1.65-.31-2.3.38-2.42,1.6Zm-149.66,0c-.1,1.08.92,1.05,1.34,1.6.02.96.71,1.25,1.34,1.6-.9-1.52.59-.68.81-.8.16-.09.83-1.79.8-1.87-1.69.26-1.66-1.2-2.42-1.87-.07,1-1.11,1.04-1.88,1.34Zm26.6.53c.05,1.11.09,2.23-.54,2.67,1.13.66,1.93-.82,3.22,0,.8-.54.48-2.2.54-3.48-1.24.2-1.1-.3-.81-1.07h-.8c-.06,1.1-.6,1.72-1.61,1.87Zm61.53,2.14c1.1-.07,1.63-.69,2.42-1.07.58-2.45-1.87-1.88-2.69-2.94.36,1.53.1,2.78.27,4.01Zm25.26-3.74c-.09,1.07-.02,1.97.54,2.41,2.31.08,1.97-3.72-.54-2.41Zm19.88.8c.66.04,1.3.05,1.34-.54-.36-.08-.51-.38-1.07-.27.01.37-.13.59-.27.8Zm-80.87,1.87c.53-.46.44-2.56-.54-2.41.2,1.18-.82,2.18.54,2.41Zm53.2.8c1.64.3,2.01-.67,2.96-1.07-1.07.17-.77-1.02-.81-1.87-1.94-1.11-3.58,1.47-2.15,2.94Zm-87.32-2.14h.54c.02-.34.34-.37.27-.8h-.54c-.01.34-.34.37-.27.8Zm108.28,2.41c.92-.42,2.43-.25,3.22-.8.02-1.18.05-2.37-1.07-2.41,0,1.62-3.48,1.16-2.15,3.21Zm-133-1.07c-.22-.7.81-1.47,0-1.87-.59.47-.61,1.33,0,1.87Zm15.85-1.07c.02-.16.04-.32.27-.27-.03-.33-.08-.63-.54-.54.04.31-.05.76.27.8Zm70.4,1.6c.94.22,1.52.81,2.42,1.07.23-.39.4-.85,1.08-.8-.41-.84.02-2.51-1.08-2.67-1.1.51-2.19,1.03-2.42,2.41Zm-16.93-.27c.37.6,2.03.79,2.69.27v-1.07c-.84-1.05-3-1.67-2.69.8Zm32.78.27c1.65,1.01,2.45-.87,2.96-1.87-1.53-.52-3.15-.07-2.96,1.87Zm-60.99-.8c.09.98.3,1.83.8,2.41,1.12-.49,2.37-.85,2.96-1.87-.04-1.21-1.36-1.15-2.15-1.6-.04.86-.61,1.18-1.61,1.07Zm35.46,1.34c.46,1.36,2.58,1.74,3.49.54-.12-.92.11-1.5.27-2.14-1.41-1.34-3.81-.16-3.76,1.6Zm99.15-.53c-.57,2.34,4.34,3.16,3.49-.8-1.17-1.67-2.34.21-3.49.8Zm-121.71,1.07c1.45.11,2.44-.24,2.15-1.87-1.19-1.47-3.25.27-2.15,1.87Zm8.33-.27c1.6.16,2.54-.32,2.42-1.87-1.46-.99-3.07.71-2.42,1.87Zm-51.05-1.07c.78.39.78-1.19,0-.8v.8Zm1.07,1.07c.82,1.3,4.09,1.08,3.49-1.34-1.54-.53-3.47-.38-3.49,1.34Zm13.7-1.07c.09.62-.04,1.03-.27,1.34.74,1.01,3.09,1.11,3.22-.54-.12-1.59-1.85-1.41-2.95-.8Zm20.42-.53c-.21.06-.53,0-.54.27.21-.06.53,0,.54-.27Zm1.61.27v1.34c.97.55,1.51.51,2.69.27v-1.6c-.49-.41-2.2-.41-2.69,0Zm-49.71.8h.81v-.8h-.54c-.01.34-.35.37-.27.8Zm127.36,0c.46.01.69-.21.81-.54-.46-.01-.69.21-.81.54Zm18.81.53c.2.78.65,1.31,1.07,1.87.59-.78,1.1-.09,1.88-.8-.16-.87.18-1.24.27-1.87-1.01-.18-2.51-.32-3.22.8Zm8.06.8c2,.49,4.7.82,4.03-1.6-1.75.99-4.25-1.66-4.03,1.6Zm-151,.8c1.51.29,4.3-.32,4.84-1.87-2.17-.31-4.9-1.09-4.84,1.87Zm159.06-.27c1.53.52,3.15.06,2.96-1.87-.86-.25-1.59-.06-2.96-.27-.44.88.06,1.02,0,2.14Zm25.79,0h1.34c.08-1.15.02-2.16-1.07-2.14-.81.28-.53,1.46-.27,2.14Zm-62.33-.54c-.06-.47.27-1.34-.54-1.07-.07.61.06,1.01.54,1.07Zm-123.87-.27c.31,1.06.31-1.06,0,0h0Zm170.88.27c-.09.62.04,1.03.27,1.34.88,0,1.03-.76,1.07-1.6-.76-.22-.69.38-1.34.27Zm24.72.8c1.53.23.41-1.88-.27-.8.31.05.29.42.27.8Zm-135.42,1.07h.54v-1.07h-.54v1.07Zm77.65-.27h.54c.02-.34.34-.37.27-.8h-.54c-.01.34-.34.37-.27.8Zm-4.57,0h.54v-.54h-.54v.54Zm-6.98,1.6c-.16-.55.33-1.76-.27-1.87-.17.82-1.69,1.87.27,1.87Zm-87.59-1.34c-.65.9.9-.65,0,0h0Zm-37.35.27c.31,1.06.31-1.06,0,0h0Z"/>
  <path class="cls-12" d="m117.48,18.72l.2-.27c.23-.05.25.1.27.27.05.23-.11.25-.27.27l-.27-.13-.27.13v-.27h.34Z"/>
  <path class="cls-12" d="m207.96,36.36h-.27c.37-.77-.73-1.36,0-1.6,1.22.56,1.55.65.27,1.87v-.27Z"/>
  <path class="cls-12" d="m59.25,70.45l-.13.13c-.36-.18-.5-.57-.54-1.07.39.23,1.04.21.81,1.07l-.14-.13Z"/>
  <path class="cls-12" d="m224.35.8c.88,1.2.85,3.8,0,5.35.16,8.98-.13,16.77.81,24.06-.91.61-.22,2.81-1.08,3.47.77,1.73.29,4.71,1.08,6.42-1.16,3.79.65,6.93-.81,10.16.75,3.45,1.53,10.06.27,13.63.43,2.88-.11,5.66,0,8.29.09,2.25,1.42,4.65,0,6.68,2.15,5.22-1.65,11.19.81,16.31-1.09,1.7-.26,3.97.27,6.15-1.34,2.02-.34,5.4-.54,8.02-.11,1.46-.8,2.82-.81,4.01-.01,1.3.72,2.56.81,4.01.09,1.54-.42,3.32-.27,4.81.2,1.97,1.06,3.43-.27,4.81.83,2.16.2,4.45.27,6.95.03,1.2.74,2.5.81,3.74.06,1.27-.42,2.27-.54,3.48-.56,5.63.15,11.14-.27,15.51.4.49.46,1.32.81,1.87.39,4.97-.55,10.23,1.07,15.51-.34,6.73-1.97,15.11,0,21.12-.3,1.21-1.22,2.01-1.88,3.48-.09,1.51,1.55,1.31,1.34,2.94.21,1.24-.3.76-.54,1.07.37.7.53,1.61.8,2.41-.29,1.8-1.07,3.98-.27,5.35-.99,1.18-.67,2.4-.54,3.74,0,1.17.86,1.46,1.07,2.41,0,2.3-.7,4.02-.81,6.15-.01,1.24-1.7.81-1.88,1.87-2.64.06-6.57.91-9.67,1.07-4.66.24-9.38-.79-13.97-.53-1.08.06-2.19.45-3.23.53-4.23.35-8.72-.41-13.17-.27-3.64.12-7.42.65-10.75.53-1.5-.05-3.06-.75-4.57-.8-3.28-.12-6.64.99-9.94.53-.84.12-1.2-.23-1.07-1.07-.67.31-.9,1.07-1.88,1.07-4.32-.19-8.54,1.1-11.82-.27-6.15.82-9.16-.67-14.51,1.07-1.04-.68-1.67-.11-2.69-.8-4.37.87-11.65.88-16.12-.27-2.64,1.18-6.93,1.67-8.87-.27-.07,1.98-3.64.47-4.57,1.6-1.04.28-1.31-.95-1.88-1.07-.31-.06-1.41,1.47-1.34,0-.51-.66-.73,1.21-1.88.8-3.09-.53-5.92-.14-8.87-.27-2.15-.09-4.37-.74-6.45-.8-3.53-.11-7.16,1.49-10.48.27-2.58.33-6.52,1.1-8.87,0-6.53-.43-14.36,1.47-19.88-.8-.93.14-2.63,1.27-2.96-.27-1.34,1.88-3,.62-5.37.54-1.13-.04-2.23.57-3.22.53-.47-.02-1.18-.48-1.61-.53-4.35-.54-9.12.07-13.17-.27-1.29-.11-2.71-.43-3.49-1.6-2.33.68-5.17-.12-6.99-.8-.48-1.66-.4-3.88-.81-5.61,0-.99.41-1.55.81-2.14-.32-.75-.29-1.84-.27-2.94-.12-1.01.53-1.25.81-1.87-.21-.5-.45-.98-.54-1.6,1.71-3.65-.84-10.32,1.08-13.37-.26-1.52-.43-3.13-1.08-4.28-.12-4.8.06-10.83,0-16.31-.02-1.48.7-2.82.81-4.28.24-3.44-.2-6.97,0-10.43.05-.94.45-1.73.54-2.67.24-2.57-.31-5.01-.27-7.49.04-2.39,1.08-4.74,0-6.95-.18-.98.58-1.03.54-1.87-.13-9.5-.43-19.33-.27-28.61.04-2.53.62-5.02.54-7.49-.11-3.19-.52-7.3-.54-11.23,0-.95.26-1.99.27-2.94.07-6.02-1.49-14,.81-18.72-.83,0-.65-.46-1.07-1.34.46-5.59-.18-12.01-.27-18.45-.07-4.99,1.12-9.74-.27-14.71,1.38-1.59.38-3.92.54-6.15.05-.8.51-1.59.54-2.41.03-1.17-.49-2.34-.54-3.74-.04-1.21.58-2.59.27-4.28-.18-1-.79-1.82-1.07-2.67.93-4.1-.12-11.18,2.69-14.71,1.87-.65,3.12-1.84,5.11-2.14,2.5-.38,5.27.37,8.06.27,1.27-.05,2.4-.68,3.76-.8,3.26-.3,6.62.89,9.94.8.86-.02,1.59-.44,2.42-.54,3.47-.39,6.88.61,10.21,1.07,7.46-1.05,14.37-1.47,21.76-.27,5.96-1.52,14.01-1.78,19.88-.27,2.3-.8,5.06-1.22,7.52-1.07,2.08.12,4.25,1.34,6.45,1.34,2.69,0,5.45-.9,8.33-.8,2.6.09,5.09,1.03,7.52,0,1.23-.25,1.3.67,2.42.54,4.96-1.28,11.09.36,15.85-1.07.22.76-.38.69-.27,1.34,1.66-1.04,4.66-1.66,7.52-1.34.85.1,1.64.51,2.42.54,4.03-.59,8.78-.24,12.63-.54.81-.06,1.85-.26,2.69-.27,2.85-.02,5.64,1.13,8.6,1.07,1.94-.04,3.79-.3,6.18-.27,2.34.04,4.67-.37,6.99-.54,3.01-.22,5.86.1,8.87,0,3.32-.11,6.68.99,9.67,0,8.23,1.18,17.43-1.03,25.79.54Zm-111.24,1.6c.27,0,.32.22.54.27-.03-.42.04-.93-.54-.8v.54Zm98.61,1.87c-.51-.1-1.07-.73-1.88-.8-4.29-.36-8.52,1.54-12.63,1.34-.71-.03-1.59-.43-2.42-.53-1.99-.25-3.5,0-4.83-1.07-.38.06-.46.44-.81.53-6.04.79-14.01.5-20.15,0-3.8,1.13-8.11.37-12.09.27-3.29-.08-6.66.39-9.94.54-3.13.14-6.06-.47-9.13-.54-6.37-.13-12.58,1.13-18.27.27-3,2.04-6.11.13-9.14,0-3.39-.15-6.96,1.12-10.21,0-1.55.33-3.19,1.07-5.11,0-.69.56-1.78.72-2.69,1.07-1.47-.24-2.9.18-4.3-.54-.48.24-.68.75-1.61.54-4.76-.66-10.76-.09-14.51-1.07-4.86,1.45-11.08.52-16.66.53-3.14,0-6.06.9-8.6,0-3.64,1.48-7.41-.01-11.55,0-2.99,0-6.03.98-9.13,1.07-6.67.2-13.64-2.02-16.66,1.87-.3,2.28-.88,4.48-.54,6.68-1.08,1.42-.83,4.16-1.61,5.88,1.36,5.74-.16,11.49.54,17.11-1.18,2.55-.36,7.73-.27,9.89.1,2.46.26,5.33,0,7.75-.13,1.21-.73,2.27-.81,3.48-.26,4.26.81,8.87.81,13.37,0,3.26-.65,6.34-.27,9.62-1.44,2.68.17,5.44.27,8.29.13,3.73-.72,7.66-.81,11.5-.04,1.82.41,3.67.27,5.35-.2,2.33-1.05,4.4-.54,6.95-1.13,3.54-.9,6.44-.54,10.43-.17.54-1.36.08-1.08,1.07.69.03,1.28.15,1.61.53-.76,2.37.84,6.93-.54,9.62.83,1.4.46,4,.54,6.15-.9,1.54-.99,2.53-1.34,4.28.92-.11.34-.72,1.34-.27-.7,2.77-.73,4.9-.27,8.02-1.42,3.92-.47,10.26,0,14.17.53,4.42-.14,9.13-.27,11.76-.1,2.02.27,3.43-.54,4.54.66.88.8,2.34.54,3.48-.31,1.34-1.48,1.43-1.61,2.41.61.37,1.01-.69,1.07,0,.73.72-.7.66-.54,1.6.88-.07,1.29.32,1.34,1.07-.02,3.76-.72,7.55-.27,11.5.37,1.17-1.04.57-.81,1.6,1.21-.45.65,1.09.81,1.6.52,1.71.62,2.55,0,4.01-.23.55-.58,1.54-1.08,1.6-.14.87,1.34.57.54,1.34-.2,2.33.44,3.84.27,6.15.77.48,1.5,1,2.15,1.6,1.53-.87,3.24-.46,4.57.27.42-.3.56-.87,1.34-.8,1.61.89,4.96.06,6.45,1.07,2.06-1.05,4.5-.45,6.72-.53,1.42-.06,2.91-.32,4.3-.27,2.65.1,5.28.73,7.25.8,2.34.08,4.86-.53,7.26-.53,1.84,0,3.62.55,5.37.53,3.77-.03,7.54-.88,11.02-.8,3.37.08,6.8.27,10.21.27,3.83,0,7.55.25,11.29.27,4.95.03,9.74.08,14.24-.27,1.43,1.11,3.12.13,4.57,0,5.3-.48,11.23.58,16.12.27,1.39-.09,2.73-.55,4.03-.53.89,0,1.79.61,2.68.27,2.9-.83,12.16.13,16.12-.54.14,1,1.62-.4,1.34,1.34.77-.3.79-1.35,1.88-1.34,2.48.29,5.07,0,7.79,0,1.71,0,3.72.54,5.37.27.68-.11.94-.48,1.61-.54,5.08-.39,10.24.99,14.51.54.6-.06.97-.55,1.61-.54,1.14.03,2.36.48,3.49.54.96-.38,2.22-.46,3.22-.8,4.46,1.1,10-1.17,14.24.8,1.34-1,3.29-.18,5.37-.27,2.71-.11,5.76-.82,8.33-.27,1.1.11,1.08-.88,2.42-.53,3.26,1.49,6.04-.86,8.06-1.34-.01-6.34.96-13.54-.27-18.72.85-1.8.68-4.05.27-5.88,1.47-7.83-.52-16.2,0-25.13-.12-.86-.52-1.45-.54-2.41.38-.76.48-1.2.54-2.14.29-4.4-.1-9.06,0-13.64.14-6.57-1.33-13.19-.81-19.52.06-.71.25-1.24.54-1.87-.65-5.91.57-12.87-.54-18.72,1.15-1.67.17-3.37,0-5.08-.33-3.2.03-7.01,0-10.43-.03-3.05-.25-8.52,0-10.96.36-3.49-.29-6.23,0-9.09-1.3-3.32-.22-7.45,0-11.5.15-2.85-.36-5.71-.27-8.29.04-1.07.47-2.13.54-3.21.07-1.18-.27-2.2-.27-3.47,0-4.62.5-9.55.27-13.9-.08-1.44-.62-2.86-.54-4.28.13-2.43.89-4.67-.27-6.95,1.7-5.62-.8-10.24.27-15.78-.3-1.13-.66-2.19-1.07-3.21-2.01-1.16-4.81-.42-6.72-.8Zm9.94,17.11v-1.07h-1.34c-.19.99.94.67,1.34,1.07Zm-.27,41.18c.89.13,1.13-1.54.27-1.6-.31.32-.3.95-.27,1.6Zm.27,12.3c-.35,0-.25-.47-.54-.53-.31.55.42,1.28.54.53Zm2.42,121.92c-.65.9.9-.65,0,0h0Zm-219.25,4.54c0-.27-.47-.34-.54,0,.06.32.3.16.54,0Zm37.88,23.8c.36.08.51.38,1.08.27v-1.07c-.67-.05-.84.41-1.08.8Z"/>
  <g>
    <path class="cls-6" d="m35.6,11.63h.81"/>
    <path class="cls-2" d="m22.84,201.33c.25-.1.37-.34.54-.53"/>
    <path class="cls-7" d="m113.12,14.17c-.25-.26-.38-.57-.54-.8"/>
    <path class="cls-13" d="m170.08,14.97c.14-.31.1-.79.27-1.07"/>
    <path class="cls-9" d="m40.17,16.71c.38-.13.69-.26.94-.4"/>
    <path class="cls-10" d="m116.88,18.18c.3.21.44.3.61.53"/>
    <path class="cls-11" d="m117.42,19.79c.18-.34.04-.71,0-.94"/>
    <path class="cls-1" d="m207.7,36.9c.09-.18.16-.37.27-.54"/>
    <path class="cls-4" d="m123.19,47.46c.31-.48-.19-1,.13-1.47"/>
    <path class="cls-13" d="m189.69,49.47c-.13-.31-.1-.79-.27-1.07"/>
    <path class="cls-8" d="m192.25,84.36c0,.37.02.73-.08.99-.14.04-.3.06-.46.08"/>
    <path class="cls-5" d="m59.25,70.45c.1.17.21.33.27.53"/>
    <path class="cls-6" d="m23.11,107.75c.32.13.81-.11.94-.4"/>
    <path class="cls-3" d="m45.54,157.88c.35-.48.83-.8,1.34-1.07"/>
    <path class="cls-6" d="m22.44,69.12c.17-.1.33-.21.54-.27"/>
    <path class="cls-13" d="m63.68,84.22c-.07.37-.27.62-.54.8"/>
    <path class="cls-2" d="m16.79,100.13c0-.28.06-.47.14-.67"/>
    <path class="cls-1" d="m125.75,106.41c.18.09.37.16.54.27"/>
    <path class="cls-2" d="m137.43,106.55c0-.27-.06-.47-.13-.67"/>
    <path class="cls-2" d="m22.84,109.36c.16-.24.07-.6-.13-.94"/>
    <path class="cls-8" d="m39.23,112.03c.1.25.34.37.54.53"/>
    <path class="cls-8" d="m105.86,148.66c.19-.08.31-.22.4-.4"/>
    <path class="cls-5" d="m46.89,180.61c.1.17.21.33.27.53"/>
    <path class="cls-1" d="m174.11,181.81c-.09-.18-.16-.37-.27-.54"/>
    <path class="cls-1" d="m57.5,181.81c-.09-.18-.16-.37-.27-.54"/>
    <path class="cls-2" d="m131.79,197.99c0-.28-.06-.47-.13-.67"/>
  </g>
</svg>