<?xml version="1.0" encoding="UTF-8"?>
<svg id="Layer_1" data-name="Layer 1" xmlns="http://www.w3.org/2000/svg" viewBox="0 0 226.77 226.77">
  <defs>
    <style>
      .cls-1 {
        stroke-width: .33px;
      }

      .cls-1, .cls-2 {
        fill: none;
        stroke: #000;
        stroke-linecap: round;
      }

      .cls-1, .cls-2, .cls-3 {
        fill-rule: evenodd;
      }

      .cls-2 {
        stroke-width: .26px;
      }

      .cls-3 {
        stroke-width: 0px;
      }
    </style>
  </defs>
  <path class="cls-3" d="m2.65.12C4.52.79,6.62,0,8.47.12c.96.06,1.69.49,2.65.53,5.08.2,10.28-1.04,15.34-.53.84.08,1.55.48,2.38.53,4.98.3,10.28-1.16,14.55,1.06,4.43-.86,9.76-1.36,14.29,0,6.13-1.34,12.73-.9,19.31-1.06,3.15-.08,5.65-.02,8.73.26,5.74.53,11.57-1.61,16.93.26,1.48-.01,3.02-.8,4.5-.79,1.25,0,2.39.68,3.71.79,1.49.13,3.53.02,5.29,0,1.76-.02,3.68.09,5.29,0,2.29-.12,4.66-1.3,6.88.27,4.12-1.09,8.29-.27,12.7-.27,4.91,0,9.98-.5,15.08-.53,1.02,0,2.2.25,3.18.26,7.01.09,14.01.19,20.9.26,1.33.02,2.62.5,3.97.53,2.09.04,4.29-.53,6.35-.53,2.03,0,3.87.32,5.82.27,4.1-.11,8.33-.68,12.17-.53.91.04,1.8.43,2.65.53,2.62.3,4.66.07,6.88.53.39.08.58.5,1.06.53.55.04.84-.4,1.32-.27,1.31.37,2.5,1.6,3.7,1.85.46,1.84.49,3.94.79,6.09.28,1.98.95,4.06,1.06,6.09.14,2.55-1.2,5.78.26,7.68.33,1.21-.93.84-1.06,1.59,1.42,2.88.1,5.62.53,9.8.08.8.55,2.01.53,2.91-.02.76-.46,1.54-.53,2.38-.41,5.31.33,11.02.26,16.42-.02,1.86-.41,3.72-.26,5.56.17,2.23,1.12,4.45,0,6.62,1.51,7.16-.05,16.07,0,24.09,0,1.22.45,2.2.53,3.44.21,3.2-.49,6.48-.53,9.8-.07,6.14,1.08,12.54-.27,19.06,1.58,3.99.91,9.3.53,14.3-.12,3.12,1.05,9.21,0,12.97.08,1.15.54,1.93.79,2.91-.21.76-.89,1.06-1.06,1.85,1.4,4.3-.37,10.29,1.06,14.56-1.26,3.07.31,6.18,0,9.27-.11,1.15-.94,2.25-1.06,3.44-.15,1.53.77,2.87.79,4.5.01,1.01-.48,2.21-.53,3.18-.07,1.24.3,2.48.26,3.71-.04,1.13-.46,2.3-.53,3.44-.09,1.59.21,3.13.26,4.77.02.73-.07,1.54,0,2.38.06.72.51,1.63.53,2.38.02,1.21-.52,2.54-.53,3.71-.02,3.6.41,7.45-.53,11.12-1.86,1.82-6.63.98-10.05,1.85-6.17-.92-15.22-.61-23.02-.53-5.02.05-9.11.58-13.76.27-1.01-.07-1.95-.49-2.91-.53-2.31-.09-4.64.77-6.88.8-2.83.04-5.62-.01-7.67,0-.7,0-1.37-.39-1.85.26-.91-.15-1.6-.52-2.38-.79-2.5.95-5.08.27-7.67.27-1.49,0-3.05.44-4.5.53-3.93.25-7.95-.24-11.91-.26-6.47-.04-12.91.65-18.52.26-.84-.06-1.31-.52-2.12-.53-.69,0-1.44.17-2.12.26-.72.1-1.7.49-2.38.53-.75.04-1.53-.51-2.38-.53-1.28-.03-4.91-.23-6.35,0-.23.04-.45.55-.79.53-.9-.05-1.74-.51-2.65-.53-5.47-.11-11.5-.04-16.67.26-2,.12-3.93.58-5.82.53-1.63-.05-3.4-.79-5.03-.79-1.23,0-2.43.49-3.7.53-4.2.13-8.5-.77-12.7-.79-1.25,0-2.41.48-3.7.53-5.17.2-10.57-.52-15.87-.53-3.53,0-7.24-.28-10.58,0-2.75.23-5.42.42-8.2,0-2.06-.32-5.36.52-7.41,0-2.82-.71-3.49-2.87-4.5-5.83,1.35-5.45-.75-10.62-.26-15.89.09-.97.58-1.27.79-2.38.06-.31-.34-.89-.26-1.32.25-1.43,1.27-4.31,1.32-6.36.05-1.9-.8-3.43-1.32-5.3,1.65-5.89-.13-12.77-.26-19.86-.11-5.52,1.17-10.44,0-15.36.21-1.03.55-2.14.53-3.18-.03-1.38-.88-2.66-1.06-3.97-.2-1.49-.17-3.23-.26-5.03-.22-4.1-.2-11.21-.26-15.89-.01-.9.33-1.82.26-2.65-.1-1.21-.55-1.79-.53-2.91.1-5.17,1.49-10.09.79-15.36,1.13-5.36-1.29-12.36.26-18.53-1.33-2.84-1.19-8.84-.53-13.5.18-1.25.75-2.25.79-3.44.05-1.39-.69-3.09-.79-4.5-.21-2.81.5-5.43.79-8.47.19-2.01-.02-4.41,0-6.62.04-4.14-.26-8.07,0-12.71.23-4.11.28-9.46.26-14.3-.02-4.62.61-9.12.26-13.24C1.62,6.29.65,2.49,1.85.65c.19-.25.48-.4.79-.53Zm217.47,3.71c-1.02.09-1.85.21-2.65,1.06-8.02-1.34-16.23-.24-24.6-.26-10.69-.04-22.16-.29-31.75-.53-3.71-.09-7.41.51-11.11.53-6.21.03-14.33-.26-21.69-.26-4.47,0-8.88.2-12.96-.27-.73.33-1.42.7-2.38.79-5.03-.23-10.97.25-17.2.26-10.17.02-21.73,1.48-30.16.26-4.17.62-9.14,1.31-12.96-.26-2.18.7-4.3.56-6.61.53-1.91-.02-4.11.16-5.56,0-.62-.07-1.1-.57-1.59-.53-1.06.08-2.14.7-3.17.79-1.52.14-2.89-.17-4.5-.26-1.37-.08-2.89.1-4.23,0-1.51-.11-2.96-.62-4.5-.53-1.37.08-2.83.7-4.23.79-3.87.26-7.85-.77-11.38.27.08,1.23-1.83.46-2.38,1.06.47,6.53-1.17,13.77.26,18.8-1.29,7.99.11,17.74-.26,25.42-.07,1.48-.46,3.02-.53,4.5-.5,10.45.61,21.42.53,32.57,0,1.23-.54,2.48-.53,3.71.01,1.31.5,2.65.53,3.97.2,8.8.37,20.4-.53,28.07-.78,6.7.26,14.26.26,21.71s.26,14.34.53,21.18c.28,7.24,0,14.28.26,20.92.3,7.41,0,14.64.53,21.18.35,4.39.54,8.54,1.59,12.71,2.1.87,4.19.07,6.35,0,4.78-.15,9.68.23,14.82.26,1.41,0,2.87.29,4.23.26,1.37-.02,2.67-.53,3.97-.53,5.82,0,11.87.34,16.67.26,1.64-.03,3.2-.24,4.76-.26,12.74-.24,25.15.5,37.57-.27,3.45.87,9.34-.51,12.7,1.06,6.11-1.26,12.28-.22,19.05.27,4.8.35,10.34,0,14.55-.27,6.62-.42,14.24-.51,19.31-.53,3.98-.01,9.33.35,12.43-.53,2.55.78,5.92-.27,8.73-.27,2.09,0,4.31.91,6.61.79,1.05-.05,2.1-.5,3.17-.53,4.08-.13,8.57.53,12.96.53s8.91-.51,12.43-.53c2.35-.01,5.54.93,6.09-2.38.31-1.46-2.16-.13-1.85-1.59.59-5.11,1.22-11.46,1.06-16.42-.02-.7-.55-1.42-.53-2.12.04-1.05.49-2.1.53-3.18.09-2.53-.26-5.15-.26-7.68,0-6.67.59-13.45.26-20.12-.05-1.09-.48-2.11-.53-3.18-.18-3.86.42-8.06.53-12.18.22-7.96-.08-15.89.27-23.83.23-5.44-.35-10.79.79-15.36-.6-4.85-.99-10.67-.79-15.89.15-4.13-.13-8.23,0-12.18.04-1.26.48-2.44.53-3.71.09-2.5-.69-5.15.26-7.68-.52-5.84-1.07-11.99-1.06-18,0-2.74.97-5.37,0-7.94,1.25-2.85.44-5.8.27-8.47-.21-3.36.15-6.86.26-10.33.27-8-.98-16.29-1.32-24.36-1.29-.11-1.25-1.13-1.32-1.85-.02-.16-.04-.31-.27-.26-.01.34-.34.37-.26.79Zm3.7,15.36h.53v-.53h-.53v.53Zm.53,96.64h.53v-1.06h-.53v1.06Z"/>
  <path class="cls-3" d="m203.19,13.1h.79v.79h-.79v-.79Z"/>
  <path class="cls-3" d="m163.77,103.91c.45-.1.5.2.53.53-.22-.05-.25.1-.26.26-.31-.04-.22-.48-.27-.79Z"/>
  <path class="cls-3" d="m198.42,142.84c.7-.08.87.37.79,1.06-.55.11-.7-.18-1.06-.27.14-.21.28-.43.26-.79Z"/>
  <path class="cls-3" d="m89.95,172.23h.53v.53h-.53v-.53Z"/>
  <path class="cls-3" d="m215.88,7.8c.86.64.94,2.06,1.85,2.65.02,4.82-.02,9-.26,14.3-1.15.19-1.18-.76-2.12-.79-.07,1.72,1.77.83,2.12,1.59.39,2.5-.47,3.76-1.06,5.3.07.93.99-.66,1.06.26-.01,9.61-.67,17.64,0,25.68-.16.9-.72,1.39-.79,2.38.97,6.48.58,15.8.53,21.71-.42-.88-.8-.15-1.85-.27.02,1.1,1.26.96,1.59,1.06.93,7.1,1.06,13.75,0,19.86.37.95.29,2.36.79,3.18.1,16.95.37,34.2.53,53.22.17,1.05-.7,1.06-.53,2.12,1.33,3.64.05,7.28,0,10.86-.02,1.34.5,2.63.53,3.97.08,3.6-.21,7.3-.26,11.12.81,2.35.77,6.91,0,9.27-.39,4.67.29,9.76.53,15.09.09,1.93-.25,3.74,0,5.3.21,1.32,1.02,1.8.79,2.91-3.12.3-4.77-.88-6.35-2.12-2.38.17-3.31-1.1-5.03-1.59-1.62-1.83-4.43-2.45-5.03-5.3h-1.59c-.96-1.96-2.88-2.95-4.23-4.5-.3-.85-.72-1.57-.79-2.65-1.65-1-3.16-2.13-4.23-3.71v-2.12c-.7-1.33-1.95-2.11-2.38-3.71-1.47-1.14-3.04-4.1-1.32-6.09,2.47,1,5.62,2.69,8.47,1.06,1.37-2.34,4.36-3.05,6.61-4.5,1.62-2.88,4.53-4.47,4.23-9.27,2.82-1.83,3.59-7.36,1.85-11.12-1,.33-1.11,1.54-1.59,2.38-1.83.29-2.35,1.88-3.97,2.38-.05,1.27-.89,1.76-1.32,2.65-2.69.52-4.69-.39-6.08-1.85.24-2.58,1.58-4.07,2.38-6.09,2.73-1.95,6.08-3.27,7.14-6.88,1.4-.63,2.36-1.7,3.7-2.38,1.18-2.87,2.49-5.63,2.91-9.27-.64-.86-1.34-1.66-2.91-1.59-1.1,1.02-1.62,2.62-2.38,3.97-2.92,2.9-6.97,4.67-10.58,6.88-.86.99-1.83,1.88-2.65,2.91-5.7,2.15-8.47,7.23-11.38,12.18.27,2.48,1.05,7.02-.79,9.27.04,1.2.56,1.92.79,2.91-.19,2.62,1.23,5.32,1.59,8.21.09.62.82.59,1.06,1.06,1,3.32,2.35,6.29,3.17,9.8,1.92,3.29,5.21,5.2,7.14,8.47.99.69,3.22,1.54,2.65,2.91-.52,1.27-2.48-.25-3.97.27-.83-.58-1.67-1.16-2.38-1.85-5.2-.71-8.26-3.56-11.64-6.09-3.58-.56-5.5-2.79-7.41-5.03-6.74-2.87-11.01-8.22-16.67-12.18-1.57.89.03,2.54.53,3.18,1.41,1.8,4.59,3.43,6.08,4.77.05,1.36,1.44,1.38,1.32,2.91,1.88.57,2.99,2.15,4.5,3.18,1.78,1.22,3.54,3.34,5.56,4.5,1.87,1.08,4.06,1.53,6.08,2.65.43.54.86,1.08,1.06,1.85,5.42,2.26,10.9,4.45,15.87,7.15,3.13.31,5.65,1.23,8.47,1.85,1.65.21,2.76-.66,3.7.26-.93,1.01-2.52.45-3.7.53-2.84.19-5.63.53-8.99,0-3.12-.49-5.91-2.98-8.73-2.12-1.57-.36-2.59-1.53-3.97-2.12-.99-.43-2.86-.6-3.44-.79-1.39-.47-2.31-1.11-3.44-1.32-1.18-.23-2.29.05-3.44-.26-2.23-.62-4.05-2.76-6.61-2.12-1.76-1.95-4.79-2.62-6.88-4.24h-1.85c-4.14-3.89-11.66-4.39-15.34-8.74-3.66-.05-5.08-2.33-7.14-3.97-2.2-.09-3.43-1.16-4.5-2.38.59-2.15,3.15-1.31,4.76-1.59,3.7-.63,7.49-2.67,10.85-3.71.85.04,2.03-.26,1.85.79.86-.64.8-2.2,1.32-3.18,1.81.57,3.05-.66,4.5-1.06,1.47-.41,3.29-.31,4.76-.79.68-.22,1-1.03,1.85-.79,1.06-1.94,2.04-3.96,3.17-5.83,2.77-.31,4.44-1.74,6.35-2.91.22-.93.7-1.59.79-2.65,1.55-.39,1.81-2.07,3.18-2.65,1.06-3.08,3.39-4.9,5.82-6.62,1.47-1.79,2.74-3.78,4.76-5.03.71-2.38,2.41-3.77,2.38-6.88.86-.73,1.64-1.54,2.65-2.12.71-1.67,1.8-2.97,2.91-4.24-.13-2.46,1.09-2.97.79-5.03,3.03-4.47,2.24-12.76,3.44-19.06.31-1.01.97-1.68,1.32-2.65-.13-3.62-.49-6.66-.27-9.8.15-2.11,1.19-3.94,1.06-5.83-.2-2.84-2.14-5.83-2.38-9-.18-.97-1.58-.71-2.12-1.33.57-1.47-.41-2.87.27-4.24-1.45-2.08-2.01-5.05-2.64-7.94-1.64-1.98-2.37-4.86-2.91-7.94-1.04-2.05-2.8-3.38-3.17-6.09-1.02-.83-1.53-2.18-2.65-2.91-.19-.6-.23-1.35-.53-1.85-1.46-1.22-1.97-3.07-3.17-4.77-.28-.4-1.01-.61-1.32-1.06-1.44-2.07-2.3-4.68-3.97-6.35-.64-.64-1.71-.71-2.38-1.32-1.49-1.37-1.95-4.23-4.5-4.24-.81-3.69-5.2-3.8-6.62-6.88-2.22-.25-3.49-1.45-5.29-2.12-.84-1.63-2.81-2.13-3.17-4.24-1.26.07-1.93-1.35-2.91-1.85-.91-.46-2.35-.62-3.44-1.06-1.07-.43-1.96-1.26-2.91-1.59-.66-.23-1.65-.02-2.38-.26-.47-.16-.9-.7-1.33-.79-1.41-.33-2.82-.04-4.23-.27-1.29-.2-2.69-.7-3.97-1.06-1.89-.53-2.79-.92-5.29-1.32-.63-.1-1.03-.68-1.59-.79-2.74-.56-6.39-.73-9.26-.53-.76.05-1.59.51-2.38.53-1.32.03-2.57-.6-3.97-.79-2.09-.29-4.31.28-5.82-.8-3,.61-5.86,1.37-8.73,2.12-.78.65-1-.96-2.12-.79-2.14,1.34-4.94.72-7.67,1.06-1.15.14-2.3.87-3.44,1.06-3.54.61-7.37.16-10.05,2.12-3.77.03-6.51,1.07-8.73,2.65h-1.85c-4.4,2.57-8.69,5.25-13.76,7.15-1.6,1.05-2.81,2.49-4.76,3.18-.78.72-1.24,1.76-1.85,2.65-4.27,1.2-5.8,5.13-9.52,6.88-1.49,3.36-3.76,5.95-5.03,9.53-2.88,3.2-4.66,7.52-6.88,11.39.09,2.38-1.06,3.53-1.85,5.03.04,3.62-1.44,6.23-2.12,9.79.31,4.1-.58,7.01-.53,10.86-.24,1-1.35,1.12-1.32,2.38.06,1.52.88,2.54,1.06,3.97.32,2.67-1.01,5.45.26,8.21-.37.87-.71,1.76-.79,2.91.52,2.62,2.23,4.81,2.38,7.68.07,1.4-.46,2.83,0,4.24.24.75,1.03,1.04,1.32,1.85.64,1.77.2,3.96.53,5.56.23,1.15,1.28,2.11,1.59,3.18.19.65-.1,1.41,0,2.12.46,3.25,1.92,6.19,3.44,8.47v2.65c.39,2.12,2.3,3.28,3.44,5.03,1.15,1.76,1.56,4.08,2.91,5.83.17.22.63.31.79.53,1.13,1.58,2.25,3.4,4.23,4.5,1.22,2.4,2.82,4.42,3.97,6.88.71.35,1.31.8,2.12,1.06,2.3,2.82,5.73,4.5,8.2,7.15.72,1.31,1.74,2.31,2.91,3.18.89.33,1.4-1.04,1.85-.26,2.15,1.64,5.05,2.54,7.14,4.24.84.22,1.95.17,2.65.53,2.14.86,3.74,2.26,5.56,3.44,3.33.64,5.63,2.31,8.99,2.91,1.77,1.85,4.31,2.93,7.14,3.71.46.96,1.38,1.45,2.12,2.12-.53,1.12-1.31,1.3-.79,2.91,1.78.37.51-2.32,1.85-2.38,5.93,2.09,11.72,4.34,17.2,6.88h2.12c4.84,3.72,11.45,5.67,16.14,9.53,2.66.52,4.45,1.9,6.08,3.44,3.92.93,8.41,1.3,10.85,3.71-.72.97-2.1.24-3.17.26-6.04.15-11.99.67-17.46.26-.69.16-.95-.11-.79-.79-1.04-.16-.68,1.09-1.32,1.32-1.84.16-3.31-.04-4.23-.79-2.65.08-5.35.61-7.14-.79-.97.4-1.53-.18-1.85,1.06-12.8-.14-22.91-1.64-35.19-.79-.72.19-.53-.53-1.06-.53-2.85,1.38-5.93.1-9.26,0-3.42-.11-7.1.76-10.58.53-3.8-.25-8.51-.25-12.43-.79-3.46.64-7.94.61-12.17.26-4.83-.4-10.06.72-14.82-.53.29-1.92.43-3.69.26-5.83-.65-8.48.17-17.64-.26-26.21-.72-13.98-.5-29.41-.53-43.95,0-2.36.16-4.8.27-7.15.49-10.84.05-21.77-.27-32.57-.26-8.94-.26-17.56-.26-27.01,0-4.96-.64-9.92.26-14.83-.07-.81-.57-1.19-.79-1.85.86-10.86.98-20.42.79-31.51-.15-1.09-.76-1.71-.79-2.91,1.35-3.82.08-9.45,1.85-13.24,1.7-.68,4.25-.51,6.35-.79.59.47,1.63.49,1.32,1.85.55-.07.07-1.16.53-1.32,1.04-.15,1.53.23,2.12.53,5.18-1.52,11.06-.94,16.4-1.06,8.23-.19,16.48-.51,24.08.53,5.68-.86,13.09-.21,19.31.53,5.53-.22,10.99-.24,16.67-.27,1.47,0,2.94-.49,4.5-.53,2.27-.05,4.76.96,6.88-.26,1.56,1.1,3.36.36,5.56.53.5.04,1.1.61,2.38.53,1.01-.06,1.68-.65,2.65-.79,1.9-.29,3.71.43,5.82.53,1.35.06,2.98-.22,4.5-.26,1.5-.04,3.06.09,4.5,0,.63-.04,1.2-.44,1.85-.53,2.28-.3,4.65.64,6.88.53.83-.04,1.52-.43,2.38-.53,7.92-.94,16.99.4,24.6-.53,2.23-.27,4.42.33,6.62.26.74-.02,1.39-.47,2.12-.53.64-.05,1.03.47,1.85.53,1.14.08,2.64-.83,3.7.26,1.25-.51,3.07-.46,4.23-1.06,2.33-.19,5.02.3,6.61,0,.69-.07,1.14.1,1.06.79,1.79-.93,4.63-.16,6.88-1.06.81.52,2.39.25,3.18.79.92-.32,1.77-.7,2.65-1.06,1.53.41,3.13.75,5.03.79,1.02-.04,1.04-1.07,1.85-1.32h1.06Zm-8.47,3.18c1.19.13.87-1.39,0-1.32v1.32Zm-17.73.79c-.41-.8-1.56-1.14-2.38-.79.16.55-.33,1.74.26,1.85.17-.23,1.57.7,2.38,0-.03,1.45,2.28.54,3.44.79-.51-1.92,1.57-1.26,1.06-3.18-1.29-.23-1.23.89-2.12,1.06-.46-.24-.58-.83-.53-1.59h-.79c-.1.95-.43,1.69-1.32,1.85Zm15.34-1.59c-.27.8.59.47,1.06.53v-.79c-.46-.02-.82.06-1.06.26Zm-8.46,5.29c.42-1.04-1.14-.09-1.06-.79.52-1.16,1.7-1.65,2.91-2.12-.36.34-.36,1.25,0,1.59.85.06,1.12-.47,2.12-.27.23-.65.62-1.15.53-2.12-1.46-.36-1.96-.12-3.18.26-.25-.28-.97-.08-.79-.79.47-.06,1.32.27,1.06-.53-.75-.61-1.04.92-2.38.53-.87.71-.68,2.5-1.06,3.71,1.04-.25.67.92,1.85.53Zm-41.8-2.65h1.06c.36-.34.46-1.58-.26-1.59-.45.34-.72.87-.79,1.59Zm48.15-.53c.21,1.97-1.25,2.28-2.38,2.91.08,1.15,1.45,1.02,2.65,1.06.43-.45.57-1.19,1.06-1.59,1.44.75,3.04-1.85,2.64-2.91-.61.67-1.55-.55-2.38-.53-.41.47-.44,1.33-1.59,1.06Zm11.38-.53c.6-.19,2.06.48,1.85-.53-.69.1-1.45.14-1.85.53Zm-174.35,0c0-.27-.46-.33-.53,0,.3-.03.41.39.53,0Zm143.66.79c.07-.36-.16-1.03-.26-.53-.07.36.16,1.03.26.53Zm-7.94.79c.7.08.68-.55.79-1.06-.34-.02-.37-.34-.79-.27v1.32Zm35.72.8c.8-.26,1.42-.7,2.38-.8-.14-1.93-2.8-1.36-2.38.8Zm-24.87-1.85c-.2.06-.52,0-.53.26.2-.06.52,0,.53-.26Zm-37.3,1.32c-.54-.08-.7-.53-1.06-.79-.89.69.94,1.88,1.06.79Zm11.64.26c-.08.62-.42.99-.26,1.85.51.37,1.07.7,1.85.79.86-.75,1.11-3.39-.53-3.71.19,1.13-.55,2.12-1.06,1.06Zm-111.65,2.65c-3.02-.77-5.75-1.83-9.26-2.12.41-.94-.9-.16-.79-.79-5.25-.87-8.93,1.04-13.49,1.06-2.3,1.32-4.67,2.56-6.88,3.97-.89,1.84-1.88,3.6-2.65,5.56.14,2.88-1.15,4.32-1.85,6.36.68,1.64-.14,2.85-.26,3.97-.37,3.27,1.89,6.39.79,9.8.61,1.33.5,3.38.79,5.03,1.9,1.72,2.25,4.99,5.29,5.56.71-.88.83-2.35.79-3.97-1.04-3.55-2.17-7.01-3.17-10.59-.2-.9,1.08-.34.79-1.32-.39-.23-1.02-.21-.79-1.06.75-1.98-.58-6.05,1.06-7.15,1.61.59,1.79,2.62,2.65,3.97,4.51,1.38,8.42.49,10.32-2.65,2.9-1.6,5.03-3.97,6.61-6.89-1.54-.75-4.21-.38-5.03-1.85-.25-5.36,6.79-6.38,10.85-4.24,2.23-2.69,6.69,2.86,8.2,0-1.05-1.15-3.25-1.16-3.97-2.65Zm105.56.53c1.64-.13,2.35-1.17,2.65-2.65-.37-.51-.98-.79-1.59-1.06-.41,1.07-1.92,2.21-1.06,3.71Zm53.44-1.85c.36-.34.26-1.15.26-1.85h-.79c-.56.59-.19,1.74.53,1.85Zm-150.8.79c1.18.26,1.51-2.11.53-2.38-.78.17-1.12,1.66-.53,2.38Zm29.63-2.38c-.21.06-.52,0-.53.26.2-.06.52,0,.53-.26Zm-20.63,1.85c.35.38,1.5.38,1.85,0v-1.32c-.86-.67-2.19-.04-1.85,1.32Zm73.28,0c1.01-.54,1.59.04,1.06,1.06.83.12.85-.57.79-1.32-1.22.16-.93-1.19-2.12-1.06-.08.61.04,1.02.27,1.32Zm54.5,40.51c1.8-2.34,5.2-3.09,7.67-4.77,1.08-1.93,2.35-3.65,4.23-4.77.8-2.11,1.14-4.68,2.91-5.82-.6-2.55.64-5.29.26-8.47-.53-1.5-1.26-2.8-2.12-3.97-.04-2.88-1.9-3.93-3.17-5.56-2.74-.35-3.31-3.67-6.35-2.91-1.36-1.38-2.83-2.64-5.56-2.65-.77-2.19-4.16-.7-6.35-1.32-1.03-.29-1.25-1.05-2.38-1.06-.06.38-.44.45-.53.79-2.37.47-4.78,0-6.88-.53-.44.53-.71,1.23-1.59,1.32-.92.21-1.02-.39-1.85-.26-.65.52-2.18,1.19-2.91.79-2.3,2.11-5.13,3.7-7.94,5.3-.7,1.46-2.64,3.47-1.32,5.3,2.47-.36,2.2-3.45,5.82-2.65.74-.4.58-1.72,1.32-2.12,1.71-.65,3.3-.16,5.03-.53.88-.19,1.67-.85,2.65-1.06.94-.2,2.09-.03,2.91-.26.77-.22,1.11-.81,1.85-.79,1.42.02,2.31.77,3.44,1.59,2.5.3,6.2,1.52,8.2,3.18.46,1.13.2,2.98.26,4.5-2.95,2.1-5.79-.74-9-.79-1.17,5.6,3.85,7.26,4.76,11.65,3.14.91,7.06,1.06,9.26,2.91.95-.55,1.61-1.39,2.64-1.85,1.06.27,1.9.74,2.12,1.85-.58,1.45-1.89,2.17-2.38,3.71-2.71.99-2.91,4.5-6.35,4.77.07,1.84-1.22,2.31-2.12,3.18-1.34.83-2.76.02-3.17,1.59,2.23,1.62,3.99-1.57,6.61-.27Zm-2.91-40.51h.53c.29-.38.28-.64-.26-.79-.02.34-.34.37-.27.79Zm-135.98-.53c-.21.06-.52,0-.53.27.21-.06.52,0,.53-.27Zm155.03,1.85c.36.08.5.38,1.06.27.36-.34.46-1.58-.27-1.59-.08.62-.92.49-.79,1.32Zm2.38-1.06c-.64.89.89-.64,0,0h0Zm2.91,3.97c0-.98-1.65-.3-1.59-1.32.34-.37,1.25-.16,1.59-.53-.32-1.14,1.12-2.04,0-2.38.26,1.57-1.32.97-1.85.53-.12,1.03-1.21,1.09-1.85,1.59.05,1.4.17,1.35,0,2.65h1.32c-.09-1.91,1.48-.59,2.38-.53Zm-88.36-3.71c.31,1.05.31-1.05,0,0h0Zm20.9,3.44c.85-.57,1.55-1.27,2.65-1.59v-1.59c-2.32-1.66-5.43,1.8-2.65,3.18Zm56.09-3.18c-.01.37.12.58.26.8.7.08.87-.37.79-1.06-.46-.02-.82.06-1.06.26Zm-8.73,0c-.21.06-.52,0-.53.26.21-.06.52,0,.53-.26Zm13.49,2.12c-.04-1.67-3.15-1.75-3.44-.26,1.46.12,1.17,2,3.17,1.59-.05-1.56,1.64.25,1.32-1.59-.5-.06-.58.3-1.06.26Zm-147.36,1.06c.5.55.72,1.4,1.85,1.32.58-.65.7-1.77.79-2.91-1.33-.86-2.78.13-2.65,1.59Zm97.36-1.59c.31,1.05.31-1.05,0,0h0Zm55.82,3.44c.14-.39.39-.67.53-1.06-.55.16-1.74-.33-1.85.26.41.3.55.86,1.32.79Zm-2.91.26c-1.18.15-1.4,1.24-1.32,2.65,2.15,2.13,4.46-1.87,1.32-2.65Zm-156.09.53c.31,1.05.31-1.05,0,0h0Zm98.68,1.85c.83.12,1.18-.23,1.06-1.06-.73-.82-1.88.33-1.06,1.06Zm-108.21,2.38c1.73-.03,2.43-1.1,2.38-2.91-2.51-1.27-3.97,1.26-2.38,2.91Zm124.35.79c1.97.85,3.69-.68,3.97-2.38-1.63-1.88-3.87.34-3.97,2.38Zm-1.85-1.06c.95.16,1.28-.31,1.85-.53-.15-.38.31-1.37-.27-1.32.03,1.17-1.37.92-1.59,1.85Zm7.94.53c1.01.63,1.27.36,2.65.53.32-.74.29-1.83.26-2.91-1.97-.21-3.34.19-2.91,2.38Zm30.95-2.12c.31,1.05.31-1.05,0,0h0Zm1.85,2.38c.04-.66.05-1.29-.53-1.32-.3.78-.16.98.53,1.32Zm-.53-2.12c-.04.31-.42.29-.79.27v.53c.18.82,1.62-.62.79-.79Zm-21.69,1.59c.79.32,1.14-1.12.53-1.32.2.81-.72.51-.53,1.32Zm23.81,1.06c.04-.49.9-.16,1.06-.53-.15-.47-.13-1.1-.53-1.32.61,1.25-1.13,1.49-.53,1.85Zm-55.56-.53c1.34-1.07-.92-1.24,0,0h0Zm56.35,3.44c.96.06,1.46-1.69,2.12-1.06.12.76-1.64.98-.8,1.59.24-.46.93-.48,1.32-.79-.23-1.18.03-2.85-1.32-2.91-1.27.53-1.75,1.58-1.32,3.18Zm-46.83-1.59c.2.75,1.27,1.51,1.85,1.06.21-1.32-.92-1.3-.26-2.38-.75.22-1.34.6-1.59,1.32Zm9-.26c.07-.36-.16-1.03-.26-.53-.07.36.16,1.03.26.53Zm-.53,2.38c1.36.4,2.39,1.13,2.91,2.38.16-1.51,1.37-1.99,1.32-3.71-2.19.5-4.48-1.82-4.23,1.33Zm42.33-.79c.74-1.27-.87-.64,0,0h0Zm-45.5,3.44c.69-1.12.59-1.96,0-3.18h-1.59c-.56,1.2-.56,3.84,1.59,3.18Zm45.24-2.38v-.53c-.49-.88-1.29.79,0,.53Zm-2.38,1.59c0-.27-.46-.33-.53,0,.06.32.29.16.53,0Zm-39.15,4.24c.97.17,1.01-.57,1.85-.53.4-1.81-1-1.82-.79-3.44-.44,0-.88,0-1.32,0,.68,1.29-1.02,2.78.26,3.97Zm38.63-.26c.81-.19.78.46,1.59.26.18-1.01-1.08-1.28-.26-2.12-.99.28-.42-.99-1.32-.79-.06.83.18,1.94-.27,2.38l-.13.13.13.13c-1.27.4.14,1.11-.53,1.32-.55-.57-.9-.01-1.06.53,1.6-.19,1.27,1.55,1.85,2.38-.22.23-.73.16-.8.53.67.21.67,1.09,1.06,1.59,2.17.47,1.98-3.26,1.32-3.97.18-.53,1.58.17,1.32-.79-.86.15-1.23-.18-1.85-.26.28.67-.89,1.17-1.06.53-.27-1.85-.13-1.72-.13-1.72l.13-.13Zm-32.28,2.91c.57-.96.98-2.94.27-3.71-2.94-.5-3.65,4.08-.27,3.71Zm8.2,4.24c.68-.66.28-1.99-.26-2.38.01.58-.02,1.52.26,2.38Zm-6.61,2.12c.34-1.01,1.06-2.47.26-3.71-3.07-.7-2.43,4.77-.26,3.71Zm2.12-1.32c.96.15,1.43-.02,2.38.53-.12-.83.71-.7.79-1.32-.8-.58-3.44-1.13-3.18.79Zm26.19,0c.34-.35.35-.98-.26-1.06.05.4-.09.98.26,1.06Zm-19.58.79c.12-.5.57-.67.53-1.32h-.79c.14.38-.31,1.37.26,1.32Zm24.34-.27v-.79c-.31.04-.75-.05-.79.26.42.02.21.68.79.53Zm-190.22.79h.53c0-.27.21-.31.26-.53-.34-.02-.37-.34-.79-.27v.79Zm183.08-.26c.31,1.05.31-1.05,0,0h0Zm2.91.53c-.26,1.67.92,1.91,1.85,2.38.22-.66.72-1.04.79-1.85-.59-1.39-1.47-1.41-2.65-.53Zm-20.63,1.32c.55-.86,1.1.68,1.59.53.9-.29,1.01-1.5,0-2.38-.57.58-1.97.32-1.59,1.85Zm18.78-1.06c-.21.06-.52,0-.53.27.21-.06.52,0,.53-.27Zm-25.4,3.18c1.22.01.96,1.51,2.38,1.32.39-.14.67-.39,1.06-.53-.04-1.9-.8-3.09-2.12-3.71-.7.71-1.15,1.68-1.32,2.91Zm26.19-1.32c.13-.34.28-.55.53-1.33h-.79c.37.76-.82,1.45.27,1.33Zm-1.32-.79c-.23-.2-.75.16-.79.26-.38,1.01,1.32.19.79-.26Zm-1.59,3.44c.72,1.23-.52,1.66-.26,3.18,2.12.23,2.54-3.82,1.32-4.5.11.9-.08,1.51-1.06,1.32Zm-18.25,0c.02-.46-.2-.68-.53-.8.02.42-.04.92.53.8Zm22.49,1.85c.91-.03,1.9-.14,2.12.53,1.21-1.55-2.29-2.82-2.12-.53Zm-1.59,1.06c.02-.16.04-.31.27-.27-.03-.32-.08-.63-.53-.53.04.31-.05.75.26.79Zm-9.52.26c.53.44.34-.02,1.06,0v-.79c-.66-.04-.83.41-1.06.79Zm11.91-.79c-.2.06-.52,0-.53.26.21-.06.52,0,.53-.26Zm-10.58.79c-.22,1.57.15-1.06,0,0h0Zm11.64,2.91c-.01-.37.12-.58.26-.79-.34-.02-.37-.34-.79-.27-.08.6.06,1,.53,1.06Zm-10.85.79c.03-.5.88-.18.79-.79-.46-.07-1.57.5-.79.79Zm7.94,1.85c1.6.97,2.92-.36,2.38-2.38-1.57-.36-2.42.49-2.38,2.38Zm-13.76-1.06c.62.54,1.95.19,1.59-1.06-1.12-.24-1.33.43-1.59,1.06Zm9.52,1.32c1.13-.06,1.29-2.03.26-2.12-.31.52-.87,1.48-.26,2.12Zm-194.19.79c.09.97-.23,2.34.26,2.91,1.95,1.23,6.03,1.21,6.08-1.59-.6-2.38-4.03-1.85-6.35-1.32Zm179.37-.26c-.22,1.57.15-1.06,0,0h0Zm3.44,2.12c-.77,1.11-2.28.73-3.18,2.12.43,2.58,3.55,1.25,5.56,1.85.29.83.02.6,0,1.59,2.41,1.3,3.79,3.62,4.76,6.35-.14,2.35.05,3.89,0,6.62.36.87.69,1.78,1.06,2.65-.17,2.56.82,3.95,1.85,5.29,2.21.46,3.27,3.4,6.09,2.38-.2-2.51-2.94-3.99-3.17-6.09-.14-1.28.9-2.8,1.06-4.24.19-1.7.05-4.45,0-6.62-.09-4.1-1.28-5.45-2.91-7.68h-2.38c-1.41-.97-3.01-1.75-5.29-1.85-.89-.7-1.6-1.58-2.91-1.85.66-.64,1.15-1.91,0-2.38-.96.11-.18,1.78-.53,1.85Zm16.67-1.59c-.34-.01-.37-.34-.79-.26-.41.65.9.78.79.26Zm-.53,2.91c-.34-.01-.37-.34-.79-.26-.41.65.9.78.79.26Zm1.06,1.85c-.16-.55.43-1.84-.53-1.59.16.55-.42,1.84.53,1.59Zm-4.76.26c.82.56,2.72.37,2.38-1.06-1.15,0-1.83.46-2.38,1.06Zm2.91,1.32c.45.01.68-.2.79-.53-.42.03-.92-.04-.79.53Zm3.17,1.06c-.79.1-1.34.42-1.85.79.11.86-.35,2.29.53,2.38.8-.26,1.07-1.04,1.85-1.32-.46-1.13.63-2.71-.53-3.44-.49.47.21.67,0,1.59Zm-.79,4.77c.07-.69-.1-1.14-.79-1.06.11.51.1,1.14.79,1.06Zm2.12.53c-.24-.46-.09-1.32-.53-1.59-.35.79-.23,1.31.53,1.59Zm-3.71.79c0-.27-.46-.33-.53,0,.06.32.29.16.53,0Zm.53,1.32c.92,0,.87-1.06.27-1.32-.22.31-.35.71-.27,1.32Zm-198.95.79c-.06-.47.27-1.33-.53-1.06-.08.61.06,1,.53,1.06Zm199.48,1.06c-.13.52.38,1.69.53,1.06-.02-.34-.34-.37-.27-.79.31-.13.6-.28.8-.53-.5-.06-.59.3-1.06.26Zm.53,2.38c.21.06.31.22.26.53h1.59c-.11-.45.39-.68,0-.79-.13.36-1.48-.86-1.85.26Zm-.79,2.65c.22-.57.68-.9.53-1.85-.5.06-.58-.3-1.06-.27.08.8-.29,2.06.53,2.12Zm2.12,2.38c-.21.06-.52,0-.53.26.21-.06.52,0,.53-.26Zm1.06,7.41c.15-.55.66-.75.53-1.59h-.79c.23.94-.68,1.37.26,1.59Zm-6.35,2.12c0-.53.72-.34.53-1.06-.67-.28-1.17.89-.53,1.06Zm3.44,5.82c-.04-.57.94-.12,1.32-.26.43-.85.22-1.76-.26-2.38h-1.32c-.44.58-.42,2.39.26,2.65Zm-7.41.79c.67.41.89,1.07,1.85.53.09-1.15-.36-1.75-1.06-2.12,0,.79-.69.9-.79,1.59Zm10.32-1.06c-.28,1.54,1.15.11,0,0h0Zm-5.29,6.09c.78.15,3.41.13,3.44-1.32-.75-2.24-4.35-2.5-3.44,1.32Zm-5.29,1.59h1.32c.37-.8.39-1.92-.53-2.12-.42.55-.53,1.41-.79,2.12Zm3.17,1.06c0-.27-.46-.33-.53,0,.3-.03.41.39.53,0Zm2.65,0h-1.59c-.29,1.48,1.53.55,1.59,0Zm-.53,2.65c-.08.62-.42.99-.26,1.85.46.72,2.18.72,2.65,0-.1-.96.1-2.21-.79-2.38-.24.46-.83.58-1.59.53Zm-5.56,14.03c2.62,2.84,3.75,7.19,5.29,11.12,1.59.44,1.17,2.89,3.17,2.91,2.47-.89.9-4.98,1.85-6.88-.96-.89-1.59-2.11-2.65-2.91-1.22-3.02-2.86-5.61-4.76-7.94-.8-1.93-1.35-4.12-2.12-6.09-.06-.21-.22-.31-.53-.27-1.51,3.09.09,6.88-.26,10.06Zm-191.81-6.88c.06-.21.22-.31.53-.26.08-.69-.1-1.14-.79-1.06-.34.31-.11,1,.26,1.32Zm198.16-.53c-.16,1.04.23,1.54.53,2.12,1.58.17,2.06-.76,2.12-2.12-.83-.5-1.59-.46-2.65,0Zm4.5,3.71c.64,1.36.68-.91,0,0h0Zm-1.59,1.85c-.25.22-.56,1.69,0,1.85-.63-2.05,2.24-.58,2.12-2.12-.63.16-1.21.38-2.12.27Zm-201.07,1.59c.61-.09,1.24-.17,1.06-1.06-.83-.12-1.18.23-1.06,1.06Zm189.16,3.71v1.85c1.57.5,2.01-1.5,1.32-2.38-.07.55-1.16.07-1.32.53Zm-188.63,3.44c.5-.06.58.3,1.06.26.36-.34.36-1.25,0-1.59h-.79c-.22.31-.35.71-.27,1.32Zm191.02,2.65c.12.76.31,1.46,1.06,1.59.44-.47.39-1.94-.53-1.85-.06.21-.22.31-.53.26Zm-3.97,2.91c.59-.47.96-1.16.79-2.38-1.69-1.02-2.5,2.03-.79,2.38Zm2.64,3.97c.34.45.55,1.04,1.32,1.06.76-.47,1.31-1.16,1.59-2.12-.62-1.61-2.96-.88-2.91,1.06Zm-4.76,1.32c-.13.83.81.6.53,1.59.8-.43,1.85-.62,1.85-1.85-.14-1.12-2.54-1.11-2.38.26Zm17.73-.53c.31,1.05.31-1.05,0,0h0Zm-197.89,2.65c.47.7,1.92.7,2.38,0-.06-1.17-.19-2.28-1.32-2.38-.95.2-1.15,1.14-1.06,2.38Zm-4.23,1.59c.19-.78.79-1.15.53-2.38h-1.06c-.52.65-.35,2.31.53,2.38Zm182.28,1.59c.07-.36-.16-1.03-.26-.53-.07.36.16,1.03.26.53Zm-178.58,1.06v-1.32h-1.06c-.11.91.08,1.51,1.06,1.32Zm5.29,2.38c-.03-.67-.38-1.03-1.06-1.06-.12.83.23,1.18,1.06,1.06Zm-9.53,1.85c1.26.45,1.46-1.52.27-1.32-.22.31-.35.71-.27,1.32Zm198.42,1.32c.7,0,1.51.1,1.85-.26-.11-.77-.91-.86-1.32-1.32-.21.5-.44.97-.53,1.59Zm-185.46,2.12c.91-.21,1.12.49,1.59,0-.17-.81-.59-1.35-1.59-1.32v1.32Zm-3.97-.26c-.05-.39-.64-.24-1.06-.27-.57.97,1.35,1.2,1.06.27Zm-6.35,2.12c.83.12,1.18-.23,1.06-1.06-.36.01-.58-.12-.79-.26-.22.31-.35.71-.26,1.32Zm-2.65,4.24c.46.02.82-.06,1.06-.26.08-.7-.37-.87-1.06-.8v1.06Zm5.03,1.32c-.44,1.64-2.23,1.93-3.17,3.18-1.32,1.76-1.25,4.22-2.38,6.35.04,1.86.23,6.43-.53,9,.72,2.63,1.77,4.94,2.91,7.15.29,4.04,2.34,6.3,3.44,9.53,3.37,1.57,5.89,3.99,11.38,3.44,1.48.63,2.33,1.9,3.97,2.38,1.99-.66,4.17-1.13,6.61-1.32,1-.77,1.66-1.87,3.7-1.59,4.76-2.47,8.59-5.88,12.44-9.27.09-1.85,1.42-2.46,1.32-4.5.5-1,1.87-1.13,1.59-2.91-.38-.15-.64-.41-.79-.79-4.21,1.26-4.17,6.77-9.26,7.15-1.21,2.46-4.43,6.37-7.94,3.97-.2-1.7,1.58-1.42,1.32-3.18-3.07-2.4-6.64-4.3-9.52-6.88-1.18.21-1.59-.35-2.65-.26-.88-2.47-4.17-2.53-5.29-4.76.26-1.33,1.37-1.8,1.59-3.18-.95-.25-2.66.8-3.7,1.32-.76.37-1.44-.82-1.32.26.96,2.37,3.88,3.66,4.23,6.62.11.91-.17,1.73-.26,2.91-2.04,1.09-6.62.85-7.94-1.06-.33-2.34-1.15-3.63-1.06-5.82-2-2.57-1.61-7.57-1.06-11.39,1.13-1.61,3.05-2.42,3.7-4.5,1.41-.17,1.72-1.46,2.38-2.38.18-.53,1.58.17,1.32-.8-1.89-1.63-2.98,1.42-5.03,1.32Zm15.87,2.12c-3.4.03.14,3.58,0,0h0Zm-8.46,2.12c1.15.82,2.25-.29,1.85-1.85-1.16.08-2.01.46-1.85,1.85Zm-5.03,2.12c1.02.14,1.29-.47,2.38-.26.33-.75.33-1.63,0-2.38-1.6.08-2.56.79-2.38,2.65Zm159,4.24c.43-.43.32-1.66-.53-1.59-.41.4-.47,1.82.53,1.59Zm-146.57.79c.5.06.58-.3,1.06-.26v-1.59c-.5.06-.58-.3-1.06-.26-.39.88-.68,1.3,0,2.12Zm-13.76,0c.57.57,1.48.14,1.85-.26-.23-.65-.24-1.53-1.06-1.59-.25.64-1.06.7-.79,1.85Zm155.3-1.32c-.3.03-.41-.39-.53,0,0,.27.46.33.53,0Zm-151.06,2.65c1.85.35,1.89-1.11,2.12-2.38-1.7-1.13-3.15.83-2.12,2.38Zm190.22-1.85h.53c.41-.65-.9-.78-.79-.26.16.01.31.04.26.26Zm-184.93,2.38c-.14,1.64.51,2.49,2.12,2.38.63-.34,1.08-.86,1.06-1.85-.76-1.1-1.77-1.08-3.18-.53Zm16.93,1.06c-.02-1.12-.62-1.67-1.85-1.59-.19,1.33.55,1.75,1.85,1.59Zm169.58.53c.56-.59.19-1.74-.53-1.85-.65.68.11,1.45.53,1.85Zm-46.56,0v1.32c1.46.94,2.96.32,2.91-1.59-1.11-.61-1.86-.36-2.91.26Zm6.35,1.32c.89.75,1.73.5,2.91.27.3-1.1-.56-1.03-.53-1.85-1.65-.32-2.12.52-2.38,1.59Zm35.19-.79h.53v-.53h-.53v.53Zm-174.35.79c.81-.19.96.27,1.59.27.09-.61-.04-1.02-.26-1.32-.86-.07-1.27.31-1.32,1.06Zm14.02,1.59c.55.15.75.66,1.59.53v-1.32c-.35-.27-.97-.26-1.32-.53.11.64-.48.58-.26,1.32Zm-5.82.53c.09-.97-.96-.8-1.59-1.06-.37,1.25.97,1.6,1.59,1.06Zm119.58,3.18c.8.53,1.79.86,2.91,1.06,3.57-2.02-3.51-6.41-2.91-1.06Zm6.88,1.32c.77.34,1.88.34,2.65,0v-1.59c-.94-1.09-3.35-.56-2.65,1.59Zm35.72.26c.46.72,2.18.72,2.65,0,.33-1.74-1.01-1.82-2.12-2.12-.26.62-.46,1.3-.53,2.12Zm-158.21.27c.66.04.82-.42,1.32-.53.22-.75-.37-.69-.26-1.32h-1.06c-.38.35-.38,1.5,0,1.85Zm162.44,1.06c1.06.46,1.67.64,2.65,0-.04-.65-.04-1.28.27-1.59-.9-.2-.34,1.08-1.32.79-.2-.81.73-.51.53-1.32-.61.08-1.02-.04-1.32-.26-.66.4-.94,1.18-.79,2.38Zm-166.94-1.32c.18-.71-.55-.51-.79-.79-.05.58.22.84.79.79Zm126.46.79c-.96,1.25,1.55.35,0,0h0Zm32.01.79c-.19,1.16.88,1.06,1.85,1.06-.23-.84.23-1,.53-1.32-.85.6-1.75-.23-2.38.26Zm-138.89,7.15c.96,2.55.72,5.66,2.64,7.68.22.75-.37.69-.26,1.32,1.93,2.05,3.58,4.36,5.55,6.35,1.67-.17,2.37.63,3.44,1.06,1.74-.24,2.8.2,3.7.79,1.2-.57,3.4-.12,5.03-.26,3.26-1.5,5.59-3.94,8.2-6.09.31-1.24,1.6-3.85.26-5.03-2.57,1.67-5.08,3.39-8.47,4.24-1.99-.49-3.12.07-4.76.53-1.11-.47-2.33-.84-3.17-1.59-4.49-.1-5.75-3.42-7.94-5.83.04-.65.04-1.28-.26-1.59-.61-.63-1.33-1.14-1.59-2.12-.12-2.17.37-4.95-.53-6.35-.34-.01-.37-.34-.79-.27-1.44,1.79-.48,4.42-1.06,7.15Zm112.17-3.71c-.36-1.16,1.03-.56.79-1.59-.3-.58-.3-1.46-1.06-1.59-.21.71-.72,2.9.26,3.18Zm-24.87-2.38h.53v-.53h-.53v.53Zm.53.79c.67.28,1.51-.56.79-.79.11.63-1.2-.15-.79.79Zm-81.75.79h1.32c.23-1.1-1.32-.81-1.32,0Zm85.45,1.59c.95.07,1.27-.49,2.12-.53,0-.62-.45-.78-.26-1.59-.81.19-.78-.46-1.59-.26-.21.68-.7,1.87-.26,2.38Zm26.46-1.32c.77.39.77-1.18,0-.8v.8Zm-106.88.79c.81-.19.78.46,1.59.27.08-.61-.04-1.02-.26-1.32h-.8c-.14.39-.39.67-.53,1.06Zm131.22,2.12c.25-.54,1.36-.22,1.32-1.06.17-1.23-1.45-.67-2.38-.79-.5.95.07,1.68,1.06,1.85Zm5.29.53c.69-.81,1.51,1.48,2.65.26v-1.06c-.6-.55-3.88-.46-2.65.8Zm-33.6.79c.76.48.83.43,1.85.26-.15-.46.32-1.55-.26-1.59-.18.66-.71-.49-1.32-.27.03.65.04,1.28-.26,1.59Zm21.96-.27c-.08.62-.42.99-.26,1.85.34.37,1.15.26,1.85.26.21-.9,1.28-2.94-.53-2.91.2,1.22-.3,1.08-1.06.79Zm-16.4.27c-.03,1.48.65,1.98,1.85,1.59.36-.34.26-1.15.26-1.85-.76.03-1.73-.14-2.12.27Zm-124.34.26v.79c.38.39,1.73.39,2.12,0,.14-1.09-1.43-1.35-2.12-.79Zm12.7.53c-.32,1.43.82,1.4.27,2.38,1.12-.68,1.59-.14,2.38-.26-.53-.96.03-1.28.27-2.12-1.09-1.19-1.54-.39-2.91,0Zm85.19.79c.19,1.57,1.07,2.46,2.65,2.65,1.11-.3,1.16-1.66,1.06-3.18-.7-.62-3.77-1.12-3.71.53Zm58.2.79v-.53c-.49-.88-1.29.8,0,.53Zm-3.44,0c-.21.06-.52,0-.53.26.2-.06.52,0,.53-.26Zm-133.34,2.65c.81-.16,1.35-.59,1.32-1.59-.29-.06-.41-.29-.53-.53-1.22.15-1.59,1.29-.79,2.12Zm130.7-1.59c-.82.03-.76-.83-1.85-.53-1.56,2.23,1.55,3.03,1.85.53Zm-27.25.53c.77.39.77-1.18,0-.79v.79Zm1.85,0h.53v-.53h-.53v.53Zm-169.32,3.71c.26-1.23-.34-1.6-.53-2.38h1.59c.26-1.24-.46-1.48-1.59-1.32-.39.87-.63,3.55.53,3.71Zm70.64-1.59c.53-.52.17-1.51,0-2.12h-1.59c-.13,1.37.36,2.11,1.59,2.12Zm127.52.53c.42-.73.7-1.6.79-2.65-1.77-.05-1.75,1.85-.79,2.65Zm-10.85-.27c.38.15.65.41.79.79,1.47.24,1.89-.58,2.65-1.06,0-.88-.86-.9-.79-1.85-1.82-.23-2.19.99-2.65,2.12Zm-145.77-1.59c-.03.65-.04,1.28.27,1.59h1.06c.36-.34.26-1.15.26-1.85-.65-.04-1.27-.04-1.59.27Zm110.06,1.32c.08-.36.38-.5.26-1.06h-1.06c-.04.66.41.83.79,1.06Zm-67.99-.26c0-.27-.46-.33-.53,0,.06.32.29.16.53,0Zm-80.16,1.85c-.16.95.31,1.28.53,1.85.81.19.96-.27,1.59-.26.19-.81-.27-.97-.26-1.59-.6-.13-1.35-.53-1.85,0Zm32.54,2.12c.78.37,1,1.29,2.12,1.32.49-.75,1.27-1.2,1.32-2.38-.21-.06-.31-.22-.27-.53-1.55-.77-2.83.34-3.17,1.59Zm9.79-1.32c-.12.85-.51,1.43-.53,2.38.38.41,1.36.23,2.12.26.64-.92.61-2.27-.26-2.91.04.57-.94.12-1.32.26Zm144.98,3.71c1-.2,1.26.32,2.12.26.66-.75,1.07-1.75,1.59-2.65-1.25-.54-3.56.32-3.7,2.38Zm-109.79-1.06c.52.31,1.48.87,2.12.27-.01-1.05-.54-1.58-1.59-1.59-.27.35-.26.98-.53,1.32Zm11.91-1.06c-.02.46.06.82.27,1.06.74-.05,1.12-.46,1.06-1.32-.61-.08-1.01.04-1.32.26Zm104.77,1.32c1.02.55,2.83-.08,3.17-1.06-.86.43-1.64.1-2.38-.27-.08.62-.92.49-.79,1.32Zm-165.88.53c0-.53.72-.34.53-1.06-.67-.28-1.17.89-.53,1.06Zm164.82-.27c.31,1.05.31-1.05,0,0h0Zm-6.35,0c-.21.06-.52,0-.53.27.2-.06.52,0,.53-.27Zm-149.21,1.59h.53v-.53h-.53v.53Zm9.79,1.32c.48.49,1.34.6,2.12.79.01-.87.45-1.32.26-2.38-1.54-.21-2.42.23-2.38,1.59Zm46.03-.8c-.14,1.11.46,1.48.53,2.38h1.85c.77-1.44.44-2.98-1.32-3.18-.26.36-.71.53-1.06.79Zm104.77-.26c.31,1.05.31-1.05,0,0h0Zm-175.14,1.85c.27-.88-.37-.87-1.06-.79-.08.7.37.87,1.06.79Zm20.11.53h.53c.01-.34.34-.37.26-.79h-.79v.79Zm-15.61.79h.79c.07-.69-.1-1.14-.79-1.06v1.06Zm46.56,1.32c.62,0,.78.46,1.59.26.24-.65.62-1.15.53-2.12-1.15-1.44-3.28.19-2.12,1.85Zm-41.8-1.32c.62.08.49.92,1.32.79.21-.5.44-.97.53-1.59-.94-.06-1.58.18-1.85.79Zm46.3.53c.11,1.7,1.8,3.26,3.17,2.12.22-2.04-1.71-3.35-3.17-2.12Zm11.38-.26c0-.27-.46-.33-.53,0,.3-.03.41.38.53,0Zm-72.23.26c.31,1.05.31-1.05,0,0h0Zm33.86,0c-1.36,1.35.19,4,1.85,3.18.59-1.63.06-3.3-1.85-3.18Zm41.54,2.38c.11-.5.76-.48.53-1.32-.31-.22-.71-.35-1.32-.26-.14.94.22,1.36.79,1.59Zm-23.81-1.06c-.8.89.98.8,0,0h0Zm3.44,2.38c.31,1.05.31-1.05,0,0h0Z"/>
  <path class="cls-3" d="m102.39,28.98c2.77-1.8,7.62-1.38,11.11-.53.88.53,1.59,1.23,2.38,1.85,3-.08,4.08,1.74,7.14,1.59.91,1.3,3.04,1.37,3.97,2.65,4.96.51,7.89,3.05,11.91,4.5,1.19,2.7,3.26,4.5,5.82,5.82.53,1.33,1.51,2.19,1.85,3.71,2.74,1.05,3.63,3.95,6.08,5.29,1.15,2.46,1.6,5.63,3.7,7.15.82,3.31,2.55,5.96,3.97,9,1.33,2.86,3.5,5.51,3.97,9,.36,2.69.01,4.31,1.85,5.82-.11,3.2.48,6.11,2.12,8.21v2.91c1.32,2.01.64,4.56,1.32,6.88.02,7.16.82,14.79.53,22.24-.17,4.27-1.92,8.22-2.12,12.18-.6.46-.51,1.61-1.32,1.85.04.84.01,1.6-.53,1.85-.21.92.39,1.02.26,1.85-.5,1.45-1.2,2.69-1.32,4.5-2.2,1.59-2.06,4.62-3.17,6.88-.78,1.57-2.18,3.04-3.18,4.5-.98,1.43-1.89,3.25-3.44,3.97-.83,3.84-4.73,4.62-6.09,7.94-4.12.74-4.6,5.1-9,5.56-2.76,2.53-7.32,3.26-9.79,6.09-2.43-.14-3.69.9-5.29,1.59-3.06.26-6.24.61-9.26,1.32-.89.21-1.76.71-2.64.79-1.33.13-2.3-.38-3.97-.53-4.27-.37-8.84-.04-12.96-.79-2.52-.46-5.07-1.4-6.88-2.65-1.53.21-2.26-.38-3.7-.26-.82-.95-1.74-1.79-1.85-3.44-.66-.4-1.57-.54-1.85-1.32-5.02-.71-6.91-4.56-11.38-5.83-3.08-4.06-7.73-6.56-11.11-10.33-.39-3.34-3.08-5.08-4.76-7.41-1.3-1.81-1.27-4.14-3.17-5.56-.07-2.4-2.03-2.91-2.12-5.29-2.51-1.9-2.98-5.84-5.03-8.21-.03-2.27-.87-3.72-1.59-5.29.96-3.35-1.4-4.97-1.85-7.15-.24-1.16.16-2.63,0-3.97-.09-.77-.66-1.51-.79-2.38-.1-.66.12-1.49,0-2.12-.16-.81-.73-1.64-.79-2.38-.24-2.7.73-5.21-1.06-7.15,1.37-2.77.71-5.3,0-8.47-.36-1.16,1.03-.56.79-1.59-.34-7.04,1.04-10.36,1.59-15.62,1.83-4.17,3.82-8.18,4.76-13.24,2.47-3.37,2.89-7.72,5.03-11.12,1.64-2.61,4.68-4.02,5.82-6.88.48-.58,1.64-.48,2.12-1.06.32-.83.64-1.65,1.06-2.38,2.21-1.85,4.45-3.67,6.35-5.82,1.54.56,2.13-1.21,2.91-.53,1.49-1.33,3.38-2.27,4.76-3.71,5.08-1.53,9.49-3.75,14.55-5.3,2.8.25,4.7-.41,6.35-1.32,3.09.26,6.07.64,7.94,2.12Zm-1.59,7.42c-1.34-.69-1.93-2.13-2.64-3.44-2.57.15-4.42-4.11-6.35-1.32.13,3.64.09,7.58-.26,11.38.9,1.3,1.88,2.53,1.85,4.77,2.11-.32,2.7,3.06,4.5,3.44,1.39.29,2.27-.26,3.44-1.32.39-2.96,1.81-4.89,1.85-8.21-1.42-1.14-2.03-3.09-2.38-5.3Zm4.76-5.03v-.79c-.31.04-.75-.05-.79.26.42.02.21.68.79.53Zm-2.65,2.65c1.33.11-.09.82,0,1.32,1.37.4.73-1.21,1.59-1.32.23.39.4.84,1.06.79.3-.67,1.3-.64,1.32-1.59-1.25-1.07-1.91.38-3.17-.53-.08.62-.92.49-.79,1.32Zm12.17-.27c-2.16,1.29-4.13,2.75-6.88,3.44-.64,1.39-1.49,2.57-1.59,4.5-.9,1.44-3.59,5.23-.79,6.35,1.15-.44,1.73-1.45,2.91-1.85.36-2.2,2.16-2.96,2.38-5.3,2.13-2.72,5.06-4.65,7.41-7.15-.87-.45-2.41-.23-3.17-.79.01.36-.12.58-.26.79Zm-26.72,7.41c-.33-.64-1.33-.61-1.32-1.59-3.67-.9-6.26-3.63-10.58-2.38-2.67,1.21-4.98,2.79-6.09,5.56.36.26.53.71.79,1.06,2.01-.31.69-2.99,2.91-3.44.87.54,2.68.14,3.97.27,1.48,1.58,2.94,1.63,5.56,1.85,1.35,1.38,3.3,2.17,5.03,3.18.21-1.79-.36-2.82-.26-4.5Zm31.48-1.06c.69.08.87-.37.79-1.06h-.79v1.06Zm2.64,3.97c2.61-.06,1.97-3.42,0-3.71-.65.69-.85,3.07,0,3.71Zm-6.08-3.44s.02.25,0,.26c-1.26,1.44,1.27-.49,0-.26Zm-1.85,3.18c1.35-.12,2.61-.14,2.65,1.06.5-.38.03-1.73.53-2.12-1.77.27-2.04-.96-2.65-1.85-.4.75-.64,1.66-.53,2.91Zm10.85,1.59c.4,1.21,2.2,1.23,3.18.53.27-.75.5-2.48,0-3.18-1.51.43-3.19.69-3.18,2.65Zm11.64,0c.6-.74.06-2.02-.79-2.12h-.53c-.02,1.17.05,2.25,1.32,2.12Zm-71.17,0c1.1.29,1.1-1.88,0-1.59-.08.62-.52,1.09,0,1.59Zm64.82,1.32c.06.85-.47,1.12-.27,2.12,1.72.73,3.07-.66,2.65-2.91-.85.21-1.75.36-2.38.79Zm-43.92,1.32c-4.54-.39-9.02-3.23-12.7,0-4.06.35-6.88,1.93-8.99,4.24-5.14.6-5.28,6.18-9,8.21-1.09,2.75-1.62,7.64,0,10.33.25-1.86.87-3.36,1.06-5.3,3.08-2.21,4.68-5.91,8.2-7.68,3.28.14,4.72.77,7.94.27,1.17,1.39,4.09,2.43,3.17,5.03-1.43.37-1.11-1.01-2.38-.79-2.79.48-4.8,1.72-5.82,3.97,2.03,1.85,5.31.43,7.94.79,1.49-1.29,3.05-.88,4.23-2.38,1.47-.02,2.14-.86,3.17-1.32.28-2.45,1.87-3.6,2.38-5.83.72.64.94-.82,2.12-.53,1.05-2.04,3.76-2.42,4.5-4.77-1.63-1.73-3.25-3.45-5.82-4.24Zm42.59,4.24c-.38-.41-1.35-.23-2.12-.27-.99-1.77-3.48-1.51-5.29-2.91-2.21.41-3.62-1.53-5.82-1.59-1.61-.04-2.06.55-3.44,1.06-2.94,1.09-5.47,2.06-7.41,3.44-1.17-.11-2.04.07-2.64.53.31,2.02,2.24,2.42,3.71,3.18,2.06,1.06,3.56,2.9,5.55,3.71.75,3.58,4.35,4.29,7.41,5.56,2.6-.53,5.49.87,6.35-1.32-1.62-1.21-5.07-2.18-3.18-5.3.93-.13,1.72-.39,2.91-.26,1.85,1.85,6.1,1.31,6.88,4.24,1.07,3.46,1.85,5.91,1.85,9.8.92.66,1.24-1.1,1.85-1.59-.42-3.49,1.02-6.98,1.06-10.86-3.58-1.44-5.27-4.79-7.67-7.41Zm11.38-2.91c.67-.03,1.03-.38,1.06-1.06h-1.32c-.02.46.06.82.26,1.06Zm-83.87,2.65c.53,0,.34.72,1.06.53.39-.23.84-.4.79-1.06-.21-.06-.31-.22-.26-.53-.99-.11-1.55.21-1.59,1.06Zm79.1,1.32c.57-.49,1.34-.78,1.06-2.12-2.23-.56-2.6,1.7-1.06,2.12Zm7.94.53c.82-.03.75.83,1.85.53.52-.59.23-1.99,0-2.65-1.62-.29-2.12.52-1.85,2.12Zm-32.81,15.62c.4-2.93-.25-6.21-1.85-8.21-3.25.52-2.71-2.76-4.76-3.44h-1.85c-1.86-.96-3.71-1.93-5.56-2.91-1.57.63-3.83.58-5.29,1.32-.11.33-.34.54-.79.53-.97,3.36-3.87,4.78-4.76,8.21.83,4.29,1.56,8.67,3.7,11.65,2.17.22,3.15,1.62,5.29,1.85.64-3.91,2.62-7.72,7.67-6.35,1.5,1.5,1.5,4.51,3.71,5.29.83-2.17,4.06-4.76,4.5-7.94Zm28.04-11.65c1.58.09,2.2-.79,2.12-2.38-1.16-.74-3.2.87-2.12,2.38Zm-84.93-.79h.79c.07-.6-.06-1-.53-1.06-.08.36-.38.51-.26,1.06Zm92.86,2.65c.83-.05,1.94.18,2.38-.26-.06-1.26-1.17-1.47-1.85-2.12-.54.43-.61,1.33-.53,2.38Zm-7.41.53c-.37.7.17,2.37,1.32,2.38.37-.83,1.12-1.59.53-2.65-.7,0-1.51-.1-1.85.26Zm-89.16,4.5c2.83.7,3.06-3.5,1.06-3.97-.64.99-2.51,2.52-1.06,3.97Zm94.45-1.85c.82.18,1.1-1.52.53-1.85-.21.59-.55,1.03-.53,1.85Zm-82.28,1.06c.63.16,1.21.38,2.12.26.54-.43.61-1.33.53-2.38-1.55-.77-2.6.56-2.64,2.12Zm88.89,1.85c2.33.01,2.23-3.33.27-3.71-1.48.47-2.32,3.23-.27,3.71Zm-6.88,2.65h2.91c.03-1.49-.18-1.47-.79-2.38-.25-.38-.02-1.11-.79-1.06-1.09.5-1.4,1.77-1.32,3.44Zm-17.2.27c.83,1.02,1.75,1.96,3.7,1.85,1.45-3.16-3.59-6.78-3.7-1.85Zm-65.88.79c.37-.13.64-2.39-.26-2.12-.42.2-1.21,2.43.26,2.12Zm78.31.8c1.12.33,1.72-.06,2.64-.53-.09-.97-.3-1.81-.79-2.38-2.26-.57-2.94,1.68-1.85,2.91Zm10.05.79c.56-.59,1.56-.73,1.85-1.59-.39-.05-.24-.64-.27-1.06-.81.2-.51-.73-1.32-.53-.18.8-.94,2.39-.26,3.18Zm-34.92,0c1.42.18,1.94-1.63,1.32-2.65-1.67.03-1.64,1.21-1.32,2.65Zm4.23.53c1.95.47,2.17-1.96,1.59-3.18-2.04-.35-2.59,2.03-1.59,3.18Zm-36.25.8c.06-.21.22-.31.53-.26.74-.97.27-2.81-1.06-3.18-2.17.29-1.95,3.67.53,3.44Zm-17.2,2.65c.19-1.3,1.52-3.23.79-5.3-4.16-1.14-2.45,4.71-.79,5.3Zm4.76-4.76c0,1.68.15,1.6.53,2.91,1.54.04,2-1,1.85-2.65-1.31.42-1.79-.78-2.38-.26Zm5.82,1.59c.54.08.52.72,1.06.79.21-.93.92-.3,1.32,0,1.55-2.04-2.73-3.7-2.38-.79Zm-25.13.79c1.54.57,1.83-1.68.26-1.32-.22.31-.35.71-.26,1.32Zm74.34-1.06c-.08.61.04,1.02.26,1.32.91-.06,1.15-.79,1.32-1.59-.65-.03-1.27-.04-1.59.27Zm17.99.27c-.06,1.12.24,1.87.53,2.65,1.5-.18,2.85-.5,3.17-1.85-.08-.62-.92-.49-.79-1.32-1.46-.31-1.84.46-2.91.53Zm5.82,5.29c-2.38.09-2.29,2.65-5.03,2.38-1.16,1.2-2.2,2.97-3.7,4.77-.78.93-2.18,1.48-2.91,2.38-.38.48-.12,1.14-.53,1.85-.83,1.47-2.22,2.18-2.38,3.44-.14,1.11.2,2.33.79,3.44,2.16.13,2.56-1.5,3.18-2.91,4.52-4.21,8.22-9.25,13.23-12.97,1.43-.69,2.81-1.61,3.97-2.65,1.06-.96,2.84-2.18,2.65-4.24-.2-.42-.84-.39-.79-1.06-4.38.29-6.51,2.84-8.47,5.56Zm-10.05-4.5c0-.26-.32-.2-.53-.26-.02.38-.04.75.26.79v.26h.26c-1.73,1.32-.47,4.08,1.85,3.71.9-1.19.06-4.89-1.59-4.24v-.27h-.27Zm-82.54,1.06c-.21.06-.52,0-.53.26.21-.06.52,0,.53-.26Zm74.08,1.85c.96-.38,1.19.15,1.85-.53v-1.06c-1.35-.95-3.22.44-1.85,1.59Zm-19.58,1.06c1.49.4,1.97-1.21,1.32-2.12-1.3-.16-1.42.87-1.32,2.12Zm5.82,0c1,.03,1.42-.52,1.59-1.32-.23-.39-.4-.84-1.06-.79-.24.65-.62,1.15-.53,2.12Zm-57.41.79h1.59c.92-4.2-4.04-2.25-1.59,0Zm11.11-1.06c-.9.69-2.54.64-3.44,1.32-1.43,1.66-3.19,2.99-3.97,5.3-.58,5.05,2.64,11.35-1.06,14.03-3.82.59-7.5,1.32-10.32,2.91-.4,1.9-2.33,2.25-2.12,4.77-.8.61-1.74,1.08-2.12,2.12v6.62c.34.81.97,1.32,1.06,2.38,1.3.19,1.48,2.65,2.91,1.85-.18-2.83-1.46-6.58.79-9,3.92-2.31,10.44-1.78,14.29.53.99-1.42,1.41-.79,3.44-.79,1.66-1.95,4.41-2.82,6.09-4.77-.09-2.21,0-4.24.53-5.83-.26-2.48-2.51-2.96-2.38-5.82-.66-.75-1.99-.84-2.38-1.85-1.4-2.62-2.14-8.75.26-10.86,1.4-.46,3.67-.04,3.71-1.85-.35-1.77-3.41-.82-5.29-1.06Zm48.15,55.34c-1.12-.83-1.93-1.95-1.85-3.97-.9-1.31-2.27-2.14-2.12-4.5-1.68-.71-2.25-2.51-2.12-5.03-.81-1.91-2.42-3.7-3.17-5.83-.73-2.04-.86-4.7-1.59-6.88-.27-.8-.87-1.32-1.06-2.12-.26-1.12-.05-2.28-.26-3.44-.78-4.25-3.58-7.71-2.91-13.24-.43-.63-.59-1.53-.79-2.38v-2.65c-1.1-1.55-.89-4.4-2.65-5.3-.05.39-.64.24-1.06.27-.57,1.2-.12,3.4-.26,5.03,2.08,2.58,1.13,7.43,1.59,11.12.92.84.74,2.79,1.59,3.71-.07,1.65.5,3.03,1.06,4.5.4,1.04,2.16,2.86.26,3.7-1.53-1.12-2.13-3.16-2.91-5.03-1.17-1.3-3.04-1.9-3.44-3.97-1.45-.05-1.59.8-2.91.27-.37-1.03-.28-2.11-.53-2.65-1.64-.81-4.32-1.97-7.94-1.59-.93,1.1-3.42.64-4.23,1.85,3.13.84,5.71,2.23,8.73,3.18.46.51.6,1.34,1.06,1.85,3.37,1.84,6.31,4.1,9.52,6.09,1,3.41,3.81,5.01,5.56,7.68.26,3.01,1.75,4.78,1.85,7.94,1.7,1.83,2.49,4.57,3.17,7.41,1.38,1.44,3.14,2.51,3.18,5.3-3.17.63-4.39-2.8-5.29-5.3-1.62-.94-2.91-2.2-3.7-3.97-1.1.3-1.03-.56-1.85-.53-1.78-2.37-3.96-4.34-5.82-6.62-1.32.26-1.29-.82-2.38-.79-2.47-3.17-6.3-4.99-8.99-7.94-.91.12-1.48-.11-2.12-.26-1.88-1.29-2.68-3.68-6.09-3.44.59,3.3,3.87,3.9,6.35,5.3.07,1.16,1.21,1.27,1.59,2.12,4.9,1.98,6.67,7.09,11.37,9.27,1.67,1.68,2.63,4.07,4.23,5.82.18.52,1.48-.06,1.59.53.43,2.04,2.25,2.69,3.7,3.71.29,2.27,1.91,3.21,3.7,3.97-.73.71.31.57.26,1.32,3.75,2.17,5.06,6.76,7.41,10.33,1.15.71,1.86,1.84,3.44,2.12.89,2.11,2.28,3.72,3.97,5.03.36.52.25,1.51.53,2.12.85.47,1.85.79,2.38,1.59,1.04,1.7,1.65,3.82,3.18,5.03,2.45-.06,4.18,1.99,3.44,4.24-2.54.48-3.85-2.48-6.61-2.65-.03-1.02-1.07-1.04-1.32-1.85-6.12-2-12.52-3.71-19.58-4.77-3.8,2.08-9.69.53-13.76,1.32-4.23-1.76-8.35-3.64-10.32-7.68-1.45-.58-2.93-1.13-2.91-3.18.57-.99,1.63.08,2.38-.53.58-1.28,1.34-2.36,1.32-4.24.61-1.06,1.86-1.49,2.65-2.38.44-2.21,2.3-2.99,2.65-5.3,1.54-1.57,4.32-3.24,4.23-5.56-1.06-.68-2.01.14-3.17-.26-1.33.79-2.33,1.91-3.97,2.38,0,1.99-3.01,3.34-3.97,1.32-.23-1.73.44-3.66.53-5.82,1.03-1.69,4.59-3.31,2.38-5.83-3.55.06-4.83,2.41-6.61,4.24-.64,2.36.15,6.15-2.12,6.88-1.87-3.16-3.15-6.91-5.03-10.06-1.71-.76-1.63-3.31-4.23-3.18-.99,1.02-.2,2.42,0,3.71-1.95,3.73,2.43,5.18,1.32,9.27-2.68.6-6.02-1.87-10.05-1.59-1.37.61-4.59.35-3.17,2.91,1.64-.22,2.83-.87,4.5-1.06.74.58,1.58,1.06,2.65,1.32.14,2.33,2.6,2.34,2.38,5.03-3.08.45-5.92,1.13-7.41,3.18,1.02.56,2.37.8,3.7,1.06,1.34,1.48,2.53,3.12,4.5,3.97.33,2.05,2.14,2.62,3.7,3.44.72-.61.12-2.53,1.06-2.91,1.58.71,1.9,2.69,3.17,3.71.06-.47.46-.6,1.06-.53.59-1.81-.77-3.53-.79-5.56-.83-.94-3.06-3.79-1.06-5.03,1.6.42,1.67,2.39,1.85,4.24,1.66,2.84,3.12,5.88,5.29,8.21-.21.92.39,1.02.26,1.85,1.87.95,3.35,2.29,4.5,3.97,1.27.23,2.52.48,2.65,1.85-1.12.65-2.63.9-4.23,1.06-2.65,2.9-8.71,2.41-10.32,6.35.29.77,1.04,1.07,1.59,1.59,3.42-.33,5.3-1.19,7.94-1.85.63-.4.26-1.12.53-1.32,4.94-.53,7.87-3.07,13.49-2.91.66-.22,1.04-.72,1.85-.79,4.65.57,8.62-1.3,13.49-.53.55.42,1.08.86,1.85,1.06,2.87.57,6.45.43,8.73,1.59.89.7,3.03.15,2.65,2.12-4.36-.65-9.22-1.38-13.76-1.06-3.56,1.47-8.04,2.01-11.91,3.18-1.17,1.12-2.56,2.03-3.97,2.91-.77,2.23-2.17,3.83-2.38,6.62.83.94,1.58,1.96,2.65,2.65,2.68-2.35,4.06-5.99,7.14-7.94.38.41,1.35.23,2.12.27,1.43,1.91.19,3.49,0,5.82,1.04.72,2.44-.1,3.7,0,1.04-1.26,2.18-2.41,3.44-3.44.39-.67,1.7-.42,1.85-1.32.42-1.43.35-3.35,1.32-4.24,1.84-.27,3.69-.54,4.76-1.59,2.39.99,8.57-.55,11.38.79.54-.6,2.37.08,2.91-.53.73,1.66,2.08,2.68,3.97,3.18,1.06-.44,1.08-1.91,2.91-1.59.5-1.62,2.38-1.85,3.44-2.91-1.43-1.64-1.81-4.31-2.65-6.62-.33-.91-1.1-1.81-1.32-2.65-.85-3.17-.74-6.84.79-8.47,3.56,1.33,4.29-1.17,7.67-1.32,1.71-2.26,2.64-5.3,4.76-7.15,2.37-3.02,2.35-9.82,2.65-14.03-3.64.92-7.24,10.62-10.05,3.97.75-1.98,1.21-4.26,2.65-5.56,3.43-.91,6.36-.52,10.05-1.32,1.16.17,1.51,1.14,2.91,1.06,1.11-3-1.61-4.37-3.44-5.3-4.1-1.21-9.55-.55-12.96,0-3.38,2.18-6.57,4.54-9,7.68-.63,3.81-.65,6.71-2.38,9.53,1.52,2.1.09,4.2,0,5.83-.17,3.15,1.6,5.65,2.64,8.21-1.17,4.15,1.73,7.51,1.59,10.59,1.14.18,2.36,2.51,1.06,3.44-2.32-.15-2.97-2.75-3.97-4.24-1.15-1.71-2.42-3.35-3.44-5.03-1.25-3.51-4.37-5.15-3.97-10.33-.55-.77-1.62-1.03-1.85-2.12.06-2.53-.99-3.95-1.59-5.83.07-4.12-.3-8.3-.53-12.71.44-.88.94-1.71,1.32-2.65-.78-3.96.98-7.42.79-11.65.19-.66.81-2.78-.53-2.65-1.38,0-1.28,1.92-1.59,2.91-.37,1.2-.95,2.33-1.32,3.44-.92,2.75.16,5.73-1.06,8.21v2.38c-.77,1.08-.48,3.22-.53,5.03-.04.84-.6,1.16-.53,2.12.4,1.29.47,3.1-1.06,3.18-.95-.9-1.7-2-1.59-3.97Zm-66.94-53.48c-.05-.74-.46-1.13-1.32-1.06-.19,1.27.57,1.39,1.32,1.06Zm52.91,2.91c.58-.57,1.01-1.29.79-2.65-.64.08-1.28-1.16-1.85-.27,1.22.11-.16,2.81,1.06,2.91Zm53.97-.79c.53-.67.31-2.27-1.06-1.85-.06,1.03.28,1.66,1.06,1.85Zm-111.38,6.35c3.14.38,4.25,2.81,5.82,4.77,2.73.47,4.79,1.74,7.14,1.32-.29-2.36-2.91-2.39-3.71-4.24-.94-.23-.65-.03-1.59-.26.04-.66-.42-.82-.53-1.32-2.41-.24-3.85-1.45-5.29-2.65-1.32-2.39-3.59-3.83-5.56-5.56-1.22,4.07,2.99,4.93,3.7,7.94Zm79.37-1.32c.29,3.02-1.26,6.05-1.32,9.27-.02.79.46,1.44.53,2.12.14,1.54-.33,2.92,0,4.5,2.1,3.72,5.52,6.12,9.79,7.68,1.25-1.28,4.68-1.28,5.82-1.85,1.72-3.4,5.54-4.69,9.79-5.56,1.16.42,2.41.77,3.71,1.06,1.29.47,1.08,2.45,3.17,2.12.85-1.63-.6-3.04-.53-4.77-1.77-1.75-3.96-3.1-6.88-3.71-4.01,1.39-8.93.37-12.43,2.38h-3.44c-5.4-2.06-3.38-9.92-4.76-15.89-1.26-1.56-2.44-3.2-4.76-3.71h-.53c.15,2.4,1.62,3.96,1.85,6.35Zm-41.27-4.5c.96.19.76,1.54,1.85,1.59,1.22-.1,1.68-.96,1.85-2.12-1.16-1.27-2.95-.63-3.7.53Zm27.25-.27c.23.83.48,1.64,1.06,2.12,1.57-.02,2.05-1.13,2.12-2.65-.62,0-.78-.46-1.59-.26-.16.92-.64,1.32-1.59.79Zm21.16,2.12c.48.58,1.64.48,2.12,1.06.31-.75,1.06-1.06,1.32-1.85-.28-.61-.83-.94-.79-1.85-1.7.07-2.84.69-2.65,2.65Zm-78.57.53c.91.12,1.48-.11,2.12-.26.17-1.41-.06-2.41-1.06-2.65-.46.86-1.33,1.32-1.06,2.91Zm64.02-.79c1.58.71,2.99.46,3.17-1.32-.9-1.4-3.46-.73-3.17,1.32Zm-42.33,1.59c1.36-.17,1.99-1.78,1.32-3.18-2.95-.95-3.4,2.76-1.32,3.18Zm32.01-1.06c.96,0,1.16-.78,1.06-1.85h-1.59c-.17.97.18,1.41.53,1.85Zm-15.87-.8c-.11.64.48.58.26,1.33,1.51.28.85-1.62,1.59-2.12-.88,0-.91.86-1.85.79Zm62.96-.79c.35,1.31,1.25.41,0,0h0Zm-3.17,1.85c-1.25-.89-2.96,1.4-1.59,2.38,1.19-.13,1.83-.82,1.59-2.38Zm5.03,2.38c.76.03.46,1.13,1.32,1.06h.79c.69-.46.62-1.84.27-2.65-.84.13-.93-.48-1.85-.26.17.97-.57,1.02-.53,1.85Zm-24.87-.79c.39-.04.98.1,1.06-.26-.21-.06-.31-.22-.27-.53h-.53c-.01.34-.34.37-.26.79Zm-50.8,2.12c1.87.61,2.38-1.65,1.32-2.38-.22.78-.85-.16-1.32,0-.52.55-.2,1.76,0,2.38Zm5.56,1.32c1.63.18,1.99-.01,3.44.26v-.79c-1.32.6-.8-2.17-2.12-2.38-.34,1.07-1.33,1.49-1.32,2.91Zm21.16-.26c.66-.36,1.16-1.82.53-2.65-1.71-.22-2.63,2.71-.53,2.65Zm11.11,1.59c1.01.04,1.27-.67,2.12-.8-.59-1.28-.69-2.16-1.59-2.65-.75.78-1.58,2.34-.53,3.44Zm-28.04-2.91c-.64.89.89-.64,0,0h0Zm-15.08,1.59c-.33,1.57.58,1.89,1.06,2.65,2-.13,2.62-3.48.26-3.71-.43.37-.33,1.26-1.32,1.06Zm18.78,1.85c.53-.62.7-1.77.26-2.65-2.12-.6-2.09,2.94-.26,2.65Zm49.21.79c-.89.43-2.61,1.15-1.59,2.65,1.8-.05,1.44-2.26,3.17-2.38,1.4.67,2.66-.32,2.91-1.59-1.31-1.9-4.48-1.49-4.5,1.32Zm-54.23-.53c.18-.89-.45-.97-1.06-1.06-.12.83.23,1.18,1.06,1.06Zm61.38,2.12c1.32-.27,2.83-.35,2.65-2.12-1.23-2.25-4.33.17-2.65,2.12Zm-43.65.79c.61.53,2.03.27,2.38-.26.42-2.58-2.49-1.29-2.38.26Zm8.2,1.85c.81-2.65-1.36-3.23-3.44-3.71,1.26,1.04,1.58,4.11,3.44,3.71Zm-68.79-1.85c.19-.98-.42-1.17-1.32-1.06-.18.98.42,1.17,1.32,1.06Zm101.59.79c1.12.21.9-1.42,0-1.32v1.32Zm-37.57,0c.93.23,1.4-.65.53-.79-.06.38-.44.45-.53.79Zm43.92-.27c-.11,1.08.27,1.67,1.32,1.59.08-.62.42-.99.26-1.85-.65-.04-1.28-.04-1.59.26Zm-36.77,3.97c1.46-.3,2.31-1.21,2.38-2.91-2.1-.34-2.62.91-2.38,2.91Zm-76.19-1.06c.19-.2.66-1.3-.26-1.06-.03.66-.51.83.26,1.06Zm67.46,3.18c.8-.25.61-1.51,1.85-1.32-.39-.94-1.07-1.58-2.38-1.59-.63.89-.11,2.46.53,2.91Zm50.8-1.59c.38,1.19,1.51,1.02,2.65.53.42-2.15-2.57-2.4-2.65-.53Zm-80.43.53c.53,0,.34.72,1.06.53.6-.19.79-.8,1.06-1.32-.59-.97-2.43-1.13-2.12.79Zm-34.66.53c.74.92,2.37-.71,1.06-1.06-.02.68-1.03.38-1.06,1.06Zm70.9.79c.28-3.77-5.1.1-1.32,1.59.75-.69,1.25-.68,1.32-1.59Zm-31.75-.79c.64.68.64,2.01,1.85,2.12.75-.13,1.12-.64,1.85-.8v-1.59c-.84-1.02-2.97-.39-3.7.26Zm35.45,3.97c1.44-.15,2.34-.83,2.65-2.12-.93-.3-.89-1.58-1.85-1.85-1.56.22-1.51,2.98-.79,3.97Zm-11.64-1.59c.72-.43-.39-.89-.53-.26.27,0,.31.21.53.26Zm-64.55,2.12c.3-.58.68-1.08.53-2.12-.34-.01-.37-.34-.79-.26-.48.79-.76,1.98.26,2.38Zm46.03-.8c-.09.97.29,1.47.53,2.12,1.88.29,1.99-1.19,2.38-2.38-.77-.57-2.37-.22-2.91.26Zm72.49,2.38h1.59v-2.38c-1.61-.29-1.7.94-1.59,2.38Zm-51.33-.53c.52.53,1.51.17,2.12,0v-1.32c-1.35-.2-2.1.19-2.12,1.32Zm3.18,2.12c1.24.78,2.91-.82,2.38-1.85-1.26-.78-2.4.51-2.38,1.85Zm-19.31,2.65c1.06-.26,1.77-.87,2.65-1.32-.09-1.14-.21-2.26-.79-2.91-2.71-.55-2.78,2.7-1.85,4.24Zm53.71-3.18c-.32,1.93,3,2.17,2.91.27-.6-1.42-1.84-.87-2.91-.27Zm-30.16,2.38c.43.4,1.95.4,2.38,0-.07-.9.2-2.15-.26-2.65-1.4.19-2.08,1.09-2.12,2.65Zm37.3,2.91c2.13-.48,1.08-3.48,1.85-4.77-1.92.2-4.28,3.45-1.85,4.77Zm-81.48-1.59c.98.52,1.05.76,2.12.79,1.66-2.44-2.42-3.87-2.12-.79Zm-30.16-.26c.07-.6-.06-1-.53-1.06-.57.55-.02.9.53,1.06Zm99.74-.79c-.65,1.16.22,1.96.26,3.18,3.15.6,3.12-4.94-.26-3.18Zm-31.48,2.38c.76.42,2.01.89,2.64,0-.16-.63-.38-1.21-.26-2.12-1.81-.64-2,.7-2.38,2.12Zm50,.79c.5-.65.9-1.4,1.06-2.38-.35-.62-1.53-.41-2.12-.79.33,1.05-.44,2.8,1.06,3.18Zm-63.76-2.12c.31,1.57-.07,3.08,1.06,4.24-.34.37-1.29.11-1.32.79.5.11.48.76,1.32.53.04-.4-.09-.98.26-1.06.59.45,1.74.9,1.85-.26-.38-.15-1.37.31-1.32-.26-.24-1.9-.65-2.12-.79-4.24-.46-.02-.82.06-1.06.26Zm-39.95,2.12c1.14.48,3.15.37,2.91-1.32-1.23-.33-3.3-.67-2.91,1.32Zm22.49-.79c-.83-1.73-1.41.41-2.91.27-.34.82-.98,2.71-.26,3.71.82-.62,1.3-.21,2.12-.53.67-.83,1.09-1.91,1.06-3.44Zm16.67.79c.04-.66-.14-1.1-.53-1.32-.51.49.22.9.53,1.32Zm34.13,0c.07.9-.2,2.15.27,2.65,1.85.71,3.33-1.58,2.38-3.71-1.34-.11-1.84.63-2.65,1.06Zm5.56-.26c.58.03.11,1.12.26,1.59,1.88.35,3.71.32,3.7-1.85-1.24-.45-.34,1.24-1.59.79v-1.32c-.95.11-2.05.07-2.38.79Zm14.02.26c-.65,1.14-.78,3,1.06,2.91.89-1.07,1.28-3.84-1.06-2.91Zm-85.19,3.97c.81-.19.51-.19,1.32,0,.48-.84,1.23-1.42,1.06-2.91-1.63-2.16-3.59.78-2.38,2.91Zm49.74-.53c1.62-.15,2.64-.88,2.38-2.91-.34-.37-1.15-.26-1.85-.27-.75.49-.5,1.97-.53,3.18Zm27.78-1.59c.46.95.61,2.21,1.85,2.38.26-.8,1.07-1.05,1.32-1.85-.28-.69-.84-1.1-1.32-1.59-.24.74-1.06.88-1.85,1.06Zm14.02,1.32c1.17.12,1.67-.44,1.85-1.32-.58-.22-.59-1-1.32-1.06-.58.38-1.13,1.65-.53,2.38Zm-60.85-1.32c.38.06.45.44.79.53.08-.36.38-.51.27-1.06-.49.04-.88.17-1.06.53Zm-52.65,2.12c.34.36,1.25.36,1.59,0-.24-.46,0-1.42-.79-1.32-.74-.04-.76.65-.79,1.32Zm17.46.53c-.14.99.35.97.79,1.85,3.42-.94-.33-5.17-.79-1.85Zm22.75.27c.59.38,1.28.66,2.38.53-.14-.83-.46-1.48-.79-2.12-1.2-.14-1.73.39-1.59,1.59Zm-15.08,1.06c.95.15.81-.78.79-1.59h-.79v1.59Zm58.73,1.06c1.2-.13,1.3-1.34,1.32-2.65-2.02-.63-2.31,1.85-1.32,2.65Zm12.17,0c.68-.76-.12-1.64,0-2.65-3.46-.79-3,4.18,0,2.65Zm-66.67.27c.76-1,1.21.53,1.85.53.89-1.15-1.33-1.02-1.59-1.85.46-.24.68-.93.26-1.32-1.18-.29-.94,2.22-.53,2.65Zm-15.87,1.06c1.52-.58.95-2.48-.53-2.65-.82.56-.49,2.42.53,2.65Zm21.7-.53c1.06-.08,1.81-.48,2.12-1.32-.28-.77-1.19-.93-2.38-.79.03.76-.15,1.73.26,2.12Zm57.94-1.59c0-.27-.46-.33-.53,0,.3-.03.41.38.53,0Zm-2.65,3.7c.18-.97.37-1.92.27-3.18-3.48-1.78-3.14,3.54-.27,3.18Zm-73.02-1.32c.55-.21-.2-1.59-.53-.79.44,0,.15.73.53.79Zm27.25,1.06c1.57.33,1.78-.69,1.85-1.85-.63-.16-1.21-.38-2.12-.26-.2,1,.32,1.26.26,2.12Zm-42.86,2.65c1.48,0,.55-2.06.26-2.65h-1.59c-.47,1.86,2.31,1.06,1.32,2.65Zm4.76.53c.38.5,1.73.03,2.12.53.77-1.7-.13-3.42-1.59-3.71-.16,1.07-.81,1.66-.53,3.18Zm26.19-.53c1.61.29,1.7-.94,1.59-2.38-1.36-.04-1.8.85-1.59,2.38Zm-12.7-.53c-.84-4.43-5.56,1.55-1.32,2.65.92-.65,1.56-1.38,1.32-2.65Zm66.67.26c.83.12.75-.67,1.06-1.06-.36-.08-.51-.38-1.06-.26v1.32Zm-5.03-.26c0-.27-.46-.33-.53,0,.06.32.29.16.53,0Zm-67.99,1.59v-1.59h-1.32c-.03,1,.52,1.42,1.32,1.59Zm33.6-1.06c.6.64.36,2.11,1.59,2.12.53-.44,1.23-.71,1.32-1.59-.76.05-1.44.03-1.32-.79-.8.39-1.03-.09-1.59.26Zm40.21,1.85c-.56-1.79-2.76-.52-3.17.79.85,1.46,3.38,1.76,3.17-.79Zm-42.86.79c-.22-.75.37-.69.27-1.32-1.13.04-1.23,1.07-.27,1.32Zm-40.74,3.18c.58-.57.92-1.55.53-2.38h-1.06c-.19.63-.77,2.53.53,2.38Zm49.21-2.12c-.31-.04-.6-.47-.79,0,.31.04.6.47.79,0Zm-45.5,1.59c.87,0,1.87.11,1.85-.79-.44.44-1.93-.17-1.85.79Zm108.21,1.32c.98-.17,1.47-.82,1.32-2.12-1.49-.4-1.97,1.21-1.32,2.12Zm-64.29.8c.76.05,1.34-.07,1.59-.53-.47-.24-.77-.64-1.32-.79-.22.31-.35.71-.26,1.32Zm32.54,2.38c1.52-.07,2.63-.54,2.65-2.12-.93-2-3.01-.16-2.65,2.12Zm-26.46,1.32c1.09.14,1.35-1.43.79-2.12h-1.06c-.36.78-.33,1.64.26,2.12Zm-6.08.53h1.59c.2-.62.52-1.83,0-2.38-1.71-.32-2.24,1.12-1.59,2.38Zm63.76,1.59c1.89.31,2.12-1.06,2.38-2.38-1.78-1.01-3.6,1.16-2.38,2.38Zm-103.71,0c.06-1.03-.11-1.83-1.32-1.59-.06,1.03.11,1.83,1.32,1.59Zm73.29,1.06c-.13-.83.58-1.04,0-1.59h-.8c-.49.52-.39,1.95.8,1.59Zm-37.04,1.85c.57.22.9.69,1.85.53,2.19-2.51-2.58-4.88-1.85-.53Zm12.17,0c.75.04,1.1.49,1.85.53.04-1.41,1.07-.45,1.32-1.32-1.3.25-.64-1.48-1.32-1.85-1.66-.16-2.01.99-1.85,2.65Zm-7.14-.53c.3.83.02.6,0,1.59,2.33,2.32,3.78-3.1,1.32-2.38-.55.16-.85.56-1.32.79Zm65.08,1.85c.84.39,1.27-1.52.26-1.32-.22.31-.35.71-.26,1.32Zm-110.32,1.85c.5.21.97.44,1.59.53.43-.69.31-2.66-.53-2.91-.77.37-.96,1.33-1.06,2.38Zm105.83.26c4.89,1.49.7-4.63,0,0h0Zm-27.52.53c1.23.17,1.5-.62,1.32-1.85h-1.06c-.36.34-.26,1.15-.26,1.85Zm-34.13.26c.08-.16.66-1.02,0-1.06-.08.16-.66,1.02,0,1.06Zm5.56,3.18c1.09-1.25,1.59-.85,3.44-.53.92-.94.32-2.32-.27-3.18-2.11.18-2.88,1.7-3.17,3.71Zm-12.43-1.32c.72-.42,1.65-.65,1.32-2.12-1.64-.44-2.21,1.59-1.32,2.12Zm8.73,1.32c1.15.19,1.18-.77,2.12-.8,0-1.24.14-2.61-1.06-2.65-1.65.29-1.75,2.05-1.06,3.44Zm-5.29-1.59c.83.12,1.18-.23,1.06-1.06h-1.06v1.06Zm-35.98,1.06v1.59c1.38.46,2.13-1.49,1.06-1.85-.05.39-.64.24-1.06.26Zm50.8.79c-.05-.4.09-.98-.26-1.06-.35.35-.35.99.26,1.06Zm5.29,2.38c.62.63,1.3-.04,2.12,0-.01-.87-.75-1.01-.53-2.12-1.22.01-1.72.75-1.59,2.12Zm-25.13,1.32c.45-.7.61-1.68,1.06-2.38-2-2.82-4.64,2.4-1.06,2.38Zm3.17-1.85c.08.9.42,1.52.26,2.65.83.13.93-.48,1.85-.27.13-1.19-.13-1.98-.26-2.91-.97-.17-1.02.57-1.85.53Zm11.64,3.44c.86-.02,1.43-.34,1.59-1.06,0-.28-.77-2.04-1.85-2.12-.48.74-.41,2.76.26,3.18Zm4.5-1.59c.17,1.07.66,1.82,2.12,1.59,1.23-1.99-1.53-4.12-2.12-1.59Zm-10.85,1.85c.7,0,1.51.1,1.85-.26.17-1.59-.56-2.26-1.59-2.65-.32.74-.29,1.83-.27,2.91Zm-23.28.53c1.08-.16,2.35-1.53,1.59-2.65-.31,1.1-1.66,1.16-1.59,2.65Zm78.58,1.59c1.1-.3,1.03.56,1.85.53,2.32-3.14-3.17-4.54-1.85-.53Zm-8.47-.27c.34.45.55,1.04,1.32,1.06.69-.37,1.26-.86,1.06-2.12-.78-1.02-2.61-.46-2.38,1.06Zm-72.49.27c.26.62.08,1.68,1.06,1.59.52-1.01-.73-2.21.27-3.18h-.8c.29.99-.66.76-.53,1.59Zm-5.56,3.71c.59.21,1.03.56,1.85.53.04-1.36-.52-2.12-1.59-2.38-.08.62-.42.99-.26,1.85Zm9-.79c.12,1.17-.36,1.32,0,2.12,3.31.74,2.89-4.15,0-2.12Zm6.61-.27c0-.27-.46-.33-.53,0,.06.32.29.16.53,0Zm68.52,2.38c-.06-.85.47-1.12.26-2.12h-1.06c.08.89-.35,2.3.79,2.12Zm-80.16.79c-.08.96.04,1.72.26,2.38,1.67.17,1.93-1.07,1.85-2.65-.83.55-1.47-.24-2.12.26Zm23.81,7.68c1.82-.3,3.44-.8,3.17-3.18-2.13-1.87-3.47,1.85-3.17,3.18Zm-9.26-.79c.86-.07.56,1.03,1.32,1.06.96-1.05,2.37-.72,3.18-.79-.39-1.02-1.88-.95-2.65-1.59-.53.53-2.04.08-1.85,1.32Zm5.82.53c.88-.32.33-2.24-.53-1.32.74-.12-.21,1.44.53,1.32Zm-9.53,3.44c.4-.5,1.59-2.67.26-3.18-.55.66-1.37,2.44-.26,3.18Zm8.2.53c1.85,1.4,3.74-1,3.97-2.91-1.12.06-1.87-.24-2.64-.53-.49,1.1-1.18,1.99-1.32,3.44Zm37.83.27c1.47.24,1.64-.83,1.59-2.12-1.19-.8-2.39.98-1.59,2.12Zm-6.88.79c1.03-.02,1.92-.19,2.12-1.06-.14-1.19-1.52-1.12-2.38-1.59-.51.65-.33,2.29.27,2.65Zm-39.68.27h1.06c.08-.69-.1-1.14-.79-1.06.02.46-.06.82-.26,1.06Zm49.74,2.12c.83.13,1.03-.38,1.59-.53-.07-.9.2-2.15-.26-2.65-1.93-.13-1.54,1.79-1.32,3.18Zm-43.39-1.32c.82.07,1.61.95,2.12.53v-1.85c-1.17-.02-2.25.05-2.12,1.32Zm2.12.79v1.32c1.4.26.89-1.4,1.85-1.59-.63-.64-.7.64-1.85.26Zm30.42.79c-.28,1.54,1.15.11,0,0h0Zm5.03,2.12c1.11.09,1.69-1.29,1.06-2.12-1.32-.3-1.65,1.34-1.06,2.12Zm-5.03,2.38c.33-.65.65-3.19-.26-3.44-2.15-.03-2.67,3.92.26,3.44Zm-16.93-.27c.33-.46.89-.69.79-1.59-.64.11-.57-.48-1.32-.26-.39.42-.55,2.1.53,1.85Zm11.11,1.32c.68-.73,1.07-1.75,1.59-2.65-1.93-.71-3.44,2.08-1.59,2.65Z"/>
  <g>
    <path class="cls-2" d="m212.31,36.53c.14.03.21.15.27.26"/>
    <path class="cls-1" d="m139.16,73.47c.17-.27.36-.52.53-.8"/>
  </g>
</svg>