<?xml version="1.0" encoding="UTF-8"?>
<svg id="Layer_1" data-name="Layer 1" xmlns="http://www.w3.org/2000/svg" viewBox="0 0 226.77 226.77">
  <defs>
    <style>
      .cls-1 {
        stroke-width: .25px;
      }

      .cls-1, .cls-2, .cls-3, .cls-4, .cls-5, .cls-6, .cls-7, .cls-8, .cls-9 {
        fill: none;
        stroke: #000;
        stroke-linecap: round;
      }

      .cls-1, .cls-2, .cls-3, .cls-4, .cls-5, .cls-6, .cls-7, .cls-8, .cls-9, .cls-10 {
        fill-rule: evenodd;
      }

      .cls-2 {
        stroke-width: .48px;
      }

      .cls-3 {
        stroke-width: .32px;
      }

      .cls-4 {
        stroke-width: .3px;
      }

      .cls-5 {
        stroke-width: .31px;
      }

      .cls-6 {
        stroke-width: .31px;
      }

      .cls-7 {
        stroke-width: .31px;
      }

      .cls-8 {
        stroke-width: .29px;
      }

      .cls-9 {
        stroke-width: .39px;
      }

      .cls-10 {
        stroke-width: 0px;
      }
    </style>
  </defs>
  <path class="cls-10" d="m96.23,10.5c.72-.36.72,1.11,0,.74v-.74Z"/>
  <path class="cls-10" d="m148.77,79.4h.74v.5h-.74v-.5Z"/>
  <path class="cls-10" d="m175.77,85.35c.54-.05.78.2.74.74h-.74v-.74Z"/>
  <path class="cls-10" d="m197.62,187.96c-1.27.78-2.21,1.9-3.68,2.48-1.68-.48-2.05-.41-3.44.25-1.87.07-2.16-1.46-3.68-1.73,0-1.49-.77-2.95-.25-4.21-.09-.39-.43.21-.49-.25-.19-4.74,3.99-5.06,8.59-4.96.58.59,1.61.89,2.21,1.49.23.23.02.73.25.99.12.14.66.06.74.25.61,1.59-.57,3.41-.25,5.7Zm-4.67-5.7c-1.54-1.47-4.93.51-4.42,3.47,1.21,1.26,2.08,2.85,3.93,3.47.91-1.81-.56-3.18-.49-4.96,1.13.15.8-1.17.98-1.98Z"/>
  <path class="cls-10" d="m167.43,212.74c0-.24.3-.19.49-.25,0,.24-.3.19-.49.25Z"/>
  <path class="cls-10" d="m217.02,8.52c-1.21,3.88-.32,7.93-.49,12.14-.03.75-.44,1.48-.49,2.23-.37,5.52.89,12.64-.25,18.34-.16,3.55.33,7.77-.25,10.91.9,1.98.55,6.55.25,8.92,1.06,1.75.21,3.86.25,5.95.06,3.85,1.18,8,0,11.65.51,1.62.73,3.47,0,5.2,1.15,1.88,0,4.71,0,7.19,0,.72.46,1.51.49,2.23.04.96-.43,2.05-.49,2.98-.17,2.45-.29,5.06-.25,7.43.11,5.7-.1,11.4.25,17.35,0,.83-.34,1.31-.74,1.73.24,4.38,1.09,8.67.74,13.88-.04.61-.48,1.32-.49,1.98-.12,6.55-.08,13.46,0,20.32.01,1.22.47,2.48.49,3.72.13,10.04-.3,20.31-.25,30.24,0,1.92.43,3.81.49,5.7.16,4.85-.52,9.33.25,13.88.25.75-.55.44-.98.5.02.92.96.02.98.5v3.97c-3.66-.18-7.68.09-11.54,0-2.88-.07-5.4.06-7.86.25-.37.03-1.1-.31-1.47-.25-.49.08-.5.46-.98.5-1.41.08-3.15.03-4.91,0-.41,0-1.04.06-1.48,0-.29-.04-.74-.49-.98-.5-.39,0-1.13.46-1.47.5-1.78.19-3.66-.66-5.4,0-3.72-1.07-6.79.51-10.8,0-.65.07-.81-.34-.74-.99-.69.04-.31,1.18-1.23.99-3.06.02-4.5.26-6.87-.25-1.3.01-2.51.11-3.44.5-.39-.52-1.5-.31-1.96-.74-1.42.6-3.42.55-4.91,0-.85.46-1.74.89-3.19.74-.45-.35.38-1.21-.24-1.74-.58.15.04,1.53-.49,1.74-1.3.15-1.59-.15-2.21.49-1.91-1.05-4.02-.21-6.14-.25-.7-.01-1.5-.46-2.21-.49-2.01-.11-4.06.68-6.14.74-3.15.1-6.3-.4-10.07-.25-10.2.41-20.86-.39-30.2,0-.88.15-1.19-.29-1.72-.49-3.84,1.02-9.97.44-14.97.25-5.1-.19-10.32.52-14.98.49-2.22,0-4.94-.69-7.37-.49-.18.01-.69.5-.74.49-1.56-.03-3.1-.55-4.66-.49-2.1.07-4.59,1.1-6.38,0-3.26.76-7.33.33-9.82-.5-6.35,1.63-13.24-.04-19.15.74-1.73-2.72-.61-6.28-.24-9.91.15-.98-.36-1.29-.74-1.73.65-9.56-.54-17.95-.74-28.25-.2-.86.27-1.05.49-1.49-.82-1.02-.31-2.19-.25-3.72.1-2.16-1.04-4.16,0-6.69-.93-1.17-.34-3.3-.25-5.45.28-6.41-.65-13.06,0-19.58.21-1.04-.48-1.17-.49-1.98.35-.64.42-1.55.74-2.23.32-5.42-.46-9.4.49-14.38-.7-1.8-.71-5.39.25-6.94-.9-1.31-.14-3.71.25-5.2.24-.99-.73-.75-.49-1.74-.03-4.49-.15-7.86.49-12.88-.13-.96.63-1.02.74-1.74-1.94-3.47-.95-7.96-.74-12.14.16-3.05-.21-6.5.25-9.42.37-2.37.08-5.29,0-7.68-.14-4.13-.58-8.25.24-11.65-.2-5.64-.21-13.66.74-19.58.18-.85-1-.31-.74-1.24-.15-1.06.8-1.01.74-1.98-.99-6.45-.25-10.63-.74-17.85.79-.15.34.89.98.25.32-1.07-.7-.78-.98-1.24-.05-1.3,0-2.47.25-3.47,3.35-.85,8.07.3,11.54-.5.75-.18.47.68,1.23.5,4.65-.27,9.49-.48,14.48-.5,4.64-.01,9.68.92,14.24-.25,1.11.66,2.27.73,3.44.74,2.49.03,5.42.13,7.86,0,.41-.02.85-.5,1.23-.5,2.21.04,4.58.56,7.12.5,1.88-.04,3.83-.18,5.65-.25,3.2-.12,6.5.2,10.56.25,5.43.07,10.9-1.05,16.45-.25-.33,1.13-2.07,2.43-.74,3.72,2.09-.36,1.93-1.8,1.47-3.72,2.08-.78,3.81-.7,6.38-.5.13,1.37-1.52.94-1.23,2.48.02.64.92.4,1.23.74,1.39-.25,1.06-2.23,1.72-3.22,3.61.18,5.03-.34,8.35.25-1.8.63-1.44,4,.25,4.46.48-.92,1.13-1.66,1.72-2.48.21-1.17-1.42-1.36-.74-2.23,1.96-.36,5.14.34,6.87.25-1.06.35-1.75,1.77-1.23,2.97h1.23c1.12-.27.67-2.13,1.23-2.97,3.89-.47,7.81-.4,11.54-.5.29,2,.36,3.06,2.45,3.47,1.3-.51,1.22-2.4,2.21-3.22,3.44-.09,6.56-.51,9.57-.5.76,0,1.25.44,1.96.5.83.07,2.03-.57,2.95-.5.62.05,1.21.51,1.72.5.66-.02,1.36-.43,1.96-.5.87-.09,1.72.28,2.7.25,1.07-.04,2.16-.53,3.19-.5,1.84.05,4.75,1.13,7.61.25.5.23.68.8.98,1.24,1.24.18.93-1.21,1.96-1.24,3.29-.23,4.88.54,7.36,0,.62.2,1.32.32,1.23,1.24,1.54-1.3,5.07-1.72,8.1-1.24.45-.94,1.01-.16,1.72,0,6.12-1.03,13.32-.2,17.43,1.24Zm-55.97,56.76c-2.32.59-3.77-.16-5.65-.25-.75-.56-.33-2.31-1.47-2.48-.96-.5-1.49.53-1.72,1.49,1.68,2.27,4.74,3.15,6.38,5.45.86-.77,1.51.78,1.72,1.49-.37.37-.74.74-1.23.99-4.54-2.42-8.47-2.94-14.73-3.72-.48.59-1.38.76-1.47,1.73.51.98,2.21.74,2.95,1.49-.02-.77.74-.74,1.47-.74,2.88,2.88,5.23,6.28,8.59,8.67,1.18-.26,2.65.82,3.68,1.49,1.77-.52,3.96-1.41,5.89-.99,2.19-1.97,6.08-2.12,9.08-2.23-1.12,3.82,3.39,3.98,4.17,6.69,1.35.13,2.65.3,2.95,1.49-1.27,1.61-3.02,2.73-5.4,3.22-.33.49-.57,1.07-1.23,1.24-.29,4.3.74,6.92,3.19,8.92.04-.29.45-.21.74-.25.28-.8.46-2.7,0-3.47,1.06-1.18.81-2.43,1.96-3.72,1.88-.42,3.07-1.53,4.17-2.73,2.1-.77,4.2-1.54,5.65-2.97,3.05-.39,3.93-2.97,6.38-3.97,2.33.61,1.99,3.53,2.21,5.7.96,1.18,1.07,3.21.98,5.45-.59.31-1.19.61-1.96.74-.2,1.69.18,2.79,1.72,2.73.33-.99.24-2.4.98-2.97,4.52.87,9.44.16,10.31-3.47-2.82.21-3.94-1.31-6.14-1.74.1-.78-1.24-1.37-.74-1.73.25.16.25.57.74.5-.2-1.04-1.32-1.15-1.96-1.73.28-1.93-.32-2.98-.74-4.21.22-1.56.28-2.89-.24-4.21.9-.98.88-1.8.98-3.22.37-.29,1.1-.22.98-.99.14-3,1.55-5.75,1.23-8.43.26-.57.77-.88.74-1.73.19-1.9-1.31-2.96-.49-4.71-2.32-2.04-2.25-6.49-5.16-7.93,1.99-2.48-.63-6.06,0-7.93v.25h.25c.86.15.43-.89,0-.25v-.25h-.25c.57-4.48-1.37-8.06-1.47-12.64.1-.48.95-.2.74-.99.15-.89-.75-.73-.74-1.49,1.69.07-.62-1.17.74-1.24-1.48-1.32-.65-4.96-2.21-6.2-3.63-.69-9.35.71-13.01-.5.02.35.04.7-.25.74-1.1-.46-3.12.01-3.93-.74-.78.77-1.61.99-2.46.25.08.5-.05.78-.49.74-2.17-.52-4.85-.27-6.88.5-.81-.01-.94-.71-1.96-.5-1.35.15-3.4,1.57-4.42.25-2.17.51-6.13,1.03-9.33.5-.93.3-1.93.53-2.95.74-.14-1.36-.74-.04-1.47-.25-.62-.18.28-.78-.74-.74-.52,1.35-1.33-.13-2.7,0-.05.42.42.64,0,.74-4.46.18-6.35.61-10.56,0-2.11.85-5.17.73-7.86.99-.97-.77-1.84-.12-3.44-.25-.47.1-.19.96-.98.74-2.97-.28-6.48.65-7.85-.74-1.06.33-3.39.45-4.42,0-.51.56-1.26.88-1.96,1.24-1.54-1.27-3.72-.03-5.89-1.24.05.54-.2.79-.74.74-2.87.31-5.62-.51-8.59.25-.65-.33-1.88-.08-2.21-.74-.56.16-1.48.49-1.96,0-1.83,1.56-4.63.4-6.63,1.24-4.35-1.03-8.55.07-13.26,0-.7-.04-1.02-.45-1.72-.5-1.64-.24-3.25.59-3.68-.5.27.78.16.7-.49.99-4.11-.85-7.99.47-12.27.25-1.11-1.35-3.88-.63-4.91.25-.71-1.25-2.88-.3-4.17,0-2.91-.31-6.24-.02-8.84-.5-.47.11-.44.71-1.23.5-.85.2-.94-.37-1.72-.25-3.96,1.55-9.6-.24-13.26.74.34,7.77-.75,13-.74,21.07-.08.58-.85.46-.74,1.24.19,3.02-1.1,6,0,8.92,1.17-.47,1.34-1.95,1.23-3.72,1.08-1.49,1.79-3.56,1.23-5.45,2.03-2.5,3.29-5.76,6.14-7.44-.17-1.08.71-1.1.74-1.98,1.33-.56,1.82-1.96,3.93-1.73.13.37.36.62.49.99-1.06,2.39-.33,5.72,1.72,6.44.48-.23,2.5.11,2.95.74.17,1.25-.51,1.63-1.72,1.49-.55.76-1.21,1.43-1.96,1.98-.67.02-.49-.41-.98,0-1.15,1.65-2.2,3.4-4.42,3.96.51,1.66-1.31,2.7-2.45,3.47.03,1.1-.69,1.46-.49,2.73-3.18,4.93-3.45,11.45-3.68,19.08,1.49,1.74,2.15,4.72,1.96,7.44.77,1.04,1.12,2.5.98,4.46-.46,1.73-5.82,4.01-5.89,5.45-.08,1.7,1.66,1.95,3.93,2.23,2.87-.95,5.14-3.85,3.68-7.68.36-.13.62-.37.98-.5,2.87,1.65,3.6,5.46,8.84,4.71,1.38.7,2.57,2.2,4.42,2.48,1.88.29,4-.71,5.89.25,2.96-1.03,5.66-.81,8.35-1.98,1.33-3.03,4.89-3.81,5.65-7.43.07-2.52-.11-5.73.25-8.68-.38-.76-1.79-1.59-2.21-.25.44.36,1.23-.43.98.99-.62.27-.95-1.16-.98,0,.67,1.74-.72,3.12-.25,5.45-.85.29-.71,1.59-1.23,2.23-.55.27-1.23.41-1.72.74-1.23,3.39-5.66,3.53-9.08,4.71-3.49-.45-6.68-.05-10.07-.25-1.48-1.89-4.11-2.62-4.91-5.2-1.56,0-1.89-1.23-2.95-1.73-.99-2.12-2.87-4.71-3.44-7.44-.26-1.25-.06-3.05-.25-4.46-.31-2.34-.09-4,.49-6.44.63-1.09,1.33-2.12,1.23-3.96,1-.85,1.06-3.83,3.19-2.73-.21,1.11-1.92.71-1.96,1.98.22.44.69.63.49,1.49,1.9-.62,2.98-3.82,1.72-5.45,1.15-1.98,3.22-3.03,4.17-5.21,1.77-.36,2.42-1.85,4.42-1.98,1.5-1.55,3.73-2.35,5.4-3.72,1.82-.64,4.15-.76,5.4-1.98.4-3.11-1.98-4.55-4.17-2.97v-.25h-.25c.04-.75-1-.32-.24,0v.25h.24c-1.64.21-3.96.48-4.17-1.49-.76-.19-.3.86-1.23.5-1.05-.51-2.06-1.05-2.46-2.23-1.63-.34-3.37-.57-3.68-2.23.68-1.74,4.41-2.52,5.89-1.24.51,1.05-.7,3.41,1.23,3.47.63-.52.9-1.41.74-2.73,1-2.38,5.08-1.65,8.1-1.98.86.78.97,2.33.98,3.96,1.3,1.39,2.53,3.25,2.7,5.7.12,1.71-.99,3.49,0,4.96-.46,1.11-.74,2.39-1.23,3.47.51,1.38.26,3.59-.25,4.71.94,2.74.5,5.44.49,8.92.71,1.07.76,1.34.98,2.97,1.66.97,2.47,2.8,4.17,3.72.28.54.28,1.37.98,1.49,1.47.16,1.81-.82,3.19-.74,2.95-3.37,3.59-10.37,1.23-14.62,1.15-2.78-1.12-4.54-.25-7.93-.94-.87-1.23-2.4-2.21-3.22v-1.49c-2.23-2.13-2.57-6.16-5.89-7.19.23-2.3-2.83-1.28-2.21-3.96,2.35-.85,5.5-.89,8.35-1.24,1.13.43,1.13,2,1.72,2.97,1.47-.16.82-2.48,2.21-2.73,3.47-.21,6.37.98,8.84-.25,2.66,1.21,5.4-.27,8.35-.25,1.04.94,3.87.06,4.91.99,1.59-.88,3.65-1.27,5.89-1.49.66.41,1.17.97,1.47,1.74,1.03.05.76-1.22,1.96-.99,1.21.59,2.12,1.5,2.7,2.73.67,9.29-.23,14.42.98,23.3.12.78-.75.56-.49,1.49.98,2.51-.05,4.87-.25,7.43-.29,3.71.35,7.26.49,11.4-.26.64-.89.92-.98,1.73.75,1.34,0,2.93,0,4.46.01,2.29,1,4.62.49,6.94,1.45,2.26-.35,5.97.74,8.43-.13.69-.36,1.29-.49,1.98.16.25.56.26.49.74-.73,2.95.25,6.14,0,9.42.08.57-.71.27-.74.74,1.89,3.47.39,9.29.49,13.38.46.36,1.09.55.98,1.49-.51,1.62.09,2.43.49,3.72-.74,1.68-1.24,5.17,0,6.69-.18,2.06-.36,3.88.25,5.95-1.3,2.21,1.08,5.47-.25,7.68.14.52.61.71.49,1.49-.91,1.9-.79,4.2-.49,6.2.54,3.52-.55,7.42.49,10.91-1.45,1.91.97,5.02,0,7.19-.24.53-.84.3-.98,1.24.38,3.06-.08,4.95-2.45,5.7.32.77-.07.71,0,1.73-1.1-.28-.65,1-.98,1.49-2.88,1.79-3.95,5.15-7.12,6.69-1.84.9-3.24,3.25-6.38,3.22-.5,1.15-1.37,1.93-2.7,2.23-.35-.05-.09-.74-.49-.74-.67.56-1.16,1.31-1.96,1.74-.75.18-.89-.26-1.47-.25-1.01,1.46-3.26,1.67-4.42,2.97-.69-.05-.31-1.18-1.23-.99-1.45,1.67-5.88.34-6.14,3.22,1.35,1.07,3.11-.94,5.4-.49.46-.2.9-.42,1.47-.5,3.22,1.06,6.4-1.35,8.84.25,2.11-.54,4.58-.82,7.61-.99.17.49,1.46-.15,1.23.74,1.66-.39,3.21-.88,4.42-1.73,1.26.13,2.15.63,3.44.74.88.06.9-.74,1.72-.74,3.62-.23,9.14.84,12.77-.25.16.33.53.46.98.5,4.05-1.19,6.02-.51,10.8-.74,1.54,1.37,3.17-.91,5.89-.74.55.03,1.09.48,1.72.5,2.95.08,6.16-.42,9.58,0,.58.08.46.86,1.23.74,1.62-1.04,2.82.36,4.17-.74,6.06-.17,13.04,1.13,18.41.25.71.51,2.48.76,2.7-.5-.44-.96-1.12-.55-2.21-.49.04-.54-.2-.79-.74-.74-1.74-.4-3.27-1-5.16-1.24-.53,1.27-4.1.98-4.17-.49,1.17-1.05,4.4-.02,5.4-1.24,2.01.38,3.42.05,5.65-.25,2.29,1.31,6.12,0,7.12,2.23,2.68-.69,3.14,1.51,4.91.99,1.01-2.22-.13-5.36.98-7.68,1.27-.24,2.31-.41,2.7.74-.17,1.86.2,4.73.49,7.44,3.25,1.26,4.77,4.27,6.88,6.69,1.78-.93,2.03,1.27,3.19,1.74h-.25v.25c-.38.13-.02.26.25.25h.24v-.25c.67.81,1.83,1.13,2.46,1.98-.39,1.2-.25,2.52.25,3.47,1.05-.35.97-1.83,2.21-1.98-.12-.94.1-1.55.74-1.73.87.11,1.08.9,1.72,1.24,1.11-.41,2.46,1.14,2.7,0,.83-1.08-1.51-.67-1.47-1.73-.26-1.34.66-1.48.49-2.73h-1.23c-.46.77-.33,2.14-1.23,2.48-.9-.16-.6-1.54-1.23-1.98-.92-.15-1.77-.36-2.21-.99-.24-1.01.61-1.59,0-2.23-1.55-.32-1.51.96-2.21,1.49-.22-.93-1.43-.87-1.96-1.49-.73-2.98-4.36-3.04-3.68-7.44.93-1.37,2.13-2.47,4.66-2.23,1.51,1.87,3.18,3.56,4.42,5.7,3.13.72,4.6,3.12,7.37,4.21,2.49,2.7,4.41,5.96,9.33,6.2.65.81,1.69,2.34,2.95,1.74.55-2.55-1.55-4.51-1.72-7.68-1.03-.28-1.69-.93-2.21-1.73v-1.98c-.54-.53-1.36-.77-1.72-1.49-.71-1.93-2.46-2.8-2.45-5.46-.51-1.14-1.93-1.36-1.96-2.97-1.15-.75-2.95-.82-3.68-1.98.34-.32.24-1.08.25-1.73,1.84-1.89,2.76-4.17,3.19-6.94-.3-1.4-.45-1.49,0-2.73-1.27-1.98-.56-4.63-2.46-5.7,1.07-.84-.59-.77-.49-1.98.55-2.03-.54-2.82-.25-5.21-2.41-2.62-2.72-8.65,0-11.4,2.76-1.4,9.01-2.31,9.82,1.49-.29,1.78.63,2.34.98,3.47.36,2.59-.51,3.95-1.23,5.45,2.31.96,3-2.03,3.19-4.21.19-2.18-.57-4.64-.49-6.2-1.32-.65-1.49-2.46-2.46-3.47-2.31.09-3.64-1.92-5.65-1.98-2-.06-3.5,1.7-5.89,1.73-.31.93-.93,1.53-1.72,1.98v1.74c-2.18,1.06-1.78,3.73-2.7,6.69-.19.62-.7.92-.74,1.49-.15,2.2,1.43,3.82,1.23,5.95-.43.22-.41.91-.98.99-3.4-.2-4.87-2.35-8.34-2.48,0,1.08-.89,1.25-.74,2.48,1.89.2,3.39,7.09.49,5.45h.25v-.25c.47-.17-.27-.38-.25,0h-.25v.25c-.68-2.29-2.03-3.89-2.95-5.95-.78.12-.87-.45-1.72-.25-1,.78-.31,2.33.25,2.98.83,4.89-2.1,5.98-3.93,8.18-2.73.23-3.68-.91-5.4-.5-.54-.04-.53-.62-.49-1.24-.76-.19-.47.68-1.23.49-.84-.97-1.77-1.85-3.44-1.98-.1-.47-.7-.45-.49-1.24-2.27-.19-2.51-2.42-4.66-2.73-.1-.68-1.13-1.06-.49-1.73-1.48.63-2.74-.56-3.19-1.73-1.24.17-1.22-1.08-2.21-.5-1.76-2.45-5.66-4.02-4.66-8.43-2-2.51-1.38-6.46-.25-9.42-.64-.61-1.2.24-2.21,0-.3.77-.74,1.4-1.72,1.49-.11,1.29-.7,2.1-1.72,2.48-.23,1.51.02,3.49-1.47,3.72-1.04-.03-1.4-.73-1.96-1.24.65-3.26-1.81-4-1.47-6.2-.5-.75-1,.04-1.72-.5-.81-2.07-2.59-3.17-2.46-6.2-.7-.12-.94-.71-1.23-1.24-.22-2.29.58-3.55.49-5.7,1.64-1.31,3.8-2.12,4.17-4.71h-2.21c-.73.66-.9,1.79-2.21,1.24-.87,1.35-2.08,2.36-3.19,3.47-.48,2.16-.43,4.86-1.72,6.2.24,1.8-.77,4.45.49,6.2.04.33-.83.92-.25.99,1.22.09,1.21,3.56,1.72,5.21,1.3.42,1.26,2.2,2.21,2.97,2.38.15,3.26,1.83,4.42,3.22-.19.72-.39,1.43-.98,1.73-1.08.24-1.67-.14-2.45-.49-.1-.05-1.06-.51-.98-.5-1.32-.19-.67.19-1.96-.5-.78-.41-1.5-.62-1.72-1.73-.89.17-1.07-.17-2.46-.5-.14.44-.13,1.03-.49,1.24.52,1.54,1.68,2.44,1.72,4.46,2.04,1.33,3.14,3.6,6.14,3.97,1.24-.83,2.7-.25,4.42-.25.81.75,1.07,2.06,1.47,3.22-1.09.2-1.63-.17-2.21-.5-3.21-.46-3.97,1.8-5.89,3.22.09,1.74-.77,2.52-1.72,3.22.12,1.94-.94,2.69-.74,4.71,1.9,1.46,2.37,4.39,4.17,5.95,1.78-.14,1.85,1.44,3.19,1.73,4.66.84,9.76-.02,12.03-2.97-.44-.89.61-3.15-.25-3.72-2.06-.51-1.3,1.83-2.45,2.23-2.96,1.21-5.62-.72-8.84-.74-.43-.53-.55-.73-.25-1.49-1.85.61-3.65-3.7-2.7-6.44,1.58-.85,4.1-3.42,6.63-3.72,1.11-.13,3.57,0,4.17,1.49,1.66-.67,2.07.04,3.68-.99,1.15.41,2.47.64,2.45,2.23-.29.94-1.31,1.16-.98,2.73.41.33.82.66,1.72.49.39-1.01-.3-3.29,1.23-3.72,2.02,1.1,3.22,3.03,5.65,3.72.43,1.14,1.91,1.21,2.21,2.48,2.91.62,4.04,3.03,6.38,4.21,1.18-.05.93-1.54,2.46-1.24,1.74.97,1.1,2.95,1.96,5.2-.49-.08-.77.05-.74.5.71.74.42-.62,1.23-.5-1.45,2.25.82,4.47.24,6.44-2.84-.35-4.63-1.76-6.63-2.97-3.18.03-5.39-2.11-7.86-.74-.92-1.31-3.53-.19-5.16,0-.17.99-1.08,1.22-1.47,1.98-2.01.76-3.98,3.72-6.87,1.98-.27.06-.17.49-.49.5-1.82-1.05-4.69-1.05-6.38-2.23-.99.17-1.4-.24-2.21-.25-1.91-2.23-5.73-1.82-7.12-4.96-.57.08-.94-.04-1.23-.25-.12-1.21-1.61-1.02-1.23-2.73-1.39.08-1.06-1.57-2.21-1.73.06-.27.49-.17.49-.5-4.25-1.46-1.03-9.09-3.44-12.14-.02-1.01.4-2.6.73-4.46-.9-1.16-.04-2.83,0-4.46-1.45-5.38.73-11.94-1.23-16.61.42-.9.82-1.81.98-2.97-.11-.47-.7-.45-.49-1.24.3-5.5-.49-10.46-.25-15.37-1-1.84-.25-4.13-.98-5.95.25-2.39.78-4.2.98-6.69-1.03-.66-.66-1.19-1.23-2.23,1.13-3.71.19-9.78,1.72-12.39-1.4-.56-1.2-2.76-1.47-4.46.58-3.07-.02-5.84-.74-8.92.3-.69.81-1.16,1.23-1.73-.72-3.31-.01-8.31.25-12.14-.16-.25-.56-.26-.49-.74.47-1.44.26-2.51.74-4.21-.94-1.09-.7-3.28,0-4.46-.13-3.45-.59-5.87,0-8.92-1.1-2.44-.78-6.67,0-9.67-.36-.22-.95-.2-.74-.99.94-3.1.85-7.24-.49-9.67.37-1.73,1.21-2.27.49-3.96.56-2.02,3.98-2.15,5.65-.99,1.63-.31,2.46.04,3.68-.74,2.15-.06,4.67.26,6.14-.5,4.24.25,8.54.51,11.29-1.24,1.37.68,3.49.6,5.16.99,1.03-.04,1.46-.68,2.45-.74,1.86-.24,3.69.9,5.65.99.91.04,1.82-.39,2.94-.5,1.93-.17,4.28.39,5.89.25,1.27-.11,2.74-.72,4.17.25,2.04-.44,3.99-.25,5.4.25.72.23,1.32-.25,1.96-.25,5.21-.01,8.24,3.03,11.29,5.45.84,2.37,3.38,3.04,4.17,5.45.06,1.04-.4,1.17,0,1.98,1.75.55,1.67,2.94,2.7,4.21h-.25v.25c-.42-.09-.46.19-.49.5h-.25v.25c-.88-.18-1.19-.95-2.45-.74-1.31-2.56-3.14-4.59-6.14-5.45-.86-2.11-3.97-1.94-5.4-3.47-.77.84-1.45-.5-2.21-.5-2.36.61-3.59-1.21-6.14-.5-.51-.56-1.71-.42-1.96-1.24.08.5-.05.78-.49.74-1.47.24-2.02-.43-2.94-.74-.7,1.23-2.21-.2-3.44,0-1.65.32-2.14,1.8-4.42,1.49.33-1.73-.84-.33-.98-.74-.86-.73.57-2.53-.49-2.73-1.92.71-2.21,3.05-3.19,4.71.28.29.28.88.25,1.49-1.35,2.54.44,7.41-1.23,9.17.51.22.75.73.74,1.49-.61,5.07,2.31,6.59,2.95,10.41,3.48,2.09,4.61,5.5,8.84,6.44.14-.36.38-.61.74-.74-.87-4.44-.22-9.02.74-12.89-.79-.44-1.25-1.22-1.47-2.23l.12-.12-.12-.12c.29-.04.21-.45.25-.74-.25.74-.37.62-.37.62l-.12.12c-1.02-2.24-1.13-3.27-1.72-5.2-.05.32-.73.32-.74,0,.28-.53.7-2.91-.49-2.73-.85-.03-.39,1.26-1.23,1.24-.49-.79-.72-1.11-1.47-.5.22-.72.22-.76,0-1.49-1.04.57-1.31-.72-1.47-1.74.41-.5.66-1.15,1.47-1.24,1.57.61,3.14.53,4.42-.25.78.04,1.08.56,1.96.5,1.94-.46,3.21-.33,4.66-.5,1.37,1.14,2.94,2.68,5.15,2.23,3.78,1.47,6.91,3.6,10.56,5.21.16.66.7.94.98,1.49.9-.16.94.54,1.72.5.33,1.15,1.45,1.51,1.72,2.73,3.65,1.27,4.23,5.64,6.63,8.18.35,3.72.57,7.05-.25,10.41-1.33,1.98-4.07,3.23-3.68,6.2-3.15,2.83-6.89,3.56-10.56,5.7-1.28-.62-2.52.24-4.17,0-1.75-1.13-2.86-2.89-4.91-3.72.55-.74-.68-1.33-.74-2.23-.57-.41-1.04-.93-1.72-1.24-.25-.9-1.22-1.08-1.47-1.98h-.98c-1.45-1.2-2.77-3.79-4.91-3.47-.31-1.01-1.54-1.09-2.46-1.49.42,0,.64-.19.74-.5-2.33.52-3.37-1.93-5.4-2.48l.12-.12-.12-.12c0-.38-.67-.81-.49,0l.12.12.12.12Zm22.58-57.25c-1.43-.77-.68,1.77,0,0h0Zm4.42-.25c-.19.06-.48,0-.49.25.19-.05.48,0,.49-.25Zm-31.42,4.46c-1.29.15-1.54-.11-2.46.5-.46-1.7.81-1.66,1.23-2.48-.54-.36-.65-1.16-.74-1.98h-1.96c-.36,1.13-1.27,1.69-.98,3.47.46.51,1.28.29,1.47.5-1.19,1.2-.91,3.17-.25,4.71,2.43.04,2.33-2.39,1.72-4.21.69-.62,1.75,1.12,1.96-.5Zm-19.88-3.47c-.95.53-1.89,1.07-1.96,2.48.07.51.66.49.74.99,2.5.67,3.29-3.1,1.23-3.47Zm-95.5,1.74v-1.49h-.98c-.11.93.52,1.13.98,1.49Zm121.52,1.49c1.47.39,1.63-2.54.74-2.97-.31.93-.98,1.49-.74,2.97Zm-12.52-2.73c-.19.05-.48,0-.49.25.19-.06.49,0,.49-.25Zm6.38.25c-.19.05-.49,0-.49.25.19-.06.48,0,.49-.25Zm29.21,0c-.19.05-.49,0-.49.25.19-.06.48,0,.49-.25Zm-3.19.49c-.59.83.82-.6,0,0h0Zm-88.62,1.49c.53,1.36.81,2.98,2.21,3.47,1.06-.42,1.52-1.44,1.96-2.48-.76-.39-1.2-1.1-.98-2.48-.92.02-.7.28-1.47,0,.07,1.15-.94,1.2-1.72,1.49Zm-21.85,2.73c.63-.68.7-2.99.25-3.97-2.35.15-2.46,3.63-.25,3.97Zm12.03.25c1.16.22,2.12.31,3.44,0-.42-.32-.96-.51-.98-1.24.39-.35.63-.85.74-1.49-.14-.52-.52-.8-.74-1.24-2.96-.41-2.1,2.21-2.46,3.97Zm93.29-3.47c.04.7.43,1.06,1.23.99.21-.29.32-.66.25-1.24-.73-.3-.84-.07-1.47.25Zm-117.1.74h.49v-.99h-.49v.99Zm151.72-.99c-.76.8-2.82.3-3.44,1.24.04.76,4.39,2.1,4.91.25.08-1.08-.68-1.3-1.47-1.49ZM24.3,13.97c.92.51,1.27-.36,1.96-.74-.19-.8-.34-1.64-.74-2.23h-1.23c-.33,1.06-.52,1.77,0,2.97Zm164.24.74c.61.21,1.32.32,2.21.25.78-.77.51-2.82.25-3.97-3.05-.8-3.81,1.66-2.46,3.72Zm-152.7-2.73c.71.36.71-1.11,0-.74v.74Zm7.36.74c.34-.4.87-.61.74-1.49h-.74c-.19.17-.54,1.38,0,1.49Zm23.81.99c.11-.8.47-1.34.49-2.23-1.92-1.4-3.34,2.81-.49,2.23Zm80.77-1.98c-.25.03-.5-1.07-.74-.25.25-.03.5,1.07.74.25Zm-93.53.99c.46.7,1.95.6,1.96-.5-.28-1.19-1.92-.6-1.96.5Zm112.44,1.74h1.47c.42-.8.35-2.91-.74-2.97-1.66-.37-1.46,2.42-.74,2.97Zm28.23-2.23c.25,1.73.38,3.59,1.72,4.21,1.42-1.96,1.69-6.48-1.72-4.21Zm-87.89-.25c-.64,1.39.17,4.06,1.47,4.96,2.48.11,2.11-3.57,1.47-5.2-.82.26-2.13.08-2.95.25Zm52.78,3.96h1.47c.65-.88.69-3.08,0-3.96-.34.64-1.5.05-1.96,0,.72,1.29-.4,3.16.49,3.96Zm-81.01-3.22h.49v-.5h-.49v.5Zm36.58,2.23c-.64.89,0,2.21.25,2.97,2.8.27,2.67-2.54,1.72-4.21-1.54-.33-2.08-.5-3.19-1.49-1.01,1.46,1.07,1.65,1.23,2.73Zm11.05-2.23c.31.01.34.32.74.25.01-.43-.19-.63-.49-.74,0,.25-.2.29-.24.5Zm18.41-.25c-.32,1.39-.25,2.58.24,3.72,1.35.12,2.28-.17,2.95-.74v-1.98c-1.29-.25-1.67-1.65-3.19-.99Zm57.2.25c0,.9.72,1.09,1.72.99-.18-.76.42-.73.25-1.49-1.12-.3-.96.68-1.96.5Zm-64.81,4.96c.93.21,1.18,1.12,2.45.99,1.57-.74,1.02-2.82,1.23-4.46-1.08.35-.66-.82-.74-1.49-5.12-1.43-.95,3.2-2.95,4.96Zm12.28-4.21c.19-.63-.94-1.16-.98-.74.47.1.19.96.98.74Zm31.42,2.23h1.72c.62-1.08.78-1.65.49-3.22-.9.05-.94.34-1.72,0-.23.93-.83,2.5-.49,3.22Zm20.62-2.48c.01-.43-.19-.63-.49-.74.02.39-.03.86.49.74Zm-75.12.5c-.51-2.08-4.07.14-5.16-.25.56,2.24-.04,5.66,2.95,5.45-.31-1.52,2.29-4.87,2.21-5.21Zm46.4,1.49c1.22.08,1.68-.62,1.47-1.98-1.39-1.3-2.51.66-1.47,1.98Zm-138.71-1.24c.02-.39.63-.19.49-.74-.5-.22-1.1.64-.49.74Zm97.22-.74c-1.53.69-1.34,3.11-1.72,4.96.61.62.84,1.63,2.21,1.49.31-.01.34-.32.74-.25,1-1,.54-2.81.98-4.21.24-.76,1.12-1.18.98-1.98-1,.26-1.73-.12-3.19,0Zm73.89.25v.5c.6.38.72-.84.25-.74-.01.15-.04.29-.25.25ZM13.75,15.21c1.42-.05.5-1.7-.25-1.73-.14.8.17,1.15.25,1.73Zm74.88-.49c1.15.08.66-1.15,0-1.24v1.24Zm118.08-.74h.74v-.5h-.74v.5Zm-63.09-.25c-.19.06-.48,0-.49.25.19-.06.49,0,.49-.25Zm-53.27.74c-.28.02-.38-.36-.49,0,0,.25.43.31.49,0Zm-.25,4.71c1.36-.2,2.45-.67,2.7-1.98-.21-.94-.67-1.64-.49-2.97-2.15.19-3.84,3.22-2.21,4.96Zm10.56-3.72c-.29,1.39-.41,2.94.98,3.22,1.21-.45,2.62-2.99,1.23-4.46-.42.73-1.59.7-2.21,1.24Zm77.82-.25c.03-.47.81-.17.74-.74-.34,0-.54-.12-.74-.25-.07.15-.61.95,0,.99Zm22.34-.99c-.19.05-.48,0-.49.25.19-.06.49,0,.49-.25Zm-52.78,2.97c.49.25.39,1.1,1.23.99.17-.73-.51-2.34.74-1.98-.25-.57-.49-1.15-1.23-1.24.02.74.42,1.67-.74,2.23Zm20.87-1.49c.72.37.72-1.11,0-.74v.74Zm10.31,0h.49c.01-.32.31-.34.24-.74h-.74v.74Zm-131.1-.5c-1.44.61-2.66,1.45-2.7,3.47.45.95,1.45,1.34,2.7,1.49,2.01-.85,1.84-4.04,0-4.96Zm5.89,0c-.68.94.9,1.09,0,0h0Zm5.65,2.73c1.63,2.12,4.31-.01,2.7-2.48-1.55-.64-2.32,1.16-2.7,2.48Zm6.88-.5c.4,1.07,2.54,1.33,3.44.5.77-3.73-3.19-2.8-3.44-.5Zm139.69-1.98c.1,1.01-.81,1-.49,2.23.95.59,2.55.03,3.44-.25.07-1.06-.34-1.64-.74-2.23-1.01-.19-1.26.38-2.21.25Zm-184.37,0c.84.36-.95.23-.98.25-1.51.64-2.39,2.9-.74,3.72,2.91.48,3.4-3.24,1.72-3.97Zm16.94,2.73c.53.46,1.8.17,2.7.25.11-1.44,0-2.63-1.23-2.73-.19,1.13-1.73.89-1.47,2.48Zm12.52-2.23c-.31-.01-.34-.32-.74-.25-.38.61.83.73.74.25Zm62.11.74c-.1-.47-.09-1.07-.74-.99-.07.65-.08,1.24.74.99Zm-81.01,2.73c1.79.7,3.29-.64,2.95-1.98.5.14.48.75.98.25-.61-.97-1.69-1.18-3.19-1.74-.58.84-1.46,2.06-.74,3.47Zm48.61-1.24c.53.78,2.2.42,3.44.5.38-.7.68-1.63.25-2.48-1.49-.3-3.81-.49-3.68,1.98Zm-54.26.99c1.62.23,2.16-.63,1.96-2.23-1.53-1.77-3.41.58-1.96,2.23Zm141.41-2.23h.49c.28-.36.26-.6-.25-.74-.01.32-.31.34-.25.74Zm-115.63.5v.99c.65.47,2.25.26,2.94,0v-1.49c-.84-.25-1.41-.2-2.45-.5,0,.65.14,1.65-.49.99Zm22.83,1.98c.18-.23.45-.38.74-.5.2-.86-.37-.95-.25-1.74-.71-.38-2.36-.78-2.95-.5-.57,1.29.9,3.35,2.21,2.73v.25h.24v.5h.49c.04-.29-.05-.44-.25-.5v-.25h-.25Zm19.64-2.97c-.29.04-.7-.04-.74.25.29-.04.7.04.74-.25Zm86.17.25c-.28.03-.38-.36-.49,0,0,.25.43.31.49,0Zm-84.21.99c-.26-.23-.08-.91-.74-.74-.35.33-.35,1.4,0,1.74.57-.08,1.01-.49,1.47,0,.49-.28.96-2.12-.25-1.98-.03.46-.16.83-.49.99Zm-83.71,2.23c.96.14,1.42-.21,1.96-.5.18-.76-.42-.73-.25-1.49h-1.72c.24.97-.54,1.44,0,1.98Zm189.03-.5c.21.7.7,1.11,1.72.99.35-.38.52-.96.74-1.49-1.11.46-.43-.89-.98-.99-.2.79-1.62.35-1.47,1.49Zm-50.57-.25c0-.25-.43-.31-.49,0,.28-.03.38.36.49,0Zm-121.03.5c0-.25-.43-.31-.49,0,.05.3.27.15.49,0Zm67.27.74c-.06-.44.25-1.24-.49-.99-.07.57.06.93.49.99Zm68.25-.5c.29.98.29-.98,0,0h0Zm39.53,2.23c.55,2.62-1.08,3.05-.98,5.2,1.44,1.69,3.29,2.96,4.17,5.21-.56.8-.15,1.61-.49,2.48-.23.58-1.8,1.74-1.97,1.98-.15.22.16.79,0,.99-.55.7-1.52,1.13-1.96,1.73-.17.23-.05.88-.24,1.24-.24.44-1.12.75-1.23.99-.84,1.83-.49,3.89.49,4.96,1.31.1,1.71-.42,2.46.25-.11,1.68.14,3,1.96,2.73,1.25-1.27.08-3.26-.74-3.97.1-2.79,1.71-4.06,3.44-5.2,3.34-3.76,2.28-11.58-2.21-13.38-.37-.62-.76-1.21-.98-1.98.6-.82,1.51-2.01,2.46-1.73.6-.29-.5-.94.25-1.24,1.01-.47,3.08.13,2.7-1.73-1.68-.37-1.69.94-3.19.74-.8.21-.63-1.81-.98-1.24.46,2.12-1.79,1.5-2.94,1.98Zm-81.02-.5c.01-.32.32-.34.25-.74-.29.04-.69-.04-.73.25.32,0,.22.43.49.5Zm-10.07-.25c-.67.75.75-.68,0,0h0Zm-36.33.99h.49v-.49h-.49v.49Zm124.71.99c.33-.32.38-1.21-.25-1.24-.33.32-.38,1.21.25,1.24Zm-132.08-.99c-.19.06-.48,0-.49.25.19-.05.48,0,.49-.25Zm-27.25.5c-.19.06-.48,0-.49.25.19-.06.49,0,.49-.25Zm-30.69,1.24c.83.75.74-.92,0,0h0Zm-.25.74c-.59.83.82-.6,0,0h0Zm197.87,2.48c.81.01.94.71,1.96.5.51-.8,1.39-1.24,1.23-2.73-1.61-1.46-3.45.25-3.19,2.23Zm-196.4-.25c.33.08.47.35.98.25v-.74c-.56-.07-.92.06-.98.5Zm187.07,0h.49v-.5h-.49v.5Zm1.23,3.72c.96,1.84,2.63.03,2.7-1.49-1.42-.77-2.65-.27-2.7,1.49Zm-188.79.99c.23-.51.5-.98.74-1.49-.6-.14-.52-.96-1.47-.74-.65.83,0,2.02.74,2.23Zm186.33-1.49c.25,0,.29.2.49.25-.02-.39.03-.86-.49-.74v.5Zm-20.87.99c.01-.43-.19-.63-.49-.74.02.39-.03.86.49.74Zm-24.06,2.23c.66.41,1.09,1.05,1.72,1.49.79-.19,1.28-.69,1.47-1.49-.45-.7-.54-1.77-1.47-1.98-.69.55-1.01,1.46-1.72,1.98Zm-28.72-1.49c.83.75.74-.92,0,0h0Zm52.54,3.22c.25-.98.72-1.76.74-2.97-2.32-1.48-2.56,2.82-.74,2.97Zm-30.44-.25c.71.11.77.88,1.72.74.73-.58,1.37-1.26,1.47-2.48-.34-.06-.28-.54-.49-.74-.96.22-1.53.3-2.21-.25-.07,1.01-.78,1.36-.49,2.73Zm15.96-1.24c.92.1,1.44-.2,1.47-.99-.28-.21-.66-.33-1.23-.25.2.7-.35.64-.25,1.24Zm7.61.99c.8-.14,1.14.17,1.72.25-.21-.96,1.07-.4.74-1.49-.89-.59-1.73-1.23-3.44-.99-.03,1.11.54,1.6.98,2.23Zm-33.88-1.24c.34.56,1.8.19,1.47-.74-.61.12-1.48,0-1.47.74Zm-7.12,60.47v.5c.8.3.19-.8.98-.5,1.04,3.86,1.06,10.98,3.44,14.87-.21,1.5.87,3.32-.25,4.21-1.84-2.6-3.93-5.43-8.59-4.46-1.28,1.1-1.88,2.89-2.21,4.96,1.51,1.37,3.82.43,6.38.74.92.8,1.57,1.88,2.21,2.97.57.08.94-.04,1.23-.25.55,1.32,1.83,2.46,1.72,3.72,3.45.4,4.24,3.49,5.89,5.7.15,2.24.99,3.8,2.21,4.96-.12,2.85,1.73,3.71,1.72,6.44,2.24,2.12,3.5,5.22,5.65,7.44-.29,1.45.62,1.69.49,2.97,2.17,2.28,4.25,4.63,5.65,7.69.61.46,1.39.75,1.72,1.49,1.7,3.9,3.86,7.34,6.87,9.91,1.29,3.74,4.57,5.47,6.63,8.43,1.09.26,2.88.44,3.93,0,.56-.59.79-1.52.98-2.48-.74-1.41-2.8-2.22-2.7-3.72-1.13.25-1.52-1.05-2.46-1.98,0-.52,1.5-1.53.25-1.73-.98-.92-.47,1.17-.98,1.49-.36-1.04-2.01-.78-1.96-2.23.6-.22,1.26,1.11,1.23,0-.21-1.19-2.17.32-2.46-.25v-1.24c-2.04-2.15-3.39-5-5.89-6.69-.8-2.67-1.67-5.26-4.42-5.95-.81-2.65-1.77-5.15-3.93-6.44.77-1.09-1.41-.95-.74-2.72-.56.07-.92-.06-.98-.5-1.22-3.7-3.96-5.83-4.66-9.42-.91-.32-1.49-2.02-.98-2.97-.35.02-.7.04-.74-.25-.04-2.52-1.78-3.32-1.72-5.95-.46-.36-1.28-.37-1.47-.99.09-1.21-.84-2.26-1.23-3.47-.14-.45.11-1.03,0-1.49-.12-.48-.63-.8-.74-1.24-.11-.44.11-.97,0-1.49-.32-1.47-1.04-3.62-.74-3.72.04.21-.1.23-.25.25-1.96-3.72-2.32-9.06-3.68-13.38.18-3.24-.36-6.63-.74-9.17,1.16-1.84.86-5.77,0-7.68.2-.62.67-.97.74-1.73-.44-2.45-.06-5.73-.49-8.18-.18-.76.67-.48.49-1.24-.59-4.39,1.53-6.05,3.19-8.18.1-.52-.17-.66-.25-.99,1.28-1.04,1.44-2.14,2.21-3.97,2.28-.59,2.71-3.04,4.67-3.96-.21-1.04.48-1.17.49-1.98,2.22-1.07,2.76-3.83,6.63-3.22,1.72-1.41,3.56-5.04,2.7-7.44-1.85.36-2.36,2.07-4.91,1.73-2.07,2.62-5.75,3.62-7.36,6.69-1.78.43-2.24,2.2-3.68,2.97-1.48-1.46-.31-5.88.98-6.94-.52-1.56-.99-2.97-.98-4.46.23-.6.99-.66.74-1.73-.98-.17-1.52-.78-2.46-.99-.08-1.57-2.14-1.14-1.96-2.97-2.57-1.29-6.62-.46-9.08.5.19,1.21,1.47,1.32,2.46,1.73,2.63,3.13,6.22,5.28,5.65,11.65-.34.64-.34,1.64-.74,2.23.56.26.09,1.56.24,2.23-.67,3.46-1.46,7.82-1.47,11.15-1,1.72-1.46,5.49-.74,7.44-.86,3.57-1.94,6.25-1.96,10.16.81,2.16.39,5.56,1.47,7.44-.4,1.28.19,2.46,0,4.21-.4.34-.78.7-1.23.99v-.25h-.25v-.74h-.98c-.18.76.25.9.25,1.49.4.07.42-.23.74-.25v.25h.25Zm73.4-58.99h1.23c.15-1.15-.93-1.04-1.47-1.49-.04.61-.04,1.19.24,1.49Zm-79.54.5c.05-.37.59-.23.98-.25-.29-.7-.4-1.58-1.47-1.49-.32.72-.2,1.43.49,1.74Zm59.41,0c.79-.11,1.43-.38,1.23-1.49-.29-.21-.66-.33-1.23-.25-.05.91-.34.95,0,1.74Zm-4.42-.25c.68.4.68-1.07.25-.99-.08.34-.35.47-.25.99Zm-102.13,0c-1.17.9-.83,3.3.98,3.22.59-.48,1.03-1.11,1.47-1.73-.33-1.42-.77-1.89-2.46-1.49Zm74.39,2.97c1.24.63,2.42-.16,2.7-1.24-.48-.51-.69-1.29-.98-1.98-1.45.19-1.51,1.78-1.72,3.22Zm-137.97-1.98c-.51-.07-.06-1.1-.74-.99-.21.66.6,1.5.74.99Zm77.09-.74c0-.25-.43-.31-.49,0,.05.3.27.15.49,0Zm95.25-.25c-.89,1.17,1.44.33,0,0h0Zm-144.35.99c.72.21-.32.62,0,1.24.51.14.7.62,1.47.5.59-.32,1-.81.98-1.73-.45-.69-1.96-.61-2.45,0Zm44.19-.5c-.19.05-.48,0-.49.25.19-.05.49,0,.49-.25Zm61.87.25c.28.98.28-.98,0,0h0Zm-76.35.5c-.32,0-.22-.43-.49-.5-.28.51.39,1.18.49.5Zm131.09-.5c-.19.06-.48,0-.49.25.19-.06.49,0,.49-.25Zm-113.66,53.29c.13-4.75-.4-9.38.25-14.13.59.31,1.19.61,1.96.74.43-.63,1.05-1.08,1.23-1.98-.88-.96-1.85-.75-2.7-.74-.58-3.63-.37-7.61-.98-11.65-1.68-3.06-1.8-6.24-3.93-8.92-.38-1.83-.24-2.84-.74-4.71.52-2.1,2.42-3.92,1.47-6.69.99-1.42,3.48-2.56,3.19-4.46-2.31-1.15-4.6.84-6.63,1.49-.5.98-.84,2.12-1.23,3.22.35.63.23,1.75.73,2.23-.21,1.1-.81,2.19-.24,2.73-1.44-.2-1.38-1.92-2.95-1.98-.58-.81-1.39-1.4-1.72-2.48-2.04,0-3.11-.99-3.68-2.48-1.42.63-2.23-.9-3.44-1.24-2.58.47-5.05-.7-7.61-.25.27-.36.26-.61-.25-.74-.69.43-2.87-.18-3.68.74-.08,1.95.79,3.6,1.47,4.96.72,1.43,1.44,3,2.7,3.96,1.64-.24,1.87-1.91,2.7-2.97,1.5-.21,3.47-.38,4.91,0,.71.19,1.6.98,1.96,1.24,1.11.79,1.34.09,1.47,1.24.79-.05,1.04.44,1.96.25,1.64,2.14,3.71,3.85,5.65,5.7.29,2.19,2.27,2.66,2.7,4.71-.1,2.33.8,3.65,1.47,5.2-.34,2.98.99,5.44,1.23,7.93.24,2.49-.24,4.91.49,7.19-.76.81-.43,2.71-.49,4.21-.65,2.84-1,5.77-.98,8.68-.7,1.03-.44,3.02-2.21,2.97-.2-3.44.51-7.33-2.21-8.67-1.62-.24-5.11-.87-5.4.99,2.35,2.5,3.85,5.86,5.89,8.67-.07,2.8,1.38,6.15-.49,7.93-.05,2.59-1.63,3.64-1.48,6.44-.82.58-1.24,1.56-1.72,2.48v1.98c-1.35,1.61-1.6,4.33-3.44,5.45-.03,1.95-.82,3.14-1.96,3.96.07,4.03-2.33,5.58-4.17,7.68.37,2.94-.79,4.32-1.96,5.7-.76,3.29-2.07,6.01-3.68,8.43-2.17,6.57-7.42,10.03-9.82,16.36-.88.11-1.18.79-1.23,1.74-.78-.21-.76.39-1.23.49-.14,1.68-1.36,2.27-1.47,3.96-2.09.78-2.24,3.52-3.93,4.71.24,1.48-1.26,1.68-.49,2.97-.73.35-.89-.13-1.23.74-.06.72.46.86.74,1.24,1.6.12,1.39-1.57,2.94-1.49,4.53-6.83,8.31-14.42,13.75-20.32.27-.47.31-1.17.49-1.73,2.66-2.1,2.93-6.63,5.65-8.67.02-.89.38-1.43.49-2.23.75-.65,1.71-1.08,2.45-1.73v-2.73c2.88-4.29,3.91-10.43,9.58-11.9,1.8-3.55,5.61-5.08,8.1-7.93,1.35-.54,3.01-.76,4.17-1.49.24-2.31-1.55-2.56-2.95-3.22-.94,1.25-2.38.64-3.93.99-.71.86-1.42,1.7-2.46,2.23-.81,1.74-1.34,3.77-3.44,4.21-.17-.68-.04-.57-.74-.99.45-1.94,1.49-3.29,2.7-4.46.86-2.36,1.24-5.19,2.7-6.94-.43-.82.12-1.1,0-2.23.34-.56.85-.96,1.23-1.49.18-.76-.25-.9-.25-1.49,1.3-1.17.27-4.69,2.46-4.96-.34-2.2.16-4.24-.49-6.45,1.08-.76,1.92-2.57,2.7-2.23Zm37.31-52.05c.01-.43-.19-.63-.49-.74.02.39-.03.86.49.74Zm1.23.5h.74c.04-.54-.2-.79-.74-.74v.74Zm-70.7.5v-.5c-.45-.82-1.2.74,0,.5Zm91.33-.25v1.49c1.2.06,1.56-.74,1.72-1.73-.65,0-1.4-.09-1.72.25Zm-91.57.74c.29.98.29-.98,0,0h0Zm88.13.5c-1.29-1.25-3.11.22-2.7,2.23.58.08.46.86,1.23.74,1.5-.44,1.4-1.51,1.47-2.97Zm-55.23,3.47c1.6.07,2.79-1.4,1.96-2.97-1.31-.6-3.46,1.52-1.96,2.97Zm34.86.25c.53.62,1.79.51,2.7.74.31-1.24,1.37-1.95.74-3.47-1.62-.01-3.99-.1-3.44,2.73Zm6.38,1.98h.49c.66-.65.99-1.64.98-2.97-2.46-1.47-3.6,2.32-1.47,2.97Zm39.28-.5c1.06,1.5,3.28.33,3.19-1.49-1.54.95-1.79-.56-3.44-.74.29.75.75,1.33.25,2.23Zm4.17-1.49c.01-.43-.19-.64-.49-.74-.35.36-.36.96.49.74Zm1.96.25c-.72.07-.75-.56-1.47-.49-.1.82,1.32,1.38,1.47.49Zm-150.25.74h.49c.38-.61-.83-.73-.74-.25.15.01.29.04.24.25Zm183.88,1.73c.38.36.96.52,1.47.74.31-.6.61-1.2.74-1.98-1.06-.87-1.92.02-2.21,1.24Zm-33.63.99c.16.99.77,1.53,1.96,1.49.08-.58.25-1.07.74-1.24-.08.57.04.95.25,1.24.73-.07,1.49.69,1.72-.25-.95.21-1.96-1.82-1.47-2.97-1.17-1.12-2.66.68-3.19,1.73Zm-49.35-1.49h.49c.38-.61-.83-.73-.74-.25.15.01.29.04.25.25Zm48.61.25c.62.04.77-.38.98-.74h-.74c.01.34-.12.54-.25.74Zm-52.05.25c.29.98.29-.98,0,0h0Zm5.89,1.24c.52,1.22,1.36-.3,2.46,0-.13-.62,0-1.5-.74-1.49.35,1.43-1.83.3-1.72,1.49Zm66.77-1.24c.65,1.31-.47-.94,0,0h0Zm-128.15,0c-.69.46-.81,1.5-.74,2.73.72.35.85,1.29,2.21.99.78-.54,1.18-1.46.98-2.97-1.38.32-1.07-1.06-2.45-.74Zm56.71.99c.34.79.05.83,0,1.73,1.04.79,1.94.2,2.7-.49-1.01-.49-.52-1.22-.25-2.23-1.11.04-1.29,1.02-2.46.99Zm57.2.99c.54,2.09,3.74,2.17,3.44-.74-1.62-.78-2.81-1.33-3.44.74Zm-93.04,1.49c2.05,1.4,4.16-.73,2.7-2.73-2.24-1.04-3.49.66-2.7,2.73Zm-65.79-.5c.72-.55,2.28.48,2.95-.49,0-.66.09-1.42-.24-1.74-1.82-.34-3.1,1.16-2.7,2.23Zm-2.46-1.24c-.06.81.29,1.19.98,1.24.17-.55.74-1.24.25-1.73-.61-.04-.76.39-1.23.5Zm23.32,2.73c1.52.22,2.24-.39,3.19-.74-.12-.56-.49-1.27,0-1.73-1.51-1.7-3.11.54-3.19,2.48Zm4.91-1.98c.2-.95-.52-.96-.98-1.24-.1.85.07,1.41.98,1.24Zm72.91,0h.73v-.74h-.49c-.01.32-.32.34-.25.74Zm9.82.99c-.26-1.92-1.77-.69-2.95-.25.08.91-.21,2.2.25,2.73,1.95.23,2.3-1.14,2.7-2.48Zm20.38.25c.34.57.5,1.31.74,1.98,1.08-.28.81,0,1.72.25,1.8-2.26-1.09-4.79-2.46-2.23Zm19.39.5c.36,1.12,1.69,1.26,2.95,1.49-.55-1.27.52-1.36,0-2.48-1.11-.32-3.28-1.12-2.95.99Zm-98.2,2.23c1.22.08,2.82-1.64,1.47-3.47-3.22-.55-3.31,3.35-1.47,3.47Zm-11.78-2.23c-.27.03-.38-.36-.49,0,0,.25.43.31.49,0Zm122.5,1.98c-.35.29-1,.52-1.23.74-.77.77-.43,1.3-.74,2.23-.22.67-1.07,1.26-1.23,1.73-.45,1.4-.35,3.18-.49,4.46-.65.26-.83.98-1.47,1.24.12-.78-1.12-.19-1.23-.74v-1.73c-1.63-.17-.94-2.69-1.72-3.72-.77.12-.87-.45-1.72-.25-1.72,5.29-2.66,13.74,2.21,16.61,2.09.04,2.43.74,4.17.74,2.5-1.44,4.82-3.06,7.36-4.46.58-2.95.34-5.55-1.23-6.94.49-3.14.27-5.97,1.47-8.68,1.27-.46,2.49-.96,2.95-2.23-2.65-2.48-5.47-.37-7.12.99Zm-142.88,1.73c.37-1.11.99-1.97.74-3.72-3.43-1-5.05,4.45-.74,3.72Zm169.39-3.47c-.15.83-.7,1.27-.49,2.48.29.12.56.26.74.49,1.62-.02,2.43-.85,3.19-1.73-1.05-1.34-1.4-1.58-3.44-1.24Zm-199.59,1.24v2.73c1.7.18.03-1.5,1.96-.99.28-.54.63-1.01.49-1.98-.34.01-.54-.12-.74-.25-.21.79-.99.84-1.72.5Zm52.05,2.48c.35.14.6.39.74.74,2.19-.11,3.42-1.18,3.19-3.72-2.49-.2-4,.59-3.93,2.97Zm113.42-2.73c-1.08,2.02,2.9,2.42,2.7.25-.99-.53-1.41-.28-2.7-.25Zm-51.31.25v.5c.61.38.72-.84.25-.74-.01.15-.04.3-.25.25Zm-105.07,2.48c.58.08.46.86,1.23.74,1.15-.32,2.02-.93,1.72-2.73-1.56-.85-3.3-.35-2.95,1.98Zm126.92,1.49c.32.5,1.3.34,1.47.99-.58,2.14-.92,5.09,1.23,5.7.74-.16,1.02-.79,1.72-.99-.05-3.55-2.4-4.86-1.47-7.93-1.79.22-.54-1.4-1.47-1.73-1.4.91-1.39,2.08-1.47,3.97Zm-70.21.99c2.2-.07,1.96-3.25.74-4.21-3.09-.64-2.38,3.72-.74,4.21Zm14.48-4.21c-.71-.14-.58.76-1.47.25-.67,1.1-.59,2.64.49,3.22,2.79.35,2.86-3.1.98-3.47Zm-4.17.99c.01-.15.04-.29.25-.25-.03-.3-.07-.59-.49-.5.04.29-.04.7.25.74Zm39.03.5c.77.04.84-.63.98-1.24-.91-.17-1.08.39-.98,1.24Zm27.49-.25c-.05-.44.25-1.24-.49-.99-.07.56.06.93.49.99Zm-83.96-.25c-.59.83.82-.6,0,0h0Zm-37.32,2.97c.78-.04.82.66,1.72.5.63-.39.69-2.29.25-2.97h-1.47c-.58.41-.53,1.45-.49,2.48Zm36.09-1.73c.1,1.47,1.1,2.03,2.21,2.48.57-.83,1.85-2.26,1.47-3.22-.79.73-2.45-.4-3.68.74Zm83.96-.5c.28.98.28-.98,0,0h0Zm57.45,1.98c.19-.55.52-.97.49-1.73-.53-.77-1.79-.43-2.7-.25-.39.96-.39,2.81.25,3.47.92.11.87-.78,1.47-.99v.25h.25c-.07.65.34.81.98.74.04-.62.05-1.2-.49-1.24v-.25h-.25Zm-165.46-.99c-.12.94.1,1.55.74,1.73.72-.6,1.72-.91,1.47-2.48-1.05-.07-1.62.35-2.21.74Zm85.92.25c.07-.57-.06-.93-.49-.99-.39.37-.27,1.11.49.99Zm41.98,0c.88.07,1.7.06,1.47-.99-.92-.1-1.44.2-1.47.99Zm-47.38,1.98c1.17.91,2.27-.6,3.19,0v-1.98c-1.01-.56-1.44-.19-2.46-.74.11,1.15-.64,1.28-.74,2.73Zm21.36-2.23c.28.98.28-.98,0,0h0Zm-106.55.74c.09,1.48.86,2.28,2.46,2.23.72-.97-.13-2.07-.25-2.97-1.06-.08-1.79.18-2.21.74Zm152.45.99c1.07.17,1.38-.42,2.46-.25-.18-.76.42-.73.25-1.49-1.2-.17-1.63.44-2.45,0-.34.32-.24,1.08-.25,1.73Zm-61.86.74c.47.11.44.71,1.23.49-.22-1.13.41-1.4.49-2.23-1.01-.71-1.86.5-1.72,1.74Zm25.29,1.49c.8-.6,1.09-1.71,1.23-2.97-1.04-1.04-2.06.43-3.93,0v2.48c.85.14,1.09.88,2.21.74l.12.12.12-.12c.06.31.49.25.49,0l-.12-.12-.12-.12Zm-91.33-1.24c.08,2.55,3.9,1.51,2.95-1.24-1.06-.08-2.47-.35-2.95,1.24Zm78.8,2.73c.36.54.81,1,1.47,1.24.51-.14.79-.52,1.23-.74-.24-1.23.46-3-.25-4.71-.75,1.47-2.41,2.03-2.46,4.21Zm-65.55-3.72c-.24,1.12-1.21,2.12-.74,3.22.56.43,1.37.6,2.46.49.56-.67.86-1.61.74-2.97-1-.06-1.21-.92-2.45-.74Zm13.99.5c-.19.05-.49,0-.49.25.19-.06.48,0,.49-.25Zm-10.8.49c-.08,1.16,1.13.66,1.23,0-.47-.46-.62-.03-1.23,0Zm-52.05,1.24c.6,1.05-.59,1.25-.25,2.73.67.62,1.05.1,1.72.5.54-.86,1.02-1.78.98-3.22-1.49.56.04-1.65-.74-.99-.18.73-.77,1.04-1.72.99Zm-9.82-.25c.07-.34-.15-.97-.25-.5-.07.34.15.97.25.5Zm190.01-.74c-.19.06-.48,0-.49.25.19-.05.48,0,.49-.25Zm-163.99.5c-.59.83.82-.6,0,0h0Zm47.87,3.72c.17-.91.31-3.73-1.47-3.47-.89,1.64.62,2.79,1.47,3.47Zm101.63-1.24c.44,1.35,2.22,1.84,3.19.74.27-1.84-.61-2.53-1.72-2.97-.29.95-1.49.98-1.47,2.23Zm14.98-1.24c1.67-.04,2.18,1.1,3.19,1.73h.98c.36-.36.36-1.62,0-1.98-2.05,0-2.99.38-3.93-.74.05.47-.28.55-.25.99Zm-177.74-.25c-.45,1.44.94,1.03.74,2.23.78-.37,1.36-.94,1.23-2.23-.36-.37-1.61-.37-1.96,0Zm41.49-.25c-3.96-.04-5.86,1.57-7.86,3.96.36.38.39,1.09.49,1.73-.1,2.38-1.7,3.24-1.96,5.45-.72.34-.99,1.14-1.72,1.49.37,2.2-1.31,2.31-1.47,3.97.31.1.5.32.49.74,4.46,1.09,9.33,1.16,14.24,0,1.18-2.11,2.92-3.66,4.91-4.95.8.62,2.07.07,2.7-.25.8-1.82.15-3.18,0-5.21.11-.88.83-1.15.98-1.98-.37-.87-.92-1.55-1.72-1.98-1.67.74-2.82,2.71-4.91,3.22-1.35.33-2.6-.19-3.68.5-1.1-.71-.86-.47-1.96-.5-.45-.35.38-1.2-.25-1.73,1.43-.62,2.6-1.51,2.7-3.47-.22-.44-.9-.41-.98-.99Zm50.82.99c.72.36.72-1.11,0-.74v.74Zm66.28,1.73c.49.25.39,1.1,1.23.99.89-.26,1.36-.94,1.96-1.49-.21-2.18-3.82-2.84-3.19.5Zm-171.36-1.24h.74c-.04-.37.09-.91-.25-.99-.1.39-.77.21-.49.99Zm20.13,2.48c.11-.96.65-1.5.98-2.23-.13-.37-.36-.62-.49-.99-.65,0-1.4.09-1.72-.25-.44,1.42.09,2.94,1.23,3.47Zm3.93-1.24c.72.27,1.27.7,2.46.49.43-.56.12-1.86.49-2.48-1.39-.66-3.44-.06-2.95,1.98Zm166.94-1.49c.34,1.07.93.91.25,1.98.34,0,.54.12.74.25,0-.66-.09-1.41.25-1.73-.57-.11-.66-1.09-1.23-.5Zm-62.6.25c.29.98.29-.98,0,0h0Zm9.58.25c-.05,1.38.45,2.19,1.23,2.73.32-.92,1.31-1.15.98-2.73-.51-.49-1.63-.19-2.21,0Zm-121.28.5c.28.98.28-.98,0,0h0Zm90.83,0c.4,1.56-1.6.7-1.23,2.23.54.45,1.01.97,1.72,1.24.44-.8,1.65-.82,2.95-.74.39-.59.19-1.8.98-1.98.54-.16.78.7.74-.25-2.03,0-3.01-1.31-5.16-.5Zm-36.33,2.48c.86.14,1.05-1.66.25-1.73.2.86-.37.95-.25,1.73Zm123.24-.99c.25,0,.29.2.49.25-.02-.39.03-.86-.49-.74v.5Zm-122.5,1.73c.75.69.77-.87,1.72-.74-.02-.73-.56-.92-.98-1.24-.1.81-.68,1.13-.74,1.98Zm53.76-1.49c-.08-.2-.65-.3-.74,0-.16.57.96.54.74,0Zm-129.62,0c-1.83,1.26-1.16,5.06.98,5.7.59-.89,1.04-1.92,1.72-2.73-.53-1.37-.89-2.9-2.7-2.97Zm132.32,1.49c.35.64.79,1.18,1.96.99.05-1.37-.42-2.21-1.47-2.48.12.78-.75.56-.49,1.49Zm61.62,1.74h1.23c.71-.47.57-2.17.25-2.97-.92.02-.7.28-1.47,0-.45.71-.82,2.38,0,2.97Zm-182.65-2.48c-.75.83.91.75,0,0h0Zm114.16.74c-1.19,1.34.11,2.77,1.72,2.73.09-.65.59-.89,1.47-.74-.3-1.2.17-2.37-.49-2.73-.57.52-1.83,1.31-2.7.74Zm-99.43.25c-2.08-1.49-4.18,1.1-6.38.25.22.61.74.91.49,1.98,2.31.56,4.73,1.01,4.91,3.72-.58,1.07-2.73.55-3.68,1.24-2.3.19-3.59-2.14-5.16-2.97-.57-.3-1.22-.11-1.72-.49-.61-.47-.7-1.48-1.47-1.73-.36.13-.62.37-.98.49.96,4.82,4.77,6.75,7.37,9.91h1.23c.55,1.26,1.69,1.93,2.46,2.97,2.54-.52,5.5.29,8.59,0,1.34-1.2,3.28-1.81,5.16-2.48-.35-1.76.7-2.1.98-3.22,0-2.5-3.13-3.09-2.95-4.96-2.8-1.23-3.28-4.94-7.12-4.46-.23.46.74.83,0,.99-1,.02-.9-1.07-1.72-1.24Zm151.23.5c-3.33-.92-2.01,5.08-.74,6.44.18-.76-.67-.48-.49-1.24.84-.56,1.02-1.78,2.21-1.98-.21-1.37.49-1.82,1.47-1.98-.02-.73-.56-.92-.98-1.24-.02.39.03.86-.49.74,0-1.08.43-1.37-.49-1.74.07.57-.06.93-.49.99Zm-160.06,0c.28.98.28-.98,0,0h0Zm1.72.5c-.19.05-.48,0-.49.25.19-.06.48,0,.49-.25Zm57.94,3.22c1.47,0,1.96-.99,1.96-2.48-1.7-2.2-4.21,1.28-1.96,2.48Zm105.32-1.73c.33.35,1.39.35,1.72,0,.09-.84-.42-1.06-.74-1.49.74,1.14-.73.7-.98,1.49Zm-164.73,1.73c1.05.29.99-1.96.25-1.98-.29.48-.81,1.39-.25,1.98Zm97.22-1.49c-.27,1.5,1.69,1.51,1.72.25-.2-.52-1.29-.68-1.72-.25Zm81.75,4.71c2.31.65,3.21-3.13,1.72-3.96-.77-.12-.09,1.23-.98.99-1.34.1.08-1.05-.98-1.24-.29,1.41-.25,2.5.25,4.21Zm-85.92-2.48v1.98c.88-.16,1.06.39,1.72.99.15-.79.38-2.32,0-3.47-.88-.14-1.19.29-1.72.5Zm-109.74.99c-.39,2.06-.12,4-3.19,3.72.05.78-.17,1.82.25,2.23,2.15.02,2.49-1.78,3.19-3.22.64-.84,1.94-1.02,1.72-2.73h-1.96Zm143.62,0c-.19.05-.49,0-.49.25.19-.06.48,0,.49-.25Zm47.62.25c-.51.81-1.17,1.46-.98,2.97.52.54,1.55.58,2.45.74.25-1.14.7-2.11.49-3.72-.76-.65-1.14.59-1.96,0Zm-13.99,1.73c-.46.05-.54-.28-.98-.25.31.68.88,1.09,1.23,1.73.45-.6,1.45.34,2.45,0v-3.22c-1.28-.16-1.97.55-2.95,0-.12.78.44.88.25,1.73Zm-54.5-.5c-.03,1.19.65,1.65.98,2.48.73-.09,1.21-.43,1.47-.99-.57-.93-1-2.12-2.46-1.49Zm48.61,1.24c.22.44.55.77.98.99-.22-1.3,1.2-.93.98-2.23-.89-.65-1.78.4-1.96,1.24Zm-58.67,1.49c.6.37,1.91-.27,2.21-.99-.58-.08-.15-1.18-.98-.99-.48.59-1.46.68-1.23,1.98Zm47.38-1.73c-.26,1.44,1.06.1,0,0h0Zm-149.26,3.47c.88-.35,1.4-1.06,1.23-2.48-.4-.51-1.23-.57-2.21-.49-.64,1.26-.61,2.78.98,2.97Zm54.75-2.97c-.19.05-.49,0-.49.25.19-.06.48,0,.49-.25Zm.73,1.73c.3-.56.71-1.09,0-1.49-.19.17-.54,1.38,0,1.49Zm61.87,1.98c2.26,1.48.46,3.83.25,6.2.32.34,1.07.24,1.72.25.79-2.62-.08-6.36,1.47-8.68-1.04-2.39-3.72-.71-3.44,1.73v-.25h-.98c.13.36-.29,1.28.24,1.24.21-.2.15-.68.49-.74v.25h.25Zm-66.28-2.48h.49v-.5h-.49v.5Zm5.89.25c.01-.15.04-.29.25-.25-.03-.3-.07-.59-.49-.5.04.29-.04.7.25.74Zm126.68,1.49c.32.67.46,1.52,1.72,1.24.52-.9.67-2.3,0-3.47-.6.72-.98,1.66-1.72,2.23Zm-27.99-.5c.56.16,1.48.49,1.96,0,0-.74-.64-.84-.74-1.49h-1.23v1.49Zm-44.19-.25c.29.21.66.33,1.23.25.04-.71-1.24-.95-1.23-.25Zm51.06,1.24c.64,1.58,3.31-.01,2.21-1.73-1.02.29-1.87.75-2.21,1.73Zm-106.3,2.48c1.18-.58,2.62-1.81,1.72-3.72-2.76-1.09-3.33,2.43-1.72,3.72Zm104.09-2.73h.98c-.04-.29.04-.7-.25-.74.1.6-1.12-.14-.74.74Zm-61.87,1.24c.85,1.11,2.06,1.05,3.19.25.25-1.16-.98-.82-.74-1.98-1.34.05-2.11.68-2.46,1.74Zm14.24-.74h.74c.01-.43-.19-.63-.49-.74.01.34-.12.54-.25.74Zm-16.2,0c.15.59.33,1.15.98,1.24-.05-.64.52-1.14.25-1.74-.76-.18-.47.68-1.23.5Zm-94.02.74v2.48c.84.11,1.38-.1,1.96-.25,0-1.07.57-1.57.49-2.73-.58-.4-1.95.05-2.45.5Zm109.98,1.49c.21,1.21-.7,1.27-.49,2.48.94-.29.99-1.48,2.21-1.49-.01-1.89-1.7-2.09-2.7-2.97-.1,1.09.29,1.69.98,1.98Zm9.58,1.49h1.47c.7-.7,1.15-1.65,1.23-2.97-1.04-.02-1.72-.42-2.94-.25-.2.97-.57,2.64.25,3.22Zm-72.67-.74c.65.17.52,1.13,1.23,1.24.66-.72.95-.21,1.72,0-.42-.86.36-2.18-.25-3.22-1.83-.28-2.25.87-2.7,1.98Zm129.87.25c.87.12.86,1.11,1.96.99.87-.36,1.58-.88,1.47-2.23-1.11-1.21-2.81-.47-3.44,1.24Zm-153.93-1.49v.5c.6.38.72-.84.25-.74-.01.15-.04.29-.25.25Zm1.47.5c.18.56,1.04.44,1.47.74.3-1.07-1.21-1.74-1.47-.74Zm87.89.99c.47-.52,1.42-.55,1.72-1.24h-1.47c-.21.29-.32.66-.25,1.24Zm-50.57,1.24c-.12.78.75.56.49,1.49,2.48-.12,1.8-3.17,0-3.47.64,1.04-.39,1.04-.49,1.98Zm-73.65-1.24c.25,1.07.71,1.92,2.21,1.73.72-1.72-.79-2.73-2.21-1.73Zm33.39.74c-.42,1.45,1.35,3.3,1.96,3.22,1-.12,1.71-2.42,1.23-3.96-1.22.09-2.3.32-3.19.74Zm101.88-.5c-.99-.87-.58.8,0,0h0Zm-82.98.5v.99c.54.77,1.55,1.07,2.7,1.24.88-1.61-1.42-3.5-2.7-2.23Zm101.64,2.97c.97-.59,1.73-1.39,1.72-2.97-2.64-2.13-4.13,2.27-1.72,2.97Zm-108.76-2.48v2.23c1.3.8,3.88.19,3.93-1.74-.65-1.14-2.76-1.16-3.93-.5Zm-7.36,1.24c.65.07.81-.34.74-.99-.65-.07-.8.34-.74.99Zm-22.59,1.73c.74.16.86.95,1.96.74.68-.55,1.19-1.27.98-2.73-1.63-.83-3.33-.47-2.94,1.98Zm51.06-2.23c-.03.61-.04,1.19.25,1.49,1.09.11,1.34-.64,1.23-1.74-.61-.03-1.18-.04-1.47.25Zm57.69,0c.28.98.28-.98,0,0h0Zm13.01,0c-.49.67-1.21,2-.25,2.73,1.16-.24,2.01-.78,2.95-1.24-1.1.2.05-1.87-.98-1.74-.11.55-1.21.1-1.72.25Zm6.63,0c.28.98.28-.98,0,0h0Zm50.82,2.48c1,.18.85-.8,1.96-.5.08-.9-.04-1.61-.25-2.23-.61.03-.76.46-1.23,0,.31,1.6.56,1.81-.49,2.73Zm-84.7-1.73c-.9.69-.67,3.35.74,3.22.49,0,.31-.68.98-.49.33-1.72-.84-3.02-1.72-2.73Zm32.9,2.23c1.4,0,2.24-.55,2.46-1.73-.43-.64-1.26-.88-2.46-.74-.58.65-.04,1.69,0,2.48Zm-114.89.5c.53.21.55.94,1.23.99,1.39-.33,2.43-1.02,2.7-2.48-.89-1.91-4.43-1.4-3.93,1.49Zm165.95-2.48v.5c.34-.01.54.12.74.25v-.99c-.34,0-.54.12-.74.25Zm-197.62.99c.97.17.8-1.04,0-.99v.99Zm25.78-.99c-.19.05-.48,0-.49.25.19-.06.48,0,.49-.25Zm10.8.74c.5.16.07,1.25.98.99-.02-.93-.27-.71,0-1.49-.56-.07-.92.06-.98.49Zm-10.8,2.73c1.03.2.76.97,1.96.5.22-1.01,2.19-2.35,1.23-2.97-1.74.02-3.35-.41-3.19,2.48Zm110.23-1.98c.58.4.39,1.59,1.72,1.24.16-.57.49-1.5,0-1.98-.83,0-1.3.34-1.72.74Zm15.71,2.73c.79.05,1.04-.44,1.96-.25-.04-.84,1.05-1.2.74-2.97-2.37-.97-3.72,1.26-2.7,3.22Zm9.33-2.48c.01.81.42,1.23.25,2.23,1.68.29,2.16-.63,2.7-1.49-.17-1.82-1.85-1.55-2.95-.74Zm-156.38,1.24c.39.11.21.78.98.5-.14-.8.17-1.15.25-1.73-.57.25-1.14.5-1.23,1.24Zm31.42.5c.65.07.81-.34.74-.99-.65-.07-.8.34-.74.99Zm16.2-.5c-.41.25-.27,1.05-.49,1.49.66.57,1.62,1.31,2.7.74-.36-1.28.59-1.23.74-1.98-.52-.5-2.19-.77-2.95-.25Zm82.73,2.23c-1.46-.59-2.7-1.4-3.93-2.23-.86,1.39-3.98-.21-4.42,1.98,1.44,1.78,4.41,2,6.63,2.97,1.28,1.68,2.42,3.5,3.44,5.45v1.49c1.98,1.65,2.72,5.82,3.19,8.18-2.72-.49-4.47-3.18-6.38-5.21-.76,2.95-5.07,2.32-4.91,6.2.52.88,2,.79,3.44.74,4.49,1.33,6.14,5.53,9.33,8.18,1,3.33,1.33,5.83,3.19,8.18v1.49c.26.65.97.83,1.23,1.49.2,1.37.72,2.41.73,3.96.69.46.95,1.36,1.23,2.23,1.69.83,2.01,2.88,3.19,4.21,1.25,1.42,3.61,2.18,3.68,4.96.49.33,1.07.58,1.23,1.24.49,1.47.25,3.18.98,4.71.46.95,1.47,1.38,1.96,2.73.51,1.38.37,3.17.98,4.46.74,1.57,1.86,2.42,3.19,3.47.35,1.13,1.19,1.77.98,3.47,1.49,1.53,3.24,1.81,5.89,2.48,2.28-1.24,4.92.6,8.1,0,.14-.36.38-.61.74-.74.03-4.82-2.72-6.83-3.44-10.9.21-1.46-.25-2.23-.74-2.97.42.09.46-.19.49-.5-.89-.92-1.17-2.45-1.96-3.47.92-2.53-1.1-4.15-1.72-5.95.52-2.3-.51-3.32-.98-5.21.32-1.58,1.41-2.37,1.23-4.46.77-1.37,1.36-2.81,1.47-4.21.7-.53,1.36-1.11,1.23-2.48.65-.91,1.94-1.18,2.21-2.48-1.28-.85-1.86.85-3.44.5-1.72,3.23-4.64,4.96-5.4,8.92-.07.38.3.87.25,1.24-.11.76-.63,1.48-.74,2.23-.41,2.96-.32,6.49-.49,9.91.59,1.05,1.42,1.87,1.23,3.72,1.1,1.67,1.51,3.75,2.21,5.7.67,1.85,1.73,3.57,2.21,5.45-.14.36-.38.61-.74.74-2.7,0-2.43-3-4.42-3.72-.08-1.66-1.7-1.76-1.47-3.72-1.76-.87-2.07-3.2-2.7-5.2-1.08-.73-1.88-1.74-2.7-2.73-.12-1.43-1.59-2.62-.98-3.96-1.94-1.87-3.32-5.43-2.21-8.92-.34-1.22-1.12-2-1.23-3.47-.26-.93.61-.71.49-1.49-.79-6.2,3.38-10.72,4.66-16.36,2.96-.4,4.51-2.22,7.12-2.97,3.84.05,7.74-1.74,11.54-.5.38.12.79.85,1.23.99.47.15,1.08-.17,1.47,0,1.35.6,2.46,2.16,3.93,1.98.38.44.67.97.98,1.49,1.76-.37,3.26,1.67,4.42,2.73.17.9.86,1.28.98,2.23-.22,2.7,1.31,3.64,1.96,5.45-.72,1.23.1,3.03,0,4.46-1.54,2.32-3.02,4.71-6.14,5.45-1.29-1.17-2.72-2.21-3.93-3.47-.52-1.12-.49-2.81-.98-3.97-2.38,1.92-2.59,6.1-2.7,9.67,1.66,1.35,3.69,2.01,5.4,2.73,1.38-.44,1.63-.81,3.44-.5.65-.17.52-1.13,1.23-1.24,3.26,0,3.86-2.71,5.4-4.46v-1.73c3.04-2.3.91-7.47.98-11.65-2.5-3.84-5.22-7.45-8.1-10.9-2.75-.19-5.43-2.93-8.84-3.47-1.38-.21-2.7.31-3.93-.5-.74,1.15-2.96.81-4.17,1.49-2.75-1.33-4.68,1.06-8.1.99-1.68,2.11-4.37,3.19-5.89,5.46-3.02,1.08-3.62,4.6-5.65,6.69.17,1.82-.28,3.02-.49,4.46.14.52.61.71.49,1.49-.66,1.56.7,5.17-1.72,4.96-.2-4.4-.58-8.42-.49-12.89.09.28.43.63.49.25-.06-.27-.49-.17-.49-.5.32-2.08-.32-2.49-.24-4.71-.9-1.46-1.53-5.54-.98-8.92.08-.52.59-1.07.74-1.73.45-1.99.16-3.3.98-4.46.79-1.12,2.12-.96,2.46-2.23.64-1.16-.67-1.55-.98-2.48-1.14-.26-2.13.46-2.7,0-.83-.77.74-1.55,0-2.23-.72.07-.76-.56-1.47-.49-1.03,2.31-.01,5.56-2.21,6.94.26,1.42-.43,1.88-.49,2.98-.12.78.44.88.25,1.73-.57.58-.8,1.5-1.96,1.49-.06-1.02-.83-1.3-.98-2.23.87-2.28-1.24-3.04-2.21-4.21-.75-2.79-2.92-4.15-4.91-5.7l.12-.12-.12-.12v-.49c-.29-.04-.44.05-.49.25h-.25v.25Zm-56.96.99c.77.12.56-.76,1.47-.5-.24-.75-.65-1.33-.74-2.23-1.98-1.05-1.57,2-.74,2.73Zm66.53-1.98c-1.91-3.06-4.26,3.45-.74,3.47-.14-1.7,1.17-2.15.74-3.47Zm-85.43,1.73c.73-.17.82-.99.74-1.98-1.42-1-2.5,1.79-.74,1.98Zm120.78-.25c.36,1.21,1.82,1.3,2.95,1.73-.26-1.25.56-1.42.49-2.48-.65-1.81-3.21-.7-3.44.74Zm-174.06,0c.31-.29.1-.94-.25-1.24.13.36-.29,1.28.25,1.24Zm102.13,0c.19-.17.64-1.48-.25-1.24.13.36-.29,1.28.25,1.24Zm-61.86-.25v1.49c.46.2.9.42,1.47.5.71-.53,1.38-1.08,1.47-2.23-.93-.92-2.03-.18-2.95.25Zm-46.4.25v1.73c.41.42,1.44.2,2.21.25.3-.74.49-1.58.25-2.23-.75-.34-1.67-.04-2.46.25Zm156.87,1.98c1.23,0,1.98-.48,2.46-1.24-.65-.96-1.54-.22-2.46-.99-.4.8-.12,1.34,0,2.23Zm-84.2-1.98c-.19.06-.49,0-.49.25.19-.06.48,0,.49-.25Zm44.43,2.48c.83.31,1.01-1.26.49-1.49-.14.52-.61.71-.49,1.49Zm-38.79-.25h.74c.04-.62-.38-.78-.74-.99v.99Zm66.53-.74c.29.98.29-.98,0,0h0Zm-31.18,3.47c1.22-.26,2.02-2.25,1.47-3.47-2.39-.16-3.13,2.21-1.47,3.47Zm2.45-3.47c-.75.84.91.75,0,0h0Zm58.43.74c-.19.06-.49,0-.49.25.19-.06.48,0,.49-.25Zm-112.93,2.73c1.2,1.04,3.32.28,3.44-1.24-.28-2.05-4.09-1.25-3.44,1.24Zm14.73-1.98c.28.98.28-.98,0,0h0Zm67.76.74c.62-.03.95-.36.98-.99-.77-.12-1.09.22-.98.99Zm32.16,2.98c2.09-.04,2.66-1.62,3.19-3.22-.97-.32-.59.72-1.23.74-.15-.84-.64-1.34-1.47-1.49-.71.78-.64,3.08-.49,3.97Zm-100.65-3.47c.75.68-.67-.75,0,0h0Zm1.72.49c.26,1.88-.09,3.29.49,4.46.94-.29,1.32-1.15,2.46-1.24.4-.92.2-2.44.25-3.72-1.07-.7-2.57-.04-3.19.49Zm49.1-.25c-.27.03-.38-.36-.49,0,0,.25.43.31.49,0Zm-.25,2.98c.87.45,1.94.69,2.95.99-.96-1.04.34-.61.49-1.74-.6-1.04-.99-2.31-2.46-2.48-.11,1.3-.8,2-.98,3.22Zm-86.17,1.24c1.44-.29,1.91-1.54,1.96-3.22-.43-.22-.72-.6-1.23-.74-.58.89-1.43,2.6-.74,3.97Zm10.31-3.22c-.57.45-2.01,3.18,0,3.22.32-.62-.72-1.03,0-1.24,1.22.49,2.54-.84,2.45-2.48-1.13-.15-1.41.56-2.45.5Zm124.71.5c0-.75-.86-.62-1.47-.74-.14.89.73.76,1.47.74Zm-5.16,1.74c.84-.11,1.38.1,1.96.25.3-.7.3-1.53,0-2.23-1.74-.4-2.62.7-1.96,1.98Zm-13.99-.5c.04-.61.05-1.2-.49-1.24-.16.6-.5,1.28.49,1.24Zm-140.67,1.24c.44.71,1.07,1.23,1.96,1.49.22-.52,0-1.48.98-1.24-.37-.61-.06-1.92-.49-2.48-1.38.18-2.62.49-2.46,2.23Zm36.82,2.73c-1.57.26-1.72.79-2.45,1.73-.3.38-.74.42-.98.74-1.07,1.42-.13,4.15-1.72,5.45-1.24-.9-1.4-2.88-1.72-4.71-1.46-.35-1.29-2.33-2.21-3.22-.89.22-1.31-.44-1.72,0,.63,3.3,2.84,5.29,1.96,9.42-.47.11-.62.53-1.23.49.67,2.22-1,3.63-.49,6.45-1.18,1.49-1.47,3.92-1.23,6.2-1.54,1.34-.49,5.29-2.46,6.2-.33-.25-.74-.41-.98-.74.31-3.71-.21-5.54-.98-8.43-1.59-.3-1.96-1.82-2.21-3.47-1.63-1.49-2.62-3.64-4.17-5.2-1.46-.76-2.86-1.58-4.17-2.48h-1.47c-1.26-.96-2.89-1.55-4.42-2.23-3.34.48-4.45.22-7.86.5-2.57,1.86-5.3,3.57-5.65,7.68.06.76.53,1.12.74,1.73.36.63-.16,2.14.74,2.23.22-1.4-.49-2.25,0-3.22,1.35-1.36,2.36-3.07,4.17-3.96,1.51.47,2.8-1.26,4.17-1.74.88.52,2.09.7,2.95,1.24,3.09-.4,4.71.7,6.87,1.24,1.81,2.88,4.44,4.93,6.14,7.93-.15,1.89.78,2.68,1.47,3.72-.27,2.16.87,4.46-.25,5.95,1.21,1.76.82,5.12.98,7.93-.41.41-.64,1-1.47.99.43.89.98,1.66,1.47,2.48-.11.88-1.1.87-.98,1.98.78.12.87-.45,1.72-.25.32-.77-.73-1.38,0-1.73.65-.58,1.67-.04,2.46,0,.63-1.02.78-2.52.98-3.97.53-.46.65-1.33,1.23-1.73.24-2.4,1.46-3.81,2.95-4.96.27-1.71,1.2-2.76,1.47-4.46,1.25-.39,1.73-1.56,2.21-2.73.74-.24,1.31-.65,2.21-.74,1.91-1.71,2.58-4.67,6.14-4.71.47-.35.7-.94,1.47-.99.51.15,1.61-.31,1.72.25.1,1.06-.24,2.55.25,3.22,4.31.25,1.97-4.27,1.23-6.2-2.51.45-4.81-.7-7.61,0-.06-.35-.4-.42-.49-.74.72-3.49,2.51-5.89,3.68-8.92.76-.39,1.29-1.01,1.96-1.49v-2.23c.49-.6.39-.25,1.23-.5.17-1-1.04-.61-.98-1.49.37-1.21.24-2.71-.98-2.98-.85,1.87-3.23,2.19-3.68,4.46Zm64.32-3.72c.07-.34-.15-.97-.25-.5-.07.34.15.97.25.5Zm14.48,1.49c.56.43,1.37.6,2.46.5.34-.32.24-1.08.25-1.73-.87.13-1.21-.44-2.21-.75-.42.4-.61,1.04-.49,1.98Zm27,1.73c1.82.27,2.04-1.09,2.95-1.73-.95-.2-.73-1.58-1.47-1.98-2.67-.73-2.07,2.52-1.47,3.72Zm38.79-.99c1.68.8,3.56-.16,3.44-1.98-1.89-.76-3.57-.49-3.44,1.98Zm-151.22.5c.76-.22,1.71-.26,1.72-1.24-.17-.99-1.07-1.24-1.96-1.49-.18,1.37-.75,1.81.25,2.73Zm72.42-2.23c.28.98.28-.98,0,0h0Zm50.57,1.24c.08-.59.85-.46.74-1.24-1.16-.26-1.38.42-1.72.99v.5c-.2-.05-.24-.25-.49-.25-.3.88.67,1.86.49.5l.37.12.12-.37h.25l.12.12.12-.12v1.49c-.64-.07-1.06.09-.98.74.12,1.2.97,1.67,1.72,2.23.3-.94,1.07-1.4.98-2.73-.47-.6-1.38-.76-1.47-1.73v-.25h-.25Zm-56.22-.5c-.1,1.09.07,1.92.49,2.48h1.47c.43-.72.89-1.41.98-2.48-1.44-.94-1.42.64-2.95,0Zm-53.03,3.22c1.46.16,1.51-.88,2.7-1.49-.76-.06-.42-1.23-.49-1.98-.79.4-1.33.12-2.21,0-.73,1.01-.93,2.47,0,3.47Zm68-3.47c-.19.05-.48,0-.49.25.19-.05.49,0,.49-.25Zm42.47.99c.73-.09,1.21-.43,1.47-.99-.9-.08-1.26.38-1.47.99Zm4.67,1.73c.64.27.91.89,1.72.99,1.15-.54,1.25-3.25-.25-3.72-.7.7-1.01,1.79-1.47,2.73Zm-142.63-1.73c.17,1.23.61,2.2,1.72,2.48,1.01-.3,1.43-1.2,1.47-2.48-.84-.91-2.36-.84-3.19,0Zm149.26-.25c-.65.5-.3,2.01-.74,2.73.59.26,1.35-.57,2.45,0,1.96-1.68,1.48-3.82-1.72-2.73Zm9.33,1.49c-1.38.27-2.57.71-3.68,1.24-.2,1.94.38,3.09,1.72,3.47,1.94-1.01,2.06-3.87,5.16-3.72.24-.92.97-1.34.74-2.73-1.97-.79-3.53.19-3.93,1.73Zm-165.46,0c.58.83,1.58,0,2.46-.25,0-.59-.42-.73-.25-1.49-1.42-.11-2.09.54-2.21,1.73Zm38.54,1.49c.45.46,1.24.56,1.96.74.69-.96,1.23-2.06,1.47-3.47-1.35.21-1.68-.62-2.95-.5-.01,1.23-.29,2.19-.49,3.22Zm90.59-2.48c.39-.03.85.03.74-.5h-.49c0,.25-.2.29-.25.5Zm32.16,1.24c-.14-.44.3-1.46-.25-1.49-.28.26-.09,1.14.25,1.49Zm-66.77-1.24c-.19.05-.49,0-.49.25.19-.06.48,0,.49-.25Zm-118.33,1.49c.1-.47.53-.62.49-1.24h-.74c.13.36-.29,1.28.25,1.24Zm7.12,1.24c.57-.08.94.04,1.23.25.19-.55.52-.97.49-1.73-.75-.24-.99-.98-2.21-.74-.11,1.01.23,1.59.49,2.23Zm119.56,1.49c1.71.24,2.61-.34,2.7-1.73-.24-.99-1.61-.85-2.45-1.24-.34,1.26-1.08,1.69-.25,2.97Zm33.88.99c1.42.11,1.73-.9,2.21-1.73-.29-1.2-1.25-1.71-2.21-2.23-1.71,1.04-.95,2.61,0,3.96Zm17.19-3.72c-.89,1.17,1.44.33,0,0h0Zm-102.37,2.23c.59.48.75,1.39,1.72,1.49.88-.43,1.49-1.13,1.23-2.72-.56-.43-1.37-.6-2.45-.5.02.77-.3,1.18-.49,1.73Zm-56.71.99h1.23c.55-.87.3-1.36,0-2.48-2.14-.47-1.73,1.33-1.23,2.48Zm-7.37.74c1.97.25,2.7-.74,2.95-2.23-1.66-1.45-4.72.25-2.95,2.23Zm24.55-1.98c.16.83.63,1.35,1.72,1.24.28-.29.28-.88.25-1.49-.84-.11-1.38.1-1.96.25Zm79.05.74c.11-.78-.21-1.11-.98-.99-.04.7.69.62.98.99Zm-82.49,0h.74v-.74h-.49c-.01.32-.32.34-.25.74Zm160.06-.25h.49c.38-.61-.83-.73-.74-.25.15.01.29.04.25.25Zm-132.08,1.24c.78.35.62-1.48.25-1.49,0,.58-.42.73-.25,1.49Zm54.5.25c.33.74,1.11,1.03,1.72,1.49.37-1.04,1.25-1.55.98-3.22-1.79-.32-2.06.89-2.7,1.73Zm-114.89-.25c1.6-.21,1.05,1.75,1.72,2.48.57-1.24,1.45.4,2.7,0,.39-.43,1.13-.51,1.23-1.24-.34-.81-1.13-1.17-1.72-1.73-.67.73-1.14,1.66-2.21,1.98.42-1.01.02-3.09-1.72-2.73v1.24Zm153.19.5c.47,1.36,1.8,2.25,2.95.99.66-2.42-2.89-3.53-2.95-.99Zm21.6-1.24c.29.98.29-.98,0,0h0Zm20.87.49c.35,1.89.63,3.92,2.95,2.73,0-1.63,1.11-1.77.49-3.47-1.37.02-2.08.71-3.44.74Zm-168.66,0c-.21-.37-.62-.53-1.23-.49-.52,1.29,1.32,1.75,1.23.49Zm30.44,2.23c.88-.02,1.69-.12,1.97-.74-.54-.03-.11-1.05-.25-1.49-.83.39-2.22.4-2.46-.49-.57.88.21,2.16.74,2.72Zm-49.34-2.23c0-.25-.43-.31-.49,0,.28-.02.38.36.49,0Zm52.54,2.97c.68.12.69.12.98.99,3.04,0,3.27-2.17,3.19-4.21-2.42.03-3.42,1.5-4.17,3.22Zm131.34-.99c.58-.08.92-.39,1.72-.25v-1.49c-1.22-.07-1.95.34-1.72,1.74Zm-164.73-1.24v.5c.61.38.72-.84.25-.74-.01.15-.04.29-.25.25Zm84.7,2.23c1.23.09,1.57-.73,1.72-1.73-.75.18-.9-.25-1.47-.25-.29.48-.81,1.39-.25,1.98Zm77.58-1.49c.28.98.28-.98,0,0h0Zm.74.99c1.27.81,1.63-1.42,0-1.24v1.24Zm-33.14,1.49c1.58.19,1.69-1.11,1.72-2.48-1.36.03-1.66,1.14-1.72,2.48Zm-126.19-2.23c-.71.49-.71,2.73,0,3.22,1.39-.08,2.29-.66,2.45-1.98-1.27.04-1.26-1.21-2.45-1.24Zm43.94,4.46c.98.34.97,1.66,2.7,1.24.81-.67.63-2.34.98-3.47-1.65-.87-4.12-1.02-3.68,2.23Zm126.19-1.98c-.19.06-.48,0-.49.25.19-.05.48,0,.49-.25Zm-165.22,2.48c1.42.03,1.86-.93,2.7-1.49-.95-1.05-3.25-.47-2.7,1.49Zm115.63.5c.35.14.6.39.74.75,1.01.1,1.58-.23,2.21-.5v-1.74c-.61-.38-1.2-.77-1.96-.99-.12,1.03-.94,1.36-.98,2.48Zm-95.99-1.24c-.13,1.12.36,1.62,1.47,1.49.12-.78-.44-.88-.25-1.74-.57-.08-.94.04-1.23.25Zm4.91.25c0,.66-.09,1.42.25,1.74,1.64.08,2.75-.36,2.7-1.98-.86-.39-2.05-.03-2.95.25Zm3.68.25h.49v-.49h-.49v.49Zm-64.32,1.49c.8.06,1.18-.3,1.23-.99-.22-.43-.46-.86-1.23-.74v1.74Zm70.21,1.24c.98-.33,2.56-.06,2.21-1.73-1.46-.16-2.39.22-2.21,1.73Zm103.35-.25c.39-.37.18-1.02-.25-1.24-.33.31-.38,1.21.25,1.24Zm23.32-.5c.51.22,1.1-.64.49-.74-.02.39-.62.19-.49.74Zm-120.05.74c1.34-.6,1.09.77,2.46.74v-1.24c-.79-.28-1.46-.68-2.46-.74v1.24Zm-57.69-.5c.42.01.63-.19.74-.5-.42-.01-.63.19-.74.5Zm152.45,2.48c-.57-.96-.03-2.48-1.47-2.97-1.96.59-.66,4.42,1.47,2.97Zm11.54-2.97c-1.85-.02-3.5,3.46-.49,3.47.69-.37,1.7-2.81.49-3.47Zm-144.84,1.49c.04-.29.44-.56,0-.74-.04.29-.44.56,0,.74Zm138.46.49c.91.18.61-.87.98-1.24-.91-.17-1.08.39-.98,1.24Zm-139.69.5c-.81,0-1.22-.42-2.21-.25-.28.29-.28.88-.25,1.49,1.56.83,2.78-.6,3.19-1.74-.06-.38-.91-1.19-1.23-.49.14.22,1.01.91.49.99Zm148.28-.74c.37.39,1.1.28.98-.5-.46.03-.82.16-.98.5Zm12.27,1.98c.46-.64,0-2.01-.49-2.48-.3.48-.66,2.69.49,2.48Zm-66.28,0c.77-.12.56.76,1.47.49.64-.34,1.06-.91.98-1.98-.94-.88-3.13-.68-2.45,1.49Zm31.91.49c-.12.78.66.65.74,1.24,1.22-.39,2.61-1.75,1.72-3.47h-1.23c.11,1.27-1.13,1.18-1.23,2.23Zm-143.62-.49c.21-.29.32-.67.25-1.24-.57.08-.94-.04-1.23-.25.02.81.31,1.33.98,1.49Zm154.17-.99c-.19.06-.49,0-.49.25.19-.06.48,0,.49-.25Zm-162.77,1.24v1.73c.47.44,1.62.18,2.46.25.45-.57.95-2.02.49-2.73-1.13.09-2.02.43-2.95.74Zm188.3,1.98c1.32.18,1.29-1.01,1.23-2.23-.99.4-1.8-.64-1.96-.25.57.5.66,1.48.74,2.48Zm-181.67-1.74h.74v-.74h-.74v.74Zm133.8-.49c-.21,1.46.14-.99,0,0h0Zm34.86,1.98c.77-.05,1.8.17,2.21-.25v-1.49c-1.46-.15-2.33.3-2.21,1.73Zm-11.54-1.24c-1.07-.67-1.23.4-2.45.25.14.89-.29,1.2-.49,1.73.92,1.19,1.73,1.08,3.19,1.49.65-1.03-.26-2.29-.25-3.47Zm23.81.99c.11-.94-.75-.89-1.23-1.24.11.72.52,1.13,1.23,1.24Zm-200.82-.5c-.19.06-.48,0-.49.25.19-.06.48,0,.49-.25Zm169.88,1.24c.1.89.32,1.66.49,2.48,1.69.3,1.97-.82,2.95-1.24.17-1.08-.42-1.4-.25-2.48-1.18.3-2.47.48-3.19,1.24Zm-151.23-.74c-.28.02-.38-.36-.49,0,0,.25.43.31.49,0Zm-16.69,1.98c.79-.2,1.76-.21,1.47-1.49-.8.14-1.14-.17-1.72-.25.09,1.08.04,1.14.25,1.73Zm22.59.74c1.33-.22,2.85-.26,2.95-1.73-1.04-1.89-4.15-.09-2.95,1.73Zm154.91-1.24c.57,1.16,2.17-.05,1.96-1.24-.85.22-1.81.32-1.96,1.24Zm-166.45-.25v.74c.7.05,1.34.03,1.23-.74-.32-.32-.91-.32-1.23,0Zm107.77.74c.04-.29.44-.56,0-.74-.04.29-.44.56,0,.74Zm-64.32,0c-.28.02-.38-.36-.49,0,0,.25.43.31.49,0Zm-40.75.25c.29.98.29-.98,0,0h0Zm22.59.25c.25,0,.29.2.49.25,0-.25.2-.29.25-.49-.25,0-.29-.2-.49-.25,0,.25-.2.29-.25.5Zm24.55-.25c-.22-.19-.7.15-.74.25-.35.95,1.22.18.74-.25Zm51.06,1.49v.74c.47.44,1.62.18,2.46.25-.41-.66.2-2.35-.74-2.48-.05,1.03-1.76.37-1.72,1.49Zm7.37,2.97c-.3,1.02-1.22,1.41-.98,2.97.81-.58.83-1.97,1.47-2.73-.13-1.56.63-2.9,0-4.21-.83.43-1.07.07-1.47-.49-.21,1.11-.43,4.19.98,4.46Zm14.73-3.72c0,1.08.21,1.93.49,2.73h3.68c0-2.36-2.34-4.44-4.17-2.73Zm-57.94,2.73c1.24-.18,1.24.9,1.96,0,.18-.85-1-.31-.74-1.24.09-1,0-1.81-.74-1.98-.83.61-.81,2.1-.49,3.22Zm-62.36-2.23v3.72c1.55-.29,2.2-2.68,1.72-4.21-.79-.76-.87.58-1.72.5Zm64.32-.25c.28.98.28-.98,0,0h0Zm84.7,3.22c.46-.53.17-1.81.25-2.73-3.44-2.65-2.77,3.02-.25,2.73Zm19.64-1.24c1,.19.85-.8,1.96-.49.14-.8-.17-1.15-.25-1.74-1.42-.07-2.29,1.04-1.72,2.23Zm6.14-1.49c.21,1.75.04,2.4,1.47,2.97,1.61-.47.92-3.25-.25-3.72.02,1.23-.72.16-1.23.74Zm-128.89.74c.01-.15.04-.29.25-.25-.03-.3-.07-.59-.49-.5.04.29-.04.71.25.74Zm61.13.25c.64.07,1.05-.09.98-.74-.31-.01-.34-.32-.74-.25-.08.34-.35.47-.25.99Zm-98.2-.25c.39-.02.85.03.74-.5h-.49c0,.25-.2.3-.25.5Zm142.14,2.48c1.12.36,1.39,1.57,2.7,1.74,1.51-.67,1.01-2.4,1.23-3.97-2.33-.3-3.61.49-3.93,2.23Zm-113.67,1.49c.02-1.06,1.17-.97.74-2.48-.98-.08-1.11-1.03-2.21-.99-.1.8-1.09.71-.98,1.74.57.74,1.32,1.31,1.47,2.48.67.18.49-.49.98-.49v.24h.25v.25c.6.38.72-.84.25-.74.04.21-.1.23-.25.25v-.25h-.25Zm-23.81-1.73c.65.08.63-.52.74-.99-.34,0-.54-.12-.74-.25v1.24Zm27,.74c.66.36,1.8-.56,1.47-1.98h-1.47v1.98Zm16.94.25c1.26,1.12.18,4.61,1.23,5.95,2.85.4,3.27-1.66,4.42-2.97,1.14.12,1.64.33,2.7,0,.02-1.09-.02-2.13-.74-2.48-.03.63-.05,1.28-.74,1.24-.36-.05-.23-.6-.25-.99-.87.04-1.1.71-1.96.74-.61-1.21-1.65-1.97-2.21-3.22-1.64-.25-1.82.97-2.46,1.73Zm-61.62,0h.49c.77-.63-.22-1.58-.98-1.49-.39.43-1.13.52-1.23,1.24v.5c.29.29.87.28,1.47.25v-.5l.12.12.12-.12Zm11.78-.99c.05.78-.17,1.82.25,2.23h1.47c.5-.65.85-1.45.74-2.72-1.28-.3-1.56.4-2.45.5Zm92.31,0h.49v-.5h-.49v.5Zm3.44.49v.5c.6.39.72-.84.25-.74-.01.15-.04.29-.25.25Zm5.15,1.49c1.04.14,1.14-.67,1.47-1.24-.67-.55-1.54.28-1.47,1.24Zm-119.56,2.23c.35-.8.62-1.69.74-2.73-.58-.24-1.21-.44-1.96-.5-1.2,1.16-.07,3.06,1.23,3.22Zm174.3-2.73c-.32,1.09.01,1.02.49,1.74.85-.05.93-.88,1.72-.99-.14-1.28-1.31-1.39-2.21-.74Zm-163.99.99c.02-.81,1.46-.17,1.23-1.24-.75-.08-1.93.67-1.23,1.24Zm99.18-.49c.11,1.13.85,1.61,2.21,1.49v-1.49c-1.03-.43-1.18-.43-2.21,0Zm75.86-.25c-.54.75-1.41,1.73-.74,2.97h2.46c.33-1.07.13-1.8-.74-2.23-.03.2-.81.75-.74.25.58-.07-.02-.92-.25-.99Zm-163.75,1.24h.49v-.99h-.49v.99Zm-10.31,0c-.59.83.82-.6,0,0h0Zm123.49,2.97c1,.1.99-.82,2.21-.5-.08-.99.57-1.24.49-2.23-1.82-1.52-4.23.77-2.7,2.73Zm-15.47-1.98c.07-.65-.09-1.07-.74-.99-.07.65.09,1.07.74.99Zm-54.25,2.48c1.05-.25,2.43-.19,2.21-1.73-.45-1.28-2.56-.89-3.68-1.49-.09,1.66.49,2.64,1.47,3.22Zm52.54-1.73c-.12-.62-.65-.83-.74-1.49-1.45-.06-1.67,1.13-2.21,1.98,1.07.79,2-1.85,2.94-.5Zm39.03-.25c.07,1.71,1.11,3.33,2.46,2.97.04-1.36.03-2.67-.25-3.72-.97,0-1.42.54-2.21.74Zm-107.53,1.74c.76.67,3.1.44,3.19-.99-.71-1.71-3.58-1.76-3.19.99Zm56.96-1.24c.62.26,1.4-.52.73-.74-.03.47-.81.17-.73.74Zm-82.49,25.28c-.6-2.4-.73-4.85-.25-7.19-1.21-3.56-3.1-6.46-4.42-9.91-1.92-2.19-4.08-4.14-5.65-6.69-.59-.1-.53.45-1.23.25-.2-1.04-1.5-.96-2.21-1.49-2.9-1.02-5.67-.78-8.1.74-.04,2.19-1.8,2.64-2.7,3.96.77.87.52,2.78,1.23,3.72,1.24-.49,1.17-2.29,2.45-2.73,1.44.05,1.81-.98,2.95-1.24,2.29-.16,3.41.86,4.91,1.49.12,1.03.86,1.45.98,2.48,2.15.81,2.31,2.86,2.95,5.2.21.77.72,1.61.98,2.48.25.82.26,1.8.49,2.48.3.91.9,1.48.98,2.23.19,1.72-.62,3.53-.49,5.2.08,1.03,1.29,1.67.49,2.73,2.21.49,2.74,2.68,4.17,3.96-1.13,2.32-.7,6.24-1.96,8.43v1.74c-1.08,2.91-2.47,5.39-3.68,8.67.35.8.23,2.08.25,3.22-.47,1.01-1.44,1.52-1.23,3.22,1.15.89,2.64.29,3.19-.74.34-2.32-1.59-2.36-1.23-4.71.61-.21,1.9-.48,2.45,0,.39,2.61.84,3.45.25,6.2-.86.95-1.79,1.83-2.94,2.48-.83-.65-2.46-.49-3.68-.74-.54-1.19-1.38-2.08-2.45-2.73.12-1.52-.25-2.56-.49-3.72,2.04-3.39,4.08-6.78,6.14-10.16v-1.49c1.25-1.63,1.71-4.06,2.7-5.95-.33-1.95,1.34-3.46-.49-4.21-.97,0-1.02.96-1.47,1.49-1.04.19-1.43,1.03-2.21,1.49-.28.54-.05,1.6-.74,1.73-.25,0-.29.2-.49.25-1.06.08-1.63-.34-1.96-.99,0-1.08-.08-2.23.25-2.97-1.21-1.26-1.83-3.11-2.7-4.71-1.95-1.74-5.24-1.53-8.84-1.24-.81.67-1.92,1.04-2.7,1.73v2.48c1.04-.06,1.94.02,2.21.74.01,1.39-.1,2.91.98,3.22,1.7-.1.39-3.24,2.45-2.97,1.92,1.12,3.2,2.89,4.67,4.46.17,2.31-.39,5.39-.49,8.18-2.56,2.35-1.09,5.37-.74,8.67.28,2.67-.13,5.4.49,7.93.4.76,1.47.83,1.47,1.98-.1,1.22-.81,1.83-1.72,2.23-.27,2.04-1,3.62-2.21,4.71-.05,2.98-2.29,4.31-2.45,6.45-1.27.53-1.73,1.89-2.21,3.22.77.49,2-.39,2.7.5.41,2.48-.84,3.28-1.47,4.71,3.61-1.39,6.38-3.64,7.61-7.44,4.09-1.16,4.89-5.64,8.35-7.44,0-.88.82-1.83,1.96-2.23,4.34,1.98.63,8.11-1.47,10.16.12,3.43-2.29,4.3-3.44,6.44,1.41.91,1.62-1.27,2.45-1.73.84.39,1.29.43,2.21.25,2.3-1.64,2.94-4.96,5.65-6.2.09-.9.5-1.48.74-2.23,3.05-.81,2.39-5.35,4.66-6.94.87.2.86,1.28,1.96,1.24,1.35-1.66,2.31-4.35,2.46-7.19.07-1.38-.95-3.13.49-3.96,5.41,0,4.71-6.15,10.31-5.95.86-2.68,4.92-2.13,6.63-3.96,2.86.6,5.13.17,7.86,0,2.15,1.25,4.68,1.76,5.89,3.96.87,1.59.78,3.5,1.23,5.45-1.43,4.09-2.91,8.13-6.38,10.16-1.65-.29-2.92,1.1-4.42,1.24-2.49.23-3.43-1.22-5.16-2.48-.46.53-1.96,0-2.21.74-.17,2.07.82,2.97,1.23,4.46,1.36-.12,2.6.67,4.66.5.78-.21.7-1.28,1.47-1.49.29.21.66.33,1.23.25,1.7-2,5.47-1.92,6.87-4.21.58,0,.72-.43,1.47-.25,1.56-1.59,3.26-3.42,3.93-6.2.89-3.71.67-7.97-.74-11.4v-1.98c-3.04-1.64-5.57-3.79-9.57-4.46-2.24.22-3.03.69-5.4.99-.1-.48-.95-.2-.74-.99.8-2.83,4.37-2.86,6.14-4.71.85.2.94-.37,1.72-.25.56-1.25,1.6-2.02,2.46-2.97.75.18.9-.25,1.47-.25.88-1.17,1.5-2.62,3.44-2.72,1.69-1.19,2.9-2.85,4.42-4.21,1.75-.14,1.94-1.84,3.19-2.48.97.15,1.28-.37,1.72-.74.43.02,1.33-1.27.25-1.24-.36-.66-.36,1.1-.98.99v-1.24c-1.73.92-3.7,1.21-5.15,1.24-.61.41-.13,1.39-1.23,1.74-1.26.05-1.8.83-3.19.74-.06-.35-.4-.42-.49-.74,2.3-6.35,3.89-13.42,6.63-19.33-.68-1.25.29-2.12.25-3.47-1.49.05-1.91,1.41-2.95,1.24-1.44,4.08-4.25,6.78-4.91,11.65-.77,1.38-2.07,2.21-3.19,3.22-.05.19,0,.49-.25.5-.02,3.3-.55,7.35-2.7,7.68.3-4.19-.11-7.65-2.21-9.42-1.6,0-3.91-.86-4.42.74.06,2,2.03,2.08,2.45,3.72-.52,1.04-.12,3.02-.25,4.46-3.47,6.5-6.46,13.47-12.03,17.84.08.57-.04.95-.25,1.24-1.97,1.15-2.62,3.63-5.16,4.21-1.04,1.35-1.94,2.83-3.68,3.47.07,1.14-.8,1.34-1.47,1.73-3.07.64-5.39-.56-7.12-1.98-.22-3.22-.42-5.46-.24-8.67-1.55-3.01.82-5.34.49-9.17.98-1.07,1.48-2.64,1.47-4.71.88-1.26,1.56-2.72,1.72-4.71,2.02-1.76,2.72-4.86,4.91-6.44,1.4-.08,1.75-1.21,2.46-1.98-.21-1.61-1.75-1.87-1.96-3.47-.95,1.57-3.25,1.61-4.42.74-.6,1.62-1.77,2.67-2.95,3.72.02,3.49-1.83,5.09-1.47,8.92-.88,1.01-.27,3.53-1.96,3.72-1.76-1.53.23-4.38.49-6.2Zm17.92-22.3c.66.41,1.37.76,2.21.99.31-1.01,1.69-.94,1.96-1.98.02-.92-.25-1.57-.49-2.23-2.61-.32-3.36,1.23-3.68,3.22Zm-24.06-.25c.74.34,2.02.4,2.46-.25v-1.24c-1.23-.77-2.77-.53-2.46,1.49Zm6.87-.5c.78-.34.82-.05,1.72,0,.29-.74.07-.84-.25-1.49h-1.47v1.49Zm135.76-.99c.38,1.31,2.03,2.09,3.19,1.24v-1.49c-.88-.59-2.42-.07-3.19.25Zm12.03,2.48h2.46c.27-.71.44-1.54.49-2.48-1.83-1.69-4.38.77-2.95,2.48Zm-50.33-.49c1.1-.36,1.59.15,2.21-.5.12-.78-.35-.97-.49-1.49-1.52-.24-2.31.82-1.72,1.98Zm-46.4-.25c.37.61.06,1.92.49,2.48.96.14,1.43-.21,1.96-.5.16-1.21-.43-1.64,0-2.48-.5-.07-.65-.5-.98-.74-.3.61-.84.97-1.47,1.24Zm-13.75-.99c-.21.72-.37.28-.98.25-.76.81-1.22,1.91-.98,3.72.63.52,1.9.39,2.7.74-.07.5-.66.49-.74.99.29.37.62.7.98.99-1.02.66-.28,1.57-.74,2.73,2.86,2.4,3.81-2.85,1.72-3.96.47-.46.62-.03,1.23,0-.33-.83-1.24-1.06-1.47-1.98.02.93-.1,1.71-.49,2.23-.4-1.25.92-5.48-1.23-5.7Zm54.5,3.47c1.55.47,2.33-.81,3.19-.25-.73-1.3-.45-2.15-1.72-2.73-1.52.24-2.49,1.5-1.47,2.97Zm-51.8-.5c-.05,1.37.8,1.84,1.72,2.23,1.15-.74,1.62-2.17,1.72-3.96-.05-.19-.21-.29-.49-.25-.39,1.26-1.46,1.83-2.95,1.98Zm72.18,1.24c.9.25,1.47.83,2.46.99.67-1.16,1.64-1.93.98-3.22-1.6-.85-2.52.56-3.19-.99.15,1.3-.18,2.13-.25,3.22Zm-91.08-2.23c-.31-.01-.34-.32-.74-.25-.38.61.83.73.74.25Zm65.79,2.23c.77-.14,1.6-.2,2.21-.5v-1.73c-2.12-.28-2.67.43-2.21,2.23Zm-88.38-1.98c-.19.06-.48,0-.49.25.19-.06.48,0,.49-.25Zm173.32,3.22c.44-.47.81-1,.74-1.98-1.27-1.2-2.29,1.88-.74,1.98Zm-149.75-1.74c-.08.99-.01,1.83.49,2.23,1.02-.29,1.88-.74,1.96-1.98-1.09-.17-1.27-.71-2.45-.25Zm110.96,2.97c1.54-.02,2.8-.31,2.7-1.98-1.04-2.34-4.69-.14-2.7,1.98Zm-133.8-.5c.43.65,1.71.59,2.46.25.55-2.86-2.78-3.15-2.46-.25Zm15.71-.25c.34.82,1.3,1,2.21,1.24.62-1.1.7-2.98-.74-3.22-1.03.12-1.56.74-1.47,1.98Zm136.5-1.24c.25,0,.29.2.49.25-.02-.39.03-.86-.49-.74v.5Zm-14.73,1.49c.81.23,1.28-2.12,0-1.73.22.9-.43,1.32,0,1.73Zm15.96-.25c-.29-.07-.62-1.31-.98-.49.29.07.62,1.31.98.49Zm-173.32,4.21c1.01-.97,1.98-2.89,1.23-4.21h-1.47c-.08,1.7.18,3.36.25,4.21Zm38.79-3.72c.28.98.28-.98,0,0h0Zm15.71-.25c-2.09,1.03-1.88,4.38-4.17,5.21.18,1.13-.28,2.51,0,2.97,1.87-.01,2.63-1.15,2.46-3.22.96-.25,2.66-1.48,3.19,0-.25.49-1.09.39-.98,1.24.11,1.04.59,1.72,1.23,2.23,1.02-.38,1.51-1.29,1.47-2.73-.4-.34-1.27-.21-1.47-.74.27-1.87-.41-3.97-1.72-4.96Zm114.89,3.47c1.61.7,2.39-.43,2.7-1.74-.44-1.04-1.65-1.3-2.7-1.73-.77.81-.46,2.54,0,3.47Zm-48.36-2.48c-.45.62-.84,1.3-.74,2.48.87.1,1.32-.35,1.96.74.98-.41.89-1.91,1.23-2.97-.86-.54-1.31-.37-2.45-.25Zm-51.06,2.97c.35.47.76.89,1.23,1.24.92-.47,1.91-.88,2.21-1.98-.5-2.98-2.97-1-3.44.74Zm-65.79,0c1.01.3.84,1.79,1.96,1.98-.08-1.57.46-2.51.49-3.97-.73.3-.83.07-1.47-.25-.13.95-.72,1.42-.98,2.23Zm-12.52,0c1.12-.3.96.68,1.96.5v-1.98c-.32-.25-.91-.24-1.23-.5-.19.71-.5,1.32-.74,1.98Zm144.11-.25c1,.63,2.15.88,3.19,0v-1.24c-.69-.38-1.89-.23-2.7-.5-.21.54-.63.85-.49,1.73Zm-103.11-.49c-.09.92,1,.65.74,1.74,1.41-.06,2.23-.72,2.21-2.23-1.3-.46-2.24-.64-2.94.5Zm-13.99.99c.26-.57.77-.88.74-1.74-1.01-.38-1.49,1.93-.74,1.74Zm155.4-1.49c-.67.76.75-.68,0,0h0Zm10.31,0c-.51.98-.43,1.76-.25,2.97,1.03.13,1.37-.43,2.21-.49.04-.7.45-1.03.49-1.74-.22-.44-.55-.77-.98-.99,0,.88-1.22.98-1.47.25Zm-144.6.5c-.56.18-1.92-.45-1.72.49.89,1,1.23,2.56,3.44,2.23.36-.8,1.04-1.27.98-2.48-.36-.6-2.06-.71-2.7-.25Zm67.51,2.23c.36-.55.75-1.07.74-1.98-.41-.33-.82-.66-1.72-.5-.69,1-.02,2.39.98,2.48Zm-86.41-.5c.65,0,1.4.09,1.72-.25-.06-.47.27-.55.25-.99-.47-.1-.45-.71-1.23-.49-.45.38-.75.89-.74,1.74Zm169.39.5c.7.58,1.85.03,2.46-.25v-1.24c-.79-.22-.34.82-.98.74.03-.61.04-1.2-.25-1.49h-.73c-.08.83-.71,1.1-.49,2.23Zm-35.35.74c.58,0,.72.43,1.47.25.38-.36.22-1.27.25-1.98-1.25-1.14-2.57.19-1.72,1.73Zm-87.4-.74c1.21-.05,1.99.57,2.21-.74-.34,0-.54-.12-.74-.25-.72,1.06-.47.27-1.47,0v.99Zm8.35,0c.65.07.81-.35.74-.99h-.74v.99Zm97.71-.74c.28.98.28-.98,0,0h0Zm3.68,1.98c.31.68,1.33.64,2.21.74.24-.75.87-1.11.74-2.23-1.13-.41-2.83.1-2.95,1.49Zm-179.46-.25c.03,1.29,1.04,1.6,1.72,2.23,1.25-.3,2.14-1.75,1.47-3.22-1.16.22-2.42.37-3.19.99Zm39.77,0c.04-.29.44-.56,0-.74-.04.29-.44.56,0,.74Zm133.8,1.49c.69.37,1.05,1.09,1.96,1.24-.32-1.23.75-1.05.74-1.98-.08-.34-.35-.47-.25-.99-.97.58-.75-.47-1.72-.5-.44.55-.97,1.01-.74,2.23Zm-52.78.5c.17-.73.73-1.08.49-2.23-.46.06-.54-.28-.98-.25-.47.71-.94,2.46.49,2.48Zm-69.72-1.73c.42.01.63-.19.74-.5-.38.02-.85-.03-.74.5Zm74.39,1.73c.36.38,1.26.22,1.96.25-.08-1.52.82-.77,1.23-.25,0-.58.42-.73.25-1.49-1.11-.59-1.76-.22-2.95-.5-.01.81-.7.95-.49,1.98Zm-55.97.99h1.96c-.13-.96.44-1.21.25-2.23-.46-.28-1.16-.32-1.72-.5-.64.43-.5,1.64-.49,2.73Zm52.54-2.23c.33.08.47.35.98.25.06-.72-.95-.95-.98-.25Zm-113.42,1.49c.42.64.88,1.26,1.96,1.24,1.81-2.24-1.59-4.24-1.96-1.24Zm139.44-.99c-.75-1.03-3.1-.88-4.17-.25-1.46-1.41-3.61.98-2.7,2.72,2.3-.29,3.64-1.1,5.65,0,.46-.36,1.28-.36,1.47-.99-.54-.03-.1-1.05-.24-1.49Zm-110.23.25c-.08,1.49-.09,2.9,1.23,2.97.73,0,.83-.64,1.47-.74-.12-1.12-.34-2.14-.98-2.72-.15.59-1.51-.04-1.72.49Zm150,1.98c1.32.34,1.03-.94,2.21-.74,0-.66.14-1.46-.49-1.49-.04.37.09.92-.25.99-.35-.39-.62-.86-1.23-.99-.95.54-.53,1.21-.25,2.23Zm-189.03-.74c-.06,1.07,1.38.33,1.23-.25-.57-.08-.94.04-1.23.25Zm184.12.99c.57-.08.94.04,1.23.25-.12-.78.54-.97,0-1.49-.88-.06-1.28.36-1.23,1.24Zm11.05-.74c-.1.6.45.54.25,1.24.61.03,1.18.04,1.47-.25v-.99c-.46-.49-1.16-.12-1.72,0Zm-135.76,1.24c.13-.63.33-.87-.25-1.24-.39.37-.85,1.28.25,1.24Zm15.22-.99c.28.98.28-.98,0,0h0Zm55.73,2.97c.58.83,2.24.45,2.94,0,.08-.99.01-1.83-.49-2.23-1.76-.21-2.45.67-2.46,2.23Zm-21.11-.25c.47.11.62.54,1.23.5.56-.18.74-.75.98-1.24-.73-.93-2.24-.89-2.21.74Zm-105.07,2.97c.32-.59,1.1-.71,1.72-.99-.4-1.24,1.05-1.89.25-2.72-.79.78-1.84-.28-2.45-.5-1.01,1.5-1.69,3.45.49,4.21Zm120.78-3.72c.17.92-.42,1.06-.24,1.98.54.36,1.05.75,1.96.74.06-1.01.91-1.22.74-2.48-.74-.14-2.02-.56-2.45-.25Zm54.01,1.98c1.5.19,1.96-.67,2.21-1.74-1.02.29-.96-.52-1.72-.49-.35.55-.62,1.19-.49,2.23Zm-143.12,2.72c.8-.14,1.14.17,1.72.25.34-.73,1.2-.94,1.23-1.98-.7-.61-1.58-1.04-1.72-2.23-.43.02-.76-.05-.98-.25-.72,1.06-.83,3.12-.25,4.21Zm138.46-2.48c.96.29,1.92-.68,1.23-1.24-.53.91-.55-.74-1.23-.5-.35.33-.35,1.41,0,1.73Zm-27.25-.74c.61,1.12.28,3.19,1.72,3.47.69-.04.67-.81,1.23-.99-.23-1.08-.75-1.88-1.23-2.73-.65,0-1.4-.09-1.72.25Zm-97.71,2.23c.05.95.35,1.63,1.23,1.73,1.16-.34,2.24-2.63.73-3.47-.72.51-1.63.83-1.96,1.73Zm-40.26.25c.81.52,1.65.52,2.46,0,.15-1.56-.99-1.81-2.46-1.74v1.74Zm-2.45-1.24c.28.98.28-.98,0,0h0Zm-10.07,2.23c0-.74.02-1.51-.74-1.49-.01.76.22,1.26.74,1.49Zm179.21,1.49c1.48.26,1.91-.55,1.72-1.98-1.39-.87-2.44.73-1.72,1.98Zm-39.53-1.49c.35.06.41.41.74.5.08-.33.35-.47.24-.99-.46.04-.82.16-.98.5Zm-89.85,4.46c.33.24.49.66.74.99,1.91.19,3.1-.34,2.95-2.23-.99,0-.4-1.58-1.47-1.49-.78.7-2.14.82-2.21,2.23l-.12-.12-.12.12c-.94-.5-1.48.04-.98.99.51.1.65-.17.98-.25h.25v-.25Zm127.17-2.48c.28.98.28-.98,0,0h0Zm-22.59,2.73c.84-.11.74.74,1.23.99-.2-.95.52-.96.98-1.24-.43-.83.12-1.1,0-2.23-1.67-.88-2.56.56-2.21,2.48Zm-119.56-1.24c.49,1.07,1.1,2.04,2.95,1.74.2-.8.73-1.25.74-2.23-.78-.9-3.54-1.22-3.68.49Zm104.34,1.98c.96.74,1.74.24,3.19.25.01-.81.7-.95.49-1.98-.93-2.08-4.43-1.3-3.68,1.74Zm-60.39-1.98c.03-.29.44-.56,0-.74-.04.29-.44.56,0,.74Zm-61.62,1.98c.25-.58.5-1.9.25-2.23-1.05.74-1.29.25-2.21-.25-.68,1.42.09,2.87,1.96,2.48Zm172.58-.5c.7.79,1.28,1.68,2.21,2.23.58-.32.7-1.11.98-1.73-1.09-.47-1.24-1.89-2.46-2.23,0,.83-.8.84-.74,1.73Zm-109.98,2.97c1.19.04,1.27-1.03,1.47-1.98-1.31-1.54-2.77.96-1.47,1.98Zm-61.87-1.98c-.59.83.82-.6,0,0h0Zm55.97,3.96c1.66.11,2.35-.76,2.21-2.48-1.88-1.85-3.6.48-2.21,2.48Zm120.05-2.23c.02.43-.05.77-.25.99.6.39,1.05.92,2.21.74.32-.58.1-1.71.49-2.23-1.28-.3-1.56.4-2.46.49Zm-37.07,2.48c.75.32,1.15.99,2.46.74.58-.81,1.11-1.69.98-3.22-2.09.06-3.81-.4-3.44,2.48Zm-124.47,0c.56.78,1.59.87,2.7.5-.17-1,.24-1.41.25-2.23-1.75-.61-2.83.06-2.95,1.73Zm17.43-1.24c-2.12-2.54-3.83,2.88-.25,2.23.62-.75-.27-1.48.25-2.23Zm93.04.99c.13.7.36,1.29.49,1.98.95.04,1.13.84,2.21.74,1.87-1.92.04-3.36-1.23-4.21-.56.42-1.05.92-1.47,1.49Zm-4.17-.74c-.19.05-.48,0-.49.25.19-.06.48,0,.49-.25Zm0,1.24c.29.98.29-.98,0,0h0Zm-59.66,2.97c.2.62.86.78,1.23,1.24.85-.13,1.14-.83,1.72-1.24.07-2.31-2.93-2.46-2.95,0Zm111.95-1.24c-.25,2,1.02,1.64,2.46,1.49-.1-.65-.79-.69-.49-1.74-.43.02-.76-.05-.98-.25-.14.51-.47,1.03-.98.49Zm-123.24,3.22c1.54.63,3.72-.78,2.95-2.48-1.33.07-1.54.29-2.45-.25-.46.72-1.08,1.65-.49,2.73Zm93.78-1.49c.04,1.11.43,1.89.98,2.48.61-.21,1.31-.32,2.21-.25.04-1.86-1.04-2.59-2.21-3.22.11.78-.21,1.11-.98.99Zm-118.33.5c-.24,3.77,4.08,2.52,3.44-.74-1.24-1.35-1.79,1-3.44.74Zm-36.33.5c.13-.37.36-.62.49-.99-.31-.01-.34-.32-.74-.25-.33.31-.38,1.21.25,1.24Zm66.04.99c.49.34.78.87.98,1.49,1.34-.3,1.86-1.43,2.21-2.73-.67-.56-1.87-.59-2.7-.99.32,1.23-.59,1.22-.49,2.23Zm78.07.5c.69-.93-.17-2.03-.49-2.72h-1.23c.29,1.59-.71.44-1.23.99-.18,1.75,1.18,2.72,2.7,1.98v.25h.25c-.33.42-.65.83-.49,1.74,1.12,0,1.63-1.33.73-1.98v-.25h-.25Zm-85.92.25h.74c.07-.65-.09-1.06-.74-.99v.99Zm129.87,1.74c.91.17.64.12,1.72.25.05-.94,1.03-.94.98-1.98-1.01-1.06-3.28-.31-2.7,1.74Zm-113.91-.99c-.21,1.46.14-1,0,0h0Zm33.14,1.24c.65.66,1.53,1.1,1.96,1.98.48-.86.32-2.88-.24-3.47-1.35-.29-1.47.67-1.72,1.49Zm-115.14-.5c.47-.1,1.06-.09.98-.74-.36.13-1.27-.29-1.23.25.19.05.29.21.25.49Zm41.24,1.49c.32.42.51.97,1.23.99.09-.83.47-1.93-.49-2.23-.27.38-.8.52-.74,1.24Zm37.81-.25c.01,1.8,1.16,2.46,2.46,2.97.79-.53,1.22-1.41,1.23-2.72-1-.23-3-.5-3.68-.25Zm-4.17,2.48c.33.44,1.42.77,1.96.25.5-2.33-2.23-2.5-1.96-.25Zm-75.37-.5c.66,1.97-.28,5.57,1.72,6.2.33-2.31.77-4.51.74-7.19-1.37-.22-1.9.39-2.46.99Zm4.91.5c.37.34,1.41-.04,1.47-.74-.23-.43-.77-.55-1.47-.5.15.79-.46.77,0,1.24Zm115.14-.99c-.19.06-.48,0-.49.25.19-.06.49,0,.49-.25Zm75.37,2.23c-.65.07-.19-.96-.98-.74-.71,2.17,1.25,3.22,2.7,3.47.55-1.24.29-1.78.24-3.47-.38-.36-.95-.52-1.47-.74-.22.43-.08,1.24-.49,1.49Zm5.4.25c.85.2,1.04-.28,1.47-.5.14-2.04-2.62-1.02-1.47.5Zm-161.05,1.49c.08-.9-.04-1.61-.25-2.23h-.74c-.63.88-.03,2.22.98,2.23Zm128.64-.99c.28.98.28-.98,0,0h0Zm-52.54,2.97c1.3.46,1.82-2.03.49-1.98-.31.52-1.12,1.27-.49,1.98Zm-34.37.99c-.74-.32-.76-1.38-.98-2.23-.88-.14-.75.73-.74,1.49.82-.15,1.17,1.44,1.72.74Zm-18.9,1.98c1.08-.26.81.84,1.72.74.3-.68,1.25-.71,1.72-1.24v-1.73c-1.2-.7-2.81.54-3.68-.5-1,1.23,1.17,1.5.25,2.73Zm-.98-3.47c-.04.54.2.79.74.74.05-.54-.2-.79-.74-.74Zm-3.19,2.73c.34,0,.54.12.74.25.5-.68,1.35-1.38.74-2.48-1.5-.35-2.12,1.2-1.47,2.23Zm75.86-.74c.56.6.91,1.39,1.72,1.74.31-.93,1.21-1.26.98-2.73-1.26-.65-2.51-.57-2.7.99Zm66.53.25c.35.47.55,1.1,1.47.99.81-.57.49-2.09-.25-2.48-.09.82-1.3.5-1.23,1.49Zm-194.92,0c.08-.33.35-.47.25-.99h-.74c-.07.56.06.93.49.99Zm45.42,0c.18,1.51.02,2.24.98,3.22,4.16.14,2.52-5.35-.98-3.22Zm10.07.74c.01-.15.04-.29.25-.25-.03-.3-.07-.59-.49-.5.04.29-.04.71.25.74Zm67.02.74c.65.08.63-.52.74-.99h-.98c-.05.47.28.55.25.99Zm67.51-.74v2.73c.47.35.99.65,1.72.74.65-.75.89-1.91.74-3.47-1.04-.3-1.32-.09-2.46,0Zm-177.99,1.24h.49v-.49h-.49v.49Zm126.43,1.74c-.55-.69.92-.45.98.25.45-.71,1.29-1.01.98-2.48-.93.3-2.47-.01-2.7.99.36.37-.04,1.8.74,1.24Zm-77.09,1.24c.92-.14,1.58-.56,1.47-1.73-.46-.44-1.62-.18-2.45-.25-.07,1.07-.02,2,.98,1.98Zm9.82-.5c-.2.7.34.64.25,1.24,1.46.15,2.15-.48,2.7-1.24-.1-1.78-2.72-1.39-2.95,0Zm-23.32,2.97c1.91.03,2.42-1.36,2.7-2.97.76.32,1.39-.7.74-.99-1.38,1.08-3.8,1.12-3.44,3.96Zm6.87-2.23c1.26.32,1.85-.93,1.23-1.73-.77.21-1.02.95-1.23,1.73Zm53.27-1.73c-.29.04-.7-.04-.74.25.29-.04.7.04.74-.25Zm20.87,0c-.75.83.91.75,0,0h0Zm-126.68,1.24h.49v-.99h-.49v.99Zm-3.93-.25c-1.54-.36-1.74-.54-3.68-.5-.55,3.54,4.13,2.49,3.68.5Zm44.93,3.72c.69-.79.8-2.16.74-3.72-3.84-1.02-4.02,3.98-.74,3.72Zm98.44-1.98c.6.22,1.06.58,1.96.5,1.12-2.07-1.89-2.59-1.96-.5Zm52.29,2.73c1.91.03,2.92-.86,2.7-2.97-.47-.28-1.16-.31-1.72-.49-.5,1.51-.45,2.29-.98,3.47Zm-155.89-1.24c.26-.62.85-1.63-.24-1.74.15.51-.3,1.63.24,1.74Zm19.15-.99v.5c.6.38.72-.84.25-.74-.01.15-.04.29-.25.25Zm131.34,1.49c.48.67.95,1.35,1.96,1.49-.29-1.27.57-1,1.23-.74.08-.58.39-.93.25-1.73-1.27-.54-3.14-.2-3.44.99Zm-53.27-.49c-.17.92.42,1.06.25,1.98-.67.02-.5-.41-.98,0-.08.57.04.95.25,1.24,1.37-.36,2.4-1.04,2.95-2.23.02-1.65-1.42-1.61-2.46-.99Zm-79.29,1.24c-.54,1.03-.91,3.39.49,3.72-.05-.96,1.21-.59,1.72-.99.03-1.02.05-2.03-.24-2.73-.98-.18-.99-.18-1.96,0Zm-20.62.74c.77.12,1-.31,1.23-.74-.7-.05-1.34-.03-1.23.74Zm111.45.25c-.15,1.47.66,1.97,1.47,2.48,1.1-.27.86-2.58.24-3.22-1.04-.22-1.39.25-1.72.74Zm-96.23,1.73c.89.62,1.78.45,1.96-.74-.66-.63-2.15-.72-1.96.74Zm-3.44,0h.74c.07-.65-.09-1.07-.74-.99v.99Zm-51.8,1.24c1.04,1.05,3.06-1.2,1.72-1.73-.63.52-2.09.2-1.72,1.73Zm6.38-1.49c-1.65-.99-2.61,1.46-1.47,2.48,1.59.25,2.04-1.29,1.47-2.48Zm129.87.99c-.24.71-.82,1.97-.25,2.73,1.88-.42,2.12-2.48,3.44-3.47-.49,0-.31-.68-.98-.5-.4.84-.89,2.05-2.21,1.24Zm-89.61.74c.47.33.99-.18,1.72.25.38-.36.22-1.27.25-1.98h-1.47c-.04.7-.45,1.03-.49,1.73Zm152.7-1.49c-1.22.26-1.59,1.37-2.7,1.73-.13,1.66,2.63,1.46,3.44.74.09-1.16-.53-1.61-.74-2.48Zm-68,1.49c-.26,1.44,1.07.1,0,0h0Zm-89.61,2.73c.52.22.73.76,1.47.74.42-.4.61-1.04.49-1.98-1.25-.19-1.95.18-1.96,1.24Zm-35.35.49c-.21,1.47.14-.99,0,0h0Zm-6.38,1.74c.16.82.63,1.34,1.72,1.24.34-.17,1.06-1.98,0-1.98-.4.42-1.33.31-1.72.75Zm179.46.24c.07-.56-.06-.93-.49-.99-.07.57.06.93.49.99Zm-29.21-.49c-.21,1.47.14-.99,0,0h0Zm49.1,2.48c1.12.13,1.84-.13,2.21-.74.31-3.32-3.53-1.61-2.21.74Zm-154.66-.25c1.73.34,1.94-.86,2.21-1.98-1.71-.3-2.92.59-2.21,1.98Zm-6.38,2.23c.68.43,1.73-.89,1.72-1.98-1.19-2.28-3.86.94-1.72,1.98Zm117.35-.74c.07-.15.61-.95,0-.99-.07.15-.61.95,0,.99Zm1.47-.25h.74v-.74h-.49c-.01.32-.31.34-.25.74Zm20.38.5c.78.37,1.18-1.42.24-1.24-.21.29-.32.66-.24,1.24Zm-19.64.25c-.59.83.82-.6,0,0h0Zm-47.63.99h.49c0-.25.2-.3.25-.5-.31-.01-.34-.32-.74-.25v.74Zm-78.56,1.98c.6.22,1.06.58,1.96.5.31-.59.9-.91.74-1.98-.89.08-1.6-.04-2.21-.25.04.79-.65.83-.49,1.73Zm79.79-.74c.07-.56-.06-.93-.49-.99-.38.37-.27,1.11.49.99Zm22.34.25c-.5,3.64,2.85,3.4,3.68,5.7,1.09-.19,1.47.33,2.45.25.31-.59.47-1.34,1.23-1.49.57.34,1.09.71,1.96.74.7-1.03,1.15-2.31,1.72-3.47-1.68-.29-2.4.38-3.44.74-1.46.02-1.65-1.24-2.94-.74-.38-.94-.99-1.65-1.23-2.73-1.62-.15-2.6.34-3.44.99Zm18.17,0c.29.37.93.39,1.23.74-.04.54-.62.53-1.23.5.31.6.77,1.28-.25.74,0,.82.7.95,1.47.99-.28-1.03.52-.97.49-1.73.05-.8-.43-1.05-.25-1.98-.69.51-2-.8-1.47.5h-.25v.25c-.97-.91-.77,1.05,0,.25h.25v-.25Zm-111.7.99c.4.75.23,2.08,1.23,2.23-.28-1.22-.31-1.78.74-.99.27-1.18-.76-1.05-.49-2.23-.86-.04-1.06.59-1.47.99Zm118.33,1.73c.88-.12,1.42-.4,2.21,0,.13-.94.59-1.55.49-2.73-2.23-.43-3.12.48-2.7,2.73Zm-142.88.5c.37-.54,1.23-.58,1.23-1.49-.08-.33-.35-.47-.25-.99-.46-.2-.9-.41-1.47-.5.17.98-.43,2.74.49,2.97Zm49.59-1.73c.15-.23,1.09-1.28,0-1.24.15.44-.72,1.03,0,1.24Zm54.01,1.24c.88.58,2.51.16,2.95-.5-.74-.38.2-1.09,0-1.73-1.62-.82-3.35.2-2.95,2.23Zm28.23-1.24c.28.05.38.27.49.5,1.06.08,1.29-.68,1.47-1.49-.81-.64-1.93.07-1.96.99Zm-8.59-.5c.25,0,.29.2.49.25,0-.25.2-.29.25-.5-.25,0-.29-.2-.49-.25,0,.25-.2.29-.25.5Zm11.79.25v-.74h-.74c-.04.54.2.79.74.74Zm14.97,1.98c.37.37,1.03.44,1.23.99,1.22-.34,2.32-.8,2.21-2.48-.71-1.82-4.43-1.77-3.44,1.49Zm-63.34-1.73c.01-.15.04-.3.25-.25-.03-.3-.07-.59-.49-.5.04.29-.04.7.25.74Zm10.06-.25c.05.78-.17,1.82.25,2.23.19.05.49,0,.49.25,1.31.02,1.9-2.72.74-2.97.23.89-.97.35-1.48.5Zm-30.93,1.98c1.21.18.93-1.13,1.96-.5-.04-.37.09-.91-.25-.99-.29.74-.21-.91-.98-.5-.55.33-1.46,1.13-.73,1.98Zm13.5-.5c.47.36,1.83.01,1.47-1.24-1.04-.15-1.72.08-1.47,1.24Zm-46.4,2.73c3.5.31,2.41-3.67,0-3.72-.51.78-.86,3.03,0,3.72Zm8.35-2.23c.66-2.32-2.7-1.5-2.21.25.67.61,1.72.09,2.21-.25Zm18.17.99c.76.19.47-.68,1.23-.49.11-.85-.1-1.39-.25-1.98-2.69-.77-2.57,2.01-.98,2.48Zm14.48-1.73c-.4-.34-.6-.88-1.47-.74-.02.79,1.27,1.67,1.47.74Zm14.73-.25c-.17.83.41.91.98.99.21-.29.32-.67.25-1.24-.57-.08-.94.04-1.23.25Zm4.91,0c.28.98.28-.98,0,0h0Zm54.01,0c.29.98.29-.98,0,0h0Zm-36.33,1.98c.52.55,1.55.58,2.46.74.3-.7.3-1.53,0-2.23-1.14-.53-2.93-.35-2.46,1.49Zm3.68-.99c.2.7-.35.64-.24,1.24,1.27-.12,1.67-1.12,2.21-1.98-.9,0-.65,1.16-1.96.74Zm23.57,1.73c-.92.51-1.44-1.16-1.47,0,.41.75,1.18-.02,1.47.5.1,1.01-.81,1-.49,2.23.71.11.77.88,1.72.74.68-.78,1.25-3.1,0-3.72.44-.81-.29-2.25-1.47-2.23-.05.96,0,1.83.25,2.48Zm-63.58-1.49c.07-.34-.15-.97-.25-.5-.07.34.15.97.25.5Zm66.29-.5c-.19.06-.49,0-.49.25.19-.06.48,0,.49-.25Zm-5.4,1.49v-.99c-.95-.2-.95,1.19,0,.99Zm-29.46-.49c-.21,1.46.14-.99,0,0h0Zm10.06,1.98c.42-.28,2-1.61.74-1.98.03.79-1.64,1.13-.74,1.98Zm17.43-.99c.56.07.92-.06.98-.5-.33-.08-.47-.35-.98-.25v.74Zm-114.4-.25c-.43.88-.19,2.04,0,2.97.89-.59,2.21-.75,2.46-1.98-.67-.72-1.29-1.39-2.46-.99Zm136.99,2.23c.91.25.64.53,1.72.25.24-.66.51-1.31.49-2.23-1.26-.76-2.6.28-2.21,1.98Zm-143.62-1.73c.11,1.38,1.16.85,1.47,0-.46-.49-.9-.08-1.47,0Zm73.65,1.98c.11-.47.53-.62.49-1.24-.99.17-.6-1.04-1.47-.99-.04,1.12-.12,2.27.98,2.23Zm56.47-1.24c-.8,2.6,2.36,3.08,3.68,1.98.31-.73-.08-1.56-.25-2.48-1.45-.16-2.52-.33-3.44.5Zm-11.29,1.98c.54.28.82.83,1.47.99.35-.73,1.44-2.01.74-2.97-.57.79-1.1-.53-1.96-.25-.3.75-.01,1.11-.25,2.23Zm42.72-.74c0-.66.14-1.46-.49-1.49-.53.53-.09,1.35.49,1.49Zm-146.56-.99c-.66,1.6.37,3.13,2.46,2.73.5-.65.77-1.54.74-2.73-1.03-.47-2.43-.04-3.19,0Zm72.18.5c.2.7-.34.64-.25,1.24.85.72.91.71,2.46.74.57-.95.16-2.72-.98-2.73.02,1.23-.72.16-1.23.74Zm-82,0h.74v-.5h-.74v.5Zm132.08,1.49c.85.79,3.07.61,3.44-.5-1.47-.25-2.25-1.2-3.68-1.49.18.91,1.22,1.21.25,1.98Zm-31.67-.5c-.32-.62.72-1.03,0-1.24-.14.15-.58,1.18,0,1.24Zm-68.99.25c.65.2,1.49-1.33.49-1.24.04.62-.38.77-.49,1.24Zm13.5-.25c.77.12,1.1-.21.98-.99-.77-.11-1.09.22-.98.99Zm6.38.5v-1.24c-.69.21-.64-.35-1.23-.25-.14,1.05.08,1.74,1.23,1.49Zm9.33,0c.68.14,1.03.62,1.72.74.63-.88-.09-2.1-1.23-1.98.04.62-.38.77-.49,1.24Zm-95.74-.74c-.21,1.47.14-.99,0,0h0Zm61.87,0c-.07.65.34.81.98.74.07-.65-.09-1.07-.74-.99-.01.15-.04.29-.25.25Zm11.05,1.24c.33.35,1.39.35,1.72,0,.19-1.19-.51-1.46-1.47-1.49,0,.58-.42.73-.25,1.49Zm53.52-.25c.04-1.11-1.18-.95-1.96-1.24-.37,1.4,1.12,1.85,1.96,1.24Zm-126.43,0c.28.98.28-.98,0,0h0Zm123,1.74c-.24-.46.73-.83,0-.99-.9,1.05-.5-1.29-1.72-.75.09,1.07.66,1.65,1.72,1.74Zm23.81-.99c.15-.64-.1-.89-.74-.75-.17.67.51.48.74.75Zm25.29-.5c-.19.05-.48,0-.49.25.19-.05.49,0,.49-.25Zm-140.67,1.73c.4-.4.3-1.56-.49-1.49,0,.66-.13,1.46.49,1.49Zm105.07-.49h.49v-.5h-.49v.5Zm1.96-.5c-.19.05-.48,0-.49.25.19-.06.48,0,.49-.25Zm-106.3.74h.49v-.5h-.49v.5Zm117.1.49c.01-.15.04-.29.25-.25-.03-.3-.07-.59-.49-.49.04.29-.04.7.25.74Z"/>
  <path class="cls-10" d="m1.23,38.76c-.04-.96-.83-1.14-.74-2.23,1.1-3.02.16-6.29.25-9.17.03-1.04.48-1.9.49-2.97.05-4.3-1.44-8.93-.25-12.64-.02-.83-.58-1.12-.74-1.98-.3-1.71.68-3.69-.24-4.71C.87,3.45,1.65,1.76,2.95.59c1.98-.85,4.29-.72,6.38,0,4.39-1.44,10.17.63,14.73-.5,10.49,1.46,20.65-.67,31.42.74,11.49-.71,22.74-.88,34.86.25,3.87-.25,7.93-.3,12.03-.5,5.01-.24,9.71.6,14.48-.25,2.92,1.18,6.96-.62,10.56.5,1.73-.86,4.58-.28,6.63,0,2.77-.87,7.56-.47,11.04-.25,4.53.29,9.48-.21,14.24,0,3.01.13,5.96.57,8.84.5.79-.02,1.42-.44,2.21-.5,1.65-.12,3.48.48,5.16.5,4.51.04,8.98-.51,13.5-.5,3.09.01,5.9.31,8.59.25,7.76-.19,15.81-.53,23.81-.25.98.5,2.25.7,2.95,1.49.34,3.17-.91,7.15.49,10.16-.62,3.78.38,8.14,0,12.39-.11,1.27-.56,2.41-.49,3.72.11,2.14,1.51,4.32.25,6.69.6,3.76.25,8.5-.25,12.39.87,2.53,0,5.13.74,7.44-.76,5.39,1.15,13.39-.49,18.84.87,1.51.72,3.66.74,5.7.05,6.51-.25,13.58-.49,18.84.82,2.45.25,5.66.25,8.67,0,5.77-.25,12.99-.25,19.33,0,1.69,1,4.15-.49,5.21,1.23,2.92.49,7.02.74,10.9.32,5.06.67,10.33,0,15.86.12.87,1.13.84.74,2.23-.5-1.28-.48-.12-.98.49-.46,1.46.79,1.19.98,1.98v2.48l-.12-.12-.12.12h-.74c-.26.63.52,1.41.74.74h.25v-.25c.84,4.69,1.14,9.44.74,14.38h-.25v.25c-.22-.19-.55-.27-.98-.25-.2.28-.16,1.81.49,1.98.21-.2.15-.68.49-.74v.25h.25c.01,8.87-.63,14.1-.74,22.06.35,1.26-.75,1.06-.98,1.73,1.7,2.92.1,7.14.74,10.9-1.29,3.03-2.72,5.01-3.19,8.43-.9,0-2.81.29-3.19-.49-.8,1.36-2.76.14-4.17.99-4.85-1-10.19-.11-15.22,0-1.73.04-3.42-.09-5.16,0-2.05.11-3.78.57-6.14-.25-2.62,1.17-5.33.09-7.86,0-4.09-.14-8.41.32-12.03.25-1.63-.03-3.34.42-5.64.5-1.71.05-3.39-.31-5.16-.25-1.47.05-2.9.43-4.42.5-1.68.07-3.44-.51-5.15.25-4.31-1.46-9.4.77-13.26-.99-1.43.8-3.07.85-5.4.74-2.48-.12-6.37-.13-9.82-.25-3.86-.13-7.21.66-10.8-.25-3.04,1.17-5.01-.43-7.61.74-6.01-.66-14.12-.33-19.64-.25-.65,0-1.25.43-1.97.5-1.93.17-4.49-.17-6.38-.25-.56-.02-1.15-.24-1.72-.25-.47,0-.52.43-.98.5-.91.13-2.45-.25-3.68-.25-22.1.07-44.01.85-64.32,0-1.02-2.36-.25-4.66-.49-7.93-.07-.98-.26-1.8-.25-2.72.02-1,.45-1.92.49-2.98.09-2.14-.57-4.38-.74-6.69-.36-5.06.22-10.37-.25-15.12-.25-2.52.03-5.2,0-7.68-.05-4.1-.94-8.19.25-11.9.01-.76-.88-.59-.74-1.49.42-12.53-.41-25.12,0-37.92.07-2.21.7-4.47.74-6.69.04-1.99-.33-3.97-.25-5.95.19-4.37.65-9.95.49-14.87-.15-4.64-.58-9.91-.25-15.37.23-3.79-1.33-7.42.25-11.15.19-1.18-.87-1.1-.74-2.23,1.72-12.76-.62-24.8,0-36.43l.12.12.12.12c.2.05.24.25.49.25-.02-.39.12-.95-.25-.99.04.21-.09.23-.25.25v-.25h-.25ZM123.97,1.58c-.27.03-.38-.36-.49,0,0,.25.43.31.49,0Zm58.43.5h.98v-.5h-.98v.5Zm37.81,114.75c0-.24.3-.19.49-.25-1.07-1.13-.63-3.11-.25-4.96-.98-5.86.32-10.26-.49-15.61.51-1.7.11-2.97.74-4.71-.49-.57-.59-1.55-.49-2.73-.13-1.04,1.28-.52,1.23-1.49-2.03-.84-.93-4.43-.74-6.44-.57-2-.4-5.65-.49-8.43-.17-5.1.47-10,.25-14.87-.11-2.29.09-4.68,0-7.19-.12-.53.35-.47.74-.5-.95-.78-.36-2.08-.49-3.22-.7-6.24-.29-12.91-.49-20.82.41-1.23,1.66-1.63,1.96-2.97-1.27-.53-1.2,1.58-1.72.99-.08-4.37.04-10.23-.25-14.38-1.34-3.03-4.05-4.67-6.14-6.94-.92.49-1.99.16-2.7-.25-2.71.73-7.45,1.06-10.8.74-.84-.08-1.74-.35-2.21-.74-.93-.37-.05,1.11-.98.74-2-.49-4.36.29-6.38-.25.48.1.36-1.13-.25-.74.05.42-.42.64,0,.74-.72.75-2.28.7-2.7-.5-.58,1.6-2.92.09-3.93.99-8.37-.34-14.84-.06-23.32,0l.12-.12-.12-.12c-.07-.58-.67-.58-.74,0h.25v.25h.25c-4.54-.15-11.09.98-15.71.5-.7-.07-1.42-.19-1.96-.74-.64.25-.22.7-1.23.74-.69.03-1.39-.52-1.96-.74-.38.5-1.43.65-2.21.74-1.79.22-4.17.07-6.38.25-.9-.08-1.36-.61-2.21-.74-1.22.25-2.45.5-3.68.74-1.29.23-1.3-.84-2.21-.99-.32,1.08-2.31.48-2.94,1.24-3.57-.22-7.15-.81-10.56-.5-.78.07-1.44.49-2.21.5-1.06,0-2.11-.46-3.19-.5-1.16-.03-2.27.45-3.44.5-4.2.17-8.81.16-13.26-.5-1.34,1.48-4.46.01-6.38,0-1.88,0-3.97.66-5.89.74-2.5.1-5.08.06-7.61-.5-3.36.84-6.84.46-10.56.25-1.28-.07-2.7.15-3.93,0-.83-.1-1.63-.48-2.46-.5-1.36-.02-2.81.47-4.17.5-3.03.06-6.04-.06-8.84-.5-2.21.32-5.05.61-7.86.5-.33-.01-.89-.46-1.23-.5-3.4-.38-7.12,1.11-10.07-.25-2.35,1.01-5.12-.65-7.86.5-.84-.3-1.86-.43-2.7-.74-1.35.62-2.57,1.37-3.44,2.48-.31,6.76.28,13.18.25,20.82-.18.89-.58,1.56-.74,2.48,1.73,4.07,1.21,10.82,1.47,16.85.48,11.1.04,22.22-.74,32.47.33,2.8.66,7.83.25,11.4-.09.76-.47,1.5-.49,2.23-.11,3.6.89,7.4.74,11.15-.02.54-.44,1.23-.49,1.74-.45,4.61.6,10.4.25,15.86-1.03,2.02-.03,4.96-.98,6.69.94,8.08.57,16.18.74,24.54.09,4.44-.54,9-.25,13.13.09,1.29.54,2.46.49,3.72-.03.8-.44,1.7-.49,2.48-.1,1.51.15,3.46.25,5.21.18,3.53.03,9,.25,13.88.35,7.87-.04,16.02.98,22.55.33,2.1,1.25,4.14.25,6.45.43,1.13,1.02,2.11,1.23,3.47,15.08-.39,30.72.44,46.64.74,10.96.21,23.06-.61,34.12-.74.98-.24.74.74,1.72.5,3.19-.66,6.38-.3,9.57-.25,5.86.1,11.6-.18,17.43.25,3.3.24,6.72-.02,9.82-.25,1.62-.12,2.96.23,4.91.25,1.63.02,3.27-.54,4.91-.5,12.48.34,25.85-.38,38.79-.25,3.05.03,6.29-.5,9.57-.5,7.46,0,15.74-.33,22.58-.74,1.73-.1,3.55-.45,5.89,0,1.2.22,1.15-.82,2.46-.5,1.43-.02,1.93,1.79,3.68,1.49.87-.15,1.67-1.31,1.72-2.23.06-1.11-.53-1.49-.98-2.48.2-.62.67-.97.73-1.73-1.08-.96-.42-2.35-.49-4.21-.04-1.14-.49-2.22-.49-3.22,0-3.5.96-7.01.74-11.4-.23-4.4-.84-8.68-.74-13.14.39-.18-.06-1.21.74-.99-1.06-2.23-.46-4.63-.49-7.19,0-.67-.46-1.23-.49-1.98-.02-.6.47-1.54.49-2.23.06-2.53,0-4.58.25-6.69.57-4.81-.64-9.59-.25-13.88.08-.93.36-2,.98-2.72-1.15-3.41-.42-7.28-.74-10.91-.08-.94-.47-1.8-.49-2.73-.09-3.11.74-6.41.25-9.42-.34-2.06-.17-4.36,0-6.69h.25v-.25c.74.8.29-.71,0-.99v-.25h-.25ZM194.92,2.08c-.31-.01-.34-.32-.74-.25-.38.61.83.73.74.25Zm-156.87.74c-.28.02-.38-.36-.49,0,0,.25.43.31.49,0Zm51.06.25c-.19.06-.48,0-.49.25.19-.06.48,0,.49-.25Zm-4.42.25c-.19.06-.48,0-.49.25.19-.05.48,0,.49-.25Zm137.97.74c0-.25-.43-.31-.49,0,.28-.03.38.36.49,0Zm-4.42,1.24c.28.98.28-.98,0,0h0ZM.98,5.79c.28.98.28-.98,0,0h0Zm.25,2.48c.9.24.98-1.22.25-1.24-.21.29-.33.66-.25,1.24Zm220.21,1.49c.51.54.7-.12,1.47,0-.18-.76.25-.9.25-1.49-.31-.01-.34-.32-.74-.25-.26.64-.89.92-.98,1.74ZM.98,9.26v.5c.6.39.72-.84.25-.74-.01.15-.04.29-.25.25Zm222.17,2.23c0-.25-.43-.31-.49,0,.27-.03.38.36.49,0Zm.49.99h.49v-.5h-.49v.5ZM3.19,13.48c.28.98.28-.98,0,0h0Zm-1.96,1.49c.28.98.28-.98,0,0h0Zm221.68,10.91v.5c.15.01.29.04.25.25h.49c.01-.15.04-.29.25-.25v-.5c-.15-.01-.29-.04-.25-.25h-.49c-.01.15-.04.29-.25.25Zm1.23,1.24c-.19.06-.49,0-.49.25.19-.05.48,0,.49-.25ZM1.72,29.59c.22-.52.75-.73.74-1.49-.36-.13-.62-.37-.98-.5.13,1.07-.07,1.54.25,1.98Zm221.93,20.32c.72.36.72-1.11,0-.74v.74Zm-.74,17.84c-.19.06-.48,0-.49.25.19-.06.48,0,.49-.25ZM2.45,70.23c.42.01.63-.19.74-.5-.38.02-.85-.03-.74.5Zm220.95,26.52c.29.98.29-.98,0,0h0ZM3.19,107.41c-.59.83.82-.6,0,0h0Zm220.46,18.84c.28.98.28-.98,0,0h0ZM2.95,132.44c0-.25-.43-.31-.49,0,.28-.02.38.36.49,0Zm219.47,8.92h.49v-.5h-.49v.5Zm.49,3.72c-.45-.29-.17-1.31-1.23-.99-.04.64.69,1.76,1.23.99ZM1.47,150.04h.49v-.5h-.49v.5Zm223.89,25.28c-.36-1.35.8-4.27,0-5.2-.35,1.66-1.25,3.9,0,5.2Zm-3.44-2.48c-.15-.51.4-1.72-.49-1.49,0,.66-.14,1.46.49,1.49Zm2.21,29.99c.28.98.28-.98,0,0h0Zm-198.12,22.8c.28.98.28-.98,0,0h0Zm105.32-.25c-.19.06-.48,0-.49.25.19-.06.49,0,.49-.25Z"/>
  <g>
    <path class="cls-3" d="m200.57,42.48c.08-.17.15-.35.25-.5"/>
    <path class="cls-4" d="m189.77,210.02c.23.1.34.31.49.49"/>
    <path class="cls-9" d="m199.34,46.94c.06.07.11.14.17.21.1.32.03.59-.12.84-.21.06-.42.03-.59-.02-.05-.11-.12-.2-.2-.29"/>
    <path class="cls-1" d="m170.01,51.77c-.13-.03-.19-.14-.25-.25"/>
    <path class="cls-3" d="m75.12,19.67c.17-.08.34-.15.49-.25"/>
    <path class="cls-3" d="m42.47,40.74c.17-.08.34-.15.49-.25"/>
    <path class="cls-7" d="m209.41,56.6c.15-.34.43-.57.74-.74"/>
    <path class="cls-4" d="m155.28,59.2c.07-.17.3-.19.49-.25"/>
    <path class="cls-4" d="m160.92,65.15h.49"/>
    <path class="cls-5" d="m143.61,77.42c.09-.24.13-.53.25-.74"/>
    <path class="cls-8" d="m148.03,88.57c.05.11.12.21.19.31.2.04.44.05.67.06"/>
    <path class="cls-5" d="m130.85,94.03c.09-.24.13-.53.25-.74"/>
    <path class="cls-2" d="m180.19,97.5c.17.2.24.4.37.62"/>
    <path class="cls-4" d="m181.42,97.5c-.17.07-.29.21-.37.37"/>
    <path class="cls-3" d="m64.32,125.5c.08-.17.15-.34.25-.49"/>
    <path class="cls-4" d="m22.71,124.39v-.5"/>
    <path class="cls-4" d="m62.6,157.72c-.11-.22-.1-.55-.12-.87"/>
    <path class="cls-5" d="m163.5,169.87c.1-.23.31-.34.49-.5"/>
    <path class="cls-3" d="m185.35,175.57c.16.08.34.15.49.25"/>
    <path class="cls-3" d="m164.48,206.3c-.08-.17-.15-.34-.25-.49"/>
    <path class="cls-5" d="m1.35,39.38c0-.26.06-.44.12-.62"/>
    <path class="cls-4" d="m160.92,2.94c-.25,0-.43.06-.61.12"/>
    <path class="cls-6" d="m220.46,118.32c-.17-.45-.21-1.04,0-1.49"/>
    <path class="cls-4" d="m225.86,166.15c-.11-.22-.11-.55-.12-.87"/>
    <path class="cls-6" d="m226.35,181.76c.17-.45.2-1.04,0-1.49"/>
  </g>
</svg>