<?xml version="1.0" encoding="UTF-8"?>
<svg id="Layer_1" data-name="Layer 1" xmlns="http://www.w3.org/2000/svg" viewBox="0 0 226.77 226.77">
  <defs>
    <style>
      .cls-1 {
        stroke-width: .26px;
      }

      .cls-1, .cls-2, .cls-3, .cls-4 {
        fill: none;
        stroke: #000;
        stroke-linecap: round;
      }

      .cls-1, .cls-2, .cls-3, .cls-4, .cls-5 {
        fill-rule: evenodd;
      }

      .cls-2 {
        stroke-width: .32px;
      }

      .cls-3 {
        stroke-width: .33px;
      }

      .cls-4 {
        stroke-width: .31px;
      }

      .cls-5 {
        stroke-width: 0px;
      }
    </style>
  </defs>
  <path class="cls-5" d="m173.75,9.26c.54.6-.27-1.05,0-1.8,4.2-.5,8.53.16,12.72,0,1.04-.04,2.04-.48,3.05-.51,1.08-.04,2.24.26,3.31.26,5.07-.03,9.99-1.29,14.75,0,2.6-.8,6.04-.75,9.41-.77.12,5.21.35,10.33.25,15.15-.05,2.46-.31,5.34-.25,7.7.11,4.66.38,10.82-.25,15.66.9,2,.46,4.31.51,6.42.03,1.25.21,2.37.26,3.6,0,.16-.34.4-.26,1.03.54,3.74.27,8.68.26,13.09-.01,2.87-.46,5.99-.26,8.73.05.7.49,1.56.51,2.31.08,3.08-.59,6.07-.51,9.24.03,1.17.46,2.39.51,3.6.1,2.37-.25,4.81-.25,7.19,0,3.08.33,6.09.25,9.24-.22,9.06.18,21.03.25,31.07.02,2.3.4,4.74.25,6.93-.05.69-.5,1.35-.51,2.05-.09,5.71,1.05,12.91,0,17.46.54,1.77.93,6.38,0,8.73.61,1.76.32,3.73.25,5.65-.07,1.87.15,3.53.25,5.39.36,6.64-.65,14.64-.25,22.34.17,3.26,1.62,6.47.25,9.5-3.31,1.15-8.75,1.37-11.96.26-2.25,1-4.81.67-7.38.77-1.08.04-2.29.28-3.31.26-.94-.02-1.94-.56-2.8-.51-1.04.05-2.02.5-3.05.51-4.75.07-9.56-.37-14.5-.26-2.39.05-4.86-.12-7.38,0-3.5.16-7.15.69-10.43-.26-2.66.87-5.75.31-8.9.26-3.9-.06-8.61.91-12.21-.26-2.6,1.07-7.14-.09-9.16.26-3.04.52-7.97.26-11.7,0-4.65-.32-9.07-.08-15.01-.26-1.55-.05-3.09-.53-4.58-.51-1.42.01-2.95.66-4.32.77-2.98.23-6.26.36-9.16.26-.92-.03-1.68-.43-2.55-.51-1.5-.15-3.3.03-4.83,0-3.62-.07-6.71-.46-9.67.26-2.29-.72-5.31-.15-8.39-.26-1.45-.05-2.83-.4-4.32-.51-2.83-.21-5.66-.24-8.39-.51-11.97-1.19-24.22,1.29-34.34-.77-1.17-4.73-.38-9.77-.51-14.89-.14-5.59-.35-11.31-.26-17.2.23-14.02-1.05-28.32-.76-41.6.06-2.72.37-4.68.25-7.45-.11-2.68-.89-6.85-.25-10.53.18-1.06.06-1.46,1.02-2.05-1.39-2.22-.99-6.12-1.02-10.27-.1-14.76.12-29.56.25-43.65.06-5.8.02-11.7.25-17.46.23-5.67-.94-11.33.25-16.95-.35-7.03-.79-13.39.26-20.03-.77-2.37-.61-5.46.25-7.96,9.24.97,21.52.26,33.07.51,3.74.08,7.72-.03,10.43.51,5.64-.42,12.37.16,18.57-.51,1.24-.05,1.33,1.05,2.54,1.03,16.15.61,31.43-.5,49.1-.26,2.93.04,5.79-.31,8.65-.51,1.68-.12,3.25.15,4.83,0,1.04-.1,2.02-.69,3.05-.77,1.73-.14,3.52.79,5.09-.26,9.03,1.21,18.24-.44,27.98.26-.45,1.23.04,1.25.76,1.8Zm10.69,1.03c.15-.16.6-1.22,0-1.28-.15.16-.6,1.22,0,1.28Zm5.34-.77c-.5.99-.59,1.96,0,2.83,1.91.3,2.44-.79,2.29-2.57-.87-.4-1.34-.45-2.29-.26Zm-72.25,1.54c-.09-.85-.76-1.11-1.27-1.54.26.68.21,1.68,1.27,1.54Zm-23.66-1.03c-.32-.01-.35-.33-.76-.26-.39.63.87.75.76.26Zm102.27,2.31c.29.05.39.28.51.51,1.13.11,1.61-.43,1.78-1.28-.35-.16-.04-.99-.51-1.03-.58.9-.71-.8-1.27-.77.6,1.06-.8,1.1-.51,2.57Zm7.12.77c.56-.29.85-.86,1.53-1.03-.16-.62-.37-1.17-.25-2.05-.46-.33-1.29.23-2.04-.26-.83,1.04-1.2,3.25.76,3.34Zm6.36-1.03c.93.17,1.36-.17,1.78-.51-.09-.76-.41-1.3-.76-1.8-2.27-.19-1.9,1.35-1.02,2.31Zm-33.83.26c.29.05.4.28.51.51,1.44.08,1.91-.81,2.04-2.05-.99-1.46-2.77-.36-2.54,1.54Zm24.68-1.54c.17-.69-.53-.5-.76-.77-.15.67.1.92.76.77ZM16.54,12.85c1.44,0,2.13-.76,2.03-2.31-1.6-1.06-2.66,1.17-2.03,2.31Zm11.7-.26c1.6.33,1.76-.79,1.78-2.05-1.44-1.18-2.79.76-1.78,2.05Zm17.81-1.8c-1.44-2.04-3.37,2.19-.76,2.05.67-.27.83-1.04.76-2.05Zm94.64-.51c-.2.06-.5,0-.51.26.2-.06.5,0,.51-.26Zm20.61,2.57c.86-.07,2.06.2,2.54-.26.27-2.87-3-2.72-2.54.26Zm6.87-.51c.69.59,1.27,1.29,2.54,1.28.05-.29.28-.4.51-.51-.14-.91-.75-1.15-.26-2.05-.73-.2-1.35-.52-2.04-.77.43,1.37-.76,1.11-.76,2.05Zm-145.77-1.8c-.75.35-1.36,2.87,0,3.08,1.17.22,1.17-3.3,0-3.08Zm27.22,2.31c0,.51.7.33.51,1.03,1.4-.22,2.19-1.04,2.29-2.57-.95-1.44-2.8-.17-2.8,1.54Zm-37.14.77c1.75.29,1.8-1.85,1.53-2.82-1.79-.36-1.56,1.34-1.53,2.82Zm20.6,0c1.24.04,1.63-1.82,1.02-2.82-1.7-.37-1.9,2.11-1.02,2.82Zm26.97-2.57c-.55,1.32-.38,3.46,1.27,3.34,2.03-.7,1.23-4.55-1.27-3.34Zm5.6,2.57c1.4-.12,2.61-.45,2.54-2.05-.43-.59-1.3-.74-2.29-.77-.21.78-.71,2.17-.25,2.82Zm88.53,0c.94-.07,1.75-.29,2.04-1.03-.42-.52-.54-1.34-1.02-1.8-2.41-.79-2.03,2.29-1.02,2.82Zm19.08-2.31c.25.56,1.47-.03,1.78-.26-.43,0-1.86-.84-1.78.26Zm-135.08,3.08c2.13-.09,3.21-1.52,2.29-3.34h-2.29c-.37,1.16-.61,2.5,0,3.34Zm105.83-2.57c0,1.38.67,2.06,2.03,2.05.65-.71.52-1.79.26-2.82-.96.06-2.29-.26-2.29.77Zm-89.29,2.31c.91.15,1.23-.3,1.78-.51-.05-.8.17-1.88-.26-2.31-2.07-.48-1.93,1.51-1.53,2.83Zm16.28,1.03c1.77.24,2.06-1,2.29-2.31-.39-.8-1.15-1.24-2.29-1.28-.48.8-.29,2.76,0,3.59Zm6.36-1.28c.93,0,1.12-.76,1.02-1.8-.68-.25-1.34-.53-2.29-.51.06,1.14.18,2.21,1.27,2.31Zm43.5-.77c0,1.07.47,1.1.51,2.57.53.15.73.64,1.53.51-.04-1.41.49-2.25,1.53-2.57-.45-.75-.92-1.47-1.53-2.05-.46.73-1.81.57-2.04,1.54Zm3.82-1.28v1.03c1.1-.34.8.73,1.27,1.03-.02-.44.2-.66.51-.77.12-.81-.78-.58-.51-1.54-.59-.08-.98.04-1.27.26Zm57.49,1.03c.6.46,1.98,1.09,2.8.51.33-1.79-1.57-1.32-2.54-1.8-.21.3-.33.69-.25,1.28Zm-72.5-.26c-.1,1.3.51,1.88,1.02,2.57,1.1-.09,2.17-.2,2.8-.77v-1.8c-1.27-.82-2.49-.76-3.81,0Zm7.12,1.03c.26.25.51.51.76.77,1.08-.03,2.84-.72,2.29-1.54-.68.75-.75-1.28-1.78-1.03-.63.39-1.41.63-1.27,1.8Zm-35.11-.26c.29.22.68.34,1.27.26,0-.78.15-1.69-.77-1.54-.11.49-.72.46-.51,1.28Zm22.13,2.05h1.78c-.22-1.48.84-.07,1.27-.77-.01-1.3-.47-1.59-.51-2.31-.95.18-1.09-.44-2.04-.26-.34.95-.58,1.99-.51,3.34Zm-7.12-1.8c.1,1.71,2.74,2.03,3.31.51-.04-1.87-2.93-2.44-3.31-.51Zm36.63.51c1.03.1,1.78-.09,1.78-1.03-.25-1.22-2.27-.67-1.78,1.03Zm-45.28.77c.72-.62-.35-1.55.25-2.05h-1.02c-.09,1.03,0,1.88.76,2.05Zm123.13-1.03c.49.5,1.56.27,1.27-.77-.8-.12-1.04.32-1.27.77Zm-62.07,1.8c.65.46.95,1.27,2.29,1.03,2.66-2.49-2.38-5.1-2.29-1.03Zm24.68,1.8c.19-1.43,1.96-1.27,1.78-3.08-1.67-2.57-4.38,2.19-1.78,3.08Zm-33.07-1.8c1.25.15,1.96-.25,1.78-1.54-1.08-.95-2.87.3-1.78,1.54Zm46.04,1.28c1.18.08,2.2,0,2.8-.51.17-1.97-1.32-2.27-2.8-2.57-.05,1.12-.52,2.1,0,3.08Zm-160.01.26c.75-.36.78-1.44.76-2.57-2.1-1.82-3.08,2.87-.76,2.57Zm66.15.26c1.52-.09,2.53-.7,2.29-2.57-.57-.37-1.23-.64-2.29-.51-.81,1.03-.81,2.05,0,3.08Zm32.81-1.54c.6.47,1.47.67,2.29.26v-1.28c-1-.75-2.1-.3-2.29,1.03Zm7.89-.26c-1.63,2.29-5.34,2.48-7.12,4.62-2.93.81-4.61,2.88-6.11,5.14-.21,3.21-1.87,4.96-2.55,7.7.46,3.23.55,6.62,1.53,8.47.61,1.16,1.13,1.77,1.78,2.57.39.48.67,1.13,1.27,1.03,1.66.05,2.29-.95,3.81-1.03-1.53-1.88-2.35-4.47-3.81-6.42.7-1.32-.07-3.12-.51-4.11.03-3.14,1.96-4.36,3.05-6.42h1.27c.6-1.5,2.34-2.55,3.82-2.82,3.62-.67,8.48,1.59,9.16,5.39.34,1.93-.56,4.35-.76,5.14-.1.39.14.91,0,1.28-.08.23-.63.45-.77.77-.22.55-.09,1.24-.25,1.54-1.04,1.88-2.93,3.06-4.07,4.37-.29.21-.68.34-1.27.26-.04.48-.17.86-.51,1.03-5.09,3.51-10.93,6.25-18.06,7.7-1.29,1.09-2.78,1.98-4.58,2.57-.9,1.85-3.93,3.65-2.29,6.42,2.91.03,4.62-1.16,7.12-1.54,1.05-.4,1.28-1.62,2.8-1.54.06.37.42.43.51.77-.71,1.85-2.95,2.24-4.32,3.34-1.5,1.2-2.47,2.84-3.82,4.11-.09,1.28-.69,2.04-1.02,3.08.63,4.59,2.35,8.07,5.6,10.01,1.28.17,1.97-.24,3.06-.26-1.35-3.21-.19-7.05.51-10.27,4.23-5.74,8.98-10.96,13.74-16.18,2.16.04,1.83-2.43,4.07-2.31-.17-.94.55-.99.51-1.8,4.69-2.79,7.29-8.21,8.39-13.86h1.27c-.8-1.67-2.08-2.86-2.04-5.39-1.38-1.95-2.91-3.74-4.32-5.65-2.06-.06-3.74-.51-4.58-1.8,1.32-1.89,5.33-3.03,3.31-6.68-1.55-.8-2.53.52-3.82.77Zm27.98,1.54c1.42-.02,2.24-.64,2.03-2.31-1.35-.96-3.05.88-2.03,2.31Zm17.55-2.31c-.98.79-1.47,2.92-.26,3.85,1.02-.18,1.45.25,2.29.26.65-1.14.88-2.71,1.53-3.85-1.12.31-1.86-.98-3.56-.26Zm14.5.26c-.14,1.43.24,2.32,1.53,2.31.46-.52.8-2.08.26-2.83-.79-.03-1.22.31-1.78.51Zm5.09,1.8c.6.77,1.32,1.41,2.8,1.28.72-.47,1.38-1.01,1.27-2.31-.89-2.19-3.91-1.05-4.07,1.03Zm7.38-1.54v1.28c.88.87,2.04.33,2.8-.26-.21-1.77-1.57-2.01-2.8-1.03Zm-165.1-.26c-.22.64-.5,1.99,0,2.57,2.2.74,2.07-4.03,0-2.57Zm14.75,1.8c.61.24.67,1.03,1.78.77.39-.53.39-2.3,0-2.82-1.58-.31-1.5,1.05-1.78,2.05Zm99.98.77c1.52.1,2.63-1.36,1.78-2.82-1.96-.44-2.44,1.4-1.78,2.82Zm12.46-.26c.35-.72.67-1.48.25-2.31-.6-.08-.95-.4-1.78-.26-.35,1.47-.27,2.68,1.53,2.57Zm-58-2.05c-.32-.01-.35-.33-.76-.26-.39.63.87.76.76.26Zm-93.36,2.57c1.15-.12,1.41-1.14,1.27-2.57-1.88-.55-2.15,1.86-1.27,2.57Zm3.81-.26c.73.12.8.91,1.78.77.63-.76,1.04-2.27.25-3.08-1.66-.23-2.11.78-2.04,2.31Zm9.67.26c1.24.05,1.02-1.36,1.02-2.57h-.76c-.39.73-.7,1.69-.25,2.57Zm5.09-.26c1.63.19,2.22-.67,3.05-1.28-.45-1.91-4.7-1.08-3.05,1.28Zm10.68.51c1.44-.09,1.8-1.27,2.04-2.57-1.45-.89-2.89,1.09-2.04,2.57Zm14.5-1.03c.45.23.74.62,1.27.77.54-.49.79-1.26,1.02-2.05-.83-1.05-2.63-.36-2.29,1.28Zm16.28-1.54c.04,1.33.52,2.21,1.53,2.57.86-.16.82-1.23.76-2.31-.5-.36-1.64-.84-2.29-.26Zm38.16-.26c-.61.59-.51,1.88-1.27,2.31-1.22-.22-2.33-.55-3.3-1.03-1.31.9-.52,3.81,1.27,3.85.73-.72,1.18-1.72,1.78-2.57.97.54,2.66-.39,3.56-.77-.09-1.19-.8-1.76-2.04-1.8Zm-64.36,2.31c.64.55,1.1,1.29,2.54,1.03.29-.93,1.15-1.69.51-2.82-1.41-.73-3.34,0-3.05,1.8Zm15.01-1.28c.02,1,.18,1.87,1.02,2.05,1.12-.24,1.31-1.41,2.54-1.54-.24-1.54-2.88-1.49-3.56-.51Zm32.82,0c-.1,1.47.02,2.71,1.02,3.08.44-.32.67-.87,1.53-.77.11.48-.35,1.55.51,1.28.33-.52.81-.89,1.02-1.54-.32-.71-1.49-.55-1.78-1.28-.13-.64,0-1.55-.76-1.54-.23.54-.75.78-1.53.77Zm-85.73,2.31c1.48.12,1.93-.79,1.78-2.31-1.38-.75-2.62.42-1.78,2.31Zm69.96.51c.07-1.3.98-2.07,0-3.08-2.14-.39-1.95,3.45,0,3.08Zm60.29-1.54c.65,1.6,2.45,2.94,4.07,1.54.54-2.61-3.74-4.34-4.07-1.54Zm40.2-1.28c-.29.03-.39-.37-.51,0,0,.26.45.32.51,0Zm-112.95,1.03c.01-.44-.2-.66-.51-.77-.01.44.2.66.51.77Zm2.8,1.28c.65-.2.88-.82.76-1.8-1.81-1.22-2.75,1.65-.76,1.8Zm15.77,2.82c1.45-.01,2.9-.02,3.05,1.28-.2,1.34-1.96,1.1-3.05,1.54-2.25,1.49-3.4,4.1-5.09,6.16.59,3.18-.75,6.05.76,8.22.85,1.22,2.13,1.39,3.56,2.31,1.39-.31,3.32-.07,4.32-.77.36-2.28,1.55-4.17.26-6.16-.71-.31-1.76-.28-2.8-.26-2.7-4.05,2.23-7.34,6.62-7.45,1.03.5,2.59.47,3.81.77,1.49.89,2.44,2.33,3.82,3.34,1.09,3.58.73,7.42.51,10.78-2.19,3.1-4.46,6.11-6.87,8.99-1.82-.34-3.2,1.88-4.83,2.57-2.71.32-3.51.37-5.85.26-.81,1.03-.41,2.45.26,3.34,6.42.88,10.29-2.94,14.25-5.39,1.18-2.58,3.52-3.98,5.09-6.16v-1.8c2.23-1.69,2.32-5.53,3.05-8.73-1.79-10.52-12.09-12.45-19.84-16.95-1.39.04-2.42-.3-3.56-.51.12,2.27,1.37,3.41,2.54,4.62Zm29.76-1.54c.53.79,2.2.57,2.8,0,.11-1.05-.24-1.64-.51-2.31h-1.78c-.08.86-.74,1.14-.51,2.31Zm90.82,0c.44.67,1.69.52,2.8.51.45-.49.19-1.7.25-2.57-1.82-.13-3.58-.19-3.05,2.05Zm-102.27-.51c-.11-2.68-3.77-.18-2.54,1.54,1.29-.07,2.29-.42,2.54-1.54Zm15.52,0c0-.26-.45-.32-.51,0,.29-.03.39.37.51,0Zm-23.66,1.28c.61.1.55-.47,1.27-.26v-.51c-.25,0-.3-.21-.51-.26-.07.52-.69.5-.76,1.03Zm77.59-.51c-7.71-.66-16.2.11-23.15,0-1.87-.03-3.76-.66-4.07,1.54,1.29,1.58,4.59,1.39,7.12,2.31,1.24.97,2.68,1.75,3.82,2.83.33,1.12,1.17,1.72,1.78,2.57.6,2.09,1.37,3.87.51,6.16-4.81,5.42-9.11,11.35-13.74,16.95-.17,1.63-1.32,2.26-1.78,3.59-1.61.69-2.45,2.15-3.82,3.08-.16,1.38-1.56,1.5-1.53,3.08-2.58,2.53-5.02,5.21-6.87,8.47-2.07,2.02-3.89,4.29-5.34,6.93-.53.32-.99.71-1.53,1.03-1.77,2.69-3.24,5.4-5.34,7.7-1.99,2.17-5.08,4.21-5.09,8.22.63.91,1.79,1.28,2.54,2.05-.33,2.04,1.7,1.71,1.27,3.85,1.11.42,1.19,1.88,2.55,2.05.48-.11.64-.55,1.27-.51.68-2.82,2.95-4.04,4.07-6.42.6,0,.75-.44,1.53-.26-.21-1.05-.04-.88,0-2.05,1.51-.45,1.56-2.37,3.3-2.57.86-2.82,3.38-3.95,4.33-6.68.85-.6,1.57-1.32,2.29-2.05,3.03-4.82,6.52-9.16,10.43-13.09,2.14-4.6,6.29-7.18,8.39-11.81,1.94-1.21,3.36-2.94,4.33-5.14,2.23-2.11,4.48-4.21,5.85-7.19,1.25-.79,1.86-2.23,3.31-2.82.03-1.34,1.24-1.49,1.27-2.83,5.21-5.26,10.72-10.23,17.04-14.38,2.77-.89,5.66-1.65,8.39-2.57,1.2.1,2.12-.08,3.05-.26.8-.82,2.43-.8,3.05-1.8-8.72-1.57-19.57.83-29.26,0Zm-35.61,2.31c.67.73,2.58,1.64,3.56.51.49-2.17-4.2-4.24-3.56-.51Zm-9.16,153.03c1.08.45,1.54,1.52,2.54,2.05,2.83,4.67,6.13,8.88,9.67,12.84,1.12,2.75,3.49,4.23,2.54,7.19-.06.19-.69.34-.76.51-.14.34.19.98,0,1.28-.21.34-.85.39-1.27.77-.92.82-1.6,2.53-2.8,3.08-3.47.52-6.33,1.66-9.92,2.05.06.83-.45,1.09-.26,2.05,2.11.61,4.79.79,7.12,0,3.95.67,9.06.07,13.23,0,1.23-.02,2.67-.35,3.56.51.23-.54.75-.78,1.52-.77,7.76-.21,14.65.22,21.62-.26.63.13,1.04.48,1.53.77,5.55-.67,11.89-.57,17.55,0,2.47-1.59,7.35.07,10.43-1.03.55-2.77-2.27-2.94-3.82-3.6-.36-.15-.69-.63-1.02-.77-2.21-.95-4.75-.77-6.36-2.83-1.35.34-1.3-.74-2.54-.51-1.82-1.75-3.92-3.23-6.36-4.37-.91-.9-1.49-2.28-2.54-3.08-.65-.49-1.44-.49-2.04-1.03-1.87-1.68-2.74-4.43-4.83-5.91-.29-.99-1.09-1.46-1.27-2.57-2.01-1.3-2.85-3.79-4.32-5.65-2.94-2.51-5.36-5.54-7.12-9.24-4.15-2.75-5.78-8.03-9.41-11.3-.36-.33-.16-1.21-.51-1.54-2.39-2.38-5.07-4.47-6.11-8.22-1.24.14-1.19-1.03-2.04-1.29-1.95-4.11-5.88-7.03-8.14-11.04-.3-.53-.38-1.24-.76-1.8-.99-1.45-2.38-2.56-3.56-4.11-.38-.49-.65-1.03-1.02-1.54-1.41-1.93-3.34-3.73-4.07-6.16-1.98-.57-2.33-2.78-3.81-3.85-.34-.51-.49-1.22-.77-1.8-1.76-1.82-3.75-3.41-4.58-6.16-2.68-2.77-4.97-5.94-6.87-9.5-1.74-1.54-3.24-3.47-4.58-5.39-1.32-1.9-2.78-3.79-3.82-5.9-.81-.81-1.9-1.34-2.55-2.31-1.98-3.82-4.78-6.82-7.12-10.27-.79-2.11-2.83-2.96-3.56-5.14-1.63-1.17-2.07-3.56-3.82-4.62v-1.28c-4.72-4.22-7.38-10.53-11.7-15.15-.37-1.77-2.08-2.18-2.04-4.36-3.99-2.73-5.6-7.88-7.38-12.84.28-1.95,1.01-3.43,1.53-5.14,1.32-1.07,2.9-1.86,4.32-2.82,1.42.61,3.44-1.14,3.05-2.31-5.1-.8-10.07.39-14.76,0-.63-.05-1.15-.51-1.78-.51-1.45-.02-3.1.54-4.58.51-1.29-.03-2.41-.33-3.56-.26-1.82.12-3.92,1.11-5.59,0-10.63.12-17.8-.21-27.47-.26v1.28c1.49,1.23,3.38,2.06,5.6,2.57,2.34,1.92,5.12,3.39,6.87,5.91,1.55,2.88,3.24,5.63,5.34,7.96,1.35,3.69,4.13,5.93,5.34,9.76,2.58,2.58,4.64,5.94,6.1,9.76.96-.11,1.16.54,1.53,1.03,1.2,2.81,3.68,4.33,4.58,7.45.7.49,1.29,1.09,1.78,1.8,2.49,5.02,6.63,8.37,8.65,13.87,5.02,5.29,8.11,12.53,12.98,17.97,1.12,3.92,4.28,5.79,6.36,8.73.28.57.42,1.29.76,1.8,3.57,3.67,5.93,8.57,9.41,12.33.21.64.7,1.01.76,1.8.88.57,1.43,1.46,2.29,2.05.89,2.27,2.83,3.48,4.07,5.39,2.89,6.24,8.08,10.16,10.94,16.43,1.23.3,1.4,1.67,2.55,2.05.38,3.04,3.19,3.62,3.81,6.42,1.09.7,1.71,1.86,2.8,2.57-.02,1.91,2,1.75,1.78,3.85,1.28.08,1.24,1.48,1.78,2.31,3.14,2.23,4.75,5.99,6.61,9.5l-.12.13.12.13c-.21.22-.35.24-.51.26v.51c.51-.77.64-.64.64-.64l.12-.13ZM80.65,23.64c.42.35,1.48-.21,2.54,0,.74-3.1-4.11-2.76-2.54,0Zm28.24.26c.78.69,1.49,1.31,2.54.51v-.77c-.38-.73-1.75-.46-1.27-2.05-.58.35-.96-.66-1.02,0,.4.26-.31,1.55-.25,2.31Zm5.34-1.03c-.21,1.15.46,1.43,1.27,1.54.46-.29.93-1.88,0-2.05-.06.53-1.12.07-1.27.51Zm-102.27,2.31c1.39.12,1.77-.78,2.04-1.8-1.09-1.69-3.24-.12-2.04,1.8Zm93.36-1.28c.78-.1,1.3.67,1.53-.26-.95.27-.82-.54-1.27-.77.06.49-.29.57-.26,1.03Zm103.29-.51c0-.26-.45-.32-.51,0,.29-.03.4.37.51,0Zm2.54,2.57c.93.17,1.35-.17,1.78-.51.45-3.44-3.82-1.59-1.78.51Zm-127.2-.26c.33-.34.34-.96-.25-1.03-.33.34-.33.96.25,1.03Zm61.56-.51c-.35.76.15,1.12,0,2.31.53.15.72.64,1.53.51,1.02-.25.87-1.68,1.27-2.57-.95.27-.4-.96-1.27-.77-.6.09-1.05.31-1.53.51Zm-129.74.26c-.08.94.28,1.43.51,2.05h1.53c.08-.93-.04-1.67-.26-2.31-.91-.5-.93.1-1.78.26Zm99.72,0c.44.01.65-.2.76-.51-.44-.01-.65.2-.76.51Zm88.78,2.31c1.14-.34,1.91-.88,2.29.51.26-.81,0-1.36.51-2.31-.32-.88-1.19-1.2-2.55-1.03-.58,1.01.19,1.95-.26,2.82Zm-126.18.51c.86-.78,1.08-1.68.76-3.08-2.15-.53-2.83,3-.76,3.08Zm5.09-1.54c.17-2.49-3.8-1.4-1.78,1.28,1.29.04,1.73-.5,1.78-1.28Zm33.83,0c-.06-.46.26-1.29-.51-1.03-.07.59.06.96.51,1.03Zm-4.83,2.31c1.21.92,3.52,1.05,4.07-.51-.3-1.4-1.36-2.05-2.55-2.57-.41,1.12-1.96,1.1-1.53,3.08Zm36.38-1.03c.46.15,1.06-.75,1.27,0-.54.69-.76.75-1.78.51.21,1.58.99,2.6,2.29,3.08,1.02-.78,1.38-2.06,1.02-3.6-1.45.23-2.49-2.75-2.8,0Zm3.82,2.31c1.71-.04,3.19-1.2,2.29-3.08-1.59.19-2.67.9-2.29,3.08Zm44.77-2.57c.11,1.35.39,1.36.51,2.31,1.48.21,1.3-1.26,1.27-2.57-.68,0-1.46-.1-1.78.26Zm-176.8,2.31c.99.06,1.6-.27,1.78-1.03-.14-2.3-2.81-.09-1.78,1.03Zm73.01-1.28c.68.18.49-.53.76-.77h-.76v.77Zm39.69,2.31c.9-.29,2.12-.26,2.29-1.28-.14-1.14-.6-1.96-2.04-1.8-1.06.68-1.13,2.11-.25,3.08Zm-120.84-.26c.48.06.56-.29,1.02-.26.6-.64,0-1.51,0-2.31-1.9-.62-1.81,1.98-1.02,2.57Zm61.82.26c1.3-.36.42-1.81.25-2.82h-1.02c-.34.88-.61,2.92.76,2.82Zm53.68-1.8c.18.58.23,1.31.51,1.8.93.08,1.66-.04,2.29-.26-.06-.96-.61-1.44-.76-2.31-1.11-.18-1.13.74-2.03.77Zm79.37.51c.04-.3.45-.58,0-.77-.04.3-.46.58,0,.77Zm-129.74,2.31c1.58.5,3.38-.83,3.31-2.82-2.13-.1-2.75,1.34-3.31,2.82Zm133.05.77c.88-.49,2.09-.63,2.29-1.8-.5-1.37-1.76-1.23-2.54-1.8-.93,1.23-1.43,2.8.25,3.59Zm-9.41-1.8c.74.73,2.42.5,2.54-.77-.58-.92-2.95-1.25-2.54.77Zm-184.18,1.28c.92-.39.72-1.33.51-2.31-1.65-.41-2.13,2.31-.51,2.31Zm10.43,1.03c.73-.48.59-2.25.25-3.08-2.35-1.21-2.7,3.29-.25,3.08Zm163.58-2.57v1.8c.92.09,1.23.39,2.04,0,.29-1.06.01-1.74-.76-2.31-.22.38-.82.37-1.27.51Zm24.17-.26c-.48.06-.56-.29-1.02-.26-.4.72,1.1.71,1.02.26Zm-121.6.26c0-.26-.45-.32-.51,0,.05.31.28.16.51,0Zm2.8,2.05c1.1,0,1.83-.38,2.03-1.28-.52-2-3.39-.64-2.03,1.28Zm59.27-.77c-.09,1.2.55,1.67.76,2.57,1.25.24,1.72-.31,2.29-.77.03-1.23-.24-2.15-.76-2.82-1.01.09-1.93.28-2.29,1.03Zm-56.48,2.57c1.44-.26,2.35-1.05,2.8-2.31-.77-.25-1.02-1.02-2.29-.77-.44.69-.88,2.39-.51,3.08Zm32.31-1.28c.14.89,1.52.52,1.78,1.28-.34.43-.68.86-.51,1.8.6.51,1.7.68,2.54.26v-1.8c-.33-.44-1.52,0-1.53-.77-.04-.9.62-1.09.76-1.8-1.18-.56-3.1-.91-3.05,1.03Zm64.62.77c.84-.47,1.05-1,.76-2.05-.37-.4-1.3-.23-2.04-.26-.48,1.02-.08,2.39,1.27,2.31Zm-83.7,2.31c-.4-.09,1.46-.91,1.27-.77.75-.56,1.47-2.11,1.53-3.08-2.83-2.17-5.36,3.28-2.8,3.85Zm90.06-3.85c.29,1.01.29-1.02,0,0h0Zm-38.92,45.7c-.58.62-.9.31-1.78.26-.27,1.1-1.8.92-2.29,1.8-1.12.24-1.31,1.41-2.54,1.54-.64,1.49-2.12,2.14-3.31,3.08-2.86,2.93-4.4,8.94-3.05,13.87,1.04,2.03,2.41,3.72,3.56,5.65,1.27.18,1.82,1.07,3.56.77.34.59,1.02.85.76,2.05,1.35,0,2.22.5,2.29,1.8-1.63-.13-3.84.29-5.85.51-3.19,3.48-7.04,7.21-6.61,13.35.21,2.96.87,6.09,1.53,9.24,1.99,1.25,2.76,3.71,4.58,5.13.8-.28,2.54.36,3.3-.51-1.09-1.81-3.16-3.16-3.56-5.91-.36-2.48.02-6.04,2.29-7.45,1.04-.28,1.25.28,1.53.77.69-1.11,1.31.21,2.55,0,2.21-1.71,2.75-4.96,2.79-7.96.04-2.58-1.83-4.52-1.52-7.19,2.76,0,4.34-.87,5.34-2.05-2.54.87-3.21-2.18-6.11-1.03-.55-3.3-3.38-4.29-5.09-6.42-.7-2.12-1.5-4.13-1.27-7.19.71-1.42,1.92-2.34,2.04-4.37,1.51-.79,2.26-2.34,3.56-3.34,3.75-1.52,6.62-3.93,11.96-3.85,1.48-1.1,4.63-1.37,6.62-.51,2.11-.33,3.3.74,4.83.26,2.09.88,4.49,1.46,6.87,2.05,1.83,1.75,4,3.15,5.85,4.88.27,1.7,1.86,2.06,2.54,3.34-.06,1.26.78,1.61.76,2.82,2.55,1.13,2.5,4.33,3.05,7.19.3,1.53,1.18,3.17,1.27,4.88.13,2.44-.77,5.22,0,7.7-.59,2.32-1.48,4.32-1.53,7.19-.72.9-1.18,2.06-2.29,2.57.48,2.23-1.29,3.86-1.78,5.9-.86.67-1.62,1.45-2.8,1.8-.08.6-.31,1.06-.51,1.54-1.88,1.79-4.25,3.07-6.11,4.88-5.12,2.63-9.2,6.29-15.52,7.7-3.5,1.95-8.07,2.81-12.97,3.34-.46.74-1.54.84-1.53,2.05.36,1.18,1.18,1.89,1.78,2.82,4.29-.47,8.23-.08,11.95-.77,4.04.88,10.63,1.42,12.97,4.62.4.54,1.05,1.11.76,2.05-2.61-.24-3.94.82-5.6,1.54-2,4.55.63,8.9,2.54,11.81,3.67.37,4.88-1.75,6.11-3.85-.36-.84-.69-1.7-.77-2.82.41-.79,1.12-1.27,2.04-1.54.84,1.04,1.04,2.71,1.53,4.11,2.99,2.46,6.2,4.7,8.9,7.45.01.84.72.98.51,2.05.49.62,1.44.77,1.78,1.54-.88,1.45-.21,3.17-.25,5.13-.53,1.94-2.4,2.54-2.29,5.13,1.22.29.89-.98,1.53-1.28,2.25-.73,3.41-2.55,4.58-4.37.67-3.57.62-7.1.26-10.01-1.15-1.66-1.79-3.85-2.29-6.16-1-.79-1.99-1.59-2.29-3.08-1.02-.69-2.51-.89-3.31-1.8.55.04.12-.91.25-1.28,1.78-.67,4.79-.64,6.87-.26,1.13-5.1-3.61-6.45-6.36-8.47-.5-.18.06-1.43-.51-1.54-1.1,1.29-4.28.47-6.11,1.03-.81,1.15-1.43,2.49-2.8,3.08-1.66-.64-3.2-1.39-3.56-3.34-1.81.38-3.56-.85-5.09-1.54-2.79.13-6.47,1.02-8.9-.26.3-.64.92-.95,2.04-.77,1.21-.92,2.39-1.87,4.58-1.8,1.5-1.22,3.6-1.84,6.11-2.05,3.22-2.92,7.34-4.91,10.17-8.22.54-.23.75-.78,1.53-.77.41-1.72,1.76-2.5,2.8-3.59,2.08-4.32,4.85-7.94,5.34-13.87.65-.46.96-1.26,1.27-2.05-.15-1.38.58-2.69.76-4.11.8-6.3-.77-13.38-1.02-18.74-1.56-1.25-2.54-3.08-2.8-5.65-2.48-3.32-3.58-8.03-6.87-10.53-1.35-4.2-4.56-6.52-5.6-11.04.15-1.61-.19-2.72-.26-4.11.87-1.43,1.56-3.05,2.54-4.36,1.05-.99,3.04-1.04,4.83-1.29,1.84.8,2.4,2.88,3.81,4.11,2.16-.49,4.98-2.58,4.33-5.13-.1-.4-.61-1.31-1.02-2.05-1.09-1.99-4.05-5.26-7.12-5.13-2.04.08-2.98,1.79-5.09,2.57-.72,1.24-.48,3.45-2.54,3.34,0-.25-.31-.2-.51-.26-.46-3.23,1.46-6.22,2.8-8.47,2.19-.62,3.48-2.14,5.34-3.08.3-.3.9-.29,1.53-.26.69-.83,2.89-1.93,3.56-3.59.15-.37-.13-.91,0-1.28.6-1.73,1.8-2.38,1.78-3.34-.02-.94-.78-2.13-1.78-2.57.04.64.05,1.25-.51,1.28-2.37,1.72-4.49,3.68-7.63,4.62-1.99,2.27-4.25,4.27-6.36,6.42-2.26,4.36-4.28,9.56-3.56,16.18-.08.69-1.07.46-1.27,1.03.76,0,1.07.46,1.27,1.03.83,3.44,2.04,6.5,3.82,8.99-.13.81.55,1,0,1.54.95.9,1.63,2.29,2.54,3.59.7,1,2.61,2.54,1.27,3.85-4.7-3.34-10.22-4.92-14.5-8.22h-1.78c-1.19-1.19-3.29-1.47-5.09-2.05-.58-1.3-2.45-1.29-3.31-2.31-3.9-.18-6.5-1.96-9.67-3.08-.99.71-1.75,1.65-2.03,3.08,1.68,2.84,6.79,2.22,8.9,4.62-.24.64-1.31-.69-1.27.51.96.23,1.78.6,2.8.77.77-.46-1.55.05-1.02-1.03,2.41-.46,2.68,1.24,4.83,1.03.85,1.37,3.58.84,3.56,3.08-1.23.85-1.86-.77-3.05-.77-2.48.57-5.29.81-7.38,1.8v-.26h-.25c.09-.52-.05-.8-.51-.77-.07.41.24.44.25.77h-.25v.26Zm21.62-45.45c-.02.45.06.8.26,1.03.75.31,1.09-1.08.51-1.28-.04.3-.41.28-.77.26Zm-163.32,1.8c.92.83,3.06,1.19,3.05-.77-1.27-.34-1.08.79-2.04.77-.47-.46.21-.65,0-1.54-.81.03-1.12.58-1.02,1.54Zm52.15.77c.2.06.5,0,.51.26.73-.11,1.16-.54,1.27-1.28-.02-2.46-3.19-.77-1.78,1.03Zm52.15,1.28c2.29.67,3.03-2.61,1.27-3.08-.26,0-.3-.21-.51-.26-.7.95-1.71,2.09-.76,3.34Zm22.64-1.28c.75.44.72,1.67,2.29,1.28.41-.7.7-1.52.76-2.57-.9.14-.62-.91-1.53-.77-.49.71-1.13,1.26-1.53,2.05Zm-69.96,1.8c2.04.46,3.33-1.01,2.8-2.31-1.38-1.88-3.96.03-2.8,2.31Zm107.1-.51c1.31.12,2.18-.2,2.54-1.03-.15-.97-1.43-2.14-2.54-1.28.74.69-.85,1.35,0,2.31Zm4.83-2.57h-1.27c-.3,1.46,1.32,1,1.27,0Zm9.67,1.03c.02-.16.04-.3.26-.26-.03-.31-.08-.61-.51-.51.04.3-.04.73.25.77Zm13.23-.26h.51c.4-.63-.86-.76-.76-.26.16.02.3.04.26.26Zm-200.46,2.05c1.11-.26.58-1.49.26-2.31-1.63-.4-1.71,2.44-.26,2.31Zm3.05.26c1.65.21,2.27-.62,2.29-2.05-1.22-1.34-2.72.16-2.29,2.05Zm128.21-1.8c.52.69,1.53-.33.51-.51,0,.34-.45.23-.51.51Zm-113.71,1.54c.54-.24.35-1.87-.51-1.54.15.53-.41,1.78.51,1.54Zm178.33.26c.8-.12.58.79,1.53.51.34-.43.68-.86.51-1.8-.43-.34-.85-.68-1.78-.51-.35.33-.25,1.11-.25,1.8Zm-109.9-1.03c-.28,1-.64,1.92-2.04,1.8-.14,1.68,1.48,1.59,2.29,2.31,1.13-.83,1.69-2.23,2.04-3.85-.55-.73-1.36-.43-2.29-.26Zm90.57,2.82c1.41.1,1.48.18,2.54-.26.08-.84.59-2.1,0-2.83-2.05-.18-2.26,1.49-2.54,3.08Zm-36.63-1.28c.48.97,1.42,1.47,3.05,1.28.52-.41.59-1.29.51-2.31-1.46-.85-2.93-.33-3.56,1.03Zm-119.31,26.45c-.12-2.02-1.39-3.7-.51-5.9-1.7-7.36-6.96-11.12-10.68-16.43-.47-1.92-1.48-3.3-2.29-4.88h-.76c-1.67,2.78-.84,7.22,0,10.27,4.59,5.04,11.44,7.79,11.45,17.46-.78.5-.56,2-2.29,1.54.15-1.61-.19-2.72-.25-4.11-1.53-2.4-5.79-4.36-9.16-2.57-2.45,1.71-3.48,8.75-.51,10.78,1.82-1.11,1.35-3.59,3.82-3.59,1.33,0,3.1,1.72,3.82,3.34,1.39,3.13.22,7.35,0,10.53-1.3,3.23-3.17,6.53-4.58,10.01-.22.55-.07,1.24-.25,1.8-.16.48-.83.8-1.02,1.28-.26.67-.29,1.76-.51,2.57-.21.78-.58,1.57-.76,2.31-.42,1.68-.4,3.6-.76,5.39-.16.79-.66,1.53-.76,2.31-.79,5.96.33,12.53.76,18.23,1.16,2.01,1.56,4.38,2.29,6.42,1.5,4.2,3.39,6.94,5.6,10.02,1.02,1.42,2.04,3.07,3.05,4.11,3.27,3.34,7.42,5.29,11.19,8.22,2.79.88,6.09,2.22,8.65,3.08.87.29,2.2.08,2.54,1.03-.99,1.8-5.22,1.28-6.87.51-.09.97-1.26.61-1.78.77-.61.19-1.23.58-1.78.77-1.28.44-2.92.7-4.07,1.28-1.47.74-2.12,2.41-3.82,2.57h-2.04c-1.02-3.79-3.11-4.58-6.36-3.85-.83.19-1.89.09-2.29.26-.95.39-1.77,1.69-2.54,2.31-1.16.93-2.42,1.3-2.54,2.31.53,2.38,3.13,2.66,4.32,4.37,1.24.07,2.68-.81,3.05.51.49,2.15-1.78,2.52-2.8,3.6-2.26,2.38-2.46,5.77-4.32,8.73-.61,4.14-1.47,9.98,1.27,13.1,1.1-4.62,2.79-8.65,5.09-12.07,1.96-.76,2.37-3.09,4.07-4.11.26-1.02.12-2.45,1.02-2.82.96.22,1.2-.85,1.78-.26.89.47.8,1.93.76,3.34,1.08,1.14,1.35,3.09,3.05,3.59,3.08-1.09,4.03-4.96,4.58-8.47.16-1.02.56-2.2.51-2.82-.17-2.22-1.8-3.05-2.54-4.62,1.92-2.85,6.13-3.4,9.41-4.88,4.04-.08,9.02-.04,12.72-1.03.77-1.54,2.2-2.4,2.8-4.11-1.75-1.96-3.93-2.06-7.38-2.05-1.73-1.08-3.97-1.64-6.36-2.05-6.36-3.77-13.5-6.75-18.32-12.07-1.85-3.95-4.88-6.72-6.61-10.78-.11-1.43-.89-2.19-1.27-3.34.32-2.12-.78-2.81-1.02-4.37.62-2.42-1.36-6.45.51-8.47-.82-1.98-.53-4.33,0-6.68.94-4.19,2.46-8.5,4.83-10.53-.11-1.31.7-1.69.76-2.82,2.5-1.51,4.83-3.17,7.12-4.88,2.73-1.07,5.84-1.67,8.9-1.54,5.82.24,10.55,3.19,13.74,5.91,2.31,3.34,4.97,9.48,2.54,14.12-1.05,2-3.84,2.77-3.05,5.65,1.8-.15,2.54-1.37,4.83-1.03.64-.55.8-1.59,1.53-2.05.86-4.32.8-9.16.25-13.09-1.68-4.29-4.29-7.66-7.63-10.27-5.22-1.84-11.29-4.14-18.06-2.31-1.08.62-2.55,1.35-3.82,2.05-1.2.67-2.66,2.23-3.81,1.28-.38-1.84,1.53-1.37,2.29-2.05,1.41-2.6,4.28-3.72,6.1-5.9,1.81-.91,3.86-1.58,5.6-2.57,2.15.21,2.59-1.32,4.83-1.03,1.16-1.27,3.61-.63,4.07-2.31.21-.75-.27-1.1-1.02-2.05-4.09-.11-5.81,2.17-9.67,2.31-3.1,2.18-6.8,3.75-9.41,6.42-.82,1.48-1.09,3.52-3.31,3.6.25-6.09,4.5-12.15,4.07-19.26Zm-8.39-25.16c.88-.39,2.21-.34,1.78-2.05h-1.78c-.24.71-.77,1.68,0,2.05Zm104.56.51c1.89,1.17,3.11-1.47,2.04-2.57-1.64-.11-2.28.78-2.04,2.57Zm15.26-.26c1.07-.65,1.13.56,2.55.26.04-.82,1.36-1.12.76-1.8-.63-.3-.98-.9-2.04-.77-.68.51-.31,2.08-1.27,2.31Zm-68.69.26c.35-.01.56.12.76.26.66-.45.6-1.79.25-2.57h-.76c-.08.78-.95,1.54-.26,2.31Zm58.77-1.8c.29,1.01.29-1.01,0,0h0Zm79.12,2.57c.05-.29.28-.4.51-.51.17-1.11-.44-1.44-.76-2.05-2.64-.62-2.1,3.29.26,2.57Zm-34.34-.26c.01.33.32.36.25.77,1,.62,2.85.23,2.8-1.03-.29-.73-.53-1.52-1.53-1.54-.87.23-1.38.83-1.53,1.8Zm4.83.51c.8.32,1.7.68,2.54.26.21-.64.33-1.38.26-2.31-1.48-.66-3.36-.12-2.8,2.05Zm-71.99-1.8c-.24,1.07.12,1.27-.26,2.31,1.27.64,2.11.39,3.05-.26.13-1.07-.14-1.74-.51-2.31-1.02-.18-1.45.25-2.29.26Zm14.24,0c-.95,1.48-.03,3.19,1.78,2.31.18-1.55-.1-2.64-1.78-2.31Zm-113.97,1.03c-.26,1.75,1.31,2.34,2.54,1.8.07-1.1-.36-1.7-.76-2.31-.91-.15-1.23.3-1.78.51Zm89.04.51c.74.38.74-1.15,0-.77v.77Zm75.56.51c.03-.64.49-.8-.25-1.03-.35.44-.82,1.01.25,1.03Zm-146.79,1.29h1.53c.26-.34.25-.95.51-1.29-1.18-1.46-2.84-.05-2.04,1.29Zm72.76-1.8c0-.26-.45-.32-.51,0,.29-.03.4.37.51,0Zm45.54,2.57c1.36.26,1.77-.44,2.55-.77.11-.88-.1-1.44-.26-2.05-.79,0-1.66.61-2.29,0,.52.95-.17,1.53,0,2.82Zm-69.7-1.03h.76c.35-.33.44-1.54-.26-1.54-.45.3-1.16.89-.51,1.54Zm2.29-.26h.51c.02-.33.33-.36.26-.77h-.51c-.01.33-.33.36-.26.77Zm124.4,2.82c1.36-.59,2.7-1.21,2.54-3.34-1.9-1.05-3.59,1.41-2.54,3.34Zm-179.35-.26c.8-.22,1.56-.48,1.78-1.28-.17-2.85-3.59-.11-1.78,1.28Zm117.53-1.28c-.02,1.14.3,1.92,1.27,2.05.99-.12,1.07-1.14,1.27-2.05-.52-.77-1.95-.55-2.54,0Zm-60.55,0c-.15.9,1.2.84.51,1.54-.81.22-.79-.4-1.27-.51-.01,1.38.31,2.42,1.78,2.31.39-.89.22-2.34.26-3.59-.59-.08-.98.04-1.27.26Zm10.94,2.31c1.69.25,2.04-.85,2.29-2.05-1.27-1.57-3.64.23-2.29,2.05Zm82.17-2.31c-.61,1.08.1,2.72,1.02,3.08,1.73-.26,1.04-3.64-1.02-3.08Zm33.33,2.31c.3.98,1.39,1.17,2.8,1.03.57-.83.14-2.42,0-3.34-1.74-.04-2.45.95-2.8,2.31Zm-93.87-1.03h.51c.28-.37.27-.62-.25-.77-.02.33-.33.36-.26.77Zm-5.09-.26c-.16.94.17,1.37.51,1.8h1.27c.35-.5.24-1.47.51-2.05-.79.05-1.87-.17-2.29.26Zm62.33-.26c-1.31.62.88.66,0,0h0Zm-160.78,1.8c.7,0,.6-1.21.25-1.54h-.76c-.42.42-.31,1.61.51,1.54Zm168.41.77c.32.53.4,1.3,1.27,1.28,1.03-.33,1.7-1.03,1.78-2.31-.51-.34-.59-1.12-1.27-1.28-.11,1.26-1.89.83-1.78,2.31Zm6.36-2.05c.29,1.02.29-1.01,0,0h0Zm-156.71.51c.3,1.01.3-1.01,0,0h0Zm58.26,0c-.09,1.38.63,1.93,2.04,1.8-.03-.74.14-1.68-.26-2.05-.68,0-1.45-.1-1.78.26Zm-53.93,2.05c.43.34.85.68,1.78.51-.18-.95.44-1.1.26-2.05-.97-1.19-2.28,0-2.04,1.54Zm44.27-1.03h.51v-1.03h-.51v1.03Zm36.38,2.31h1.78c.5-1.53-.04-3.07-2.29-3.08-.43,1.23,0,2.15.51,3.08Zm-84.97-1.03c.76-.01,1.29.75,1.78.26.11-.88-.1-1.44-.25-2.05-1.31-.21-1.56.66-1.53,1.8Zm170.7-.26c.68,1.06,1.98,1.62,3.31.77-.08-.94-.29-1.76-.76-2.31-1.5-.14-2.58.13-2.55,1.54Zm-186.72,1.54c1.12.11,1.61-.43,1.78-1.28-.79.12-.81-.55-.76-1.28h-1.02c-.22.64-.5,1.99,0,2.57Zm193.08-1.8c0-.26-.45-.32-.51,0,.05.31.28.16.51,0Zm-64.61,1.28c.52,1.35,1.21,2.54,2.55,3.08,1.4-.54.49-2.5.25-3.59-.74-.25-2.76-.67-2.8.51Zm-57.24.51c.38.05.23.62.26,1.03.72.2,1.92.76,2.54.26.18-1.12-.73-1.14-.76-2.05-1-.07-1.77.1-2.04.77Zm21.62,2.05c1.41.02,1.69-.86,2.54-.77v-1.8c-.6,0-.75-.44-1.53-.26-.61.67-1.09,1.46-1.02,2.83Zm100.74-2.57c-2.33-.33-1.98,1.54-1.53,2.82,1.34.16,2.15-.23,2.29-1.28-.24-.53-.52-1.02-.76-1.54Zm-30.78,1.54c.8-.04.5,1.04,1.02,1.28,1.29.28,1.56-.47,2.04-1.03-.12-1.73-2.73-2.02-3.05-.26Zm-4.58,2.31c1.25-.45,2.4-1.01,2.29-2.83-1-.99-1.77.16-2.8.51-.71-.38.54-1.15-.51-1.03-.54,1.91.49,2,1.02,3.34Zm-88.78-2.31c-.03-.66-.85-.51-1.53-.51-.61,1.43,1.65,1.82,1.53.51Zm83.95.26c.44-.24,1.37,0,1.27-.77-.73-.05-1.39-.03-1.27.77Zm7.63,0c.29,1.01.29-1.01,0,0h0Zm36.12,2.05c1.27-.19,1.44.1,2.29-.51-.67-.52-.68-1.71-2.04-1.54-.2.91-.03.93-.26,2.05Zm-174,1.28c1.06.13,1.72-.14,2.29-.51.08-1.02.01-1.9-.51-2.31-1.61-.09-1.54,1.53-1.78,2.82Zm138.64.77c-1.65-.48-2.11.62-2.04,2.31.4.66,2.35.72,3.05.26-.59-1.67-.2-2.17-.25-3.59.38-.39,1.45-.08,1.27-1.03-1.57.56-.44-1.61-1.53-1.54-1.01.71.33,2.5-.51,3.59Zm-157.98-1.03c.31-.37.97-.39,1.27-.77-.21-.73-.57-1.3-1.27-1.54-.29.33-.51,2.02,0,2.31Zm15.26-.51c1.33.96,2.37-.09,1.78-1.8-1.43-.25-1.86.52-1.78,1.8Zm-22.13,0c.53.15.72.64,1.53.51.11-.49.73-.46.51-1.28,0-.7-1.55-1.15-2.04-.51.74.22-.15.83,0,1.28Zm128.98-.77v1.54c1.18.7,1.94-.15,2.8-.51-.09-.6-.31-1.06-.51-1.54-1.16-.23-1.44.43-2.29.51Zm27.22-.51c-.2.06-.5,0-.51.26.2-.06.5,0,.51-.26Zm0,1.8h.51v-.51h-.51v.51Zm40.96,2.82c1.23-.21,1.74-1.16,2.04-2.31-1.02-2.18-3.1.31-2.04,2.31Zm-193.59-2.82c.07,1.3.22,2.52,1.78,2.31.51-.95.11-1.81-.25-2.57-.63-.03-1.23-.04-1.53.26Zm165.35,1.54c.74.5,2.62.36,2.54-.77-.21-1.89-2.75-.75-2.54.77Zm-1.02-.77c.74.38.74-1.15,0-.77v.77Zm-10.18,2.57c1.31.21,1.93-.28,2.8-.51-.18-1.19-.45-2.29-1.53-2.57-.34,1.02-1.7,2.11-1.27,3.08Zm-66.4,0c.75-.18,1.58-.29,2.04-.77v-1.54c-1.73-1.29-3.55,1.07-2.04,2.31Zm33.07-2.57c-2.11-.2-3.24,1.1-3.31,3.08,2.12-.09,3.38,2.92,6.11,3.08.53-1.09,1.93-1.3,2.04-2.82-1.35-.76-3.27-3.19-4.83-3.34Zm-116,.77c-.23,1.18.54,1.34,1.53,1.28v-1.54c-.63-.03-1.23-.04-1.53.26Zm16.03.26c-.59.61-1.29,1.09-1.02,2.57.62.23,1.1.6,2.04.51.65-1.12,0-2.82-1.02-3.08Zm2.54,2.82c1.1.79,2.4.13,3.56.51-.84-.95-1.13-2.46-3.31-2.05-.22.91-.03.63-.25,1.54Zm-26.2,1.8c1.38-.15,2.1-.96,2.29-2.31-1.51-1.69-3.6,1.1-2.29,2.31Zm153.91-.26c.29.05.39.28.51.51,1.07-.03,1.52-.69,1.78-1.54-.86-1.13-2.41-.7-2.29,1.03Zm44.01-1.03c.14,1.23.56,2.17,1.78,2.31-.04-.9.9-.81,1.27-1.28,0-.61-.44-.76-.26-1.54-.88.21-.98-.38-1.78-.26-.22.38-.2.99-1.02.77Zm-112.95,1.8c.61.61,1.57,1.26,2.55.77.4-2.84-2.6-4.21-2.55-.77Zm81.91,1.03c.87.45,1.58-.11,2.54-.26,0-1.46-.37-2.54-1.53-2.82-1.41-.06-.94,1.79-1.02,3.08Zm-135.85-1.8c-1-.24-1.51-.24-1.52,1.03,1.38-.28,1.69.52,2.8.51.34-.43.67-.86.51-1.8-.82-.68-1.11-.31-1.78.26Zm130,2.31c.39-.57-.96-1.16-.26-2.31-.95.27-.4-.96-1.27-.77-.74.71-1.98.91-1.78,2.57.3.12.58.27.76.51,1.07.05.79-1.26,2.04-1.03.06.46-.26,1.29.51,1.03Zm33.32-1.54h.51v-.51h-.51v.51Zm-77.84,1.54c1.02.09,1.86,0,2.04-.77-.47-.55-.75-1.3-2.04-1.03v1.8Zm85.22-1.03c.3,1.01.3-1.02,0,0h0Zm-123.38.26c.29,1.02.29-1.01,0,0h0Zm-52.91.77c.05.8-.17,1.89.25,2.31,1.21.19,1.75-.29,2.8-.26,1.02-2.35-1.69-3.56-3.05-2.05Zm168.92.77c.86.33.96,1.42,2.04,1.54.37-.4.64-.89,1.27-1.03-.06-.79-.26-1.45-.51-2.05-1.71-.27-2.3.58-2.8,1.54Zm-104.56,1.28c.36-.06.43-.42.76-.51.34-4.15-4.17-.12-.76.51Zm31.54,0c1.05-.65,3.23-.17,2.8-2.31-1.02.09-1.41-.46-2.54-.26-.53.79-1.09,1.69-.25,2.57Zm28.49-.51c.02.33.33.36.26.77.65.63,2.01.54,3.31.51,1.77-3.12-3.64-4.82-3.56-1.29Zm13.48.26h1.78c-.2-.89.38-.99.25-1.8-.41-.53-1.28-.59-2.29-.51.05.8-.17,1.88.25,2.31Zm-78.86-.51c-.56-1.32-1.96-1.79-4.07-1.54-1.19,2.92,3.6,3.48,4.07,1.54Zm-84.46,2.05h1.27c.35-.33.15-1.21.51-1.54-.39-.64-.96-1.08-1.78-1.28-.49.62-.25,2.15,0,2.83Zm112.95-.51c.8-.12.58.79,1.53.51.25-.77.9-1.15.77-2.31-1.3-.67-2.25.43-2.29,1.8Zm69.96-1.03c-.04,1.6-.62,2.83,1.02,3.08,1.54-.5,2.64-1.44,2.8-3.34-1.1-1.04-2.71-.16-3.81.26Zm-151.62,1.8c1.15.04,2.33.13,2.29-1.03-.46-.56-.92-1.12-2.04-1.03-.15.62-.37,1.17-.25,2.05Zm127.45,1.03c-.43-1.03.8-2.55-.26-2.57-.47.38-1.21.49-2.04.51-.31,1.24-.68,2.18.25,2.82,1.15.22,1.27-.6,2.04-.77Zm43.5-2.31c.29,1.01.29-1.01,0,0h0Zm-178.33,3.08c2.01.55,2.1-1.68,1.27-2.57-2.18-.72-2.05,1.73-1.27,2.57Zm142.46-.77c.61.5.69,1.53,2.04,1.28.72-.38.87-1.34.76-2.57-1.08-1.02-2.49.06-2.8,1.28Zm22.64,1.54c.53.15.73.63,1.53.51.66-1.22,2.21-1.54,2.29-3.34-1.97-1.43-3.73.76-3.82,2.82Zm-99.72-.77c.42.52.68,1.19,1.53,1.29.68-.6,1.71-.84,2.04-1.8.03-.79-.31-1.23-.51-1.8-1.93-.15-2.81.76-3.05,2.31Zm28.24-1.03c.71.59,2.02.14,1.78-1.03-.81-.69-1.86.03-1.78,1.03Zm-34.34.51c.62.49,1.07,1.15,2.29,1.03.1-.67.76-.77.76-1.54-.38-1.54-2.73-.81-3.05.51Zm77.59,1.8c1.64.6,2.15-1.16,2.29-2.83-.3-.3-.9-.29-1.53-.26-.59.61-1.43,2.02-.76,3.08Zm40.2-2.31c-.65-1.51-1.85.11-2.8-.51.42,1.49-.44,1.35-.26,3.08.8-.12.67.69,1.27.77,1.1-.6,1.53-1.88,1.78-3.34Zm-165.1,2.31c1.3-.05,1.23-1.5,1.53-2.57-2.39-1.47-3.52,1.9-1.53,2.57Zm158.75-2.05c0-.26-.45-.32-.51,0,.29-.03.39.37.51,0Zm-167.14,2.31c1.01.7,2.47.04,2.04-1.54-1.17-1.15-1.97.17-2.04,1.54Zm127.71-1.8c0-.26-.44-.32-.51,0,.05.31.28.16.51,0Zm-45.79,2.57c.68,0,.55.81,1.27.77.64-.73,1.48-1.25,1.53-2.57-1.52-.92-3.05.11-2.8,1.8Zm-110.41-1.03c-.11,1.56.4,2.5,1.53,2.82,1.83-.81.73-4.18-1.53-2.82Zm32.31.77c.29.92,1.89,1.42,2.54.51.25-1.53-2.44-2.28-2.54-.51Zm84.46,2.31c.78-.8.62-2.56-.51-2.82-1.61.73-1.57,3.36.51,2.82Zm-31.04-2.05c.29,1.02.29-1.01,0,0h0Zm80.14.26h.51v-.51h-.51v.51Zm26.2,2.31c.95,1.09,3.97,2.22,4.32-.26-.21-.55-1.62.1-1.78-.51v-1.29c.65-.28,1.31.88,1.27-.26-.17-.35-.55-.48-1.02-.51-.54,1.33-3.07.66-2.8,2.82Zm-21.37-.26c.04-.98-.01-1.87-.51-2.31-.26.72-1.08-.07-1.53,0-1.49,1.72.48,4.17,2.04,2.31Zm14.76-2.05c-.21,1.32.21,2.02.76,2.57,1.21.11,1.9-.31,2.54-.77-.06-.79-.26-1.45-.51-2.05-1.2-.19-1.75.29-2.8.26Zm-161.03,1.54c.63.03,1.22.04,1.53-.26v-1.03c-.74-.62-1.92-.04-1.53,1.29Zm83.44,3.59c.78.19.92-.26,1.52-.26.67-1.6.12-4-1.02-4.62-.42,1.67-1.65,3.01-.51,4.88Zm55.71-4.37h.51v-.51h-.51v.51Zm-19.33,1.54c.99.28,1.02-1.53.25-1.54-.31.4-.81,1-.25,1.54Zm-115.5.51c.18-.6.64-1.92-.51-1.8-.7.49-.64,1.83.51,1.8Zm171.46,1.8c1.41.05,1.88-.84,2.29-1.8-.57-.36-.5-1.38-1.27-1.54-2.11.15-1.79,1.96-1.02,3.34Zm-56.73,1.03c1.37-.9.57-2.79-.76-3.08-1.22.74-.87,3.08.76,3.08Zm-142.72.26c1.65-.07,1.52-1.13,1.02-2.31-1.77-.38-1.76,1.54-1.02,2.31Zm8.9,0c1.08,1.09,3.65.38,3.05-1.8-1.16-1.17-3.48-.21-3.05,1.8Zm83.7-2.31c-1.4.83-.98,2.36-1.02,3.85-.02.74-1.03,1.99,0,2.05.61-1.36,1.08-2.85,3.05-2.82-.21-1.5-.75-2.66-2.04-3.08Zm52.91.51c.26,0,.3.21.51.26-.02-.4.04-.89-.51-.77v.51Zm-34.09,2.05c1.73.4,2.38-.86,1.78-2.05h-1.78v2.05Zm-108.63,0c.36.07.29.56.51.77,1.35,0,2.21-.5,2.29-1.8-.46-1.42-3.3-.83-2.8,1.03Zm185.2-.77c.09,1.22.09,1.41.51,2.57,1.54-.33,2.47-1.27,2.8-2.82-.82-1.04-2.37-.1-3.31.26Zm-42.48,2.31c1.32.57,2.79-.26,2.55-2.05-1.13-1.76-2.81.13-2.55,2.05Zm9.92-2.31c.3,1.02.3-1.01,0,0h0Zm39.94.77c-.22,1.5.26,2.31,1.27,2.57,1.2.02,1.45-.94,2.04-1.54-.52-1.06-2.05-2.2-3.31-1.03Zm-188.5,3.59c1.11.26,1.17-.53,1.78-.77-.14-.8-.21-1.67-.51-2.31-1.82-.25-2.05,2.19-1.27,3.08Zm2.8-1.28h.51v-1.03h-.51v1.03Zm139.15,0c.63.04,1.24.05,1.27-.51-.51-.54-1.09,0-1.27.51Zm-107.35,1.54h1.53c.52-.81.79-2.2-.77-2.05-.76.7-.08,1.27-.76,2.05Zm65.38.26c.68.26,1.34.53,2.29.51.6-.42.55-1.5.51-2.57-1.53-.86-3.29.03-2.8,2.05Zm32.05-1.8c.31,1.57,1.34,2.41,2.8,2.82.32-.62.63-1.25.76-2.05-1.08-.5-2.25-1.99-3.56-.77Zm53.93,2.05c.72.21.66-.36,1.27-.26-.05-.97.26-2.31-.76-2.31-.73.62-.89,1.42-.51,2.57Zm7.38.51c.8.12,1-.37,1.53-.51-.06-1.14-.39-2.01-1.53-2.05v2.57Zm-197.66-1.29c-1.26-2.26-3.27,1.33-1.02,1.8.61-.33,1.04-.84,1.02-1.8Zm85.22-.51c0-.26-.45-.32-.51,0,.05.31.28.16.51,0Zm50.37.51c-.3-.04-.28-.41-.25-.77-.82-.22-.8.39-1.02.77.63-.33,1.23.57,1.27,0Zm-105.57,2.05c.37.38,1.66.38,2.04,0,.34-.54-.13-.76.25-1.54-1-1.19-2.61-.13-2.29,1.54Zm4.58.26c.6.08.95.41,1.78.26.34-.8.49-2.41-.51-2.57-.35.84-1.57.81-1.27,2.31Zm58.51.51c.25-.43,1.18-.18,1.27-.77-.19-.92-.5-1.72-1.78-1.54-.5.63-.34,2.24.51,2.31Zm-50.62,0c.58.44,1.49.55,2.54.51,1.33-2.85-2.19-2.49-2.54-.51Zm46.04-.26c.68,0,1.5.14,1.53-.51-1.08.32-.68-.85-1.27-1.03-.29.3-.29.91-.26,1.54Zm44.01,5.39c.7.92,1.42.67,2.54.26.3-1.07.32-2.42.51-3.59.37-.14,1.32.3,1.27-.26-1.04-.23-1.3-1.26-1.53-2.31-.42-.34-1.62.09-1.53-.77-.01-.16-.04-.3-.25-.26-1.9,1.78.25,4.58-1.02,6.93Zm-130.76-3.59c1.14.04.98-1.24,1.27-2.05-.23-.45-.57-.79-1.02-1.03-1.04.2-1.01,2.55-.25,3.08Zm3.81-2.31v2.31c.84-.27,1.42-.8,1.78-1.54.04-.64.05-1.25-.51-1.28-.07.53-1.12.07-1.27.51Zm33.33,2.05c1.14-.36,2.26.78,2.54-.26-1.19,0-.41-1.98-1.53-2.05-.36.75-1.33.88-1.02,2.31Zm63.34,1.28c.77.35.91-.12,2.04,0-.25-1.02.76-.77.51-1.8-.44-.67-.91-1.3-2.04-1.29-.83.93-.14,1.92-.51,3.08Zm92.09-1.28c.83.07,1.22-.3,1.27-1.03-.01-.33-.32-.36-.25-.77h-1.02c-.11.55-.32,1.14,0,1.8Zm-65.89.51c.05-.38.62-.24,1.02-.26.04-1.07-.47-1.58-1.53-1.54-.54.58-.18,1.69.51,1.8Zm61.56-1.03c-.39,1.23-.37,2.72,1.02,2.82,1.07-.29,1.12-1.61,1.02-3.08-.75.04-1.57.69-2.04.26Zm-93.62,2.57c1.34.16,2.15-.23,2.29-1.28-.69-1.78-3.39-.72-2.29,1.28Zm-99.47.26c1.18-.01,1.65-.73,1.53-2.05-.3-.21-.68-.34-1.27-.26.2,1.06-.39,1.32-.25,2.31Zm166.63-1.28c.21.72.29,1.58.51,2.31.8-.29.58-.02,1.53,0,.25-.78.52-1.53.76-2.31-1.14-.77-1.78-.73-2.8,0Zm-119.31.51c-.03,1.11.42.95.76,2.05.8.12.99-.37,1.53-.51-.25-.86-.22-2-1.02-2.31-.38.3-.62.74-1.27.77Zm111.68.77c.25.34.42.78.76,1.03-.09-.78.83-.53,1.27-.77.5-2.37-2.08-2-2.03-.26Zm40.45,1.54c.3.12.58.28.76.51,1.13-.4,1.83-1.24,1.78-2.82-1.73-.12-2.13,1.11-2.54,2.31Zm-194.1,1.54c2.12.17,2.19-1.73,2.29-3.59-1.95-.12-3.05,1.82-2.29,3.59Zm147.8-.77c.93.52.74,1,1.02,1.8.07-.53.68-.51,1.02-.77-.19-1.39.31-2.08.25-3.34-1.24-1.3-2.53.55-2.29,2.31Zm-22.39-1.8c.21,1.25.97,1.93,2.54,1.8.25-.86.08-1.91,0-2.57-1.36-.26-1.77.44-2.54.77Zm26.71,1.54c-1.17,1.08-.58,2.8.76,3.34h1.02c.44-.84.96-1.6.76-3.08-1.35-.18-1.17-1.9-2.29-2.31-.2.89.28,1.08.51,1.54-.28.06-.17.51-.51.51v-.26h-.25c.16-.9-.92-.45-.25,0v.26h.25Zm16.28,1.03c1.22.9,3.33.06,2.8-2.31-1.59-1.2-3.13.1-2.8,2.31Zm-70.97-2.05c-.13,1.07.14,1.74.51,2.31.8.12.58-.79,1.53-.51.08-1.85-.37-2.15-2.04-1.8Zm60.04.51c-.18,1.73.79,2.29,2.04,2.57.46-.93.81-2.5,0-3.34-.78.15-1.33.54-2.04.77Zm5.85,2.05c-.12.81.36,1,.51,1.54,2.15.46,2.23-1.17,2.54-2.57-1.42-.24-.83-.92-.25-1.54-1.6.18-1.53,2.05-2.8,2.57Zm34.85-1.03c.06-.2.21-.3.51-.26v-.77h-.76c.04.38-.09.95.25,1.03Zm-202.24,3.34c1.94.1,1.88-3.08.51-3.59-.84.44-1.06,2.58-.51,3.59Zm49.61-1.8c.45.32.74.8,1.27,1.03-.41-.11-.85.96-.25,1.03-.26-.77.57-.46,1.02-.51.2-1.27.4-2.4-.25-3.34h-1.27c-.28.49-.32,1.21-.51,1.8Zm144.24-.26c.63.65.87,1.69,2.29,1.54.06-.2.21-.3.51-.26,1.39-2.68-2.22-3.7-2.8-1.29Zm-27.73-.77c.29,1.02.29-1.01,0,0h0Zm-18.06,3.08c1.31-.22,2.33-.73,2.04-2.57-1.9-.48-2.74,1.25-2.04,2.57Zm54.44-2.31c.29,1.02.29-1.01,0,0h0Zm-73.52,1.54c.23,1.1,1.04.85.26,1.8,1.04-.25,1.03.03,2.29,0,.71-.71,1.67-2.66.25-3.34-1.21.23-1.54,1.36-2.8,1.54Zm31.04-1.03h.51v-.52h-.51v.52Zm16.54.51c.18,1.03-.24,1.46-.25,2.31,1.33.32,3.08,0,3.56-1.8-.26-.34-.25-.95-.51-1.28-1.52-.33-1.73.66-2.8.77Zm-148.06,1.28c.45.23.65.72,1.53.51.31-.73.31-1.59,0-2.31-1.38-.28-1.4.81-1.53,1.8Zm125.16-.26c1.03.08,1.48.9,2.54.26.04-1.33-1.01-1.54-2.04-1.8-.2.48-.43.94-.51,1.54Zm-120.08,2.05c.38-.42.38-1.89,0-2.31-1.71-.39-1.71,2.7,0,2.31Zm117.02-.26c1.25.15,1.37-.85,1.27-2.05-1.44-.39-1.9,1.17-1.27,2.05Zm-148.57-.77c-.27,1.3.58,1.47.51,2.57,1.17-.36,2.19-.87,2.03-2.57-.61-.86-1.81-.41-2.54,0Zm22.64,2.31c.76-.09,1.29-.41,1.78-.77.13-1.16-.2-1.85-1.02-2.05-.57.63-.93,1.46-.76,2.83Zm100.74-.52c.45.32,1.84-.04,2.29-.51.06-1.35-.66-1.9-2.04-1.8-.43.43-.2,1.51-.25,2.31Zm74.28,1.29c1.21-.65.83-2.16,1.02-3.34-2.27-1.48-3.99,3.89-1.02,3.34Zm-23.4,1.03c-2.43-1.71-5.55-3.86-9.67-3.34-.14-.37-.4-.63-.77-.77-.06.2-.21.3-.51.26-6.06-.32-9.02,1.73-12.72,3.34-.85,1.29-2.68,3.53-2.8,5.13-.18,2.39,1.55,3.54,2.8,5.13,4.52.77,8.49,2.14,12.21-.51-1.79-.59-2.85-1.92-2.54-4.62,1.71-2.71,4.9-3.54,8.9-3.34,1.07.57,1.21.8,2.8.51,1.75.97,2.6,2.86,4.83,3.34.93-2.94-1.04-4.07-2.54-5.13Zm-155.94-3.08c0,1.04.07,1.98.76,2.31.29-.62,1.3-.66,1.53,0,.56-1.02-.07-1.84,0-3.08-1.26-.24-1.72.31-2.29.77Zm18.06,1.29c.78.18.93-.26,1.53-.26.21-1.24-.32-1.73-1.27-1.8-.3.5-.84,1.44-.25,2.05Zm14.76-1.03c0,1.11.18,2.04,1.27,2.05.5-.18.68-.68.76-1.28-.08-1.25-1.22-1.56-2.03-.77Zm120.33.26h.51c.01-.33.33-.36.25-.77h-.51c-.01.33-.33.36-.26.77Zm-144.75.77c.57.45.85,1.2,2.04,1.03.34-.43.68-.86.51-1.8-.72-.78-2.23-.65-2.54.77Zm115.75.77c.44.67.93,1.29,2.29,1.03.48-.8,1.14-1.42,1.27-2.57-1.59-.26-2.99-.71-3.56,1.54Zm35.36-.51c1.26-.06.84.37.76,1.28.61.16,1.16.37,2.04.26.39-.38.22-1.31.25-2.05-.76-.74-2.92-.79-3.05.51Zm-78.35-.51c-.29.03-.4-.37-.51,0,0,.26.45.32.51,0Zm34.34.77c.07-.16.63-.99,0-1.03.24.48-.76.86,0,1.03Zm-137.88.26c.16,1.18.16,2.13,1.78,2.31.83-.28.96-1.26,1.53-1.8-.26-.85-.7-1.52-1.78-1.54-.69.16-.63,1.07-1.53,1.03Zm36.63,1.03c.61.56,1.55,1.05,2.54.51.13-1.08-.44-1.44-.51-2.31-1.47-.2-2.3.25-2.04,1.8Zm97.94-.26c-.11,1.05.24,1.64.51,2.31.96-.2,1.22.31,2.04.26,1.8-1.99-1.3-5.12-2.54-2.57Zm-115.24,1.29c.33.44.53,1.01,1.27,1.03.6-.42.55-1.5.51-2.57-1.3-.2-1.73.48-1.78,1.54Zm112.19,1.8c1.41-.98.73-3.81-1.52-3.34-1.18,1.19-.19,3.49,1.52,3.34Zm-6.11,1.28c-.18,1.12.43,1.45.26,2.57.62.23,1.1.6,2.04.51,1.18-1.25.1-3.59-1.53-3.59v-3.34c-4.04-1.6-3.66,3.73-.77,3.85Zm-84.46-3.08c.58.19.08,1.46,1.02,1.28.73-.04.46-1.07.51-1.8-.68,0-1.5-.14-1.53.51Zm143.23.77c-1.12.73-.93,2.03-.51,3.59,1.06-.24,1.51-.54,2.54-.26-.71-1.3.52-1.98.76-3.08-1.31-.18,0-1.5-1.53-1.54.11.88-.08,1.46-1.02,1.28v-.26h-.26c.86-.69-1.11-.69-.25,0v.26h.25Zm-139.41-.77c-.33.74-.33,1.82,0,2.57,2.21.74,2.07-4.03,0-2.57Zm-.51,9.76c-1.55-3.4-2.74-7.16-7.12-7.7-.47-.47-.86-1.02-1.53-1.28-2.75-.27-5.87-.65-8.39-.51-1.52,2.14-4.75,2.57-5.09,5.9,2.62.74,4.22-1.29,6.87-.77,1.25.79,2.27,1.18,2.54,2.57.44,2.2-1.38,3.41-1.78,5.13,4.16,1.64,9.3.67,13.73,1.03.52-1.19.89-2.52.77-4.37Zm12.46-6.68c.84-.44,1.45-1.11,1.53-2.31-.48-.11-.64-.55-1.27-.51-.51.7-1.25,2.07-.26,2.82Zm90.82-1.8c0-.26-.45-.32-.51,0,.05.31.28.16.51,0Zm.51.51c.49.5,1.56.27,1.27-.77h-1.02c.01.35-.12.56-.25.77Zm53.93,2.31c.55-.47,1.8-.24,1.53-1.54-.25-.95-1.6-.79-2.55-1.03-.17,1.37.15,2.25,1.02,2.57Zm-198.94,1.28c1.17-.27,1.66-1.24,1.53-2.82-.55-.21-.87-.66-1.78-.51-.66,1.06-1.7,2.95.25,3.34Zm16.28,1.03c.78.19.49-.7,1.27-.51.23-2.41-1.4-3.29-2.8-3.34-.76,1.61.23,3.48,1.53,3.85Zm99.72-2.05c.2.82.92,1.12,1.27,1.8.91-.36,1.69-.86,1.78-2.05-.3-1.79-2.92-1.49-3.05.26Zm53.42,1.29c.97.53,1.22.78,2.54.51-.3-1.37.24-2.08-.51-3.08-1.75-.22-1.84,1.22-2.04,2.57Zm-37.65-2.05c-1.75-.05-2.43.97-3.31,1.8,1.28-.16,1.38,1.22,2.29,2.05,1.51-.57,2.23-2.44,1.02-3.85Zm32.81,2.57c1.24.13,1.23-.99,2.04,0,.63-.77.33-1.14.26-2.31-1.9-.48-2.69,1.29-2.29,2.31Zm-122.11-1.28c-.05.99.4,1.47,1.27,1.54v-1.8c-.59-.08-.98.04-1.27.26Zm15.77,2.31c.78-.07,1.14-.56,1.78-.77.33-2.57-2.45-1.31-1.78.77Zm-6.62-1.28c.07-.35-.16-1-.26-.51-.07.35.16,1,.26.51Zm-52.4,4.37c.5-1.51.37-4.44-1.27-4.62-.83,1.22-1.01,4.98,1.27,4.62Zm53.93-3.08c.92,1.08,3.1.43,2.8-1.28-1.28-.83-2.7.1-2.8,1.28Zm79.88-.51h.51v-.51h-.51v.51Zm40.45-.51c-1.16,1.22-.96,2.44-.51,4.37,2.71.27,4.24-4.57.51-4.37Zm9.41,2.57c.6.08.96.41,1.78.26,1.34-2.96-1.87-2.95-1.78-.26Zm-15.26.51c.39.37.99.54,1.53.77.89-.76.6-3.31-.77-3.34-.18.93-1.11,1.1-.76,2.57Zm11.96,1.03c1.57-.21,1.28-3.8-.51-3.6-1.39.48-.64,3.36.51,3.6Zm18.31-.51c.1-1.14,1.08-.43,1.53-.77.08-.93-.04-1.67-.26-2.31-2.72-.92-2.84,2.54-1.27,3.08Zm-64.11-1.03c.09.97.76,1.77,2.54,1.54,2.16-3.5-2.79-4.16-2.54-1.54Zm52.66-1.28h.51v-.51h-.51v.51Zm-174.77,1.03c.41.78.78,1.61,1.78,1.8.4-.59.4-2.49,0-3.08-1.12-.11-1.61.43-1.78,1.29Zm108.37,1.54c.81-.56,1.5-1.22,1.27-2.83-1.84-.46-2.66,2.35-1.27,2.83Zm-6.36-.52c.64.39,2.43.95,3.05.52.03-2.41-2.92-3.58-3.05-.52Zm12.97-1.03c-.11,1.13.07,1.98.51,2.57,2.35.11,3.29-.62,2.8-2.82-.94-.74-2.48-.47-3.31.26Zm59.78-.77c-.2.06-.5,0-.51.26.2-.06.5,0,.51-.26Zm-164.08,1.8c.3.73.35,1.7,1.02,2.05.83-.54.85-1.88.76-3.34-1.13-.11-1.61.43-1.78,1.28Zm94.89.52c.96-.29,1.16.24,1.53-.52-.2-.05-.29-.21-.25-.51h-1.27v1.03Zm-98.96.77c.71.56.68,1.88,2.03,1.8,1.49-1.27-1.48-4.8-2.03-1.8Zm39.17,1.8c2.24.61,2.18-2.56.77-2.82-.56.57-1.57,1.7-.77,2.82Zm-42.74.51c1.44.08,1.91-.81,2.04-2.05-.37-.56-.67-1.2-1.78-1.03-.38,1.21-.63,2.22-.25,3.08Zm37.4-.26c.6.08.47.89,1.27.77.46-.64,1.64-.56,1.52-1.8-.79-1.62-3.1-1.6-2.79,1.03Zm11.7-2.31c-1.83-.35-2.17,3.47-.51,3.6.6-.95.98-2.25.51-3.6Zm106.59.77c.44-.24,1.37,0,1.27-.77-.73-.05-1.39-.03-1.27.77Zm6.11,3.34c1.21-.23,1.4-1.49,1.27-3.08-1.48.38-1.52-.69-2.29-1.03.05,1.81-.89,3.5,1.02,4.11Zm-61.05-3.34c-.21,1.52.15-1.03,0,0h0Zm6.62.51c-.14,1.43.12,2.45,1.27,2.57.8-.59,1.93-2.31.76-3.34-1.11-.18-1.13.74-2.03.77Zm62.33,1.03c.6.25.42,1.29,1.27,1.28.53-.15.82-.54,1.27-.77v-2.31c-1.5-.15-2.05.42-2.54,1.8Zm-53.17,1.28c1.39.72,3.14-.19,3.05-1.8-.32-.62-1.04-.83-1.78-1.03-.83.54-1.35,1.38-1.27,2.82Zm-12.72,1.28c.6-.08.57-.79,1.02-1.03.3-1.51-.79-1.6-1.02-2.57-3.01-.75-1.85,3.97,0,3.59Zm57.24,12.07c.73-1.09-.05-3.16,1.27-3.85-.82-.2-.23-1.82-1.27-1.8.07-2.07-2.29-3.82-3.05-5.9-1.01-.6-2.19-1.04-2.8-2.05-1.44.26-1.52-.86-3.05-.51-.24-1.04-2.01-.54-2.29-1.54-3.69-.05-7.53.39-11.96.77-.73.98-.6,2.82-1.78,3.34-.32-.06-.52-.4-.51.26h1.02c1.32,2.2.22,4.97.25,7.7.04,2.96,1.35,4.94,3.05,6.68.46.67-.11.78.25,1.54,1.88,1.96,5.19,2.46,7.88,3.6.66-.36,1.53-.51,2.29-.77-.91-1.91-2.61-3.02-2.8-5.65,1.24-2.43,2.36-4.97,5.6-5.39,2.44.79,3.96,2.51,4.83,4.88,1.3-.1,2.45-.38,3.05-1.28ZM11.45,112.22c.59.35.84,1.03,2.03.77.71-.54.97-3.48-.51-3.34-1.2.16-1.64,1.08-1.53,2.57Zm183.93-2.05c0-.39-1.88-.56-1.53.26.69.47.73.18.51,1.29.67.52,1.37,1.02,2.29,1.28,1.18-.31,1.14-1.87.76-3.08-.75-.35-1.57-.32-2.03.26Zm-171.21.26c.02,1.61.32,2.93,2.04,2.82,1.01-1.7-.43-4.47-2.04-2.82Zm186.47,0c-.14,1.42.04,2.52,1.02,2.82.61-.32,1.35-.52,1.78-1.03-.29-1.38-1.3-2.35-2.8-1.8Zm-173.75,3.08c.6-.09,1.05-.31,1.53-.52-.08-.6.04-.99.25-1.28-1.38-1.1-3.22.76-1.78,1.8Zm33.58,1.28c1.71,1.02,2.54-1.35,1.78-2.82-.44.02-.79-.06-1.02-.26-.2,1.08-1.09,1.46-.76,3.08Zm-38.67-1.8c-.04,1.67.63,2.61,2.29,2.57,1.51-1.54-.59-4.26-2.29-2.57Zm48.33.52c.75.95,1.9-.82.76-1.03-.1.5-.99.2-.76,1.03Zm60.04,1.54c.71.46,2.65.4,3.05-.26.65-3.35-3.59-2.49-3.05.26Zm-111.17,1.03c.65-1.39.76-3.65-1.53-3.34-1.07,1.26-.15,3.33,1.53,3.34Zm106.08,1.03c.8.12.99-.37,1.53-.51.21-1.38-.43-2.19,0-3.08-.48.06-.56-.29-1.02-.26-.5.96-1.77,2.67-.51,3.85Zm-60.29-1.54c.55.48,1.36.69,2.29.77.67-.86-.05-2.04-.51-2.57-1.03.03-1.91.07-1.78,1.8Zm-1.53,21.57c.14-4.63,2.81-9.53-.76-13.35.26-4.23-3.94-6.1-6.11-8.73-1.51-.1-2.58-.65-4.07-.77-1.4.64-2.81.26-3.82.26-.7,3.33-.96,6.92-.51,10.79,1.05,1.5.76,4.37,3.31,4.37,1.03-.93,1.45-2.48,2.8-3.08,3.6.47,5.39,2.78,6.11,6.16-.75,1.78-2.2,5.12-1.02,7.19,2.17-.12,2.58-2.02,4.07-2.82Zm118.55-21.57c.14,1.57,3.05,2.17,3.56.51-.26-1.65-3.1-2.55-3.56-.51Zm-150.35.77c-2.68,2.09-5.7,3.83-7.89,6.42-.99,3.47-1.51,7.91.51,10.53-.55-.93.77-.8,1.02-1.54.17-.52-.2-1.22,0-1.8.55-1.57,2.94-3.36,4.58-3.34,2.08.02,3,1.87,4.83,2.82,1,2.79.87,6.19-1.53,7.45-.77.34-2.26-.06-2.54.77.46,1.67,2.63,1.62,4.32,2.05,5.76-1.38,9.36-4.93,10.43-11.04-.15-5.02.66-9.69-1.02-13.35-5.19-1.07-8.18.17-12.72,1.03Zm-16.28,3.6c3.13-.13,1.68-3.41.76-4.88-3.13-.04-1.72,3.53-.76,4.88Zm-12.72-1.03c1.17-.27,1.65-1.24,1.53-2.82-.61-.24-.67-1.03-1.78-.77-1.35.9-.46,2.69.26,3.59Zm131.27-1.54c-.07,1.51,3.19,1.86,3.31.26-.01-1.86-3.06-2-3.31-.26Zm-63.34.26h1.27v-1.29h-1.02c.21.73-.36.67-.26,1.29Zm-5.34.26c.4-.38.28-1.15-.51-1.03-.07.59.06.96.51,1.03Zm120.84-.26c-.56,2.72,3.36,2.99,3.56.77-.36-1.61-2.39-1.77-3.56-.77Zm14.5-.26c-.24,2.5,1.86,2.47,3.56,1.8v-2.31c-1.81.08-2.59-.06-3.56.51Zm-137.12,0c-.21,1.52.15-1.03,0,0h0Zm64.62,2.83c.8-.12.58.79,1.53.51.64-.89,1.62-1.45,1.53-3.08-1.94-1.03-2.86,1-3.05,2.57Zm-61.82-2.05c-.37.4-.54,1-.76,1.54.66.61.78,1.78,1.78,2.05,1.54,0,2.18-.88,2.04-2.57-1.28.19-1.6-.8-3.05-1.03Zm-46.81.77c-.21,1.32.58,1.64.76,2.57,1.31-.05.97-1.76,1.02-3.08-.91-.15-1.23.3-1.78.51Zm54.69,1.29c.49.11.64.55,1.27.51.32-.7,1.23-.81,1.53-1.54-1.22-.78-2.8-1.13-2.8,1.03Zm3.05-.77c.29,1.01.29-1.02,0,0h0Zm-.25,2.31c.07-.58-.06-.96-.51-1.03.06.46-.26,1.29.51,1.03Zm-60.04,2.31c1.33,0,1.12-2.14.76-3.08-2.45-.99-2.24,3.07-.76,3.08Zm115.24-2.57c-.27,1.61.01,2.07.76,3.08.78-.06,1.44-.26,2.04-.51.05-.8-.17-1.88.25-2.31-.72-.88-1.93-.76-3.05-.26Zm52.66-.26c-.9.63-1.55,1.52-2.04,2.57.67.69,1.5,1.23,2.54,1.54,1.46-.91,1.15-3.67-.51-4.11Zm13.74,2.57c.6.08.47.89,1.27.77.94-.26,1.44-.95,2.54-1.03.06-1.13.48-1.85-.51-2.31-1.12.79-2.98.49-3.31,2.57Zm-197.66-.26h1.78v-2.05c-1.54-.27-1.98.57-1.78,2.05Zm70.47.51c.78.18.49.18,1.27,0-.08-.78.28-2-.51-2.05-.17.77-.98.9-.76,2.05Zm-66.91,1.03c.88.2,1.08-.29,1.53-.51.03-1.14-.22-2.01-1.53-1.8-.32.81-.74,1.78,0,2.31Zm17.04-2.05c-2.31-1.14-2.26,3.14-.25,3.08.82-.57.45-2.1.25-3.08Zm167.65.26c-.21,1.52.14-1.03,0,0h0Zm-111.94,1.54c.48.06.56-.29,1.02-.26.08-.59-.04-.98-.26-1.28h-.76v1.54Zm121.09,0c.3,1.01.3-1.02,0,0h0Zm2.29,3.34c.56.38,1.09.78,2.04.77-.14-2.03,1.88-1.87,2.29-3.34-1.16-1.51-4.59.19-4.32,2.57Zm-113.46,1.28c-1.86-.86-2.85-2.6-4.07-4.11-1.41.54-1.9,2.02-2.54,3.34-1.73.56-2.39,2.21-3.05,3.85-1.4,1.07-2.72,2.22-3.31,4.11-4.41,3.16-5.92,9.25-10.43,12.32-1.53,2.96-3.69,5.85-5.6,8.22-.68.84-1.38,1.85-2.04,2.57-.44.48-1,.29-1.53.77-.7.64-1.2,1.99-1.78,2.82-1.36,1.94-2.25,3.76-4.33,4.62-1.33,3.45-4.4,5.14-5.6,8.73-1.16.38-1.57,1.5-2.54,2.05-.93,3.08-3.45,4.56-4.58,7.45-4.38,3.71-6.01,10.2-10.94,13.35-4.23,1.81-9.37,2.69-13.48,4.62-.1.88-1.38,1.5-.76,2.31,11.87.25,22.92.81,34.09.77,2.54,0,6.84.17,8.39-1.54-.26-.59-.79-.91-.76-1.8-2.91.11-3.6-2.02-6.61-1.8-.9-1.4-2.53-2.06-3.31-3.59-.78-2.04.34-3.55.76-5.14,1.11-1.11,2.4-2.03,2.8-3.85,1.19-.6,1.97-1.61,2.29-3.08,2.22-1.01,3-3.48,5.09-4.62-.03-.63-.04-1.24.25-1.54,2.08-1.84,3.37-4.48,5.6-6.16,2.29-4.71,6.4-7.57,8.65-12.32,1.52-1.03,2.69-2.42,3.31-4.37.79-.4,1.33-1.05,2.04-1.54,1.22-3.39,4.19-5.02,5.34-8.47,3.77-2.27,5.02-7.09,8.39-9.76-.14-.83.18-1.2.26-1.8,1.13-.15,1.15-1.4,1.78-2.05-.24-1.81-1.74-2.35-1.78-4.37Zm110.41-4.11c-.2.06-.5,0-.51.26.2-.06.5,0,.51-.26Zm-179.6,4.37c.7-.6,1.44-3.71,0-4.11-1.88.48-1.25,3.34,0,4.11Zm60.8-3.85c-.2.06-.5,0-.51.26.2-.06.5,0,.51-.26Zm117.78,0c-.27,1.49,1.1.11,0,0h0Zm-128.21,3.85c.74.07.78-.58,1.53-.52-.25-1.55.8-2.84-.76-3.08-.84.61-1.91,2.54-.76,3.6Zm-66.91-.26c1.56.29,1.92-1.99,1.27-3.08-1.28.3-2.34,1.9-1.27,3.08Zm131.78-.51c1.48.12,1.94-.79,1.78-2.31-2.15-.51-2.75,1.05-1.78,2.31Zm48.34.26c.37.4,1.3.23,2.03.26.3-.81.86-1.36,1.02-2.31-1.04.19-.88-.83-2.04-.51-.27.93-1.2,1.19-1.02,2.57Zm-31.8.26c1.49,1.18,3.96.23,3.56-2.05-1.53-1.22-3.71.02-3.56,2.05Zm-78.35-.26c1.22.3.68-1.19,1.53-1.28.05.72.44,1.09,1.27,1.03.06-.91-.17-1.54-.76-1.8-.07.4-.56.18-.77,0,.12,1.23-1.36.85-1.27,2.05Zm-65.13,1.8c.76-.17.85-1.02.76-2.05-1.84-2.12-3.55,2.19-.76,2.05Zm166.37-.26c.65.52,1.42-.47,2.29-.51v-1.28c-1.3-.97-3.3.43-2.29,1.8Zm26.71,1.28c.66-.72.4-1.67,0-2.57-3.13-.73-2.5,3.02,0,2.57Zm-127.71,1.8c1.21-.54,1.54-2.06.76-3.34-1.97-.25-1.23,3.07-.76,3.34Zm-51.39.51c1.37-.17,1.36-1.87,1.02-3.08-2.4-2.04-3.18,2.7-1.02,3.08Zm130.25-.51c-.58-.53.07-2.3-.51-2.83-.06-.2-.21-.3-.51-.26-.33.86-1.32,1.07-1.78,1.8.55.81.86,1.87,1.27,2.82,1.35-.08,1.85-.93,2.8-.77-.1-.59-1.02-.34-1.27-.77Zm24.42,1.28c2.13.1,2.6-1.48,2.8-3.34-1.61-1.38-3.84,1.29-2.8,3.34Zm-145.51-1.54c1.13.12,1.89-.14,1.78-1.28-.52-1.76-3.11-.26-1.78,1.28Zm24.93,1.54c.59-.08.98.04,1.27.26.37-.83.24-2.15.26-3.34-.73-.39-.8,0-1.78-.26-.41.73.39,2.07.25,3.34Zm12.47-2.31c.08.6.3,1.06.51,1.54,1.36.09,1.91-.64,1.78-2.05-1.12-.7-1.36.33-2.29.51Zm85.73,2.05c1.93,1.16,3.7-.42,3.82-2.57-2-.85-3.47.91-3.82,2.57Zm49.35.51c.54.77,1.61.44,2.54.26-.13-.99.46-1.25.25-2.31-1.29-1.58-3.22-.27-2.8,2.05Zm-199.95-1.8c-.09,1.03,0,1.88.76,2.05.35-.41,1.25-.27,1.53-.77-.23-.8-.29-1.77-1.02-2.05-.31.37-.97.39-1.27.77Zm5.34,2.82c.51-.43,1.18-.69,1.27-1.54-.39-.64-.52-1.53-1.27-1.8-1.11.57-2.07,3.03,0,3.34Zm43.25-2.57c.24,1.12.71,2.02,2.03,2.05.59-.67,0-1.7-.25-2.31-.82-.15-1.18.18-1.78.26Zm-24.93,2.57c1.01.08,1.88.02,2.29-.51-.03-.74.14-1.68-.25-2.05-1.76-.24-2.29.77-2.04,2.57Zm20.61-1.54c.33.78.11,2.12.76,2.57.88-.22.97,0,1.78-.51,0-1.12.15-2.38-.51-2.82-1.19-.26-.85,1.03-2.04.77Zm147.8,1.8c1.01.08,1.88.01,2.29-.51v-1.54c-.47-.72-1.89-.49-3.05-.51-.21,1.32.21,2.02.76,2.57Zm-33.83-1.8c.02,1.27.12,2.44,1.27,2.57,1.07-.4,1.71-2.08.76-3.08-1.1-.26-1.41.29-2.03.51Zm-138.14,2.57c1.07.69,2.56-.05,2.29-1.54-1.22-.84-2.32.3-2.29,1.54Zm134.07-1.28c.41.84-.06.98,0,2.05.95-.1.66,1.04,1.78.77.82-.37.24-2.16.76-2.82-.5,0-.32-.7-1.02-.51.42,1.18-1.23.81-1.53.51Zm3.05-.26c.29,1.01.29-1.02,0,0h0Zm9.67,2.31c1.76.59,4.49.36,4.07-2.05-1.38-.95-4.23-.13-4.07,2.05Zm31.04,0v-2.05c-1.41.15-1.02,1.81,0,2.05Zm-48.08-1.29c.29,1.02.29-1.01,0,0h0Zm54.19.26c.41-.71-1.1-.71-1.02-.26.34.08.49.37,1.02.26Zm-139.92,0c.07,1.12-.26,2.66.76,2.82,1.61.17.63-2.27,1.27-3.08-.87-.11-1.42.1-2.03.26Zm99.72,0c-.59,1.12-1.22,2.19-1.02,4.11.79-.03.73.81,1.78.51.5-.48.08-.94,0-1.54.59-.08,1.1-.26,1.27-.77-.43-1.02-.27-2.63-2.03-2.31Zm-162.3,3.08c.66.28.95.93,1.78,1.03.11-1.91.02-3.61-1.53-3.85-.12.9-.38,1.67-.25,2.82Zm24.17,1.54c.05-.2.21-.3.51-.26.28-1.73-.04-3.05-1.78-3.34h-.51c-.53,1.5.08,3.55,1.78,3.59Zm17.81,0c1.07-.29,1.12-1.61,1.02-3.08-.37-.48-1.66-.03-2.04-.51-.89,1.36-1.21,3.33,1.02,3.59Zm144.5-1.03c.35.57,1.92.76,2.54.26.01-1.37-.12-2.2-.25-2.82-1.72-.11-2.4.83-2.29,2.57Zm8.65-2.05c.26,0,.3.21.51.26,0-.26.21-.3.25-.51-.26,0-.3-.21-.51-.26,0,.26-.21.3-.26.51Zm-147.8,0c-.74.88-1.13,2.11-1.02,3.85,1.61.93,2.67-.4,3.56-1.54-.33-1.3-1.3-1.94-2.54-2.31Zm101.25,1.8c.78-.25,1.74-.3,2.04-1.03-.34-.69-1.7-.34-2.29-.77,0,.68-.1,1.47.25,1.8Zm-143.48,1.54c1.96.39,2.16-2.09,1.27-3.08-2.21-.53-1.96,2.08-1.27,3.08Zm53.93-2.57c-.73,1.26.48-.84,0,0h0Zm140.17.51c1.36-.34.68,1.37,2.04,1.03.08-.6.4-.96.25-1.8-.94.55-1.94-.47-2.29.77Zm-41.97,1.8c.48.11.46.73,1.27.51.58-.53.88-1.34.76-2.57-1.06-.42-2.25.43-2.04,2.05Zm-4.58-1.8c-.22,1.52.15-1.03,0,0h0Zm-9.67,1.03c.42.94.71,2.02,2.03,2.05,1.78-1.68-1.03-4.52-2.03-2.05Zm-57.49,1.8c.78.19.93-.26,1.53-.26.2-1.06-.39-1.32-.25-2.31-1.35-.19-1.37,1.24-2.04,1.03.41.36.27,1.27.76,1.54Zm106.08-.26c.91.15,1.23-.3,1.78-.52v-1.28c-1.32-1.44-3.21.46-1.78,1.8Zm-38.67-1.29c-.03.66-.95.41-1.27.77-.18,1.81.98,2.26,2.29,2.57.01-.85.43-1.28.25-2.31-.8-.43-1.04.96-1.27.26.68,0,.68-1.29,0-1.29Zm-125.16.77c-.12,2.34.54,3.91,3.05,3.6,1.41-1.31.29-2.97-.51-4.11-1.17-.15-1.95.08-2.54.51Zm136.1-.26c-.62.86.85-.62,0,0h0Zm-165.1,2.82c1.46.07,1.11-2.2.51-2.82-2.11-.72-1.92,2.88-.51,2.82Zm10.94,1.03c.8-.21,1.29-.75,1.78-1.28-.83-.62-.32-2.58-1.78-2.57h-.51c-.58,1.42.23,2.12.25,3.59l-.13.13.13.13c-.67.52-2.33.04-3.05.51.03,1.17-.21,2.6.51,3.08.35.22,1.92.04,2.54-.26-.17-1.29.24-1.99.26-3.08l.13-.13-.13-.13Zm26.71-.77c1.27.26,1.4-.64,2.29-.77.13-1.07-.14-1.74-.51-2.31-2.28-.51-2.6,1.96-1.78,3.08Zm21.88.26c1.65.04,2.08-1.16,2.04-2.82-1.54-1.42-3.16,1.36-2.04,2.82Zm123.89-.51c.69.33,1.41.63,2.54.51.45-.49.19-1.7.25-2.57-.96.11-1.19-.51-1.78-.77-.59.69-.91,1.65-1.02,2.82Zm14.75-2.05c-.08,1.71.69,2.55,2.54,2.31.18-1.81-.06-3.19-1.78-3.08-.14.37-.4.63-.76.77Zm-143.73,0c-.06,1.09.02,2.03.76,2.31,1.68.43,1.6-4.27-.76-2.31Zm94.13.51c-.22.64-.5,1.99,0,2.57.61-.11.55.47,1.27.26.76-.79.58-2.52-.25-3.08-.05.38-.62.24-1.02.26Zm-104.56,2.31c1.41.23,1.67-.71,1.53-2.05-1.61-.74-2.07.62-1.53,2.05Zm98.7-2.05c-.1,1.05.26,1.62,1.27,1.54-.19-.58.46-2-.51-1.8-.04.3-.4.28-.77.26Zm-139.66,1.8c.79.4.91,1.48,2.29,1.28,1.96-2.02-1.93-4.2-2.29-1.28Zm48.84-.26c.64.04.8-.39,1.02-.77-.29-.21-.68-.34-1.27-.26-.02.45.06.8.25,1.03Zm137.37,1.03c.62.4,1.09.96,2.29.77.37-.57.64-1.24.51-2.31-.42-.6-1.48-.56-2.55-.52-.33.47.23,1.3-.25,2.06Zm-152.38,1.03c.45-1.62.02-2.83-1.78-2.82-.62,1.39-.15,3.23,1.78,2.82Zm51.9-1.28c.61.11.55-.47,1.27-.26.04-.72-.62-.74-1.27-.77v1.03Zm-40.2,1.54c.53.67,1.62.77,2.54,1.03,2.73-2.48-2.57-4.96-2.54-1.03Zm37.4-2.05c-.79.26.73.24.51.77.44.66.04,2.19,1.27,2.05.86-1.35,0-4.14-1.78-2.82Zm6.36,4.11c.73-1.12.95-2.83,0-3.85-3.21-.54-2.41,4.09,0,3.85Zm102.78-3.34c-.16.61-.37,1.17-.26,2.05,1.15.66,1.44-.66,2.54-.77.1-1.55-1.11-1.68-2.29-1.28Zm-154.42,4.11c1.35-.61,2.13-1.79,2.04-3.85-2.89-1.77-4.48,3.14-2.04,3.85Zm41.21-3.08c.31.8.48,1.75,1.78,1.54.38-.42.38-1.89,0-2.31-1.11-.26-1.17.53-1.78.77Zm100.23,1.03c.04-.73.46-1.07.51-1.8-.91.61-2.32-.51-3.31.26-.08,1.45.37,2.36,1.27,2.82.41-.36.81-.73,1.27-1.03v.26h.26c.79.13.95-.88.25-.26v-.26h-.25Zm-168.92,2.05c.29.05.4.28.51.51,2.06.2,2.49-1.26,2.29-3.34-1.9-.99-2.73,1.13-2.8,2.82Zm40.45-2.57c-.01,1.13-.18,2.4.76,2.57,1.53-.14,2.07-2.04,1.27-3.08-.79.06-1.44.26-2.03.51Zm130.5,1.29c.69.33,1.41.63,2.54.51.28-.81.02-.58,0-1.54-.51-.35-1.21-.49-1.78-.77-.4.45-.07,1.64-.76,1.8Zm-182.66,1.8c.47-.39.78-.93.76-1.8-.36-.67-.82-1.22-2.04-1.03-.39,1.26-.32,2.88,1.27,2.82Zm41.98.26c2.04.18,3.13-.61,3.05-2.57-1.62-1.13-4.24.23-3.05,2.57Zm16.28-2.05h.51v-.52h-.51v.52Zm113.71-.52c-.77.87.94.78,0,0h0Zm2.04.26c-.19,1.4,1.51,1.94,2.54,1.28-.08-1.42-1.22-1.79-2.54-1.28Zm-80.64,2.82c.82.06,1.08-.45,2.04-.26-.16-1.21-.61-2.13-1.53-2.57-.88.36-1.2,2.36-.51,2.82Zm96.92-.26v-1.03c-.84-.01-1.27-.43-2.29-.26-.07,1.2,1.54,1.73,2.29,1.29Zm-187.49,1.8c1.02.18,1.45-.25,2.29-.26.22-1.25-.35-1.7-.51-2.57-2.17-.76-2.42,1.57-1.78,2.82Zm176.8-2.05h.51c.01-.33.33-.36.25-.77h-.76v.77Zm18.06-.26c-.03.8.8.73.51,1.8.73.03,1.66-.14,2.04.26.16-.95.78-1.61.25-2.57-1.18-.08-2.2,0-2.8.51Zm-180.87,2.57c.9-.14.62.91,1.53.77.6-.08.47-.89,1.27-.77.15-1.09-.18-1.7-.25-2.57-1.66-.62-2.24,1.07-2.54,2.57Zm30.27-.51c.73.48,2.71.46,2.54-.77-.25-2.04-2.98-1.36-2.54.77Zm43.25,6.42c.46-.9,1.03-1.7,1.27-2.82-.27-1.18-.71-2.2-1.02-3.34-2.12-1.79-5.5-3.64-7.38-.51-.97,2.93.02,5,1.53,7.19,2.08.05,4.16.09,5.6-.51Zm-10.94-5.39c-.09-1.03.45-1.43.25-2.57-.78.19-.75-.44-1.52-.26-.68,1.14.13,2.69,1.27,2.82Zm-70.72-1.28c-.13,1.59.54,2.36,1.78,2.57.32-.96,1.26-1.3,1.02-2.82-.48-1.13-2.32-.71-2.8.26Zm186.22-.51c-.28-.15-1.77.09-2.54-.26-.15.92,2.74,1.73,2.54.26Zm-187.49,0c-.2.06-.5,0-.51.26.2-.06.5,0,.51-.26Zm87.51,4.37c.71-1.26.67-1.71,1.02-3.34-.71-.59-1.26.26-2.04-.26-.83,1.11-.42,3.32,1.02,3.6Zm-41.47-2.31c.07-.59-.06-.97-.51-1.03.06.45-.25,1.29.51,1.03Zm-55.71,1.03c1.13.12,1.89-.14,1.78-1.28-.2-.06-.29-.21-.25-.51-1.42-.32-1.72.49-1.53,1.8Zm16.28,1.54c1.81.35,2.42-1.22,1.78-2.57-.35,0-.56-.12-.76-.26-.66.28-.76,1.12-1.53,1.28-.61.1.14-1.17-.76-.77.19,1.01.99,1.39,1.27,2.31Zm8.14-2.57c-.09,1.03.45,1.42.26,2.57,1.5-.33.09,1.24,1.53,1.54.27-1.8.83-5.44-1.78-4.11Zm51.9.51h1.02c.18-1.01-1.07-.84-1.02,0Zm-67.92,1.28c-.05,1.59.3,2.77,1.53,3.08,2.34-1.03.62-5.34-1.53-3.08Zm67.92,1.54c1.1-.09,3.37.85,3.05-1.8-1.68-1.21-2.55.4-3.05,1.8Zm-53.42-1.8c-1.03-.02-1.53.51-2.04,1.03.05,1.4.39,2.52,1.53,2.82.71-.89.99-2.46.51-3.85Zm175.28,3.59c.39-1.12,1.49-2.69,1.27-3.59-1.54,0-3.29,3.15-1.27,3.59Zm-194.36,0c2.38.69,2.6-2.89,1.02-3.34-1.54.15-1.89,2.15-1.02,3.34Zm96.67-1.29c.77-.3.95-1.2.51-2.05-.78.05-1.49,1.78-.51,2.05Zm101.76,1.54c1.51-.07,2.57-1.78,1.78-3.34-2.42-.6-2.71,2.07-1.78,3.34Zm-44.01-1.54c.23.45.89.47,1.27.77.34-.43.67-.86.51-1.8-.84.23-1.42-.06-1.78,1.03Zm-75.81,1.8c.07-1.1-.78-1.27-.51-2.57-2.05-.21-1.36,3.08.51,2.57Zm13.99,1.28c1.59-.11,1.14-2.28,1.53-3.59-2.05-.04-2.89,2.31-1.53,3.59Zm58.26-.51c1.11-.16.82-1.74,1.27-2.57h-1.27c-.16,1.25-.16,1.32,0,2.57Zm8.65-2.31c.22,1.02.22,1.29,0,2.31,1.3.37,2.03-.21,3.05.51-.29-.91-.28-2.11-.51-3.08-.86.07-2.06-.2-2.54.26Zm-88.78.51c0,1.12-.15,2.38.51,2.82,1.55-.15,1.89-1.52,1.78-3.34-1.06-.13-1.72.14-2.29.51Zm-73.52,3.08c.83-.36,1.49-.9,1.27-2.31-.39-.37-.99-.54-1.53-.77-.93.71-.76,2.41.25,3.08Zm101.25-.77c-.46,2.17,1.01,2.41.76,4.37-1.11.18-1.43-.44-2.55-.26-.05.38-.61.23-1.02.26-3.88,1.99-8.19,3.54-12.72,4.88-2.63,2.22-6.1,3.6-9.16,5.39-2.66,4.25-7.98,5.81-9.67,11.04v2.05c-.83.36-.68,1.71-2.04,1.54-1.47-.74-1.55-2.88-2.29-4.36-.89-.73-1.5-1.74-2.04-2.82-1.06-.1-1.39-1.22-2.54-.52-.07,6.15-.12,10.73.51,17.2,1.17,1.13,1.6,3.01,2.03,4.88,1.3.57,1.67,2.09,2.54,3.08,1.76.21,3.62,2.75,5.85,3.34,2.69.71,7.61.21,7.89-1.54-.28-2.97-.15-6.36-3.56-6.16-1.12.58-.31,3.11-1.53,3.6-2.08-.13-2.89-1.53-3.81-2.83-1.25-6.44,3.12-9.31,7.38-11.04,1.59-.15,2.33.44,3.56,0,.45-.49.18-1.7.25-2.57-1.55-1.78-3.71-2.38-6.11-1.54-.88.31-.91,1.48-2.29,1.28-.71-1.48.76-2.3,1.02-3.59,1.73-1.33,3.27-2.86,4.58-4.62,4.81-2.5,7.75-6.9,13.48-8.47.68-.94,1.85-1.38,2.8-2.05,2.76-.55,5.02-1.61,7.38-2.57,3.16-.47,5.83-.05,7.13-2.57-.65-2.1-3.44-2.76-2.8-5.39-.61-1.07-2.61-1.44-3.06,0Zm-22.64,1.28c.66.1.77.77,1.53.77.45-.49.19-1.7.26-2.57-1.5.09-1.74.76-1.78,1.8Zm77.85,1.03c1.62.09,2.38-.68,2.29-2.31-1.83-.93-3.09.34-2.29,2.31Zm-58.26,0c1.29.02,1.74-.81,1.78-2.05-1.34-.14-2.45.99-1.78,2.05Zm-15.77,1.54c1.87.45,2.43-1.56,1.78-2.82-1.67-.14-1.77,1.3-1.78,2.82Zm3.82-1.8c.67.08.83-.36.76-1.03-.67-.08-.66.54-.76,1.03Zm6.11,2.05c.42-.78,1.01-1.38.76-2.83-2.18-1.36-2.33,2.56-.76,2.83Zm74.03-2.31c.01-.44-.2-.66-.51-.77.03.4-.03.89.51.77Zm30.02,0c-.48.94-.13,2.04.51,2.57,1.02-.51,2.5-.55,2.54-2.05-.38-1.33-1.81-.44-3.05-.51Zm-36.12,2.82c1.55-.06,2.41-.82,2.8-2.05-.95-1.67-4.03.09-2.8,2.05Zm-159.25-.26c.62.14.54.99,1.53.77.18-.93.97-1.24.76-2.57-1.31-.86-2.41.39-2.29,1.8Zm69.45,2.05c4.05.02,6.65,1.5,9.41,2.82.82-.63,1.88-1.01,2.8-1.54v-1.8c-2.96.12-3.5-1.59-6.36-1.03-1.35-.95-2.57-2.03-4.58-2.31-1.07-.05-1.07.97-2.03,1.03-.03-.65-.37-.99-1.02-1.03.29,1.59,1.55,2.2,1.78,3.85Zm17.3.51c.98-.47,1.11-1.79,1.53-2.82-1.42-3.39-4.33,1.93-1.53,2.82Zm112.69-.26c1.36.26,1.27-.95,2.54-.77-.15-.83.17-1.2.26-1.8-.57-.37-1.23-.64-2.29-.52-.58,1.12.2,2.48-.51,3.08Zm-160.27,0c-.49-.1-.02-1.18-1.02-.77-.05,1.5,1.21,1.69,2.04,2.31,1.7-.04,2.37-2.52,1.53-3.6-1.74-.21-1.66,1.4-2.54,2.05Zm154.67-1.8c-.23-.2-.73.16-.77.26-.36.97,1.27.19.77-.26Zm-158.49,2.57c1.08-.2,2.07-.48,1.78-2.05-1.43-1.18-2.79.76-1.78,2.05Zm-7.38-1.54c.4-.03.88.03.76-.51h-.51c0,.26-.2.3-.25.51Zm2.54,1.54c.5.51,1.45.16,2.04,0,.45-2.51-2.49-2.51-2.04,0Zm173.24-2.05c-.2.06-.5,0-.51.26.2-.06.5,0,.51-.26Zm-8.39,4.11c1.19-.17,1.87-.85,2.04-2.05-1.03-2.9-4.12.32-2.04,2.05Zm-196.65-2.82c-.1,1.78-1.2,3.95,1.02,4.37.51-.77.14-2.42.26-3.59-.8.11-1.07-1.64-1.78-.77h.51Zm160.78.77c.25.95.54.67.26,1.8,1.22.12,1.93-.28,2.29-1.03-.3-.04-.28-.41-.25-.77-.95.15-1.61-.66-2.29,0Zm-96.41,3.59c.35.57,1.92.75,2.54.26v-3.34c-2.51-.18-2.44,1.3-2.54,3.08Zm-60.29-.51c.6.08.47.89,1.27.77.76-.51.72-2.6-.51-2.57-.36.5-.67,1.04-.76,1.8Zm31.54.26c.78.18.93-.26,1.53-.26-.08-1.04-.38-1.85-1.53-1.8-.5.51-.16,1.47,0,2.06Zm73.77,1.54c2.19.13,1.56-2.89.26-3.34-.51,1.15-.91,1.91-.26,3.34Zm91.58-.26c1.23-.13,1.89-.83,1.78-2.31-.46-.48-1.28-.59-2.04-.77-.78.81-.12,2.06.26,3.08Zm-169.94-.26c1.31.13,2.02-.35,2.04-1.54-.44-.42-.93-.78-1.78-.77-.25.61-.84,1.64-.26,2.31Zm7.38-1.54c0-.26-.45-.32-.51,0,.05.31.28.16.51,0Zm31.29,2.82h1.27c.98-.29.88-2.17.51-3.08-2.22-.72-2.4,1.76-1.78,3.08Zm94.13-.51c1.76,1.12,3.17-.31,2.29-2.31-1.63-.66-2.36.36-2.29,2.31Zm-59.53-.77v.77c.6.08.96.4,1.78.26.52-.71.28-2.38-.51-2.57-.31.62-1,.87-1.27,1.54Zm-29.51,2.31c1.54.02,1.65-1.41,1.78-2.82-.73-.12-.79-.91-1.78-.77-.75.54-.75,3.05,0,3.59Zm25.69-1.03c.82-2.59-2.88-1.86-3.05,0,1.04-.19.88.83,2.04.52.51,0,.32-.7,1.02-.52Zm3.05,7.7c-1.73-1.85-3.99-3.16-5.09-5.65-1.87-.84-3.08-1.91-5.09-3.08-1.49.64-3.47.77-4.07,2.31,1.6,2.49,4.69,3.48,7.12,5.13,0,.61.44.76.25,1.54,1.23.4,1.41,1.92,2.29,3.08,1.54,2.04,4.93,3.26,3.56,5.91-2.19-.7-3.44-2.36-6.62-2.05-1.14,1.67-3.85,1.76-3.82,4.62,1.61.65,2.96-.42,4.83-.77,4.62,1.33,7.1,4.98,6.61,10.79-.11,1.08-1.09,1.29-.76,2.82-1.07.72-1.87,1.71-3.82,1.54.39-2.11-.88-2.53-1.53-3.59-.55.58-2.23.36-3.05,1.28-.18,1.36-.7,2.37-.51,4.11.67,2.24,3.61,2.18,6.11,2.57,1.31-1.16,3.25-1.68,5.09-2.31,1.82-3.3,4.58-5.65,6.61-8.73.06-2.25.84-3.78,1.78-5.13.11-5.11,1.74-10.05,2.04-14.12-3.86-.97-6.13,1.85-7.12,4.62-.31,1.17.7,1.01.51,2.05-.49.53-.79,1.25-1.78,1.28-.97-2.96-3.18-4.67-3.56-8.22Zm-101.76-5.13c1.45.16,2.21-2.93.76-3.34-1.47.11-2.63,2.76-.76,3.34Zm197.67-3.08c0-.26-.45-.32-.51,0,.29-.03.4.37.51,0Zm-165.1,2.05c.9-.14.62.91,1.53.77.48-.63,1.33-.88,1.02-2.31-.83-.01-.97-.73-2.03-.51-.14.72-.38,1.33-.51,2.05Zm141.7.26c.37.14.62.4.76.77,1.73-.05,2.58-1,2.8-2.57-1.52-1.26-3.35.2-3.56,1.8Zm-115.24-.51c-.03.63-.04,1.24.26,1.54,1.42-.37,1.78-.01,3.05.26.39-.37.22-1.31.25-2.05-1.28-.81-2.22-.09-3.56.26Zm-28.49,1.03c-.03-2.38-3.9-1.58-2.29,1.8,1.5-.07,2.3-.79,2.29-1.8Zm80.9.51c.42.43,1.49.2,2.29.26,0-.6.44-.76.26-1.54-1.07-1.26-2.44.04-2.55,1.29Zm69.45,0c.6,0,.75-.44,1.53-.26.18-1.29-.53-1.69-1.78-1.54,0,.68-.1,1.47.25,1.8Zm18.83.26c.65-2.77-2.27-2.12-3.31-1.28-.64,2,.76,2.83,2.54,3.08.57-1.02,1.19-.57,1.53-1.54-.3-.04-.72.04-.76-.26Zm-99.98.51c.97,1.12,2.79.11,3.06-1.03-.5-1.97-3.22-1.15-3.06,1.03Zm96.16-2.05c0-.26-.45-.32-.51,0,.05.31.28.16.51,0Zm-130.76,3.6c2.04.07,3.15-1.8,2.54-3.6h-1.27c-.15.46.75,1.07,0,1.29-.93-.11-.83-1.07-1.02-1.29-1.11-.19-1.36,2.8-.25,3.6Zm41.72-1.03c.7,1.23,2.06,1.1,3.05.26-.18-1.53-.72-2.7-2.29-2.82-.28.83-.7,1.52-.76,2.57Zm56.98,0c.28-.26.96-1.4.25-1.8-.01.43-.52,1.42-.25,1.8Zm1.27.77c.46.39,2.08.39,2.54,0,.8-2.85-3.23-2.53-2.54,0Zm5.34-1.8c-.04.64.4.79.51,1.28.88-.05,1.65-.21,1.53-1.28-.37-.38-1.67-.38-2.04,0Zm-172.73,4.88c1.89.09,3.28-1.81,2.03-3.34-1.71-.04-2.72,1.8-2.03,3.34Zm63.85-1.03c.53.15.73.64,1.53.51.91-.71.52-2.82-.76-2.82-.14.88-.91,1.14-.76,2.31Zm119.06.26c1.64.11,2.28-.78,2.04-2.57-1.85-.32-2.71,1.12-2.04,2.57Zm-6.11-1.54c-.11,1.05.23,1.64.51,2.31h1.27c1.46-1.56-.2-4.29-1.78-2.31Zm-118.8.77h1.02c-.04-.48-.17-.86-.51-1.03.19.7-.51.52-.51,1.03Zm27.98,1.03c1.47.2,2.3-.25,2.04-1.8-.98-.51-2.28-.15-2.04,1.8Zm21.37,1.03c1.39.04,1.59-1.13,1.53-2.57-.55-.21-.87-.66-1.78-.51-.99.35-1.17,3.06.26,3.08Zm-76.06-.77c1.51.25,1.86-1.17,1.53-2.05-1.71-.59-2.24,1.02-1.53,2.05Zm86.75-.51c1.04.11,1.61-.26,1.53-1.29-.6-.08-.96-.4-1.78-.26-.03.63-.04,1.24.26,1.54Zm2.29-.77c.3.22.68.34,1.27.26.26-1.39-1.14-1.09-1.27-.26Zm79.37,3.59c1.55-.23,2.75-.82,2.54-2.82-1.95-1.17-3.3.62-2.54,2.82Zm-106.59-.26c.22-1.2-.84.17-.76-.51.21-.64.33-1.38.25-2.31-.91-.15-1.23.3-1.78.51v1.54c.91-.36,1.49,1.18,2.29.77Zm78.61-.77c1.38.35,3.41.95,3.3-1.03-1.33-.3-3.51-1.05-3.3,1.03Zm13.48.51c.51.68,1.04,1.34,2.29,1.29,1.91-2.12-2.09-4.5-2.29-1.29Zm-3.05-1.28c-.2.06-.5,0-.51.26.2-.06.5,0,.51-.26Zm-99.22,2.31c.66.48,2.48.41,2.55-.52-.07-1.91-3.05-2.1-2.55.52Zm-66.4-1.54c-.21,1.52.15-1.03,0,0h0Zm11.19,3.08c1.61,0,2.54-.69,2.55-2.31-.5-.61-1.85-.36-2.55-.77-.46.74-.85,2.47,0,3.08Zm152.64-1.03c.47.04.16.87.51,1.03,1.46-.24,2.95-.45,2.54-2.57-1.16-1.04-3.14-.19-3.05,1.54Zm-61.56,0c.37.57.67,1.2,1.78,1.03,1.19-.6.56-1.99,0-2.82-1.34-.15-1.71.67-1.78,1.8Zm-117.28,1.8c1.27-.27,2.33-1.51,1.53-3.08-2.25-.41-2.28,1.79-1.53,3.08Zm16.54,0c.93,0,1.12-.75,1.02-1.8-1.52-1.76-3.18,1.45-1.02,1.8Zm63.85-1.8c-.02.16-.04.3-.26.26.01-.44-.2-.66-.51-.77v.77c.5.29,1.3.12.76-.26Zm-2.8.77c.44.02.79-.06,1.02-.26.08-.68-.35-.84-1.02-.77v1.03Zm12.46-.77c-.48.54-.73,1.32-1.02,2.05.88.14.77,1.28,1.53,1.54,1.39-.47,2.36-1.38,2.04-3.6-.86-.45-1.3.17-2.55,0Zm-36.89,3.6c1.03-.55.75-2.11.25-3.08-2.42-.72-2.3,3.45-.25,3.08Zm-31.8-.77c1.08.55,2.37.08,2.29-1.28-.52-1.5-2.81-.54-2.29,1.28Zm152.89-1.54c.28.92.87,1.52,1.78,1.8.7-.8,1.09-.92.76-2.31-1.19-.18-1.14.9-2.55.51Zm-89.04,0c-.76,1.12-1.34,3.82,1.02,3.59.56-.63,1.26-1.12,1.53-2.05-1.23-.13-.87-1.86-2.54-1.54Zm109.9,3.34c1.87.62,3.54-.77,3.56-2.83-2.63-.51-3.08,1.18-3.56,2.83Zm-74.28-.77c.58.12,1.3.51,1.78,0,.17-1.12-.46-1.42-1.02-1.8-.44.41-.93.78-.76,1.8Zm-108.88-.26c.49.45.1,1.78,1.02,1.8-.04-.56.9-.12,1.27-.26.36-.49.67-1.03.76-1.8-.66-1.11-2.57-.85-3.05.26Zm68.43,1.8c1.19-.08,2.37-.18,2.29-1.54-.81-2.42-4.04-.6-2.29,1.54Zm98.45,0c.64.46,1.33.88,2.54.77.79-.55.44-1.87.25-2.82-1.62-.8-3.06.17-2.8,2.05Zm-161.54,0c.48.11.46.73,1.27.51,2.56-1.54-1.67-4.19-1.27-.51Zm6.36-1.28c-.02,1.22-.05,2.45,1.27,2.31.77-.33.87-1.35.76-2.57-.68-.28-1.3-.05-2.04.26Zm-25.44.77c-.15.92.3,1.24.51,1.8,1.27-.17,1.92-.85,1.53-2.05-.61-.59-1.54-.05-2.04.26Zm118.55.77c.55.21.57.97,1.27,1.03,1.04.02,1.09-.95,1.02-2.05-.79-.55-2.61-.36-2.29,1.03Zm82.93-.26c-.12.98.07,1.64.51,2.05,2.96-.42,1.99-4.67-.51-2.05Zm-150.85,1.8c.2.06.29.21.25.51.68,0,1.45.1,1.78-.26.65-2.37-2.15-2.03-2.04-.26Zm-3.82-.51c.58.07.96-.06,1.02-.51-.34-.08-.49-.37-1.02-.26v.77Zm40.45,2.82c1.48.12,1.74-.98,2.04-2.05-.27-.58-.77-.93-1.53-1.03-.29.84-1.29,1.97-.51,3.08Zm38.92-.77c.8.12.99-.37,1.52-.51.46-3.18-3.54-1.21-1.52.51Zm-104.81,0c.77.5,1.21,1.35,2.29,1.54.83-.99.48-2.25,0-3.08-1.39-.12-1.92.63-2.29,1.54Zm-5.09,1.28c1.15-.12,1.81-.74,1.78-2.05-1.23-1.62-2.85.62-1.78,2.05Zm38.92.51c1.14-.45.62-1.9.51-3.08-2.06-.64-1.98,3.08-.51,3.08Zm129.49-2.57c.06,1.21.11,1.69.26,2.31,1.52-.23,1.43-.57,2.8,0,.08-.6.4-.96.25-1.8-1.2-.28-2.23-1.55-3.31-.51Zm12.21,1.03c.4.79.88,1.51,1.53,2.05.75-.44,1.06-1.33,1.53-2.05.06.2,0,.51.26.51v-1.28c-1.48-.57-2.8-1.16-3.31.77Zm-186.22.51h1.53c.6-2.48-1.84-1.91-1.53,0Zm180.11-.51v1.03c1.37,1.56,3.81-.45,2.54-2.31-1.32-.05-2.12.43-2.54,1.29Zm-69.7,0c.56.63.56,1.82,1.02,2.57,1.13.11,1.61-.43,1.78-1.29-.23-1.22-.84-2.06-2.04-2.31.22.82-.84.35-.76,1.03Zm-38.41,2.05c1.51.07,1.93-.97,2.04-2.31-1.39-1.51-2.93.84-2.04,2.31Zm-80.39.26c1.26-.1,1.54-1.19,1.78-2.31-1.87-1.55-3.26.81-1.78,2.31Zm46.3.51c.21-.3.34-.69.25-1.28-.3-.3-.9-.29-1.53-.26-.03.97.5,1.38,1.27,1.54Zm28.49,1.03c1.49.22,1.64-.91,1.78-2.05-1.21-.96-2.69.87-1.78,2.05Zm-56.73.51c.23-3.23-3.53-3.17-2.8.51.79.78,2.54.63,2.8-.51Zm33.33,0c.11-1.22-.3-1.92-.76-2.57-2.94-.38-1.02,3.97.76,2.57Zm-40.2.51c1.63-.01,1.05-2.62,0-2.82-.39.53-.39,2.3,0,2.82Zm187.23-1.8c-.11-.49-.09-1.11-.76-1.03-.07.67-.09,1.29.76,1.03Zm-110.66,1.8c.34.26.77.42,1.02.77,1.45-.05,2.11-2.64.76-3.34-1.24.21-1.91.98-1.78,2.57Zm37.65-1.8c-.21,1.32.58,1.64.76,2.57.73.05,1.29-.06,1.53-.51-.15-.68.12-2.48-1.02-2.83-.31.37-.97.39-1.27.77Zm60.8,1.8c1.71.32,2.33-1.12,1.78-2.31-1.89-1.27-3.02,1.01-1.78,2.31Zm10.43-2.31c-.62.86.85-.62,0,0h0Zm-103.28,2.82c.45.63,1.54.61,2.29.26-.28-1.39.61-1.61.76-2.57-1.49-1.39-3.49.15-3.05,2.31Zm20.61.26c1.31,0,2.22.55,3.05-.26.77-3.8-4.56-2.7-3.05.26Zm67.41-2.57c.3,1.01.3-1.01,0,0h0Zm17.55,1.8c.82-.42,1.38-.12,2.29,0,.11-.88-.1-1.44-.25-2.05-1.25.6-2.62.32-2.04,2.05Zm-120.33,1.03c1.42-.02,2.07-.82,2.29-2.05-.91-2.03-3.63.28-2.29,2.05Zm4.58,0c.33.35,1.11.25,1.78.26.55-.66,1.02-1.81.51-2.82-1.98-.38-2.15,1.08-2.29,2.57Zm41.72-2.57c-.2.06-.5,0-.51.26.2-.06.5,0,.51-.26Zm-127.2,1.28c.19,1.09.47,2.09,2.04,1.8.39-.37.22-1.31.25-2.05-1.26-.18-1.36-.21-2.29.26Zm49.1,1.8c1.6.14,2.65-.99,2.03-2.31-1.86-.52-2.46,1.34-2.03,2.31Zm144.24-.26c1,.15,1.47-.22,2.04-.52v-1.28c-1.16-.78-2.23.4-2.04,1.8Zm-188.51,1.03c1.47-.05,2.12-.94,2.04-2.57-1.86-1.09-2.89,1.02-2.04,2.57Zm4.07-.26h1.02c.23-.57.56-1.71.26-2.05h-1.02c-.18.62-.72,1.55-.25,2.05Zm65.63-.51c.77.95,3.15.68,2.54-1.28-1.03-.65-2.73-.12-2.54,1.28Zm48.08-1.28c.07,1.24-.56,2.06,0,3.08,1.06.13,1.72-.14,2.29-.51-.03-1.84-.51-3.15-2.29-2.57Zm-67.67,4.11h1.27c.5-.87.73-2,.76-3.34-1.91-2.39-3.45,1.77-2.03,3.34Zm22.64-3.08c.44.01.65-.2.76-.52-.4.03-.88-.03-.76.52Zm-7.38.77c-.07,1.63,3.35,2.39,3.05,0-.99-.45-1.7.54-3.05,0Zm127.71,1.54c1.29.83,2.26-.58,1.53-1.8h-1.27c.15.83-.17,1.2-.26,1.8Zm-103.79,1.03c.8.12.99-.37,1.53-.52.09-1.11-.19-1.86-1.02-2.05-.14.85-1.3,1.59-.51,2.57Zm3.82-.52c1.15.14,1.66-.38,1.53-1.54-.38-.13-.64-.38-1.02-.51-.43.65-1,1.15-.51,2.05Zm-18.82,1.29c2.22.54,2.72-1.96,1.78-3.08-1.65-.15-2.61,1.56-1.78,3.08Zm-1.78-2.57c1.25.73-.83-.48,0,0h0Zm11.19.26c.23.75.23.79,0,1.54,1.45.77,2.77-.1,2.29-2.05-1.26-.33-1.25.62-2.29.51Zm-5.6,2.05c.51.6.76,1.46,2.04,1.29.5,0,.32-.7,1.02-.51,1.12-3.25-3.48-3.85-3.05-.77Zm34.85-1.8c.3,1.02.3-1.01,0,0h0Zm-3.82,2.82c1.34,1.13,3.63.29,3.31-1.8-1.34-2.04-3.18-.19-3.31,1.8Zm-11.19-1.54h.76c.22-.82-.39-.8-.76-1.03v1.03Zm91.84-.77c.77.7-.7-.78,0,0h0Zm-190.8,2.57c.67-.36,1.1-.94,1.02-2.05-1.99-1.43-3.29,1.88-1.02,2.05Zm197.16,1.03c-.6,1.47.85,1.7.76,3.34.79-.23,1.4-.64,2.04-1.03.27-1.39-.69-1.53-.51-2.82-.95-.02-1.61.26-2.29.51Zm-119.82,0c-.13.99.46,1.25.26,2.31,1.08.23.26-1.45,1.27-1.29.57.11-.04,1.41.76,1.29.07-.36.56-.29.76-.52-.07-1.45-1.67-2.5-3.05-1.8Zm5.09,2.05c.26.51.63.9,1.02,1.28,1.42-.02,1.29-1.6,1.53-2.82-1.41-.06-2.24.48-2.55,1.54Zm-84.46,1.03c.5-.54.2-1.71,0-2.31-2.04-.58-2.04,2.89,0,2.31Zm59.78,1.54c.29-1.06.29-2.02,0-3.08-1.29.19-1.51-.71-2.54-.77.48,1.65.3,3.98,2.54,3.85Zm28.49.26c1.05.29.99-.54,1.78-.51.06-1.43-.21-2.53-1.53-2.57-1.27.12-.77,2.54-.25,3.08Zm20.35.77c3.95.03,2.3-4.67-.51-3.85-.08,1.66-.49,2.9.51,3.85Zm4.58-1.29h1.53c.22-.63.59-1.11.51-2.05-1.32-.88-2.44,1.15-2.04,2.05Zm-104.3-.51c-.09,1.11.7,1.35,1.53,1.54.44-.41.63-1.07.51-2.05-.49-.42-2.12-.43-2.04.52Zm11.7,2.31c.97-.68,1.88-3.52-.76-3.08-.65,1.04-.1,2.74.51,3.34l.13.13.13-.13c-.19,1.56.12,2.62,1.27,2.82,1.4-.64.68-3.95-1.02-2.82v-.26h-.25Zm-5.85-2.57c-.4.67-.14,1.75,1.27,1.8v-2.05c-.59-.08-.97.04-1.27.26Zm36.12,1.8c.34.37,1.44.37,1.78,0,.04-.79-.6-1.45,0-2.05-1.27,0-1.86.69-1.78,2.05Zm55.46-1.03c.67.08.83-.36.76-1.03-.67-.08-.66.54-.76,1.03Zm-80.39,1.29c.48-.06.56.29,1.02.26.59-.26.82-.88.77-1.8-.45-.23-.65-.72-1.53-.51-.39.37-.22,1.31-.25,2.05Zm6.87.26h1.02c.31-.77.51-1.64.25-2.31-1.52-.4-1.83,1.43-1.27,2.31Zm85.99.77h1.27c.11-.88.58-2.31,0-3.08-1.53-.18-1.8,2.01-1.27,3.08Zm76.32-1.29c.74.5.66.85,1.78.51-.21-.72-.29-1.58-.51-2.31h-.76c-.21.55-.66.88-.51,1.8Zm-156.2,1.29c.72-.21.66.36,1.27.26.32-.62.93-.95.76-2.05-.35-.67-.93-1.11-2.04-1.03.08,1-.66,2.03,0,2.82Zm87.26,0c.86-.41,2.53,0,2.54-1.29-.5-.86-.99-1.74-2.54-1.54-.71.46-.71,2.36,0,2.82Zm25.69-.26c1.56,1.34,3.45-.57,3.56-2.31-1.46-.47-3.49.54-3.56,2.31Zm22.38-2.31c-.04.75,1.03.78,1.27.51v-.77c-.72-.21-.66.36-1.27.26Zm-27.98,2.57c.78-.19.49.7,1.27.51.79-.32,1.43-.78,1.53-1.8-.82-1.88-3.17-1.26-2.8,1.29Zm32.05-.77c.36.07.29.56.51.77,1.36-.11,2.39-1.25,1.78-2.57-1.51-.15-2.41.31-2.29,1.8Zm-132.54-.77c.29.82,1.01,1.2,2.04,1.28,1.22-1.67-1.32-2.79-2.04-1.28Zm86.5,1.28c.94.91,2.84.5,2.54-1.28-1.25-.99-2.29-.06-2.54,1.28Zm8.39.77c1.48.12,1.93-.79,1.78-2.31-1.48-1.16-2.67,1.08-1.78,2.31Zm25.18-1.54c.05.72.44,1.09,1.27,1.03.67-.27.83-1.04.77-2.05-1.11-.09-1.84.19-2.04,1.03Zm22.13-.77c.29,1.02.29-1.01,0,0h0Zm-27.98,2.05c1.13.03,1.9-.3,2.04-1.28-.56-1.54-2.38-.33-2.04,1.28Zm24.68-.51c.63.04,1.22.04,1.53-.26v-1.03c-.3-.3-.9-.29-1.53-.26v1.54Zm3.05-.77c-.53-.14-.54-.4-.25-.77-1.23-.25-.04,1.8.25.77Zm12.21,0c.04-.56-.21-.82-.76-.77-.04.56.21.82.76.77Zm-120.07,1.54c.75.77,1.72.72,2.54.51.56-.56-.25-1.05,0-2.05-1.17-.89-2.99-.57-2.54,1.54Zm92.34-.26c1.01.08,1.38-.49,1.27-1.54-.29-.21-.68-.34-1.27-.26-.12.58-.51,1.31,0,1.8Zm25.44-1.28c.29,1.01.29-1.02,0,0h0Zm-192.58,2.57c.45.48.65-.21,1.53,0,.31-.73.31-1.58,0-2.31-1.52-.25-1.58.98-1.53,2.31Zm80.13-1.8c.22,1.25-.73,1.32-.51,2.57,1.74,1.56,4.04-1.23,2.54-3.08-1.06-.22-1.2.5-2.04.51Zm-18.32,2.82c2.44-2.53-1.88-4.65-1.78-.26.33.35,1.1.25,1.78.26Zm-67.41-.77c.69-.19.51.51,1.02.51.6-.43.55-1.5.51-2.57h-1.27c-.39.37-.22,1.31-.25,2.05Zm60.55.77h1.53c-.04-.81.67-.86.51-1.8-1.2-2.68-3.78.65-2.04,1.8Zm139.41-2.05c0,1.21-.22,2.62,1.02,2.57,1.22-.73.8-1.99,1.02-3.34-1.15-.22-1.27.6-2.04.77Zm-188.76,2.05c1.54.03,2.26-1.86,1.02-2.57-1,.27-1.63,1.41-1.02,2.57Zm44.01-.77c.75-.19,1.07-.8,1.02-1.8-1.47-.31-1.83,1.23-1.02,1.8Zm55.71.77c.57.2.99.54,1.78.51.55-.56,1.02-1.19,1.27-2.05-.95-.16-.95-1.26-2.29-1.03-.34.77-.82,1.39-.76,2.57Zm-94.64-1.54c-.28,1.14.43,1.28.51,2.05.58-.19,1.3-.23,1.78-.51-.13-1.17.44-1.46,0-2.31-.95.06-1.42.62-2.29.77Zm14.25,1.54c.45-.02.79.06,1.02.26.78-.59,1.24-2.67-.51-2.57-.31.61-.9,1.79-.51,2.31Zm18.32-.26c1.15,1.06,3.08.33,2.54-1.8-.63.04-1.23.04-1.53-.26-.33.7-.79,1.25-1.02,2.05Zm139.66,1.28h2.03c.77-.58,1.12-2.55.25-3.34-.73,1.14-2.41,1.33-2.29,3.34Zm-82.17-.26c.72-.44.98-1.63.51-2.57-2.57-1.85-3.28,3.12-.51,2.57Zm-80.9-1.29c.61.24.67,1.03,1.78.77.57-.46.6-1.3.25-2.05-1.25-.15-1.88.33-2.03,1.28Zm45.28,1.29c.46.65.99,1.22,2.03,1.28.78-1.03.7-3.38-.51-3.85-.44.93-1.61,1.12-1.52,2.57Zm24.42-2.05c-1.32-1.44-2.17.71-3.3,1.03.29.9,1.11,1.28,1.78,1.8,1.25-.19,1.64-1.25,1.52-2.82Zm21.37,1.8c.41.38,1.88.38,2.29,0-.26-.76,0-2.05-.76-2.31-.88.39-1.49,1.06-1.53,2.31Zm-80.65,0h1.78c.31-1.68-1.04-1.69-2.04-2.05-.11.88.1,1.44.25,2.05Zm40.71-1.28v2.31c.74.71,1.69,1.21,3.3,1.03.75-2.19-1.3-5.37-3.3-3.34Zm25.44,1.54c.52-.41.59-1.29.51-2.31-1.72-.47-2.13,2.31-.51,2.31Zm21.62,1.03c1.6-.54,1.45-2.71,0-3.34-1.28.42-1.34,2.93,0,3.34Zm39.94-.51c.91.67,2.27,0,3.05-.26-.02-1.27-.12-2.44-1.27-2.57-.84.69-1.93,1.13-1.78,2.82Zm-33.07.26c5.87.12-.4-6.06,0,0h0Zm6.36-1.03c.45.41.53,1.18,1.27,1.28.6-.08.47-.89,1.27-.77.13-1.07-.14-1.74-.51-2.31-1.42-.15-1.58.97-2.03,1.8Zm19.84,1.03c1.12.03,1.04-.86,1.78,0,.14-1.42-.05-2.52-1.02-2.82-.52.61-1.53,1.73-.76,2.82Zm38.92.26c.98-.29.88-2.17.51-3.08-1.86-.31-1.95,2.78-.51,3.08Zm-44.52.51c.84-.3,1.75-2.72.26-3.08-1.7-1.11-2.24,3.18-.26,3.08Zm18.32-.77c1.25.68,2.39-.09,2.8-1.03-.28-.49-.63-.9-.76-1.54-1.82-.29-2.04,1.03-2.04,2.57Zm6.61-.77c.65.87,1.42.24,2.29,0,.08-2.38-2.27-2-2.29,0Zm-134.57-.52c.13.9,1.66.38,2.54.52v-1.54c-.79.41-2.58-.21-2.54,1.03Zm102.78,1.29c.6,0,.75.44,1.53.26.48-.37.03-1.68.51-2.05-.55-.21-.87-.67-1.78-.51-.21.64-.33,1.38-.25,2.31Zm-145.26-1.29c.01-.44-.2-.66-.51-.77.02.4-.03.89.51.77Zm135.08.52c.33-.34.33-.96-.26-1.03.04.38-.09.95.26,1.03Zm48.59.51c1.22.21,1.06-.99,1.53-1.54h-1.53v1.54Z"/>
  <path class="cls-5" d="m225.4,4.12c-1.33,3.73.4,10.32-1.27,13.09-.19.88,1.03.33.76,1.28-.81,1.7.33,4.03-.76,5.14.44,2.73.76,5.64.76,8.47,0,1.3-.54,2.71-.51,4.11.03,1.65,1.4,4.89.25,6.68-.08,1.89.72,3.83.76,5.65.03,1.29-.49,2.52-.51,3.85-.01,1.29.43,2.63.51,3.85.02.25-.29.83-.25,1.28.02.34.51.77.51.77-.07.78-.72,1.46-.76,2.31-.1,1.96.55,3.99.51,5.9-.04,1.62-.79,3.04-.76,4.62.02.88.48,1.85.51,2.82.07,1.99-.08,3.87,0,5.65.14,3.29-.29,6.72,0,10.01.17,1.95.2,4.14.25,6.68.02.68.45,1.33.51,2.05.22,2.61-.87,5.31-.76,7.96.12,2.84,1.03,6.65,0,10.01,1.08,2.66.09,5.38.25,8.22.06,1.05.64,2,.76,3.08.29,2.56-.36,5.32-.25,7.96.03.91.42,1.68.51,2.57.19,1.8-.43,3.37-.51,5.39-.18,4.5.24,9.19.25,13.87.02,6.15-.04,12.18.26,19,.21,4.9-.22,9.5,0,14.38.36,8.06-.67,16.75.25,24.13.4,3.2-.47,6.36-.51,9.5-.58.36-.98.89-1.53,1.29-6.75-.56-13.66,1.1-20.61.77-1.25-.06-2.35-.52-3.56-.51-1,0-2.02.44-3.05.51-4.06.3-8.79.03-12.46-.51-1.65.49-3-.31-4.07.77-1.91-1.7-7.14.44-8.65-1.03-3.74,1.42-9.95-.34-13.48.77-1-.19-1.97-.41-2.8-.77-6.37,1.35-17.17.15-24.68.77-1.16.1-2.53.19-3.82,0-1.21-.18-.68-.29-2.29,0-.68.12-1.25-.02-1.78.26-3.18-1.35-6.85,1.2-9.67-1.54-.72-.04.21,1.58-.51,1.54-3.84-.39-5.64-.04-8.9-.77-6.53.95-16.23.99-23.91.51-.78-.05-1.22-.42-2.04-.51-3.38-.39-6.76.69-9.92.51-.53-.03-1.22-.53-1.78-.51-.54.01-1,.54-1.53.51-2.1-.1-4.31-.98-6.62-.51-1.09-.18-1.32-1.24-2.29-1.54-1-.24-.18,1.35-.76,1.54-4.35-.58-9.04-.93-13.74-.77-1.96.07-3.63.42-5.85.26-3.64-.26-7.48.73-10.69.51-.61-.04-1.18-.52-1.78-.51-1.05.02-2.11.47-3.05.51-1.49.07-2.88-.5-4.32-.51-1.32-.02-2.35.5-3.56.51-1.95.02-3.39-.75-5.09,0-2.7-.96-3.8-3.52-5.34-5.65-.37-2.79.11-4.21.76-6.42-.15-1.21-1.16-1.56-.76-3.34.18,1.85,4.84.4,3.31-1.8-.92-.91-3.22.33-3.56,0,.5-2.64.6-4.83,0-7.45.68-.46.49,1.13.76.26.59-5.62-1.39-11.48-.51-19.77.16-1.02-.67-1.03-.51-2.05-.04-1.32.68-1.88.76-3.08.11-1.31-.98-1.41-1.02-2.57.19-6.24.89-11.81.76-17.2-.05-2.07-.96-3.55-.76-5.65.13-1.35.58-2.72.51-4.37-.09-.93-.52-1.53-.76-2.31-.38-5.81,2.18-11.34,0-15.92-.18-1.29.94-1.28,1.02-2.31-1.4-4.03-.58-8.22-1.02-12.07-.06-.54-.51-1.24-.51-1.8,0-1.26.61-2.47.51-3.59-.09-1.01-.68-1.99-.76-3.08-.16-2.11.52-4.52.25-6.68-.09-.73-.48-1.37-.51-2.05-.05-1.35.39-2.81.51-4.37.22-3-.34-6.35,0-9.24.17-1.43.75-3.08.25-5.14-.13-1.16,1.43-.61,1.78-1.28.48-1.43-.97-.91-1.02-1.8.04-2.1-.27-4.55.76-5.65-.98-.54-.86-1.96-1.02-2.82-.82-4.35,0-9.2,0-14.38,0-1.06-.3-2.09,0-3.85.34-1.98,1.28-4.15,1.53-6.16.22-1.81-.48-3.37-.51-5.13-.05-2.64.75-6.45.51-8.73-.2-1.86.06-3,.25-4.88.27-2.6-.41-5.33-.25-7.96.05-.84.41-1.62.51-2.57.31-3.03-.35-6.42.26-8.73C4.12,2.28,5.78,1.51,7.38.02c4.99-.16,9.65.96,14.25,1.03,1.61.03,3.19-.59,4.58.26,2.7-.23,5.05-.75,8.14-.26,1.26.2,2.6.64,4.07.51,1.62-.14,2.87-.45,5.09-.26,1.67.14,3.27-.22,4.58.77.85-.17,1.24-.8,2.04-1.03,3.55.62,6.92,0,10.94,0,1.62,0,3.27.3,4.83.26,1.55-.04,2.98-.44,4.58-.51,3.01-.13,6.12.16,9.16.26,1.7.05,3.39-.36,5.09-.26,1.8.11,3.81.67,6.36.51,1.04-.06,2.01-.48,3.05-.51,2.24-.08,4.53.45,6.87.51,4.83.12,9.83-.69,14.76-.51,2.87.1,6.58-.11,9.67,0,.44.02.92.51,1.27.51.52,0,.88-.5,1.53-.51,1.23-.03,3.13-.08,4.83,0,.92.05,1.88.48,2.8.51,2.33.09,4.83-.91,7.12.26,11.85-1.53,24.71.54,36.63-.77.88.05,1.35.52,2.04.77,1.08-.35,2.21-.84,3.81-.51.31.06.74.51.76.51.41.02,1.07-.47,1.53-.51,1.8-.16,3.93-.06,6.11,0,1.03.03,2.2.47,3.31.51,5.71.24,12.37-.77,15.77,1.03,4.45-.4,9.81-2.19,12.46,1.54Zm-22.64-1.28c-.2.06-.5,0-.51.26.2-.06.5,0,.51-.26Zm12.97.26c-.62.86.85-.62,0,0h0Zm-38.16.51h.76v-.51h-.76v.51Zm45.28-.26c.3,1.02.3-1.01,0,0h0Zm-7.38.77c.66-.45-.41-.9-.26,0l-.13.13.13.13c-2.11-.57-4.33,1-5.6-.51-.89,1.04-2.55.47-3.81.51-2.49.09-5.37.07-8.65,0-1.26-.03-2.88.62-3.82-.26-1.36.73-5.34.32-8.14.26-5.14-.11-10.38-.26-15.77-.26-7.76,0-15.47.78-21.88,0-6.11,1.24-12.47.05-18.57.26-2.06.07-4.04.51-6.11.51-2.62.01-5.31.79-7.63-.51.2.98-1.21.33-1.78.51-5.56.01-10.95,0-16.28.26-7.79.37-16.08.44-22.64.26-6.16-.17-12.64-.25-19.08-.51-1.1-.04-2.7.44-3.56-.77-.16,1.44-2.27.23-2.79.77-8.72.21-20.78-.05-29,0-3.95.03-7.53-.34-11.19.26-1.83,1.47-1.66,4.06-1.78,6.42-.52,10.2-.27,25.11-.51,37.74-.12,6.26-.26,12.54.26,17.71-.83,9.52-.5,20.83-.51,31.07-.01,9.26.25,18.58,0,27.99-.02.85-.46,1.73-.51,2.57-.25,4.52.2,9.46.25,14.12.14,12.35.33,27.74.51,42.11.11,8.64.04,17.46.51,26.19.16,3.07-.47,6.31,1.02,8.99,16.36,1.52,29.9.61,46.55,1.29,1.28-.18,1.18,1.03,2.54.77,2.56-.18,5.14.13,7.88.26,2.56.12,5.08-.47,7.38-.51,2.53-.04,5.16.26,7.63.26,6.15-.01,13.94-.14,21.12,0,2.53.05,5.05.54,7.63.51,3.12-.03,6.31-.52,9.41-.51,24.47.05,49.12.19,73.01,0,.62-.49,1.54.35,2.29.51,9.07-1.02,19.22-.93,28.24-1.03.19-4.8.23-9.9.25-15.15.02-5.14-.71-10.53,0-15.41-.87-3.32-.41-8.22-.51-12.58-.07-2.82-.1-5.74,0-8.47.28-7.73-.69-14.89-.26-22.6.04-.71.24-1.39.26-2.05.03-1.71-.53-6.05-.51-8.99.04-6.62.3-12.19.25-19.77-.03-5.71.06-11.98-.51-17.97.63-2.34.54-4.78.51-7.19-.03-2.6,0-5.34,0-8.22-.02-8.47-.91-17.08-.76-25.68.14-7.98.23-15.95,0-23.88-.24-8.52-.28-17.08-.25-25.42,0-1.22.71-3.01,0-4.37-.58.19.24,1.78-.76,1.54-.81-1.33-2.39-.66-3.81-1.03v-.26h-.25Zm5.85,36.2c.04-.3.45-.58,0-.77-.04.3-.45.58,0,.77Zm1.78,5.65c.29,1.01.29-1.02,0,0h0ZM2.55,58.04c.01-.16.04-.3.25-.26-.03-.31-.07-.61-.51-.51.04.3-.04.73.25.77Zm221.32,15.15c0-.26-.45-.32-.51,0,.29-.03.39.37.51,0Zm.51,12.58c.01-.44-.2-.66-.51-.77.02.4-.04.89.51.77ZM2.04,103.49c-.07-.77.71-1.56-.25-1.8-.26.26-.1,1.4.25,1.8Zm222.59,19.52c.01-.16.04-.3.25-.26-.03-.31-.07-.61-.51-.51.04.3-.04.73.25.77Zm-1.78.77c.74.38.74-1.15,0-.77v.77Zm-.76,16.69h.51v-.51h-.51v.51Zm.51,4.11c.3,1.02.3-1.01,0,0h0Zm-76.57,80.37c0-.77.03-1.56-.76-1.54-.01.78-.15,1.69.76,1.54Zm7.89-.51c-.77.87.94.78,0,0h0Z"/>
  <g>
    <path class="cls-1" d="m131.4,175.51c.14.03.2.14.26.26"/>
    <path class="cls-2" d="m163.32,78.07c.25.14.55.09.76,0"/>
    <path class="cls-3" d="m168.92,87.31c.17-.08.35-.16.51-.26"/>
    <path class="cls-3" d="m195.38,97.84c-.17.08-.36.16-.51.26"/>
    <path class="cls-1" d="m22.52,145.47c.17.09.31.2.51.26"/>
    <path class="cls-2" d="m193.85,148.42c.1-.24.32-.36.51-.51"/>
    <path class="cls-4" d="m33.46,212.74c.08-.17.26-.26.38-.39"/>
    <path class="cls-4" d="m215.09,4.25c.26,0,.45-.06.64-.13"/>
  </g>
</svg>