<?xml version="1.0" encoding="UTF-8"?>
<svg id="Layer_1" data-name="Layer 1" xmlns="http://www.w3.org/2000/svg" viewBox="0 0 226.77 226.77">
  <defs>
    <style>
      .cls-1 {
        stroke-width: .24px;
      }

      .cls-1, .cls-2, .cls-3 {
        fill: none;
        stroke: #000;
        stroke-linecap: round;
      }

      .cls-1, .cls-2, .cls-3, .cls-4 {
        fill-rule: evenodd;
      }

      .cls-2 {
        stroke-width: .29px;
      }

      .cls-3 {
        stroke-width: .28px;
      }

      .cls-4 {
        stroke-width: 0px;
      }
    </style>
  </defs>
  <path class="cls-4" d="m87.04,19.79c.04-.28.42-.2.7-.24.07.39-.22.41-.23.72-.25-.06-.16-.47-.46-.48Z"/>
  <path class="cls-4" d="m195.9,24.08c.68-.35.68,1.07,0,.72v-.72Z"/>
  <path class="cls-4" d="m218.88,67.24c.39-.09.44.19.46.48-.2-.04-.22.09-.23.24-.27-.04-.2-.43-.23-.72Z"/>
  <path class="cls-4" d="m9.05,84.89c.8-.17.83.84.46,1.19-.51-.03-.5-.6-.46-1.19Z"/>
  <path class="cls-4" d="m9.98,101.11c.68-.35.68,1.07,0,.72v-.72Z"/>
  <path class="cls-4" d="m77.52,11.68c.9,1.02.3,2.34.93,3.34,1.87-.55,1.51-3.38,3.25-4.05,3.79-.24,6.87.26,9.52,1.19.49-.29.9-.66,1.39-.95,2.77.03,6.9,1.4,9.05-.71,1.67-.04,2.63,1.08,3.48,1.19,2.88-1.25,6.16.84,8.82-.48.61.17.79.78,1.39.95,2.33-1.7,6.87.33,9.29-1.19,1.44.51,2.33,1.58,3.48,2.38.99-.1,1.45-.74,1.62-1.67,1.99.32,4.19-.99,4.87.72,1.02.25.76-.81,1.62-.72,6.78-.14,13.45,1,19.73-.72.73.12,1.02.7,1.86.72,3.25-1.11,5.36.41,8.36-.48,1.01.15,1.94.4,2.79.72,3.94-.32,8.5-.01,11.37-1.43,1.06.82,2.44,1.31,4.18,1.43.85.08,1.19-.37,1.39-.95,3,1.32,5.26-.11,8.36-.48,2.05,2.28,6.87.55,9.52,1.91.94.02,1.12-.76,2.09-.72,1,.17,2.02.31,2.79.72,2.72-1.07,4.11-1.51,7.43-.95,1.37,1.33.28,4.3,1.39,6.2-.1.45-.5.6-.46,1.19.74,1.89.02,4.27,0,6.44-.05,5.44,1.11,11.4-.23,16.21-.09,3.54.92,7.37.93,11.45,0,3.17-.99,6.66.7,9.3-.74,2.8-1.89,6.83-.46,9.78-.19.67-.27,1.47-.46,2.15-.25.89.58.68.46,1.43-1.16-.18.31.88-.46.95.41,1.72.91,5.51,0,6.44,0,.8.75.81.7,1.67-1.15,2.84.44,7.1-.7,9.78-.05,1.01.36,1.54.46,2.38-.13,3.37-.11,6.45-.46,10.02.23.79.42,1.64.7,2.38-.5,6.26-.43,14.03,0,20.27.12,1.72.5,3.05-.46,4.29.1,3.97-.68,7.99.23,11.45-.22.97-1.08,1.28-1.39,2.15-.09.78.54,1.01.7,1.67.51,2.12-.66,4.8.46,6.68-1.18,2.13-.11,4.99-.23,7.39-.11,2.11-1.36,4.38.23,5.72-.54,1.96.23,4-.7,5.72.08,1.11,1.32,1.03,1.39,2.15-.9,2.83.62,6.19-.46,9.54-.27,1.16.26,2.18.23,3.34-.01.57-.38.22-.46.48-.05.15.04,1.67,0,2.38-.11,2.08.35,4.31.23,6.44-.16,2.96-2.01,6.17-.46,9.06-.65,2.91-1.44,5.68-1.62,9.06-1.03.45-2.8.14-3.71.71-.77-.4-1.67-.67-2.32-1.19-4.77.49-10.6.55-15.78.24-2.96,1.33-6.69-.51-9.52.95-.75.05-.98-.42-1.86-.24-.8.13-1.24.64-2.09.71-1.17-.23-2.64-.14-3.25-.95-.7.23-1.38.49-2.09.72-1.26-.48-3.08-.12-5.11-.24-1.7-.1-3.27-.61-4.64-.48-.91.09-1.88.67-2.79.72-1.2.06-2.25-.63-3.48-.72-1.75-.13-3.69.76-5.34-.24-4.66,1.61-9.73-.32-15.09.24-.69-.64-.37-2.32-1.16-2.86-1.35.28-1.26,2.04-2.32,2.62-2.51-.04-5.78,1.15-7.89,0-1.72.4-4.75,1.29-6.96.24-1.72.14-4.08-.37-5.11.48-.68.06-.71-.54-1.39-.48-1.02-.25-.76.81-1.62.72-.92.07-1.17-.55-2.09-.48-5.2.3-10.4.18-15.78.24-.9.13-.96-.61-1.62-.71-.82-.13-.57.84-1.39.71-1.44-.11-3.41.33-4.18-.48-4.82,1.25-11.25.35-16.25.72-.92-.15-.93.63-1.86.48-2.26-.4-4.51-.17-6.73-.72-1.9-.46-3.99.18-6.5,0-1.33-.1-2.62-.69-3.95-.71-4.96-.1-9.8,1.87-14.16.24-.87-.25-.37.89-1.16.72-4.17-.42-7.47.9-11.37-.24-.67-.67-.47.6-.93.72-1.03.25-2.75-.78-3.71.24-2.69-.76-4.42-1.03-6.96-1.91-.19-1.15-.98-1.7-.7-3.34-1.98-5.3-.67-11.51-.7-17.65-.03-6.96-.74-14.12-.23-21.46.15-.87-.5-.91-.46-1.67-.55-4.07,1.28-8.23-.23-10.49,1.47-5.93-.48-12.19.7-18.6-.47-.52-.98,1.22-1.39-.24.02-1.28,1.01-.34,1.86-.48-.63-1.48-.95-4.35-.46-6.68-.9-1.24-.63-3.02-1.39-4.77,1.16-2.23-.51-5.07-.23-7.63.11-.98,1-1.72,1.16-2.62.23-1.24-.5-2.07-.23-3.34.01-.89-1.14-.58-1.16-1.43h.93c-.37-1.93,1.25-3.22,1.16-5.25-.06-1.25-1.04-2.39-1.16-3.81-.15-1.71.24-3.24.7-5.01-.45-.81-1.05-1.46-1.86-1.91.05-.79-.64-2.4-.46-3.1.35-.67,1.31-.72,1.62-1.43.12-3.62-.46-6.41-1.16-8.58,1.35-1.73.98-5.79.23-7.87.59-2.49.78-5.4,1.16-8.11-.26-1.78-1.35-5.12-.23-7.39-.48-4.34-.36-9.06-.23-13.59.05-1.68,0-3.34,0-5.01,0-6.38,1.36-12.71.23-19.79.34-1.3.93-3.85,0-5.01.53-2.09.79-4.87,1.16-6.44.74-.59,1.07-1.61,1.16-2.86,2.39-.49,4.8.69,7.2.95,1.6-1.95,3.75-.52,6.03-1.43,1.22.02,1.51.99,2.32,1.43,2.07.32,4.08.14,5.57-.72,1.11.13,2.33.15,3.25.48.7-.24,1.16-.72,1.39-1.43,1.26.69,3.59.29,4.41,1.43,1.1-.34,2.62-.73,4.41-.95.75.48,3.96,1.55,5.57,1.43,1.12-.08,1.95-.97,3.02-.95.58,0,1.17.48,1.86.48,1.14-.01,2.04-.53,3.25-.48,2.45.1,4.4,1.14,7.2.72.5-.08,1.12-.43,1.62-.48,2.47-.21,4.68.77,6.96,0Zm68.94,2.15c-.09.97.08,1.66.93,1.67.34-.41.1-1.69-.46-1.91-.05.19-.19.28-.46.24Zm59.19.72c.74.21.73-.37.93-.72-.3-.01-.32-.31-.7-.24-.07.32-.33.46-.23.95Zm-130.68,2.86c-2.17-.4-2.99-.73-4.64-1.67-.3.33-1.01.24-1.62.24-.51-.78-1.47-.63-2.32-.95-1.12-.43-.05-.58-1.16-.24-1.79.55-2.9-.76-4.18-.95-2.36-.36-4.79.91-7.2.24-.88.68-2.12,1-2.79,1.91,2.18,1.66,6.53.83,8.59,1.43.56-.3,1.13-.59,1.86-.72,2.23.41,4.21,1.08,6.73,1.19.56.93,1.65,1.33,3.02,1.43,1.51,1.15,3.49,1.82,5.57,2.38.57.53,1.02,1.18,1.86,1.43,1.63-.07,2.81-.61,3.02-2.15-1.9-.64-5.25-1.73-6.73-3.58Zm22.75-2.86c.2-.49-.6-1.07-.7-.48.33.06.39.39.7.48Zm27.62,0h.7v-.72h-.7v.72Zm77.76,1.67c-.32.62-1.06.82-1.16,1.67.88,1.24,3.01,1.56,3.48-.24-1.16-1.19-1.04-1.07-1.04-1.07l.12-.12c1.02.32.72-2.53-.46-2.62v1.19l-.12.12.12.12h-.46v.48h.46c0-.48.12-.36.12-.36l.12-.12v.95l-.12.12.12.12s.17-.33-1.16-.24Zm-48.28-1.43c-.37.78.33,1.24.46,2.15,1.25-.02,1.23-.11,2.09-.24.13-1.32-.04-2.34-.93-2.62-.51.47-.7,1.28-1.62.72Zm40.62.72c.79-.18.38.88.93.95.5-.44,1.18-.7.93-1.91-.66-.04-.97-.44-1.62-.48.17.73-.4.7-.23,1.43Zm-112.8.24c.16.79.8,1.09,1.39,1.43.75-.18,1.21-.66,1.39-1.43-.34-1.34-2.49-1.59-2.79,0Zm29.94-1.19c-.18.05-.46,0-.46.24.18-.05.46,0,.46-.24Zm75.9.48c.44.78-.66-1.17,0,0h0Zm24.84,1.91h1.16c-.68-1.08.73-.64.7-1.67-.96.27-.9-.5-1.62-.48.07.87-.04,1.55-.23,2.15Zm-123.25-.24c.46.56.69,1.35,1.86,1.19,1.79-1.96-1.8-4.28-1.86-1.19Zm8.59.24c.17-.32.72-2.19.23-1.67.13.63-.95,1.21-.23,1.67Zm4.18-1.19c.13,1.06.66,1.71,1.39,2.15.18-.53.81-.6,1.16-.95.03-.69-.13-1.56.23-1.91-.76.41-1.76.58-2.79.71Zm104.45,0v-.71h-.7c-.04.52.19.76.7.71Zm.46,188.86c.17-.81-.85-.39-.93-.95-3.7-.81-7.11-1.92-9.28-4.29-.94-.07-1.61-.41-2.55-.48-1.49-2.29-3.54-4-5.34-5.96-.99-2.88-3.33-4.36-3.48-8.11-1.62-1.95-2.11-3.58-3.48-5.72v-2.15c-1.95-2.45-2.17-6.67-4.18-9.06-.09-1.02-1.04-2.09-1.39-3.34-.39-1.37-.2-2.91-.7-4.29-.51-1.42-1.68-2.22-1.86-3.58.05-.75-.16-1.75.23-2.15-1.62-2-3.36-3.86-3.71-7.15-1.26-1.38-1.79-4.6-1.86-6.44-.5-.29-1.26-.29-1.39-.95-1.25-2.69-2.16-5.73-3.02-8.82-2.21-1.71-2.05-5.84-3.48-8.35-.5-4.74-2.73-7.68-4.41-11.21-.17-.73.24-.87.23-1.43-1.76-3.05-3.46-6.15-4.18-10.25-.68-1.2-1.84-1.93-1.86-3.82-1.23-.25-1.18-1.81-1.62-2.86.03-.69-.13-1.56.23-1.91-1.03-.83-.7-1.62-1.86-2.38-.83-2.25-1.94-4.21-3.25-5.96-.37-2.08-1.47-3.41-2.32-5.01-.28-1.86-1.44-2.81-1.39-5.01-2.07-2.41-2.55-6.44-4.41-9.06-.16-.87-.32-1.73-.23-2.86-1.28-3.69-3.87-6.04-4.41-10.49-1.06-1.37-2.16-2.71-2.09-5.25-1.16-.88-1.63-2.46-2.32-3.82-.37-3.12-2.17-4.77-3.25-7.15v-1.91c-1.06-1.25-2.58-3.08-1.62-4.53-.35-.28-1.04-.21-.93-.95-1.63-3.89-2.43-8.63-5.11-11.45-1.39.24-1.53,1.76-2.32,2.62-1.26-.19-1.18.78-1.86.95-.4.1-.83.78-1.86.95-.33.85-.94,1.42-1.62,1.91-.56.22-.61.96-1.62.71-.04,1.23-1.24,1.27-1.62,2.15-.69.33-1.53.5-2.09.95-.07,2.32-1.4,3.33-.93,6.2-.91,1.44-1.45,3.28-1.86,5.25-.4-.02-.72.05-.93.24.41.8-.16,1.22,0,2.39-1.74,2.98-2.16,7.31-4.41,9.78-.37,3.11-1.28,5.68-2.55,7.87-.91,6.13-2.08,10.85-4.87,15.26-.79,5.1-1.86,8.67-3.95,12.16-.91,5.58-2.94,10.02-4.18,15.26-.27.44-.61.81-.93,1.19-.72,5.46-2.85,9.47-3.25,15.26-.36.02-.8-.03-.7.48-.68,2.02-1.77,4.18-1.86,7.87-1.3,4.15-3.43,7.44-3.71,12.64-1,.56-.84,2.32-1.86,2.86.24.63.28,1.46.23,2.38-.24,1.02-.99,1.53-1.16,2.62v2.15c-3.3,7.1-4.81,16.05-7.66,23.61-.39,3.02-1.67,5.12-1.62,8.58-.81,1-1.27,2.35-1.86,3.58-.12,2.66-1.28,4.25-2.32,5.96.18,1.14-.36,1.53-.23,2.62-1.89,3.94-5.35,6.26-7.89,9.54-1.64.46-2.52,1.7-4.87,1.43-1.52,2.12-4.89,3.53-6.96,3.1-.9,1.06-3.07.82-3.25,2.62,1.2.52,2.12,1.32,3.02,2.15,1.32.26,2.97-.69,4.64-.95,1.85-.29,4.81-.38,6.5-.24.48.04,1.11.48,1.62.48.58,0,2-1.11,2.79-.24.74-.12.97-.75,1.86-.72,2.9.71,5.33-.4,8.36.24.43-.59,1.3-.73,2.32-.72.84.33,1.23,1.12,2.55.95,1.32-.48,2.44-1.15,4.18-1.19,1.64,1.11,3.85.53,5.11-.24-5.15-2.58-8.73-6.77-10.45-12.88.14-.65.97-.59.93-1.43.13-1.54.85-2.47.7-4.29,1.89-3.86,1.66-9.9,3.95-13.35-.07-2.22.26-4.03,1.39-5.01.32-4.68,2.04-7.92,2.09-12.88,1.16-1.51,1.76-3.6,1.86-6.2,1.44-1.7,1.37-4.95,2.79-6.68-.08-2.31.41-4.03,1.39-5.25-.78-1.76,1.04-2.47.7-4.53,1.2-1.73,3.88-1.21,5.57-.95,1.35.2,3.27.27,4.64.24,2.37-.06,3.52.28,5.34.24,1.94-.05,3.48.48,5.34.48,1.2,0,2.3-.61,3.48,0,4.9-1.35,8.26-1.54,13.46-.71,4.12-1.04,8.59.71,13-.48.57.13.49.92,1.39.72,3.08-.1,5.59-1.03,8.82-.72.96.92,1.63,2.14,2.55,3.1-.33,1.11-.06,1.36.46,1.43,0,.56-.4.7-.23,1.43.38.49.75.97.93,1.67,0,3.58,2.79,4.29,3.48,7.15-.11.84-.35,1.55-.23,2.62,1.24,2.62,3.72,3.97,3.48,8.11,2.39,2.31,1.82,7.67,4.41,9.78,0,.95.46,1.43.46,2.38,1.26,1.01,1.95,2.61,2.55,4.29v2.86c.34.2.5.6.46,1.19,3.15,1.35,3.77,6.29,2.79,10.49-.43.59-.79,1.25-1.39,1.67-.17,3.25-1.67,5.12-3.02,7.15-3.3.94-5,4.66-8.59,4.53-1.5,1.26-3.18.98-4.41,2.62,1.8,1.2,4.64-.97,5.8.95,1.08-.81,3.88-.74,5.34,0,.91.06.86-.86,1.86-.72,3.98.65,7.54-1,11.61-.72,2.67.19,5.87-.23,8.59,0,1.66.14,3.22.67,4.87.72,2.88.08,5.76-.58,8.36.24-.08-.8,1.01-.4,1.39-.71,2.76,1.39,6.99.09,9.75.95,1.16-1,4.66-.43,6.5,0,1.06-.69,3.45-.92,4.64-.71-.86-1.76-1.91-2.65-3.95-2.39ZM101.2,16.45c.68.35.68-1.07,0-.72v.72Zm-74.97.71c.27,1.16-.56,3.44.46,3.82.89-1.23,2.11-3.12,1.86-4.77-1.16-.9-1.5.74-2.32.95Zm179.19-.95c-.16.8.39.87.93.95v-1.19c-.44-.05-.51.27-.93.24Zm-5.34,8.82c-1.92-.33-2.69-1.84-3.95-2.86-1.61.07-2.65-.45-3.02-1.67h-1.39c.33-1.61-1.72-.78-1.62-2.15-.44-.05-.51.27-.93.24-.53-.73-1.47-1.04-2.09-1.67-2.47.06-6.02-1.24-9.29-.48-.05-.29-.26-.15-.46,0-.18,1.81-.53,4.42-.46,5.72,2.09.31,1.81-1.79,3.02-2.38,2.58-.05,3.71.25,6.04.72,1.63,1.9,4.67,2.35,7.43,3.1,1.23,1.52,2.82,2.67,4.87,3.34.41,1.88,1.52,3.05,3.02,3.82.5.36.37,1.37,1.16,1.43,1.01.24,1.07-.49,1.62-.72.13-3.63-2.99-3.93-3.95-6.44ZM46.42,42.92c1.12,1.63,2.96,2.52,4.64,3.58-.12,1.3.62,2.33-.23,3.1-.74.64-1.54-.18-2.55,0-.69-1.09-.86-1.12-2.09-1.67-.41-.18-.71-.64-.93-.71-2.74-.99-4.01,1.59-6.27.71-2.01,1.35-4.02.91-5.8,1.67-.51-1.14-1.26-2.05-2.32-2.62-1.52.74-1.32,3.2.46,3.58,3.41-.53,5.53,1.21,8.59,1.43.16.88.4,1.81,0,2.62-2.51,1.58-6.01,1.6-7.89-.48-2.34-.06-4.73-.07-6.03-1.19-.88-1.13.86-3.6-1.16-3.34-.34.85-.82,1.54-.7,2.86-1.22,1.92-4.54,1.7-5.11,4.29,1.69.95,3.73.2,5.57.48,3.1.46,5.14,3.25,7.89,4.05,1.97,2.98,4.61,5.28,9.29,5.48.59.51,1.35.84,1.86,1.43,1.34-.57,1.9.42,3.48.24,1.02-1.26,2.69-1.85,3.95-2.86.8.65,2.13-.19,3.02-.24.82-3.08,3.87-5.05,3.48-8.58-1.63-.2-2.96,1.06-3.71-.24.02-.41-.05-.74-.23-.95,3.01-1.87,2.02-7.59,4.18-9.78,1.12-.46.81.86,1.16,1.43.72,1.16,1.73,2.1,1.39,4.05.73.68.49,2.35,1.86,2.38,1.19-.37.94-2.22,2.55-2.15.8.05,1.01.71,1.16,1.43-1.21,1.45-3.94,3.37-2.32,6.2,2.04-.2,2.97-1.56,4.87-1.91.24-1.58,1.7-1.91,1.86-3.58,2.37-1.22,2.02-5.24,4.18-6.68.03-2.28.94-3.64,2.32-4.53.44-4.47,3.6-6.16,4.41-10.25,2.58-1.48,3.7-4.46,7.43-4.77.53-1.04,1.4-1.75,2.55-2.15.74.19,1.17.7,2.09.72.07-1.34-.57-1.96-1.62-2.15-1.76.91-3.75.68-5.57,0-.72.37-1.56.62-2.09,1.19-2.57-.76-4.59,2.22-6.96,1.67v1.91c-.31.94-1.81.29-1.86.95-.32.31-.32,1.13,0,1.43-1.69,2.23-2.17,5.72-5.8,5.96-2.62-3.12,1.17-6.95,1.62-10.49-2.84-1.86-4.12,2.49-6.5,1.91.66,1.06-.41.75-.7,1.43.56.67-.77,1.43-.7,2.38-.11.75.42.84.23,1.67-1.2,2.02-1.25,5.23-3.25,6.44-.38,1.67-.46,3.66-2.32,3.82-1.85-1.61.46-4.21.23-6.44-.92-1.93-.61-4.86-1.39-7.39-1.51-.89-2.42-2.65-1.86-5.01-2.24-3.66-4.3-7.51-8.82-8.82-.29.9-.61,1.76-.7,2.86,1.34,1.7,2.49,4.21,2.55,6.68.04,1.73-.69,3.45-.93,4.53-.16.71-.07,1.71-.23,2.15-.22.62-1.17,1.23-1.39,1.91-.26.81.48,1.52-.46,1.91-.33.53-.57-.3-.7.24,1.01,1.82,2.12,3.55,2.32,6.2Zm105.15-23.37c-.06-.94.99-.73.93-1.67-.59-.19-.39-1.19-1.16-1.19-1.5.38-.75,2.41.23,2.86Zm12.07-1.67c-1.1,2.05-4.32,1.92-5.57,3.81-.44-.1-.42-.68-1.16-.48-.94,1.74-3.13,2.19-3.71,4.29-.54-.56-1.14.04-1.86,0-.19.52-.6.81-.46,1.67-3.76,2.17-4.32,7.64-6.03,11.92-.33,2.21-.05,5.04-1.16,6.44.14,1.41-.23,2.31-.46,3.34.91,1.75-.66,5.47,1.86,5.96.22-1.45,1.43-1.87,1.86-3.1v-6.44c1.73-2.99,1.24-8.27,3.71-10.49v-1.19c.76-.33,1.05-1.14,1.86-1.43.88-4.02,4.14-5.61,6.5-8.11,1.86-.16,2.8-1.26,3.95-2.15,1.53.3,1.52-.98,2.55-1.19.23.47.4,1.02.93,1.19.26-1.24,1.88-1.09,3.02-1.43.83-1.34.2-2.77-.46-3.82-2.51.02-3.09,1.39-5.34,1.19Zm-147.62,0c1.06,3.19,4.43,4.62,4.87,8.35.17,1.44-.52,3.05,0,5.01-.21.59-.29,1.29-.93,1.43,1.25.43.19,1.8.7,2.86-1.65,1.23-1.05,3.69-1.62,5.48-.16.49-.59.68-.7,1.19-.09.44.25.73.23.95-.04.59-.45,1.17-.46,1.67-.06,2.29-.01,4.55-.7,6.92.46.24.37,1.05,1.16.95,1.22.14.87-1.33,2.32-.95.8-4.88.05-9.93,2.32-13.12.14-2.64.86-4.68,2.55-5.72-.17-.73.4-.7.23-1.43,1.94-1.1,2.17-3.97,3.95-5.25,2.59-1.56,4.36-3.95,7.43-5.01,2.17.24,3.27-.61,4.64-1.19-.27-.99.49-.93.46-1.67-.87-1.46-2.45-.71-3.95-1.43-.23.47-.4,1.02-.93,1.19-5.26.85-9.05,4.28-11.61,8.59-1.01-.86-.81,1.11-1.86.95-1.25-.86-1.07-3.19-1.62-4.77-.61-.56-1.4-.95-1.62-1.91-.53-.17-1.19-.21-1.62-.48-.23-.72-.82-1.06-.7-2.15-1.58.35-1.09-1.43-2.32-1.43-.07.32-.33.46-.23.95Zm122.55,4.29c-.85-1.2-1.23-2.61-2.32-3.58-1.8-.09-3.08-1.87-4.64-1.43-.14,1.49,1.13,1.54.93,3.1-.33.77-1.14,1.06-1.86,1.43-.84-.25-1.44-.75-2.32-.95-1.07-1-2.34-2.96-3.71-2.86-.9,2.36,1.48,3.4,1.39,5.72.96,1.16,1.77,2.47,2.55,3.82,1.87-.01,2.32,1.44,3.48,2.15,1.67.62,2.88,1.35,4.64,1.19,1.06-.09,2.11-1.08,3.25-1.19,1.33-.14,2.06.23,3.48.48.46,0,.29-.65.93-.48.37-1.29,1.62-1.68,1.62-3.34.83.05,1.21-.34,1.16-1.19-1.23-.77-3.52-.04-5.34,0-1.13-1.03-2.37-1.62-3.25-2.86Zm62.21-4.29c.06-.34.38-.4.46-.72h-.7c.04.28-.04.68.23.72Zm-115.13.95c.31.96.05,2.49,1.16,2.62.22-.73,1.13-.75,1.16-1.67-.05-1.14-1.04-1.32-1.62-1.91.07.62-.08,1.03-.7.95Zm11.84-.48c.27.94.27-.94,0,0h0Zm76.13-.24c-.73,1.8-1.81,3.23-2.55,5.01v1.91c-2.39,3.04-1.01,7.28-1.39,11.45,1.23,3.43,3.12,6.18,3.95,10.02,2.48.87,3.19,3.56,5.57,4.53,2.08-.31,2.67.92,4.41.95.7-.47,1.39-.96,2.09-1.43-.2-1.93.9-3.01.93-4.53.07-3.21-2.69-5.14-3.02-8.35-2.44-1.79-4.81-3.64-6.96-5.72-.59-.75-.79-1.89-.93-3.1-.37-.73-1.23-.96-1.39-1.91-.45-1.61.03-4.16-.46-5.72.68-.55.94-2.07.46-3.1h-.7Zm-31.33.48v.95c.75-.06,1.08.29,1.86.72.73.11.62-.64,1.16-.72.1-.57-.42-.52-.23-1.19-1.33-.23-1.71.88-2.79.24Zm66.38,0c-.63.73.71-.65,0,0h0Zm-113.27.72c.3.01.32.31.7.24.01-.41-.18-.61-.46-.71,0,.24-.19.28-.23.48Zm119.77,1.67c.91.22.17-1.26.7-1.43-.34-.12-.58-.35-.93-.48.14.57.33,1.09.23,1.91Zm-120-.48c.44-.45-.14-.43,0-1.19-1.08,0-1.08,1.19,0,1.19Zm58.03.24v-.95c-.27-.2-.62-.31-1.16-.24.1.69.49,1.09,1.16,1.19Zm-92.84,1.91c1.44-.37,1.32.87,2.32.95,2.37.17,3.03-1.15,4.41-1.43-.03-.76-.53-1.05-1.39-.95-.44.03-.16.79-.7.72-.67-.18-.6-1.13-1.62-.95-.41.22-.38.88-.93.95-.34-.52-.45-1.28-.93-1.67.52,1.72-1.55.8-1.16,2.38Zm-3.95-.24c.82.19.74,1.31,2.09.95.48-.38.54-1.2.46-2.15-1.05-.65-2.65-.1-2.55,1.19Zm42.94-1.19c-.12,1,.13,1.62.46,2.15.73-.05,1.7.16,2.09-.24.17-1.21-.23-1.83-.93-2.15-.45,1.12-.89-.39-1.62.24Zm103.52.24c-.18.05-.46,0-.46.24.18-.05.46,0,.46-.24Zm4.41,4.05c.14-.01.28-.04.23-.24-.97-.39.78-3.86-1.86-3.1-.1.85-.62,1.27-.46,2.38.51.36,2.08.87,2.09.95Zm-163.64-.95c1.1.2.89-2.06,0-1.91v1.91Zm-28.32-.95c-.65.6-1.01,1.51-1.16,2.62.59,1.41,2.08,3.07,3.48,2.86-.23-2.39-.98-4.24-2.32-5.48Zm27.85,1.67c.11-1.15-.91-1.13-1.62-1.43.08.91.08,1.58,1.62,1.43Zm139.27,4.53c.37.73.82,1.38,1.86,1.43.57-.68,1.08-1.43.93-2.86,1.43-.48,1.79-2.87.7-4.05-4.47-1.14-2.71,3.25-3.48,5.48Zm-18.1-2.62c.7.63,1.25,1.42,2.55,1.43.21-.5.71-.7.7-1.43-.75-.82-.98-2.17-2.09-2.62h-.7c-.31.72-.16,1.9-.46,2.62Zm-70.56-1.43h.7c.07-.62-.09-1.03-.7-.95v.95Zm-21.12-.24c0,1.66,2.16,1.12,2.79,2.15.59-1.27-1.11-3.21-2.79-2.15Zm-36.21,1.67c.73-.05,1.7.16,2.09-.24.03-.59.04-1.16-.46-1.19-.61.41-1.63.4-1.62,1.43Zm23.21-.48c-.15,1.34.51,1.86,1.39,2.15,1.5-.53.85-2.63-.23-3.1.16.88-.81.59-1.16.95Zm115.82-.72c-.3-.01-.32-.31-.7-.24-.36.59.79.7.7.24Zm-77.99.48c.36.53,1.64.81,1.39-.48-.69.46-1.15-.32-1.39.48Zm113.73-.48c-.31,1.03-1.46,1.21-2.09,1.91-.72.51-.05,1.06-.46,1.67-1.5.69-2.01,2.39-3.48,3.1-.05.77.41,1.01.23,1.91-.87,3.48-2.63,6.04-4.64,8.35-.98.19-1.66.68-2.79.72-2.29-1.97-.54-3.58,0-5.48.38-1.34,1.05-2.78.23-4.29-.96-.03-1.45.41-2.55.24-.47.55-.83,1.21-1.39,1.67-2.4.76-3.45,2.63-4.64,4.53-.54.86-1.04,1.08-1.16,1.91-.18,1.25.54,2.6.7,4.05.2,1.86-.16,3.54,0,5.48,1.18.61,1.97,1.63,2.55,2.86.93.23,1.67.67,2.32,1.19,1.9-.36,4.04-.62,6.04-.24,1-.48,1.58-1.4,2.32-2.15,2.73-1.25,3.96-4.04,6.5-5.48,1.15-3.8-.48-7.74.23-11.68.17-.97-.75-.82-.46-1.91,1.83-1.87,4.2-4.42,3.25-8.35h-.7Zm-22.05,2.15c.59.75,1.5,1.16,2.32,1.67.69-.91.32-2,0-3.1-.79-.07-1.33-.38-2.32-.24v1.67Zm-11.37-1.19c-.1.9.49,1.09.93,1.43.24-.55.8-.77.7-1.67-.77.15-.79.7-1.62.24Zm-18.8.24c-.06,1.09.57,1.48.7,2.38h1.39c-.07-.81-.37-1.37-.23-2.38-.7-.33-.83.11-1.86,0Zm55.71.95c.59-.03.9-.35.93-.95-.27-.2-.62-.31-1.16-.24-.08.55.04.92.23,1.19Zm-120,2.15c.54.56,1.49.7,2.32.95.05-.27.26-.37.46-.48-.06-2.68-2.21-2.73-2.79-.48Zm32.5-1.43c-.46.07-.46-.32-.7-.48-.2.84.57,1.26.7.48Zm-42.48,4.05c.95,2.56,4.12,4.72,3.02,7.87.5,1,1.48,1.5,1.86,2.62.19,1.47-.19,2.35-.46,3.34-.05.77.41,1.01.23,1.91-.76,3.59-.48,8.25-2.79,10.25.18,1.22-.33,1.73-.23,2.86-.73.36-.51,1.7-1.62,1.67-.52,3.52-2.77,5.27-5.11,6.92-1.55,0-3.32-.23-3.95.72-1.68-.5-3.53-.83-5.57-.95-.97-1.15-2.12-2.11-3.02-3.34-3.64-.79-4.63-4.3-6.96-6.44-.27.84-1.17,1.02-1.16,2.15,1.37,2.96,2.82,5.85,5.8,7.15.87,3.05,4.05,2.31,5.8,4.29.13.5.58.68.46,1.43-.8.29-.94,1.26-2.32.95.49,1.62-1.25,2.27-1.39,3.81-.25,2.73,3.27,5.81,4.64,7.15.95.94,1.44,1.78,1.86,1.91,1.19.36,2.33-.23,3.02-1.19-.46-1.38-1.79-2-2.55-3.1-.72-1.05-1.09-2.28-1.86-3.34,1.22-2.88,2.8-5.38,5.8-6.44.04-.36-.08-.88.23-.95,2.35-.85,3.96-2.45,6.04-3.58.46-1.6,1.06-3.05,2.55-3.58.51-2.18,1.67-3.69,2.79-5.25,0-.63.09-1.36-.23-1.67,2.31-2.65,1.88-6.83,2.55-10.25-.46-1.43-.26-3.8.23-5.01-.6-6.43-2.51-10.23-3.25-16.22-1.97.91-3.03,2.77-4.41,4.29Zm-53.15-2.62h1.86c-.27-.84-.69-1.51-1.86-1.43-.45.45-.07.87,0,1.43Zm9.05,1.43c.97.7,1.95-.28,1.86-1.43-.43-.51-.73-1.15-1.62-1.19-.25.94-.14,2.05-.23,2.62Zm156.67,0c.46-.5.18-1.58,0-2.15-2.95-1.56-2.8,2.74,0,2.15Zm-9.75.24c.05,1.38.24,2.61,1.39,2.86,2.69-.69-.37-3.11.7-4.29-.3-.01-.32-.31-.7-.24.07,1.1-.97,1.08-1.39,1.67Zm-19.73-.24c.05-.68.03-1.3-.7-1.19.03.61.04,1.23.7,1.19Zm-5.34.48c.12,1.09-.4,1.35,0,2.15,1.25.34,2.9.87,3.71-.24.61-3.56-2.35-3.04-3.71-1.91Zm-21.12,1.43c-.19,1.23,1.07.97,1.16,1.91.73.11.61-.64,1.16-.72.06-1.19-.51-2.96-.7-3.1.25,1.44-1.62.72-1.62,1.91Zm57.1-1.67c.3.01.32.31.7.24.01-.41-.18-.61-.46-.72,0,.24-.19.28-.23.48Zm-42.71,2.38c1.25.33,1.23-.64,2.09-.72.02-1.91-1.84-1.53-3.02-1.67.23.88.77,1.43.93,2.38Zm-127.66.24c1.49.26,1.57-1.23.93-1.91h-.93c-.34.35-.34,1.56,0,1.91Zm8.82,1.19c.73-.85.73-1.72.23-2.86-.58-.2-1.24-.31-2.09-.24-.8,2.16.62,2.65,1.86,3.1Zm98.88-2.15c.13.77-.16,1.11-.23,1.67.69.48,2.06.72,2.79.48.27-.58.43-2.06.23-2.38-1.1-.54-1.94-.38-2.79.24Zm-5.11.95c-.1-.46-.08-1.03-.7-.95-.06.62-.08,1.19.7.95Zm-38.53.95c.25,1.09,1.31,1.35,2.32,1.67.38-.72.92-1.28.7-2.62-1.05-.92-3.02-.89-3.02.95Zm123.02,1.43c-.08-1.19.78-1.42.46-2.86-2.41-1.21-2.82,2.96-.46,2.86Zm-176.4.71c.51-.04.74.2.7.72.68.06.71-.54,1.39-.48-.11-1.24-.63-2.05-1.39-2.62.48,1.22-.8.98-.7,2.38Zm122.09.95c.43-.51.16-1.75.23-2.62-1.88-1.2-2.27,2.89-.23,2.62Zm-143.91,1.19c.62-1.42-.34-3.09-1.16-3.82-1.37.79-.78,4.22,1.16,3.82Zm115.82-2.39c-.22,1.31-.13,2.75.23,4.05h1.39c.75-1.04.87-2.35,0-3.34.4-.78,1.21-1.85-.23-2.15-.49.45-.13,1.77-1.39,1.43Zm19.73.48c-.17,1.53,1.47,1.19,2.09,1.91.73-1.08,1.95-1.65,2.09-3.34-1.76-.8-3.44.4-4.18,1.43Zm-67.78.48c-.47-.62-.37-1.85-1.39-1.91-.38.41-.7.87-.7,1.67.5.54.79-.2,1.62,0,.06.26.38.57.46.24Zm131.14-.48c-.18.05-.46,0-.46.24.18-.05.46,0,.46-.24Zm-187.08,2.38c.52.19.9.5,1.62.48.83-.62.29-1.83,0-2.62-1.53-.3-1.72.78-1.62,2.15Zm-3.71,0c.44.1.58.51,1.16.48.34-.35.34-1.56,0-1.91-.94-.09-1.34.37-1.16,1.43Zm115.13,1.43c.12-.84.35-1.55.23-2.62-2.56-1.31-2.5,2.85-.23,2.62Zm23.68-.48c.47.55.83,1.21,1.39,1.67.66-1.03,1.27-3.73-.46-4.05-.34.76-1.14,1.06-.93,2.38Zm50.83-1.43c.68.2-.3.6,0,1.19.46,0,.29.65.93.48-.73-.84.88-1.7-.23-2.15,0,.39-.64.13-.7.48Zm-52.23.24c0-.24-.41-.3-.46,0,.05.29.26.15.46,0Zm-122.79,3.34c1.18-.14,1.53-1.13,2.09-1.91-.37-.33-.74-.68-1.16-.95-.31.99-1.63,1.54-.93,2.86Zm4.18-2.38c-.14-.07-.89-.59-.93,0,.14.07.89.59.93,0Zm-10.21,3.34c1.88-.05,3-.89,2.79-3.1-2.44-1.09-4.38,1.19-2.79,3.1Zm46.19-2.86c-.28.67-.25,1.65-.23,2.62.88.87,2.54.41,3.02-.48-.89-.82-.86-3.09-2.79-2.15Zm-66.38.48c-.26.02-.36-.35-.46,0,0,.24.41.3.46,0Zm30.41,1.19c-.14-.42.68-.99,0-1.19-.13.14-.54,1.13,0,1.19Zm39.92,1.67c.58.84,1.89.41,2.32-.24-.13-.86-.24-1.02-.23-2.38-.54.08-.89-.04-1.16-.24-.12,1.15-.94,1.58-.93,2.86Zm68.01-.72c.08-.63.58-.84.7-1.43-.3-.01-.32-.31-.7-.24-.15.52-.87,1.48,0,1.67Zm-124.18-.95c-1.38-1.47-2.13.69-2.79,1.43.47.63.29,1.93,1.39,1.91.94-.62,1.62-1.52,1.39-3.34Zm133.23,2.15c.88-.05,1.53-.34,1.62-1.19-.02-.93-.94-.94-1.39-1.43-.37.75-1.21,1.85-.23,2.62Zm-6.5-.72c.08,1.19.89,1.63,1.86,1.91.75-.5,1.23-2.29.93-3.1-1.15-.69-2.51.2-2.79,1.19Zm13.93,0c-.05-.42.23-1.19-.46-.95-.06.54.06.9.46.95Zm-31.57,2.62c-.31-1.11.52-1.06.93-1.43-.71.01-.9-.5-1.39-.72-.08.81.18,2.5.46,2.15Zm75.9,24.8c.83-1.43.95-2.85,1.16-4.53.23-1.84.13-3.37.23-5.48.06-1.27.47-2.48.46-3.58-.02-2.72-.72-5.04-.93-6.91-.16-1.38.24-2.67,0-3.82-.16-.75-.95-1.36-.93-2.15-.72.04-1.31-.56-1.86,0,.63,1.42.9,2.9.23,4.53-.09.89.94.62.7,1.67-.54,4.45.83,7.19-.23,11.21-.16,1.2.39,1.66.23,2.86.06.94-.84.89-.7,1.91.63,2.08-.58,4.65-1.39,5.25.51,1.3-.19,2.08-.7,3.34.58,1.07,1.66,1.63,3.25,1.67.54-.48,1.24-.79,1.39-1.67-.29-1.46-.62-2.86-.93-4.29ZM15.09,48.88c1.18.02,1.42-1.38.93-2.38-1.43-.26-1.81,1.68-.93,2.38Zm160.16,2.86c-.73-1.07-1.78-1.83-3.71-1.67-.93-.64-1.63-1.5-2.79-1.91-3.36-.34-5.03-.5-6.96.95-.27-.2-.62-.31-1.16-.24-2.03,1.57-5.28,1.89-5.34,5.48,2.22,1.05,3.03-1.3,3.71-2.62,1.67-.25,3.96.83,4.18,2.86-.64,1.81-2.75,2.11-4.64,2.62-4.85-.79-9.09-1.6-13.69-2.15-.18,1.53-2.55,1.93-2.09,3.34,1.68.24,3.93,1.28,6.96.72,1.12,1.31,3.57,1.26,4.87,2.38,2.3-.22,2.92,1.3,5.34.95,1.91,3.18,8.16.48,11.61,1.91,1.86-.95,4.12-1.49,6.04-2.38,1.37-2.33,2.18-5.23,4.64-6.44.12-.92-.41-1.16-.23-2.15-2.38.41-3.86-1.82-6.73-1.67Zm-97.49-1.91c.56.3.68,1.05,1.62.95.05-1.3,1.83-.83,1.62-2.38-1.17.33-3.3-.61-3.25,1.43Zm73.81.95c1.98.5,1.74-2.8,0-2.38-.3.69-.3,1.69,0,2.38Zm-68.47,1.43c.64.16,2.84.13,3.25-.72-.01-.73-.85-1.24-.23-1.91-2.12-.96-2.61,1.11-3.02,2.62Zm54.78.95c.9-.21.83.58,1.39.71.31-.4.61-.8.46-1.67-.99-.06-1.98-.12-1.86.95Zm-61.97.71c-.88,2.71-1.4,5.52-1.39,8.58.96.75,1.93-.13,2.55-.48-.68-4.18,1.45-4.7,1.62-8.35-1.29-.33-1.42.2-2.79.24Zm106.77.48c.27.94.27-.94,0,0h0Zm-16.25,27.18c2.74-.45,6.5.59,8.36-1.19h2.55c1.59-1.15,3.62-1.84,5.57-2.62,1.6-1.76,2.97-3.87,4.41-5.96.46-.66.2-1.69.46-2.38.44-1.15,1.37-1.96,1.62-3.34.22-1.18-.17-2.52.23-3.82-.65-1.8-.62-4.29-1.62-5.72-.99-.28-.95.02-1.86.24.73,3.88,1.89,12.19-1.39,15.02-.5.2-.79.62-1.62.48-.66,1.15-1.55,2.06-2.55,2.86-1.62.72-3.37,2.01-5.57,2.38-2.17.37-3.85.14-5.11-.24-.94.86-3.55-.19-5.34,0-1.33-1.84-4.01-1.45-6.27-1.91-.75-2.49-3.18-3.25-3.95-5.72-1.28-.11-1.61-1.21-2.32-1.91-.4-1.74-2-2.67-2.09-4.05-1.07-.62-1.84-1.91-3.02-1.19-.65,1.83,1.2,3.03,1.86,4.29.71,4.2,3.72,6.04,5.11,9.54,0,.24.19.28.23.48.85,3.84-1.35,6.53-1.39,9.3,1.51,1.34,2.95.07,4.41-.48.36-1.59.28-2.22.7-3.58-.33-.94-1.49-2.27-.7-3.58.31-.08.44-.34.93-.24.67.66,1.42,1.24,2.09,1.91,1.92-.19,3.29.69,4.41-.24.12,1.07,1.26,1.09,1.86,1.67Zm-84.26-23.13c.85-.08,1.06-.82,1.39-1.43-.34-.45-1.52-.03-1.86-.48-.13.93.2,1.38.46,1.91Zm-10.91-.95c0-.24-.41-.3-.46,0,.05.29.26.15.46,0Zm129.75,2.62c1.27,1.3,2.59-.4,2.79-1.67-.67-.43-1.08-1.11-2.32-.95.32,1.36-.61,1.44-.46,2.62Zm-177.56,7.15c-.14-.65-.97-.59-.93-1.43.27-2.47-.5-3.88-.46-5.72-1.08-.62-1.82-2.05-3.02-.72-.75,2.91,1.34,5.4,1.62,8.58.07.78-.33,1.55-.23,2.38.19,1.56,2.06,4.16,2.55,4.29.44.12,1.16,1.42,1.86.95.13-.34.36-.58.7-.72-.26-2.91-2.69-4.6-2.09-7.63Zm173.15-5.01c.46-.48.94-.94.93-1.91-1.86-.41-2.33,1.48-.93,1.91Zm8.12,0c.65.75,1.91,1.79,3.02.72,0-.79-.39-1.19-.23-2.15-1.46-.74-2.54-.23-2.79,1.43Zm-188.01,3.1c.93-.65,1.26-2.75.46-3.82-.79-.07-1.33-.38-2.32-.24-.33,2.04.11,3.58,1.86,4.05Zm52.46-1.91h1.39c.17-.73-.24-.87-.23-1.43h-1.62c-.25.89.58.68.46,1.43Zm10.21.48c.8.19.98-.26,1.39-.48.04-.59-.37-.74-.46-1.19h-.93c-.33.32-.33,1.35,0,1.67Zm-54.08-1.19c.04.92.52,1.37,1.16,1.67.47-.23.5-.92.46-1.67-.31-.34-1.32-.34-1.62,0Zm154.82,2.62c-.72-.02-1.11.29-1.62.48.13.35-.27,1.23.23,1.19.8-1.37,2.31.73,3.25,0,.5-.69.19-2.14-.23-2.62-1.18-.34-1.19.53-1.62.95Zm-107.7,1.19c.25.7,1.1.77,2.09.72.6-.41.47-1.58.46-2.62-1.35.12-2.57.38-2.55,1.91Zm129.05-1.91c-.66-.3-1.32.58-2.09,1.43.18,2.13,1.01,3.58,1.62,5.25,2.11.38,1.44-6.24.46-6.68Zm-43.4,3.58c.82.15,1.15.08,1.86.72,1.12-.65-.14-2.2-.7-2.62.49,1.53-1.25.79-1.16,1.91Zm34.58-.71c.41.77,1.02,1.34,2.09,1.43.46-.4,1.08-.64,1.16-1.43-.7-.56-1.19-1.32-2.55-1.19-.21.42-.56.7-.7,1.19Zm-164.1,3.58c.27.12.53.25.7.48.92-.25,1.19-1.17,2.09-1.43-.53-1.14.74-1.75.46-3.34-.32.01-.51-.11-.7-.24-.79,1.57-2.15,2.56-2.55,4.53Zm145.3-2.15c.11-1.15-.97-1.07-1.39-1.67-.19,1.18.45,2.41,1.39,1.67Zm30.87,0c.89.84,1.15,2.31,2.32,2.86,1.28-.62.31-2.33.46-3.82-.8-.91-3.11-1.15-2.79.95Zm-150.41-.72c-.22,1.57.53,2.16,1.39,2.62.46-.79,1.45-2.07.7-3.34-1-.07-1.53.33-2.09.71Zm112.81,1.67c.89.04,1.69-.01,2.09-.48-.46-1.08-.82-.87-2.09-1.19-.33.32-.33,1.35,0,1.67Zm-132.77.72c.75.27.65,1.4,1.86,1.19.59-.59,1.16-1.19.93-2.62-.91.36-2.9-.47-2.79,1.43Zm113.04.48c.07-1-.97-1.83-1.86-1.43-.83,1.19-.85,2.75.93,2.86.14-.74.87-.67.93-1.43Zm.46-.95h.46c.01-.31.3-.33.23-.72h-.7v.72Zm-133,1.19c.42,1.16.92,2.24,2.79,1.91.47-.94.04-2.01-.46-2.62-1.28-.09-1.82-.31-2.32.71Zm161.55,1.19c.93.46,2.24.15,2.32-.95-.56-.7-1.01-1.51-2.55-1.19.05.75-.16,1.75.23,2.15Zm20.66-2.15c-1.12.13-1.24,1.27-1.39,2.38,1.64,1.85,3.48-1.77,1.39-2.38Zm-32.96,1.19c.07-.32.33-.46.23-.95h-.93c-.06.62.09,1.03.7.95Zm-124.41-.24c-.15.89-.77,1.56,0,2.15,1.08-.48,2.27-.85,2.32-2.38-1.03-.19-1.39.32-2.32.24Zm132.3.24c.27.94.27-.94,0,0h0Zm-126.04,2.86c1.14.06,1.96-.21,2.09-1.19.01-.73-.49-.93-.7-1.43-2.01-.48-2.68,1.75-1.39,2.62Zm12.3.48c1.72.02,3.17-.24,3.02-2.15-.41-.54-1.4-.47-2.09-.71-.31.95-.82,1.7-.93,2.86Zm111.18-2.15c-.04.68-.03,1.3.7,1.19.5-.52.93-1.11,1.16-1.91-.89-.04-1.12.6-1.86.71Zm21.35,1.43c.51.27.95.62,1.86.48-.23-.95.69-.72.46-1.67-.7-1.45-2.58-.81-2.32,1.19Zm25.3-1.43c-.2,1.41.13-.96,0,0h0Zm-166.66.72c-.44,1.19.04,1.96,0,3.34-.69,1.19-1.39,2.39-1.39,4.29-.99,1.36-2.6,2.1-3.25,3.81.33.61.54,1.35,1.39,1.43,1.64-.3,2.58-1.33,4.18-1.67.41,1,2.65,1.17,3.48.95.48-.38.54-1.2.46-2.15-.35-.28-.95-.3-1.16-.72-1.32.16-1.76,1.21-3.25,1.19-.45-.58-.69-1.36-.7-2.38.51-.9,1.83-.98,2.32-1.91-.37-2.69.52-4.07.93-5.96-.73-.93-1.89-.62-3.02-.24Zm-19.26,2.62c-.27-.2-.62-.31-1.16-.24-2.59,2.29-7.55,2.67-11.14,2.62-1.36,1.47-.57,4.61.7,5.48,1.5.45,3.07-.1,4.64,0,.37.02.88.44,1.16.48,3.59.51,5.57-1.25,7.2-3.1.8.19.89-.36,1.62-.24.14-2.8,1.98-3.85,2.32-6.44-1.98-1.33-4.29.3-5.34,1.43Zm52.46,1.67c.3-.49,1.12-.43.93-1.43-.27-.59-1.27-.45-1.62-.95.28.75.26,1.8.7,2.38Zm-20.66.48c-.44,2.92,2.47,5.83,3.71,2.86-1.05-1.74,1.11-5.71-2.09-5.48-.15.53-1.56,2.17-1.63,2.62Zm86.35-1.19c1.18.08,1.93-1.3.46-1.43-.39.23-.6.66-.46,1.43Zm-90.52-.95c-.49.45-1.71.15-2.09.71-.47.95-.19,2.16.46,2.62.71.17.68-.41,1.39-.24.52-.35,1.31-2.67.23-3.1Zm155.05,5.48c-5.3-.83-7.55-4.8-13.23-5.25-.69.48-1.18,1.17-1.62,1.91.35,2.26,1.03,4.19,2.09,5.72,1.82.36,3.59.77,4.41,2.15,3.67.35,6.99,3.83,10.91,1.67.53-2.66-1.11-4.81-2.55-6.2Zm-171.06-4.53c-.43.68-.74,2.45-.23,3.34,1.96.18,2.28-1.32,2.79-2.62-1.04,0-.74-1.32-2.55-.72Zm146,1.67c1.1.17,1.02-.86,1.16-1.67-1.03-.1-.95.94-1.16,1.67Zm-150.64.48c.71-.17.68.41,1.39.24-.19-.67.33-.62.23-1.19-.94-.09-1.62.09-1.62.95Zm154.12,1.91c.76.07,1.9.55,2.55,0,.45-.54.2-1.79,0-2.39-1.92-.31-2.79.47-2.55,2.39Zm-114.2.24c.76.06,1.12-.28,1.16-.95-.13-.34-.36-.58-.7-.71-.36.6-.94.8-.46,1.67Zm-.46,1.43c.59.25,1.03-.8.46-.95,0,.47-.63.3-.46.95Zm106.54-.24v1.43c.6.1.7.71,1.39.71.27-.59.34-1.4.46-2.15-.34-.35-1.52-.35-1.86,0Zm-103.75.95v1.43c.7.31,1.26.77,2.32.72-.01-.41.18-.61.46-.72.12-2.44-1.32-2.17-2.79-1.43Zm-22.28,2.38c1.39.24,1.87-.47,2.32-1.19-.62-2.39-3.49-1.53-2.32,1.19Zm-18.57-.72c.6.1.7.71,1.39.72.25-.88,1.36-1.24.7-2.38-.96.19-1.19-.37-2.09-.24v1.91Zm122.55.24c.57.03,1.12.04,1.39-.24,0-1.35-.69-1.99-2.09-1.91.24.71.18,1.73.7,2.15Zm-128.36-1.19c-.1.82.09,1.34.23,1.91,1.12.35.97-.59,1.86-.48-.14-.89-.44-1.61-1.16-1.91-.04.44-.79.15-.93.48Zm138.8.24c-.04.68-.42.99-.46,1.67.94.38,1.26,1.41,2.55,1.43,1.08-.53,1.29-2.09.7-3.1-1.03-.34-1.69-.13-2.79,0Zm24.37,1.19c.26,1.94-.02,2.51-.23,4.29,1.04.2-.05-1.8.93-1.67.75-.05.98.42,1.86.24.21-.58.54-1.03.46-1.91-.66-.6-.92-1.6-1.86-1.91.03.75-.6.82-1.16.95Zm-29.94.72c.24.31.23.88.46,1.19.97-.11,1.94-.23,2.09-1.19-.79-.3-.88-1.32-1.86-1.43.12.84-.82.59-.7,1.43Zm26-.72c-.77.64-1.12.48-1.39-.48-1.06,1.99,1.96,1.98,1.39.48Zm-126.27.72c.46,0,.29.65.93.48.27-.28.26-.84.23-1.43-.76-.06-1.12.28-1.16.95Zm112.11-.24c-.13.77.16,1.11.23,1.67h1.86c-.16-.88.4-1.02.23-1.91-.85-1.1-1.26.24-2.32.24Zm6.73,1.67c.49.14.66.59,1.39.48.32-.31.23-1.04.23-1.67-.94-.55-1.71.02-1.62,1.19Zm-122.55,2.62c.06-.33.51-.27.7-.48.17-1.13-.26-1.64-.23-2.62-2.44-1.75-3.16,3.2-.46,3.1Zm-26.23,10.73c.05-.19,0-.47.23-.48-.12-2.58-1.94-3.42-3.25-4.77-1.41-2.76-2.36-6-3.95-8.58-1.37-.17-2.26-.38-2.79.72.34,1.72,1.7,2.38,1.39,4.77.58-.04.96.12,1.16.48,1.39,3.19,3.22,5.91,5.34,8.35.72-.06,1.31-.24,1.86-.48Zm-20.89-11.68c-.16,1.68.63,2.37,1.16,3.34,1.78-.23,2.31-4.05,1.62-5.25-.96.6-2.08,1.04-2.79,1.91Zm20.43-.24c.31.34,1.31.34,1.62,0,0-.71.02-1.45-.7-1.43-.41.37-1.24.32-.93,1.43Zm6.04,1.43c1.28.2,1.93-.24,1.86-1.43-.69-.72-1.52-1.3-2.79-1.43-.27,1.55,1.33,1.18.93,2.86Zm12.3-2.15c-.28.74-.54,1.51-.46,2.62.82.76,2.26.85,3.25.24.19-1.46-.48-2.05-.7-3.1-.96-.19-1.19.37-2.09.24Zm146,1.19c-.07.75.33,1.62,1.39,1.91.05-.19.2-.28.46-.24,1.23-2.53-1.66-3.7-1.86-1.67Zm-41.55.48c.31.72.91,1.13,2.09.95-.13-.82-.78-1.11-.7-2.15-1.03-.19-1.48.22-1.39,1.19Zm-136.95,1.67c1.35.68,3-.2,2.55-2.15-1.31-1.46-3.72.35-2.55,2.15Zm26-2.38v1.91c.63.22.99.73,1.62.95.93-.7,2.44-1.75,1.39-3.1-1.35-.04-2.44.09-3.02.24Zm20.66,1.67c.5.52,1.12.92,2.09.95.32-.31.23-1.04.23-1.67-.42-.44-1.17-.54-1.86-.72.32.97-.5.75-.46,1.43Zm-54.55.24c.7-1.87-.49-1.04,0,0h0Zm194.74,12.88c-2.53-4.7,2.75-9.54.7-13.83-.52-.5-1.12.25-2.09,0-.25.46-.16,1.27-1.16.95-.06.81-.37,1.37-.23,2.38-.3.48-1.23.33-1.39.95.34.05.21.58.23.95-.34.12-.58.35-.93.48-.46,2.97-2.74,4.98-2.79,7.63,2.03,1.17,3.51,2.91,6.96,2.62.37-.57.76-1.12.7-2.15Zm-45.03-12.88c.56.83,2.14,1.01,1.86-.72-.58-.48-1.91-.2-1.86.72Zm3.48-.24c0-.31.41-.22.46-.48-.3-.01-.32-.31-.7-.24.04.28-.04.68.23.72Zm26.46,2.86c1.41-.04,2.34-2.52.93-3.34-.46.87-1.52,2.17-.93,3.34Zm-149.48-2.15c-.1,1.53,1.12,1.71,2.09,2.15.29-.59.57-2.87-.23-3.1-.18.76-.81,1.08-1.86.95Zm141.36,2.15c-1.86-.08-3.11-1.6-4.64-2.15-.34-.12-.97.11-1.39,0-.41-.1-.63-.45-.93-.48-3.17-.29-5.42,2.15-8.59,2.38-.4.86-1.32,1.19-1.86,1.91-.74-.73-.97.4-1.86.24-.64,1.01-1.4,1.9-2.32,2.62-.34,2.85-3.13,4.39-2.09,7.87,2.77-.09,2.94-2.87,4.87-3.82,2.46-.62,4.47-2.04,7.2-1.91,1.32.06,2.75.4,4.18.95.68.99.79,2.16.23,3.34-2.18,1.8-6.45-1.23-7.43,1.91.69,2.47,3.47,2.79,5.34,4.05h2.55c1.66-.76,2.28-2.58,4.64-2.62,1.55-1.45,1.88-3.67,3.95-4.29.99-.3,1.72.34,2.79.24,1.49-.14,2.33-1.1,3.71-1.43.87-.2,1.09.79,1.62.24.95-1.91-1.25-2.49-1.16-4.29-2.32.48-2.67-2.93-4.41-3.82-1.82.51-2.6-1.02-3.95-1.67-.02.37.03.83-.46.72Zm-31.1-2.15c-.25.64-.04,1.22.23,1.91h1.16c.23-.64.53-2.13-.46-2.15-.04.35-.56.22-.93.24Zm45.26.24c0-.24-.41-.3-.46,0,.05.29.26.15.46,0Zm-121.16,2.15c0-.4.75-1.74-.23-1.67.2.85-.67,1.43.23,1.67Zm135.32-1.43c-.16.88.37,1.05,1.16.95.19-1.16-.41-1.34-1.16-.95Zm-139.73,1.91c.53-.17,1.19-.21,1.62-.48.11-.75-.33-.93-.46-1.43h-.93c-.04.7-.62,1.48-.23,1.91Zm126.5-.71c-.56.8.78-.58,0,0h0Zm-161.55,2.38c.79.49,1.24,1.1,2.32.72.48-.38.54-1.2.46-2.15-1.46-.79-2.96-.93-2.79,1.43Zm33.42,2.86c-1.62-1.51-3.84-2.42-5.57-3.81-1.9-.04-3.8.25-5.57,0-.62-.09-1.14-.6-1.62-.72-2.46-.58-4.36.38-6.96.24-.94,1.48-2.96.68-4.41,1.19-1.5.53-1.96,1.96-3.02,2.62-.85-.07-1.51.04-2.09.24-.89.82-.74,2.65-.23,3.82,1.22-.22,1.7.1,2.55-.24,2.44,1.39,4.71,2.95,6.96,4.53.88-.18,1.11.29,1.86.24,1.43,2.11,4.39,2.64,7.2,3.34.95-.66,3.36-.94,4.41-.72.95-.9,1.89-2.49.93-4.05-1.5-.83-2.4.39-3.25.95-3.95.36-2.75-4.54-.46-5.25.65.36,1.79.23,2.55.48,1.17,2.22,4.25,2.47,5.8,4.29.56,1.42,1.46,2.47,2.79,3.1.83-4.48-2.11-6.83-1.86-10.25Zm87.27-4.77c-1.16.72-1.23,3.33,1.16,2.86.39-1.05-.07-2.61-1.16-2.86Zm37.37,3.34c2.22.3,3.32-.57,3.25-2.62-.92-.94-2.23,0-3.25-.72-.44,1.23-.44,2.11,0,3.34Zm-171.3.95c1.12.06,1.04-1.37.7-2.15-.39,0-.77,0-1.16,0-.07.95-.01,1.76.46,2.15Zm-8.59,2.38c.51.27.77.8,1.39.95,1.84-.87,1.84-4.85-.46-5.25-.07,1.68-1.06,2.41-.93,4.29Zm-5.34-1.19c-.13-.42.28-1.4-.23-1.43-.21.61-.37,1.15.23,1.43Zm63.6-.48c.48.06.06,1.05.46,1.19.43-.03.78-.16.93-.48-.52-.1.04-1.31-.7-1.19,0,.39-.64.13-.7.48Zm139.96,1.19c.22-.47.75-1.14.23-1.67h-.93c-.09.89-.04,1.63.7,1.67Zm-5.8,1.91c.97.13.92-.8,1.16-1.43h-.93c.17.73-.4.7-.23,1.43Zm-179.65-1.19c-1.77-.36-3.34,2.21-.93,2.15-.71-1.16,1.62.1.93-2.15Zm-7.43,1.43v1.43c.71-.17.68.41,1.39.24.24-.55.8-.77.7-1.67-.5-.72-1.43-.37-2.09,0Zm190.79.95v.95c.32.63.85,1.03,1.86.95.77-.68.56-1.06.46-2.38-1.02-.1-1.79.07-2.32.48Zm-160.85,10.01c-.11-3.91-4.55-6.15-7.66-7.39-.93-.79-1.35-2.11-2.32-2.86-1.19.86-4.54.67-6.5,1.43-.64-.22-1.14-.58-1.39-1.19-.39,4.28-4.78,6.49-2.79,11.68-.9,1.06.27,4.25-1.39,4.53h-.93c-.77-2.65-1.35-7.93-.93-11.68-1.64-.5-2.47.6-4.18.48-1.28,1.07-2.32,2.38-3.25,3.81-.31.4-1.32.08-1.62.48-.21.95-1.2,1.75-1.62,2.86-.45,1.19-.34,2.89-.7,4.53-.2.91-.83,1.79-.93,2.62-.14,1.28.23,2.55.23,3.81,0,2.77-.39,5.53,2.09,6.92,1.11,3.16.31,8.27,4.18,8.58.27,1.55,1.81,1.8,2.55,2.86,2.04-.21,1.91.39,3.25.95,2.16,0,3.54.82,4.64,1.91,0,1.84.07,3.73-.23,5.25-1.22.89-2.05,2.18-3.48,2.86-.28,3.21-3.32,3.59-3.95,6.44-.92.57-1.34,1.64-2.55,1.91-.34,2.08-.43,3.07-.46,5.25-.62,1.11-1.52,1.61-1.62,2.86-.12,1.35,1.14,3.08.93,4.77-.09.69-.66.77-.46,1.67-.09,1.04.66,1.23.7,2.15-2.53,4.3.74,9.11,1.16,13.35,1.35,1.16,1.8,3.23,2.79,4.77,2.78,1.33,4.47,4.88,8.36,4.29-.3-2-2-2.56-3.48-3.34-1.64-3.88-1.5-7.96-1.16-12.64,2.8-3.27,5.88-.68,7.2,1.91.04-.35.56-.22.93-.24.93-1.27.78-3.65,1.39-5.25-.54-1.82-.22-4.32-.7-6.68.52-1.31.68-3.44.23-5.01-.15-.54-.68-.87-.93-1.43-.39-.9-.28-1.36-.46-2.15-1.37-.74-3.94-.24-4.18-2.15,1.35-4.34,5.62-5.67,8.82-8.11.04.35.56.22.93.24,2.19-1.94,5.94-4.08,9.75-2.86-2.55,1.75-4.25,4.37-7.2,5.72-.16-.33-1.85-1.03-1.86,0,.44,1.08,1.61.23,2.32.71.94,2.49.43,5.96,3.02,7.15.15-.32.5-.44.93-.48.3-.88.52-1.85.46-3.1,1.41-2.44,2.69-5.03,5.11-6.44,2.37-.34,3.68-1.78,5.34-2.86-.35-1.48.65-1.55.46-2.86-.36-.82-1.55-.79-2.09-1.43-4.66-.23-7.69-1.48-11.84-.72-.48-.46-1.29-.58-1.86-.95-3.25,1.22-6.03,1.97-9.98,1.43-.85-.8-.16-3.17-.7-4.29,1.39-1.59,2.93-3.03,3.25-5.72-.82.2-1.93,1.72-3.48,1.43-.82.43-.04,2.5-1.16,2.62-2.9-.23-4.17-2.89-5.8-4.53-1.36-1.37-3.17-2.04-4.41-3.58-.67.27-.16,1.75-.93,1.91-.07-.87.04-1.55.23-2.15-.75-1.34-1.64-2.66-1.86-4.53-.26-2.19.46-4.39-.23-5.96.48-.07.22-.89.7-.95,4.98-1.98,4.39,3.73,6.96,5.01,1.78-.16,2.28-1.63,3.02-2.86.2-2.34-.53-5.63,1.39-6.2,1.93.24,2.64,1.74,3.71,2.86,2.62.86,5.25.8,7.66.95,2.06-1.56.48-4.01.46-6.68.8-1.62,1.66-1.81,3.25-2.38,1.53.14,2.37,1.85,3.95,1.19.27-1.57.96-3.23.93-4.53Zm-35.98-4.29c1.55-1.47.58-4.9-2.55-4.29-.24,2.02.77,3.68,2.55,4.29Zm149.94-3.1c-.25.62-.56,1.17-.46,2.15.5.44,1.24.64,2.09.72-.01-.41.18-.61.46-.72,0-1.44-.24-2.76-.7-3.1-.16.62-.35,1.23-1.39.95Zm23.91-.48c-1.8,1.25-3.43,2.68-5.8,3.34-1.45,2.81-2.55,4.88-2.55,8.82.84.89.36,3.12,1.62,3.58,1.83-.98,3.57-2.06,5.57-2.86,2.22.1,4.95.32,5.34,2.38.63,3.35-3.15,5.97-4.64,7.87.81.59,1.6,1.22,2.55,1.67,2.59.06,4.18-.4,6.27-.24v-1.19c1.46.71,2.52-.86,3.95-.95,1.78-3.48,3.49-8.08,3.25-14.31-1.2-1.15-1.89-2.83-2.55-4.53-1.78-1.59-4.58-2.13-6.04-4.05-2.59.59-4.19-.47-6.96.48Zm19.27,1.43c.29,1.13.42,2.43.93,3.34-.06-.86-.06-1.65.93-1.43v-1.91c-.85.18-1.29-.59-1.86,0Zm5.34,3.81c.81.08.97-1.12.7-1.43h-.7v1.43Zm-146.93,2.15c.93-.71,2.62-.65,2.55-2.38-.62-.23-1.19-.53-1.86-.72-.71.9-.73,2.29-.7,3.1Zm103.52,1.67c.61-.41,1.18-.86,1.16-1.91-.44-.74-1.02-1.34-2.32-1.19-.55,1.27-.09,2.95,1.16,3.1Zm37.14-2.38c-.06,1.61.74,3.33.7,5.01-.09,3.79-2.43,7.22-3.02,10.49-1.28,1.55-2.8,2.84-3.25,5.25.92,2,1.2,4.65,3.95,4.77,2.38-1.07-.34-5.92,2.09-6.92,1.03-.19,1.39.32,2.32.24,2.45,3.2.2,9.84-1.39,12.64.5-.04.11.85.23,1.19-1.15.01-.6,1.77-1.16,2.38-.8-.19-.89.35-1.62.24-.71,1.62-4.41,2.19-2.79,4.05.63.4,2.28-.19,3.25-.24,1.64-2.28,3.96-3.88,5.11-6.68.74.2.72-.38,1.16-.48.61-1.66,1.84-3.48,1.39-5.48.27-.6.92-.8.93-1.67.57-4,.03-8.51,0-12.64-.62-2.7-1.52-5.12-2.32-7.63-1.71-1.74-3.13-3.78-5.11-5.25-.02.38-.59.19-.46.71Zm-144.6,3.34c.62.47,1.72.46,2.32.95,1.22-.57.41-2.02,0-2.86-2.07-.63-2.4.33-2.32,1.91Zm111.64.48c1.31,1.21,3.9-.17,2.79-2.15-1.7-.08-2.88.38-2.79,2.15Zm-118.38-1.19c-.08,1.04.64,1.25,1.39,1.43.21-.42.65-.61.46-1.43-.34-.35-1.52-.35-1.86,0Zm13.69,1.67c.13-.58.9-.51.7-1.43-.3-.01-.32-.31-.7-.24-.22.2-.5,1.52,0,1.67Zm144.84.48c.68.35.68-1.07,0-.72v.72Zm-141.59.48c.56,1.23.6-.82,0,0h0Zm93.31.95c-.02,1.05.78.98,0,1.67.55,0,1.11,1.22,1.62.48-.65-.45.04-1.53.23-1.91-.31-.43-1.34-.74-1.86-.24Zm-96.33.72c.58.04,1.13.04,1.16-.48-.44.11-1.4-.32-1.16.48Zm101.2-.24c.07,1.15.57,1.32.23,2.39.3.33,1.01.24,1.62.24.3-.96.75-2.07,0-2.86-.75-.05-.98.42-1.86.24Zm-110.25,2.15c.23.8,1,1.03,1.16,1.91,1.63.08,1.59-1.54,1.86-2.86-.86-1.15-3.17-.89-3.02.95Zm-14.16,1.91c2.18,3.48,4.05,7.28,7.2,9.78.25.53.38,1.19.7,1.67,3.7,1.45,4.08,6.3,7.89,7.63.66-.36.8-1.25.7-2.39-.52-1.06-1.04-1.04-.93-2.38-.77-1.11-2.09-1.67-2.32-3.34-1.99-.66-2.88-2.45-4.18-3.81-1.93-4.06-5.32-6.62-8.12-9.78-.05.29-.26.15-.46,0-.6.42-.47,1.58-.46,2.62Zm9.52-2.15c-.19,1.15.21,1.69.46,2.39,1.29-.31,1.92-1.43,1.16-2.62-.62,0-1.33-.09-1.62.24Zm11.37.95c.44-.46-.14-.43,0-1.19h-.7c-.05.68-.03,1.3.7,1.19Zm109.56,2.15c.81.19.89-.36,1.62-.24v-1.91c-1.71-1.57-3.12.87-1.62,2.15Zm-9.75-1.91c-.26.02-.36-.35-.46,0,0,.24.41.3.46,0Zm18.8,0c-1.29,2.49-4.05,3.47-5.57,5.72-.58-.57-.78.6-1.62.48-1.72,3.08-5.95,3.58-7.89,6.44.42,5.7,5.25-.16,8.59,0,.88-1,2.18-1.57,2.55-3.1,1.9-.75,3.02-2.3,4.41-3.58v-1.43c1.57-.77,2.44-2.26,2.79-4.29-.69-.93-2.08-.2-3.25-.24Zm-17.87,4.05h1.16c.32-.31.23-1.04.23-1.67-1.19-.19-1.6.42-1.39,1.67Zm3.48-.95c.05.75-.16,1.75.23,2.15,1-.09,1.62-.56,2.55-.72-.48-.78-.67-1.85-1.62-2.15.19,1.32-.36.77-1.16.72Zm-112.57.48c-.17,1.76.26,2.92,1.86,2.86.78-.71,1.56-1.42,1.39-3.1-.85-1.32-1.85.15-3.25.24Zm5.11,2.86c.5.52,1.2.83,2.09.95.24-.55.8-.77.7-1.67-.49-1.6-2.9-.96-2.79.71Zm-7.66-.71c.27.94.27-.94,0,0h0Zm-23.67,4.05c.6-.18.81-.76.7-1.67-.25-.69-.95-.93-1.62-1.19.04,1.23-.27,2.82.93,2.86Zm139.27-1.91c.51.1,1.28-.71.7-.95.07.63-.9.19-.7.95Zm-126.96,1.19c.75.86,1.45.3,2.32.95-.2-.92.57-.85.7-1.43-.29-.1-.47-.31-.46-.72-.92.08-1.71.01-2.09-.48-.38.32-.08,1.35-.46,1.67Zm-6.04.72c.27.27.82.27,1.39.24.23-.64.48-1.26.46-2.15-1.47-.24-1.97.52-1.86,1.91Zm129.29-.48c1.03.04,1.47.43,1.62-.71-.54-.08-.87-.38-1.62-.24v.95Zm-107.93.95c.21-.04.12-1.32-.23-.48-.06.14.09.5.23.48Zm-11.61.24c-.74.8-.54,2.76.23,3.34,1.02.1,1.79-.06,2.32-.48v-1.43c-.64-.69-1.32-1.35-2.55-1.43Zm136.02.95c-.33,2.48,3.33,1.84,3.02-.24-.41-.04-1.5-.42-2.55-.48-.11.28-.25.54-.46.72Zm-150.64.95c-.49.96-.1,2.06.93,2.15.98-.35,1.65-1.01,1.62-2.38-.65.29-1.6.26-2.55.24Zm-9.52,1.91c1.17.17,1.53-.49,1.39-1.67-1.41-.46-2.08.73-1.39,1.67Zm17.64-1.43c-.47.88-.02,1.6,0,2.62,1.08.08,1.83-.19,2.55-.48v-1.67c-.68-.33-1.39-.64-2.55-.48Zm149.25.24c.2,1.26-.57.03-.7.95.43.9,1.39,1.28,2.32,1.67.13-.5.58-.68.46-1.43-.89-.21-.56-.56-.46-1.43-.73-.12-.82.43-1.62.24Zm5.57.48c.4.78.93,1.43,1.62,1.91.09-.62.69-.72.7-1.43-.55-.52-1.42-.98-2.32-.48Zm-16.71,1.67c.04,1.39.87,1.96,1.39,2.86.62-.23,1.19-.53,1.86-.72-.07-.87.04-1.55.23-2.15-1.03-1.34-2.34-.79-3.48,0Zm19.5.95c.53-.19.23-1.48-.46-1.19.1.45-.32,1.44.46,1.19Zm-171.3,1.67c1.19.35,4.31.65,3.95-1.91-1.16-.85-4.13-.14-3.95,1.91Zm24.14.24c.86.07.83,1.05,2.09.72,2.06-2.29-3.04-5.3-2.09-.72Zm37.83-.72c.14-1.17-.22-1.84-1.39-1.67-.38.64-.27,1.97,1.39,1.67Zm26.46.72c.88.11,1.45-.1,1.63-.72-.4-.62-.92-1.12-1.86-1.19.03.69-.13,1.56.23,1.91Zm-32.26.24c0-.4,0-.79,0-1.19h-.7c-.45.46-.24,1.46.7,1.19Zm16.71,38.15c-.41-.06-.53-.41-.46-.95-.75.14-1.08-.16-1.62-.24-4.03-3.96-8.36-7.62-12.07-11.92-.48-.52-.75.21-1.16-.24-.77-2.22-2.45-3.52-3.95-5.01-.84-1.36-1.71-2.69-2.55-4.05-1.58-.6-1.32-3.1-3.48-3.1-1.21,2.96,2.08,4.5,1.39,6.91-1.59.15-1.6-.7-3.02-.24-.89,2.08-.86,3.54-.7,6.2-1.2,1.02-1.5,4.15-.93,6.2.55,0,.68.41,1.39.24.83-.87.09-1.9.23-3.34,1.4-1.45.69-3.59,1.39-5.72,1.36.03,2.28.52,2.79,1.43,3.07.47,5.27.74,6.03,3.82,2.59,1.55,4.51,3.79,6.96,5.48.08.56.28.99.46,1.43,1.4.79,3.3,1.06,3.25,3.34-.62.8-1.66,1.16-3.02,1.19-.41,1.75-.36,3.31,0,4.77-.58,1.24-2.17,1.43-3.95,1.43-.71.94-1.38,1.92-2.32,2.62-2.55.56-3.36,2.9-5.57,3.82-.85-.08-1.06-.82-1.39-1.43,1.21-2.25,1.64-5.31,1.62-8.82-.93-1.11-1.79-2.29-1.86-4.29.45-1.17,1.94-2.52.23-3.34-.04.28-.42.2-.7.24-.72.61-.46,2.23-1.16,2.86-1.5.71-2.62-.51-3.48-1.19-1.34.4-4.12.22-3.25,2.15,1.21.08,1.16-.17,2.32.48,1.26.71,2.16,2.07,3.02,3.82,1.2,2.44,1.1,3.94.23,6.44.82,1.07-.25,1.2,0,2.86-1.63,1.35-1.49,4.51-3.02,5.96-1.39.64-2.92,1.13-3.95,2.15-.2,1.08.54,1.19.7,1.91,1.5.13,1.57.07,2.79-.24,2.62-.04,4.79,1.28,7.2.71.57.53,1.66.52,2.79.48,1.8.66,3.02,1.5,4.87,2.62.59.36,1.3.57,1.86.95.81.56,1.11,1.37,2.09,1.91.44.24,1.06.02,1.62.24.17.07.3.65.46.72.26.11.67-.12.93,0,.66.32.69.63,1.39.72,1.53.19,2.45-.52,3.95-.48.35-3.38-3.34-2.6-2.79-6.2.45-.34.93-.63,1.62-.72,2.07.89,4.37,1.55,6.96,1.91,1.79,1.27,3.35,2.76,4.87,4.29-.19.67.33.62.23,1.19.99.09.96,1.23,2.09,1.19.64-1.94-.4-3.55-.7-5.25-2.45-2.49-3.51-6.41-8.12-6.68-.76-.57-2.08-.56-2.79-1.19-2.11.02-3.45-.74-5.8-.48-.64-.14-.97-.59-1.62-.71-3.4-.04-5.42-.04-8.82,0-.62.55-3.39.9-3.95,0,.39-1.66,2.33-1.74,2.79-3.34,2.95.2,5.42-2.03,7.89-3.1.92-1.52,2.33-2.54,3.95-3.34.74-.14.72.45,1.16,0,3.87-2.54-2.19-5.13-1.16-8.35,1.14-.44,1.41.66,2.09,1.19,1.41,1.11,2.88,2.16,3.48,4.29,1.18.45,1.78,1.51,3.25,1.67,1.31,1.68,2.78,3.18,5.34,3.58,1.13.99,1.61,2.64,3.71,2.62-.1.5.16.63.23.95,3.49,1.18,4.79,4.62,8.36,5.72.1.45.5.6.46,1.19,3.14.59,5.55,1.93,7.19,4.05,1.95.46,3.83.99,5.34,1.91.57-.93,2.11-.85,2.55-1.91.28-1.89-.94-3.41-1.16-5.25-.37-3.12.28-6.53.93-9.54,1.23-.96,2.17-2.23,3.48-3.1,1.87-.36,5.6.29,7.89.95-.37-2.72-3.01-3.1-3.94-5.25-2.65-.25-4-.6-6.73-.48-2.03,1.5-5.22,1.79-6.5,4.05.47,1.32.2,2.76-.46,3.58.44,2.59,1.57,5.11.23,7.15-2.06-.19-3.21-1.31-3.25-3.58-1.47-.88-1.95-2.76-3.02-4.05.26-1.78-.95-2.04-1.16-3.34-3.18-1.82-4.06-6-6.27-8.82-2.73-4.34-1.83-12.21.46-16.45.02-.96-.05-1.89.23-2.62.3-.81,1.2-1.07,1.62-1.67.19-.27.02-.84.23-1.19.16-.26.84-.32.93-.48.25-.45.43-1.31.7-1.91.26-.57.62-1.25.7-1.91,2.52-1.31,3.37-4.32,5.57-5.96,1.15-.32,1.91-1.06,2.79-1.67,1.6.41,4.24-.06,4.41-1.91-2.99-4.31-8.24,2.47-10.91,0,.37,2.06-2.29,2.83-3.95,3.58-1.23,1.43-1.18,3.69-2.09,5.25-.71,1.23-2.24,1.62-2.79,2.86-.27,1.37.13,2.48,0,4.29-1.41,1.18-1.79,3.4-2.55,5.25-2.31-.64-1-5.02-2.32-6.68.41-1.14-.13-1.06-.23-2.15-.1-.57.42-.52.23-1.19-.29-2.57-2.29-3.37-2.32-6.2,1.74-1.46,1.83-4.38.93-6.91h-1.39c-.28.51-.28,1.3-.93,1.43-.16,1.83-.38,3.58-.93,5.01.27,2.69,2.41,7.02-.23,8.58-.81-2.41-2.48-3.28-4.64-5.01-2.15-1.71-2.94-2.92-6.5-3.1-.19-.92-.98-1.22-1.39-1.91-2.6-.3-4.18-1.11-6.5-1.19-.2.67-1.21.51-1.62.95-1.61.01-2.58.68-3.71,1.19.55,1.77,4.16,1.13,5.57.71.79,1.1,2.38,1.37,4.18,1.43,1.38,1.04,2.35,2.51,4.64,2.62.69.8,1.31,1.68,2.55,1.91.81,2.03,2.66,2.99,4.41,4.05.31,1.9,2.16,2.23,2.32,4.29.73-.26.61-.11,1.16.24,2.63,4.05,5.34,8.03,6.5,13.59,2.08,1.25,2.36,2.99,2.79,5.72.76.65,1.36,1.46,1.86,2.38.01,2.53,1.32,3.73,2.55,5.01,1.16,4.37,4.46,6.55,6.27,10.25-3.51.6-4.96-3.35-7.2-5.01-4.44-.44-5.27-4.6-9.28-5.48-1.13-1.7-2.78-2.86-4.41-4.05-.78-1.74-2.69-2.32-3.48-4.05l.12-.12-.12-.12h.23v-.48c-.27-.04-.41.05-.46.24h-.23v.24Zm-64.76-38.15c.22.44-.7.8,0,.95.35-.94.27.04.93,0,.62,0,.62-1.2,0-1.19-.04.35-.56.22-.93.24Zm10.68,3.81c-.38,1.12-1.87,1.1-2.09,2.39.14,1.21,1.71.95,2.79,1.19,1.34-1.09.82-4.08,1.39-5.96-.48-.54-1.04-1-1.86-1.19.07,1.35-.41,2.12-.23,3.58Zm142.28-3.1c-.35,0-.95-.89-1.16-.24.24.4.9,1.19,1.16.24Zm-15.78.72c.7.37.7-1.32,0-.95-.02.65.39.48,0,.95Zm-132.07,2.15c.6.1.7.71,1.39.72.55-.55,1.08-1.11,1.39-1.91-.52-2.15-3.54-2.08-2.79,1.19Zm151.8-.95c.33.69.98,1.06,2.09.95.1-.3.3-.49.7-.48-.2-2.04-2.2-2.25-2.79-.48Zm6.73-.24c.3.33,1.1.33,1.39,0-.1-.46-.08-1.03-.7-.95-.09.46-.9.19-.7.95Zm-64.06,2.39c.78.76,1.93.79,2.79,0-.17-1.57-.82-2.66-2.09-3.1h-.46c-.34.77-.22,2-.23,3.1Zm69.4-1.67c.73.11,1.04-.21.93-.95-.14-.14-1.1-.56-1.16,0,.34.04.21.58.23.95Zm-29.01,1.67c.22-.43.57-1.11,1.16-.48.14-1.41-.48-2.05-1.86-1.91-.44.68-.42,2.54.7,2.39Zm-120.47-1.19c-.14,1.26.21,2.01,1.16,2.15.92-.4,1.76-.9,1.86-2.15-.7-.7-2.29-.55-3.02,0Zm126.73-.24c-.31.57.13,2.4,1.16,2.38,1.11-.05,1.41-1.39.93-2.38-.38-.36-1.71-.36-2.09,0Zm-166.42,3.1c.98-.51,1.35-.19,2.09-.95-.26-1.25-1.42-1.56-2.55-1.91-.56.87-.18,2.47.46,2.86Zm35.75-1.67c-.14,1.26.29,1.93,1.16,2.15.46,0,.29-.65.93-.48-.17-.77-.42-1.48-.7-2.15-.87-.26-.66.59-1.39.48Zm62.9.71h.46c.26-.34.25-.58-.23-.71-.01.3-.3.33-.23.71Zm62.21-.48c.27.94.27-.94,0,0h0Zm36.44.48c.03-.28.41-.54,0-.71-.03.28-.41.54,0,.71Zm-26.23.95c.49.48,2.07.74,2.79.24v-1.19c-1.06-1.02-2.33,0-2.79.95Zm-149.71,1.91c.83-.18,1.01-1.03.93-2.15-1.78-.89-2.28,2.03-.93,2.15Zm22.98.24h1.16c1.22-2.27-2.43-2.31-1.16,0Zm139.5,0c.62-.75-.08-1.68-.7-1.91-.85.37-.53,2.24.7,1.91Zm-180.35,1.19h1.16c.7-.93.23-2.53-.93-2.86-.36.62-.79,2.05-.23,2.86Zm61.74-.95c-.07,1.35.34,2.19,1.16,2.62.66-.52,1.78-.56,1.86-1.67-.5-1.16-1.72-1.87-3.02-.95Zm-62.67.72c-.05-.42.23-1.19-.46-.95-.06.54.06.9.46.95Zm58.26,1.19c1.31-.02,1.25-1.33.7-2.15h-.93c.14,1.18-.44,1.62.23,2.15Zm-52.22.48c.87-.02.85.87,1.62.95.31-.07.44-.34.93-.24.87-3.02-3.22-4.4-2.55-.72Zm167.12-1.43h.46c.36-.59-.79-.7-.7-.24.14.01.27.04.23.24Zm-51.06,2.62c.69-1.28-.32-2.63-1.39-2.86-.67,1.27-.44,2.92,1.39,2.86Zm66.85,45.31c2.91-3.48,3.15-8.49,4.41-13.35-.68-1.61-.43-4.17-.46-6.44-1.62-3.19-2.56-7.06-3.71-10.73-.61-.81-1.56-1.26-2.09-2.15-1.41-4.51-5.27-6.5-8.12-9.54-4.19-1.66-7.72-3.99-13-4.53-.26-.53-1.02-.54-1.62-.71-2.43.64-4.76-.94-6.73,0-.11,1.4.78,1.7,1.39,2.86,1.38.18,2.62.49,4.18.48,1.84,1.45,4.08,2.48,5.34,4.53,1.04,3.47-.56,6.63-.93,10.02,4.23-.75,5.37-5.09,5.34-9.54.96-.19,1.19.37,2.09.24,1.2,2.66,4,3.68,5.8,5.72.34,1.4,1.42,2.04,1.16,4.05-1.13,2.52-4.65,3.49-4.87,6.44-.13,1.77,1.66,3.16.7,5.48,1.63,1.31,1.63,5.41,4.87,4.29v-4.05c1.07-.43,1.63-.9,3.02-.48,1.97,2.21,4.17,4.59,4.18,8.11,0,3.21-2.69,6.46-1.62,9.3h.46l-.12.12.12.12c-.24.67.36,1.66.7.95-.32-.07-.19-.6-.23-.95v-.24h-.23Zm-81.7-47.21c-.03,1.3.43,2.1,1.86,1.91.3-.43-.21-1.2.23-1.91-.58-.56-1.37,0-2.09,0Zm6.5,9.78c-2.23,1.76-3.84,4.16-7.43,4.53-.57.82-2.02,1.81-3.02,1.43-.93,1.03-1.94,1.99-3.25,2.62-.35,1.06-.59,1.81,0,2.86,2.01-.16,2.89-1.48,5.11-1.43.94-1.5,3.51-1.32,4.41-2.86,1.04.42,2.08-1.2,3.02-1.67.13-.35-.27-1.23.23-1.19.7.33.83-.11,1.86,0,2.3-.59,3.85-2.89,6.27-3.58.93-1.44,4.05-2.78,2.09-5.01-1.58.22-3.65,2.2-4.64.24.03-1.24.43-2.1.46-3.34-.16-1.03-1.37-.98-1.16-2.38-1.09.34-2.53-.37-3.02.95.02.46.91-.41.93.48-.05,2.52,1.14,3.75.7,6.68-1.26.05-.88,1.8-2.32,1.67l.12-.12-.12-.12c-.07-.39.22-.41.23-.71-.53-.07-.87.06-.93.48.2-.04.22.09.23.24v.24h.23Zm-42.94-7.87c.8-.89-.64-.92-1.16-1.19-.11.9.71.86,1.16,1.19Zm122.55,0c.33.66-.06,1.33.46,2.15,2.3.36,2.15-1.58,1.62-3.1-1.11-.11-1.76.26-2.09.95Zm-197.53,2.62c.39.32.78.63,1.62.48.5-.69.19-2.14-.23-2.62-1.3-.14-1.45.89-1.39,2.15Zm72.42-1.43c-1.2.83-.92-.64-1.86-.72-2.86,2.41,3.25,4.76,1.86.72Zm119.3-.48c-.81,1.4.33,2.62,1.86,2.38.16-.71.69-1.04.46-2.15-.59-.25-1.6-.86-2.32-.24Zm-145.07,3.1c.22-.35.46-1.89.23-1.91-.19.38-.88,1.46-.23,1.91Zm32.5.95c.81.89,1.79.16,2.32,1.19.96-.82.36-1.84.7-3.1-1.08-1.48-3.75-.6-3.02,1.91Zm37.6.72c.49-.76.66-2.17,0-2.86-3.04-.72-1.68,3.03,0,2.86Zm-110.02.24c.79.14,1.22.65,2.09.71,1.14-1.61.06-3.67-1.86-3.58-.31.72-.24,1.82-.23,2.86Zm-4.87-1.43c.23,0,.28.19.46.24,0-.24.19-.28.23-.48-.23,0-.28-.19-.46-.24,0,.24-.19.28-.23.48Zm106.54,1.43c.53-.11,1.05-1.44.46-1.91-.2.7-.58-.31-1.16,0-.49.62-.26,2.03.7,1.91Zm61.51,5.25c.34-.84.6-1.76.46-3.1-1.49-1.34-3.21-2.43-4.64-3.81-.78,2.77,1.13,6.52,4.18,6.91Zm28.08-2.15c1.39.08,2.16-.48,2.09-1.91-.58-.71-1.74-.59-2.32-.72.22-.2.5-1.52,0-1.67-1.3.95-.03,2.89.23,4.29Zm-123.95-1.91c.93.95,1.48.44,2.55,0v-1.67c-1.59-.21-2.51.28-2.55,1.67Zm-74.51-1.19c-.78-.72-.7.88,0,0h0Zm1.86,2.15c.66-.62.06-1.96-.7-1.91-.38.51-.34,2.12.7,1.91Zm82.86-.48c.23.63.38,1.36,1.16,1.43.92-.05,1.43-2.37.46-2.86-.73.28-.66,1.39-1.62,1.43Zm25.76.24c.4.31.91.49.93,1.19,1.2-.04,2.74.27,2.79-.95-.64-.79-3.03-1.6-3.71-.24Zm-110.95,2.62c-.05-.42.23-1.19-.46-.95.03.44.15.8.46.95Zm41.08,1.67c.72.02.66-.75,1.62-.48.15-1.03-.4-1.34-.7-1.91h-1.16c-.2.33-.04,1.8.23,2.38Zm38.3,0c1.51.2,2.08-.57,2.55-1.43-.35-.83-1.59-.75-2.79-.71-.31,1.04-.13,1.33.23,2.15Zm26.23-.48c1.34.19,2.1-.23,1.86-1.67-1.47-.39-2.74.4-1.86,1.67Zm24.14-.24c.4.02.72-.05.93-.24-.03-.61-.34-.92-.93-.95v1.19Zm-38.99,2.62c.56.1.5-.44,1.16-.24-.14-.97-.37-1.85-1.39-1.91-.47.55-.24,1.83.23,2.15Zm-48.74-1.43c.27.94.27-.94,0,0h0Zm139.5,3.34c.58.04.72-.37,1.16-.48.24-1.28-.86-1.19-.7-2.38-.03-.24,1-.48.23-.72-.06.61-.4-.33-.93,0-.29.9-.5,3.02.23,3.58Zm-56.87-3.1v.95c.53.15,1.4.47,1.86,0v-.95c-.71-.43-1.42-.11-1.86,0Zm-122.09,3.1c.36-.29.79-1.71.23-2.15-.47.13-1.34,1.93-.23,2.15Zm81.7,1.43c2.4.48,2.33-2.15,1.62-3.58-.12,1.13-1.29-.49-1.62.24.22.42-1.24,2.51,0,3.34Zm114.66-2.39c.68.26.87,1.01,1.86.95-.09-.57.42-.52.23-1.19-.6-.84-1.49-.21-2.09.24Zm-172.92,1.67c.73.12.82-.43,1.62-.24.57-2.67-2.89-1.55-1.62.24Zm54.55-1.43h.46v-.48h-.46v.48Zm39.46,4.29c2.04-.05,1.55-2.2,1.16-3.81-2.21-1.23-1.82,2.79-1.16,3.81Zm56.63-3.1h.46c-.02-.65.38-.48,0-.95h-.46c-.39.47.02.3,0,.95Zm-112.81.48c0,.43-.62,1.39,0,1.67.26-.48,1.25.29,2.09,0,.05-.18,0-.47.23-.48-.12-.67-.56-1.01-.7-1.67-1.02-.31-.95,1.14-1.62.48Zm112.57,1.67c.97.63,2.41.03,2.09-1.43-1.15-.63-1.84.43-2.09,1.43Zm-137.41.24c.89.49,1.74.01,1.86-.95-.65-.2-.95-.77-1.86-.71v1.67Zm88.67.95c.07-1.11,0-2.06-.46-2.62-3.04-.09-3.05,3.31.46,2.62Zm-35.05.24c.98-.03,1.33-.71,1.86-1.19-.74-.03-.69-.88-1.39-.95.03.89-.92,1.56-.46,2.15Zm21.12-.72c-.35,1.35.14,1.32.7,2.15.83-.02,1.34-.37,2.09-.48.12-1.08-.47-1.43-.7-2.15-1.15-.31-1.14.58-2.09.48Zm-85.88.48c.19.67-.33.62-.23,1.19.63.63.9,1.62,2.09,1.67,1.26-.39,1.43-2.2.46-3.1-1.17.02-1.75.11-2.32.24Zm42.24,2.15c1.29-.2,1.71-.82,1.39-2.15-.34-.37-1.19-.21-1.86-.24-.04.99-.08,1.99.46,2.39Zm16.71-1.67c.19.73.85,1.81.23,2.62,2,.7,2.87-1.17,3.71-2.38-1.43-.32-2.33-.61-3.95-.24Zm4.18,5.01c1.24,4.87,3.85-1.12,6.5-.72-.13-.77.16-1.11.23-1.67-1.03.27-.83-.73-1.16-1.19-3.5-.49-2.82,3.3-5.57,3.58Zm-49.44-3.1c-.56.8.78-.58,0,0h0Zm67.08.95c0,1.35,1.22,1.45,2.32,1.67-.41-.85.56-1.2.23-2.62-1.21-.23-2.35-.36-2.55.95Zm89.83.24c.31.31.86.31.93-.24-.31-.31-.86-.31-.93.24Zm-122.32.48h.46v-.48h-.46v.48Zm42.48.72c.53.41,1.3.58,2.32.48.14-1.5-.86-1.81-2.32-1.67v1.19Zm-115.59,3.1c1.36-.9.13-2.84-.46-3.82h-1.16c-.58,1.53.41,3.35,1.63,3.82Zm34.12-3.1c-.09,1.28.55,1.82,1.62,1.91-.16-1.27.66-2.23-.23-2.62,0,.71-1.1.31-1.39.72Zm87.27,1.19c.31-.4.61-.8.46-1.67-.54-.08-.87-.38-1.63-.24-.02,1.06.28,1.78,1.16,1.91Zm50.13-.48c-.17.86-.55,1.5-.7,2.38.33.46,1.13.43,1.62.72.88-1.72,3.43-1.72,3.95-3.82-2-2.4-2.58,2.05-4.87.72Zm-2.79-.95c-.3-.01-.32-.31-.7-.24-.36.59.79.7.7.24Zm-97.25,1.67c.74-.03,1.02-.54.93-1.43h-.93c-.07.56-.45.99,0,1.43Zm96.33-.72c.27.94.27-.94,0,0h0Zm-137.64,2.86c.3-.01.32-.31.7-.24.3-.7-.01-1.57-.46-2.15h-.93c-.44.68-.42,2.54.7,2.38Zm35.98-1.67c.21.82.51,1.54.93,2.15.98-.02,1.39-.64,1.62-1.43-.18-.93-2.13-2.19-2.55-.72Zm7.66.95c-.44-.03-.16-.79-.7-.72-.25.6.49,1.36.7.72Zm35.98.48c.36.34.9.5,1.39.71,1.5-1.44-1.06-2.69-1.39-.71Zm24.37,1.91c.49-.58.33-.51.23-1.43-.4-.09-1.44-.72-1.62-.24.44.58.1,1.96,1.39,1.67Zm-40.62-1.43c-.13,1.17.3,1.76,1.16,1.91.31-.08.44-.34.93-.24-.07-.55.04-.92.23-1.19-.39-.52-1.54-1.1-2.32-.48Zm-21.35,3.58c1.2.12,1.85-.33,1.86-1.43-.95.1-.94-.79-2.09-.48-.6.64-.01,1.41.23,1.91Zm102.59-1.19c-.03.59-.04,1.15.23,1.43h.93c.2-.2.64-1.86-.23-1.67-.04.35-.56.22-.93.24Zm-142.98,2.62c.46-.07.46.32.7.48.2-.35.35-.76.93-.72-.1-1.09-.64-1.73-1.39-2.15.32,1.04.19,1.59-.23,2.38Zm20.43-.48c.55,0,.68.41,1.39.24.14-.5.49-.77.7-1.19-.46-.24-.37-1.05-1.16-.95-.25.7-.98.9-.93,1.91Zm46.89,1.19c.72-1.31-.24-2.7-1.62-2.62-.42,1.32.1,2.64,1.62,2.62Zm-100.97-.48c-.07.83.58,2.02,1.39,2.15,1.87-.43.88-3.19-.46-3.58-.18.05-.46,0-.46.24.43.57-.4.48-.46,1.19Zm112.57,1.19c.27.27.82.27,1.39.24-.18-1.06.31-1.43.23-2.39h-.93c.09,1.04-.66,1.23-.7,2.15Zm-84.49-.24c.41.21.59.67,1.39.48.07-.56.37-.9.23-1.67-.91.06-1.25.18-1.62,1.19Zm161.32.48c.04-.59.04-1.16-.46-1.19-.03.59-.04,1.16.46,1.19Zm-108.16.71c-.64.91.85,1.05,0,0h0Zm2.79.95c-.39.03-1.48-.77-1.39.24,1.09.15,1.53.97,1.86,1.91.99-.29,1.25-.09,2.32,0,.27-.6.92-.8.93-1.67-.13-.58-.9-.51-.7-1.43-1.43-.12-2.18.47-3.02.95Zm96.79,1.91c.79-1.52-.22-3.06-2.09-2.62-.61,1.46.12,3.08,2.09,2.62Zm-124.18-.71c-1.07-1.72-2.34.16-1.86,2.15.54-.08.89.04,1.16.24.14-.89.95-1.09.7-2.38Zm78.22.71c.65-.04.99-.41.93-1.19-.65.04-.99.42-.93,1.19Zm-51.53.72c-.02-.61-.13-1.14-.46-1.43,0,.63-.13,1.4.46,1.43Zm-3.02-1.19c-.33.7-1.21.82-.93,2.15.44-.05.51.27.93.24.83-.21,1-2.21,0-2.38Zm44.8.71c.53,1.36.29,3.51.7,5.01.58.57.78-.6,1.62-.48-.36-1.52.39-3.41-.23-5.01-.61-.51-1.47.25-2.09.48Zm64.53,1.43c.33-.74.2-1.78-.93-1.67-.47.6-.27,2.04.93,1.67Zm-158.76-.24c.32-.01.51.11.7.24.36-.36.41-1.64-.46-1.43.1.57-.42.52-.23,1.19Zm59.42,1.19h1.16c-.11-.75.42-.84.23-1.67-.65-.57-1.61-.94-2.32-.24-.43,1.95,1.66.7.93,1.91Zm-60.35-.95c-.3-.01-.32-.31-.7-.24-.36.59.79.7.7.24Zm53.85,0c-.18.05-.46,0-.46.24.18-.05.46,0,.46-.24Zm99.34.72c-.02,1.06.42,1.64,1.62,1.43-.32-.75-.05-.8,0-1.67-.58-.6-.91.27-1.62.24Zm-181.51.71c-1.54.94-.78,5.02,1.62,4.77,1.1-1.61-.3-4.13-1.62-4.77Zm92.61,2.86c.86.17,1.03-.38.93-1.19-.44.05-.51-.27-.93-.24-.07.56-.45.98,0,1.43Zm91.91.48c.06.34.38.4.46.71,1.02-.07,1.76-.42,1.62-1.67-.85-.64-1.84.22-2.09.95Zm-52.92.95h1.39c-.11-.75.42-.84.23-1.67-1.15-.99-2.59.49-1.62,1.67Zm-111.18-.72c-.13.93.2,1.38.46,1.91h1.62c-.13-.74-.19-1.55-.46-2.15-.8-.19-.89.36-1.62.24Zm-15.78,1.91c.27.94.27-.94,0,0h0Zm92.84,2.38c.43-.59,1.35-.68,1.16-1.91-1.56-1.64-2.99,1.29-1.16,1.91Zm29.01-.24h.93c.37-.5.44-2.22-.46-2.15-.21.64-1.14,1.33-.46,2.15Zm69.4.72c.26-.69.42-1.48.46-2.38-2.38-1.67-2.96,2.87-.46,2.38Zm-197.06,1.91c.85.4,1.14,1.37,2.32,1.43,1.23-.74.36-2.27-.23-3.1-.71.17-.85-.24-1.39-.24-.05.82-.6,1.13-.7,1.91Zm105.15,1.67c.47.72.95-.04,1.62.48.29-.58.57-1.16.7-1.91-1.03-.63-2.61-.06-2.32,1.43Zm-5.11-.24c.33.45.52,1.06,1.39.95.51-.52-.23-.97,0-1.91-.87-.1-1.36.19-1.39.95Zm-36.21-.24c-.24.55-.15,1.44-.46,1.91,1.14,2.01,4.24.91,3.25-1.67-.97-.75-1.56-.65-2.79-.24Zm49.9.95c.27.94.27-.94,0,0h0Zm11.14,3.1c1.17,3.05,5.37,2.09,7.66,4.29,1.01-.69,1.72-.23,2.79-.72-1.51-3.06-6.73-3.57-10.45-3.58Zm16.02,2.38c.83.14,1.12-.28,1.62-.48-.26-1-.95-1.57-1.86-1.91-.45.59.05,1.71.23,2.38Zm46.89-1.43c-.19,1.23.19,1.87.7,2.38,1.12.04,1.08-1.12,2.32-.95.3-2.24-1.91-2.52-3.02-1.43Zm-74.51,1.67c.34.52.62,1.12,1.62.95-.26-.92.82-.85.23-1.43-.71-.18-.28.82-1.16.48-.32-1.04.55-.86.7-1.43-.41-.21-.3-.97-1.16-.72.16.96-.22,1.36-.23,2.15Zm32.26-1.19h.7v-.48h-.7v.48Zm23.44,1.67c.62-.24,1.32-.39,1.39-1.19-.49-.29-.67-.9-1.39-.95.25.99.06,1.05,0,2.15Zm12.07-1.43c-.22,1.34.75,1.46,1.62,1.67.09-.62.69-.72.7-1.43-.5-.72-1.61-.94-2.32-.24Zm-28.32,1.43c0-1.11-.92-1.28-1.62-1.67-.67,1.16.49,2.36,1.62,1.67Zm22.75-1.19c-.2,1.32.46,1.75,1.39,1.91.51-.57.96-1.46.46-2.38-1.03-.26-1.15.4-1.86.48Zm-130.21.24c.2.58.21,1.38.93,1.43.55-.15.38-1.04,1.39-.71v-.95c-.66-.56-1.53.2-2.32.24Zm118.14,0c.27.94.27-.94,0,0h0Zm-121.86,1.19c.46.12.75-1.09.23-1.19-.08.79-1.01-.63-1.16.24.55.08.14,1.13.93.95Zm22.75-.24c.62.56,1.24,1.11,2.32,1.19-.11-.75.42-.84.23-1.67-1.53.1-1.94-.97-2.55.48Zm43.64.24c.44.05.51-.27.93-.24.05-.45-.26-.53-.23-.95h-.93c-.07.55.04.92.23,1.19Zm-76.83-.95c-.63,1.21.81.89,0,0h0Zm21.12,1.67c.56-.1.5.44,1.16.24.33-.32.33-1.35,0-1.67h-.7c-.19.45-.39.87-.46,1.43Zm6.27-.95c.17.54.21,1.22.46,1.67.66-.2.6.34,1.16.24.32-.41.91-1.9,0-2.15.11,1.48-1.04.18-1.62.24Zm97.95.95c.66.2.6-.34,1.16-.24-.03-.76-.53-1.05-1.39-.95-.07.55.04.92.23,1.19Zm-135.78-.24c.27.92,2.17.43,1.86-.72-.82.03-1.87-.17-1.86.72Zm56.17,1.91c.9-.11,1.5-.53,1.62-1.43-.54-.32-.77-.96-1.86-.72-.47.55-.24,1.83.23,2.15Z"/>
  <path class="cls-4" d="m107.93,47.21c1.05,4.01,3.87,6.19,4.64,10.49.57.77.94,1.74,1.39,2.62v2.38c1.07,2.64,1.81,5.61,3.02,8.11,2.22,1.94,2.46,5.9,4.18,8.35-.25,2.49,1.43,2.99,1.16,5.48.53,1.37,1.66,2.11,2.32,3.34-.59,4.98,1.56,7.14,2.09,10.97.33.71.58.02,1.16.48.81,1.87,1.52,3.84,1.62,6.44,1,2.3,2.32,4.76,2.55,7.15,1.76,2,2.04,5.53,3.95,7.39-.13,1.09.41,1.48.23,2.62-.29.1-.48.31-.46.71-.98.43-2.3.5-3.25.95-.91-.18-1.26-.93-2.09-1.19-4.52-.04-9.75,1.42-14.16-.48-2.34.54-4.78.27-7.43.48-1.38.11-2.61.65-4.87.48-.67-.05-1-.6-1.62-.71-1.16-.22-2.51.7-3.48-.24-.66.04-.97.44-1.62.48-2.39.22-3.78-.59-5.11.24-1.54.25-4.09-.54-4.87.48-.24-.16-.24-.55-.7-.48-1.24.29-3.58.59-4.18-.48-.44-1.19.18-1.81.7-2.62.77-3.82,1.23-6.64,2.79-9.78-.14-2.58.78-4.15,1.62-5.96.25-.53.2-1.21.46-1.67.34-.59,1.11-1.1,1.39-2.15.4-1.49.04-2.89.46-4.29.31-1.04,1.23-1.98,1.62-3.1.74-2.09-.13-5.71,2.09-7.39-.41-.8.16-1.22,0-2.38.03-.92.94-.94,1.16-1.67-.04-1.95.23-3.58,1.62-4.05-.05-2.46,1.63-3.22,1.39-5.72,1.34-2.28,2.06-5.2,2.32-8.58,1.86-3.89,2.86-8.67,4.64-12.64v-2.86c.86-.73,1.81-1.73,3.25-1.19Zm-1.62,11.92c.66.56,1.75.03,2.32-.24.1-.82-.09-1.34-.23-1.91-1.7-.32-1.96.85-2.09,2.15Zm-1.62,3.82c.27.94.27-.94,0,0h0Zm.7,5.25c.55.07.43.83,1.16.72.46,0,.29-.65.93-.48-.17-1.5-.82-2.49-1.62-3.34.22,1.42-.25,2.13-.46,3.1Zm6.04,4.29c.76-.56,1.35-1.21.93-2.38-2.27-1.85-3.08,1.91-.93,2.38Zm-9.52.72c.53-.17,1.19-.21,1.62-.48-.01-1.34-.03-2.67-1.39-2.62-.75.79-.05,1.65-.23,3.1Zm3.48,8.35c.74,2.91.77,7.78.93,10.49,1.09.66,1.94,4.18,0,4.53-2.45-1.7-2.81-5.54-6.73-5.72-.43,1.46.57,3.35,1.86,3.81.1,2.29,2.77,3.99,2.55,7.39-.47.31-.42,1.16-1.39.95-.92-1.93-2.51-4.39-5.34-3.58-.68,2.47,1.34,4.17,1.16,6.91,1.33,1.18,2.97,2.04,3.95,3.58,1.2.51,2.44.99,3.25,1.91,1.38,2.23-1.15,8.49,2.79,8.11,1.48-3.31-.78-6.79,0-10.02,1.69-.62,1,1.2,1.86,1.43.31.4,1.32.08,1.62.48.97-.83,1.92-1.68,3.02-2.38-.04-.75.62-.8.46-1.67.87.25.75-.5,1.16-.72,1.07-2.71.76-7.81-.23-10.49-1.56-.44-1.62,1.32-3.48,1.19-.25-2.19-.71-4.22.23-6.44.07-.16.62-.11.7-.24.14-.23-.15-.74,0-.95.4-.6.88-.36.93-1.19.04-.77-.22-1.32-.7-1.91-1.61.41-1.3,2.8-3.25,2.86-.73-.68-.38-2.47-.46-3.82-1.23-2.25-1.87-5.49-1.62-8.58-1-.8-1.07-2.56-2.32-3.1-1.02,1.31.6,5.45-.93,7.15Zm5.8-4.29c.44.05.51-.27.93-.24-.02-1.07-.53-.3-.93-.72v.95Zm.23,1.67c.27.94.27-.94,0,0h0Zm.46,2.62h.46v-.48h-.46v.48Zm2.32,1.19c.59.43.86,1.18,2.09.95-.06-.81.18-1.93-.23-2.38-.95.14-1.95.22-1.86,1.43Zm-13,1.91c-.36,1.71,1.36,2.33,2.09,2.15.59-.78-.33-1.6-.46-2.38-.75-.14-1.08.16-1.62.24Zm-5.8,5.48c.27.94.27-.94,0,0h0Zm-1.39,8.35c1.27-.74.73-3.51-1.39-2.86-.57,1.15-.27,3.23,1.39,2.86Zm-.46,5.72c.43-1.09-1.26-1.23-1.62-.72.45.54.83,1.15,1.62.72Zm3.71,5.25v-1.43c-1.56-.55-1.56,1.98,0,1.43Zm-5.11,2.38c.82-.96.71-3.7-1.16-3.34-.36,1.14.09,2.94,1.16,3.34Zm26.92-2.62c-.29,1.25.38,1.52.46,2.38,1.18.1,1.62-.57,2.32-.95-.12-.75-.41-1.33-.7-1.91-.97-.12-1.57.13-2.09.48Zm-26,3.58c.11,1.32.61,2.23,1.86,2.38.81-.47,1.3-1.75.46-2.62-.99-.14-1.54.17-2.32.24Zm6.27.48c-.88,1.44.84,3.08,2.32,2.15.31-1.73-1.16-2.7-2.32-2.15Zm17.64,4.77c.66-.43.81-1.39,1.39-1.91-.65-.6-.63-1.9-2.09-1.67-.44,1.01-.43,3.4.7,3.58Zm5.34-3.58c-1.78.77-1.01,3.11-.7,5.01.68-.06.71.54,1.39.48.87-1.41.65-4.86-.7-5.48Zm-34.12,4.77c1.21-.19,2.45-.34,2.55-1.67-.86-1.73-3.62.04-2.55,1.67Zm7.43-1.67c-1.95,2.37.5,2.45,2.09,1.67.17-.73-.4-.7-.23-1.43-1.16.15-.99.12-1.86-.24Zm32.5.48c-.75.29-.18-.77-.93-.48-.04.69.78,1.31.93.48Zm-27.62.72c-.09.97.08,1.66.93,1.67.05-.19.19-.28.46-.24-.14-.57.29-1.73-.23-1.91-.06.5-1.02.06-1.16.48Zm12.77,1.43h1.39v-1.19c-.95-.1-1.46.24-1.39,1.19Zm-11.37,1.43c.27.94.27-.94,0,0h0Z"/>
  <path class="cls-4" d="m1.62,142.36c.25-1.53-1-1.52-1.62-2.15,1.17-.94-.08-4.37,1.62-4.77-1.51-.77-1.41-4.59-.7-6.2,0-.79-.39-1.19-.23-2.15-.01-.73.21-1.21.7-1.43-.85-.32-.59-1.09-.23-1.91.06-.78-.9-.51-.93-1.19-.16-.88.4-1.02.23-1.91-.52-2.51-.08-5.7.23-8.11.08-1.14-.6-2.18.46-2.62,1.71-.28.14,1.32.93,1.91,1.29-.9.79-3.2.46-4.77-.71-.7-1.1,1.47-2.09.48-.95-1.72,1.09-2.82.7-4.05-.43-.83-.46-2.07-.7-3.1.17-.86.84-1.2.7-2.38.23-1.19-.72-1.17-.7-2.15.81-1.55-.02-4.79,1.39-5.72-.17-3.04-.52-4.66-.23-7.87.03-.92.94-.94,1.16-1.67-.87-4.09-1.12-7.45-1.62-11.68-.09-.89,1.12-.44,1.16-1.19.08-1.11-.64-1.41-1.16-1.91-.33-5.28,1.72-10.13,1.86-15.02.06-2.04-.39-4.42.46-6.2-.38-2.74-.82-4.34-.46-6.92.72-.93,1.21-2.1,1.86-3.1-1.19-2.04-1.84-7.28-1.62-11.21.03-.54.46-1.12.46-1.67.04-3.01.2-6.8-.23-10.02.16-.71.28-1.46.93-1.67-.39-3.67,1.72-6.81,3.95-8.58,1.89-.36,2.48.64,3.71.95,4.37-1.73,8.45,1.61,12.77-.24.09.94,1.53.5,1.86,1.19,4.22-1.11,9.09-.28,13.23-1.19,2.09,1.02,5.81.09,8.36-.48.82-.04.76.81,1.39.95,1.22-.55,3.08-1.48,4.87-1.67,3.3-.35,7.41,1.49,9.05-.48.93.53,1.47-.27,2.32-.48,1.91.26,2.1,2.3,3.71,2.86,1.67.13,2.68-.43,3.71-.95,3.05-.31,7.19-.25,9.29.48.65-.18,1.39-.47,2.09-.48.46,0,.66.39,1.16.48,1.24.21,2.93-.97,4.18.24,1.59-.99,4.71-.4,6.27-1.43,2.31.3,4.35,2.6,6.5.95,2.2.8,5.25-.59,6.96.48,2.49-1.21,5.65-1.03,8.59-2.15,1.58.32,3.27,1.01,4.64.24,2.66,1.04,4.86,1.29,7.66,1.91,1.84-.32,3.65-1.49,5.57-1.43.76.02,1.36.6,2.09.71.58.1.94-.21,1.63-.24,1.62-.06,3.7.62,4.64.48,1.23-.18,2-1.36,3.25-1.67,3,3.1,10.16.83,14.62,1.43,5.29-1.57,11.74-.5,16.94.48,4.37-.77,8.34.48,12.07.24,2.08-.14,4.07-.96,6.04-.24,1.67.05,2.74-.52,4.41-.48.87.06,1.3.57,2.09.72,1.22-.74,2.89.11,3.71-.72,2.3,1.96,5.77.62,9.52.95,1.8,1.29,4.25.63,6.96.72,1.66,1.55,2.12,6.29,1.39,9.78-.08.36-.04.72-.46.95-.27.99.49.93.46,1.67.11.51-.33.45-.7.48-.06.94.99.73.93,1.67-.6,3.07-.4,5.68.23,8.82-.08.95-.63,1.42-.93,2.15.94,1.71,1.62,6.08,0,7.63.39.95.18,2.52.23,3.81.06.89.54,1.35.93,1.91-.1,4.87-.25,7.37-.93,11.45.22,2.16.52,4.23.7,6.44-1.02,1.53-1.28,4.27,0,5.72-.58,1.64.47,3.83-.7,4.53-.12,4.75.5,9.33.23,13.59.38.8,1,1.36,1.16,2.39,0,2.85-2.26,5.87-.46,8.35-.2,1.07-1.2,1.31-1.39,2.38-.23,2.14.94,2.85,1.62,4.05.07,1.82-.04,3.46-.23,5.01.02,1.06-1.21.83-1.39,1.67.75,1.53.16,4.44.93,5.96.17,1.05-.75.98-.93,1.67-.39,1.82.17,3.06.7,4.53-.13,1.54-.8,2.51-1.16,3.81-.25.89.58.68.46,1.43.43,4.94-.17,8.96.7,12.88-.09,2.6.43,4.39-.46,6.2.05,1.78.48,3.17.7,4.77-1.57,3.45-.38,8.21-.7,12.64-.1,1.4.19,2.87.23,4.53.02.6-.41,1.03-.46,1.67-.17,2.11.63,4.55.7,6.68.09,2.76.05,5.55-.46,7.87.19,2.43.47,4.76.46,7.39-.05.85,1.09.47.93,1.43-1.54,3.5-2.17,9.84-.93,14.07-.74,2.4-1.31,5.53-1.16,8.58.03.55.38.95.46,1.43.87,4.95-1.63,7.52-4.18,10.25-.33-.02-.66-.04-.7.24-2.5-.35-5.27.08-7.89,0-1.76-.05-3.63-.83-5.11.24-.71.01-.9-.5-1.39-.71-4.5.02-8.36.76-11.84-.48-.79.86-2.94.32-3.95.95-.38-.56-1.6-.27-2.09-.72-2.05.88-4.45-.06-6.73,0-.98.03-2.05.47-3.02.48-.8,0-1.53-.43-2.32-.48-1.9-.12-4.04.82-5.57-.48-.84.03-1.75,1.21-2.09.95-.89.19-.9-.51-1.16-.95-1.26,2.32-3.93.58-6.04.48-2.32-.11-4.97.72-7.89.48-1.43-.12-2.8-.29-4.18-.72-1.62.58-4.06.66-5.8-.24-1.65,0-3.39.68-5.11.71-1.47.03-2.75-.78-4.87-.71-.89.03-1.74.65-2.79.71-1.66.11-4.87-.2-7.2-.48-.54-.06-.93.02-1.39-.48-1.07.75-3.51.76-3.71-.72-1.25,1.33-4.87.24-6.5,1.19-2.12-.82-4.41.25-6.27-.71-3.51,1.11-7.07-.56-10.68.71-3.95-.22-7.06.41-9.52,0-1.75.82-4.88.23-6.73.95-1.46-.41-3.14-.59-5.11-.48-.83.26-1.52.66-2.09,1.19-2.85-.17-4.12-1.96-7.43-1.67-.32.07-.19.6-.23.95-.66-.27-.62-1.27-1.39-1.43-2.05,1.33-4.13-.18-5.8,1.19-7.32-1.03-14.26-1.31-20.89-.48-.8.19-.98-.26-1.39-.48-1.77.45-3.53-.07-5.34,0-.66.03-1.15.42-1.86.48-1.62.13-3.45-.54-5.11-.48-1.8.07-4.29-.18-6.27,0-1.11.1-2.08.63-3.25.71-2.12.15-4.4-.45-6.5-.71-.4-.86-1.12-1.4-1.62-2.15.63-4.27.3-8.07-1.86-10.97.27-3.45-.01-8.31,0-12.16,1.01-2.64.32-5.06-.46-7.87,2.28-3.67-.95-7.99,0-11.45.64-.75.99.75,1.62,0,.18-1.54-1.2-1.47-1.39-2.62.15-2.78-1.06-4.15-1.39-6.44.14-1.29.85-1.99,1.16-3.1.15-1.03-.97-.75-.93-1.67-.4-1.6,1.04-1.31.93-2.62.84-.23.2,1.07.93.95.49-.58.28-1.88-.46-1.91-.52-2.12-1.15-3.9-1.16-5.96.79-.31.45-1.77.93-2.39-.05-.72-.65-.12-.93-.95-.03-2.24-.93-4.57.46-6.2.46-.72-.61-.31-.7-.95-.05-.4.51-.73.46-1.19-.08-.87-1.03-2.01.23-2.62v.24h.23c.57.03.39-.29,0-.24l.12-.12-.12-.12ZM125.34,6.44c-.31,0-.21-.42-.46-.48-.27.49.36,1.14.46.48Zm.93,0c-.26.02-.36-.35-.46,0,0,.24.41.3.46,0Zm82.17,1.91c-.39-1.04-1.9-.16-2.79-.24-.84-.01-1.12-.59-1.86-.72-2.72.35-7.14.47-9.98-.24-.54,1.06-1.5-.06-2.32,0-.17.01-.61.47-1.16.48-2.28.05-5.38.21-6.96,0-.6-.08-1.01-.46-1.62-.48-1.38-.04-2.86.13-4.18.48-4.56-2.17-10.49.55-15.09-.72-1.53,1.23-4.46.92-6.27,0-3.95,1.21-8.35-.61-11.84.95-.46.02-1.98-.95-2.55-.95-.11,0-.45.6-.93.72-.13.03-.93,0-1.16,0-3.44-.03-6.76.53-9.28-.48-2.7.5-6.62.56-8.82,0-1.11,1.03-2.48.59-3.95.95-1.36-.48-2.53.3-3.25-.72-.79.61-3-.22-3.48.72-3.28-1.08-5.59-.53-7.89,0-1.41-1.55-4.49,0-6.03-1.19-.94,1.02-2.13.62-3.71,1.19-1.45-.01-2.89-.74-4.87-.24-.54-.08-.52-.74-.93-.95-1.4.94-2.36,1.18-4.64,1.43-1.11.02-1.19-1-2.32-.95-1.26.31-1.73.12-2.55-.48-1.74,1.57-4.54.46-7.66.72-.82.11-.82,1.07-1.86.95-2.03.18-3.25-.48-4.41-1.19-.66.51-1.48.66-2.32.72-4.58.31-10.28-.51-14.62.48-.7-.16-.81-.92-1.86-.72-1.11-.18-1.03.85-2.09.72-8.41-.44-19.12-1.06-29.25-1.19-2.33-2.36-4.26.59-4.41,3.1-.06,1.03.5,2.25.7,3.34.21,1.18-.28,2.49.7,2.86-1.01-.08-1.22.66-1.39,1.43-.1,6.76-.81,9.14-.23,15.5.17.73-.8.29-.46,1.19,1.05,5.03-1.54,8.55.23,12.88,0,4.37-.98,7.74-.7,12.4,1.14,3.73.55,8.19.23,11.68-.15,1.62-.6,3.23-.46,4.77.1,1.13.99,2.18,1.16,3.34-1.45,2.27-.74,5.19-.7,8.35.04,2.66-.49,5.43-.46,7.87,0,.6.4,1.03.46,1.67.29,2.89-1.42,6.04,0,8.82-.31.55-.93.79-.7,1.91.61,6.04-.4,12.18,0,18.6.13,2.04,1.12,4.08,1.16,6.2-1.12,2.43.17,7.33-.93,9.78-.26,6.3.93,12.53.23,19.31.6,1.37.75,3.2.93,5.01-.14.89-.87,1.17-.93,2.15-.31,10.28-.07,19.06,0,28.61.04,4.71,1.24,11.06.23,15.26,1.02,2.04.63,4.54,0,6.68.36.51.84.89,1.16,1.43,2.84.12,3.82-.6,6.27,0,1.46-1.17,3.59-.33,4.87-1.43,1.67-.06,3.11.77,4.64,0,1.71,1.07,3.74.33,6.04.72,1.03.26,1.15-.4,1.86-.48.31.24.45.64.93.71,7.48.57,16.31-.91,23.44.24,1.05-.71,2.56-.38,3.95-.24.97.04,1.14-.73,2.09-.71,1.98,1.51,4.32.44,6.73.24,2.07-.18,4.31,0,6.27,0,2.17,0,4.14-.24,5.8.24.37-.41.97-.59,1.86-.48,2.64,1.05,5.42.7,8.12,0,.96,1.11,2.15.62,4.18.71.71-.06,1.04-.52,1.62-.71,5.64,1.55,12.69-.23,19.27.95.88-.37,1.39-.5,2.32,0,2.24-1.54,5.26-.04,8.12,0,.4,0,.69-.43,1.16-.48,1.6-.17,3.35.71,4.41-.24.91.34,2.03.46,2.79.95,3.95-.89,9.06.48,13.46-.72,2.68.43,5.96.24,8.59.72,2.5-1.72,5.41.22,8.12.24,1.08,0,2.22-.63,3.25-.72,4.71-.4,9.61.58,13.46-.95,3.62,1.66,7.64.79,11.61.72,1.85-.03,3.71.6,5.57.72,3.94.24,8-.47,11.84-.24.77,0,.79-.78,1.62-.72.98.4,1.11.25,2.09.48.8-.53,2.03-.62,2.79-1.19.41-.7.92-2.68.7-3.82,1.01-.5.52-1.55.7-2.62.08-.51.44-.85.46-1.19.1-1.3,0-2.96,0-4.29-.02-5.05-.2-11.17.23-15.5.68-6.81.59-13.88.46-20.27.45.1.18.92.93.72-2.33-3.98-.83-9.54-1.16-15.02-.05-.79-.4-1.63-.46-2.38-.3-3.33.21-6.45.23-9.78.02-2.63-.54-5.31-.46-7.63.03-.73.38-1.41.46-2.15.47-4.15-.55-8.45.46-12.4-1.6-3.02.12-6.07.23-9.06.05-1.22-.57-2.47-.7-3.82-.28-3.09.62-6.41-.23-8.82.68-6.01-.07-9.69.7-15.98-1.42-1.73.02-3.49,0-5.72,0-.67-.4-1.47-.46-2.15-.28-2.89.43-5.31.46-7.15.07-3.8-1.26-7.72.23-11.21-.79-3.65.3-7.15.23-10.49-.06-2.74-1.21-5.49-1.16-8.11.01-.52.42-1.2.46-1.67.32-3.38.49-6.22,0-8.58.49-3.25.08-7.07,0-10.97-.08-3.93-.16-8.27-1.39-11.45-2.26-.52-5.82-1.23-7.2,0-.61-.64-2.37-.11-2.32-1.43-.98.11-1.07,1.13-1.86,1.43ZM9.52,14.07c-.21-.18-.66.15-.7.24-.33.9,1.16.17.7-.24Zm212.61,16.45c.81-.08.88,1.21,1.62.48-.14-.89-.66-1.39-1.16-1.91-.13.5-.58.68-.46,1.43Zm1.86,32.19c-.37-.02-.18-.61-.7-.48-.2.49.6,1.07.7.48ZM2.32,101.34c-.05-.42.23-1.19-.46-.95-.06.54.06.9.46.95Z"/>
  <g>
    <path class="cls-1" d="m203.91,15.14c.13.03.18.13.23.24"/>
    <path class="cls-1" d="m204.14,16.33c.13.03.18.13.23.24"/>
    <path class="cls-3" d="m102.94,178.96c-.17.01-.28-.03-.39-.07-.05-.11-.12-.2-.19-.28"/>
    <path class="cls-2" d="m208.55,198.51c.24,0,.41-.05.58-.12"/>
    <path class="cls-2" d="m133.46,160.96c.15-.08.38-.09.58-.12"/>
    <path class="cls-2" d="m1.74,142.48c-.16.08-.23.24-.35.36"/>
  </g>
</svg>