<?xml version="1.0" encoding="UTF-8"?>
<svg id="Layer_1" data-name="Layer 1" xmlns="http://www.w3.org/2000/svg" viewBox="0 0 226.77 226.77">
  <defs>
    <style>
      .cls-1 {
        stroke-width: .34px;
      }

      .cls-1, .cls-2, .cls-3, .cls-4, .cls-5 {
        fill: none;
        stroke: #000;
        stroke-linecap: round;
      }

      .cls-1, .cls-2, .cls-3, .cls-4, .cls-5, .cls-6 {
        fill-rule: evenodd;
      }

      .cls-2 {
        stroke-width: .33px;
      }

      .cls-3 {
        stroke-width: .35px;
      }

      .cls-4 {
        stroke-width: .32px;
      }

      .cls-5 {
        stroke-width: .33px;
      }

      .cls-6 {
        stroke-width: 0px;
      }
    </style>
  </defs>
  <path class="cls-6" d="m151.34,38.15c.78-.39.78,1.19,0,.8v-.8Z"/>
  <path class="cls-6" d="m114.85,64.56c-.55.54-.53-.12-1.07-.27.05-.77,1.28-.64,1.07.27Z"/>
  <path class="cls-6" d="m224.87,225.17c-1.21.49-2.34,1.05-3.49,1.6-3.4-1.08-7.17-.02-11,0-1.44,0-2.82-.72-4.29-.8-2.71-.14-5.37.58-8.05.8-2.48-1.24-5.82-.06-9.39,0-3.36.06-6.88-.91-10.2-.8-2.54.08-5.16.58-7.78.53-1.55-.03-3.02-.55-4.56-.53-2.28.03-4.62.56-6.98.53-3.71-.04-8.29-.75-13.15-.53-3.27.14-6.62-.15-9.66,0-.92.05-1.79.51-2.68.53-1.23.03-2.37-.38-3.76-.53-.48-.05-1.3.34-1.88.27-.64-.08-.75-.53-1.34-.53-6.87-.03-13.84-.08-20.12.53-3.51-1.25-8.01,1.12-11.27-.27-1.19.66-2.74-.09-4.03.8-.81-.26-1.6-.54-2.41-.8-3.46.04-5.21-.3-8.32-.27-.7.07-1.34.09-1.08-.8-.02,1.22-2.05.45-2.42,1.33-1.26-.7-4.24.3-5.1-.8-4.23,1.4-9.65.62-14.49.53-2.06-.04-4.27.86-5.9-.27-5.07.99-10.44.2-15.83.27-2.56.03-5.15.89-7.78.53-1.17.27-1.23-.55-1.88-.8-2.53.16-4.84,1.08-7.25.8-1.12-.13-2.13-.92-3.22-1.07-4.37-.6-8.97,2.05-13.69-.27-1.06-2.86-.16-7.66-1.88-9.87.67-5.65.6-11.15.27-17.34-.19-1.35.99-1.33,1.07-2.4.11-2.13-.18-4.27-.27-6.4-.08-2.02.25-3.91.27-5.87.03-3.26-.75-6.59-.81-10.41-.03-2.24.25-4.54.27-6.94.03-3.25.17-6.32.54-9.07.77-5.77-.91-11.62-.81-17.08.04-2.24.32-4.5.54-6.67-.95-4.59-.09-11.06-.27-17.07-.14-4.78-.61-9.42.54-13.61-.89-1.55-.7-3-.81-5.6-.02-.58-.25-1.28-.27-1.87-.02-1.21.58-2.53.54-3.73-.03-.76-.56-1.44-.54-2.13.04-.95.51-1.96.54-2.93.07-2.45-.31-5.07-.27-7.74.03-2.28.4-4.78.27-6.94-.04-.75-.55-1.63-.54-2.4,0-.56.56-1.29.54-1.87-.03-.71-.48-1.44-.54-2.13-.04-.59.54-.92.54-1.6,0-.49-.53-1.07-.54-1.6-.04-1.97,0-4.77,0-7.74,0-1.96.5-3.87.54-5.87.12-6.22.16-12.89.27-19.21.04-2.72-.83-5.55-.81-8.27.01-1.23.5-2.5.54-3.73C.95,12.35-.26,7.47.8,2.67c3.46-.89,8.91-1.09,12.61-.27,1.02-.66,2.27-.58,3.49-.8,1-.18,2.15-.72,3.22-.8,1.87-.15,3.92.71,5.9.8,3.33.16,7.07-.78,10.2-.8,1.41-.01,3.26-.05,4.29.8,1.62-.9,3.68-.74,5.64-.53,5.75.61,11.63,1.47,16.91,0,4.8.51,7.72-.77,11,.53,2.91-1.34,8.29.8,10.74-.8,2.48,1.13,6.37-.37,9.93,0,1.54.16,2.94.94,4.56,1.07,7.31.59,14.76-1.32,22.27.53,1.83-.19,3.78.18,5.91,0,3.53-.29,7.46-1.56,9.93.53,1.71-.1,3.01-.37,4.83-.53.17-.02.5.57.81.53.21-.03.27-.54.8-.53,2.49.03,5.31.07,8.05.8,2.24-.84,4.98-1.23,7.24-1.07,1.05.08,1.98.7,2.95.8,2.38.24,5.12-1.15,8.05,0,1.37-.5,3.27-.48,4.56-1.07,1.75.49,3.81.66,5.63,1.07.87.17,1.63-.62,2.42-.8,1.36-.31,3.07-.09,4.83-.27,3.1-.32,7.14-.57,10.46-.27,2.03.19,3.94.44,6.71.27,1.11-.07,2.4.46,2.95-.53.79.37,2.04.28,2.42,1.07.62-1.61,3.19-1.28,4.56-2.13,1.16.43,2.35-.32,3.49-.27,2.16.1,3.64,1.24,5.37,1.87.42,1.09,1.02,2.01,1.61,2.93.57,4.63-.99,11.47.27,14.94-1.84,5.34.21,11.36-1.34,16.01.24,1.1.88,1.8,1.07,2.93,0,1.61-.46,2.75-.27,4.54.07.78-.07.92-.54.53-.15,1.04.85.94,1.08,1.6-.98,3.13-.5,6.24-.27,9.07.33,4.13-1.84,8.4,0,12.27-1.14,3.76.57,7.85.27,12-.13,1.82-1.15,3.52-1.08,5.34.09,2.2,1.77,4.36.54,6.4,2.29,5.67-.83,13.68,1.07,18.67-1.18,3.59,1.08,6.88.8,10.67-.12,1.58-.64,3.19-.8,4.8-.47,4.69-.51,8.52.27,12.27-1,2.11.34,5.26-.8,7.47,1.03,3.73-.69,9.2,1.34,12.27.19,1.35-.99,1.33-1.07,2.4.27.89-.26,1.77-.27,2.67,0,.86.49,1.54.54,2.4.05.8-.5,1.59-.54,2.4-.04.97.51,2.1.54,3.2.02,1.16-.26,2.35-.27,3.47,0,2,.47,4.22.27,6.14-.08.77-.53,1.37-.54,2.13-.06,3.96,1.29,7.94,0,12,.99,2.53.96,6.37.8,10.41-.08,2.03.14,4.47-1.34,5.34,2.24,1.31,1.51,3.98,1.07,7.2-.37,2.75-.83,5.89-1.07,8.8ZM216.82,1.07c-.65.89.9-.65,0,0h0Zm-2.95,2.93c.49-.46-.08-1.05-.81-1.07-.07.7.1,1.15.81,1.07Zm-7.51,1.6c-2.24.75-6.25.21-8.85-.27-3.59,1.51-8.05.17-12.61.53-2.71.21-4.93.63-7.51.53-2.75-.1-4.68-.13-6.17-.8-5.21.33-11.94.29-18.52.27-3.3.81-8.65,1.18-12.07.27-1.79.78-4.25.47-7.25.53-.5.07-1.25-.3-1.88-.8-5.25.41-8.21.05-13.15.27-1.1-.06-1.51-.81-2.68-.8-.96.47-2.44.42-3.49.8-6.12-1.82-11.84.17-18.78-1.33-4.72,1.82-11.62-.92-16.1,1.07-1.95,0-3.73-.61-5.9-.53-1.73.06-3.53.96-5.37,1.07-2.63.15-5.5-.58-8.32-.53-5.09.08-9.85-.21-14.22-.53-8.15,1.88-17.15-.61-25.22,1.33-3.33-1.52-6.34.73-10.73-.27-.73,2.57-1.37,4.67-1.34,7.47.01,1.5.76,2.97.8,4.54.15,4.86-1.34,9.72-1.88,14.67-.2,1.9.27,3.85.27,5.87-.01,6.9.6,14.62.27,22.14-.14,3.27-.88,6.42-.81,9.6.09,3.66.27,7.27.54,10.14.27,2.89-.46,5.73-.27,8.54.06.89.51,1.76.54,2.67.08,2.62-.71,5.35-.54,8,.06.82.45,1.61.54,2.4.41,3.64-.37,7.04-.54,10.67-.04.87.27,1.79.27,2.67,0,2.18-.66,4.35-.54,6.4.06.98.47,1.99.54,2.94.1,1.36-.27,2.67-.27,4,0,8.88.91,17.5.54,25.88-1.33,2.6-1.13,6.64,0,9.34-1.66,7.11-.03,14.74-.54,21.61,1.25,2.5.41,5.19.27,8-.26,5.21.37,11.8.81,15.74-.84,3.23-.66,8.2,0,11.47,2.02.46,2.2-.38,4.02,0,1.5.28,2.21,1.35,3.49,1.6,0,0,1.99-1.27,1.61.27.8-.45,1.82-.68,3.22-.53.86.03,1.2.59,1.88.8,3.73-1.98,7.39-1.3,11.81-1.07,2.09.11,4.32-.36,6.44-.27,1.94.08,3.96.64,5.91.53,3.06-.17,5.81-1.02,8.59-.8.7.06,1.41.45,2.15.53,2.45.29,4.08-.33,5.37,1.07.42-.47.76-1.03,1.88-.8,3.47-.09,7.35.31,9.39-.53,1.21.47,3.32.29,4.56,0,1.01.07,1.3.84,2.15,1.07.76-.89,1.98-.46,2.95-.53,3.42-.26,8.49-.94,12.34-.53.85.09,1.54.52,2.41.53,1.71.03,3.43-.4,5.1-.53,3.38,1.62,7.67.2,12.08.27,3.34.05,7.05.8,10.46.53.08,0,.6-.49.81-.53,1.76-.38,3.06.41,4.29.53,2.44.24,4.54-.52,6.71-.53.91,0,1.82.36,2.68.27,1.29-.14,1.73-.89,2.68-.8,1.65.21,2.27.38,3.76,1.07,4.49-.69,9.5-.38,13.95.27,1.97-1.11,5.45-1.07,7.24.53,3.5-.86,9.74-2.05,14.49-.53.82-.7,1.98-1.05,3.22-1.34,1.44,1.06,4.65.37,6.17,1.34,3.5-2.03,10.68-.41,15.29-1.34,4.15,2.86,8.18-.84,12.61.8-.09-1.16,1.63-.51,2.15-1.07.32-.84.83-1.48,1.34-2.13.4-3.17-.75-6.42-.81-9.87-.02-1.31.35-2.68.27-4-.06-.97-.49-2.02-.54-2.93-.19-3.55.69-6.08.54-9.34,0,.08-.51-.2-.54-.27-.07-.18,0-.61,0-.8.04-1.39.21-2.69-.27-4,1.22-3.99.16-7.79.81-12.27-.9-1.7-.99-3.26-1.34-5.87,1.16-2.76,1.66-5.52.27-8.54,1.02-.14.35-1.96.81-2.67.26-1.06-.8-.8-.54-1.87,1.07-4.86.28-8.52.27-14.41,1.14-3.25-.43-8.16.81-11.21-1.15-2.03-1.16-6.55.27-8.27-.57-1.85-.67-4.32-.81-6.4-.13-1.96.1-3.72.54-5.34-.85-1.47-.44-4.19-.54-6.4.82-4.19-.23-8.41.54-13.34-.42-1.27-1.01-2.38-1.34-3.74,1.79-1.72.79-4.19.54-6.4-.58-5.07.57-10.34.27-15.74-.09-1.71-.5-3.36-.54-5.07-.2-9.56-.13-17.29.54-25.08-.83-6.03-.18-12.85-1.61-18.67-.1-3.7.8-7.12,0-9.87-4.07-1.29-9.38-.09-12.61-1.33Zm15.56,97.38c-.21.06-.53,0-.54.27.21-.06.53,0,.54-.27Zm.81,4c.02-.16.04-.32.27-.27-.03-.33-.08-.63-.54-.53.04.31-.05.76.27.8Zm2.15,1.87c.31,1.05.31-1.05,0,0h0Zm0,57.63c.49-.52-.24-1.33-.81-1.6,0,.79-.02,1.62.81,1.6Zm-174.69,57.89c.31.65,1.26-.3.54-.53,0,.35-.47.24-.54.53Z"/>
  <path class="cls-6" d="m15.29,11.74c-.29,1.22-1.31,1.72-1.34,3.2.27.53.47,1.14,1.07,1.33.79.07.82-.6,1.61-.53.61-2.35-1.3-3.43-1.07-4.54,3.26-.53,5.31-.94,8.32,0,3.77-1.48,10.5.06,13.69-1.33,2.12.29,4.99-.16,5.9,1.33.84.12.76-.67,1.08-1.07,2.39.71,5.35.36,7.78.27.46.53,1.35.61,1.07,1.87.91-.25.73-1.58,1.61-1.87,6.73-.37,12.91-.79,19.86,0,1,.1.7-1.08,1.88-.8,3.06.57,7.8-.02,10.73,1.33.94-.93,3.3-.45,4.29-1.33,1.85.74,5.51-.32,6.44,1.33,2.85-.78,6.62-.47,10.46-.8.72.74-.25,1.32-.27,2.13,1.4.15.61-1.88,1.61-2.13,2.17-.11,3.7.41,5.1,1.07.99-.92,1.86-.5,3.49-.53.65-.01,1.35-.51,1.88-.53,2.97-.14,6.29.65,9.39.53.7-.03,1.47-.47,2.15-.53,3.59-.36,7.3.37,10.73-.53.31.32.3.94.27,1.6.63-.09.26-1.16.8-1.33,3.04.9,6.41.42,10.2.27,1.24-.16.75,1.38,1.61,1.6.87-.19.17-1.52.54-1.6,6.17-.7,10.82,1,16.1-.53,1.55.06,2.58.63,3.76,1.07,2.43-.11,4.08-.92,6.71-.27,2.01.5,4.51-.04,7.78-.27,1.01.07,1.5.64,2.42.8,7.8-.22,14.21.6,22.54-.27,1.38,3.34,1.33,7.7.8,11.47.85,3.94.92,7.74-.54,11.21,1.02,2.58.9,4.63,1.34,7.74.03.83-.33,1.27-.54,1.87.2,2.5.88,4.62.54,6.67-.16.98-1.24,2.14-1.07,4,.08.91.59,1.5.81,2.4-.79,4.46-.34,9.02.27,12.81-1.31,3.58.62,8.31-.81,12,1.98,3.23.47,8.94,1.88,12.27-.84,3.06.32,7.25-1.88,9.34.1.88,1.43.54,1.34,1.6-.9-.27-.42.83-.54,1.33.46,1.19-.37,2.2.54,2.67-.39.59-.18,1.78-.8,2.13,2.64,8.47-1.35,17.5,2.15,25.08-1.03,3.24-.92,7.15-2.15,10.67,1.18,8.54.57,16.28-.27,25.08-.04.84.71.89.54,1.87-.03,1.66-.44,2.94-.27,4.8,2,6.82-.46,15.56,1.34,22.68-1.17,6.56.44,12.24.54,18.41-2.22,1.18-7.41,1.11-9.66,0-2.75.95-7.57.5-10.73-.27-1.28-.3-1.13.83-2.42.53-1,.11-1.57-.21-1.61-1.07-.6.47-.91,1.23-1.88,1.33-4.6-.17-7.84.49-11.27-.27-.96-.16-1.3.31-1.88.53-10.68-.32-19.81-.26-31.13-.27-.99-.17-1.84-.48-2.68-.8-.95-.14-.66.95-1.61.8-6.63-.56-14.91.57-21.2-.27-4.98,1.05-10.59.2-16.37.27-2.5.03-4.85.67-6.98-.53-2.55.59-5.45,1.06-8.32,0-5.56.78-12.24.41-17.71,0-5.46-.41-10.96.95-16.1-.27-1.17.66-3.9.76-6.17.27-.19-.04-.74-.53-.81-.53-2.26-.13-4.47.78-6.44-.27-2.49.37-4.88.62-6.98.53-.92-.04-1.88-.57-2.68-.53-.74.03-1.18.64-1.88.8-.85.19-2.27.05-3.22,0-.95-.05-2.01.07-2.95-.53-.48-1.13-.11-3.09-1.61-3.2-1.33.46-1.06,2.5-1.88,3.47-4.09-1.79-7.49.27-11.54-.27-2.07-8.39.34-18.72-1.08-26.41.65-.86,2.36-.68,3.22-1.33-.3-1.4-2.34-1.05-2.95-2.14-.11-6.92-.93-14.24-.54-21.34.27-4.85,1.48-9.7-.27-13.87,1.78-6.82-.8-16.9,1.07-23.21-1.56-2.91-.87-8.48-.81-13.07.01-.85-.3-1.63-.27-2.4.03-.66.44-1.18.54-1.87.62-4.48-1.23-10.03,0-15.21.68-.75,2.14-.72,2.68-1.6.09-2.14-1.52-2.58-2.68-3.47.18-9.47-.21-18.09-.54-27.21.06-1.36,1.67-1.18,2.15-2.13-3.38-9.07.44-23.76-1.61-32.01.85-3.51-.35-6.97.81-10.67-.75-2.36-1.34-5.14-.54-7.74,1.55-.41,3.59-.34,5.1-.8Zm126.12.53c.75.43.74-1.15.27-1.07-.08.36-.38.51-.27,1.07Zm-87.75,1.07c1.29.06,1.02,1.66,2.68,1.33.76-.5.51-1.98.54-3.2-1.3.4-2.37,1.03-3.22,1.87Zm22.81,0c.79.64,1.98.88,3.49.8.17-1.68-.49-2.54-1.88-2.67-.78.38-1.36.96-1.61,1.87Zm86.68-1.87c-.68,1.17.96,1.52,0,0h0Zm-42.4,4.54c2.06.53,3.66-.49,4.29-2.13-1.54-.61-2.93-2.77-5.1-1.87.01,1.04-.55,3.08.81,4Zm23.61-4c-1.72.77-2.08,2.47-1.61,4.8.67-.22,1.44-.35,2.42-.27.28-.97,1.26-1.24,1.07-2.67-.61-.64-1.18-1.32-1.88-1.87Zm24.69,1.33c.04-.66.05-1.29-.54-1.33-.41.38-.26,1.39.54,1.33Zm1.34.27c.55.87,1.36,1.5,2.68,1.6.92-.54,1.07-2.38.27-3.2-1.73-.2-2.9.14-2.95,1.6Zm17.44,1.07c.42-.39.24-1.37.27-2.13-1.31.47-.9-.21-1.88-.53.18,1.25.13,2.71,1.61,2.67Zm-119.14-.53c.83-.03.76.84,1.88.53.53-.56.21-1.77,0-2.4h-1.08c-.59.3-.61,1.17-.8,1.87Zm44.28,1.87c2.9.72,3.42-1.64,2.68-3.74-2.67-.33-4.56,1.87-2.68,3.74Zm-74.6-1.07c.97.35,2.56-.06,2.68-1.33-.94-1.82-4.76-.95-2.68,1.33Zm23.35-1.87c-.22,2.09.64,3.1,2.68,2.93.68-.78.93-1.73.53-2.93-1.04-.38-2.41-.78-3.22,0Zm31.93,2.13c.98.17,1.43-.18,1.88-.53.55-3.6-4.17-1.65-1.88.53Zm38.1-1.6c-.73-.19-.54.53-1.07.53-.64-.25-.71-1.07-1.88-.8-.82.84-.42,2.2-.27,3.47.81.36,2.14.36,2.95,0,.66.31-.65,1.11.54,1.07.5-.94-.21-.88-.54-1.6,1.95.03.65-4.07-.27-3.47.34.11.55.34.54.8Zm-108.68,2.4c.84.13.71-.72,1.34-.8-.12-.86-.52-1.44-.54-2.4-2.63-.6-2.6,2.86-.81,3.2Zm83.19-1.33c1.09-.11,1.69.27,1.61,1.33-1.11-.31-1.04.56-1.88.53-.57,2.53,1.69,3.85,3.22,2.67.28-2.23-1.28-2.64-1.07-4.8-1.27.36-.9-2.29-1.88-1.33.75.27-.08,1.13,0,1.6Zm28.98-1.87c-1.08,1.15-1.9,2.55-2.42,4.27,2.08.46.45-2.76,2.42-2.4v2.13c3.2,3.39,4.8-4.83,0-4Zm22.54.27c.06,1.18.29,2.2,1.34,2.4.82-.34.92-1.4.81-2.67-1.26.05-.89.69-2.15.27Zm6.71,1.33c.47.39,1.53-.25,1.61-1.07-.21-.06-.31-.22-.27-.53h-1.07c-.31.32-.3.94-.27,1.6Zm-68.43-.8c.27.71.44,1.52,1.34,1.6.63-.63-.04-1.31,0-2.13-.86-.23-.83.42-1.34.53Zm3.76.27c-.22,1.82.27,2.93,1.61,3.2.68-.21,1.3-.48,1.61-1.07-.12-1.99-1.66-3.78-3.22-2.13Zm40.79-.53c0-.27-.47-.34-.54,0,.06.32.3.16.54,0Zm-93.92,1.07c.5-.04.9-.18,1.07-.53-.42-.02-.21-.68-.8-.53-.08.36-.38.51-.27,1.07Zm132.83.27c-.03-.68-.05-1.37-.8-1.33-.05.76-.03,1.46.8,1.33Zm-94.99,1.6c.34,1.55,3.13,2.21,4.29,1.33.47-3.28-4.25-5.18-4.29-1.33Zm61.18,5.34c-3.99.49-9.27-.93-13.15,0-1.24-.54-2.45-1.12-3.49-1.87-3.28-.62-7.35.23-9.39-1.07-1.17.65-2.61,1.43-4.29.8-3.04,2.22-6.17,4.36-9.93,5.87-2.43,3.09-5.96,5.11-6.71,9.87-2.3,1.45-.94,6.54-3.76,7.47-1.29-1.83-1.4-4.7-1.07-7.47-.68-1.46-.81-3.46-1.61-4.8-.1-5.5-4.82-6.42-6.98-9.87-2.99-.71-5.45-3.13-8.85-3.2-2.18-.05-4.2,1.05-6.71,1.07-.47.87-1.34,1.34-1.61,2.4.37,1.15,1.94,1.09,2.15,2.4-.32,1.28-2.3.91-3.49,1.33-2.36,2.38-.59,6-.27,9.34,2.15-.29,3.65-3.47,5.63-4.8,2.21.07,4.06-.51,5.37,0-.33,1.59-1.67,3.33-.54,4.8,2.24-.06,3.94-1.17,5.9-1.07,3.5.17,5.82,3.11,7.25,5.6-.31,2.47.8,4.57.54,6.14,1.48,1.64,2.25,3.98,2.68,6.67.31.67,1.07.89,1.07,1.87v2.67c.9,1.06,1.02,2.9,2.15,3.74.23,4.4,3.05,6.22,4.56,9.34,1.43.45,1.99,1.75,3.22,2.4,1.18.11,2.08-.07,2.68-.53-1.48-4.22-4.25-7.16-6.17-10.94-.08-.62.04-1.02.27-1.33-1.93-.87-2.41-4.02-1.61-6.14.59.19.89,1.25,1.61.53.14-.75.4-1.39.54-2.13-.68-1.1-2.57-1-3.22-2.13.45-1.3.26-2.68.81-3.73.44-.84,1.31-1,1.61-1.87-.31-.32-.3-.94-.27-1.6h1.07c-.57-3.5,2.22-3.66,2.42-6.4,2.82-1.64,4.32-4.59,6.71-6.67.76.22.69-.38,1.34-.27,3.07-3.85,10.68-5.29,16.64-3.2,2.73,2.16,6.46,2.89,9.12,5.6,1.07,1.88,2.39,3.5,3.22,5.6-.74,1.61.74,3.12,1.34,4.27-1.6,2.86-1.84,6.82-1.34,10.67,1.83.12,2.39-2.18,2.95-3.47,1.84-4.21.21-12.39,0-17.07-.64-.96-1.7-1.51-1.88-2.93,3.95-.42,7.92-1.09,11-2.4,1.51-1.7,2.53-3.89,2.95-6.67-.76-.85-1.18-2.03-1.34-3.47-.96-.16-1.36-.28-2.41-.8.13,4.13-3.16,7.04-6.71,7.47Zm31.4-6.4c.51-.11,1.15-.1,1.07-.8-.51.06-.59-.3-1.07-.27v1.07Zm-9.12.53c.93-.05,1.74-.22,1.61-1.33-1.02.78-.48.65-1.61,0v1.33Zm25.49,0c.15.83.81,1.15,1.07,1.87-.06-1.04.28-1.67,1.07-1.87.19.82-.46.78-.27,1.6,1.01-.42,2-.86,2.41-1.87-.84-.13-1.05.38-1.61.53-.31-.76-1.43-.71-1.61-1.6-.32.49-.7.9-1.07,1.33Zm17.44.27c.32.31.95.3,1.61.27.16-.87-.18-1.24-.27-1.87-1.12-.13-1.29.68-1.34,1.6Zm-118.34,0c-.06-.5.3-.59.27-1.07h-1.08c-.04.67.41.84.81,1.07Zm101.17,64.03v-.27c-1.63-.89-.32-3.44-.27-5.87.08-3.58-.29-7.41-.81-10.41,1.14-3.28.26-6.69,1.34-9.6-1.15-3.69.02-8.16-.54-12.54.22-.81.99-2.03.27-2.93.97-1.35,1.46-3.17,1.88-5.07.77-1.4,2.35-2.71,2.15-4.27,1.67-.91,2.18-2.94,3.76-4,1.66-1.11,4.14-.93,5.1-2.93-.36-1.53-.95-1.93-1.34-2.93.47-1.1,1.97-.84,1.88-2.4-.06-1-.76-1.8-2.15-1.33-.28,1.74-.42,3.9.54,5.07-.55.08-.53.72-1.08.8-3.13-.06-5.35.05-7.78-.27-2.16,1.58-5.42.8-8.59.8-2.77,0-5.83.93-8.05-.27-3.69,1.35-7.13-.52-11,0-.68.39-1.2.94-2.15,1.07-2.67.27-6.22-.29-8.86-.27.2,1.76,2.17,1.75,3.22,2.67,1.78.05,1.94-.17,3.22-.27,4.53,1.9,10.32,2.55,12.88,6.4,1.21-.23,1.34.62,2.15.8.34,1.9,2.18,2.91,2.68,5.07.46,1.99-.04,4.66.27,7.2.14,1.16.73,2.38.81,3.47.06.91-.3,1.73-.27,2.67.07,2.02,1.21,4.13.8,6.14-1.5,1.96-.21,4.25,0,6.94.22,2.78-.48,5.9-.27,8.54.08,1.08.71,2.09.8,3.2.18,2.16-.59,4.54-.8,6.94-.19,2.1.21,4.02-.81,5.6,1.6,1.66.32,5.54.27,8,1.41,2.06-.02,6.38,1.07,8.8-1.24,5.94-.06,11.64-.8,18.14-.02,1.09.88,1.26.53,2.67.06,1.31-.82,1.68-.8,2.93.72,2.98-.02,5.95.8,8.54-1.38,4.69.77,10.69-.8,14.67.56,2.02.14,5.02.27,7.47.62.9.98,2.04.8,3.74-2.68,3.91-8.05-2.63-8.05-6.4-3.62-1.91-5.31-5.75-9.12-7.47-.84-2.63-3.42-3.53-4.83-5.6-1.06-1.7-2.07-3.46-4.03-4.27.29-1-.67-.76-.54-1.6-1.26-.17-1.68-1.17-2.68-1.6-2-3.61-5.96-5.28-8.32-8.54-.21-.5-.45-.98-.54-1.6-5.29-5.15-10.35-10.52-15.56-15.74-5-8.64-13.74-13.55-19.05-21.88-1.58-1.01-2.89-2.28-3.76-4-1.66-.13-2.39-1.18-3.49-1.87-.57-2.63-2.51-3.91-4.56-5.07-.54-2.4-3.09-2.8-3.22-5.6-1.86-.55-3.32-1.5-3.76-3.47-1.05-.46-2.41-.63-2.95-1.6.06-.83-.18-1.96.27-2.4-1.65-.85-3-2-4.56-2.93-.33-.83-.88-1.43-1.61-1.87-.69-.38-.31-1.83-1.34-1.87-.46-.52-1.39-.58-2.42-.53-2.24-2.58-3.63-5.99-6.98-7.47-.14-1.02-.88-1.43-1.08-2.4-4.09-2.6-6.57-6.8-10.46-9.6-.59-.84-.84-2.01-1.07-3.2-2.86-1.51-3.94-5.95.54-6.67,1.06.28.9,1.77,2.15,1.87.36-.77-.52-2.1-1.34-1.87.13-1.02-.08-1.7-.54-2.13-1.63-.76-3.92.58-5.63-.27-4.78,2.01-12.36.7-18.25,1.07-1.44.09-2.84.82-4.29.8-.58,0-1.27-.47-1.88-.53-1.86-.18-3.72-.06-5.64.27-2.61-1.51-4.26.16-7.51.53.85.22,1.69.45,1.88,1.33,3.03-.25,5.1,2.75,6.71,4.8,1.95.64,3.06,2.11,4.56,3.2-.01,1.44,1.35,1.5,1.61,2.67-.52,3.47.5,6.6.54,9.6.04,3.21-1.05,6.01.54,8.8-1.15,2.8.08,6.62,0,10.14-.05,2.13-.69,4.04-.54,6.14.11,1.56.55,3.38.27,5.6.53,1.16,1.38,2.01,1.61,3.47-2.05,2.45-.77,6.97-1.07,12-.11,1.9-.52,3.48.27,5.07-1.02,4.14.32,9.3-.54,13.61,1.43,3.93.2,9.43.81,14.41-1.28,3.16.62,8.1-.81,11.74-.05,1.24.72,1.6.81,2.94.1,1.69-.61,3.56-.54,5.34.02.58.45,1.3.54,1.87.68,4.61.04,11.8.54,17.07.05.53.47,1.07.54,1.6.55,4.31-.04,7.37,0,11.47.03,3.4-.58,6.92-.54,10.14.07,4.97-.91,9.04-4.02,12.54-2.53.37-4.27,3.94-6.98,2.4.93,1.44-1.33.87-1.34,2.13.59,1.63,4.34.14,5.37,1.34.06-1,1.1-1.04,1.88-1.34,3.02-.07,5.91,0,8.32.53,1.52-.52,2.46-.35,4.03-1.07,3.58.09,5.8-.85,8.05.53,3.7-.48,9.5.91,13.69.27,1.08-.17,3.04-.41,3.22-1.87-2.41-.27-3.84-1.52-6.97-1.07-2.77-.65-6.75-1.62-9.39-3.2-1.83-3.21-5.86-4.87-6.71-9.07-.16-.77.22-2.03,0-3.2-.25-1.33-.18-2.27-.27-4.27-.05-1.06-.59-2.2-.54-2.94.04-.58.57-1.24.54-1.87-.06-1.15-.89-2.31-.81-3.47.21-2.35,1.6-4.1,1.07-6.4.5-.74,2.23-.27,2.15-1.6-.44-1.34-2.48-1.1-2.95-2.4,0-1.87-.17-3.9.54-5.07-1.28-1.63-.52-4.23-.54-6.67-1.55-3.99-.41-9.48-.27-13.61.06-1.87-.81-3.56,0-5.07-2.35-4.6.47-12.41-.8-17.34.81-8.03-.64-17.34.27-25.61-2.02-3.83-1.38-11.37-.8-16.27.65-1.01,2.62.78,2.68-.53,1.28-1.47-1.97-2.29-2.95-3.2-.49-2.8-.7-5.88-1.34-8.54,1.94-3.91-1.14-7.08-.8-11.74,1.91-2.55,5.21.42,6.44,2.67.55,1.01.75,2.26,1.34,3.2.98,1.56,3,3.31,4.29,5.07.6.82.97,1.62,1.61,2.4,1.21,1.49,2.21,2.19,2.41,4.54,2.11.83,2.8,3.09,4.83,4,.02.73-.45.54,0,1.07,2.82.93,4.19,3.3,4.83,6.4,1.53-.28,1.57.93,2.68,1.07.24.56.42,1.19.8,1.6,6.13,2.97,8.19,10,13.15,14.14.51,1,1.11,1.92,1.61,2.93,2.92,1.63,4.63,4.47,6.98,6.67,1.24,3.21,3.93,4.99,5.64,7.74,2.41.89,3.14,3.46,5.37,4.53.91,1.99,2.72,3.17,4.29,4.8,1.76,1.83,3.04,4.22,4.83,5.87,1.22,1.12,3.17,1.92,4.29,3.47.46,1.05,1.29,1.74,1.61,2.93,4.09,2.34,5.63,7.2,9.39,9.87.69.91,1.46,1.76,2.15,2.67,3.28,1.18,4.4,4.52,6.17,7.2,1.67.58,2.69,2,3.76,3.47,2.36,3.26,5.69,6.45,9.12,9.07.46.52.61,1.35,1.07,1.87,4.25,2,5.65,6.84,10.2,8.54.74,1.93,2.79,2.56,3.22,4.8,2.81,1.57,4.5,4.25,7.51,5.6,1.92,2.89,4.15,5.48,7.51,6.94.95,2.58,3.59,3.55,5.63,5.34,1.62,1.41,2.75,3.6,5.1,4,2.16,2.21,3.37,5.37,6.98,6.14-.96-1.71.03-5.36-1.34-6.67,1.28-1.78-.88-6,1.61-6.94-1.38-1.09,1.4-1.99-.81-2.67-1.27-.35.62,1.27-.8,1.07-.25-1.56.23-1.57-.54-3.2-.04-5.21-.99-11.09.27-17.07-1.29-3.84-.26-8.14-.27-12.54-.01-7.16-.89-14.72-.27-21.61.19-.96,1.56-.76,1.61-1.87-2.22-.28-1.41-3.58-2.42-5.07,1.43-1.23.88-2.82,1.08-5.34-.91-2.73-.33-6.2.54-8.8-1.09-2.93-.15-7,.27-9.6-1.14-3.02-.07-7.52-1.34-9.87.76-1.77,1.84-4.73,1.07-6.4.28-.52.54-1.07.8-1.6-1.05-4.24-1.33-10.72,0-14.67v.27h.27c.12.5-.37,1.61.54,1.33.87-.52.37-2.33-.54-1.6v-.27h-.27ZM68.96,16.54h.53v-.53h-.53v.53Zm114.31-.27v1.07c.32.31.95.3,1.61.27.31-1.27-1.12-1.69-1.61-1.33Zm15.03,1.6c.53.36,1.53.25,2.15.53,1.5-2.61-2.09-2.97-2.15-.53Zm-24.42.53c.24,1.34,2.99,1.89,4.02.8.45-3.19-3.42-3.13-4.02-.8Zm-12.88.27c0-.71.1-1.52-.27-1.87h-.81c-.33.47-.32,2.29,1.07,1.87Zm5.9.27c1.22-.21,2.51-.35,2.95-1.33-1.34.35-1.14-.82-2.15-.8-.34.64-.98.98-.81,2.13Zm-115.39,3.2c0,.26.33.21.54.27.79-.37.77-1.54,2.42-1.07.72-.53.59-1.91,1.07-2.67.51.11.49.76,1.34.53-.29-1,1.01-.42.81-1.33-.92-.47-1.73.05-2.42.53-.68-.16-.93-1.01-1.34-1.07-1.89-.27-2.49,2.46-1.61,4-.12.24-.24.48-.54.53v-.27h-.27c-.22-.19-.73-.42-.8,0,.22.14.43.28.8.27l-.13.13.13.13Zm40.25-.53c.76.86,2.01,1.37,3.49.8.21-1.27-.42-1.72-.27-2.93-.76-.85-2.37-.85-2.95-1.87.18,1.6-.24,2.6-.27,4Zm46.96-3.2c.04-.32.47-.61,0-.8-.04.32-.48.6,0,.8Zm5.9.27c-.05-.4.1-.99-.27-1.07-.35.36-.35.99.27,1.07Zm18.78-.53c.68,1.1-.32,1-.54,1.87.96.16,1.3-.31,1.88-.53v-1.6c-.65-.11-.58.49-1.34.27Zm-118.88.8v1.87c.9.41,2.75.98,3.49,0-.21-2-1.82-3.47-3.49-1.87Zm15.56,2.67c.82-.07,1.2-.58,1.88-.8.25-4.36-4.31-2.02-1.88.8Zm-23.08-.53c.98.17,1.43-.18,1.88-.53.17-3.15-3.66-1.29-1.88.53Zm158.05-2.13c.31,1.05.31-1.05,0,0h0Zm11.54,1.07c.69-.03,1.38-.05,1.34-.8-.51-.06-.59.3-1.07.27-.03-.33-.08-.63-.54-.53-.02.46.06.83.27,1.07Zm-186.23,1.07c.51.56.73,1.41,1.88,1.33.47-.24.83-.6,1.07-1.07-.11-2.5-2.42-2.46-2.95-.27Zm-8.59-.8h.81v-.53h-.81v.53Zm2.68-.53c-2.38.71-.39,5.12,1.61,2.94-.14-1.37-.46-2.57-1.61-2.94Zm14.76,3.74c.96-.65,1.85-1.37,1.61-3.2-2.46-2.13-4.61,2.85-1.61,3.2Zm69.77-.27c.75.8,2.82,1.15,3.76.27-.05-1.03-.01-1.97.27-2.67-1.86-1.84-4.14-.52-4.03,2.4Zm64.4-1.33c.75.04.77-.65.8-1.33-.84-.12-.86.57-.8,1.33Zm1.88-.27c.08-.16.67-1.03,0-1.07-.08.16-.67,1.03,0,1.07Zm-66.28,5.33c-.19-1.06-.19-1.07,0-2.13-1.19-.51-1.61-1.78-3.76-1.33-1.88,3.02,1.62,4.94,3.76,3.47Zm112.44-.8c.7.11.81.8,1.61.8-.17-.97.58-1.02.54-1.87-.43-1.55-2.71-1.18-2.15,1.07Zm-1.34-.8c1.35-1.07-.94-1.25,0,0h0Zm-191.87.27h.54v-.53h-.54v.53Zm104.92,2.13c.92-.95,2.23-1.52,2.95-2.67-1.49.21-2.97,1.85-2.95,2.67Zm33.54-.27c.75,1.21,2.26,1.67,3.49,2.4.04-.94,1.32-.64,1.08-1.87-.91-.53-1.33-1.53-2.15-2.13-1.46-.12-2.7-.02-2.41,1.6Zm-38.37-.53c.67.22,1.05.73,1.88.8-.32-.75-.44-1.7-1.61-1.6.01.37-.13.59-.27.8Zm87.48,1.87c.83-.2.51.73,1.34.53.64-.17,1.25-.36,1.34-1.07.05-2.24-3.48-2.53-2.68.53Zm4.02-1.6h.8c.05-.58-.22-.85-.8-.8v.8Zm-44.54,3.47c.71-1.64.06-3.64-2.15-3.2.06,1.72,1.12,2.45,2.15,3.2Zm-68.16-1.6c1.06.61,1.19-1.63.27-1.33.22.75-.38.69-.27,1.33Zm22.27,2.13c1.49.14,2.63-.05,2.95-1.07-1.16,0-.99-1.33-2.15-1.33-.6.47-.53,1.61-.8,2.4Zm6.44-2.13c-1.75,2.41,2.16,4.44,2.95,1.6-.48-.59-1.24-.9-1.34-1.87-.82-.19-.79.46-1.61.27Zm27.91,2.67c.31.04.29.42.27.8,1.29.14,2.08.78,3.76.53,1.69,4.81,7.74-1.18,2.42-2.4-.95.12-1.55.59-2.68.53-1.21-1.5-3.61-2.85-3.75.53Zm-41.59-1.07c-.28.62-.92.86-.8,1.87.52.81,1.41,1.26,1.61,2.4,1.54-.16,1.72-1.67,2.68-2.4.74.7,1.48-.1,1.61-.8-1.08-.26-1.18-1.49-1.88-2.13.08,1.5-1.85,1.01-3.22,1.07Zm59.3.53c-.61-1.31-2.95-2.16-4.83-1.33,0,2.67,1.74,3.6,3.22,4.8.13-1.56,2.15-1.24,1.61-3.47Zm29.52-.8c.09,2.65,3.28,1.98,3.22-.27-1.38-.5-2.17-.5-3.22.27Zm9.12-.53c-.9-.81-.81.99,0,0h0Zm-91.77.8v-.8h-.8c-.05.58.22.85.8.8Zm32.47,12.54c.54-1.47-.74-2.33,0-4,.87.15,1.35-.08,1.61-.53-.47-1.58-.8-3.29-1.61-4.54.46-.61.76-1.38,1.08-2.13-.4-1.75-3.59-2.76-4.29-.53-.11,1.79,1.62,1.76,1.88,3.2-.55,1-.42,2.63,0,4-1.02.24-1.06,2.85-.54,3.74.55-.79,1.38.38,1.61.8h-.27v.27c-1.36,2.74-4.49,3.71-4.83,7.47,4.39.33,6.14-4.7,10.47-2.67-2.06,2.85-8.07,1.76-9.12,5.6.26.98,1.17,1.32,1.61,2.13,4.56,0,5.96,3.15,10.47,3.2,1.65-1.11,4.06-1.48,6.44-1.87,1.57-1.55,4.18-2.07,5.63-3.74,2.24-.29,3.49-1.42,5.37-1.07,2,.37,2.84,3.51,5.1,2.4,0-2.05-1.33-2.77-2.42-3.73-.26-1.79-1.85-2.25-2.15-4-1.58-1.09-3.13-2.22-5.9-2.13-2.03-2.85-5.65-1.77-10.46-2.4-1.11-.15-1.77-.62-2.68-.53-2.37.22-3.94,2.43-6.98,1.33l.14-.13-.14-.13ZM14.22,31.75c.31,1.05.31-1.05,0,0h0Zm4.56,4.8c1.58-.24,1.53,1.15,2.68,1.33,1.08-2.31.94-5.89-1.88-6.4-.72,1.61-1.85,3.12-.81,5.07Zm112.7-3.73c.02,1.58,1.44,1.77,2.68,2.13.43-.73.7-1.61.8-2.67-1.06-.95-3.06-1.06-3.49.53Zm-13.95,1.6c-.83.27-1.04-1.42-1.61-.53.35,0,.34.74,0,.8-.64.11.15-1.21-.81-.8.2,1.8.38,1.97.54,3.73,1.93.14,3.41-.17,3.76-1.6-.98-.19-.46-2.03-.27-2.67-1.21-.26-.4-.67-.27-1.6-2.07-.15-.62,1.78-1.34,2.67Zm54.74-2.4c.31,1.05.31-1.05,0,0h0Zm36.76,0c.31,1.05.31-1.05,0,0h0Zm4.29,2.13c.19-1.52-.52-2.15-1.61-2.4-.35.27-.99.26-1.34.53v2.13c.93.1,1.99.88,2.95-.27Zm-8.59-.27c.03.66.5.83,0,1.33.65.51,1.62.7,2.41,1.07.05-1.64.4-2.3-.27-3.47-1.01.06-1.3.84-2.15,1.07Zm-5.1,2.93c.79.07.83-.6,1.61-.53.15-3.78-4.11-1.68-1.61.53Zm-136.32-1.33c1.09.16.85-1.1.27-1.33-.22.31-.35.72-.27,1.33Zm33.81-.53h.81v-.53h-.81v.53Zm68.7,0c-.3,3.11,1.94,2.31,3.22,2.13.39-1.55-.54-1.78-.81-2.67-1.12-.14-1.82.15-2.42.53Zm7.25,1.6c.93-.21,1.03.4,1.88.27v-1.87c-1.03-1.01-2.26-.23-1.88,1.6Zm-45.08-.53c-1.7-1.59-5.57-1.77-6.17,1.07.39,1.04,1.28,1.57,2.42,1.87,2.66-1.68,4.77.21,7.25.8.56-.78.94-1.73,1.07-2.93-.85-.23-1.12-1.02-1.88-1.33-1.09-.02-1.27.87-2.68.53Zm-19.32-.53c-.92,1.27.02,2.41-.27,3.47,3.53,1.27,2.99-2.48,2.95-4-.54,1.12-1.69-.03-2.68.53Zm100.36,0c-.17,1.32.91,1.41.54,2.93,1,.29.76-.66,1.61-.53-.19-.84-1.14-1.87-.54-2.67-.82-.19-.98.27-1.61.27Zm-38.37,1.6c.12-.51.77-.48.54-1.33h-1.07c-.04.66-.05,1.3.53,1.33Zm-88.01-.53c-.21.92.3,1.13.54,1.6,1.17.18,1.48-.48,1.88-1.07-.42-.96-1.52-1.38-2.41-.53Zm55.82,1.87c.06-.21,0-.53.27-.53-.03-1.48-1.23-1.8-2.68-1.87-.88,1.51.46,2.85,2.41,2.4Zm15.3-1.07c.29.95.92,1.57,1.88,1.87.64-.34,1.09-.87,1.08-1.87-.51-.8-2.8-1.85-2.95,0Zm-84.8-.53c.11,1.23,1.63,1.04,2.15,1.87-.24-1.02-.89-2.71-2.15-1.87Zm91.24.27v1.87c1.12.8,1.49.92,2.68,1.33.09-1.48.93-2.27,0-3.47-1.22-.1-1.87-.44-2.68.27Zm44.54.27c-.44,1.11.42,2.39,1.07,3.2-.21-1.18.89-1.07,1.34-1.6-.22-.67.52-2.3-.54-2.13-.17.63-1.65-.04-1.88.53Zm-127.46.8c.45.42,1.55-.03,1.34-1.07-.63.17-1.25.36-1.34,1.07Zm-62.25,2.4c.21-.86.37-1.77.8-2.4-3.24-3.08-5.14,3.46-.8,2.4Zm157.78-2.67c-.36-.08-.51-.38-1.07-.27-.43.74,1.16.74,1.07.27Zm37.84,2.13c.78.2.7,1.26,1.88,1.07.9-.26,1.03-1.29,1.34-2.13-1.58-.98-2.73-.84-3.22,1.07Zm-185.16,2.4c.55-.08.53-.72,1.07-.8.12-1.63-.63-2.39-1.61-2.93-2.68-.1-.84,3.78.54,3.74Zm76.75,2.13c-.12,1.18.45,1.69,1.34,1.87,1.05-.48-.26-1.66.54-2.4,2.78.2,4.13-2.05,4.29-4.8-1.13.56-2.56.14-3.49-.27-1.64,1.7.62,5.63-2.68,5.6Zm67.89-2.93c.84-.13.95.48,1.88.27,2.34-3.03-3.29-3.87-1.88-.27Zm-97.95,0c.96.74,2.81.68,2.95-.8-.55-1.41-3.57-2.15-2.95.8Zm101.7-.8c.39-.23.85-.4.8-1.07-.54-.05-1.11,1.17-.8,1.07Zm3.49,1.07c.81-.54.64-2.35-.8-2.13-.48.92.02,1.75.8,2.13Zm-41.32-1.6c-.4.39-.4,1.75,0,2.13,1.87.52,1.53-1.15,3.22-.8,0-.71.15-1.57-.54-1.6-.37.61-1.87.1-2.68.27Zm-3.22.27c-.23,1.58.16-1.07,0,0h0Zm64.67,2.4c1.15-.24,2.19,0,3.49-.53.09-.98-.3-1.48-.54-2.13h-2.41c-.59.49.05,2.18-.54,2.67Zm-118.61-2.13c-.4,1.83,3,2.76,3.22.8-.32-1.24-1.96-1.19-3.22-.8Zm5.64,2.13c1.19.12,2-.15,1.88-1.33-.57-.32-.78-1-1.61-1.07-.35,1-1.22,1.4-.27,2.4Zm66.55-1.87h.54v-.53h-.54v.53Zm-20.39,1.6c-3.86-1.51-9.05-1.64-14.22-1.87-1.1.25-1.38,1.3-2.41,1.6-1.28.1-2.01.15-2.68.27-1.42,2.14-4.02,3.12-5.1,5.6-.23,3.03-2.35,5.41-1.61,8.54,2.19.31,1.84-1.91,3.49-2.13.82.3,1.24.19,2.42.53.86-.12,1.46-.51,2.42-.53,2.45.55,2.96-.07,5.9,0,1.85,1.72,8.09,1.67,11,.8,2.77-.83,3.23-2.03,2.95-3.74-2.4-1.71-8.01-.22-9.12-3.2.26-.36.72-.53,1.07-.8,2.8,1.11,7.96,2.47,11.27,1.33-.63-3.28-3.5-4.34-5.37-6.4Zm84.8-1.07c-.23,1.58.15-1.07,0,0h0Zm-196.96,2.67c.75.34,1.33.66,2.15.27.8-2.84-2.64-3.06-2.15-.27Zm51.25-1.6c.36.08.51.38,1.07.27v-.53c-.02-.16-.04-.32-.27-.27,0,.44-.75.15-.81.53Zm6.17,2.4c.62.36.89,1.07,2.15.8.15-.38.42-.65.8-.8-.38-.96-.22-2.44-1.34-2.67-1.12.31-1.82,1.04-1.61,2.67Zm136.85,9.07c-.87-3.75.83-6.8-1.61-9.6-1.9-2.37-6.27-2.49-9.66-1.33-.99,2.16-3.39,3.32-2.95,6.4.14.97.97,1.39,1.07,2.67,2.4,1.17,2.75,4.38,5.64,5.07.93-1.03,3.12-.81,5.1-.8,1.12-.49,1.33-1.87,2.41-2.4Zm-35.42-10.14c1.32.76-.87-.5,0,0h0Zm-94.46,2.4c.66.04,1.29.04,1.61-.27.06-1.04-.58-1.38-.8-2.13h-1.07c-.61.68-.11,1.88.27,2.4Zm-70.3,1.6c.36.26.54.71.81,1.07,1.29-.08,1.39-.37,2.68-.8.28-2.5-.5-3.94-2.68-4,.26,1.78-1.22,1.81-.81,3.73Zm15.03-3.47c.03.99.39.67,1.08.53-.03-.99-.39-.67-1.08-.53Zm58.5,2.93c-.45,2.93,2.13,2.86,2.68,4.8.66-.24,1.55-.24,1.61-1.07-1.42-.73-1.36-2.92-2.15-4.27-.98-.09-1.49.3-2.15.53Zm-61.72.53c-.07,1.76.95,2.43,2.42,2.67,1.04-1.74-.61-3.8-2.42-2.67Zm55.28,1.33c.86,1.1,1.83,2.1,3.22,2.67-.74-1.21.25-1.74.54-2.67-.69-1.51-3.44-2.25-3.76,0Zm-60.91,2.67c.78.76,2.74.71,3.22-.27-1.25-.45-.77-2.61-2.95-2.13-.45.44-.21,1.57-.27,2.4Zm66.55,1.6c.41.41,1.84.48,1.61-.53-.77-.06-1.36.07-1.61.53Zm3.76.8c.08-.36.38-.51.27-1.07-.91-.2-1.05,1.02-.27,1.07Zm49.64-.27c-4.46,1.44-8.3,3.49-11,6.67.15,1.72-.84,2.88-.81,4.27.09,4.15,4.5,7.58,6.98,9.34h2.15c1.61,1.79,3.69,2.25,5.9,2.93.08.81-.04,1.82.8,1.87.88-.72-.74-1.21-.54-2.13,1.07-.36,1.84-1.02,2.95-1.33-.18-2.84-2.6-3.46-3.49-5.6-.08-2.14.19-2.87.81-4.27.8-1.84,2.51-3.68,2.68-5.07.18-1.43-.16-3.48-2.15-4-1.03,1.82-2.38,3.33-4.56,4-1.45,1.67-.13,6.91-3.49,5.87-.32-2.27.8-3.12.54-5.34,1.72-1.85,4.36-2.78,4.29-6.4-.71.08-.21-1.04-1.07-.8Zm-123.71,3.74c.48-.5.2-1.76.27-2.67-1.99-2.83-3.49,3.23-.27,2.67Zm5.1,0c1.34,0,2.45-.23,2.68-1.33-.23-1.02-.67-1.82-1.88-1.87-.88.38-1.5,2.11-.8,3.2Zm155.64-.27c.56-.82-.15-2.21-1.34-2.13-.31,1.12-.09,2.1,1.34,2.13Zm-86.67-.53c-.15-.48-.14-1.11-.54-1.33-.43.4-.39,1.52.54,1.33Zm-62.52-.27c.61,1.26.42,3.32,1.07,4.53,1.7-.08,1-2.11.27-2.67.66-.92.04-2.4-.81-2.67-.02.42-.68.21-.54.8Zm87.21,2.13v-1.6h-1.61c-.26,1.32.81,1.33,1.61,1.6Zm56.89,0c.97.99,1.51,2.41,2.68,3.2.02-1.92.37-4.04-1.88-4.8-.46.34-.73.88-.81,1.6Zm-80.77.8c.57-.6.19-1.76-.54-1.87-.72.49-.6,1.82.54,1.87Zm27.37.53c.3.95.92,1.58,1.88,1.87,2.9-1.26-1.25-5.4-1.88-1.87Zm81.04-1.33c-.32,1.15-1.59,2.02-.81,3.47.65.51,2.16.17,3.22.27.19-2.24-.6-3.5-2.42-3.74Zm-103.85.53c-.32-.04-.61-.48-.8,0,.32.04.61.47.8,0Zm107.61.27c-.21.06-.53,0-.53.27.21-.06.53,0,.53-.27Zm-93.92,2.94c.37-.88.4-2.59-.8-2.67-.95.45-.79,3.11.8,2.67Zm65.48,2.67c.52.82.61,2.06.54,3.47-.12.51-.77.48-.54,1.33-5.12,2.82-7.61,8.27-15.3,8.54-.7.37-.92,1.22-1.88,1.33-8.34,2.51-18.85,2.53-28.18,1.07-.68-.57-1.8-.7-2.42-1.34-4.8,1.23-9.06-5.33-11-.27,2.3,1.36,4.16,3.16,7.78,3.2.77.74,1.96,1.08,2.68,1.87,2.51-.43,6.81,1.59,9.12.53,2.92,1.34,5.39,1.07,9.66,1.07,2.13,1.04,4.64.05,7.25.53,2.22-.81,4.74-1.34,7.25-1.87.84-1.08,2.47-2.63,4.02-2.13.06,3.83-4.33,5.22-4.83,9.07-.14,1.08.34,2.18.27,3.2-.19,2.61-1.41,4.51-3.22,6.14-3.03.8-5.35,3.47-4.83,6.94-1.04,1.92-1.25,3.15-1.61,5.87.71.54.82,1.68,2.15,1.6.73-1.06.49-3.07,2.42-2.94,1.88,1.07.83,5.05,1.34,7.47.74,1.22.91,3.01,2.42,3.47.7-2.41,1.15-5.08,3.49-5.87,2.57,1.11,1.48,4.97,2.15,7.47,1.38,1.03,2.83,1.99,4.03,3.2.09.72.05,1.28,1.07,1.6v1.07c2.08,1.58,2.31,5,5.63,5.34.91-3.68-1.31-6.67-1.61-10.67,0-1.15,1.43-.9,1.07-2.4-1.02-1.33-4.77-4.5-1.61-5.87,1.7-.02,1.88,1.72,3.22,1.33.88,1.08,1.62,2.3,3.76,2.13,1.78-4.48-3.34-6.37-5.1-9.07-1.62-.52-2.86-1.43-3.49-2.93.43-2.43,4.59-.22,6.71-1.33-.57-3.96-4.2-4.9-6.44-7.2-2.18.22-3-.46-4.29-.27-1.7.95-.93,2.78-1.88,4.27-2.92.19-2.27-3.28-2.15-5.6.13-2.5.74-5.45.8-7.2,1.15-.64.93-2.64,2.68-2.67.75-3.44,2.04-6.33,3.76-8.8,4.07-1.91,6.31-5.65,8.85-9.07.31-4.04-.97-6.5-1.88-9.34.29-.49,1.48-.67.81-1.33-2.38.21-1.65,3.52-2.68,5.07Zm-7.25-1.87c.05-.22.27-.27.27-.53-.75-.5-1.04-1.46-1.34-2.4-2.66-.34-3.47,1.17-3.22,3.74,1.14-.11,2.76.26,3.49-.27v.27h1.88c.07,1.18,1,1.5,1.34,2.4,1.83.31,2.3-.74,2.68-1.87-.49-1.38-2.37-1.38-3.76-1.87.08.7-.37.88-1.07.8v-.27h-.27Zm-151.88,6.67c2.29,1.39,2.7,4.3,5.1,5.07,5.81,1.85,9.03-4.12,8.05-11.2-1.1-.95-2.04-2.06-3.22-2.93-1.48.3-2.91-.83-4.03,0-3.82,1.18-6.38,3.62-5.9,9.07Zm101.17-6.94c.62-.45,1.31-.83,1.34-1.87-.06-.3-.3-.42-.54-.53-.5.57-.72,1.42-.8,2.4Zm32.47-.27c.79.93,1.06,1.82,2.68,1.33.29-1.09.45-2.46-.27-3.2-1.79-.35-2.15.7-2.42,1.87Zm62.26-1.6c.26,1.18.04.7-.27,1.6.03.68,1,.43,1.34.8.97-.68.06-1.77.54-2.67-.66-.04-1.29-.04-1.61.27Zm-55.01.8c-.16,1.76.37,2.83,1.08,3.74,1.24-.63,2.51-1.24,2.42-3.2-.62-1.05-2.35-1.39-3.49-.53Zm48.84,1.07c.74.15,1.12.66,1.88.8.08-.63.93-.5.81-1.33-.43-1.37-2.92-1.44-2.68.53Zm-160.47.27c.82-.19.98.27,1.61.27.16-1.31-.26-2.05-1.61-1.87-.02,1-.3.76,0,1.6Zm71.38,2.13c.45-.85.46-1.12.27-2.13-.39-.41-1.37-.23-2.15-.27-.19,1.61.11,2.74,1.88,2.4Zm-7.78-1.33c.04,1.73.11,3.44,1.88,3.47.36-.27.53-.72,1.07-.8.2-1.53-.49-2.18-.8-3.2-1.05-.15-1.56.23-2.15.53Zm100.9-.53c-.97,1.26,1.57.36,0,0h0Zm-10.2,1.87c-.04-1.25,1.09.13,1.34-.53-.03-.77-.33-1.27-1.34-1.07.2.65-.66,2.16,0,1.6Zm-79.16-.27c.49,1.29,1.78,1.79,3.49,1.87-.02-.96-.42-1.54-.54-2.4-.92-.44-2.79-1.02-2.95.53Zm26.57,1.07c-.46,1.88.95,1.9,1.34,2.93-1.02,1.08-.7,2.65.27,3.74h2.42c.16-2.11-1.05-2.87-1.61-4.27-.1-.99,1.09-.7.8-1.87-.47-1.38-2.08-1.49-3.22-.53Zm7.51.53c.79-.02,1-.61,1.34-1.07-.65.11-.58-.49-1.34-.27v1.33Zm27.1-.53h.54c0-.27.22-.32.27-.53-.34-.01-.37-.34-.81-.27v.8Zm-18.78,2.4c.36-.08.51-.38,1.07-.27-.12-.92.11-1.49.27-2.13-2.18-1.87-4.19,1.96-1.34,2.4Zm-112.71-1.6c.31,1.05.31-1.05,0,0h0Zm149.47,1.87c.92-.06,1.17-.79,1.34-1.6-.45-.35-.9-.71-1.88-.53-.13,1.02.08,1.7.54,2.13Zm-78.89-1.6c-6.75-1.36-8.59,4.18-11.54,7.47.19,1.52-.45,2.22-.27,3.74.75.68.91,1.94,2.15,2.13,1.97-.53,2.48-2.51,3.22-4.27,2.58-1.26,3.43-4.23,6.98-4.54.5-.48.32-1.64,1.08-1.87-.39-1.04-1.21-1.65-1.61-2.67Zm45.62,1.87c.41.75,1.35.97,2.15,1.33,2.16-2.36-2.23-5.37-2.15-1.33Zm-118.61.53c.53-.56.21-1.77,0-2.4h-1.61c-.12,1.45-.02,2.69,1.61,2.4Zm162.62-.53c.55.79,1.4,1.28,2.68,1.33.77-1.05.19-1.57,0-2.93-.82.19-.79-.46-1.61-.27-.59.39-1.26.71-1.07,1.87Zm-159.39,1.33c.53.25,1.28.87,1.88.27v-1.07c-.84-.4-1.87-.31-1.88.8Zm102.78-.8c-.12,1.54.58,2.27,1.88,2.4.06-.21.22-.31.54-.27.08-1.06.01-1.97-.54-2.4-.85-.13-.95.48-1.88.27Zm7.78,2.4c.6.47,1.09,1.05,2.42.8.31-.58.69-1.09.54-2.13-1.24-1.16-2.8-.11-2.95,1.33Zm-35.96-1.33c-.16.96.31,1.29.54,1.87,1.19.12,2-.15,1.88-1.33-.37-.59-1.62-1.19-2.41-.53Zm4.03,0c-.23,1.58.15-1.07,0,0h0Zm74.87,2.67c.47.65,1.62.63,2.41.27.85-2.27-3.07-2.66-2.41-.27Zm-48.3,1.07c1.5.23,2.38,1.6,3.76.53.59-3.74-3.64-3.36-3.76-.53Zm42.4-1.6c.31,1.02.49,2.18,1.61,2.4,1.75-1.27,0-4.52-1.61-2.4ZM50.18,152.87c-.94-3.1,1.78-4.79,1.88-7.74,3.15-.69,3.22-4.44,6.71-4.8,1-1.02,1.53-2.34,2.95-2.93,1.51-.63,3.99-.38,6.17-.8,1.36-.26,2.68-.91,4.02-1.07,1.5-.18,2.44-.3,3.49-1.07,3.8.82,6.91,1.45,11.54,2.13.65.6,1.43,1.07,1.88,1.87,2.23.45,4.25,1.11,5.37,2.67,2.07-.02,2.96,1.14,4.03,2.13.15.47-.33,1.57.27,1.6.03-.68.9-.53,1.61-.53,2.18,1.74,4.98,2.88,5.9,5.87.79.34,1.61-.17,2.95,0,.04-.5.18-.89.54-1.07-.6-3.23-3.4-4.27-4.56-6.94-.34-.37-1.27-.16-1.61-.53-2.65-3.06-6.26-5.15-9.39-7.74-2.07-.74-3.85-.55-5.9-1.07-1.88-.47-3.35-2.05-5.1-2.4-2.74-.55-5.48.91-8.59-.27-3.66.57-7.06,3.19-9.93,1.07.71-1.49.51-3.17,1.07-4.8.43-1.25,1.25-1.78,1.34-3.2.16-2.47-1.01-4.73-1.07-7.47.63-.08.5-.93,1.34-.8,1.86-.07,1.85,1.72,3.76,1.6.36-.45.71-.89.54-1.87,4.19-1.53,4.85-6.56,5.9-11.21-.49-2.23-2.29-4.11-1.61-6.67-2.27-.59-1.39-4.31-3.49-5.07-1.94.9.83,6.04-1.34,7.2-.82.19-.79-.46-1.61-.27-1.85-3.32-3.22-7.11-4.83-10.67-.2-2.18,1.29-4.38-1.34-4.8-.62,2.32.05,6.56-1.88,8.27-.65-.6-1.43-1.07-1.88-1.87-.16-2.06-1.05-3.4-1.34-5.34-1.96-1.43-2.44-4.33-3.49-6.67-1.11-.94-2.31-1.79-2.68-3.47-1.33-.19-1.28-1.75-2.95-1.6,1.35,4.14,2.52,9.67,2.42,14.41.84,2.28,2.23,4.01,2.15,7.2-.35.09-.42.47-.8.53-3.33-.44-6.27-4.24-8.32-.8-.23-.05-.25.1-.27.27.73.19.54-.53,1.07-.53.98,1.16,2.22,2.18,2.95,3.74.24.52.21,1.36.54,1.87.83,1.29,2.85,2.02,2.68,4.54-.35.46-.56,1.05-1.34,1.07-1.43.32-1.6-1.61-2.68-.8,1.19,2.82,2.83,5.19,4.56,7.47,1.33.46,2.75.82,3.22,2.13,2.41-.45,2.47,1.46,4.02,1.87.98-.08,1.75.04,2.42.27,1.82,2.83.9,8.5.27,12.01-1.9,2.02-2.55,5.29-4.29,7.47-1.61-.36-1.7.8-3.22.53-2.23,2.85-5.79,4.38-7.51,7.74-.59,5.37.67,7.52.54,12.81,1.37,1.48,1.9,3.8,3.22,5.33,1.27-.37,1.76.84,2.42.27-.39-3.03-1.75-5.42-2.68-8.54h.27v-.27c.67.64,1.96.39,2.42.27-.31-.04-.23-.49-.27-.8-.87-.06-1.14.47-2.15.27l-.13-.13-.14.13Zm49.11-79.77c-.81.9.99.81,0,0h0Zm112.44,1.07c-1.6-2.66-4.31.95-2.15,2.67.77-.03,1.76.15,2.15-.27.4-.43-.23-1.34,0-2.4Zm-108.41,1.07c1.28.45,1.48-1.54.27-1.33-.35.63.03.5-.27,1.33Zm16.37-.8v1.6c.88.02,1.03.76,2.15.53.27-.35.25-.99.81-1.07-.13.83.67.95,1.07.53-1.08-1-2.31-2.73-4.03-1.6Zm59.57,1.07c.5.21.99.45,1.61.53-.07-.96.81-.98.8-1.87-.97.09-1.29.41-2.15,0,.11.64-.49.58-.27,1.33Zm-125.31-.8c-.21.06-.53,0-.54.27.21-.06.53,0,.54-.27Zm-25.76,1.6c-.06-.21,0-.53-.27-.53-.22.31-.35.71-.27,1.33.51-.06.59.3,1.08.27.05-.34.78-1.31.27-1.33-.05.31-.42.29-.81.27Zm98.48,1.33c.34.37,1.27.16,1.61.53.62-.71.62-1.69,0-2.4-1.48-.31-1.74.58-1.61,1.87Zm81.84-.53c-.65.89.9-.65,0,0h0Zm-5.1,3.47c-1.14,1.08-.43,3.65,1.07,3.74.22-.58,1.01-.59,1.08-1.33-.64-1.94-1.44-2.92-1.08-4.8-.98-.36-1.93-.75-2.95-1.07-1.46,1.5.29,3.34,1.88,3.47Zm2.15-3.2c.31,1.05.31-1.05,0,0h0Zm-71.38,1.6c.56.42.53,1.43,1.61,1.33.85-.59.44-1.91,0-2.67-1.09-.11-1.06.9-1.61,1.33Zm73.26.27c.9.34,1.11-1.35.54-1.6.29,1-.67.76-.54,1.6Zm-193.74.8c.59-.66-.02-1.75-.8-1.87h-.54c-.12,1.19.15,1.99,1.34,1.87Zm15.03,1.87c.47-1.27-.14-2.04.27-3.47-3.92-2-4.29,5.34-.27,3.47Zm179.52-.27c2.22.49.86,3.2,2.15,4.27.69-.28,1.85-.96,2.68-.27-.21-.93.4-1.03.27-1.87-1.83-1.2-2.44-3.62-4.02-5.07-.6.74-1.4,1.28-1.07,2.93Zm-188.11.8c.67-.58.55-1.94.8-2.93-1.96-2.18-3.21,2.86-.8,2.93Zm176.84-.27c1.52.18,2.28-.4,2.68-1.33.11-.64-.49-.58-.27-1.33-2.26-1.6-4.21,1.14-2.41,2.67Zm-25.76-1.07c.51.56,1.32.82,2.15,1.07.29-.96.06-2.86-1.61-2.67-.21.5-.45.98-.54,1.6Zm34.88-.53h.81c.05-.67-.41-.84-.81-1.07v1.07Zm-160.47,2.4c.77-.03,1.76.15,2.15-.27-.16-.64-.38-1.22-.27-2.13-1.82-1.59-3.16,1-1.88,2.4Zm130.68-1.33c.39.68,1.23.91,2.15,1.07.57-.72.57-1.42,0-2.13-.88.19-2.02.13-2.15,1.07Zm38.1,1.07c.07-.36-.17-1.04-.27-.53-.08.36.17,1.04.27.53Zm-199.38.53c.9.71.33,2.87,1.07,3.73,1,.11,1.58-.21,1.61-1.07-.32-1.21-2.38-1.44-1.34-3.2-.67-.04-1.3-.05-1.34.53Zm154.83.53c-.25,1.59.52,2.66,0,3.74.89-.54,2.5-.36,3.22-1.07.17-2.29-1.38-3.09-3.22-2.67Zm35.96.53h.8c-.04-.31.04-.76-.27-.8-.06.38-.44.45-.53.8Zm-30.32,0c-.28.03-.54-1.15-.8-.27.38-.14.65,1.04.8.27Zm-155.37,1.6c.39.68,1.53.61,2.41.8,2.25-2.11-2.45-3.58-2.41-.8Zm194.55.8c.37-.34.27-1.16.27-1.87-.62.09-1.03-.04-1.34-.27.31.76.37,1.76,1.07,2.13Zm-46.69-1.07c-.3.03-.42-.39-.54,0,0,.27.47.34.54,0Zm9.66,1.87c.67.46,1.32.93,2.15.53,1.54-2.32-2.83-4.1-2.15-.53Zm-150,2.93c.87-1.57.58-3.48-.27-4.54-3.37.05-2.25,4.28.27,4.54Zm183.81,5.6c.41-4.48-1.55-8.48-5.1-9.87-3.89-.18-6.13.49-8.32,2.4.41,2.27-.68,3.06-.81,4.8.88,3.4,3.05,5.5,6.17,6.67,1.37-.57,3.16.06,4.56.27,1.11-1.47,2.25-2.92,3.49-4.27Zm-87.48-8.27c.32,1.02.91,1.77,2.41,1.6.66-2.25-1.55-4.05-2.41-1.6Zm-109.48,1.33c.28-1.61-.59-2.08-2.15-1.87-.12,1.46.87,1.81,2.15,1.87Zm181.13-1.6c.31,1.05.31-1.05,0,0h0Zm-146.51.53h.54v-.53h-.54v.53Zm70.3,1.87c-.02-1.13-.87-1.45-1.88-1.6-1.04,1.18.78,2.54,1.88,1.6Zm-69.77-.8c-.21.06-.53,0-.54.27.21-.06.53,0,.54-.27Zm86.68,3.2c.78.35,1.9.35,2.68,0,.05-1.83-.91-2.65-2.41-2.94-.5.57-.18,1.96-.27,2.94Zm5.9,0c1.09.16,1.72.78,2.95.8.23-.75.87-1.09.8-2.13-.89-2.44-3.83-1.38-3.76,1.33Zm70.84-2.13c.05-.58-.22-.85-.8-.8-.05.58.22.85.8.8Zm-62.25,2.4c.51.06.59-.3,1.08-.27.6-.86.23-2.6-.81-2.67-.82.72-.97,1.96-.27,2.93Zm20.39.53c.53-.63.63-1.68.81-2.67-.47-.69-1.78-.54-2.95-.53-.88,1.8.73,3.76,2.15,3.2Zm-42.4-.8c.3.06.42.3.54.53,1.07.17,1.45-.34,1.88-.8.33-2.64-2.78-2.01-2.42.27Zm86.94-1.87c-.3.03-.42-.39-.54,0,0,.27.47.33.54,0Zm-196.42.27c.12,1.3.25,2.59,1.34,2.93,1.3-.27,1.69-1.45,1.34-2.67-.53-.43-1.96-.86-2.68-.27Zm156.71.8c-.07,1.49.14,2.7,1.61,2.67.83-.52,1.59-2.5,1.07-3.47-.63.53-2.23.1-2.68.8Zm-54.74,2.13c.67.67,1.02,1.66,2.42,1.6.96-.71-.13-2.04-.27-3.2-1.48-.23-1.97.53-2.15,1.6Zm-97.41.27c.37,2.65,1.62,4.43,4.56,4.54,2.04-2.98-1.75-7.2-4.56-4.54Zm109.48,0c-1.16,1.02-.76,2.2-1.08,3.73.98-.72,3.03-.37,3.49-1.6-.57-.94-.79-2.24-2.42-2.13Zm31.93,1.87c.88.45,1.71.16,2.68,0,.11-1.83-3.19-2.83-2.68,0Zm-149.47-.53c.32.72,1.45,1.57,2.42.8v-1.33c-.86-.82-1.88-.31-2.42.53Zm124.51,1.33c.78.29,1.01,1.13,2.15,1.07.06-.3.3-.41.54-.53,0-1.6-1-2.21-2.41-2.4-.09.63-.42,1-.27,1.87Zm31.4,2.4c1.06-.95.33-3.34-.54-4-2.7.27-2.15,4.12.54,4Zm-46.69-1.33c.45.88,1.92,1.27,2.95.8,1.5-3.14-3.14-4.4-2.95-.8Zm24.15-1.33c.55.08.54.71.81,1.07,1.05.16,1.56-.23,2.15-.53.2-.82-.74-.51-.54-1.33-1.14-.06-2.13.02-2.42.8Zm63.06,1.07c-.01.37.13.59.27.8h.54c-.01-.37.13-.59.27-.8-.53-.44-.34.02-1.07,0Zm-35.42,1.33c-.47,1.63.79,1.53.8,2.67h1.88c-.23-.85.41-.83.81-1.07-.24-.92-.59-1.72-1.08-2.4-1.45-.37-1.42.72-2.41.8Zm-39.72,4.54c2.78-.51,2.29-3.23,2.42-4.8-4.26-1.09-3.77,2.93-2.42,4.8Zm6.44-2.67c.6,1.22,3.58,1.61,3.76-.27.06-2.35-4.23-2.6-3.76.27Zm71.65.27c0-.98-.12-1.84-1.07-1.87,0,.98.12,1.84,1.07,1.87Zm-2.95-1.07c0-.27-.47-.34-.54,0,.3-.03.42.39.54,0Zm-199.11.53c-.21,1.37.5,1.81,1.61,1.87.39-.39.39-1.75,0-2.13-.66-.04-1.29-.04-1.61.27Zm7.51,1.33c.62.55,1.02,1.3,2.15,1.33,1.63-2.11-2.21-4.49-2.15-1.33Zm119.95-1.6c-1.38.64.92.69,0,0h0Zm-10.73.8c-.53,1.16-.02,3.32,1.61,3.2,2.09-.69.66-4.64-1.61-3.2Zm79.16,1.6c.08-.61-.06-1-.54-1.07-.42.4-.3,1.19.54,1.07Zm-11.81,2.4c.21.06.53,0,.54.27,1.55-.15,2.09-1.31,2.15-2.94-1.19.03-1.57-.75-2.95-.53-.5,1.43.17,2.03.27,3.2Zm-116.19-1.87c.01-.46-.2-.68-.54-.8.02.42-.04.92.54.8Zm129.61,2.4c1.71-.42,3.51-1.26,1.88-2.93-2.02-.43-2.78,2.1-1.88,2.93Zm-33,1.07c1.17.27,1.23-.55,1.88-.8-.3-1.35.21-1.86-.54-2.67-.68.41-1.52.46-1.88.53.43.68-.3,2.15.54,2.93Zm-151.61-2.13c.13,1.29,1.94,2.05,3.22,1.33.34-2.01-2.38-2.83-3.22-1.33Zm179.52-.53c0-.27-.47-.33-.54,0,.06.32.3.16.54,0Zm-65.75.8c-.25,1.94.74,2.64,1.61,3.47-.49,2.62,1.06,3.21,2.95,3.47.28-.62.92-.86.81-1.87-2.29-1.03-1.74-7.87-5.37-5.07Zm66.01,2.93c.53-.56.2-1.77,0-2.4-2.79-1.36-3.08,2.94,0,2.4Zm-180.06,3.2c-.43-1.08-1.23-1.8-1.61-2.93-1.78-.9-3.55-1.81-6.17-1.87-2.1.93-3.22,2.84-4.83,4.27.3,5.66,4.39,7.55,8.86,9.07,1.29-.94,3.05-1.41,3.76-2.94-.48-1.87-.73-3.79,0-5.6Zm108.41-2.93c.62.63.88,1.62,2.15,1.6,2.03-1.82-1.89-4.95-2.15-1.6Zm66.55.8c.91.2,1.05-1.02.27-1.07-.09.36-.38.51-.27,1.07Zm8.86.53c1.04.47,2.1,2.08,3.76,1.07-.28-.79-.2-1.93-.8-2.4-1.01.14-1.26.38-1.88-.27-.04.85-.99.79-1.07,1.6Zm-12.88.27c.76-.22.69.38,1.34.27.31-.31.3-.94.27-1.6h-1.34c.22.75-.38.69-.27,1.33Zm6.44,3.74c-.4.05-.25.64-.27,1.07,1-.6.95-2.25,1.88-2.93v-1.07c-3.04-2.47-3.85,1.54-1.61,2.93Zm-123.71-2.93c-.04,1.19,1.3,1.02,2.15,1.33v-1.33c-1.02.24-1.71-.44-2.15,0Zm134.71.27h.54v-.53h-.54v.53Zm-126.93,3.2c-.14-1.37-.63-2.4-1.34-3.2-3.7-.26-1.08,4.92,1.34,3.2Zm90.16-.27c1.56.21,2.09-.59,2.15-1.87-1.56-2.19-4.05-.28-2.15,1.87Zm28.71-2.4c.31,1.05.31-1.05,0,0h0Zm-67.09,2.4c.43.46,1.12.66,2.15.53.03-1.46-.17-2.68-1.34-2.93-.67.4-.95,1.19-.81,2.4Zm60.38-1.33c.9.5,1.13-.96.54-1.07.2.73-.53.54-.54,1.07Zm-171.47,1.6c.36.54,1.8.8,2.41.27-.03-.66-.5-.83,0-1.33-.87-.92-2.85-1.17-2.41,1.07Zm170.4-.53c.61.07,1.01-.06,1.07-.53-.47.06-1.34-.27-1.07.53Zm13.15,1.6c.05-.31.42-.29.81-.27.07-.87-.32-1.28-1.08-1.33.16.47-.32,1.57.27,1.6Zm-130.15-.8h.54v-.53h-.54v.53Zm99.83-.27c-.28,1.55,1.16.11,0,0h0Zm-104.12,1.07c.49.31.19,1.42,1.34,1.07.46-.43.25-1.38-.27-1.6.19.73-1.27-.19-1.07.53Zm119.95,2.93c1.66-.38,3.02-1.11,4.56-.27-.32-1.2,1.19-.6.8-1.87-1.58-.9-6.86-2.05-5.37,2.13Zm-149.47-.27c.22-.67.74-1.05.81-1.87-1.83-2.28-4.45,2.35-.81,1.87Zm158.05-1.87c.29.69.17,1.79.8,2.13.48-.59,1.06-1.08.81-2.4-.55-.57-1.06.08-1.61.27Zm-123.44,2.13c1.05.2,1.28,1.22,2.41,1.33,1.48-.97.39-3.15-1.07-3.47-.5.66-1.06,1.26-1.34,2.13Zm60.64.27c.77.12.84.95,1.88.8.11-1.53-.16-2.68-1.34-2.93-.31.59-.69,1.09-.54,2.13Zm-91.77,1.33c.51.47,1.77.19,2.68.27.22-.58.7-.91.54-1.87-1.25-.59-3.56-.78-3.22,1.6Zm158.86-.8c.04.76.49,1.11.54,1.87,1.07.08,1.98.01,2.41-.53,0-1.34-.85-1.82-1.61-2.4-.21.59-.94.67-1.34,1.07Zm-160.47.53c.88.07.77-.83,1.34-1.07-.51.06-.59-.3-1.07-.27.22.75-.38.69-.27,1.33Zm24.42,0c-.16,1.31.35,1.97,1.34,2.13.5-.48.98-.98.81-2.13-1.02-.28-1.3-.69-2.15,0Zm-17.18,3.74c1.5-.12,2.18-1.84,1.61-3.2-.63-.09-1.01-.42-1.88-.27-.5.57-.18,1.95-.27,2.93l.14.13.13.13c-.84.28-.05,1.37-.8,2.13.72.07,1.02,1.12,1.61.53.37-1.44-1.02-1.12-.81-2.4l.13.13.13-.13Zm23.08,0c.55.61,1.57.75,2.42,1.07,1-1.02.12-2.36.27-4-1.52-1.23-2.92.8-2.68,2.94Zm-51.79-1.33c.82.08,1.61.99,2.41.27.22-1.73-1.18-1.84-2.41-2.13v1.87Zm66.82-.8h1.07c-.04-.4.1-.99-.27-1.07-.11.52-1.23.02-.81,1.07Zm105.73,5.07c-.17-.25.03-1.35-.27-2.13-.42-.03-.93.04-.81-.53.51-.06.59.3,1.07.27.15-.94-.95-.66-.81-1.6.48-.41,1.35-.44,1.07-1.6-1.45.44-2.72-1.42-4.02.27-.19,1.35.29,2.02.8,2.67h1.34c.33.92.96,2.95,1.61,2.67Zm1.61-5.6c-.81.9.99.81,0,0h0Zm3.49,2.13c-.34-1.23,1.34-.44.8-1.87h-1.61c.48.66-.61,1.81.81,1.87Zm-134.44,1.07c.53-.56.21-1.77,0-2.4h-1.88c-.47,1.13.57,2.24,1.88,2.4Zm22.81-.53c0-1.07-.14-2-1.34-1.87-.75.99.34,2.55,1.34,1.87Zm-48.03.8c.98.64,2.78.21,3.22-.53.03-2.89-4.5-1.91-3.22.53Zm22-1.6h.54c0-.27.22-.32.27-.53-.34-.02-.37-.34-.8-.27v.8Zm18.78,2.13c1,.29.76-.66,1.61-.53.34-3.43-3.71-1.61-1.61.53Zm-73.26-.8c.5-.57.04-1.81-1.07-1.6.12.77.31,1.47,1.07,1.6Zm190.79-1.33c-.21.06-.53,0-.54.27.21-.06.53,0,.54-.27Zm-180.06,2.67c-.16-1.09-.79-1.71-1.88-1.87-.46,1.02.27,2.13,1.88,1.87Zm178.71-.8c-.29,2,1.83,3.14,2.95,2.13-.82-.33.29-.92,0-1.6-.71.08-.69-.56-.81-1.07-1.07-.17-1.08.71-2.15.53Zm5.9.8c1.1.06.75,1.57,2.42,1.07.16-.64.39-1.22.27-2.13-.99-.66-2.55.02-2.68,1.07Zm-27.91-.27c.18-.72-.55-.52-.81-.8-.05.58.22.85.81.8Zm-163.15,2.4c1.62.27,2.09-.59,1.88-2.13-1.43-1.59-2.88.44-1.88,2.13Zm35.15-.8c.77-.04.49-1.11.54-1.87h-1.07c-.39.42-.55,2.12.54,1.87Zm18.52-1.07c-2.38.4-2.78,3.78.27,3.73.82-.63.83-3.42-.27-3.73Zm9.93,3.2c1.93.12,2.52.26,3.49-.8.13-3.47-3.97-2.41-3.49.8Zm94.46-1.33c.23,1.42,3.37,2.01,3.76.27.15-2.26-3.88-3.09-3.76-.27Zm-79.16.8c.5-.21,1.09-.35,1.34-.8-.16-3.56-4.88,0-1.34.8Zm-70.04-1.33c.18.89.69,1.45,1.88,1.33.39-.39.39-1.75,0-2.13-1.17-.27-1.23.55-1.88.8Zm48.57-.53c-.01,1.17.67,1.65,1.07,2.4.83-.33,2.1-.22,2.15-1.33-.06-1.27-2.05-1.75-3.22-1.07Zm-28.71,3.74c.11-.6,1.42,0,1.61-.53.21-1.81-.44-2.77-1.61-3.2-1.14.86-1.35,2.92,0,3.74Zm105.46-1.6c.7-.37,1.16-.98,1.07-2.13-2.12-.77-2.97,1.97-1.07,2.13Zm44.54-.53c.08.36.38.51.27,1.07.82-.19.98.27,1.61.27.27-.36.44-.81.81-1.07-.13-2.03-2.35-2.28-2.68-.27Zm-.81-.27c-.04-.5-.18-.89-.54-1.07.06.47-.27,1.34.54,1.07Zm-183.55,2.13c-.34.37-1.31.12-1.34.8.96-.16,1.3.31,1.88.53-.08-.7.37-.88,1.07-.8,0-1.59-.31-2.89-1.88-2.93.01.88.45,1.33.27,2.4Zm148.39.27c.69-.48,1.04-1.46.54-2.4-2.48-.73-2.24,2.44-.54,2.4Zm-71.65-.27c.03-.5.89-.19.8-.8-.47-.24-.34-1.08-1.34-.8-.58.57-.1,1.45.54,1.6Zm-33.54.8c.21.24.29.6.27,1.07h1.61c.41-.49.41-2.18,0-2.67-1.21-.23-1.67.29-1.88,1.07l-.14-.13-.13.13c-.6.47-2.02.13-2.68.53-.93-.14-.54-1.6-1.88-1.33.35,1.34.31,3.07,1.07,4,2.37.22,2.91-1.38,3.49-2.94v.27h.27Zm-33.01,1.07c.51.12.67.58,1.34.53.72-.81.16-1.25.27-2.67-.51.06-.59-.3-1.07-.27-.55.43-.62,1.34-.54,2.4Zm184.35-2.4c-4.11-.44-6.82,2.75-8.32,5.87.78.97.59,1.33.54,3.2,2.71,2.8,9.26,6.37,13.42,2.93.97-2.8,1.26-5.48.53-8.8-2.38-.84-3.43-2.91-6.17-3.2Zm-113.78,2.93c.3,1.3,2.12,1.09,3.76,1.07.37.5-.31,1.18,1.07,1.07-.12-1.01-1.64-2.77-2.15-4.27-1.97-.36-2.58.63-2.68,2.13Zm63.33-.53c.71,0,1.53.1,1.88-.27.12-1.18-.69-1.45-1.88-1.33v1.6Zm-138.73,2.13c1.22.14,1.61-.54,2.42-.8-.29-1.31-.68-2.53-2.15-2.67-1.15.48-.92,2.6-.27,3.47Zm82.11-1.6c.55.88,1.28,1.57,2.68,1.6.8-.71.96-1.95.54-3.2-1.5-.7-2.88.33-3.22,1.6Zm77.55,2.13c.05-.4.65-.25,1.07-.27.42-.39.24-1.37.27-2.13-2.06-1.99-3.43,1.69-1.34,2.4Zm17.71-2.13c.81.73-.73-.81,0,0h0Zm-149.74,1.6c.98,1.46,3.24,2.66,4.03.27.01-.81-.57-1.04-.81-1.6-1.78-.25-2.73.3-3.22,1.33Zm-13.68-.8c.31,1.05.31-1.05,0,0h0Zm165.3.8c-.05-.4.1-.98-.27-1.07-.35.36-.36.99.27,1.07Zm.8.8c-.39.14-.66-1.04-.8-.27.27-.03.54,1.15.8.27Zm-183.81,2.4c.95-.68.21-1.68,0-2.67h-1.07c0,1.25-.24,2.72,1.07,2.67Zm146.78-2.13c-.26.96,1.06.37,1.61.53-.06-.99-.95-.75-1.61-.53Zm-52.06,3.47c.32-1.18-.19-3.19-1.61-3.47-2.53.68-.97,4.04,1.61,3.47Zm-83.72-.27c.68-.03,1.04-.39,1.07-1.07-.28-.79-1.21-.93-1.88-1.33-.9.91-.23,2.01.81,2.4Zm151.88-1.6c.9.81.81-.99,0,0h0Zm-158.59.8c-.9.68-.39,2.77.8,2.93,1.41-.39.85-3.23-.8-2.93Zm155.64,4.8c.66-1.59-.39-3.19-1.34-4-1.67,1.07-1.12,4.14,1.34,4Zm2.95-.53c1.04.23.95-.65,1.61-.8.04-1.46-.33-2.52-1.61-2.67-.54.76-.93,2.79,0,3.47Zm-67.62-1.33c.65.77,1.17,1.68,2.68,1.6.09-1.12,1.02-2.83,0-3.47-.43,1.09-1.42,1.62-2.68,1.87Zm54.47,0c.6.74,1.28,1.4,2.68,1.33,1-1.02.22-2.23-.27-3.2-1.67-.24-2.54.31-2.41,1.87Zm-89.36,2.4c1.87.12,2.09.17,3.22-.53.05-1.38-.92-1.76-1.07-2.94-3.37-.64-3.62,1.86-2.15,3.47Zm7.25-.27c1.09.11,1.87-.1,1.88-1.07-.18-.89-.69-1.45-1.88-1.33,0,.83-.63,1.74,0,2.4Zm-56.62,11.21c1.3-1.1,2.84-1.98,4.56-2.67,1.08-2.45,1.32-7.32-.53-9.07-5.05-2.99-11.49-.72-10.73,5.87.23,2.02,1.93,4.04,2.68,5.6,1.47.55,2.66-.17,4.03.27Zm-12.08-11.21c.34.64.88,1.09,1.88,1.07,1.42-1.98-2-4.02-1.88-1.07Zm53.67-.27c.19-.2.67-1.31-.27-1.07.05.4-.1.99.27,1.07Zm2.15-.27c-.19.82.46.78.27,1.6.77-.03,1.76.15,2.15-.27.03-1.21-1.3-2.11-2.42-1.33Zm18.52,2.4c1.02.47,1.97.68,2.95,0-.09-1.99-3.31-3.22-2.95,0Zm-25.76.27c.66.51,1.42,1.08,2.42.53-.19-1.41-.48-2.73-2.15-2.67-.42.39-.24,1.37-.27,2.14Zm116.46,2.13c.55-.7,1.68-.82,1.34-2.4-.61-.46-1.04-1.1-2.15-1.07-.53,1-.46,3.4.8,3.47Zm-64.94-1.07c.81.35,1.46.86,2.68.8,1.49-2.32-2.75-3.42-2.68-.8Zm-32.47-.53c.03.68.9.53,1.61.53-.02-.46.06-.83.27-1.07-.43-.39-2.13-.55-1.88.53Zm11.54-.53c-.11,1.44.58,2.09.81,3.2.8-.36,1.47-.85,1.88-1.6.33-1.67-1.49-2.31-2.68-1.6Zm79.43.27c-.05-.39-.65-.24-1.07-.27-.57.98,1.36,1.2,1.07.27Zm-115.92,2.13c.7.68,2.87.84,3.22-.27-.33-2.55-2.98-1.96-3.22.27Zm28.98,24.81c.86-.57,1.63-1.23,2.15-2.13,1.69-4.54-.35-10.36-.54-15.47-1.05-1.98-2.95-3.11-4.29-4.8-2.02-.62-4.58-1.76-6.44-2.67-.94-.46-1.11-.95-2.15-1.07-2.84-.33-5.14.78-6.17,1.87.92,1.66,3.57,1.6,5.37,2.4.85,2.67,4.26,2.96,4.83,5.34.57,2.35-.82,2.97-1.34,4.27-.23.56-.05,1.23-.27,1.87-1.02,2.92-3.27,5.85-2.68,10.14,1.82.95,1.5,4.02,4.02,4.27,2.72-1.65.1-8.62,4.56-8.54,1.16,2.62-.97,5.33-.8,6.94.53,0,.34.73,1.07.53,1.02.14,2.2-1.67,2.68-2.93Zm125.58-22.68c1.4-.03,2.46-.4,2.68-1.6-.62-.8-1.31-1.55-2.68-1.6-.65,1.12-1.04,2.2,0,3.2Zm-8.85-1.87c.76.4,1.33.99,2.15,1.33.37-.34.26-1.16.27-1.87-.86-.82-1.88-.31-2.42.53Zm-1.08-.27c.46.01.69-.21.81-.53-.42.02-.93-.04-.81.53Zm-112.7,2.67c.27-.36.44-.81.8-1.07-.28-.88-.74-1.57-1.88-1.6-1.01,1.03-.11,2.35,1.07,2.67Zm-31.93-1.33c-.04-.5-.18-.89-.54-1.07-.5.47.07.83.54,1.07Zm140.34-.8c-.69,1.25.13,2.99,1.61,2.93.92-.27,1.02-2.39.81-2.93-.43-.4-1.98-.4-2.42,0Zm-182.47,2.13h1.07c.37-.56-.09-2.08-1.34-1.87,0,.71-.1,1.52.27,1.87Zm159.93,0c.49.95,3.05,1.22,3.49,0-.27-1.5-3.66-2.53-3.49,0Zm34.62,2.4c-.02-1.16.56-2.6-.27-3.2-.02,1.39-.42,2.17.27,3.2Zm-149.47-1.33c.87-.24.38.87.81,1.07.61-.19,1.37-.24,1.88-.53.17-1.15-.46-1.5-.8-2.14-1.5-.33-1.73.59-1.88,1.6Zm38.11,1.6c.6.48,1.09,1.05,2.42.8.28-1.4,1-2.82-.27-3.74-.33.81-.92-.29-1.61,0-.17.99-.73,1.59-.54,2.93Zm-6.17-1.87c-.03,1.9.31,3.43,2.41,3.2,1-.88.59-3.6-.81-3.73-.78-.07-.82.6-1.61.53Zm20.66,2.13c-1.12-.06-1.27.43-2.15,0-.25.73-.49,1.47-1.34,1.6-2.52,0-4.08,1.9-5.1,3.47-1.64,2.52-.87,4.9.54,7.74h1.88c1.79-1.69,3.57-3.39,4.83-5.6,2.87-.58,3.42-3.4,6.17-3.74,1.14-.14,1.79.42,2.95.53,2.09.2,4.23-.25,6.44-.53.13-.31.29-.6.54-.8-.17-2.41-1.8-3.37-2.95-4.8-4.24.38-9.77-.92-11.81,2.13Zm91.5,1.87c2.41.59,2.49-1.82,1.34-2.67-2.12-.57-2.22,1.75-1.34,2.67Zm-136.86-1.6c-.15,1.48.12,2.54,1.34,2.67.68-.56,1.19-1.31,1.61-2.13-.63-1.32-1.78-1.52-2.95-.53Zm-11,.53v-1.07c-.88-.06-1.06,1.25,0,1.07Zm154.3-.53c.1,1.24.91,1.76,1.88,2.13.82-1.1-.84-2.88-1.88-2.13Zm-149.47,1.33c-.21,1.45.41,2.08.81,2.93,1.22.1,1.87.44,2.68-.27.19-2.6-1.59-4.37-3.49-2.67Zm-43.74,3.2c2.19-.98.68-4.31-1.88-3.74-.75,1.63.35,3.51,1.88,3.74Zm83.72-3.2c0-.27-.47-.34-.54,0,.3-.03.42.39.54,0Zm-28.44,1.33c.52,1.14,1.47,2.46,2.42,1.07.24-1.6-2.1-3.12-2.42-1.07Zm21.73.27v-.8h-.81c-.05.58.22.85.81.8Zm103.04-.27c-.2,1.91,1.24,3.42,2.68,2.13,0-1.55-.65-2.69-2.68-2.13Zm-100.09,2.67c.83-.2.52.73,1.34.53,1.01-.33,1.88-.8,1.61-2.4-1.33.35-1.14-.82-2.15-.8-.59.57-1.02,1.3-.8,2.67Zm4.29-1.6c.07-.61-.07-1-.54-1.07-.34.31-.21,1.11.54,1.07Zm-81.84,2.67c.57.5,1.43.71,2.41.8.35-.72.66-1.48.54-2.67-1.07-.18-1.03-1.46-2.15-1.6-.11,1.31-1.11,1.75-.8,3.47Zm9.39-.27c1.02.13,1.71-.08,2.15-.53.4-3.69-4.09-1.97-2.15.53Zm27.37-2.13c-.1,1.7.36,2.84,1.88,2.93.89-.27.91-1.41,1.07-2.4-.95-.12-.94-1.2-2.15-1.07-.11.33-.35.54-.81.53Zm77.82.8c-.03-.68-.05-1.37-.8-1.33-.05.76-.04,1.45.8,1.33Zm-40.79,1.6c-.13-.84.48-.94.27-1.87-.43-.46-1.12-.66-2.15-.53.23,1.2.71,2.14,1.88,2.4Zm-27.64,2.94c.78-.83,1.75-1.46,1.61-3.2-2.09-2.66-4.95,2.65-1.61,3.2Zm148.66-4c-.21.06-.53,0-.53.27.21-.06.53,0,.53-.27Zm-144.1,1.33c-.21,1.46.41,2.08,1.88,1.87,1-2.01-.37-3.37-1.88-1.87Zm36.23,48.29c.95-.88,1.9-.11,2.95-.8-.32.74-.31,1.62.27,2.13.52-.94,0-1.54,0-2.67.85-.93,1.66-1.9,2.42-2.93,1.88-.71,3.11-2.07,4.29-3.47.02-1.67.7-2.68,1.07-4,2.11-.3,1.56-3.25,3.75-3.47.06-1.63-.15-3.53,1.34-3.73.66.32,1.05.91,1.34,1.6-.47,3.49,1.63,4.43,1.61,7.47,1.27.69,1.54,2.38,2.41,3.47,1.79.71,2.89,2.11,3.76,3.74,3.41,1.24,6.03,3.26,8.05,5.87,1.69,0,2.63.76,3.76,1.33,4.11.09,7.71.69,10.73,1.87h1.61c.51-.11.21-1.03,1.07-.8,2.26.81,3.06-.47,6.17-.27.41-.66.55-1.59,1.34-1.87,2.6-.08,3.32-2.04,5.37-2.67.48-1.8,2.11-2.83,2.68-4.54.13-.4-.14-.99,0-1.6.14-.64.56-.77.54-1.33-.04-1-.55-1.99-.81-3.2-.75-.5-1.21-1.28-2.41-1.33-1.35-1.06-2.21-2.6-4.03-3.2-.39,1.73,1.47,1.21,1.88,2.13.86,1.37,1.47,2.99,2.42,4.27-.29,3.71-3.42,4.6-5.1,6.94-2.71,1.12-5.48,1.02-8.59.27-.2-.77-1.27-.69-1.07-1.87,1.11-2.45,4.51-2.63,4.56-6.14-1.23-.38-1.6-1.61-2.68-2.13-1.52-.34-2.71-1.93-4.56-2.67-2.52.57-7.07.82-9.93.8-.59.66-.75,1.75-1.88,1.87-.73,1.67-.62,4.18-2.95,4.27-2.47-1.9-5.86-2.89-8.05-5.07-1.3-2.17-2.29-4.66-4.02-6.4-.81-2.58-1.64-5.13-2.68-7.47-.74-5.52.16-9.31-.27-14.94-2.44-2.82-1.84-8.67-7.24-8.54-1.79,3.51,2.32,5.42,1.88,9.34.13.84-1.33.1-1.07,1.07.15.65.23,1.37,1.07,1.33.16-.55-.43-1.85.54-1.6,1.68-.06,1.49,2.53,1.07,3.73.38,1.41.56,3,.54,4.8-.23.75-.87,1.09-.81,2.13-.13,1.11.79,1.18.54,2.4-.62,1.72-1.5,3.59-1.07,5.6-1.27,1.32-1.44,3.73-1.88,5.87-2.45,2.1-3.73,5.37-6.44,7.2-2.3.56-3.14,2.57-5.1,3.47-.96.11-1.43.71-2.68.53-.53.18.07,1.49-.54,1.6-1.43-.59-1.45.79-2.95.8h-2.15c-1.28,1.11-2.94.39-4.83,1.07-.54-.08-.53-.72-1.07-.8-4.58.64-7.77-2.41-10.73-4.27-1.27-2.45-3.78-4.99-4.29-8.8-.36-2.73-.27-5.54,1.34-7.74v-1.6c-.08-.7,1.04-.21.8-1.07.06-2.02.27-2.7-.53-4-1.44-.19-1.18,1.32-2.42,1.33-.86,4.48-1.68,9-2.95,13.07,1.55,5.12,3.8,9.56,7.25,12.81,1.08.26,2.32.36,2.41,1.6-2.75,1.26-5.43,2.6-6.17,5.87.48,1.02,1.28,1.63.8,2.93,1.59-.55,2.06-2.22,2.68-3.74,3.92-.91,7.2-3.69,11.27-1.87.4-.31.32-1.11,1.07-1.07.74.42,1.62.7,2.68.8,2.38-.95,4.5-.73,6.71-1.87.96-.49,1.29-1.39,2.41-1.6.86-.16,1.9.12,2.95,0l.13.13.14-.13c-.42.66.91.79.8.27-.23.05-.25-.1-.27-.27l-.13-.13-.13-.13Zm104.92-45.89c.74-.43,1.33-2.4.8-3.2-2.02-.71-3.02,2.57-.8,3.2Zm-8.32-.8c.99,1.13,3.16.33,3.22-1.07-.63-1.69-3.6-1.19-3.22,1.07Zm-73.79.27c.85.13.61-.82,1.61-.53.11-1.09-.28-1.68-1.34-1.6-.16.64-.39,1.22-.27,2.13Zm-5.37,0c.64-.77.04-2.01-1.34-1.6.14.83.64,1.32,1.34,1.6Zm-27.64-.8v1.07c.46.34.7.9,1.61.8.4-.39.4-1.75,0-2.13-.82-.19-.79.46-1.61.27Zm-79.16,2.13c-.07-.82-.27-1.51-.54-2.13h-1.07c-.6,1.15.1,2.3,1.61,2.13Zm8.05-.27h1.34v-1.6h-1.34v1.6Zm33.27,0c.87,1.53-1.37,2.25,0,3.2-.05-1.61,2.36-.79,2.95-1.07-.44-.88.06-1.02,0-2.14-.87-.75-2.21-1.11-2.95,0Zm139.27,1.34c.73-.19.54.53,1.07.53.38-.78,1.01-1.31,1.07-2.4-1.55-.21-2.42.26-2.15,1.87Zm-68.96-1.07c1.36.73,1-.93,0,0h0Zm-99.56,2.4c.05-.38,1.98.42,2.42-.27.12-.92-.11-1.49-.27-2.13-1.95-.6-3.08,1.01-2.15,2.4Zm22.54-2.13c.31,1.05.31-1.05,0,0h0Zm80.5,1.07c0,1.51.39,2.64,1.61,2.93,1.13-.97.39-3.2-.8-3.47-.07.38-.59.3-.81.53Zm-108.68.8c-.81-.43-.57-1-1.34-1.07-1.41-.12-2.38.04-2.68,1.33-.42,1.81,1.46,1.68,1.88,3.2-.22.85-1.77.37-1.61,1.6.26.72.12,1.84,1.34,1.6,1.47-.99.57-3.11.8-4.27,1.87.22,3.88,1.57,4.56-.53.69-1.43-1.83-1.28-2.95-1.87Zm23.88.27c.84.8,1.87.3,1.88-1.07-.32-.31-.95-.3-1.61-.27.22.75-.38.69-.27,1.33Zm17.98-.27c.24.47.5.93,1.34.8.67-.55.38-1.09,0-1.87-.88-.07-1.29.32-1.34,1.07Zm59.3-.53c-.11.86-1.07,1.74-.27,2.67.79-.19,1.17-.79,2.41-.53.41-.48.74-1.05,1.07-1.6.36.76,1.41,0,1.34-.53-1.84.8-2.77-1.29-4.56,0Zm-74.87,2.67c1.64.22,3.2.03,4.83,1.07.11-.33.34-.55.8-.53-.53-1.79-3.04-1.6-3.49-3.47-.67.03-.83.5-1.34,0-.26.99-.96,1.53-.81,2.93Zm19.59-2.67c-.21.93.4,1.03.27,1.87,1.29-.81.97,1.02,2.68.53.2-1.12-1.03.36-1.07-.8,1.03-.23.27-1.39,0-1.87-.71,0-1.53-.1-1.88.27Zm140.08,1.6c.16,1.79.97,2.95,3.22,2.67.48-.68.83-1.49,1.08-2.4-.9-1.22-3.37-1.86-4.29-.27Zm-111.36,1.07c.9.73,1.78.93,2.95.53.41-1.95-3.48-3.9-2.95-.53Zm13.15.53c.17-.8.57.25,1.07,0,.38-.51.71-1.07.81-1.87-.45-.35-.9-.71-1.88-.53.38,1.02-.7,1.94,0,2.4Zm-2.95-.27c.51-.11,1.16-.1,1.07-.8-.7-.08-1.15.1-1.07.8Zm95.26.8c.28,1.06,1.68,1,2.68,1.33.07-.91.68-1.28.54-2.4-1.01-.94-3.35-.66-3.22,1.07Zm-188.91.27c-.2,2.83,1.7,2.91,1.88,4.8,1.99-1.62,1.02-7.36-1.88-4.8Zm77.28-.27c-.45,1.78,1.1,2.7,2.42,1.87.28-2.11-.93-2.89-2.42-1.87Zm-20.13,2.4c-1.24-.63-2.79-.96-4.83-.8-3.86-2.65-8.24-.83-12.34.8-.89,1.34-1.91,2.55-3.49,3.2-.05,1.1-.71,1.6-1.34,2.13v2.94c.91.86,3,.52,4.02,0,.97.63,2.65.56,3.76,1.07,1.08,1.6,1.96,3.39,3.76,4.27.31.4.31.67,0,1.07,2.48-.95,5.47-.15,7.51-.53,1.46-2.73,4.86-3.53,5.91-6.67-1.67-1.9-6.84-.32-7.51-3.2,1.83-.82,4.37,1.02,5.9-.27.3-2.36-1.02-3.24-.8-4.8-.13.31-.29.6-.54.8Zm64.94-1.6c.06,1.28,1.56,1.62,2.68,1.07v-1.07c-.61-.84-2.19-1.08-2.68,0Zm-32.2,1.33c1.25.01,2.12,1.49,2.95,1.07v-2.67c-1.54-.81-2.75.27-2.95,1.6Zm24.42,2.4c.74-.92,1.05-2.74.27-3.73-3.16-1.02-3.32,4.49-.27,3.73Zm-97.95-1.87c-.31-.32-.3-.94-.27-1.6h-1.07v1.07c.45.06,2.02,1.05,1.34.53Zm183.01-1.33c-.23,1.58.15-1.07,0,0h0Zm-117,0c-.28,1.55,1.16.11,0,0h0Zm107.07.53c-.51,1.02.71-1.41,0,0h0Zm-91.24,1.6h1.61c0-.71.1-1.52-.27-1.87-1.25-.17-1.52.63-1.34,1.87Zm-77.55,1.33c.59-.26-.04-1.54-.27-1.87.36.81-1,1.82.27,1.87Zm166.37-1.6c0-.27-.47-.34-.54,0,.3-.03.42.39.54,0Zm1.88,2.13c.3.06.42.29.54.53,1.32.15,1.98-.35,2.15-1.33-.69-1.45-3.04-1.79-2.68.8Zm-71.38,0c.91.44,2.59,1.38,3.22.53.05-1.84-3.48-3.75-3.22-.53Zm-22.54-1.33c-.14,1.11.15,1.81.54,2.4.98.09,1.49-.3,2.15-.53.29-1.97-1.17-2.43-2.68-1.87Zm100.9,0c-.06,1.49.22,2.63,1.61,2.67.2-.69.88-.9,1.07-1.6-.24-.47-.65-.78-.81-1.34-.71,0-1.53-.1-1.88.27Zm-70.04,2.67c.36.54,1.8.81,2.42.27.59-2.96-2.63-2.81-2.42-.27Zm57.16-1.87c.31,1.05.31-1.05,0,0h0Zm-67.62,2.4c.9-.05,1.03-1.66,0-1.6v1.6Zm-20.93,1.07c-3.04-1.03-6.84-2.4-9.66-1.87-3.35-1.27-7.79.46-11,.53-1.85,1.37-5.13,1.3-5.9,3.74,1.08.89,3.16.77,3.22,2.67-.85,1.19-2.98-.06-4.02.53-1,2.16,1.16,4.62,2.15,5.6,1.48,1.47,2.85,1.69,5.37,2.4,2.02.57,3.03,1.05,4.29.53,1.14-.47,2.81-.96,3.76-1.33,2.28-.9,3.39-.7,4.29-2.13.51-.5.49.16,1.34,0-.78-1.25,1.14-.85,1.07-2.13,1.58-1.37,3.64-2.25,5.63-3.2,1.58-.21,3.38-.2,4.29-1.07-.58-2.27-2.45-3.47-4.83-4.27Zm5.1.53c.82-.19.98.27,1.61.27,2.44-2.95-4.12-3.92-1.61-.27Zm20.66-.27c.11.51,1.04.21.81,1.07-.47.5-.93-.47-.81.8.2.6.81-.59,1.34-.53.68,1.34,1.37,1.11,2.95,1.33,1.31-2.35-1.89-2.34-2.68-3.47-.05-.87.63-1.28-.54-1.33-.19.88-.74,1.4-1.07,2.13Zm-104.38,6.67c-.11-1.26-.14-1.22-.27-2.67-1.25-.89-2.08-2.2-2.95-3.47-1.7-.36-2.42-1.69-4.56-1.6-3.19,1.26-6.1,4.4-5.37,8.8.24,1.46,1.6,2.28,1.88,3.73,2.9.55,6.79-.33,9.66-.27-.36-2.4,1.03-3.07,1.61-4.54Zm96.6-7.74c-1.1.15-1.5,1-1.34,2.4.34.71,2.72,1.39,3.22.27-1-.52-.44-2.59-1.88-2.67Zm73.53,11.2c.62.36.89,1.07,2.15.8.78,2.07,3.87,1.84,5.9,2.67.63-2.08,3.54-2.61,4.03-5.07.57-2.91-1.16-5.23-2.42-7.47-2.21-1.79-5.34-.82-8.59-.27-1.81,2.28-3.68,5.76-1.61,9.07h-.27v.27c-.48.64.53,1.94-.81,2.13.52.11.21,1.03,1.07.8.07-.9.43-1.53.27-2.67h.27v-.27Zm-55.01-7.74c.59.71,1.15.43,2.15.27.06.21,0,.53.27.53.1-1.34,0-2.49-1.07-2.67-.24.83-1.42.72-1.34,1.87Zm-13.69-1.07c-.13.84.49.94.27,1.87,1.17,0,2.42.1,2.95-.53-1.11.21-1.38-.41-1.34-1.33-.61-.13-1.37-.53-1.88,0Zm8.59,5.87c1.41-.48,1.42.5,2.42,0,.12-1.27-.32-1.99-.8-2.67h-2.15c.22.85.17,1.96.54,2.67Zm10.2,1.07h2.42c.32-3.81-4.04-3.14-2.42,0Zm-101.97,0c1.16.62,2.53-.69,3.76,0,.21-.63.53-1.84,0-2.4-.84-.13-.71.72-1.34.8-.6-1.59-3.05-.43-2.42,1.6Zm5.1-1.87c-.08,1.24.47,1.84,1.61,1.87.06-1.13-.02-2.11-.8-2.4-.07.38-.59.31-.81.53Zm72.45,1.87c.75.72,1.91.35,2.68-.27.01-2.14-3.12-2.52-2.68.27Zm6.17.27c.91.79,1.9,1.5,3.49,1.6.66,1.04,1.17,2.21,2.68,2.4.78-.38,1.2-1.12,1.07-2.4-1.7-1.51-3.07-3.35-5.64-4-.67.66-1.67,1.01-1.61,2.4Zm12.08-.53v2.13c.85-.81,3.02.3,3.76-1.07-.31-3.11-2.31-.81-3.76-1.07Zm-85.33,2.67c-.88-.54-.03-2.56-1.88-2.67-.37,1.12,2.02,1.89.54,2.4-.02.8.79,1.35,1.34.8v.27h.27c-.74,1.21.5,2.44,2.15,2.14.68-.66.95-1.72,1.34-2.67-1.86,1.05-1.42-1.78-2.42-2.4-.04.49-.91.16-1.07.53v1.33h-.27v.27Zm53.94-2.4c.31,1.05.31-1.05,0,0h0Zm41.86.53c-.24,1.22.45,1.51.54,2.4h2.15c.41-2.27-1.55-3.99-2.68-2.4Zm-13.69-.27c.31,1.05.31-1.05,0,0h0Zm-70.84,1.33c.83.1,1.09-1.29.27-1.33-.23.31-.35.71-.27,1.33Zm.8,1.33c.51-.06.59.3,1.07.27.23-.26.75-2.31-.27-2.13-.22.67-.74,1.05-.81,1.87Zm-17.17,1.07c.83-.03.77.84,1.88.53,1.73-2.08-2.66-3.83-1.88-.53Zm-5.37,1.6c1.27.2,1.76-.38,2.42-.8.02-1-.11-1.84-.54-2.4-.27.75-1.14-.07-1.61,0-.39.89-.77,2.19-.27,3.2Zm81.04-.8c.76-.05,1.84.23,1.88-.53-.52-.81-.76-1.91-2.41-1.6-.13,1.02.08,1.7.54,2.13Zm-18.78.53c3.06-.16-.3-3.62-1.61-1.87.14,1.37.83,2.2,1.61,2.94v-1.07Zm-31.93-.8v1.33c.83-.2.52.73,1.34.53.24-.59.6-1.78.27-2.14-.66-.03-1.29-.04-1.61.27Zm63.87,0v1.07c.92.12,1.5-.11,2.15-.27.27-1.23-1.48-1.33-2.15-.8Zm-76.48,2.93c1.12.55,2.63.21,2.68-1.07-.33-2.16-3.55-2.07-2.68,1.07Zm39.72-.27c.54-.67.22-2.2-.81-2.13-.96.39-.55,2.44.81,2.13Zm-76.21,1.87c.76-.28,1.12-.28,1.88,0,.67-.76,1.33-1.52,1.08-3.2-2.04-1.77-4.24.86-2.95,3.2Zm26.83.53c.75.05.33,1.27,1.34,1.07,1.12.23,1.06-.72,1.61-1.07.4-3.68-3.48-3.93-2.95,0Zm80.23-2.67c.06,1.46.74,2.29,1.88,2.67.29-.25.08-.99.8-.8.14-1.21-.54-1.6-.8-2.4-.96-.16-1.3.31-1.88.53Zm19.05-.27c-.21.92.3,1.13.54,1.6.87-.02,1.45-.34,1.61-1.07-.08-.81-1.52-1.08-2.15-.53Zm-55.01,3.74c1.08-.91,1.5-2.41.27-3.47-3.93-.53-2.43,3.13-.27,3.47Zm97.41-2.4c.04.85.61,1.17,1.61,1.07.34-.64.81-1.16,1.07-1.87-1.08.63-1.8-.02-2.68.8Zm-88.02,1.07c1.2.36,1.3-1.08.81-1.6h-.81v1.6Zm21.74,1.6c1.5.25,1.96-.54,2.95-.8-.28-.55-.96-1.42-.27-2.13-2.28-1-3.49.8-2.68,2.93Zm79.43-1.33c.47.7,1.87.63,2.68.27.14-2.39-2.42-2.08-2.68-.27Zm-191.6-1.07v1.07c1.12-.04,1.35.79,2.15,1.07.48-1.81-.76-3.04-2.15-2.13Zm42.13,1.87c.79.9,2.55.84,4.03,1.07.99.35.45,2.22,1.34,2.67.24-1.01,1.39-1.11,1.08-2.67-2.67.09-5.25-6.11-6.44-1.07Zm23.08-.53c.68-.03,1.04-.39,1.07-1.07-.21-.06-.31-.22-.27-.53h-1.07c-.04.66-.04,1.29.27,1.6Zm8.32.8c.81.08.96.83,2.15.53.21-.59.57-1.04.54-1.87-1.02-1.2-2.63-.02-2.68,1.33Zm-66.55-.27c-.03-.68-.05-1.37-.8-1.33-.52.51-.28,1.63.8,1.33Zm26.57,2.13c.63.09.01-1.45-.27-1.87-.57-.84-1.76-1.35-2.41-1.6-.68,1.68-1.25,3.84,1.07,4,.15-.65.23-1.37,1.07-1.33.34.11.55.34.54.8Zm55.55-2.4c-1.46-1.11-3.27-.27-2.95,1.87,1.4-.24,1.01,1.31,2.41,1.07.2-1.08,1.06-1.9.54-2.94Zm61.72,0c.48-.06,1.34.27,1.07-.53-.5.04-.9.18-1.07.53Zm-91.5.27c-.11,1.54.97,1.88,2.41,1.87.15-.56.66-.76.53-1.6-.54-.49-2.17-.84-2.95-.27Zm31.93.27c-.23,1.58.15-1.07,0,0h0Zm93.38,2.13c1.18-.18,1.1.05,1.88-.53v-1.6c-2.13-1.07-3.44.72-1.88,2.13Zm-116.73.27c1.19.02,2.28-.05,2.15-1.33-.51-.47-1.08-.88-2.15-.8-.53.52-.17,1.52,0,2.13Zm-59.84.53c.22.76.61,1.35,1.34,1.6,1.18-.37,1.83-2.14.81-3.2-1.26-.13-1.44.64-2.15,1.6Zm168.52-1.07c-.73.81.82-.73,0,0h0Zm-97.14,0c-.07.55-1,.25-1.07.8.8.17-.26.57,0,1.07,1.02.41,1.58,1.27,1.88,2.4,1.47-.04,2.68,1.32,3.49,1.07-.34-.78.17-1.59,0-2.93-1.16-1.07-3.2-1.27-4.29-2.4Zm-5.91,3.47c-.19.82.46.79.27,1.6-.83-.03-.76.84-1.88.53.77,1.41,3.18.89,4.29,1.33.06-.3.3-.42.54-.53.26-1.33-.55-1.59-.81-2.4-.82-.19-.98.27-1.61.27-.47-1.68-.08-2.71-1.88-3.2-1.37,1.12.29,1.88,1.07,2.4Zm114.31-1.87c.42-.03.93.04.81-.53h-.54c0,.27-.22.32-.27.53Zm-44.54,1.87c1.16-.27,1.35-1.51,2.68-1.6-.78-.29-1.55-.6-2.68-.53-.33.82-.69,1.63,0,2.13Zm42.13-1.33c.21.06.31.22.27.53.88.07,1.29-.32,1.34-1.07-.61-.61-1.18.18-1.61.53Zm-148.12.53c.06-.5-.3-.59-.27-1.07h-1.34c-.21,1.1.92,1.68,1.61,1.07Zm26.83-.8c-1.27-.63-3.07,2.48-.54,3.47,1.54-.63,1.61-2.93.54-3.47Zm126.93,1.33c.34.37,1.27.37,1.61,0,.06-.95-.39-1.39-1.34-1.33.11.64-.49.58-.27,1.33Zm-151.35,0c.29.96.74,1.75,1.88,1.87.22-.58,1.01-.59,1.07-1.33.05-1.24-2.83-1.85-2.95-.53Zm-45.62,1.87c.36.27.81.44,1.07.8.94-.31,1.7-.8,1.61-2.13-.83-1.52-3.21-1.19-2.68,1.33Zm107.87.53c.48.74,2.47.74,2.95,0,.21-2.89-3.36-3.51-2.95,0Zm-56.89,0c.24.56,1.14.46,1.07,1.33,1.13.12,2.88-.38,3.22.53-.14-.97.95-.97.8,0,1.01-.24,2.13-.37,1.88-1.87-2.56-.27-6.24-4.04-6.98,0Zm-41.32,0c1.14.02,1.54.78,1.34,2.13h.81c.01-.16.04-.32.27-.27-.93-1.06-.71-1.55,0-2.67-.76-.23-1.1-.86-2.15-.8-.31.32-.3.94-.27,1.6Zm63.33.53c.63.74.95.25,1.88.8.36-.62,1.08-.88.81-2.13-1.27-.81-2.55-.32-2.68,1.33Zm117-.27c1.08.17,2.23-.97,1.61-1.6-.52-.05-2.6.15-1.61,1.6Zm-42.13.8c.46-.45.21-1.57-.81-1.34.03.68.05,1.37.81,1.34Zm-143.56,1.33c.59.3,1.1.69,2.15.53,1.47-2.71-2.73-4.13-2.15-.53Zm100.63.53c-.34.37-1.27.16-1.61.53.3,1.04,1.37,1.31,2.68,1.33.06-.3.3-.42.53-.53.23-1.48-.98-1.51-1.07-2.67.16-.25,1.19-1.37,0-1.33-.28,1.29-.95,1.15-.54,2.67Zm56.62-.27c1.21.13,1.87-.28,1.61-1.6-.31-.22-.72-.35-1.34-.27-.09.63-.42,1-.27,1.87Zm-1.61-1.07c0-.27-.47-.34-.54,0,.06.32.3.16.54,0Zm26.3,2.93c.58-.45,1.24-1.77.54-2.67-2.06-.37-1.95,2.39-.54,2.67Zm-128-1.6c.9.41-.61,1.56.54,1.6.08-.81.83-.95.53-2.13-.5.04-.89.18-1.07.53Zm-1.34,2.13c.02-1.27.06-2.55-1.34-2.4-.11,1.35.59,1.91,1.34,2.4Zm53.4-1.6c-.63,1.3,1.36,1.45,1.07,3.2-.28.79-1.54.6-1.61,1.6.38.07.31.59.54.8.63,0,.79-.46,1.61-.27.74-.24.06-1.9,1.34-1.6-.33-1.43-.09-1.95.54-2.93-.17-1.17-2.41-1.39-3.49-.8Zm86.4,1.6c.62-.75.15-2.12-1.07-1.87-.11,1.08.1,1.86,1.07,1.87Zm-195.35.53c.39-1.29-.76-2.43-1.61-1.6.51.56.03,2.11,1.61,1.6Zm97.95,0v1.33c.55.25,1.06.54,1.61.8.39-.59.67-1.29.54-2.4-.77.03-1.76-.15-2.15.27Zm66.01,1.07c.07-.61-.07-1-.54-1.07-.42.4-.3,1.19.54,1.07Zm-49.91-.53c.31,1.05.31-1.05,0,0h0Zm-58.23,2.4c.7-.1,1.47-.14,1.88-.53-.83-.15-.53-1.43-1.88-1.07v1.6Zm-5.63,1.33c.76.22.69-.38,1.34-.27,0-.71.1-1.52-.27-1.87h-1.07c-.44.43.24,1.12,0,2.13Zm42.93-1.07c.36.38,1.52.38,1.88,0,.17-1.85-1.55-.64-1.88,0Zm21.74,1.07h2.95c.17-1.42-1.06-1.44-1.61-2.13-.43.73-1.32.99-1.34,2.13Zm46.42-1.87c-.23,1.58.15-1.07,0,0h0Zm34.62,1.07c.67-.22,1.44-.35,1.34-1.33h-1.07c-.23.31-.35.72-.27,1.33Zm-82.65.8c.5-.52-.24-1.33-.81-1.6-.01.81.25,1.36.81,1.6Zm-100.63,1.33c.81.08.96.83,2.15.53,2.14-2.83-2.61-4.61-2.15-.53Zm22.81-2.4c-.18,1.16.48,1.48,1.07,1.87.36-.39.55-2.11-.27-2.13-.05.31-.42.29-.8.27Zm151.34,1.07c-1.29.39-.25-1.53-1.34-1.33.04.69.57,2.26,1.34,1.33Zm-164.49,3.47c1.14-.79,2.19,1.99,3.76.8-1.08-2.21-2.62-3.98-4.56-5.34h-.81c-1.01,2.04.81,3.42,1.61,4.54Zm-20.39-2.13c.23-1.39-.95-1.37-1.88-1.6-.22,1.32,1.27,1.94,1.88,1.6Zm84.26-.53c.24-.73.94.47,1.34-.27.3-1.53-2.6-.61-1.34.27Zm74.33,0c.4.14.68.39,1.07.53.31-.32.3-.94.27-1.6-.88-.07-1.29.32-1.34,1.07Zm-75.67,2.4c.79-1.11-.3-2.26-.8-2.93-.19.83.39,2.46.8,2.93Zm8.32.27c1.22.33,1.05-.73,2.15-.53.37-3.38-4.39-1.91-2.15.53Zm38.91-2.4c-1.36-.73-1,.93,0,0h0Zm-53.67,2.13c.42.98,3.05,1.15,3.76.27.26-1.33-.55-1.59-.81-2.4-1.79-.09-3.01.39-2.95,2.13Zm-47.5-1.6c-.3.03-.42-.39-.54,0,0,.27.47.34.54,0Zm.54.53h.54c0-.27.22-.32.27-.53-.34-.01-.37-.34-.8-.27v.8Zm22,1.07c1.11.08,1.49,1.92,2.42,1.33.05-1.74-1.34-2.04-2.15-2.93-.31.32-.3.94-.27,1.6Zm32.47.27c.45.45.7,1.08,1.61,1.07.22-.82.85-2.17.27-2.93-1.26,0-1.62.88-1.88,1.87Zm-40.52-1.07c-.11.64.49.58.27,1.33,1.33.42,1.68-.92,1.07-1.6-.62-.09-1.03.04-1.34.27Zm64.13,2.67c1.29-.27,1.21-3.58-.8-2.94-.39.94-.53,2.93.8,2.94Zm45.62-1.33c.35.54.88.9,1.61,1.07.7-.42,1.99-2.32,1.08-2.67-.74,1.19-2.66-.37-2.68,1.6Zm-115.12-.27c-.04-.85-.61-1.17-1.61-1.07.01,1.32.55,1.32,1.61,1.07Zm33.01-.53c.04.76.49,1.11.54,1.87.93.21,1.03-.4,1.88-.27.1-1.65-1.28-2.68-2.42-1.6Zm109.48.27c.08-.7-.37-.88-1.08-.8-.27.89.37.87,1.08.8Zm7.24-.27c.03.68.39,1.04,1.07,1.07.06-.21.22-.31.54-.27v-1.33c-1.12.19-1.06-.1-1.61.53Zm6.17,1.07c.79-.07.82.6,1.61.53.16-1.04-.23-1.55-.54-2.13h-1.07v1.6Zm-95.26.27c1.02.4,1.72,1.13,2.95,1.33.49-2.2-2.76-4.47-2.95-1.33Zm24.96.53c.71-1.04-.18-2.38-1.61-2.13-.1,1.34.49,2.01,1.61,2.13Zm-8.59-1.6c-.21,1.55.94,1.73,1.88,2.13.63-.86-.15-3.13-1.88-2.13Zm31.93,2.4c.49-.63.7-1.54.27-2.4-2.59-.41-1.94,2.31-.27,2.4Zm13.42-1.87c-.03,1.01.52,1.43,1.34,1.6.21-.59.56-1.04.54-1.87-.6-.6-1.34.02-1.88.27Zm-128.8,2.13c.06-.21.22-.31.54-.27.03-1.18-.32-2-1.34-2.13-.54.73-.4,2.57.8,2.4Zm33.27-1.07c.72.12,1.38,1,2.15.27.41-2.12-2.15-1.83-2.15-.27Zm73.53-.8c-.29,1.55,1.16.11,0,0h0Zm28.98,1.6c.8.32.91.07,1.61-.27-.15-.74-.28-1.5-1.34-1.33-.31.31-.31.94-.27,1.6Zm6.17-1.07c-.06,1.02,1.11,1.7,1.88,1.07-.06-1.32-.97-1.94-1.88-1.07Zm-77.55,1.33c1,0,1.31-1.25.54-1.6-.37.34-.16,1.26-.54,1.6Z"/>
  <g>
    <path class="cls-3" d="m193.74,80.57c.09-.18.16-.37.27-.53"/>
    <path class="cls-5" d="m51.39,22.01c.18-.09.27-.27.4-.4"/>
    <path class="cls-5" d="m150.27,43.22c.17.09.43.1.67.13"/>
    <path class="cls-2" d="m165.57,64.3c.08-.19.12-.42.21-.59.31-.05.62-.09.86-.21"/>
    <path class="cls-5" d="m50.45,153.4c-.09-.17-.1-.43-.13-.67"/>
    <path class="cls-4" d="m56.22,122.32c.19.08.21.33.27.53"/>
    <path class="cls-5" d="m55.01,129.93c.09-.17.1-.43.13-.67"/>
    <path class="cls-5" d="m104.52,207.43c.08-.19.33-.2.54-.27"/>
    <path class="cls-1" d="m57.69,187.28c.16-.31.14-.79,0-1.07"/>
    <path class="cls-4" d="m199.11,186.22c-.27-.17-.53-.36-.81-.53"/>
  </g>
</svg>