<?xml version="1.0" encoding="UTF-8"?>
<svg id="Layer_1" data-name="Layer 1" xmlns="http://www.w3.org/2000/svg" viewBox="0 0 226.77 226.77">
  <defs>
    <style>
      .cls-1 {
        stroke-width: .33px;
      }

      .cls-1, .cls-2, .cls-3, .cls-4, .cls-5, .cls-6 {
        fill: none;
        stroke: #000;
        stroke-linecap: round;
      }

      .cls-1, .cls-2, .cls-3, .cls-4, .cls-5, .cls-6, .cls-7 {
        fill-rule: evenodd;
      }

      .cls-2 {
        stroke-width: .41px;
      }

      .cls-3 {
        stroke-width: .28px;
      }

      .cls-4 {
        stroke-width: .34px;
      }

      .cls-5 {
        stroke-width: .35px;
      }

      .cls-6 {
        stroke-width: .36px;
      }

      .cls-7 {
        stroke-width: 0px;
      }
    </style>
  </defs>
  <path class="cls-7" d="m39.27,14.8h.55c-.05.24.11.26.28.28v.56c-.23-.05-.26.11-.28.28h-.55c.05-.24-.11-.26-.28-.28v-.56c.24.05.26-.11.28-.28Z"/>
  <path class="cls-7" d="m80.48,14.8c.34.12.57.36.55.84-.96.24-.95-.43-.55-.84Z"/>
  <path class="cls-7" d="m110.07,148.3c.07-.35.55-.28.55,0-.25.17-.49.34-.55,0Z"/>
  <path class="cls-7" d="m155.42,204.99h.55v.56h-.55v-.56Z"/>
  <path class="cls-7" d="m215.43,11.17c.16,2.46-.71,4.95-.28,7.82.14.96.81,1.81.83,2.79.04,1.6-.77,3.17-.83,4.75-.06,1.4.53,2.74.55,4.19,0,.77-.51,1.61-.55,2.51-.05,1.06.29,2.36.28,3.35-.03,2.36-.81,4.24,0,6.42-.61,1.97-.02,3.48-.83,5.31,1.75,9.09-.64,20.88,1.11,29.6-.75,2.61-.46,6.17-.55,9.5-.12,4.15.59,8.55-.55,12.29.14,1.16.97,1.63,1.11,2.79-.89,2.53-.15,5.76-.28,9.22-.07,1.97-.38,4.02-.28,5.87.04.75.49,1.48.55,2.23.5,5.58-.65,11.42.55,16.76.34,1.27-.76,1.1-.55,2.23,1.35,9.09-.43,20.5.55,30.16-.55,3.1-.71,5.66.28,8.38-.32,3.28-1.44,8.29,0,11.45.23,1.26-.65,1.39-.83,2.23,1.17,5.51.48,11.11.83,15.92.07,1.02.75,2.05.83,3.07.19,2.45-.49,4.77-.83,7.26-1.4.88-3.79.58-5.26,0-10.95,1.01-20.09.21-31.53,1.4-1.27.26-1.33-.7-2.49-.56-6.2.17-10.87-.37-16.32-.28-5.05.08-9.95.22-14.93,0-.89-.04-1.72.3-2.49-.56-3.29,1.39-7.8-.03-11.06,1.12-12.92-1.15-26.76-.34-40.38-1.12-.78.15-1.44.41-2.21.56-6.12-1.09-14.61.47-19.36-.84-19.91-.23-38.71.91-58.35-.28-1.02-1.86-.38-3.97-.55-5.87-.11-1.13-.71-2.17-.83-3.35-.16-1.6.13-3.62.28-5.31.13-1.47.66-2.95.83-4.47.09-.75-.33-1.64-.28-2.51.05-.83.56-1.5.55-2.23-.02-2.13-.62-4.23-.55-6.42.03-.93.57-2.08.55-3.07-.03-2.06-1.2-4.33,0-6.7-.88-4.94-.52-9.43.28-14.52.08-1.01-.77-1.08-.83-1.96-.29-5.76.58-12,.28-18.71-.18-4.1-.27-8.26-.28-12.29-.01-6.98,1.15-14.39-.28-20.11.2-3,.6-5.74.55-8.66-.08-4.9-1.15-10.46.28-14.8-1.43-5.01,1-10.02-.83-14.24.39-1.09,0-2.98.83-3.63-1.43-5.57.01-13.54-.83-19.27,1.63-9.74.07-21.11,1.11-30.44-.2-1.29-.64-2.33-.83-3.63.34-1.42.41-3.12,1.11-4.19,7.07-1.56,14.91.71,21.85-.56,1.35-.24,1.83.38,2.76.56,7.9-1.96,18.16.72,26-.56,1.56-.36,1.21,1.2,2.77.84,3.85-.99,7.6.26,10.78-.84,1-.31,1.27.94,2.21,1.12.61.12,1.74-.54,2.77-.56,1.89-.02,3.53.26,5.25.84,4.46-2.28,10.36,1.73,14.38-1.12,4.62-.21,7.26,1.1,11.34-.28,5.31,2.1,10.82-.52,16.87.56,2.03-.83,5.87-1.42,7.74,0,6.01-1.33,10.75,1.37,15.76-.56,1.58-.01,2.06,1.08,3.87.84.91.17,2.85-.78,4.42-.84,1.18.3,2.17.79,3.32,1.12,4.62-1.6,11.39,1.09,15.76-.28,1.37-.08,1.78.81,3.04.84,6.7-.72,11.57,1.25,16.87-.84,5.13.65,9.2.18,14.93.56Zm-130.81,2.51h-1.38c-.04.79.68.8,1.38.84.35-.98.79-1.89-.28-2.51-.74.73.34.84.28,1.68Zm-65.27-.84c-.41-.15-.7-.41-1.11-.56-.29.71.93,1.24,1.11.56Zm30.97,1.4c-.84,0-.27-1.41-1.11-1.4-.27.38-.74.56-1.11.84-.2,3.22,2.1,1.91,3.87,2.23.05-1.63.12-3.28-1.38-3.35-.66.3.59,1.29-.28,1.68Zm156.8.28c.22-.62,1.3-.36,1.38-1.12-.79.39-1.4-.76-1.66,0,.97.08-.5,1.24.28,1.12Zm-87.39-.28c-.2.85.48.82.27,1.68,1.53.34,2.59,0,2.77-1.68-.37-1.42-2.17-.43-3.04,0Zm32.35.28c.89.25.39-.91.83-1.12h-.83v1.12Zm43.97-.28h.55c0-.28.22-.33.28-.56-.35-.02-.38-.36-.83-.28v.84Zm-180.03,2.79c-.45-1.14-.61-1.47,0-2.51-.56-.08-.54-.76-1.11-.84-.56,1.05-.53,4.47,1.11,3.35Zm160.12-2.23c.25-1.19-.66-1.19-1.66-1.12,0,.92.79,1.07,1.66,1.12Zm-119.47.56c.37.09.53.4,1.11.28-.03-.71-.16-1.33-.55-1.68.21.86-.76.54-.55,1.4Zm22.95.84c.53.11.22,1.08,1.11.84.66-.63,1.19-1.41,1.11-2.79-1.28-.87-2.54.31-2.21,1.96Zm-60.01.84c.61.32,1.13.72,2.21.56,1.62-3.19-2.78-4.65-2.21-.56Zm18.25-.28c1.61.85,3.34-.89,2.49-2.51-1.92-.26-2.24,1.09-2.49,2.51Zm22.68-1.68c.37.75.52,1.71,1.94,1.4-.09-.84.31-2.17-.55-2.23-.11.63-1.52-.04-1.38.84Zm51.72-.28c-.07,1.18.25,1.98.55,2.79,1.44-.22,2.4-.93,2.76-2.23-.27-1.14-2.55-1.56-3.32-.56Zm17.7,3.07c.36-.95.55-3.07-.28-3.63-3.96-.48-2.45,5.6.28,3.63Zm-82.69-3.35c-.21.06-.55,0-.55.28.21-.06.55,0,.55-.28Zm19.08,1.96h1.38c.38-.36.28-1.21.28-1.96-1.68-.54-2.48.85-1.66,1.96Zm4.7,3.63c-4.63-.15-8.8-.34-13-.28-4.94,1.81-10.13,3.36-13,7.26-.02.17-.04.33-.28.28-.19,2.61.57,4.27.83,6.42.57.91,1.82,1.14,2.49,1.96,2.71.42,4.62.04,7.19-.84,4.3-3.02,8.2-6.42,11.62-10.33,1.54-.77,2.93-1.7,4.7-2.23h4.98c.35-1.75-2.01-.77-1.66-2.51-.27-2.13,1.66-2.04,1.38-4.19-2.78-3.07-5.79,1.4-5.25,4.47Zm93.47-2.51c1.1.09,2.04.02,2.49-.56v-1.96c-1.75-1.49-3.93.71-2.49,2.51Zm13.27-.28c.69.23,1.48.37,2.49.28.62-.66.85-2.49,0-3.07-2.1-.36-2.49,1.03-2.49,2.79Zm17.42-2.51c0-.28-.49-.35-.55,0,.31-.03.43.41.55,0Zm-102.05,2.79c1.9.23,2.93-1.24,2.21-2.79-2.22-.67-3.09,1.24-2.21,2.79Zm11.89,0c.67.53,1.37,1.04,2.77.84.61-.6.65-1.77.83-2.79-1.22-1.71-5.06-.76-3.59,1.96Zm51.44-2.23c-.18,1.48.85,1.75,1.66,2.23.73-.28,1.57-.46,1.66-1.4-.25-.49-.67-.82-.83-1.4-1.16-.14-1.87.16-2.49.56Zm-125,1.12c.58.44,1.12.91,1.93,1.12-.21-.86.76-.54.55-1.4-.32-1.18-2.62-1.62-2.49.28Zm71.07,1.68c.22-1.24-.37-1.68-.28-2.79-4.29-2.25-2.88,5.77.28,2.79Zm38.99-2.23c-.25,2.21,1.03,2.87,2.77,3.07.26-.95.77-1.64.55-3.07-1.02-.8-2.28-.95-3.32,0Zm30.14-.56c-1.44,2.19-.41,5,2.77,3.63-.42-2.1.21-4.73-2.77-3.63Zm10.23.84c.09-.38.39-.53.27-1.12h-.83c-.08.64.06,1.05.55,1.12Zm-47.29.84c1.09.81,1.88.19,3.04.84.39-.28.99-1.76.28-2.23-.93,1.39-1.34-.73-2.49-.28-.25.59-.84.83-.83,1.68Zm15.21-1.4c-.2.85.28,1.02.28,1.68h1.38c.32-.33.31-.99.28-1.68-.37-.4-1.57-.4-1.94,0Zm37.06,2.23c1.17.66,2.73.64,3.32-.56-.01-2.58-3.91-2.51-3.32.56Zm-160.95-.56c1.43.22,1.78-.8,1.38-1.68-.57.17-1.82-.35-1.94.28.58.07.08,1.23.55,1.4Zm174.23.56c1.12-.02,1.31.91,2.76.56-.04-.7.44-.87.55-1.4-.67-1.34-3.96-2.38-3.32.84Zm-144.09-1.96c-.69.03-.86.52-1.38,0-.09,1.31,1.28.75,1.38,0Zm30.42.28c-.11,1.13.43,1.61,1.66,1.4.04-.69.04-1.35-.28-1.68-.78-.23-.72.39-1.38.28Zm109.51,4.19c1.04-1,.48-3.86-.83-4.19-2.18.48-2.21,4.72.83,4.19Zm-62.78-2.51c0-.28-.49-.35-.55,0,.31-.03.43.41.55,0Zm-109.24.28c-.29,1.62,1.2.12,0,0h0Zm34.57,1.12c-.06-.5.28-1.4-.55-1.12-.08.64.07,1.05.55,1.12Zm59.18.84c1.03.11,1.62-.22,1.66-1.12-.24-.6-.68-.99-1.66-.84-.39.37-.39,1.58,0,1.95Zm-66.65-.28c.94.02,1.03-.82,1.38-1.4-.8.12-1.26.59-1.38,1.4Zm44.52,0c.19.86.19.54,0,1.4.64.56,2.12.29,2.49-.28-.34-.69-.41-1.92.55-1.12.23-.79-.39-.72-.28-1.4-1.58-.2-1.18,1.6-2.77,1.4Zm19.36.28c0-.74.15-1.64-.55-1.68.18,1.04-.77,1.64.55,1.68Zm-79.09,1.12c1.37.75,2.64-.06,2.21-1.96-1.15-1.36-2.9-.2-2.21,1.96Zm50.05-2.23c.32,1.1.32-1.1,0,0h0Zm38.72.28c-.54.75.48,1.79,1.66,1.68.16-.91-.19-1.3-.28-1.96-.64-.09-1.06.05-1.38.28Zm79.09.84c.41-.33,1.24-.24,1.11-1.12-.84-.27-1.51,1.91-1.11,1.12Zm-155.42,0c1.15-.32,1.08.59,1.94.56-.12-.81-.58-1.27-1.38-1.4-.06.4-.45.47-.55.84Zm34.02,3.91c1.87-.77,1.48-2.91,1.38-4.47-2.78-1.72-4.58,4.29-1.38,4.47Zm100.11-3.35c-.63,1.79-.95,3.88-1.66,5.58,2.17,2.09.11,8.46,4.7,8.1,1.08-2.08,2.25-4.16,1.93-6.98-.15-1.39-1.46-2.93-.55-4.19-.68-.36-1.34.62-1.38,0-.1-1.76.1-2.57-.28-3.63-1.31-.2-1.82.4-2.49.84-.06-.5.28-1.4-.55-1.12h-.83c-.34,1.19.92.75,1.1,1.4Zm-162.06,1.68c.99,3.19,2.96,5.39,2.49,10.05,2.63,5.26,6.94,8.82,14.1,9.5,1.99-1.25,2.63-3.86,4.15-5.59.38-7.17-2.82-10.74-6.36-13.96-1.18-.11-2.85.27-3.59-.28-.88,2.36.81,3.1.55,5.59-2.66,1.82-3.19-.73-4.7-2.23-.94-.94-2.08-.96-2.49-1.96.17-.94.79-1.43.55-2.79-.98-.57-2.46.39-3.59.56-.99-1.09-2.47-1.73-3.87-1.68-.1,1.96,2.46,1.24,2.77,2.79Zm79.37-2.51c.32,1.1.32-1.1,0,0h0Zm30.97,1.12c.06,1.02.38,1.07,0,1.96.97.85,2.93,1.53,4.15.56.42-2.38-1.67-2.23-2.21-3.63-.41.61-.73,1.31-1.94,1.12Zm21.85.84c.48,1.19,1.24,2.1,2.77,2.23.9-.62,1.28-3.34.28-4.19-1.48.18-2.62.7-3.04,1.96Zm56.42-.56h1.1c.08-.64-.07-1.05-.55-1.12-.12.44-.87.24-.55,1.12Zm-120.85.28c.58.07.08,1.23.55,1.4h2.49c.99-2.3-2.16-3.29-3.04-1.4Zm75.22,2.23c-.27-1.4-.73-2.61-1.94-3.07-1.63,1.48-.21,4.86,1.94,3.07Zm-3.6-2.51c0-.28-.48-.35-.55,0,.31-.03.43.41.55,0Zm-117.53,2.23c1.15-.71-.05-1.62-.55-2.23.03.8-.15,1.83.28,2.23h-.28v.28c-.39.41-.41,1.08.55.84.08-.45-.26-.48-.28-.84h.28v-.28Zm96.79-.84c.51.97,1.05,1.92,2.21,2.23.38-.82,1.46-.95,1.38-2.23-.25-.49-.67-.82-.83-1.4-1.44-.06-2.3.47-2.77,1.4Zm29.31-.84c.15.5.14,1.16.55,1.4-.13-.88.39-1.09.55-1.67-.48-.02-.86.06-1.11.28Zm31.25.28h.55c.43-.69-.94-.82-.83-.28.17.02.33.04.28.28Zm2.49.84c.1,1.33,3.62,1.8,3.59,0-.29-1.33-3.59-2.35-3.59,0Zm-25.17,2.51c2.27.37,2.95-1.84,2.21-3.63-2.02-.21-3.08,1.83-2.21,3.63Zm19.63-1.4c.8-.03,1.81.15,2.21-.28.27-1.12-.83-.84-.55-1.96-1.95-.23-2.01.71-1.66,2.23Zm-68.03-1.96c-.21.06-.55,0-.55.28.21-.06.54,0,.55-.28Zm17.98,1.96c.57.43,2.48.43,3.04,0-.2-.64-.25-1.43-.55-1.96-1.73-.25-2.71.25-2.49,1.96Zm30.7,3.35c-3.56-.5-3.25-4.91-6.91-5.31-.17.76-1.16.7-1.11,1.68.83,1.86.99,4.4,1.38,6.7,3.12,1.88,4.87,5.14,9.12,5.87,1.12-3.89-1.29-6.46-2.49-8.94Zm-36.78,3.35c-1.7-1.45-4.2-2.09-5.53-3.91-1.05.38-1.89.24-2.49,0-2.38-2.68-7.1-1.39-9.68-3.63-4.47,1.41-9.13-2.55-13,0-4.36-2.23-7.77.83-11.61,1.68-2.04.45-4.03.53-6.08,1.12-2.11,3.08-6.1,4.27-10.23,5.31-4.89,5.58-10.92,10.01-14.66,16.76-1.03,4.27-2.41,8.18-3.87,12.01-.13,2.09.86,3.04.83,5.03-.07,1.14-.84,1.57-.83,2.79.48,5.31,2.56,10.42,2.21,15.64,1.39,1.44,3.6,3.05,3.04,5.58,1.69.25,2.51,1.37,3.32,2.51.08,1.97,1.61,2.48,1.94,4.19,3.15,1.66,4.04,5.6,6.91,7.54.04,1.27.58,2.02.83,3.07,4.52,3.25,8.11,7.45,11.34,12.01,3.66,2.35,5.82,6.23,9.13,8.94.14,1.35,1.4,1.56,1.66,2.79,5.34,2.62,7.2,8.74,11.89,12.01,3.39,4.95,7.42,9.26,10.23,14.8v1.4c3.95,4.24,3.5,14.15,3.59,20.67-.7,1.99-2.15,3.22-2.21,5.87-1.09,1.69-2.56,3-3.32,5.03-1.57,1.39-3.68,2.24-4.7,4.19-3.22,2.21-6.7,4.49-11.06,5.59-5.11,1.29-9.8.63-15.49.84-1.21-.54-2.49-1.02-4.42-.84-1.82-.77-3.46-1.72-5.81-1.96-.8-.77-1.74-1.41-2.49-2.23-5.62-1.21-8.48-5.21-13-7.54-2.02-4.1-6.93-5.29-8.85-9.5-.61-3.48-2.32-5.85-4.15-8.1-.05-1.07.16-2.4-.83-2.51-1.45.49-.6,2-.55,3.07.17,4.11,1.43,6.91,1.66,10.33.22,3.23.34,5.26,1.38,7.26v3.63c.18,1.12,1.04,1.56,1.11,2.79-.23,1.08-.59,3.17-.28,3.91,1.47-.54,1.61-2.16,3.32-2.23.54-.02.94.33,1.38.56,1.1.57,1.68.61,3.04,1.12.52.19.88.62,1.38.84,3.3,1.43,6.8,2.27,9.13,3.63,5.95-.74,9.56,4.32,16.04,3.07,5.17,2.03,12.51,1.89,19.08,2.23,3.42-1.22,6.56-2.62,10.51-1.96,4.22-1.72,8.92-1.74,11.62-5.31,1.51-.53,3.06-1,4.42-1.68,1.35-3.01,3.21-5.51,6.64-6.42.56-1.67,1.68-2.77,3.04-3.63,1.08-2.92,2.41-5.57,4.15-7.82.7-2.27,2.03-3.91,3.04-5.87-.5-5.53,1.47-9.24.55-14.52.2-1.01.91-1.5,1.1-2.51-.41-.71-.98-1.25-1.1-2.23-.29-3.94-.38-6.93-1.66-9.22-.59-1.05-1.65-1.73-2.21-2.79-.83-1.56-.91-3.17-1.94-4.75-.2-.85.28-1.02.28-1.67-2.53-1.08-3.17-4.06-4.98-5.87-.57-3.8-3.03-5.69-4.98-8.1.08-1.47-1.82-1.48-1.11-2.79-3.72-.71-5.04-3.85-6.08-7.26-.69.03-.86.52-1.38,0-2.35-4.61-7.28-6.61-9.68-11.17-3.45-1.91-5.49-5.26-7.46-8.66-.88-.38-.92-.06-1.94,0-1.32-2.76-3.73-4.42-4.98-7.26-4.72-1.38-6.11-6.12-9.96-8.38-1.27-3.18-4.28-4.62-4.7-8.66-.99-1.24-2.02-2.43-2.77-3.91-.16-3.28-.96-5.92-1.66-8.66-.07-2.23.31-3.25-.28-4.75.52-2.45.45-5.51,3.04-5.87,1.29.27,1.06,2.09,2.49,2.23,1.21-1.24,3.24-.8,5.25-1.4,1.34-.4,2.17-1.44,3.6-1.4,1.6.05,1.73,1,2.77,1.4.67.26,1.47.04,1.94.28,1.77.9,2.28,2.68,3.04,4.19-.12,1.89.03,3.51.55,4.75,2.3.29,3.2,1.98,4.7,3.07,3.8.02,5.67.26,8.85.84.66-1.33-.94-2.5-1.11-3.91-.49-2.3-.52-5.06-.83-7.54.15-1.33,1.16-1.81.83-3.63-.4-.16-.67-.44-.83-.84-1.24-.61-2.15.55-3.87.28-1.34-.42-1.07-2.46-2.49-2.79-3.55,1.15-5.96-1.79-8.85-1.68-2.32.1-4.08,1.89-6.91,1.95-1.49,1.1-2.09,3.1-3.87,3.91-1.59-.53-4.05-.2-5.25-1.12.47-3.25,3.66-3.75,4.42-6.7,2.17-1.91,4.84-3.3,6.64-5.59,2.98-.9,5.27-3,8.57-3.35,5.71-.6,12.11.93,18.81,1.4,1.22,1,3.05,1.38,4.42,2.23,1.24-.14,2.07.14,3.04.28,5.11,4.25,11.51,7.18,13.83,14.24,1.14.8,1.85,2.04,2.49,3.35-.2,1.04.47,1.2.28,2.23,1.62,2.09,1.78,5.65,3.87,7.26,1.16-1.93-1.02-4.29-.55-7.26-1.19-3.34-1.5-8.16-1.94-11.45-1.26-1.8-1.14-4.99-1.94-7.26-4.02-.63-6.79-3.9-10.79-3.63Zm48.12-7.82c.66,1.55,2.84,3.5,4.42,1.67.16-1.09-.24-1.62-.55-2.23-2.12-.61-2.49,1.25-3.87.56ZM15.76,25.97c1.91,1.23,3.03-1.47.55-1.4-.12.53-.59.7-.55,1.4Zm140.49.28c.82,1.19,3.3,2.83,4.98,1.4.27-3.11-3.76-3.29-4.98-1.4Zm-77.44.28c.34.87.61,1.81,1.66,1.96.27-.75.69-1.35,1.66-1.4.16-1.19-1.5-.54-1.11-1.96-1.36-.16-2.04.36-2.21,1.4Zm-6.64,1.4c.4-.62.69-1.35.55-2.51-1.71-.71-3.37,2.49-.55,2.51Zm1.93-1.95c.39.8-.75,1.42,0,1.67.37-1.12,2.1-.86,2.21-2.23-.91.01-1.06.79-2.21.56Zm121.41,1.12c-1.67,2.03-4.27,3.14-6.36,4.75-.07,1.32-.63,2.15-.55,3.63,3.81,3.93,8.79-.95,11.34-3.35,0-3.07,2.32-3.79,2.49-6.7-2.92-.06-4.26,1.47-6.91,1.67Zm-50.88,1.95c.91.01,1.38.47,2.49.28.41-.61.84-1.2.83-2.23-1.38-1.34-4.01-1.01-3.32,1.95Zm6.64-1.12c-.47,2.98,3.47,3.21,3.59.56-.58-.9-1.6-1.36-2.49-1.96-.02.82-.1,1.58-1.11,1.4Zm54.2.56c.17,1.16,2.15.92,3.04.56-.2-.82-.08-1.97-.83-2.23-.48.1-2,.5-2.21,1.68Zm7.47,1.12c.67-.11.6.51,1.38.28-.09-.65-.33-1.15-.55-1.68-.98.49-.68-.19-1.66-.28-.09.93,1.36.3.83,1.68Zm-51.44,1.12c.65,1.19,2.38,1.27,3.6.56.79-3.79-3.72-3.69-3.6-.56Zm-88.5,0c.56.36.66,1.19,1.11,1.68,1.72.15,2.6-.54,2.49-2.24-1.55.2-3.25-1.56-3.59.56Zm-6.64,2.23c1.23-.15,2.12-.65,1.94-2.23-1.87-1.92-3.7.39-1.94,2.23Zm-51.16-.28c.4.53.62,1.24,1.66,1.12.97-.75.67-3.17-.55-3.35-.29.83-1.4.82-1.11,2.23Zm186.95-1.4c-.38.55-.26,1.59-.55,2.23.59.52,2.03.19,3.04.28.09-.66.44-1.05.28-1.95-.65-.42-2.2-.93-2.77-.56Zm-45.36,2.79c.91.9,2.7.62,3.04-.56-.24-2.02-3.76-2.9-3.04.56Zm-84.9-1.12c-.64.09-.31-.81-.83-.84-.29.71.58,1.59.83.84Zm34.02,1.12c.79.51,1.03,1.57,2.49,1.4.4-.62.69-1.35.55-2.51-.97-1.18-3.11-.42-3.04,1.12Zm105.37-1.12h.55v-.56h-.55v.56Zm-99.83,0c-.07,1.47,1.07,1.71,2.21,1.96-.03-.8.15-1.83-.28-2.23-.73,0-1.58-.11-1.94.28Zm7.47,3.07c.91-.52,2.03.22,3.32-.28.18-2.04-1.09-2.62-3.04-2.51.47,1.33-1.11,2.03-.28,2.79Zm94.86-2.51c-.21.06-.55,0-.55.28.21-.06.54,0,.55-.28Zm-194.14.84c-.79.52-.84,2.64.55,2.51,1.24-.2,1.14-2.92-.55-2.51Zm187.5.28v1.4c1.16.04,1.33,1.27,2.49.56v-1.68c-.54-.39-1.78-.91-2.49-.28Zm-139.11,1.4c.72.36.83.61,1.66.28.2-.85-.28-1.02-.28-1.68h-1.1c.23.79-.39.72-.28,1.4Zm-5.53,1.4c.91-.53,1.34-1.68.55-2.51h-1.11c-.57.72-.24,2.31.55,2.51Zm38.72-1.68c.11,1.01.45,1.78,1.38,1.96,1.01-.1,1.26-.96,1.66-1.68-.31-1.24-2.48-1.53-3.04-.28Zm25.17-.28c.38.88.06.93,0,1.96.8.13.86.99,1.94.84.06-.31.31-.44.55-.56-.4-1.5-.6-2.91-2.49-2.23Zm48.4.84c-1.97.54-3.98-.9-6.08-1.12-1.35,1.43-4.45,1.09-6.08,2.23-.61-.41-1.19-.85-2.21-.84-1.27.67-2.96.92-3.87,1.96,4.05,2.07,7.48,5.45,12.72,4.47,1.18-.22,2.1-1.28,3.32-1.4,1.03-.1,2.24.65,3.32.28.22-.62.97-.7,1.38-1.12-.29-1.23.55-2.16,0-2.79-.78-.61-2.2-.57-2.49-1.68Zm27.38,2.23c.6-.81.23-2.5-.28-3.07-3.24-.66-2.51,3.84.28,3.07Zm-187.23,2.23h1.94c.18-.97,1.02-2.33.28-3.35-2.39-.08-2.49,1.29-2.21,3.35Zm165.93-.56c-.41.05-1.02-.1-1.11.28,1.19-.1.75,1.02.55,1.68,2.14,3.3,9.21,2.92,7.47-3.63-2.55-1.73-5.83-.9-6.91,1.68Zm-82.13-.56c.64.09,1.06-.05,1.38-.28.13-.88-.39-1.09-.55-1.68h-1.1c-.4.39.06,1.36.28,1.96Zm12.17.28c1.13.12,1.75-.29,1.66-1.4-.65-1.76-2.89-.17-1.66,1.4Zm21.85,7.54c-.66.2-1.02.13-2.21.28-.91-1.69-1.17-4.03-1.38-6.42-3.82,1.08-5.48,4.33-5.53,9.22,1.25,2.17,1.49,5.83,1.38,8.94,1.49,1.43,2.93,2.85,4.98,3.07,4.19.45,7.44-3.78,9.68-5.87.34,1.45,4.18,3.47,3.87,0-.97-.88-2.84.4-3.59-.28-.39-3.33,2.28-5.67,1.94-9.21-.13-1.3-1.44-4.6-1.94-5.31-.67-.95-2.25-1.5-3.04-1.95-.88-.5-1.29-2.37-2.49-1.96-.03,3.5,1.25,7.35-1.66,9.5Zm-68.86-8.94c.16.91-.19,1.3-.28,1.95.73.66,1.67,1.11,2.49,1.68,1.94-1.34-.15-4.7-2.21-3.63Zm52.27.56c-.1,1.68.65,2.51,2.21,2.51.06-.22.23-.33.55-.28,1.36-2.14-1.58-4.22-2.77-2.23Zm-55.86,2.79c.27-2.04-1.37-2.16-1.94-3.35-2.08.94-.5,4.7,1.94,3.35Zm-6.64-.28c-.43-1.16-1.6-.57-3.32-.84-1.92-.3-3.81-1.88-5.53-1.95-1.18,1.51-2.25,3.13-3.04,5.03.27,3.06-.05,4.17-.55,6.7.54,1.22,1.56,1.96,2.21,3.07.73,4.57,2.75,7.83,5.53,10.33,1.53.04,2.14,1,3.32,1.4,2.53-.27,5.53,3.15,7.19.28-1.01-2.41-5.01-4.42-6.91-6.7-1.15-1.38-2.32-5.26.83-6.42,1.86.82,2.37,3.01,4.98,3.07.45-.48.14-1.73.83-1.96-.29-2-1.71-3.17-1.11-5.31-2.24-1.37-2.46-4.78-4.42-6.42h.28v-.28c1.39.29-.09-1.88,0-.28h-.28v.28Zm2.77-1.12c.44-.47-.03-1.61-1.11-1.4.15.68.65,1.02,1.11,1.4Zm150.17,1.12c-.79-.44-.26-1.55-1.38-1.4-4.48-.23-9.71-1.88-13,.56.24,2.83,3.56,2.55,5.25,3.91,4.15,1.34,9.16,1.24,13.27,0,.5-3.19-2.53-2.17-4.15-3.07Zm-82.97-1.4v.84c.95.12,1.58-.08,1.38-1.12-.64-.09-1.06.04-1.38.28Zm-102.88,1.12c-.19,1.12.26,1.59.28,2.51,2.14-.85,2.49,1.57,3.6.84-.82-.41.36-1.09,0-1.96-1.25.5-1.52-1.61-2.77-1.96-.18.38-.59.52-1.11.56Zm136.62,3.07c.61-.41,1.29-.74,1.11-1.96-2.09-2.06-4.01,1.61-1.11,1.96Zm-91.26.56c-.16-1.02.93-2.21-.55-2.23-.34.79-.22,1.85.55,2.23Zm111.45-1.96c-2.97.91-4.5,3.27-7.74,3.91-1.89,2.48-5.03,5.14-5.25,8.38,1.37.38,2.98-1.22,5.25-.84.28-.84.83-1.4,1.66-1.68,3.75.07,4.77-2.63,8.02-3.07,1.07,1.79-.89,4.69-.83,7.26-.44.39-.71.96-.83,1.68,1.08,3.47-.18,6.1-1.11,8.94,2.39.09,3.83,3.52,6.36,1.68.12-2.08-1.88-2.01-2.77-3.07.31-5,4.78-5.79,6.09-9.78-1.11-1.61-.25-2.16-.28-4.47-.52-.96-1.12-1.85-.83-3.63-1.95-1.63-4.6-.9-6.36-2.51-.15-1.25-.46-2.33-1.38-2.79Zm-162.61,2.51c2.23-.76,1.22,1.74,2.77,1.68.17-2.31-.03-4.25-2.49-3.91-.43.41-.24,1.43-.28,2.23Zm11.62,2.79c2.92-.67,1.01-3.94-1.11-4.19,0,1.11-.97,4.02,1.11,4.19Zm-5.53-2.51c0-.55.76-.36.55-1.12-.37-.09-.53-.4-1.11-.28-.04.69-.05,1.36.55,1.4Zm178.93,6.7c-1.15-3.68-4.72-4.91-6.91-7.54-1.26.34-1.09-.77-2.21-.56-3.61,1.23-3.94,3.51-1.94,6.14,1.66,2.17,4.69,3.63,5.53,6.14,2.36-.15,2.57,1.88,3.87,2.79,2.66.2,3.17,2.57,6.36,2.23v-4.47c-1.95-1.2-2.43-3.88-4.7-4.75Zm-163.17-6.7c-.1,3.9-3.1,4.88-2.76,9.22-.45.75-.93,1.48-1.38,2.23.26,2.12,1.46,4.45.28,5.87-1.6-.52-2.88-1.37-3.59-2.79.48-.63.59-1.64.55-2.79h-2.49c-.7.5-.37,2.05-1.38,2.23h-1.66c-1.85,1.77-4.98,2.23-5.53,5.31.09.66.86.63,1.11,1.12,1.57,0,2.66-.47,3.87-.84,7.35-.07,8.22,6.4,13.28,8.66,2.74,5.23,5.29,10.67,9.4,14.52,1.03-6.84-5.27-10.11-5.25-15.92,1.52-.23,1.66.93,3.04.84.25-.68.65-1.21.55-2.23-.85-.35-1.97-.43-3.04-.56-.61.51-.14,2.09-1.38,1.96-1.58-3.05-1.95-7.34-3.59-10.33,0-.93.9-.95.83-1.96-.01-2.96-.01-5.1-.28-7.26.61-2.75,2.71-5.42,2.49-8.1-.91-.57-2.09.57-3.04.84Zm22.68,0c.45.76.84,1.57,1.66,1.95.7-.79,1.96-1,1.66-2.79-.45-.17-3.21-.27-3.32.84Zm101.77.56c.69.96,2.8,1.03,3.04-.56-.08-1.9-3.26-1.08-3.04.56Zm-130.53-.56c-.27,1.28,1.38,1.54,1.94,1.12.08-1.09-1.06-1.87-1.94-1.12Zm183.63.84h-1.66c-.13.99,1.9,1.23,1.66,0Zm-68.86,1.4c.35-1.1-.76-.73-1.1-1.12-.13.87.24,1.25,1.1,1.12Zm19.91-.56c.35.02.38.36.83.28.02-.48-.21-.72-.55-.84,0,.28-.23.33-.28.56Zm-9.4,1.95c1.36.72,4.42,2.58,5.53.28-1.48-1.4-4.64-3.57-5.53-.28Zm-135.79-1.4c-.06,1.54.3,2.67,1.94,2.51.08-.85-.89-1.09-.28-1.68.73-.08.22,1.08,1.11.84,1.16-1.54-1.5-2.58-2.77-1.68Zm12.17,1.4h.55v-.56h-.55v.56Zm-17.15,3.63c1.51-.24,2.87-.64,2.49-2.79-.53-.39-1.11-.74-1.93-.84-.81.65-1.12,2.42-.55,3.63Zm195.8-2.23c-.35-1.56-2.44-1.63-3.87-.56-.57,4.38,4.52,3.43,3.87.56Zm-150.44-.28c.02-.17.04-.33.28-.28-.03-.34-.08-.66-.55-.56.04.33-.05.79.28.84Zm37.61,1.68c.61.21-.4,2.05.83,2.23.88-.64-.36-1.48-.28-2.23.99-.3,1.65-.94,1.38-2.51-.49.06-1.38-.28-1.11.56l-.14-.14-.14.14c-1.49-.2-2.51.07-2.21,1.68.69.03.86.52,1.38,0v.28h.28Zm-70.8,1.95c1.13,1.46,3.03.53,3.87-.56-.63-1.96-2.59-2.59-4.42-3.35.79,1.29.67,1.77.55,3.91Zm176.16-2.79c0-.37.49-.25.55-.56-.75.2-.56-.56-1.11-.56-.08.64.07,1.05.55,1.12Zm-60.01,2.23c1.36-.12,2.52-.43,2.21-2.23-1.35-2.26-4.06.47-2.21,2.23Zm-48.4.28c.67-.11.6.51,1.38.28-.27-1.37-.24-1.95-.83-2.51.23,1.17-.54,1.32-.55,2.23Zm-4.98-1.67v1.12c.74,0,1.58.11,1.94-.28.06-.53-.31-.62-.28-1.12-.68-.04-1.33-.04-1.66.28Zm11.89,2.23c.18.84.43,1.61,1.38,1.68.91-.31,1.46-2.09.83-3.07-1.21-.01-1.61.8-2.21,1.4Zm56.14,1.4c1.25-.56,2.57.6,2.77-1.12-.78-.15-.54-1.32-1.38-1.4-.9.39-1.71.88-1.38,2.51Zm54.2-1.68c-.67.94.93-.67,0,0h0Zm-192.2.56c.18,1.11-.73,1.12-.55,2.23.55.81,3.05.81,3.6,0,.38-2.41-1.2-2.78-3.04-2.23Zm150.44-.28c-.29,1.62,1.2.12,0,0h0Zm-23.78.84c-.11,1.51.25,2.54,1.94,2.24.29-.74.33-1.71.28-2.79-1.01-.09-1.54.31-2.21.56Zm22.95.56h.55v-.56h-.55v.56Zm18.25,4.75c-.23,3.75-3.1,6.38-3.04,9.77-1.37,1.5-2.85,2.89-3.59,5.03-2.97,1.84-4.03,5.62-7.47,6.98-.05,1.35-1.33,1.45-1.38,2.79-.81.39.49.96.27,1.67-.89.78-1.94,1.39-3.87,1.12-1.77-2.55,1.01-6.99-.83-9.5.65-.46.6-1.63.55-2.79-.82-4.1-3.26-6.58-5.53-9.22-1.15-.33-2.6-.35-3.87-.56-.99-.39-1.08-1.7-2.21-1.96-3.29,1.22-9.77,4.41-4.98,8.38,3.23-.4,2.39-3.6,6.09-3.07,1.76.25,4.11,2.64,4.42,5.03.52,4.04-1.19,9.45-3.87,11.17.02,3.88.69,7.12,1.66,10.05,4.89,3.39,11.51,2.56,18.81,2.23,1.19-.66,1.89-1.81,3.04-2.51,5.81-.09,8.53-3.31,13.55-4.19,2.73,1.34,5.67,2.46,8.3,3.91.61-.5.67-1.55,1.1-2.23-.88-2.74-3.39-3.84-6.08-4.75-.82-1.78-3.26-1.92-4.7-3.07-2.03.9-3.91-.5-5.81-.56-2.51-.08-4.7,1.26-7.47,1.12-1.86.62-4.39,3.28-6.64,1.67,3.43-3.8,8.07-6.37,11.06-10.61.58-2.67,2.31-4.18,3.59-6.15.33-3.39,2.37-5.06,2.49-8.66-1.18-1.51-.37-5.02-1.94-6.14-.78.23-.72-.39-1.38-.28-.89,1.74-.17,3.52-.28,5.31Zm-172.02-2.23c.06-.22.23-.32.55-.28.62-1.08-.33-1.29-.28-2.51-2.43-.64-1.91,2.96-.28,2.79Zm45.08,0c.74-.83-1.03-.82-.55-2.23-.87.38-1.67-.69-1.93,0,1.37.2,1.12,2.03,2.49,2.23Zm149.61-2.51c-.21.06-.54,0-.55.28.22-.06.55,0,.55-.28Zm-114.49,3.07c.45.57,1.39.65,2.49.56.59-.79,1.21-2.1.55-3.35-1.99-.06-3.09.79-3.04,2.79Zm110.9-.28c.47,1.95,4.38,1.96,3.59-1.12-.6-.61-1.43-.97-2.49-1.12-.12.99-.93,1.29-1.11,2.24Zm-35.4-1.4c-.72,1.17.75.86.55,2.23,1.13.03,2.17-.04,2.21-1.12-.27-1.42-2.07-1.54-2.77-1.12Zm-81.03,2.23c1.13.12,1.74-.29,1.66-1.4-.46-.37-.59-1.08-1.66-.84-.41.41-.41,1.83,0,2.23Zm-32.91.84c.73,0,1.58.11,1.94-.28.41-1.24-.88-2.46-2.76-2.23.09,1.03.32,1.92.83,2.51Zm-17.15.84c1.58.02,1.64-1.51,2.49-2.23-.53-.31-1.31-.36-1.94-.56.83,1.45-1.25,1.66-.55,2.79Zm66.65-2.23h.55v-.56h-.55v.56Zm58.91.56c-.17,1.57.6,2.18,1.66,2.51.89-.21,1.45-.77,1.66-1.68-1.14-.64-1.58-1.41-3.32-.84Zm-62.78,2.23c.08.66.74-.32,1.11-.28.52-1.66-1.57-2.12-2.49-1.4,1.07-.06.36,1.69,1.38,1.68Zm45.08-1.68c-.14,1.53.19,2.6.83,3.35,1.74.19,2.06-2.28,1.38-3.63-1.04-.21-1.32.34-2.21.28Zm11.06,2.23c1.25.15,1.81-.41,1.66-1.68-1.33-.73-2.47.42-1.66,1.68Zm14.11,4.19c.71-.39,1.32-.9,1.11-2.23-1.69-.43-1.52-2.75-3.04-3.35-.56,2.02-.76,5.95,1.94,5.59Zm-76.05-1.95c1.18.22,1.8.92,2.77,0,.66-3.29-3.54-3.6-2.77,0Zm18.53-2.79c-3.81-.11-4.68.46-8.57.84-1.28,1.22-2.8,2.2-2.77,4.75,2.57-1.68,6.22-.31,6.08,1.96-.22,3.76-8.16,2.05-11.34,3.63.04,2.01,2.08,2,3.04,3.07,2.59-.28,3.64.98,5.25,1.68,4.08.39,5.72-1.67,9.13-1.96,1.6-1.73,3.81-2.86,5.81-4.19.2-1.29.91-2.06,1.11-3.35-.7-1.74.2-4.09-1.11-5.58-2.64.15-4.91-.07-6.64-.84Zm27.38,1.95h1.38c.22-.97-.41-1.07-.28-1.95h-1.11c-.39.37-.39,1.58,0,1.95Zm-128.6.28c1.23.23.86-1.69,0-1.68v1.68Zm195.25-.28c.38.01.61-.13.83-.28v-.56c-.38.01-.61-.13-.83-.28v1.12Zm-9.68.56c.28,1.03.53,2.08,1.11,2.79-.57.73-.96,1.63-.83,3.07.64.66,1.19,1.4,2.21,1.68.54-.48,1.18-.86,1.38-1.68-2.73-1.4-.89-5.28-.83-7.26-.8.68-2.56.39-3.04,1.4Zm-98.45-.56c-.04.9.52,2.62,1.38,1.68-.85-.52.32-1.33,0-2.23-.69-.04-.86.44-1.38.56Zm35.4.56c-.05,1.44,1.08,1.7,1.94,2.23-.31-1.52,1.51-.89,1.38-2.23-.54-1.76-2.51-.87-3.32,0Zm26.55,1.12c.62.4,1.33.7,2.49.56.43-.41.24-1.43.28-2.23-1.8-.36-2.83-.36-2.77,1.68Zm30.7.56c.73.64,1.76.64,2.49,0,.09-1.02-.04-1.82-.28-2.51-1.8-.23-2.15.99-2.21,2.51Zm-152.66-2.23c-2.31-.05-1.92,3.26,0,3.35,1.39.2,1.9-.5,2.77-.84.27,1.12,2,1.95,3.32,1.12-.46-2.79-4.25-2.23-6.08-3.63Zm50.88,1.68c.67-.11.6.51,1.38.28,0-.83.03-1.7-.83-1.68-.12.53-.6.7-.55,1.4Zm113.11,1.96c.24.41.41.89,1.11.84-.35-2.27,1.72-1,3.04-1.12-.66-1.12.44-.69.55-1.68-1.81-1.35-4.14.33-4.7,1.96Zm-57.25-1.96c-.21.06-.54,0-.55.28.21-.06.55,0,.55-.28Zm-18.25,6.42c-.33,1.99.59,4.44,1.1,6.42-.73,1.03-.78,2.75-1.38,3.91,1.28,7.88-2.71,14.83-6.08,19.83.81.76,1.09,2.07,2.76,1.96,2.34-3.78,4.84-7.4,5.26-13.13,1.38-1.21,1.13-4.07,2.21-5.58-.93-4.09.3-9.21-1.1-14.24-1.23-1.64-2.89-2.85-3.6-5.03-.93.27-1.89-.85-2.49,0,1.51,1.55,1.99,4.13,3.32,5.87Zm12.72-1.96c1.87.35,3.43.32,3.87-1.4-.28-4.23-6.14-2.55-3.87,1.4Zm69.14-3.91c.32,1.1.32-1.1,0,0h0Zm-116.15,2.23c1.39.19,1.73-.67,1.94-1.67h-1.66c.2.85-.48.82-.28,1.67Zm37.33,1.68c.72.52,2.64.39,3.04-.28-.01-1.57-1-2.16-1.94-2.79-1.84-.54-1.54,2.21-1.11,3.07Zm35.4-1.95c-.28,1.63,1.9,2.63,3.04,1.4.47-3.3-2.73-3.21-3.04-1.4Zm-68.58.84c.91.02,1.06.79,2.21.56.34-.76,1.07-.7.55-1.68-1.38-.09-2.57.02-2.77,1.12Zm92.37,3.35c1.91,2.33,5.81-1.18,3.04-3.35-2.3-.18-2.73,1.53-3.04,3.35Zm-141.32-1.4c.45.57.58,1.46,1.11,1.96.63-.29,1.67-.18,2.21-.56.27-1.3-.36-1.69-.55-2.51-1.47-.19-1.97.61-2.77,1.12Zm-37.33,1.68c.91.85,1.97,1.55,3.59,1.68,1.15-1.06.35-3.51-.55-4.19-2.05-.21-2.19,1.51-3.04,2.51Zm32.08-1.12c.11,1.95,2.1,2.76,3.32,1.4.79-3.41-2.3-3.01-3.32-1.4Zm130.81,1.68c.53.39,1.11.74,1.94.84,1.4-.95.59-4.18-1.66-3.91-.99.73-.09,1.63-.28,3.07Zm-155.42-1.12c.39,1,2.11,1.83,3.32,1.12.05-1.84-3.18-4.34-3.32-1.12Zm115.6,1.4c1.08,1.38,2.96,1.91,4.42.56.49-3.67-5.24-5.44-4.42-.56Zm67.2,1.95c2.21-.28,3.76-1.23,5.25-2.23,0-.66-.48-.82-.28-1.68-1.37.08-2.06-.53-3.04-.84.51,2.75-2.25,2.19-1.94,4.75Zm-146.85-2.51c.58.16.79.69,1.66.56.46-.46.22-1.64.28-2.51-1.51-.22-2.16.43-1.94,1.96Zm-29.59-.84c0,1.22-.16,2.59.55,3.07,4.04.75,2.31-4.78-.55-3.07Zm115.6,1.12c-.48,1.38-1.6,2.11-1.38,4.19,2.38-.75,7.3-1.2,4.98-4.19-1.62-.2-1.89-.07-3.6,0Zm31.8,1.95c.15-2.29-4.05-3.39-4.15.28,1.06,1.84,4.03,1.54,4.15-.28Zm-47.84,1.68c.98-.76.33-2.83-.28-3.63-3.79-.91-2.75,4.47.28,3.63Zm85.18-3.07c.32,1.1.32-1.1,0,0h0Zm-56.41.56c-.49,1.39.85,2.69,2.76,2.51,1-2.07-.68-3.31-2.76-2.51Zm43.14.56c-.36,1.53-.13,2.3.55,3.35,4.96.86,2.76-6.44-.55-3.35Zm-11.06,0c0,.66-.48.82-.28,1.68,1.86-.01,2.44,1.25,3.32,2.23,1.64.26,1.96-.82,2.77-1.4-.01-.92-.47-1.39-.28-2.51-1.51-1.28-3.35.29-5.53,0Zm-141.59,29.05h.28c.42-.42.08-1.59,1.11-1.4,2.36.84,3.58-.98,5.25-.84,1.85-1.56,2.46-3.76,2.21-7.26-.25-3.57.18-7.29-1.38-9.21.45-1.88,1.38-3.26,1.66-5.31,1.05-.87,2.95.22,4.43-.56.33-.59.15-1.27,0-1.96-.81-3.59-3.54-2.6-7.47-2.23-.75,1.48-2.16,2.29-3.04,3.63-.29,4.1-.2,8.1-1.66,11.73-1.27.58-1.61,2.1-3.87,1.67-2.17-1.35-2.73-4.32-4.15-6.42-2.63-1.54-5.19-3.13-8.29-4.19-1.36.12-4.61.79-4.98-1.4,1.39.1,2.41-.17,3.32-.56.25-2.22-1.68-2.56-3.04-1.68-.52.41-.03,1.83-.55,2.23-2.59-.1-3.35,2.5-6.08,1.4-.51,3.68-2.72,5.63-2.21,10.33,1.26,1.52,2.56,3,3.04,5.31,2.11-.24.89-2.42.55-3.91-.11-2.53-.07-4.91,1.11-6.14,1.82-.76,4.4-1.65,6.91-.84,1.19,1.59,2.83,2.73,4.7,3.63.42,2.09,2.47,2.53,3.6,3.91-.16.91.19,1.3.28,1.95,2.43,2.01,3.77,5.13,7.19,6.14.15.68,1.07.6.83,1.68l-.14-.14-.14.14c-2.06.29-3.85-.41-3.6,2.51.48.72,1.84.57,3.04.56.02-1.14.3-1.64.83-2.79l.14.14.14-.14Zm.28-28.49c0-.28-.48-.35-.55,0,.06.34.31.17.55,0Zm-25.72,3.35c.9.16,1.29-.19,1.94-.28.06-.22,0-.55.28-.56.18-1.21-.48-1.57-.83-2.23-2.37-.46-2.61,2.14-1.38,3.07Zm115.6,1.4c1.03.61,1.26.36,2.77.28.46-.93.92-1.86,1.38-2.79-1.96-1.71-5.01-1.89-4.15,2.51Zm-121.13-2.79c-.2,1.32.39,1.84.83,2.51,1.36-.3,2.49-.84,2.21-2.79-.78-1.06-2.4-.39-3.04.28Zm16.04,1.68c.54.45,2.01.9,2.76.28.54-.68.34-2.41-.28-2.79-2-.34-2.12,1.21-2.49,2.51Zm14.38.28c.64-.38,1.54-.49,1.38-1.68-1.36-2.86-4.55.96-1.38,1.68Zm104.81-.28c1.31.17,1.52,1.44,3.04,1.4,1.2-.25,1.37-2.17.83-3.35-1.82-1.25-3.83-.18-3.87,1.96Zm54.48.28c.41,2.33,2.97,2.17,4.42,1.12.49-2.7-2.98-2.94-4.42-1.12Zm-60.29-.56c.36,1.48-.8,1.43-.55,2.79,2.68,2.34,5.68-1.19,3.04-3.35-1.03.13-1.35.12-2.49.56Zm12.72-.28c-.04.69-.04,1.35.28,1.68h1.1c.22-.6.67-1.56.28-1.96-.68-.04-1.33-.04-1.66.28Zm-38.44,1.68c.76.91.96,2.38,3.04,1.96.62-.69,1.17-2.58.83-3.35-1.71-.98-3.09.53-3.87,1.4Zm-17.42,0c-.15-.41.32-1.44-.28-1.4-.66.19-.85,1.55.28,1.4Zm23.51.84c.67.35,1.34.69,2.21.84.23-.7.76-1.1.83-1.96-1.03-1.57-2.89-.52-3.04,1.12Zm69.41.84c1.22-.31,1.38.47,2.21.56.98-.96,2.15-1.74,3.04-2.79-1.8.5-2.85-.4-4.7-.56-.55.72-1.09,1.76-.55,2.79Zm-8.3-.28c.75,1.34,2.42,1.08,4.15.84-.14-1.8-4.12-3.8-4.15-.84Zm-15.21-.84v1.12c.6.16,2.26.67,2.77,0-1.1.27-.86-.81-1.11-1.4-.68-.04-1.33-.04-1.66.28Zm-62.78,1.95c.61.32,1.13.72,2.21.56-.23-1.42.09-1.73-.55-2.51-1.5-.3-1.53.88-1.66,1.95Zm92.09.56c.72.77,1.73,1.23,2.49,1.96,1.09-.11,1.18-1.23,2.21-1.4-.92-1.58-2.29-2.72-4.42-3.07.62,1.08-.33,1.29-.28,2.51Zm-63.33,0c.05,1.2-.65,1.06-.55,2.79,1.13-.21.95.9,2.21.56.93-1.77,2.69-2.69,2.49-5.59-2.18-.06-1.74,2.53-4.15,2.23Zm17.14,1.12c.82.48,3.12.47,3.6-.28.16-1.47-.56-2.04-.83-3.07-2.38-.35-3.11.96-2.77,3.35Zm-48.95-.84c-.17-.58.45-1.94-.55-1.68-.45.45-.33,1.75.55,1.68Zm76.6-.84h.55c.31-.4.3-.68-.28-.84-.01.36-.35.39-.28.84Zm-68.03.28c-.14,1.15,1.5,1.42,2.21.84.2-.85-.28-1.02-.28-1.68-.94-.02-1.52.33-1.94.84Zm-98.73.56c1.04.21,1.35-.31,1.38-1.12h-1.38v1.12Zm133.3,3.07c1.12,1.06,3.18.42,3.87-.56.18-1.68-.42-2.55-1.11-3.35-2.54-.33-2.6,1.84-2.77,3.91Zm60.57-3.63c0-.28-.49-.35-.55,0,.06.34.31.17.55,0Zm-151.55,1.67c.28,1.55,3.64,1.56,3.6-.28-.79-1.39-3.41-1.95-3.6.28Zm153.49,4.19c-1.12-1.57-.62-4.77-3.32-4.75-.54,1.04-1.85,2.99-.55,4.19.83-.37,2.21-.19,3.04-.56-.08.73-.09,1.4.83,1.12Zm-90.43-1.4c-.85-.82-.45-2.9-2.49-2.51-.43.41-.24,1.43-.28,2.23.87.51,3.04.6,2.77.28Zm3.87,1.4c1.11-.18,2.29-.3,3.04-.84.51-5.28-6.77-2.02-3.04.84Zm-16.59-3.07c-.44-.03-.22-.71-.83-.56-.44.77.72,1.25.83.56Zm103.15.56c.15,1,1.85,1.49,1.11,2.51,1.15-.15.98-2.77.55-3.63-1.04-.12-1.26.59-1.66,1.12Zm-102.32,0c-.28,2.42,2.06,2.87,3.6,1.96.18-2.33-2.13-2.8-3.6-1.96Zm33.74.56c-.08,1.82.37,2.37.55,3.35,1.72-.59,4.29-.32,3.87-3.07-1.4-.45-3.25-1.99-4.42-.28Zm-82.41,1.95c-.06.9.49,1.18.28,2.23,1.35-.25,1.3.92,2.77.56,1.3-2.51-1.39-4.78-3.04-2.79Zm92.37.84c.79.51,1.03,1.57,2.49,1.4.91-.57,1.4-1.56,1.66-2.79-1.11.14-3.69-.57-4.15,1.39Zm-13.27,1.96c.51-3.7-3.85-3.15-3.32.28.59.52,1.47.75,2.49.84.28-.37.46-.84.83-1.12Zm12.17-.84c-3.4-3.36-5.18,3.07-1.11,3.07.99-.4,1.23-1.55,1.11-3.07Zm-126.38,1.39c.62.49.64,1.59,1.66,1.68,1.37-.11,1.82-1.14,1.66-2.79-1.18-1.14-3.26-.89-3.32,1.12Zm89.05-.84c.5,1.36.92,2.8,3.04,2.51,1.6-2.61-1.47-4.78-3.04-2.51Zm6.36.84c.63.57,1.05,1.37,2.21,1.4.64-.56,1.57-.84,1.38-2.23-.4-.9-1.44-1.16-2.77-1.12-.13.8-.98.87-.83,1.95Zm36.23-.84c0-.28-.48-.35-.55,0,.31-.03.43.41.55,0Zm54.48,3.91c.74-1.84.23-4.65-2.21-4.19-1.34,2.04.3,4.81,2.21,4.19Zm-197.18-3.63c.32,1.11.32-1.1,0,0h0Zm126.94,2.24c.67.64,1.69,2.06,2.49,1.68.71-.68,1.17-1.62,1.38-2.79-.93-1.69-4.1-1.38-3.87,1.12Zm-82.69-.28c-.6,1.31.07,2.87.83,3.63,1.32.13,2.1-.3,2.49-1.12-.4-1.62-1.31-2.67-1.66-3.63-.04.89-.63,1.23-1.66,1.12Zm2.77-.28c.28,0,.33.23.55.28-.03-.44.04-.97-.55-.84v.56Zm3.04,2.51c.53,1.24,1.9,1.61,3.59,1.68.16-.4.43-.68.83-.84.19-1.41-.5-1.92-.83-2.79-1.88-.53-3.59-.13-3.59,1.95Zm-47.57-1.4c.44-.78-1.19-.77-1.1-.28.37.09.53.4,1.1.28Zm17.15.28c-4.19-3.59-3.9,4.25-.28,2.23.17-.67.4-1.27.28-2.23Zm122.24-.84c-6.63.75-9.78,5.02-16.32,5.86-1.39,1.48-3.38,2.36-6.36,2.23-1.15,2.2-4.59,2.07-4.7,5.31,1.09.58,1.6,1.74,3.04,1.96,1.14-.8,1.17-2.73,2.49-3.35,6.03-1.45,10.29-4.69,17.15-5.31,1.33-2.38,6.28-1.11,7.47-3.63-.38-1.57-1.52-2.38-2.77-3.07Zm-21.85,4.19c1.95.2,2.59-.92,3.04-2.23-.93-3.7-5.99-.23-3.04,2.23Zm-15.21.28c1.17.78,3.24,1.24,3.59-.56-.15-2.55-5.04-2.54-3.59.56Zm72.73-1.96c.13.64.55,1.43,0,1.96,1.75-.12,1.62-2.09,3.32-.84.06-1.59-2.16-1.59-3.32-1.12Zm-164.82,1.4c.29,1.2.88,2.09,2.49,1.95.97-.78.58-3.31-.83-3.35-.53.49-1.7.33-1.66,1.4Zm-10.51,1.12v1.68c.45.57,1.39.65,2.49.56.32-.85.84-1.5.28-2.51-1.02-.2-1.77-.15-2.77.28Zm168.42,3.63c3.24.56,4.02-2.7,2.21-4.19-3.5-.66-3.86,2.57-2.21,4.19Zm16.04-2.79c-.5.71-.95,1.46-.83,2.79.66.63,1.52,1.07,2.77,1.12,1.37-.58,2.55-2.82,1.93-4.47-.71,1.5-.77-1.1-1.93-.84.12,1.24-.71,1.52-1.94,1.4Zm-135.79.84c-.34-2.35-8.83-2.55-8.02.56.32.05.3.44.28.84,1.64.77,4.47.05,6.64.84.31-.94,1.2-1.61,1.11-2.23Zm98.45-.56c-1.16-1.63-3.99-.45-4.7.84,1.94-.1,1.93,1.78,3.59,1.96v.84c1.15-.43,1.18-1.98,1.11-3.63Zm-126.94-.56c-2.78,0-3.65,1.9-4.98,3.35,1.54,2.15,4.61.51,6.36-.28.25-1.74-.51-2.47-1.38-3.07Zm32.91,3.63c1.99.14,2.69-1.01,2.49-3.07-2.25-1.94-4.11,1.11-2.49,3.07Zm124.73-1.68c1.15.61.55,2.99,2.21,3.07,1.33-.24,1.69-1.45,2.21-2.51-.93-1.7-3.81-3.76-4.42-.56Zm15.49.28c.83.28,1.23.99,2.49.84.13-.33.29-.63.55-.84-.06-1.43-1.61-1.35-2.77-1.67,0,.66-.47.82-.27,1.67Zm-18.25-1.12c-.41.05-1.02-.1-1.11.28.37.36,1.03.37,1.11-.28Zm-170.36,3.91c-.88.15-3.51-.34-3.59,1.4.38.92.99,1.61,2.21,1.68.9-.21.74-1.49,1.11-2.23,2.6.06,5.91-2.84,2.76-4.47-1.97.06-1.28,2.81-2.49,3.63Zm154.04-3.07c-.34-.31-.57-.24-.55.28v.28h.28c.05,1.18-.62.19-.83,0,.3,2.31,4.91,3.24,5.53.56.24-1.99-3.49-2.24-4.15-.84l-.14-.14-.14-.14Zm-22.4,2.51c.93.86,3.63.87,3.6-.84.07-1-.83-1.02-.83-1.96-2-.16-3.11.59-2.77,2.79Zm13.55.28c.6,1.35,1.74,2.15,3.87,1.95,2.6-3.49-3.4-6.02-3.87-1.95Zm22.68.56c1.07,1.09,2.49,1.51,3.59.28.69-3.01-4.61-4.75-3.59-.28Zm-161.78-.28c1.57.09.38,2.96,1.38,3.63.95.12,1.55-.11,2.21-.28,1.28-2.25-.21-3.49-1.66-4.47.67-.18.15-1.41-.55-1.12-.63.58-.47,1.94-1.38,2.23Zm123.62.84c-.2-.85.28-1.02.28-1.68-.85.2-1.01-.29-1.66-.28.25.87.28,1.95,1.38,1.95Zm-136.34.84c1.05-.14,1.41-1,1.38-2.23h-.83c-.38.55-.26,1.6-.55,2.23Zm50.61,29.6c-3.17,2.08-6.68,4.76-9.96,5.87-1.85,2.04-3.14,4.65-6.08,5.58-2.23,3.25-5.6,5.33-8.29,8.1-1.3,2.41-2.96,4.46-5.26,5.87-.83,1.67-.9,4.12-3.59,3.91,1.6-4.53,4.94-7.3,6.08-12.29,1.16-.97,1.37-2.9,3.04-3.35-.04-2.84,1.23-4.35,1.66-6.7.39-.63,1.48-.55,1.66-1.4.58-1.38,1.21-2.69,1.38-4.47.84-1.57,2.57-2.24,3.04-4.19.81.07.85-.63,1.66-.56,3.66-4.31,8.09-7.85,13.55-10.33,1.81-.47,4.52-.33,6.36,0,1.06-.6,2.48-.85,3.32-1.68.71-1.05.18-3.35,1.11-4.19,4.3-1.62,4.4,3.36,7.47,3.91,1.11-3.87-1.35-6.48-3.32-7.82-1.48-1-1.57-.59-3.04-1.12-.7-.25-.6-.95-1.38-.84-.8.88-1.96.35-3.04.56-1.85.35-3.81,1.53-6.36,1.12-1.29.84-2.53,1.73-4.15,2.23-2.44,3.12-4.5,6.62-7.19,9.49.21,1.05-.34,1.34-.28,2.23-2.2.85-1.77,4.36-4.7,4.47.47-2.97,1.61-5.26,3.32-6.98,0-1.77.9-2.63.55-4.75,2.53-3.18,2.34-8.75,1.94-14.24-.87-.19-1.13.03-1.38-.28-3.83,2.28-2,10.27-3.6,14.8-1.06,1.44-1.68,3.33-1.94,5.59-1.67,1.67-2.1,4.58-3.6,6.42-.2,1.04.47,1.2.28,2.23-.73,1.01-1.74,2.99-3.04,2.51-.7-1.46.73-2.92.83-4.47-1.22-1.71-.41-4.39-1.94-6.14.92-1.77-.94-3.14-.83-5.03-3.02-2.72-4.85-6.64-9.13-8.1-.54-.53-1.07,1.32-2.21,1.12-1.93.13-3.32-.63-4.98,0-1.79,2.36-4.52,4.14-5.81,6.7-1.48,2.94-2.64,6.09-2.21,9.78.57,4.9,4.2,8.56,7.74,11.17,1.52.04,2.74-.21,3.32-1.12-.85-1.38-1.42-3.04-3.59-3.07-1.04-1.47-2.56-2.44-3.6-3.91-.16-1.51-.99-2.35-1.11-3.91,1.34-4.13,3.92-7.03,8.02-8.38.35.48,1.32.35,1.38,1.12-.49,2.44.16,3.95.83,5.87,2.32,2.69,7.01,2.97,9.96,5.03-.59,3.76-.55,7.77-.55,11.73-.93.92-1.7,2-1.38,4.19-.85,1.09-1.87,2.02-2.77,3.07-1.9,7.58-5.4,13.53-6.36,22.06-1,.76-.5,3.04-1.94,3.35-.22-2.05-1.59-3.52-.55-5.31-1.07-2.94-2.99-6.46-7.19-5.3.06,2.17,1.94,3.13,2.77,5.03.77,1.79.62,4.12.83,5.86.19,1.61.88,3.06.83,4.47-.1,2.82-1.61,5.7-1.38,8.66-1.04,1.87-1.37,3.49-2.21,5.86-.97,2.73-1.36,5.17-2.21,8.38-.73,2.74-1.63,5.92-.83,8.66,1.02.64,1.86,1.47,3.87,1.12,2.32-2.96.48-7.77,1.38-11.17.64-2.41,2.73-3.13,3.04-5.31,2.77-1.49,4.73-3.79,9.12-3.63,3.05,1.21,3.63,4.9,6.36,6.42.94-.63,2.48-.66,3.32-1.4.98-.96.43-3.47,1.66-4.19,4.08,1.26,4.53,8.87.55,10.61-1.24-.42-.64-2.7-2.49-2.51-1,.2-1.24,1.17-1.1,2.51.37,1.03,2.9-.14,2.49,1.68-1.15,1.44-4.99.18-5.53,2.23,1.16.41,2.78.36,4.15.56,1.72-.5,2.36-2.08,4.7-1.96,2.34-2.76,4.42-5.77,4.15-11.17-.54-1.04-1.28-1.87-1.94-2.79-.13-3.96-3.58-4.57-6.64-5.58-1.47.37-2.31,1.39-4.43,1.12-3.1-1.74-8.08-1.04-10.78.56-1.38,1.68-2.49,3.64-4.15,5.03-.9-2,1.06-3.34,1.11-5.31.62-.59,1.4-1.01,1.66-1.95,1.78-4.16,3.69-8.19,6.36-11.45.06-2.55,1.79-3.41,1.93-5.86,3.02-3.47,5.14-7.85,9.68-9.78,2.47-3.46,5.84-6.02,9.4-8.38,1.13-.44,2.5-.64,4.15-.56,1.34-.88,2.7-1.74,4.42-2.23,3.98-.11,7.28.43,11.34.84.87,1.08,2.7,1.7,3.87,1.68.55.46,1.29.75,1.38,1.68,4.44,1.01,6.7,4.22,10.51,5.87.22-.57-.37-2.3-.55-3.35-1.15-1.35-2.72-2.28-4.15-3.35-.91-2.9-3.36-4.24-5.25-6.14-3.37.15-6.82-.62-9.68-.28-1.54.18-3.5,1.6-4.15-.28,1.98-2.46,6.54-2.34,8.85-4.47,4.59-1.41,9.64-2.37,13.55-4.47,2.21.09,3.11-1.15,5.53-.84.83-.46,1.86-1.04,3.04-1.4,2.27-.67,5.55-.3,6.64-2.23-.69-1.57-2.17-2.42-3.59-2.51-.43-.03-2.67.35-3.32.56-.61.19-.99.89-1.66,1.12-2.98,1.03-6.64.49-9.68,1.12-1.39,1.2-3.46,1.72-5.25,2.51-2.66-.36-4.36,2.93-6.36,1.4,1.58-2.6,5.83-2.49,8.02-4.47,1.27-.02,1.68-.91,3.04-.84,1.08-1.05,2.11-2.16,3.32-3.07.52-.31,1.31-.36,1.93-.56.99-2.08,4.32-1.78,4.7-4.47-.26-.3-1.02-.09-.83-.84-4.31.95-8.12,3.9-11.89,4.47-1.16-.21.38,1.07-.83,1.12-.85.54-2.13.64-3.6.56-2.41,2.03-5.43,3.46-8.57,4.75-.69.7-1.28,1.5-2.77,1.4-.04-.33.05-.79-.28-.84v.56c.09.38.39.53.28,1.12Zm12.72-30.44c.36-.37.36-1.04-.28-1.12.05.42-.1,1.03.28,1.12Zm-4.15,1.96c.86,1.39,2.48.1,4.42.28-.58-1.09-1.84-1.49-2.21-2.79-.65,0-.81-.48-1.66-.28.08,1.2-.84,1.38-.55,2.79Zm-36.5-.28c1.45.93,2.76.22,3.32-1.12-.76-1.46-3.88-1.67-3.32,1.12Zm28.76-.84c.08,1.41,1.03,1.94,2.49,1.95.83-.95.68-3.71-1.38-3.35-.25.59-1.18.48-1.11,1.4Zm-30.97-.84c.1.83.48,1.38,1.11,1.68-.13-.88.5-.99.28-1.96-.64-.09-1.06.04-1.38.28Zm22.4,3.63c.21.06.55,0,.55.28,1.78.03,2.48-1.04,2.21-3.07-.97-.33-1.51-1.08-2.77-1.12-.88.92-.36,2.71,0,3.91Zm125.28-3.63c-.04,1.35-1.28,1.5-1.1,3.07,1.26,1.33,3.29-.05,4.42-.56-1.11-1.78-.32-3.25-3.32-2.51Zm22.95,1.4v1.4c1.2.28,2.42.54,3.32,1.12,1,0,1.51-1.41,2.21-.84-.14.77-1.23,2.34,0,2.79.56-1.54.56-2.89-.28-3.91.47.01.71-.21.83-.56-.78-.23-.94-1.1-1.38-1.68-2.16.36-2.89.74-4.7,1.68Zm-31.8.56c.98,1.4,4.53,1.45,6.08.84.23-1.26-.65-1.39-.83-2.23-2.57.49-5.15-1.87-5.25,1.4Zm13.83,6.7c-.9-.77-1.88-1.45-2.77-2.23-3-.22-4.32-.92-7.46-.56-2.34-1.7-5.57-.85-7.47-2.79-.84.64-2.85.1-4.15.28-.68-.85-2.35-.19-3.32-.56-.89-.34-.58-.91-1.38-1.12-2.11-.38-4.43-.55-6.36-1.12-3.62,1.04-6.73.01-11.06.28-2.59-.87-6.82.75-8.85,2.23,2.37,1.76,6.66-.1,9.13,1.4,2.75-1.13,7.55-.67,9.4.84,2.14-1.11,3.35.47,4.42.84,1.48.5,3.28-.03,4.15,1.12.84,2.17-.37,4.74.28,6.42.32.83,1.23.75,1.38,1.68,3.78-.38,4.98,1.86,7.46,2.79,4.15-1.57,8.92,3.56,11.34-.56-1.66-2.05-5.87-1.51-6.91-4.19.95-1.66,3.73-.26,5.25,0,1.84-.42,3.34-.77,4.98-.84,2.09-.09,3.86.8,5.81.84,2.5.05,4.81-1.25,7.74-1.12,1.62-1.52,3.67-2.62,4.42-5.03-.08-1.22-.44-2.16-.83-3.07.72.28,2.07.47,2.21-.56-1.22-.4-2.02-.16-3.32,0-1.66,2.89-4.67,4.41-7.74,5.87-1.28-1.13-3.98-.82-6.36-.84Zm7.19-5.59c1.27.6,3.19,1.76,3.87,0-.31-.06-.43-.31-.55-.56.67-.16,1.42-.24,1.38-1.12-1.03-1.31-3.23-.08-4.15-1.12-.38.74-.33,1.91-.55,2.79Zm-146.85-1.96c0-.28-.49-.35-.55,0,.06.34.31.17.55,0Zm14.1,3.07c.78.29,2.59.54,3.32,0,.4-3.29-4.15-4.24-3.32,0Zm125.28-2.79c-.31.03-.43-.41-.55,0,0,.28.49.35.55,0Zm25.72.84h1.11c.1-.85-1.01-.47-1.11-1.12v1.12Zm-26,.56c-1.29,3.4,6.11,4.39,6.36.84-.7-3.07-3.87-1.2-6.36-.84Zm-163.44,2.51c.74,0,1.58.11,1.94-.28.23-1.17-.54-1.32-.55-2.23-1.91-.69-1.98,1.57-1.38,2.51Zm12.45,1.68c1.47-.53.77-1.56.83-3.35-2.56-1.74-3.65,3.56-.83,3.35Zm4.15-1.4c.33.32.98.32,1.66.28-.04-.89.27-2.14-.83-1.96-.25.59-.84.83-.83,1.68Zm3.87.28c.9,3.16,4.98.87,3.6-1.96-1.21.14-3.13.33-3.6,1.96Zm12.17,1.95c2.42,1.97,3.2-1.28,3.6-3.07.49.24.81.88,1.38.28.08-.64-.07-1.05-.55-1.12-1.33,1.45-4.82.72-4.42,3.91Zm-38.99-.56c-.06-.53.31-.62.28-1.12-.21-.72-.88-.97-1.93-.84-.64,1.19.02,2.27,1.66,1.95Zm117.26,1.68c.93.44,2.06,0,2.77-.56-.52-1.53-1.27-2.82-3.04-3.07-.68,1.04.16,2.51.28,3.63Zm77.71-3.07c.48.01.71-.22.83-.56-.43.03-.96-.04-.83.56Zm-17.7,1.39c.36-.37.37-1.04-.28-1.12.05.42-.1,1.03.28,1.12Zm-53.93,3.07c2.32.48,2.84-.85,3.87-1.67-.11-1.1-1.21-1.19-1.38-2.23-2.44-.17-3.62,2.09-2.49,3.91Zm4.42-2.23c.86.09,1.48-1.29.55-1.4.04.69-.43.86-.55,1.4Zm2.49-.56c.21,1.05-.34,1.33-.28,2.23,1.42,1.73,3.93.99,4.42-1.12-1.01-1.25-1.99-1.54-4.15-1.12Zm45.35.28h.55c.43-.69-.94-.82-.83-.28.17.02.33.04.28.28Zm-154.32,3.07c.78.33,1.17.05,1.93-.28-.18-1.49-.7-2.64-2.21-2.79-.6.81-.23,2.5.28,3.07Zm167.87-.84c.77.3,1.49,1.64,2.49.84.44.49.99,1.71,1.66,1.12.3-1.25.58-3.36-.28-4.19-2.01.02-4.64-.59-3.87,2.23Zm-52.27,0c.81.39.94,1.47,2.21,1.4.96-.26,1.56-1.99.83-3.07-.4-.43-1.42-.25-2.21-.28-.39.54-.73,1.12-.83,1.95Zm-108.96,3.35c1.63-.77,1.39-3.2.55-4.47-2.82-.62-2.94,4.47-.55,4.47Zm107.3-1.96h.55v-.56h-.55v.56Zm-13.55,3.07h1.38c.54-.68.34-2.41-.28-2.79-2.16-.77-1.95,2.17-1.11,2.79Zm-95.96-.56c-.26-.49,0-1.5-.83-1.4-.05.8-.03,1.52.83,1.4Zm160.4-1.12c-.21,1.52.43,2.18.83,3.07,3.17.15,4.54,2.12,7.47,2.51.18-1.86-.48-2.87-1.11-3.91-3.12.34-4.04-2.96-7.19-1.67Zm-118.64,1.95c.83.37,1.14-.1,1.94.56.55-.55.17-1.59,0-2.23-1.23-.03-2.16.24-1.94,1.67Zm65.26-1.39c.22,1.18.38,2.41,1.38,2.79,1.14-.15,1.55-1.04,1.38-2.51-.54-.45-2.01-.9-2.77-.28Zm46.74,1.67c-3.64-.42-3.15,3.34-6.36,3.35.37,1.02,1.27,1.51,2.21,1.96,1.08-.21,1.33-1.26,1.94-1.96,2.74-1.29,6.07.19,7.74,1.68v-1.68c-.62.12-1.5.64-1.66-.28.89-1.5.48-3.71-.55-4.75-1.64.02-1.96,1.37-3.32,1.67Zm-59.18-.84c.84.76-.76-.85,0,0h0Zm18.81,1.96c.49.82,2.34,1.26,3.04.28.79-2.88-3.75-3.59-3.04-.28Zm-13.83,1.4c.57.08.55.75.83,1.12,2.55.31,3.95-1.98,2.21-3.63-2.15-.31-3.4.28-3.04,2.51Zm-66.65,1.4c.72.3,1.36.68,2.49.56.53-.59.8-1.43,1.11-2.23-1-.66-1.74-1.59-3.04-1.95-.68.77-.84,2.7-.55,3.63Zm111.45-3.35c.52,1.99.53,4.49,2.49,5.03.37-1.4-.95-1.09-1.1-1.96.38-.82,1.35-1.06,1.38-2.23-1.59.28-1.12-1.96-2.77-.84Zm-145.47,1.39c.48.49,1.71.31,1.94-.28-.41-.05-.25-.67-.28-1.12-1.13-.12-1.75.29-1.66,1.39Zm144.08-.56c-.66.11.15-1.27-.83-.84-.29.71.58,1.59.83.84Zm-36.5,3.07c.83.64,2.08,1.22,3.04.28.16-1.09-.24-1.62-.55-2.23-1.75-.28-2.36.6-2.49,1.96Zm12.44.56c.44,1.02,2.7,1.66,3.6.56.53-3.45-3.67-3.92-3.6-.56Zm-88.22.56c.82-3.03-3.57-2.76-3.87.56.78.42,1.09,1.32,2.49,1.12.47-.83,1.21-1.06,1.38-1.68Zm82.41-1.67c-.65,1.12.19,1.66.55,2.51,1.3,0,2.82.25,2.76-1.12,0-1.47-2.14-2-3.32-1.4Zm46.46,1.67c.8.87,2.33,1.84,3.87,1.12.06-.22,0-.55.28-.56.47-2.91-3.87-2.68-4.15-.56Zm5.25.84c.26-.24.59-1.78,0-1.95-.66.12-.89,1.88,0,1.95Zm-145.19-1.12c-.4,1.8.9,1.88.83,3.35.94.26,2.03.37,3.04.56,1.09-2.61-1.55-5.58-3.87-3.91Zm132.75-.28c-.42,1.54.52,4.12,2.77,3.91,1.03-.54,1.44-1.71,1.66-3.07-1.34-.3-3.12-1.4-4.42-.84Zm-120.3.56c.63.08,1.04-.07,1.11-.56-.49.06-1.39-.28-1.11.56Zm99,2.23c1.16.59,3.19-.04,4.42-.28.18-2.71-4.89-2.55-4.42.28Zm-151.83-1.95c-.44.68-1.03,1.19-.83,2.51,1.66.28,2.22-.55,2.77-1.4-1.51.5-.55-1.49-1.94-1.12Zm72.73,0c-1.48,1.76-4.31,2.16-5.25,4.47,2.89-.34,5.83-.63,7.74-1.96-.08-1.16.36-1.09,0-1.96-.61-.4-1.33-.7-2.49-.56Zm87.39,1.95c.63.57,1.05,1.37,2.21,1.4.56-.64,1.25-1.16,1.38-2.23-1.24-.72-2.93-.39-3.6.84Zm25.44,0c.57,1.49,3.14,2.93,4.15.84-.13-.99-.7-1.53-1.11-2.23-1.6-.13-2.94.01-3.04,1.4Zm-49.5.56c-3.07.11-9.57-3.77-12.45-.28,1.74,1.78,5,2.03,8.02,2.51.94.73,2.33,1,3.59,1.4h2.21c2.33,2.68,7.03,2.96,9.4,5.59,2.03.1,2.46-.48,4.15-1.12-1.23-2.48-5.3-2.1-6.08-5.03,1.34-.86,2.29.76,3.59.84.75-.83,1.39-1.76,1.38-3.35-.56-.65-.92-1.49-1.93-1.68-2.51.26-2.14,3.42-4.7,3.63-1.96-1.37-4.62-2.04-6.64-3.35-.03.44.04.97-.55.84Zm30.7,2.23c1.67,1.41,5.05,1.45,4.98-1.4-.98-2.74-5.18-1.68-4.98,1.4Zm-131.36-.56c1.2.75,1.36,2.54,3.32,2.51,3.21-2.33-2.66-6.78-3.32-2.51Zm-32.08.56c.48.73,1.93.66,2.76.28v-1.68c-.83-1.04-3.43-.74-2.76,1.4Zm177.27-.28c1.66,2.8,3.35,4.68,2.49,9.5-2.36,3.31-7.02,3.39-11.89,3.63-4.49-3.39-10.2-5.53-17.42-6.14-1.61,1.91-4.22,2.81-4.7,5.86,1.66,2.33,1.08,6.92,1.38,10.61-1.61,1.07-2.4,2.98-4.15,3.91-1.82-.32-3.23-.82-4.98,0-1.06-.69-2.21-2.17-3.87-1.4.46,3.35,3.6,4,4.98,6.42,1.54-.16,1.94.84,3.32.84,2.42-.55,4.07-.48,6.91-.84,3.03-1.23,4.87-3.65,7.19-5.58.04-1.54.99-2.16,1.38-3.35-.46-1.75.35-3.88-.28-5.87.63-.66,1.01-1.59,2.21-1.68,1.71.32,2.48,1.59,3.87,2.24,4.12-.91,6.59,1.03,9.96,1.67,2.65-1.33,6.16-1.78,8.02-3.91,1.04-2.58,1.69-5.56,3.32-7.54,1.63.78,1.22-.45,3.32.28-.93-1.46.01-3.14-.55-5.03-.96.22-1.06-.42-1.94-.28-.86,1.21,1.04,1.62,1.11,2.79-.78.05-.34,1.33-1.38,1.12-1.76-3.16-3.24-6.6-5.81-8.94,0,1.39-1.88.89-2.49,1.68Zm-149.89,3.07c.54.85,1.94.83,3.04,1.12.8-.83.58-2.7.28-3.91-3.1-.68-2.96,1.29-3.32,2.79Zm-30.97-1.95c-.16.91.19,1.3.28,1.95,1.46.27,1.88-.52,2.21-1.4-.22-.06-.32-.23-.28-.56-.4-.41-1.81-.41-2.21,0Zm125.55,0c-.1,1.18,1.05,2.08,1.93,1.4.23-1.31-1.35-1.78-1.93-1.4Zm27.1.28c-.41,2.61,2.85,3.35,4.42,2.23,0-1.39-.85-1.93-1.38-2.79-1.31-.12-2.26.14-3.04.56Zm7.47.28c.19,1.4-.47,1.95-.28,3.35,4.37,1.96,5.15-6.06.28-3.35Zm-152.38,0c-1.32-.78-.67.92,0,0h0Zm181.69.56h.83v-.56h-.83v.56Zm-179.48,1.96c1.67.05,1.36-2.81-.55-2.23-.13,1.07.08,1.78.55,2.23Zm122.51,1.68c1.42-.61,1.11-2.32.27-3.35-3.56-.82-1.99,3.25-.27,3.35Zm41.76,1.12c1.29.56,2.32,1.38,4.15,1.4,3.51-1.45.18-6.43-3.04-4.19-.05-.88-.19-1.67-1.11-1.68h-.83c-.21,1.98,1.24,2.28.83,4.47Zm-38.16-3.35c.02-.17.04-.33.28-.28-.03-.34-.08-.66-.55-.56.04.33-.05.79.28.84Zm-130.81,2.51c1.01.21,1.54-.69,2.21,0,.32-2.18-.61-3.11-2.77-2.79-.58,1.09-.14,2.22.55,2.79Zm164.82,1.95c1.86-.56,1.27-2.95.55-4.47-4.06-2.16-6.01,5.04-.55,4.47Zm18.81-4.47c-.21.06-.54,0-.55.28.22-.06.55,0,.55-.28Zm-161.78,3.63c.39.07.32.61.55.84h2.21c.66-.69.88-3,0-3.63-1.75.09-2.86.84-2.77,2.79Zm108.13-.28c-.04.69.44.86.55,1.4,1.6.21,2.36-.41,3.32-.84-.32-.51-.18-1.69-1.11-2.23-1.25.43-2.47-.1-2.77,1.68Zm-55.03.84c.63.67,1.01,1.59,2.21,1.68,1.55-2.53-1.07-4.15-2.21-1.68Zm-4.98.84c1-.08,1.33.52,2.21.56,0-.66.48-.82.28-1.67-.5-.08-1.55-1.01-1.93-.28,1.55.73-.59.57-.55,1.4Zm98.73-.84c-.38-.09-.53-.4-1.11-.28-.12,1.04.83.86,1.11.28Zm-101.5,2.23c.54-2.98-4.79-2.72-3.32,1.12,1.71.71,3.09.14,3.32-1.12Zm-63.61.56c.45.48,1.16.69,2.21.56.44-.58.19-1.86.55-2.51-1.64-.95-2.68-.03-2.77,1.95Zm131.92-.84c.97.51,1.31,1.65,2.77,1.67.62-.49.54-1.68.83-2.51-.97-1.51-3.19-.58-3.59.84Zm-146.02,1.67c.94-.07,2.24.22,2.77-.28.44-1.28-.53-2.81-2.49-2.51-.61,1.04-.36,1.28-.28,2.79Zm150.72-2.51c-.24-.21-.79.17-.83.28-.39,1.05,1.38.2.83-.28Zm-139.38.84c-.09-.23-.73-.34-.83,0-.18.65,1.08.6.83,0Zm18.25,2.23c.46.56.74,1.3,1.66,1.4,1.32-.32,2.38-2.68,1.11-3.91-1.66.1-2.64.87-2.76,2.51Zm38.44-.56c.4,1.34,2.56,1.31,3.59.56-.03-.8.15-1.83-.28-2.23-1.3-.65-3.71-.29-3.32,1.67Zm21.85.56c.4.81,1.26,1.15,2.21,1.4.18-.84,1.06-.98.83-2.23-.39-.07-.32-.61-.55-.84-1.63-.25-2.35.42-2.49,1.68Zm-84.07-.28c.36-.37.36-1.04-.28-1.12-.36.37-.36,1.04.28,1.12Zm188.61,1.12c.41-.44.57-2.22-.55-1.95.33.5.05,1.62.55,1.95Zm-133.3-.28c.37.28.55.75.83,1.12,1.28.18,1.71-.51,2.21-1.12,0-1.81-3.05-1.81-3.04,0Zm18.25,1.96c.86.72,1.11.78,2.49.56.27-.75.57-1.47.55-2.51-1.44-1.39-3.55-.79-3.04,1.96Zm64.16.56c1.13.03,2.27.05,3.04-.28.45-.91-.06-1.07,0-2.23-1.97-1.61-3.82.57-3.04,2.51Zm-138-2.23c-.24,2.1,1.33,2.38,2.49,3.07,1.03-.79,1.03-2.84,0-3.63-1.16-.14-1.88.16-2.49.56Zm66.37,1.4c.19,1.95,1.49,2.78,3.32,3.07,1.55-1.75-.5-3.69-1.38-4.75-.58.62-1.7.71-1.94,1.68Zm79.37-.28c-3.62-1.51-1.73,3.21-4.42,3.63.25,1.77-.3,2.68,1.1,3.35,3.17.32,2.35-3.4,4.15-4.47-.37-1.74.46-3.05-.55-3.91-.68.33.57,1.06-.28,1.4Zm-136.89,0c-1.57-1.98-3.63.36-3.59,2.51.83.32,1.7.23,3.32.28.29-.74.33-1.71.28-2.79Zm72.73,1.68c1.22.07,2,.53,2.49-.56-.21-2.57-4.56-2.24-2.49.56Zm51.71,0c.65.09.52.97,1.38.84,1.16-.94.06-2.56-.83-3.07-.31.61-.71,1.14-.55,2.23Zm-138.55-1.68c-.91.66-.7,2.98.55,3.07h.83c.64-1.15.2-3.28-1.38-3.07Zm95.69.84c.37.09.53.4,1.1.28.21-.95-1.05-1.09-1.1-.28Zm99.01,2.51c1.04-.25,1.45-1.14,1.38-2.51-.46-.37-.93-.74-1.94-.56-.11,1.27-.69,2.64.55,3.07Zm-167.87.84c.82-.1,1.4-.45,1.94-.84-.21-1.21.63-1.73-.28-2.23-.68.9-1.93,1.22-1.66,3.07Zm38.44-1.12c.02.84.72,1.49,1.66,1.96.85-.07,1.25-.61,1.94-.84.51-3.97-3.67-3.66-3.59-1.12Zm26.55.56c.35,1.04,1.91,1.4,3.04.84.37-3.13-2.48-3.27-3.04-.84Zm-14.66,0c.11,1.38.88,2.09,1.66,2.79,1.44-.5,3.21-.67,3.32-2.51-.94-1.53-3.83-1.76-4.98-.28Zm-70.8,1.4c.4.53.62,1.24,1.66,1.12.61-.68.73-1.87.83-3.07-1.24-.75-2.64.41-2.49,1.96Zm77.71-.56c-.78,1.13.38,2.29.83,3.07,1.69-.67,3.7.25,3.6-2.51-1.29-.26-2.89-1.44-4.42-.56Zm-13.83.28c-.16.68-.21,1.19-.28,2.51.96.52,1.94,1.02,3.32,1.12,1.51-.59,1.59-2.47.55-3.63-1.41-.26-2.19-.26-3.59,0Zm98.18.28c.04,2.19,1.07,3.39,1.38,5.31,5.51,1.61,4.95,9.34,7.47,13.96-.68,2.38-.77,5.37-1.1,8.1-1.66,3.73-3.85,6.91-6.09,10.05.62,1.42,2.44,1.63,3.04,3.07,1.31-.27,2.2-.95,1.94-2.79,2.49-2.88,3.79-6.98,5.25-10.89-.31-2.46.68-3.59.83-5.58-.2-.83-.83-1.22-.55-2.51,2.55-1.12,3.27,1.62,4.7,2.51,1.91-1,3.26.18,4.98.84,1.61-.33,2.4-1.49,3.59-2.23-.14-.98-.41-1.82-.28-3.07-1.93,1.03-4.67,1.24-7.47,1.4-2-5.9-10.29-5.43-9.95-13.68-2.89-1-3.85-5.4-7.74-4.47Zm-24.61,3.07c.04-1.43-.68-2.1-1.94-2.23-.59,1.3-.5.42-1.38,0-.34,2.2,1.36,2.35,3.32,2.23Zm-132.19,1.96c1.74-.97,1.03-3.86-1.11-3.91-1.44,1.13-.72,3.73,1.11,3.91Zm179.48-3.35c.12,2.02,1.25,3.02,3.04,3.35.49-.25.81-.67,1.38-.84-.24-1.15-.86-1.92-1.11-3.07-1.62-.33-1.89.7-3.32.56Zm-101.22,1.68c.45,1.62,3.57,1.98,3.6-.28-.85-1.51-3.37-2.46-3.6.28Zm-90.43-1.12c-.26,2.5,2.06,3.43,3.87,2.23.97.79,1.83.97,3.04.28-.04-2.96-4.56-2.81-6.91-2.51Zm189.44.28c-2.01-1.32-3.37.48-4.98,1.12-2.14-.11-3.48.58-3.59,2.51,1.41,1.43,3.38-.18,4.7-.56,2.28.16,3.96-.28,4.42-1.96-.37-.18-.52-.6-.55-1.12Zm-142.15,2.79c.42.97,1.6,1.18,3.04,1.12.6-.72,1.11-1.97.55-3.07-1.86-.9-3.27.45-3.59,1.96Zm-6.36,1.96c2.69,1.62,4.15-2.94,1.94-3.91-1.58.57-2.49,1.94-1.94,3.91Zm55.03.84c-7.23.44-11.89-7.91-17.7-2.23-.33,3.61-3.36,6.08-1.66,10.05,1.6.81,3.03,1.78,5.53,1.68,1.55,1.97,4.82,2.21,7.74,2.79,1.3-.55,2.79-.9,3.32-2.23-1.5-1.65-5.52-.76-5.25-4.19.83-1.58,4.55-.25,5.25-1.96,1.24.59,2.95-.48,4.7-.28,1.08-1.5,3.55-4.83,1.38-6.98-1.75.46-1.47,2.98-3.32,3.35Zm52.54-3.91c-.16,1.65.96,2.01,2.49,1.96.26-.67,1.11-.74.83-1.96-.66-.94-2.52-.51-3.32,0Zm-92.37,1.96c.6.61,1.19,1.22,2.49,1.12,2.46-2.25-2.74-4.86-2.49-1.12Zm111.73,2.51c.72.52,2.64.39,3.04-.28.36-1.95-.97-2.19-1.93-2.79-.61.78-1.27,1.51-1.11,3.07Zm-116.98-.84c.95,1.28,1.7,2.76,1.94,4.75.89-.06,1.17.49,2.21.28.51-1.16,1.44-1.9,1.11-3.91-.78-.61-2.38-.39-3.04-1.12.38-.36.28-1.21.28-1.96-1.46.01-2.41.55-2.49,1.96Zm-16.59,1.4c.81.79,2.37,1.59,3.87.84.08-.95.44-1.6.28-2.79-1.53-1.6-3.61.19-4.15,1.95Zm159.85-2.23c-.13.87.59.89,1.38.84-.06-.53.31-.62.27-1.12-.72-.75-.83.34-1.66.28Zm-131.91,1.68c.58.62,1.71.7,1.66,1.96-.68,1.27-3.27.61-4.43,1.4-1.04,2.21-.6,5.91-4.15,5.59-.74.75-1.2,1.77-1.38,3.07-1.89,2.65-6.17,2.89-8.02,5.58,1.17.31,1.95,1.01,3.04,1.4,3.66.44,4.95-1.51,7.47-2.23.64-1.94,3.73-4.17,5.53-1.68.71,2.49-1.34,2.18-1.66,3.63.35.68,1.13.9,1.94,1.12,2.16-1.24,4.56-1.56,7.46-2.51.32-.87,1.58-1.78,1.94-3.07.12-.45-.3-1.09-.28-1.67.07-1.44,1.35-3.02,1.38-3.91.07-1.89-1.34-3.15-1.94-4.75-2.26-.69-4.21-1.7-5.81-3.07-.01-1.2-.3-2.12-.83-2.79-1.61-.32-2.25.33-1.93,1.95Zm123.89,1.12c2.06,1.16,4.28.42,3.32-2.51-.52-.22-1.01-.47-1.66-.56-.39,1.19-1.46,1.69-1.66,3.07Zm-136.62-1.12c-2.4.34-3.73-3.46-4.98-.28,1.31,1.01,2.7,1.93,3.04,3.91,2.81.73,3.43-2.41,1.94-3.63Zm26,0c-.06-.5.28-1.4-.55-1.12-.08.64.07,1.05.55,1.12Zm-68.03,2.51c1.46.27,1.88-.53,2.21-1.4-.67-2.88-4.13-1.16-2.21,1.4Zm-7.19,0c.72.52,2.64.39,3.04-.28.62-1.08-.33-1.29-.28-2.51-2.33-.49-2.86.83-2.77,2.79Zm192.48-1.12c1.08-.36.93.76.55,1.12,1.39,0,1.8-.97,2.21-1.96-1.2.28-1.27-.58-1.94-.84-.25.59-.84.83-.83,1.68Zm-133.02-1.12c1.05.53-1.46-.74,0,0h0Zm43.14,2.23c1.47.09,1.98-1.33,1.38-2.51-1.87-.47-2.5,1.62-1.38,2.51Zm81.3-1.12c.33.32.98.32,1.66.28.1-1.03-.69-1.17-1.38-1.4.06.53-.31.62-.28,1.12Zm-141.87,3.07c.69.23,1.48.37,2.49.28.37-1-.02-1.02.28-1.95-.79-.64-1.39-.43-3.04-.56-.12.96.11,1.57.28,2.24Zm146.02.84c1.17,1.12,2.92.78,3.59-.56-.39-1.63-1.43-2.55-2.77-2.51-.27,1.03-.99,1.6-.83,3.07Zm-80.75-2.23c.32,1.1.32-1.1,0,0h0Zm34.02,1.96c.87-.14.62.86,1.66.56.52-.4,1.23-.62,1.11-1.68-.67-1.53-3.35-1.48-2.77,1.12Zm26.55,1.95c1.88-.1,3.49-1.5,2.77-3.35-3.05-1.75-5.28,1.71-2.77,3.35Zm-139.1-.56c.78.24,1.13.9,2.21.84.88-.94.9-2.3.28-3.63-2.05-.3-2.75.76-2.49,2.79Zm166.21-1.96c-.53.06-.61-.32-1.11-.28-.21.95,1.06,1.09,1.11.28Zm-189.99,1.12c.31.71,1.23.81,2.21.84.25-.5.77-.71.55-1.68-1.02-.49-2.6-.33-2.77.84Zm91.54.28c-.9-.41-2.56-.51-2.49.84,1.68.82,4.02,1.7,6.64,1.12.57-3.85-2.19-2.96-4.15-1.96Zm-58.08.84c-.25,2.29.77,3.32,2.21,3.91.83-.83,1.23-2.11,1.1-3.91-1.06-1.13-2.32-1.29-3.32,0Zm10.79,1.67c.37.28.84.46,1.11.84,1.46-.2,2.35-.98,2.21-2.79-.5-.52-1.4-.64-2.21-.84-.5.8-1.35,1.24-1.11,2.79Zm123.62-1.95c.01-.17.04-.33.28-.28-.03-.34-.08-.66-.55-.56.04.33-.05.79.28.84Zm-13.83,1.67c.69.66,1.63,0,2.49,0,.38.85-.13,1,0,2.23.78,1.05,2.82,1.05,3.6,0-.29-.73-.33-1.71-.28-2.79-1.43-1.02-6.03-3.05-5.81.56Zm-9.4,2.51c1.02-.3,1.41-1.67.83-2.79-.89-.87-3.14-.37-4.42-.84.04,2.38,1.5,3.32,3.59,3.63Zm-117.81-2.51h.83v-.84h-.55c-.01.36-.35.39-.28.84Zm3.87.56c.44-.42.4-1.59-.55-1.4-.58.56,0,1.19.55,1.4Zm66.93.56c.63.58,1.06,1.35,2.49,1.12,2.24-2.47-2.38-4.49-2.49-1.12Zm-76.33,2.51c.63-.58.86-1.55,1.11-2.51-.63-.2-.83-.84-1.11-1.39-3.55-.76-2.33,4.29,0,3.91Zm115.32-3.07v2.51c.69.23,1.08.76,1.94.84.71-1.66.11-4.42-1.94-3.35Zm-97.07,3.35c.47-.72,1.29.54,2.21.28,1.75-.58.8-2.4.28-3.63-.89-.06-1.17.5-2.21.28-.2,1.32.18,2.51-.28,3.07Zm126.11-2.79c-.18,1.35-2.43,1.31-1.66,2.79.94-1.33,2.53-.26,4.15-.84.38-.85.47-2.33-.55-2.51.22,1.06-1.31.35-1.94.56Zm-99.56,27.37c5.79.19,12.09-1.33,14.93-5.03.04-.69.04-1.34-.28-1.67,1.61-.61,1.37-3.08,2.21-4.47-.94-2.59-.85-6.22-1.93-8.66-3.41-2.51-6.04-5.82-10.51-7.26-.12.81-.98.87-.83,1.96,1.66,3.33-1.78,5.15-1.66,8.66,1.15,2.94,3.55,4.61,5.25,6.98.71,2.58-.24,4.9-1.66,6.14-2.21.66-4.69,1.04-6.64,1.95.22,1.3-.18,1.79.28,2.51.28-.37.26-1.04.83-1.12Zm83.79-26.25c-.27,1.95.85,2.49,2.21,2.79.5-.7.95-1.46.83-2.79-.73-.7-2.31-.7-3.04,0Zm-125.28,3.35c.55.56.81,1.42,1.66,1.67,1.64-.42,1.4-3.97-.28-4.19-.78.52-1.07,1.53-1.38,2.51Zm65.82-2.23c-.32,2.37.5,3.59,2.21,3.91,3.19-.76.88-5.47-2.21-3.91Zm-51.99,3.91c.52-.68,1.23-1.17,1.11-2.51-.53-.58-1.16-1.07-1.94-1.39-.68,1.13-1.38,3.77.83,3.91Zm103.43-.56c.66.17,1.26.4,2.21.28.33-.87,1.02-1.38.83-2.79-2.32-.38-4.08.31-3.04,2.51Zm-125.56,1.12c.8-.49,1.3-1.29,1.11-2.79-2.3-2.22-3.97,2.54-1.11,2.79Zm83.52-3.07c-4.3-1.49-3.65,6.5.83,4.19-.37-1.91.16-2.98-.83-4.19Zm-107.3.84v.56c.72.58,2.36.31,2.21-.84-.21-.06-.32-.23-.28-.56-.91.01-1.96-.11-1.94.84Zm172.02-.28c.49.25.7.78,1.66.56v-1.12c-.73,0-1.63-.15-1.66.56Zm-145.74,1.95c1.24.52,1.42,2.1,2.77,2.51,1.74.18,2.01-1.13,1.93-2.79-1.38.09-2.54-.04-3.59-.28,0-.74.26-1.75-.83-1.4.22.97-.41,1.07-.28,1.95Zm134.13,5.59c-1.32-.44-3.17-.34-4.15-1.12-.79-.51-.91-1.69-1.94-1.96-.79,1.23-1.68,1.47-1.94,2.79-.85,4.42,3.76,7.06,6.09,8.94,4-.24,6.01-2.5,10.78-1.96,1.21-.92,2.41-1.84,3.04-3.35.36-6.82-3.76-11.45-10.79-10.89.2,2.41,1.02,6.68-1.1,7.54Zm-15.76-2.51c.65,0,.81-.48,1.66-.28,1.1-1.59-.17-2.62-.83-3.91-3.85-.13-2.99,3.16-.83,4.19Zm-52.54,0c.9.57,2.97.33,3.59-.28.41-4.43-5.77-3.7-3.59.28Zm83.24-3.35c-.23,1.65.16-1.12,0,0h0Zm-18.53,1.4c.52.68,1.13,1.28,2.49,1.12.79-2.33-2.26-2.96-2.49-1.12Zm16.04-.56c.32,1.1.32-1.1,0,0h0Zm24.89,1.95c.25-3.46-4.51-1-2.49,1.12,1.4.21,2.12-.28,2.49-1.12Zm-22.4,1.12c.85.2.53.2,1.38,0-.1-.93-.83-1.21-1.38-1.68v1.68Zm11.89.28c.45.7,2.08,1.26,3.04.56.02-1.05-.12-1.93-.55-2.51-.94.54-2.38.58-2.49,1.96Zm-166.21,2.23c1.55-.5,1.81-2.21,1.11-3.63-3.2-1.21-3.15,3.48-1.11,3.63Zm76.61-2.51c.02,1.57.54,2.62,1.66,3.07,1.05-.24,1.5-1.09,1.66-2.23-.3-1.06-2.6-2.75-3.32-.84Zm-96.79.84c1.02.2,1.22-.44,1.11-1.4h-1.11v1.4Zm47.84,1.95c.28-1.77-.43-2.54-1.38-3.07-.73,1.24.21,2.86,1.38,3.07Zm100.11-1.95c.73.08.91-.39.83-1.12-.73-.09-.71.58-.83,1.12Zm-124.17,1.95c1.06,2.01,3.92.85,3.87-1.4-1.08-1.58-4.64-2.23-3.87,1.4Zm11.34,1.4c.55-.46,1.29-.75,1.38-1.68-.7-.97-1.01-2.33-3.04-1.95-1.22,1.42-.11,3.57,1.66,3.63Zm66.93-1.95c.23,1.44,1.82,1.51,3.59,1.4.9-3.45-3.1-3.85-3.59-1.4Zm90.16.56c.05,1.53,1.33,1.83,2.76,1.96.17-1.23.92-1.86.83-3.35-.82-.26-3.49.01-3.59,1.4Zm-46.74,1.12c.84.01,1.41-.25,1.66-.84-.62-.12,0-1.48-.55-1.68h-1.1c.45.9.13,1.51,0,2.51Zm-80.75.56c1.35.04,1.76,1.02,3.32.84.43-.64.43-2.71,0-3.35-1.35-.44-3.53.47-3.32,2.51Zm-6.91.28c.44,1.05,1.62,1.35,3.04,1.4,2.46-3.42-3.06-5.97-3.04-1.4Zm-20.46-2.51c-.21.06-.54,0-.55.28.22-.06.55,0,.55-.28Zm13.55,2.51c.96.16,2.06,1.63,2.77,1.12-.6-.62,1.13-1.26.83-2.51-.6-1.91-4.35-1.29-3.59,1.4Zm57.25-.56c.65.09,1.04.44,1.94.28.19-1.4-.74-1.68-1.38-2.23.16,1-.32,1.35-.55,1.95Zm75.77-.56c.55,1.8,1.57,2.89,3.87,2.23.96-1.73-.66-2.47-1.11-3.63-1.68-.3-1.88.89-2.77,1.4Zm13-.56c.53-.12,1.19-.1,1.1-.84-.53.12-1.19.1-1.1.84Zm-57.52,1.12c.03,1.83,1.12,2.59,2.76,2.79.32-1.07,1.03-1.75.83-3.35-1.34-.65-2.9-.72-3.59.56Zm-109.51-.28c-.33,1.73.1,5.11,1.11,6.42.73,0,1.58.11,1.94-.28.24-1.69-.66-4.51-1.11-6.42-.73,0-1.58-.11-1.94.28Zm62.5,1.4c.68,1.17,1.51,2.2,3.59,1.96.09-.93.8-1.24.55-2.51-1.23-1.33-3.58-1.36-4.15.56Zm-76.05,3.07c1.42.23,2.17-.22,2.77-.84.09-1.76-.5-2.85-1.94-3.07-1.26.69-1.59,2.59-.83,3.91Zm-16.32-1.68c.75-.2.56.55,1.11.56.54-.47,1.18-.86,1.38-1.68-.61-.5-1.12-1.1-2.49-.84v1.96Zm196.63-1.4h.55v-.56h-.55v.56Zm-174.78,2.79c1.29,1.06,4.25.62,4.42-1.12-.11-.73-.82-.84-.83-1.68-2.5-.39-3.84.41-3.59,2.79Zm50.61-1.96c-.22,1.9.38,2.96,1.66,3.35,1.34-.76,1.26-3,0-3.91-.87-.13-1.08.4-1.66.56Zm111.17.84c.94.21,1.08-1.07.28-1.12-.09.38-.39.53-.28,1.12Zm-121.4-.56c-1.09.8-1.09,3.39,0,4.19,1.97-.24,4.23-.2,3.59-3.07-1.1-.47-2.21-.93-3.59-1.12Zm43.14,1.12c.07-.4.46-.47.55-.84-.37-.09-.53-.4-1.11-.28-.08.64.07,1.05.55,1.12Zm44.8-.56c0-.28-.49-.35-.55,0,.31-.03.43.41.55,0Zm-8.02,3.07c1.92.17,2.88-.63,2.77-2.51-1.1.09-1.53-.5-2.77-.28-.52.88-.76,1.96,0,2.79Zm-87.67-.28c.67.44,1.18,1.04,2.49.84,1.68-3.33-2.29-3.74-2.49-.84Zm45.63,1.12c.35.48,1.65,0,1.66.84.28,1.36-.41,2.21,1.1,2.51.27-1.57-.37-2.23-.83-3.07.48-.25.96-.52.83-1.4-.46-3.27-4.93-2.02-2.76,1.12Zm93.75-2.23c-.1,1.4.17,2.43.55,3.35,1.75.28,2.15-.81,2.76-1.68-.31-1.75-2.09-3.99-3.32-1.68Zm-56.42-.56s-1,.74-1.11.84c-1.56,1.4-.75,4.23,2.21,3.91,1.68-1.04.44-4.74-1.11-4.75Zm-69.41,1.68c-.22.97.41,1.07.28,1.95,1.31.6,3.16,1.39,3.87-.28-.88-2.11-2.32-4.51-4.15-1.67Zm115.87.28c1.9.41,2.81,1.82,5.26,1.68,1.31-.84.75-2.66-.28-3.35-2.57-.14-2.98.71-4.98,0-.52.5.23.71,0,1.67Zm-91.81.56c.45.66.7,1.52,1.66,1.67.45-.48.84-1.02.83-1.95-.3-1.35-2.52-1.48-2.49.28Zm-13.27-.28c.04-.33.49-.63,0-.84-.04.33-.49.63,0,.84Zm119.19.84c.78.04.8-.68.83-1.4-.86-.13-.88.6-.83,1.4Zm-94.58,0c.69-.03.86-.52,1.38,0-.03-.71-.4-1.08-1.11-1.12-.09.38-.39.53-.28,1.12Zm-66.1,3.63c1.14-1.39.27-3.94-1.38-4.19-1.65,1.21-.61,4.19,1.38,4.19Zm40.1-3.91v.56c.68.43.81-.95.28-.84-.02.17-.04.33-.28.28Zm79.37,9.5c-.02-3.32.41-5.41-.55-7.82-1.51-.12-2.58-1.39-4.15-1.67-2.85-.52-5.48.62-7.47,1.95-.5,2.01-2,3-2.21,5.3,1.5.44,2.68,1.21,4.7,1.12.88.97,1.45,2.26,1.66,3.91-.33,1.9-2.59,1.86-3.59,3.07,2.35,2.4,6.37,2.34,10.51,1.68,1.43-1.62,2.85-5.16,1.11-7.54Zm-96.52-5.87c1.45.17,1.45.73,3.04.28,2.38-3.36-3.93-4.88-3.04-.28Zm32.91,1.12c1.64,2.43,4.06.25,5.81,0,.34-.9-.89-.21-.55-1.12.37.36,1.03.37,1.11-.28-1.48-.37-1.57-2.14-2.77-2.79-1.09,1.51-4.19.98-3.6,4.19Zm97.34-2.79c.2-.21.69-1.37-.28-1.12.05.42-.1,1.03.28,1.12Zm-18.25,11.17c1.87-2.73,3.79-7.71.55-10.33-1.88-.02-3.11-1.49-4.98-1.67-3.04-.31-5.2,1.62-7.19,3.07-.71,1.71-.56,4.27-.55,6.7,2.11,2.44,5.02-.34,8.02-.28.39-1.16-.79-2.16,0-2.79,1.2-.63,2.27.98,1.94,2.79-.27,2.34-4.44.73-4.42,3.35,2.27.84,5.11-.01,6.64-.84Zm15.49-10.61c-4.14-1.12-8.26.38-9.96,3.63.55,2.79-.71,5.92-1.94,7.82.71,3,2.89,4.53,5.81,5.31,2.89-.86,5.42-.05,8.02-1.68.15.4.43.68.83.84.21-2.3,2.78-2.22,2.77-4.75-.39-1.57-2.65-1.08-4.15-.84-1.07-.88-2.55-1.34-2.77-3.07.3-2.3,3.1-2.08,3.6-4.19-.52-1.24-1.95-1.57-2.21-3.07Zm5.81,2.79c.86.21,1.45,1.68,2.21,1.12,1.3-.25.92-2.95.28-3.63-2.01-.36-2.84.48-2.49,2.51Zm-126.66,1.4c1.77.3,2.83.15,3.6-1.12-.61-1.16-1.2-2.33-3.32-1.95-.72,1,.44,2.17-.28,3.07Zm64.16,0c.66.35.82,1.22,1.93,1.12.83-.65,1.78-1.19,1.66-2.79-1.19-2.15-3.79-1.2-3.6,1.68Zm-42.04-1.12c.76.16,1.16.7,1.94.84.88-.95.23-1.61-.28-2.51h-1.38c-.32.33-.31.99-.28,1.68Zm48.95-.28c.8.03.48,1.19,1.38,1.12.4-.24.88-.42.83-1.12-.37-.56-.64-1.21-1.38-1.4-.25.49-.67.82-.83,1.4Zm-39.27.56c.05.79.48,1.19,1.38,1.12.03-1.17-.54-1.52-1.38-1.12Zm-61.67,1.12v.56c.68.43.81-.95.28-.84-.01.17-.04.33-.28.28Zm51.99,2.23c.96-1.97-1.3-2.91-3.59-2.51.34,1.88,1.79,1.72,3.59,2.51Zm102.05-1.68c-.21.06-.54,0-.55.28.22-.06.55,0,.55-.28Zm-111.73,1.4c-.24,1.06,1.24.99,1.66.56.24-1.06-1.24-.99-1.66-.56Zm-63.88,1.95c.72.58,2.36.31,2.21-.84-.08-1.85-2.82-1.15-2.21.84Zm119.75-.28c.05,1.44,1.22,1.74,2.49,1.95.43-.59.8-1.24,1.11-1.95-.79-.42-1.37-1.04-2.21-1.4-.57.36-1.4.45-1.38,1.4Zm-8.02-.56c-.04.33.05.79-.28.84.28,1.4,1.44,1.9,3.32,1.68.28-.75.57-1.47.55-2.51-1.2-.44-2.48-.84-3.59,0Zm69.69,3.07c.67.12.6-.51,1.38-.28.34-2.3-.93-2.97-3.04-2.79.42,1.16.53,2.63,1.66,3.07Zm-54.48,0c1.5-.16,2.63-.69,2.49-2.51-1.72-1.12-3.03,1.3-2.49,2.51Zm-131.36.28c.72.11.83.83,1.66.84.11-.35.36-.57.83-.56.23-1.72-.71-2.27-2.21-2.23.13.88-.5.99-.28,1.95Zm28.21,2.23c1.19,0,1.55.51,2.21-.28.27-2.84-3.66-2.63-2.21.28Zm95.13-2.23c.32,1.1.32-1.1,0,0h0Zm-12.45,1.4c.24.88.51,1.72,1.38,1.96,1.28-.2,2.24-.71,2.21-2.23-.39-.07-.32-.61-.55-.84-1.54-.16-2.27.5-3.04,1.12Zm-102.32,2.23c.85-.2.81.48,1.66.28.57-.45.64-1.4.55-2.51-.55-.38-1.32-.53-1.94-.84-.67,1.05.13,2.05-.28,3.07Zm26.55.56c1.05-.24,1.59-1,1.66-2.23-1.47-3.16-4.18.67-1.66,2.23Zm92.09,0c-.07,1.93,2.33,3.39,3.87,1.96.12-2.45-1.49-3.15-2.21-4.75.29,1.23-1.51,1.25-1.66,2.79Zm-131.08-1.68h.55c.02-.36.35-.39.28-.84h-.83v.84Zm125.83.28c-.6,1.26-1.19,2.99,0,3.91,1.37.26,1.88-.34,2.49-.84.17-2.03-.58-3.13-2.49-3.07Zm-94.86,3.63c.27-.38.74-.56,1.11-.84.09-1.02-.31-1.55-.55-2.23-2.48-.67-2.47,3.08-.55,3.07Zm13-1.68c.31.53.69.98.83,1.68.92-.29,1.63-.77,1.66-1.96-.25-.49-.62-.87-1.11-1.12-.19.74-1.26.59-1.38,1.4Zm75.22,3.35c1.02-.65,2.39-.94,3.32-1.68.19-1.5-.82-1.78-1.11-2.79-2.66-.45-2.2,2.25-2.21,4.47Zm-118.36-1.68c1,0,1.21-.82,1.11-1.96-.32-.23-.74-.37-1.38-.28-.58.62-.22,1.86.28,2.23Zm7.47,0c.09-.66.44-1.05.28-1.96-.65-.09-1.04-.44-1.94-.28-.61,1.21.1,2.41,1.66,2.23Zm100.67-1.96c.06,1.02.38,1.07,0,1.96.81.3,1.43.79,2.76.56.47-.7.96-1.37.55-2.23-1.1-.41-2.2-.56-3.32-.28Zm45.35-.28c-.91,1.13-2.02,2.05-2.77,3.35.66,1.94-.33,2.73-.28,4.75,2.73,1.7,8.9.67,11.89,1.12,2.66-1.15,5.91-4.49,3.6-8.1-3.88-1.16-8.92-.07-12.45-1.12Zm-101.49,2.51h.83c.08-.45-.26-.48-.28-.84l-.14-.14-.14-.14c.32-.04.23-.51.28-.84-1.05.13-1.97-.72-2.77,0-.14,1.3,1.15,2.19,1.94,1.68v.28h.28Zm133.85-1.4c.05.79.51,1.16.55,1.96,1.02,0,1.6-.43,2.21-.84-.21-1.35-1.86-2-2.77-1.12Zm-71.63,1.96c.68.63,2.32,1.29,3.04.28.01-1.64-3.27-3.15-3.04-.28Zm24.61.56c.65.28,1.36.49,2.21.56.46-.46.22-1.64.28-2.51-1.58-.11-2.75.2-2.49,1.96Zm-102.88,3.35c.27-.47.76-.72,1.66-.56.45-.92.28-2.13-.28-2.79-1.57.64-2.25-1.06-2.77-.56,1.05.7-.46,3.5,1.38,3.91Zm34.01-2.51c.38-.36.43-1.37-.28-1.4.15.41-.32,1.44.28,1.4Zm32.63-.56c-.16,1,.32,1.35.55,1.96,1.91.16,3.09-.42,2.77-2.51-.52-.18-2.8-.15-3.32.56Zm40.1,2.79c1.34.92,2.75,1.39,4.15.28.33-2.76-2.52-2.3-3.6-3.63.3,1.6-.48,2.12-.55,3.35Zm-9.13-.84c-.16,1.37.62,2.32,2.76,2.23.6-.88,1.21-1.76,1.11-3.35-1.7-.56-3.66-.7-3.87,1.12Zm35.4-1.12v2.24c3.05,1.58,3.29-4.61,0-2.24Zm-147.96,2.24c.49.76,2.28.76,2.77,0,.25-2.96-3.06-3.13-2.77,0Zm23.51-2.51c-.71.4-1.73.48-2.49.84.03.8-.15,1.83.28,2.23.45.42,2.04.42,2.49,0,.25-.46.79-3.07-.28-3.07Zm11.89,3.35c1.08.06,1.43-.6,2.21-.84.64-4.38-4.72-1.82-2.21.84Zm120.3-3.07c-.45.67-.91,1.32-.83,2.51.93.18,1.42.8,2.77.56.69-.79.52-2.46,1.38-3.07-1.04-.72-2.06,1.02-3.32,0Zm-147.68,2.79c.8-.31,1.87-.35,1.94-1.4.04-.7-.43-.87-.55-1.4h-1.38c-.42.51-.42,2.28,0,2.79Zm34.57-2.51c-.47,3.93,3.45,3.05,2.77.28-.79-.43-1.82-.77-2.77-.28Zm32.08,2.23c.39.07.32.61.55.84,1.3,0,2.73.15,2.77-1.12v-.56c-.77-.62-1.52-1.26-2.49-1.68.03,1.15-1.11,1.12-.83,2.51Zm14.38-.28c.74.46.97,1.44,2.21,1.4.12-.9,1.86-.17,1.94-1.12-.64-.38.05-2.1-.83-2.23-.89-.58-3.47-.14-3.32,1.96Zm15.21-.84c-.55,0-.35-.76-1.11-.56.55,2.75,6.06,4.02,5.25,0-1.64-.74-3.35-1.24-4.15.56Zm59.46,2.23h1.94c.36-1.64.65-2.46-.28-3.63-2.83-.7-2.93,2.47-1.66,3.63Zm-184.18-1.4c.59.87,2.83.82,2.49-.84-.44-1.51-2.82-.83-2.49.84Zm74.95-.84c.57.24,1.05-.92.55-.84-.03.44-.71.22-.55.84Zm-67.76,1.68c.04-.52.94-.17,1.11-.56.12-3.46-3.91-.37-1.11.56Zm41.48.28c1.58.2,1.95-.82,2.21-1.96-1.33-1.43-3.27.21-2.21,1.96Zm31.25-.84c.89.04,1.21,1.49,1.94.84.56-.27.6-1.07.55-1.96-.91-.89-2.76-.68-2.49,1.12Zm38.44.56c.66.17,1.26.4,2.21.28v-2.23c-1.42-.79-2.75-.05-2.21,1.96Zm-103.71-.84c.16-1-.82-.85-1.66-.84-.38,1.25,1.11,1.36,1.66.84Zm56.14,1.4c.31.06.43.31.55.56,1.69.21,2.21-.75,2.49-1.96-.93-1.1-3.49-.58-3.04,1.4Zm16.59-.28h1.38v-1.4h-1.38v1.4Zm15.21,2.23c1.42-.06,2.15-.8,2.21-2.23-1.89-1.11-3.61.63-2.21,2.23Zm3.87-1.4c.21.06.54,0,.55.28-.31.4-.3.68.28.84.52-.61.11-1.97-.55-2.23.06.53-.31.62-.28,1.12Zm17.7,2.23c.81-.02,1.03-.64,1.38-1.12-.84,0-.27-1.41-1.11-1.4-.32,1.09-1.15,1.57-.28,2.51Zm61.67,0c.96.15,1.18-1.87.28-1.96-.42.8,0,.87-.28,1.96Zm-55.03-.84c.19-.7-1.18-1.18-1.38-.56.53.12.5.8,1.38.56Z"/>
  <path class="cls-7" d="m1.66,147.74c-.05-2.23-.46-3.78,0-5.87-.21-1.4,1.02.37,1.1-.56.52-1.73-1.14-1.27-.83-2.79-.23-1.91.93-2.41,1.11-3.91-.69-14.33-.34-31.97-1.38-47.48,1.44-1.92-.28-4.44.28-7.26.07-.35.55-.8.55-.84.02-.54-.52-1.33-.55-1.96-.12-2.35.45-4.78.28-7.26-.34-4.9.56-10.05.28-14.52-.05-.8-.54-1.67-.55-2.51-.02-1.3.46-2.58.55-3.91.2-2.79-.31-5.62-.28-8.38.02-1.51.48-2.95.55-4.47.48-10.2-.62-20.53.28-31,.61-.79.92-1.87,1.38-2.79,1.5-.84,2.58-1.82,4.43-1.67,1.65.13,2.57,1.7,4.15,1.67,1.48-.46,2.16-1.72,3.59-2.23,2.32.17,4.84.14,5.81,1.68,4.04-1.63,9.11,1.52,12.44-.28,1.65-.17,3.02,1.41,4.43.56.9-.07.59,1.08,1.38,1.12,4.21-.15,9.26-1.44,14.1-1.12.88.06,1.62.54,2.49.56,2.67.06,5.44-.12,7.74-.56,1.1-.36.56.92,1.66.56,3.54-.19,8.39-1.26,11.61,0,4.43.4,8.74-.61,13-.84,1.43-.08,2.96.33,4.42.28,1.73-.06,3.42-.66,4.98-.56,1.85.12,3.62,1.11,5.53,1.12,1.08,0,2.17-.42,3.32-.56,3.15-.38,6.21.04,8.57-1.12,1.85.2,3.66,1.08,5.26,0,2.22,1.63,4.21,1.49,7.47,1.12,2.54-.29,4.72.64,7.47.84,1.58.12,5.42.23,7.47,0,1.31-.14,2.57-.98,3.87-1.12,4.42-.48,8.63.62,12.72,1.12,2.33-1.05,5.49-1.02,8.02.28,3.27-.4,6.78-2.52,9.96-.56,2.88-.43,7.55-.66,9.68.56,2.04-.11,4.72-.65,6.64,0,4.1-2.38,9.2-.51,13.83-.84,1.45-.1,3.02-1.03,4.42-1.12,5.22-.33,9.15,2.98,11.89,6.14-.55,1.4-1.11,2.79-.83,5.03-2.28,3.86.06,11.02-1.38,15.36.11,1,1.22,1,1.11,2.23-.59,2.78-.5,5.07.28,7.26-2.55,3.81-2.16,10.05-.55,14.24-.4,1.18-.61,2.55-1.11,3.63.4,1.64.13,3.97.83,5.31-.72,5.61-1.16,12.38,0,17.32-.24,1.87-.77,2.68.28,3.91-1.6,6.51-1.26,14.83,0,21.5-.78,4.81-.39,10.02-.55,16.2-.11,4.3.39,12.5.55,18.43.05,1.85.19,4.74,0,6.42-.07.64-.54,1.15-.55,1.68-.01.45.52.82.55,1.4.18,3,.3,7.93.83,11.17.37,2.29.61,4.55-.55,6.98,1.49,3.26-1.64,6.3.55,8.66-.13,1.9.23,3.58,0,5.31-.16,1.2-.78,2.12-.83,3.35-.04.98.45,1.57.55,2.51.08.7-.32,1.47-.28,2.23.04.73.51,1.56.55,2.23.32,5.26-.13,11.52,0,17.32.12,5.09-.58,10.14-.83,15.64-1.05,1.64-2.24,3.14-3.87,4.19-19.69-.28-38.82-.37-58.63-.56-2.63-.02-5.34.35-8.02.28-1.86-.05-3.69-.62-5.53-.56-1.09.04-2.27.49-3.32.56-4.37.29-9.13-.5-13.83-.56-5.04-.07-9.81,1.01-14.38-.56-.85.35-2,.4-2.76.84-6.27-1.78-13.84,1.38-19.91-.28-1.89,1.53-4.43-.16-6.64-.28-1.38-.07-2.75.58-4.15.56-3.16-.05-6.24-.91-9.13-.84-1.21-.29-.91.94-1.94.84-4.88-.89-10.3,1.24-14.93-.84-5.29-.48-10.72.08-16.04,0-2.52-.04-5.39-.61-7.74-.56-1.09.03-3.01-.11-3.6,1.12-.98-.03-1-1.03-2.21-.84-6.68-.27-15.03.59-21.3.28-3.05-.15-5.02-2.52-6.91-4.19.27-5.95-1.13-10.6.28-15.36-1.03-1.93.08-4.81-.83-6.42,1.11-3.55-.38-8.58.83-11.45,1.51-.32.58,1.84,1.66,1.95,1.18-2.09-.59-2.67-1.38-3.07.44-.98-.37-1.93-.83-2.79,1.67-2.47.01-5.46,0-8.38-.01-2.88,1.87-5.54.55-8.1,1.09-5.36-.5-13.12.83-18.71l.14.14.14.14c1.34.3.8-2.1,0-1.12v-.28h-.28ZM58.35,6.7c-3.26.97-6.68,1.1-10.23.84-1.82-.14-3.69-.88-5.53-.84-1.12.03-2.09.45-3.32.56-4.23.37-9.91-.45-14.1-.28-2.13.09-4.23.84-6.36.84-3.17,0-5.88-.34-8.57.56-2.04,3.69-.64,8.08-1.11,12.29-.1.9-.51,1.6-.55,2.51-.17,3.25.57,6.75.28,10.05-.13,1.44-.74,2.76-.83,4.19-.3,4.82.25,9.56-.55,14.24,1.79,3.42.01,8.93.28,13.4.06.97.54,1.85.55,2.79.02.94-.53,1.79-.55,2.79-.05,2.3.67,4.65.55,6.7-.06.98-.48,1.82-.55,2.79-.25,3.44.51,7.03,1.11,10.33-1.29,2.95-1.3,7.36-.83,11.17.08.67.53,1.28.55,1.96.07,1.79-.48,3.96-.55,5.87-.09,2.3.38,4.52.28,6.42-.09,1.7-.92,3.26-.83,4.75.08,1.28,1.03,2.64,1.11,3.91.09,1.54-.45,3.5-.55,5.31-.11,1.87.05,3.78,0,5.59-.08,2.55.2,4.56.28,6.7.08,2.01-.52,4.17-.55,6.14-.04,3.22.85,6.5.83,9.77-.02,2.28-.66,4.37.28,6.14-1.27,7.65-.29,15.8-.55,23.46-.06,1.73-.62,3.29-.55,5.03.12,3.21,1.24,6.48,1.11,9.77-.06,1.57-.72,3.15-.83,4.75-.17,2.35.04,4.75.28,6.98.2,1.92.14,4.2,1.66,5.58,5.26,1.35,10.7.43,16.04.56,1.2.03,2.43.52,3.6.56,2.1.08,4.2-.53,6.36-.56,3.6-.05,7.09.64,10.79.84,5.08.27,10.34-.6,15.49-.56,1.67.01,3.29.5,4.98.56,1.82.06,3.69-.24,5.53-.28,3.76-.08,7.67.58,11.62.56,2.86-.02,5.77-.64,8.57-.56,1.31.04,2.59.54,3.87.56,1.57.02,3.2-.52,4.7-.56,1.6-.04,3.14.24,4.7.28,3.14.07,6.32-.44,9.4-.28,1.24.07,2.39.55,3.6.56,1.19.01,2.38-.58,3.59-.56,1.21.02,2.33.76,3.6.84,3.02.18,6.42-.62,9.68-.56,1.22.02,2.44.55,3.6.56,3.22.03,6.46-.6,9.68-.56,2.64.03,5.43,1.23,8.02,0,4.15,1.22,10.18-.46,14.1.84,2.36-1.85,4.8-.21,7.47,0,3.64.3,8.28-.73,12.17-.84,2.07-.05,4.26.55,6.36.56,1.31,0,2.66-.34,3.87-.28,1.31.06,2.51.58,3.87.56,1.6-.03,3.14-.75,4.7-.84,3.4-.18,6.64.24,9.68-.56,2.51-4.62-.66-12.62,1.66-17.04-1.03-2.33-1.08-4.97-1.11-7.54-.02-2.57.27-5.15.28-7.82,0-2.09-.52-4.25-.55-6.42-.08-5.21,1.68-10.43-.28-14.52-.14-1.45,1-1.59.83-3.07-.46-1.49-.1-3.81-.55-5.31,1.39-3.11.47-5.99.28-9.22-.53-8.93,1.31-20.16-1.11-27.09,2.03-1.59,1.19-5.99.55-8.66.4-1,.48-2.31.83-3.35-1.28-8.98.31-16.25-1.11-25.13.94-2.69.27-5.62.28-8.38,0-2.66.36-5.29.28-7.54-.03-.78-.55-1.47-.55-2.24,0-1.18.62-2.42.55-3.63-.06-1.1-.55-2.23-.55-3.35,0-1.11.49-2.23.55-3.35.08-1.51-.46-3.09-.55-4.75-.28-4.92.15-11.14,0-13.96-.04-.8-.04-1.65,0-2.51.06-1.6.4-3.44.28-4.75-.1-1.12-.77-2.23-.83-3.35-.04-.88.6-1.98.55-3.07-.03-.79-.59-1.49-.55-2.23.05-.96.52-1.82.55-2.79.1-3.44-.7-6.45-1.11-8.66-.32-1.74-.47-2.98-1.38-4.19-.09,1.16-2.16.8-3.04.84-3.14.13-6.2-.06-8.3,1.12-1.53-.32-2.82-.88-4.15-1.4-7.87,1.74-16.07-.77-24.06,0-1.08.1-2.21.57-3.32.56-1.09,0-2.22-.48-3.32-.56-1.4-.1-2.69.29-4.15.28-1.29-.01-2.6-.55-3.87-.56-2.68-.02-5.4.5-8.02.56-4.52.1-9.37-.17-13.27,0-.76.03-1.47-.33-2.21-.28-.97.07-1.81.54-2.77.56-.64.01-1.15-.17-1.94-.28-2.79-.39-6.72-.76-9.13.28-1.45-.32-2.93-.56-4.42-.56-19.26,0-40.4-.57-60.01.28-1.03-.36-1.63-1.14-2.49-1.68v.84Zm163.17,28.21c.17-1.1-.41-1.45-.83-1.96-.48.57-.52,2.38.83,1.96Zm0,18.99c-.23,1.65.16-1.12,0,0h0ZM2.21,171.48c.81.41.81-1.25,0-.84v.84Zm222.62,6.7c0-.28-.48-.35-.55,0,.31-.03.43.41.55,0ZM1.94,191.86c-.15-.41.32-1.44-.28-1.4-.44.42-.21,1.14.28,1.4Zm-.55,3.63c.73.08.91-.39.83-1.12-.89-.25-.39.91-.83,1.12Zm221.52,21.23c.15-.41.41-.7.55-1.12-.61-.21-1.14,1.03-.55,1.12Z"/>
  <g>
    <path class="cls-6" d="m41.76,23.46c.19.09.38.17.55.28"/>
    <path class="cls-6" d="m53.93,41.89c-.09-.19-.17-.39-.28-.56"/>
    <path class="cls-2" d="m98.87,50.13c.07.31.14.49.17.7,0,.1-.04.19-.08.28-.43.29-.81.67-1.06,1.12"/>
    <path class="cls-3" d="m46.32,103.19c.1.18.21.34.28.56"/>
    <path class="cls-1" d="m175.2,101.24c-.29.19-.49.28-.69.42"/>
    <path class="cls-4" d="m74.67,208.06c.06-.38.26-.63.69-.98"/>
    <path class="cls-5" d="m1.8,148.99c-.01-.48-.02-.95.14-1.26"/>
  </g>
</svg>