<?xml version="1.0" encoding="UTF-8"?>
<svg id="Layer_1" data-name="Layer 1" xmlns="http://www.w3.org/2000/svg" viewBox="0 0 226.77 226.77">
  <defs>
    <style>
      .cls-1 {
        stroke-width: .34px;
      }

      .cls-1, .cls-2, .cls-3, .cls-4, .cls-5, .cls-6, .cls-7, .cls-8, .cls-9 {
        fill: none;
        stroke: #000;
        stroke-linecap: round;
      }

      .cls-1, .cls-2, .cls-3, .cls-4, .cls-5, .cls-6, .cls-7, .cls-8, .cls-9, .cls-10 {
        fill-rule: evenodd;
      }

      .cls-2 {
        stroke-width: .33px;
      }

      .cls-3 {
        stroke-width: .34px;
      }

      .cls-4 {
        stroke-width: .42px;
      }

      .cls-5 {
        stroke-width: .33px;
      }

      .cls-6 {
        stroke-width: .28px;
      }

      .cls-7 {
        stroke-width: .36px;
      }

      .cls-8 {
        stroke-width: .35px;
      }

      .cls-9 {
        stroke-width: .36px;
      }

      .cls-10 {
        stroke-width: 0px;
      }
    </style>
  </defs>
  <path class="cls-10" d="m220.82,91.58c.16-1.13-.24,1.66,0,0h0Z"/>
  <path class="cls-10" d="m106.13,10.11c1.11,0,1.34-.9,1.96-1.4,2.24.43,6.86.82,9.25-.28.51.52,2.08-.02,2.24.84,2.83-2.71,8.05.18,11.5-1.41,2.91,2.56,8.06-1.32,12.06.84,2.95-.09,6.5-.78,8.69,0,3.19-1.06,6.91-.9,9.54,0,1.03-.09,1.55-.69,2.52-.84,1.83.74,4.46,1.2,6.45.28,5.03,1.79,14.23-.28,18.79.84.19,1.03-.61,1.08-.56,1.97,1.84,0,1.71-3.25,4.21-1.69,1.02,1.37-1.57,1.12-1.12,2.81.08.58.75.56,1.12.84,1.86-.29,1.36-2.94,2.52-3.93,4.36.6,9.33.58,13.18,1.69,3-.47,6.25-.72,8.97-.84,1.02,1.37-.12,4-.56,5.62,1.16,4.23-.17,9.02,0,13.76.03.97.53,1.87.56,2.81.16,4.51,0,10.13-.56,13.76-.61,4.01,2.09,7.63-.28,10.68-.19,1.31.44,1.8.56,2.81.13.88-.4,1.1-.56,1.69-.04.7.44.87.56,1.4-.99,3.79.38,10.85-.56,15.45,1,1.97.48,6.18-.28,8.15.31.9.48,1.96.84,2.81-.34,5.89-.27,12.77-.28,19.38,0,3.02,1.03,6.26-.28,8.99.98,4.09.32,8.89.84,12.92-.17.86-.6,1.46-.84,2.25.84,3.42.11,8.02,1.4,11.52-.71.5-.83,1.61-1.4,2.25.44.59.19,1.87.56,2.53.59,5.63-.79,11.75.84,15.45-.28.75-.78,1.28-.84,2.25.75,2.46-.2,5.08,1.12,6.74-2.14,2.23-.44,6.6-.84,10.39-1.01,1.34-2.57.41-3.09,2.25.26,1.43,1.85,1.51,2.8,2.25.4,4.47.67,9.04.28,13.76-.26,1.38,1.18,1.07,1.12,2.25.34,1.28-.98.89-1.12,1.68-.16,1.19.76,1.3,1.4,1.69-1.27,2.07-1.1,6.2-.84,8.99-1.83.95-4.56.11-6.73,1.12-2.72-2-7.48,1.7-8.97-.84-.79.05-.35,1.34-1.4,1.12-2.44.13-4.41-1.21-5.89.28-3.4-.84-8.09.64-10.66-1.41-2.02,1.51-7.88,1.86-8.69-.56-.57.18-.19,1.31-.84,1.4-.59.09-3.33.25-3.93-.56-8.87,1.29-21.89.98-30.85.84-.84.28-.5-.63-.56-1.12-.65.29-.6,1.28-1.4,1.41-7.93-.84-15.94.16-22.15-.84-4.15,1.05-9.31.71-12.62.56-.91.25-.4-.92-.84-1.12-.69,1.17-3.53,1.61-4.77.56-.11-1.33.5-1.93.28-3.37-.27-.7-1.08.39-1.96,0-1.08.51-.59,2.59-1.12,3.65-3.54.79-9.22,1.07-13.46,0-1.23-.29-.92.95-1.96.84-1.24.61-2.27-.38-3.37-.56-1.71-.28-4.38.91-7.01.56.12-1.29.89-1.31-.28-1.97-1.48-.16-.18,1.16-.84,1.41h-3.09c.28-1.05,1.06-2.73.28-3.93-.42-.42-1.23-.45-1.96-.56-1.69.35-.79,3.23-1.12,4.21-2.85,1.62-5.04-.79-8.41.56-.95-.64-.79-2.4-1.4-3.37-1.13-.19-1.6.27-2.53.28-.75.57-.32,2.3-1.12,2.81-3.39,0-6.36-.36-9.25.56-.93-.29-2.14-.29-2.81-.84-9.13,1.67-16.95-.53-26.92,0-1.35-1.74-.4-3.55.28-5.34.02-4.75-.77-9.01-1.68-13.48,2.3-3.76-1.43-9.92,1.12-13.2-1.14-3.19.11-6.62,0-10.11-.07-2.29-1.43-4.68,0-6.74-.79-4.87-.67-12.39-.56-17.98.03-1.23.65-2.4.56-3.37-.05-.57-.53-1.11-.56-1.69-.15-2.87.59-5.5.56-8.43-.01-1.22-.54-2.45-.56-3.65-.01-.83.49-1.36.56-2.25.11-1.34-.36-2.88-.28-4.5.07-1.52.64-3.09.56-4.5-.04-.76-.47-1.5-.56-2.25-.38-3.14.58-6.89.28-9.55-.06-.56-.54-.95-.56-1.41-.09-2.31.38-4.51.28-6.74-.03-.74-.52-1.49-.56-2.25-.15-2.67,1.29-6.65,0-10.11,2.61-6.2.01-16.61,1.96-23.04.21-6.8-1.14-15.28-.84-21.91.16-3.52,1.02-6.84.84-10.11-.06-1.11-.58-2.26-.56-3.37.04-2.41,1.35-4.88,1.68-7.3-.7-1.54-1.5-5.36-.56-6.74-1.34-2.18-1.14-5.7-1.12-8.43,3.29-.14,6.38.18,8.97-1.12,3.04.71,6.28-.07,9.54,0,2.68,1.99,5.77-.02,8.69,0,1.81.02,3.51,1.27,5.33,1.41,1.74.13,3.56-.6,5.33-.56,1.26.03,2.41.52,3.64.56,3.22.11,6.63-.94,9.82-.84.78.06.79.89,1.4,1.12,1.21-1,3.07-1.06,5.33-.84,1.24-1.05,2.98-1.41,4.49-.28,2.5-.87,5.49.65,8.41.56.8-.02,1.63-.57,2.52-.56,1.15,0,2.47.61,3.65.56,1.81-.07,4.21-1.23,6.17.28,2.19-.77,5.41-.96,8.41-.28.47.11,1.22.07,1.12.84.28-.93,1.5-.93,2.8-.84.84-.28.5.63.56,1.12Zm37.02-.84c-.22.06-.55,0-.56.28.22-.06.55,0,.56-.28Zm31.97,5.34c.98-1.23,1.91-1.4,1.4-3.65-3.06-3.75-6.32,4.09-1.4,3.65Zm-67.86.28c1.45-.52,2.47-1.46,2.24-3.65-1.91-1.9-3.76,2.17-2.24,3.65Zm56.64-1.69c1.38.63,3.89.22,3.36-1.97-1.6-1.2-3.42-.07-3.36,1.97Zm6.73-.28c.7-.69,1.07-1.36.28-2.25-.41.15-1.45-.33-1.4.28,1.57.03-.18,1.67,1.12,1.97Zm7.01-.56c.32-.34.8-.51.56-1.41-.42.05-1.04-.1-1.12.28.76-.2-.2,1.33.56,1.12Zm-105.72,2.81c1.45-.78,2.39-1.64,2.24-3.37-2.06-2.03-5.59,2.39-2.24,3.37Zm108.24-3.37c.45,2.21,1.22,3.65.28,5.9,1.41.65,1.37,2.74,3.64,2.53,1.82-2.13-.93-5.85-.28-8.71-.98-.63-2.88-.19-3.64.28Zm-113.01,1.4c1.19.61,1.69-1.76.56-1.69.3,1.05-.7.8-.56,1.69Zm19.63,3.93c.97-3.56-.59-6.41-4.21-5.34-.4.91-.54,2.08-.84,3.09-2.36,2.33-8.13-2.48-7.85,3.09.25.87,1.49.76,1.4,1.97-.85,1.02-3.57.17-3.93,1.69,1.89-.11.33,3.23,2.24,3.09,2.08-.07.85-3.46,2.24-4.21,2.78.25,3.33-1.72,5.33-2.25,1.7.64,3.52,1.16,4.49,2.53.05.8.51,1.17.56,1.97.48.36,1.1.58,1.12,1.4,2.02.04,1.96,2.16,3.93,2.25-.14-4.45-2.6-6.58-4.49-9.27Zm64.5-3.37c.85.38,2.31.45,2.8-.28v-1.4c-1.44-.91-3.01-.44-2.8,1.69Zm9.25-.84c.23-.79-.4-.73-.28-1.4h-1.12c-.06,1,.4,1.47,1.4,1.4Zm35.05,0c.53-.12,1.69.38,1.4-.56-.05-.42-.68-.26-1.12-.28.01.39-.13.62-.28.84Zm-140.49,1.12c.4-2.41-2.86-1.83-2.52,1.12,1.61.91,2.4-.4,2.52-1.12Zm62.81,1.97c1.53,1.59,4.24.4,4.21-1.97-1.38-2.75-4.29-1.16-4.21,1.97Zm69.82-3.09c.48.02.72-.22.84-.56-.44.03-.97-.04-.84.56Zm-97.03,2.81c.32.91,1.64.98,2.52.56.67-.7.89-3.01,0-3.65-1.88-.13-2.6,2.18-2.52,3.09Zm53.84-.84c.51-.67.72-1.62,0-2.25-.24.82-.71-.37-1.4,0-.84,1.08-.27,2.24,1.4,2.25Zm-85.24.28c.54.68,1.24,1.19,2.24,1.4.82-.72,1.56-2.23.84-3.65-2-.23-2.64.91-3.08,2.25Zm155.63-1.97c-.32.03-.44-.41-.56,0,0,.28.49.35.56,0ZM16.96,15.73c.32-.62.72-1.15.56-2.25-2.24-1.52-3.72,2.76-.56,2.25Zm11.78,0c1.39.95,3.63-1.95,2.52-2.53-.55.96-3.08-.13-2.52,2.53Zm16.54.56c2.26.73,2.41-2.23,1.4-3.09h-.84c-.56.66-.65,1.79-.56,3.09Zm91.13-2.53c-4.92-1.88-8.12,1.39-11.5,3.37-.82,2.55-3.19,3.55-2.8,7.3.53.12.7.61,1.4.56,1.69-1.12,2.73-2.88,3.65-4.78,3.38-1.48,5.68-4.05,8.97-5.62.06.5-.28,1.41.56,1.12.78-.77-.25-1.17-.28-1.97Zm76.83,1.97c.55-.59.21-1.87,0-2.53h-1.68c-.06,1.46,0,2.81,1.68,2.53Zm-192.65.28c1.25.75,2.94-.15,3.09-1.4-.74-1.98-3.45-.87-3.09,1.4Zm54.96-1.68c.02-.17.04-.33.28-.28-.03-.34-.08-.67-.56-.56.04.33-.05.8.28.84Zm24.96-.84c-.88,1.27-1.92,2.38-2.81,3.65-.5.06-1.4-.28-1.12.56-1,1.56-2.28,3.81-2.52,5.34-.46,2.88,1.16,3.34,1.96,5.06.54,1.16.59,2.71,1.12,3.93.58,1.33,1.29,2.26,1.96,3.09,2.46-.28,3.55.69,5.61,1.4,2.74-.72,5.55-1.37,8.97-1.4.58-1.2,2.27-1.29,3.09-2.25.1-2.53,1.61-3.63,2.52-5.34.19-2.62-.7-4.17-.56-6.74-3.15-1.5-5.28-6.47-9.53-5.06-.19,5.74-5.17,5.92-6.73,1.68-.47-1.27.26-3.38-1.4-3.93h-.56Zm-61.41,2.53c1.91.44,2.62-.94,1.96-2.25-1.69-.29-2.18.62-1.96,2.25Zm131.79-.56c-2.85.43-4.3,4.48-1.4,5.06,1.22.24,2.75-.62,3.09-1.69.51-1.62-1.49-3.59-.84-5.06h-1.68c-.24,1.09.69,1,.84,1.69Zm30.56,1.69c-.2,1.98.42,3.14,1.12,4.21,2.45.03,4.34.64,5.61-.84.38-3.2-1.03-4.59-2.52-5.9-1.25,1.2-3.59-.47-5.05-.84-.86,1.28.73,2.16.84,3.37Zm-166.85-1.12c.37.4,1.59.4,1.96,0,.12-1.14-.29-1.77-1.4-1.68-.22.52-.47,1.03-.56,1.68Zm160.12.84c-.87-.25-1.31-.94-2.24-1.12-.57.73-.98,1.64-.84,3.09,1.5.74,2.33,2.17,3.64,3.09.24-.61,1.23-.45,1.69-.84.17-2.16,1-3.68.84-6.18-1.38-1.23-2.57.68-3.08,1.97Zm-26.36-1.69h.84v-.56h-.84v.56Zm-10.65.84c.36-.77-.82-1.37-.84-.84.53.03.2.93.84.84Zm-93.94.56c.77-.16,1.57-.3,1.4-1.4-.81.12-1.28.59-1.4,1.4Zm2.52,2.53c-.42-.82,1.85-3.17.56-3.93-.82.36-2.58,3.46-.56,3.93Zm111.32-.56c.53.06.62-.32,1.12-.28-.45-1.05-.53-2.47-1.69-2.81.29.92.13,2.3.56,3.09Zm-121.98-2.25h.56v-.56h-.56v.56Zm106.28,1.97c.06-.22.24-.33.56-.28,0-.75.11-1.6-.28-1.97h-1.12c-.67.81-.07,2.15.84,2.25Zm-102.91-1.4c-.13.88.6.9,1.4.84.31-1.14-.86-1.39-1.4-.84Zm-16.26.56c-.68.94.94-.68,0,0h0Zm108.24,2.81c.46-.08,2.26-.05,2.8-.84v-1.41c-1.42-1.73-3.88.18-2.8,2.25Zm-8.69-2.25c-.37.47-.74.94-.56,1.97.36.39,1.33.17,1.68.56.64-.29.78-1.09,1.4-1.41.26,1.1,2.6,2.8,3.08,1.12-.63-.49-2.94-.53-2.24-1.97,1.02.11,2.6,1.13,3.36.56-2.1-1.6-3.99-.5-6.73-.84Zm35.89,2.25c1.05-.3.8.7,1.68.56.55-.63.15-2.02-.84-1.97-.25.5-1.14.36-.84,1.41Zm-20.19.56v-1.69h-.84c-.15.99.24,1.45.84,1.69Zm31.97-.84h.56c.02-.36.36-.39.28-.84h-.56c-.02.36-.36.39-.28.84Zm19.91,1.97c-.82,3.6,4.83,1.14,2.8-1.97-.22-.15-.45-.29-.84-.28-.52.79-.93,1.69-1.96,1.97v-.28h-.28c.1-.48-.22-.53-.56-.56v.56c.23.05.28.28.56.28v.28h.28Zm-144.13-1.69v.56c.69.44.82-.95.28-.84-.02.17-.04.33-.28.28Zm111.32.84h.84c.05-.61-.23-.89-.84-.84v.84Zm-161.52,1.69c.19-.85.9-1.16,1.12-1.97-.86.12-2.38,1.47-1.12,1.97Zm80.48,104.22c-.4-2.44-2.99-5.54-3.37-7.02.09.33.34-1.39,0,0-1.5-1.31-1.75-3.86-2.24-6.18-1.57-.76-1.79-2.88-2.8-4.21.22-1.16-.43-1.44-.28-2.53-1.96-2.54-3.17-5.82-3.93-9.55-.94-1.21-1.6-2.71-2.52-3.93-.49-2.79-2.03-4.53-2.53-7.3-2.54-2.61-3.44-6.85-4.77-10.68-1.41-.36-1.41-2.14-2.52-2.81-.04-2.03-1.45-2.67-1.96-4.21.03-2.09-1.02-3.1-.84-5.34-1.21,0-1.29-1.14-1.96-1.68-1.07-2.04-1.43-3.42-2.52-5.06-.35-4.33-2.9-6.46-4.49-9.55v-1.69c-.42-.42-1.18-.5-1.4-1.12-1.35-2.97.18-6.53,0-9.55-.12-2.05-.32-5.1,1.96-6.18.45.21-.07,1.38.84,1.12.56-.53.14-1.33,0-1.97,1.07.14,1.79-.08,2.24-.56-1.88-4.28,5.05-1.75,4.49-5.62-1.83-.22-4.99,1.28-7.57.28-2.16,1.01-6.76,1.16-10.1,1.12-.67,0-1.41-.53-2.24-.56-1.32-.05-2.54.95-2.8-.56.24.9-.43.88-.84,1.12-6.24.06-12.68-1.07-19.35-.56-.57-.64-1.86-.57-2.52-1.12-.48,1.02-2.6.39-2.52,1.97,1.04.92,2.27,1.66,4.21,1.69.88,2.11,2.67,3.32,4.21,4.78,1.49,4.59,3.33,8.84,6.17,12.08.07,1.24.45,2.17.28,3.65,3.49,3.44,4.67,9.18,6.45,14.33.23.24.77.17.84.56,2.31,4.71,4.21,9.82,7.01,14.04-.04.7.44.87.56,1.4v1.69c2.14,2.35,3.23,5.75,3.64,9.83,1.4,1.42,1.48,3.63,2.52,5.34,1,1.63,2.32,2.7,2.8,5.34.14.76.21,1.28,0,1.96,1.34,2.87,2.13,6.29,4.21,8.43.98,2.57,2.3,4.81,2.8,7.86,1.24.72,1.45,2.49,2.53,3.37.26,3.02,2.12,4.43,3.36,6.46.47.47.22,1.65.28,2.53,1.68,2.63,2.02,6.59,4.77,8.15,1.02,2.45,2.18,4.75,3.37,7.02v2.25c3.54,4.69,4.55,11.92,8.13,16.57.23.79-.4.73-.28,1.4.63.3,1.23.64,1.68,1.12.94,2.81,2.64,4.84,4.21,7.02.51,3.52,2.71,5.34,3.37,8.71,3.55,3.74,4.92,9.68,8.41,13.48-.15,2.59,1.63,3.23,1.68,5.62,2.87,1.81,1.72,7.64,4.49,9.55,2.27-3.1,1.03-7.97,3.93-10.39.96-4.66,3.42-7.81,4.77-12.08-.34-2.43,1.1-5.43,3.08-6.46.48-3.74,2.28-6.14,3.93-8.71.88-3.8,2.74-6.62,4.21-9.83-.14-1.73.78-2.4.56-4.21.79-.05.77-.92,1.4-1.12v-1.97c1.46-1.07,1.97-3.08,3.08-4.5.09-3.1,1.56-4.8,1.96-7.58.59-.16.8-.7,1.68-.56-.46-3.19,1.34-3.13,1.12-6.46,1.04-1.67,2.75-2.68,2.52-5.62,3.66-3.08,3.76-9.71,7.01-13.2-.15-1.09.5-1.37.28-2.53,2.59-2.36,3.48-6.44,4.48-10.39,1.51-.94,1.43-2.86,2.24-4.21.92-1.53,2.87-2.59,2.52-5.06,1.68-2.06,2.27-5.22,3.93-7.3-.03-2,1.39-2.54,1.12-4.78,1.22-.75,1.79-2.14,2.8-3.09-.15-2.3.17-4.13,1.68-4.78v.28h.28c.81.21.73,1.33,1.96,1.12-.12-.96-.98-2.19-1.68-1.69v-.28h-.28c-.05-.61.23-.89.84-.84.18-3.28,2.72-4.2,2.53-7.87,1.11-1.14,1.82-2.67,1.68-5.06,1-1.34,1.54-3.14,3.09-3.93.13-2.32,1.37-4.51,2.24-6.46.14-.32.08-.99.28-1.4.1-.21.81-.48.84-.56.16-.4-.17-1.01,0-1.4.77-1.7,1.87-3.44,2.81-5.06v-1.97c1.36-1.36,2.45-2.98,3.93-4.21,2.18-1.01,4.28-2.08,5.05-4.5,2.22-1.34,4.51-2.6,6.45-4.21.93-.57,2.78-.21,2.8-1.69-.44-.97-2.45-.36-3.08-1.12-3.63.74-9.31.75-13.46,0-2.26.45-5,.42-6.73,1.4-2.28-1.45-5.25-1.21-8.13-.56-6.35-1.89-14.13-1.28-20.47-1.4-.81-.03-.15-1.54-1.12-1.4-.12,1.47-2.45.73-3.37,1.4-1.6-.68-3.95-.89-4.21,1.12,2.46-.3,5.63,2.02,8.7,1.12,1.08,1.09,2.13.48,4.21.56,4.03,2.96,11.58,6.54,13.18,12.92.86,3.44-.9,5.12-2.52,7.58-.86,3.54-1.83,6.97-2.8,10.39-1.73,1.21-2.87,4.04-2.8,6.18-.35.59-.82,1.06-1.4,1.4-.73,5.54-3.35,9.2-4.21,14.61-2.4,3.4-2.94,8.66-5.61,11.8-.43,6.12-4.77,8.33-5.61,14.05-.97.43-1.32,1.49-1.96,2.25-.3,5.88-4.37,7.99-4.77,13.76-2.61,2.26-3.96,5.77-4.49,10.11-1.46,2.29-2.98,4.51-4.49,6.74.14,1.26-.14,2.11-.28,3.09-.84.75-1.7,1.48-3.37,1.4.21,2.37-.43,3.87-.28,6.18-.74.66-.92,1.88-1.68,2.53.34,2.4-1.09,3.03-1.12,5.06-2.62,1.77-2.78,6.02-4.48,8.71-3.76.4-2.97-3.77-5.05-5.06-.73-4.61-2.66-8.01-5.05-10.96-.07-4.74-4.9-6.1-4.21-10.67-.84-.19-.94-1.12-.84-2.25-1.84-1.62-2.16-4.77-3.93-6.46.21-.86-.48-.83-.28-1.69l.14-.14-.14-.14c.93.03-.31-1.21-.28-.28l-.14-.14-.14.14Zm37.58-103.94c.79.05,1.17.52,1.96.56-.28-1.49.62-1.09,1.12-.56v-1.4c-1.49-.55-3.06-.27-3.09,1.4Zm37.01.56h.84v-.84h-.56c-.02.36-.36.39-.28.84Zm33.37,2.81c-.06-1.06.29-2.53-.84-2.53.41.71-.18,2.43.84,2.53Zm-64.78-1.12c.42.32,1.18.99,1.4,0-.42-.32-1.18-.99-1.4,0Zm-64.21,1.68c.06-.81-.07-1.43-.56-1.68.03.89-.75,1.68.56,1.68Zm50.47-.56c.48.02.72-.22.84-.56-.44.03-.97-.04-.84.56Zm89.73-.28c-.21.06-.55,0-.56.28.22-.06.55,0,.56-.28ZM15.84,28.65c1.58.42,2.09-1.28,1.4-2.25-1.38-.05-1.99,1.12-1.4,2.25Zm186.75-1.41c.25-.04.14-1.55-.28-.56-.07.17.12.59.28.56Zm-57.48,126.13c1.45.18-.34-1.34.56-1.4,1.18-.06,2.34-.1,2.52.84.17,1.57-.53,2.27-1.4,2.81-4.04.77-4.58-1.97-7.57-2.25-1.01,4.21,2.45,6.34,3.93,8.99,2.53,1,3.59.36,6.73.28.71.03,1.09.41,1.12,1.12,4.56-3.3,8.97-6.74,13.46-10.11.18-1.41,1.08-2.1,1.68-3.09.07-1.15-.27-2.71.56-3.09,2.26-.19,1.23,2.84.84,3.93.37,5.4-.85,9.39.56,13.48-.38,5.83-.94,10.19.84,15.45-.53.68-.08,2.35-.56,3.09,1.76,2.16,1.53,6.33,3.93,7.87.5-5.44-1.5-12.04-1.4-18.82-.15-.99.99-.69.84-1.68-.44-.03-.97.04-.84-.56.39-1.53-.72-3.44-.84-5.34,1.87-2.43-.27-7.42,1.96-9.27,1.37.04,1.47,1.34,1.68,2.53,1.36-.15.91,1.52,1.4,2.25,3.18,0,3.97,2.39,5.61,3.94,4.51,1.64,9.44,3.11,14.58,4.78.87-.82,2.47-1.74,3.93-1.12.41-.62.19-1.87.84-2.25.79-.15,1.46-.41,2.24-.56,1.68-2.53,5.27-3.15,6.45-6.18-.44-2.76.56-4.6.28-6.46-.37-2.46-3.08-4.09-2.24-7.59-.96-.07-.56-1.5-1.4-1.68-2.37,1-1.31,5.43-1.96,8.15-.77,1.1-1.28,2.46-1.4,4.21-2.45,1.76-3.9,4.52-8.7,3.93-2.26-2,.87-3.84,1.96-5.06,1.64-.24,3.43-.31,3.65-1.97-.79-2.25-3.9-3.21-6.73-2.53-.96-.53-.62-2.38-1.96-2.53-1.49.09-1.06,2.12-2.52,2.25-3.39.72-7.11-.59-9.25,1.4-.6.99.3,3.48-1.4,3.37-.95-.78-2.18-2.45-3.08-3.93-.39-.64-1.04-1.82-1.12-2.53-.22-1.81.56-2.83.84-4.78-.81-.88-2.12-1.25-2.52-2.53-.12-3.44,1.1-6.59,1.4-9.83.3-3.28-.53-6.71.84-9.55-.23-3.14.14-5.67,1.4-7.3-.01-2.54,1.23-3.82,1.96-5.62.06-.53-.32-.62-.28-1.12,1.59-1.31.11-5.7,3.09-5.62-.76,5.55,2.71,7.75,3.92,12.08,1.36-.72,1.91.83,3.09,1.12.38,2.19,2.01,1.53,2.24,3.37.2,1.58-.95,1.93-1.68,3.37-.43.85-.51,2.05-.84,2.81-.43.99-1.25,1.53-1.12,2.53,1.95,2.56,5.39,5.44,3.37,10.11-1.09.97-2.95,1.17-3.37,2.81.19,1.31.93,2.06,2.24,2.25,2.61-.76,3.32-3.41,5.61-4.5-.09-.65.04-1.08.28-1.4,1.14-.54,1.81-1.56,2.8-2.25.54-3.86.96-7.84,3.93-9.27,2.58,2,8.3,1.11,10.94,0,.66-3.77-1.09-7.25-2.8-9.55-2.84.38-3.28-1.02-5.33-.84-.3-.73-1.01-1.05-1.12-1.97,2.08-4.88,4.16-10.18,3.37-17.14-.82-.58-1.14-1.66-2.8-1.4-.16.85-1.04,1.9-.28,2.81-2.86,1.16-2.65,5.4-6.73,5.34-1.29,1.42-2.98,2.45-4.49,3.65,1.52,4.66-3.57,5.93-4.21,2.25-1.24-.16-2.18-.63-2.8-1.41-1.5-3.75-2.1-7.9-1.12-12.36.48-.83,1.43-1.19,1.96-1.97.74-3.75,2.48-6.51,5.05-8.43,2.14-5.15,4.94-9.66,8.97-12.92.96-2.22.84-5.53,3.08-6.46,4.48.76,1.35,9.14,6.73,8.99,1.29-3.82-4.79-5.27-1.68-9.27-3.06-3.14,1.84-8.24,0-12.92,2.05-1.76.56-5.56,2.24-7.87-.04-.89-.63-1.24-.56-2.25,2.08-2.62-.51-6.95,1.96-8.99.05.42.68.26,1.12.28.75,1.39-.29,4.33,1.96,4.78,1.46-1.25,1.07-4.36,1.12-7.02-.7-1.26-1.69-2.24-2.24-3.65-1.42.08-1.6,1.39-2.52,1.97-.81.03-1.83-.15-2.24.28-.62,2.72-.43,4.06-.28,6.74-.27.85-.57,1.67-.84,2.53,0,3.65.11,9.59-2.52,11.52v1.69c-2.12,3.4-2.87,8.17-5.05,11.52-3.18,1.21-4.77,4.02-7.29,5.9-2.63.17-3.56,2.05-6.73,1.68-1.57-.86-2.83-2.04-4.77-2.53-.88-.71-1.3-1.88-2.8-1.97-.81,1.17.02,2.25-1.4,2.81,1.7,1.48,2.96,3.4,4.49,5.06,1.88.45,3.45,1.23,4.21,2.81-1,1.81-2.56,3.06-4.49,3.93-1.14-.23-.96-.04-2.24,0-2.2,2.95-8.79,1.5-10.1,5.34.98,1.66,4.06-.42,6.45,0,.29-.74,1.73-.32,1.96-1.12,3.78.23,6.02-4.63,9.25-2.25-.25,2.46-1.96,3.47-3.37,4.78-1.23,3.64-3.89,5.84-4.77,9.83-.42.33-1.25.24-1.12,1.12-2.45,8.43-9.05,15.07-13.46,22.47-3.48,1.17-6.81,3.77-10.37,3.93.04,2.76,2.69,2.93,4.48,3.93.72-.7,2.05-.7,2.8,0,2.23-.77,3.05-2.94,5.33-3.65.61-1.39,1.69-2.57,2.53-3.93.74-1.22,1.11-3.32,2.8-3.65-1.03,7.31-2.62,16.47-3.36,25-.82,1.74-2.21,3.2-3.37,4.78-1.04,1.42-1.91,3.75-4.21,3.93-1.12-.84-1.62-2.31-2.53-3.37-2.29-.39-4.31-.7-6.17-.84-1.21,1.51-3.74,1.68-5.05,3.09.58,2.06-1.32,2.25-.56,3.65Zm-6.17-125.57c.16-.4.44-.68.84-.84.27.58.35,1.34,1.12,1.41-.39-1.14.61-.89.56-1.69h-3.37c-.05.7.63.68.84,1.12Zm-117.49.56c-.3,1.8,1.08,1.92,1.4,3.09.67-1.53.63-2.23.84-3.93-1.27.17-.69,1.56-2.24.84Zm181.43-.28c-.12-.25-.25-.5-.56-.56-.02.4-.05.8.28.84l-.14.14.14.14c-.66,1.77-1.43,3.43-1.12,6.18-1.18,3.03-3.01,5.41-4.48,8.15-2.65.15-3.62,1.99-5.05,3.37-1.11-.1-2.69.26-3.37-.28.31-1.22.59-3.16-.56-3.65-1.62-.03-1.5,1.68-1.68,3.09,1.24,1.57,2.78,2.83,4.2,4.21,6.99.89,8.05-4.39,11.78-7.02.46-3.1,1.67-5.45,2.8-7.87-.32-2.38,1-3.12,1.12-5.06-.87-1.18-2.03-1.25-3.37-1.4l.14-.14-.14-.14Zm-52.15,1.12c.74.08.92-.39.84-1.12-.74-.09-.92.39-.84,1.12Zm-85.25,9.27c-.32.33-.32.99-.28,1.69,1.75,1.71,3.67,3.25,5.33,5.06,3.18.76,6.54,2.8,9.54,2.81.36.48.58,1.1,1.4,1.12,2.99.58,5.5-1.05,8.97-.84.94-1.87,4.19-1.42,5.61-2.81.66-.69.52.42,1.4.28,1.88-1.23,6.34-4.37,2.8-6.74-.54.11-.22,1.09-1.12.84-.82-.39-1.77-.66-2.8-.84-1.34-2.97-3.94-4.67-5.33-7.58-.92-.02-1.07-.8-2.24-.56-1.85-3.66-7.2-1.85-10.94-1.69-.39.64-.97,1.09-1.4,1.69,1.27,1.54,2.67,2.94,3.93,4.49-.07,1.01.24,2.81-.84,3.65-4.61,1.41-6.97-1.8-10.94-1.97-2.49-2.09-4.4-4.76-5.33-8.43-.36-.02-.39-.36-.84-.28-1.27,4.47-.58,8.58,3.09,10.11Zm79.92-6.46c2.41,1.2,4.92-.91,3.64-3.37-2.16.18-3.57,1.11-3.64,3.37Zm-7.57-.56c-2.31-.76-4.41-2.27-7.29-2.25-1.8.01-4.09,1.73-5.05.28-.62,1.81-2.29,2.57-3.93,3.37-.89,1.36-2.3,2.19-3.37,3.37-1.73,1.07-3.82,1.79-5.05,3.37-.71,1.55.87,3,.84,4.78,4.16,1.26,5.07,5.79,10.94,5.34.71.5,1.56.87,2.52,1.12,2.46-.1,5.74-.15,8.41.28.96-.82,1.85-1.71,3.08-2.25,4.16-.47,6.71-1.93,10.09-3.65,1.61-1.95,2.35-4.76,5.05-5.62,1.13-2.13,3.27-6.29.84-8.71-1.75-.16-1.58,1.6-2.52,2.25-1.65.59-2.32,2.17-3.65,3.09-2.82.26-4.53,1.64-6.73,2.53-1.68-.24-2.08-.02-3.93,0-.04-1.36-1.81-1-1.96-2.25.5-1.28,1.21-2.35,2.53-2.81,1.96.21,4.23-.55,3.36-2.25-.97-.67-3.14-.16-4.21,0Zm-67.02,1.69c1.5.74,2.6-.56,2.53-2.25-1.52-.93-2.44.84-2.53,2.25Zm88.05,8.15h.28c1.52-2.33.04-4.07.56-7.02-.4.02-.79.05-.84-.28,1.03.09,1.07-1.66.56-2.25h-.84c.29.84-.62.5-1.12.56.71,1.35.54,2.02.84,3.93-.71-.14-1.09-.48-1.12.56,1.12.1,1.16,1.28,1.68,1.97-.22.15-.45.29-.84.28.05.8.52,1.17.56,1.97l-.14.14.14.14c-1.7.36-2.48.51-2.24,1.69.97.12,1.57-.11,2.24-.28,0-1.4.14-1.26.14-1.26l.14-.14ZM23.41,32.31c.32,1.11.32-1.11,0,0h0Zm50.47,2.25c.68-.26,1.14-.73,1.4-1.4-1-.06-1.47.4-1.4,1.4Zm83.28.56c.2-.21.7-1.38-.28-1.12-.03.7-.54.88.28,1.12Zm-133.76,1.69c.85-.18,1.62-.44,1.68-1.41-.39-.64-1.03-1.03-1.96-1.12.06.88-.19,2.06.28,2.53Zm186.47-1.69c.33,1.11.33-1.11,0,0h0Zm-196.01,1.12v.84c2.93,3.34,5.61,6.93,6.73,12.08.92,1.04,2.28,1.65,2.81,3.09.26,3.27,4.01,5.5,2.24,8.99-1.5.09-1.79-.96-2.8,0-.11,1.98,1.08,2.66,1.12,4.49-.93,1.22-1.29,3.02-3.37,3.09-2.81-.71-1.52-3.88-1.96-6.74-.24-1.55-1.18-2.87-1.4-4.49-.63-4.58-.53-9.32-2.24-12.92.2-2.08-.31-3.43-2.24-3.37-1.17,1.13-.21,2.84-.28,4.21-.04.81-.47,1.7-.56,2.53-.57,4.91,1.57,9.86.84,14.33,1.24,2.03,2.06,4.49,2.8,7.02,2.58,1.44,3.84,4.21,6.73,5.34,1.91-.33,2.45-2.04,5.33-1.41.65-1.41,2.58-1.53,3.65-2.53,1.13-2.67.49-5.53.56-8.99-1.11-2.36-1.49-5.44-2.25-8.15-3.38-3.36-4.44-9.04-8.97-11.24-1.1-1.98-2.79-3.39-3.36-5.9-1.21.84-2.26-1.09-3.37-.28Zm61.13.28h.56v-.56h-.56v.56Zm115.53,2.53h1.4c.12-.54.61-.71.56-1.41-.47-.37-.94-.74-1.96-.56-.4.38-.4,1.59,0,1.97Zm-33.65-.56c.52-.04.94-.19,1.12-.56-.36-.02-.39-.36-.84-.28.01.39-.13.62-.28.84Zm-134.04.84c-.77.85.85-.77,0,0h0Zm188.16,1.97c.21,1.56.02,3.54,2.24,3.09-.23-2.2,1.53-2.4,1.4-4.49-1.42-1.48-2.02,1.37-3.64,1.4Zm-187.88.28c.02-.48-.22-.72-.56-.84-.01.48.22.72.56.84Zm86.93,52.81c-3.76,2.04-8.58,3.02-11.78,5.62h-1.12c-1.58,3.01-6.9,2.26-7.01,6.74.57.08.55.76,1.12.84,4.95-2.26,8.56-5.84,14.86-6.74.74.76.56,2.44.56,3.93,1.31.61,2.34-.61,2.8-1.68-.27-1.22-2.07-2.11-1.68-3.09,3.52-2.56,8.4-3.76,14.3-3.93.42-.33.68-.81,1.4-.84,2.54.05,4.61-2.54,6.73-1.12-.03,2.12-1.44,2.87-3.37,3.09-3.12,3.43-7.08,6.02-9.81,9.83-.05-.32-.28-.16-.28,0,.27,0,.22.34.28.56-2.11,1.82-2.58,5.28-5.33,6.46.46,1.31.09,2.21-.84,2.81-.86.04-1.26-.99-1.96-.28-.73,1.15-1.87,1.87-1.96,3.65-1.55,1.26-2.89,2.72-4.49,3.93-1.47.3-2.42,1.13-2.8,2.53,2.74,5.34,8.51-2.77,11.78.84-.37,4.28.71,6.16,1.12,9.83.26,2.35,1.64,4.38,1.4,7.59.11,1.05-1.15,1.57-.28,2.53,5.71.38,3.81-9.28,8.13-11.24.07-1.53.45-2.73.28-4.5-.81-1.61-3.42-4.14-1.96-6.18,2.7.2,2.79,3.01,4.49,4.21h2.8c-.01-.48.21-.73.56-.84-.45-3.41-3.17-4.6-2.8-9.27-1.09-.88-2.06-2.89-3.64-3.37-1.73-.52-2.85.56-4.49.28-.31-2.19.76-2.98.84-4.78,4.25-4.08,7.2-9.45,12.9-12.08v-1.12c1.8-.16,2.02-1.91,3.37-2.53.79-.05,1.17-.51,1.96-.56,1.55-1.7,2.62-3.33,5.05-2.81,1.85-.86,4.42-1,5.61-2.53-.05-1.64.49-2.69.28-4.49-2.2-1.26-4.44-2.48-6.45-3.93.12-.68-.51-.61-.28-1.41-3.26-.57-3.13-4.55-5.05-6.46-.54-3.03.25-4.55.84-7.02,1.45-.42,2.16-1.58,3.08-2.53.57.08.55.76,1.12.84.81-2.77,2.8-1.22,6.17-1.69,1.24,1.47,2.94,2.48,3.37,4.78,2.16-.6,1.4-4.18,0-5.34-.48-.4-1.6-.08-1.96-.56-.21-1-.72-1.71-1.4-2.25-.96,1.29-2.29-.22-3.64-.28-2.19-.1-4.47,1.35-6.45.84-2.42,2.36-4.42,5.12-6.45,7.87-.44,2.97-.05,4.93.28,8.15,1.93,1.91,2.9,4.77,4.49,7.02,1.67.39,3.01,1.1,3.08,3.09-.66.84-1.42,1.57-2.8,1.68-1.53-1.37-3.93-1.87-5.33-3.37-.53.12-.7.6-1.4.56-2.98-1.88-6.62-3.11-8.41-6.18-.86.2-1.02-.29-1.68-.28-1.69-3.37-4.91-5.19-5.89-9.27-1.04-1.01-2.08-2.04-2.24-3.93.4.43,1.46.27,1.4-.56-.6-.78-1.53.52-1.68-.56-.55-3.27-1.56-5.39-1.4-8.15l.14.14.14-.14c.7.26.08-1.61,0-.56l-.14-.14-.14-.14c-1.49-.67-.41-3.9-1.12-5.34,1.38-2.46,2.05-5.62,2.8-8.71-.6-.62-1.36-1.07-2.8-.84-2.02,2.47-2.35,6.64-3.08,10.39.75,2.59,1.32,6.65.84,9.55.83,1.88,1.87,3.55,1.68,6.46.65,1.04,1.13,2.24,1.4,3.65,2.39,1.54,2.93,4.93,4.77,7.02.97.25,1.84.59,2.24,1.4v3.37c1.12,1.03,2.66,1.64,4.77,1.69,1.86,2.67,6.01,1.59,6.73,5.06-.83,1.38-2.28.42-3.93.84-.08-.45.27-.48.28-.84-1.35-.23-.55,1.7-1.68,1.69-.81-.13.25-2.12-.56-2.25-.21.62.03,1.92-.56,2.81-3.5.61-6.84,1.39-9.81,2.53v-.28h-.28c.15-.23.29-.46.28-.84-.24.05-.27-.11-.28-.28-.45-.08-.48.26-.84.28v-.28h-.28c.32-.3.1-1.29-.28-1.68.37,1.01-.85,2.7.28,1.97v.28h.28c.12.25.25.5.56.56v.28h.28ZM30.14,43.26c0-.56.77-.36.56-1.12-.49-.36-.73-.95-1.68-.84-.11,1.14.1,1.96,1.12,1.97Zm164.32-1.97c-.07.44-.62.2-.84,0-.34,1.42,1.87.61.84,0Zm-167.13.56c-.31.03-.44-.41-.56,0,0,.28.49.35.56,0Zm176.1,3.93c-.17-1.05-.34-2.1-1.4-2.25.28.94-.06,2.5,1.4,2.25Zm-48.23-1.4c-.09-.23-.75-.34-.84,0-.19.65,1.1.61.84,0Zm7.57,1.4h.84v-.56h-.84v.56Zm-48.23.84c.28,0,.33.23.56.28-.03-.44.04-.97-.56-.84v.56Zm42.34,1.12h.28c.15-.41.42-.71.56-1.12-.23-.15-.46-.29-.84-.28.04.5-.34.59-.28,1.12l-.14-.14-.14.14c-.83-.81-2.29-.41-2.24,1.12.26.49.52.97,1.4.84.49-.45.82-1.05,1.12-1.69l.14.14.14-.14Zm3.93-.28h.56v-1.12h-.56v1.12Zm-7.57,0c-.22.06-.55,0-.56.28.22-.06.55,0,.56-.28Zm-4.49.84h.56v-.56h-.56v.56Zm2.8,1.12h.84c.08-.64-.07-1.06-.56-1.12.06.53-.31.62-.28,1.12Zm-39.26,1.4c.47.37.94.74,1.96.56,1.5-2.85-2.09-3.63-1.96-.56Zm-40.38-1.4c.33,1.11.33-1.11,0,0h0Zm31.97-.28c-.42.05-1.03-.1-1.12.28.37.37,1.04.37,1.12-.28Zm-30.29.84h.56v-.56h-.56v.56Zm114.97,0h.56v-.56h-.56v.56Zm-106.56-.28c-.85.95,1.04.85,0,0h0Zm105.44.56h.56c.44-.69-.95-.83-.84-.28.17.02.33.04.28.28Zm22.71,0c.26,1.7.28,3.65,2.24,3.65.48-.36,1.1-.58,1.12-1.4-.58-1.01-.5-2.68-1.96-2.81-.87-.21-.54.77-1.4.56Zm-143.57,1.96c.63-.49,1.73-.52,1.4-1.96-1.71-1.19-3.07,1.3-1.4,1.96Zm31.69.28c1.61.21,2.19-1.15,1.68-2.25-1.56-.25-1.74.88-1.68,2.25Zm-76.27,4.5c1.04-1.81-.24-5.61-1.96-6.46-.03,1.84.41,5.31,1.96,6.46Zm98.42-6.18c-.68.94.94-.68,0,0h0Zm19.07-.28c-.22.06-.55,0-.56.28.22-.06.55,0,.56-.28Zm18.51,4.78c1.11-.39.87-2.13,1.4-3.09-.41-.52-1.12-.74-1.12-1.68-3.22-.18-3.04,4.6-.28,4.78Zm-38.13-4.5c-.33.04-.79-.05-.84.28.33-.04.8.05.84-.28Zm27.76.56c-.22.97.31,1.19.56,1.69,1.01.17,1.36-.33,1.96-.56.2-1.36-1.56-1.81-2.52-1.12Zm-73.47,2.25c.59.16.8.7,1.68.56.57-.65.29-2.15-.28-2.53-1.3-.18-1.59.66-1.4,1.97Zm-41.5.28c1,.06,1.68-.19,1.96-.84-.31-2.04-2.85-.6-1.96.84Zm163.48-1.69c-.22-.05-.28-.28-.56-.28-.05.23-.28.28-.28.56.23.15.46.29.84.28l.14.14.14-.14c-.08.64.07,1.06.56,1.12.72-.13.95-2.21-.28-1.96-.05.23-.28.28-.28.56l-.14-.14-.14-.14Zm-104.87,2.53c.66.09.52.98,1.4.84.75-.57,1.75-.87,1.4-2.53-1.26-1.38-2.98-.52-2.8,1.69Zm29.72,1.4c1.7.11.83-.9.56-1.69.6-.24.99-.69.84-1.69h-1.12c-.02,1.2-.47,1.96-.28,3.37Zm24.96-2.53c.78-.12.26,1.05.84,1.12.02-2.71-1.57-.5-2.8-1.97-.46.55-.9,2.04-.28,2.81,1.55.33,1.7-1.06,2.52,0-.07-.51-1.2-1.39-.28-1.97Zm-29.72,1.4c.15.79,1.32.55,1.4,1.41,1.43-.44,2.32-1.42,2.52-3.09-1.53-.04-3.62-.68-3.93,1.69Zm12.06-1.4c.32,1.11.32-1.11,0,0h0Zm-16.26,1.12c.47-.38,1.78.1,1.68-.84-.39-.64-2.06-.21-1.68.84Zm26.92,1.12c.6-2.95-2.54-2.47-2.52-.28.3.64.85,1.02,1.68,1.12.16-.41.44-.69.84-.84Zm-66.18-1.12c.73.08,1.21-.1,1.12-.84-.54.12-1.21.1-1.12.84Zm60.01,1.12c.33.04.24.51.28.84h1.4c.2-.83.84-1.22.56-2.53-.44-.53-1.09.4-1.68-.28.04.7.05,1.36-.56,1.41v-.28h-.28c-.51-.52-1.03-1.03-2.24-.84-.79.85-.41,1.8-.28,3.09h1.68c.58-.08.26-1.05.84-1.12h.28v-.28Zm59.73-1.97c-.22.06-.55,0-.56.28.22-.06.55,0,.56-.28Zm-42.06,1.69c-.22,2.74,1.47,2.57,3.36,1.97-.33-1.07-.74-2.06-1.12-3.09-1.26-.14-1.25.99-2.24,1.12Zm-79.92.84c-.02-.49.06-.87.28-1.12-.36-.39-1.22-.28-1.96-.28.17.85.62,1.44,1.68,1.41Zm26.64,1.4c.13.61.78.38.84,1.4.67-.17,1.28-.4,2.24-.28,1.8-4.16-3.95-5.23-3.08-1.12Zm26.64-1.12c1.19.55,2.18-.56,2.8-1.41-.7-.24-1.5-.37-2.52-.28-.32.33-.32.99-.28,1.69Zm-49.63-1.41h-1.12c-.45,1.31,1.45.98,1.12,0Zm140.21.84h.56c.02-.36.36-.39.28-.84h-.56c-.02.36-.36.39-.28.84Zm-102.63,1.12c-.09,1.49.16,2.65,1.4,2.81,2.16-.07,1.94-3.48.28-3.93.08,1.02-1.23.64-1.68,1.12Zm27.48-.84c.33,1.11.33-1.11,0,0h0Zm15.71.84c-.06-.5.28-1.41-.56-1.12.04.52.19.94.56,1.12Zm25.52,1.4c.85.27,1.13,1.12,2.52.84-.12-.68.51-.61.28-1.4-.81-1.38-2.79-1.98-2.8.56Zm-100.39-1.4c-1.75.87-1.39,3.85-1.4,6.46-.28,1.15-1.05,1.19-.56,2.53,1.35,3.61,4.55,5.37,6.17,8.71-.62,1.91-3.37,1.68-4.49,3.09.06,1.53-.19,3.38.28,4.49,1.61.73,4.42.25,5.61,1.4,1.07-.31,3.93-.78,4.21.56-.98,2.71-3.41,6.59,0,8.43,1-.59.7-2.48,1.12-3.65,2.16-1.37,4.79-1.78,5.05-4.49.17-1.85-2.71-4.61,0-5.9,3.58,1.31,7.68,3.01,11.22,1.4,1.27.22,2.17.82,3.93.56.27-1.77-1-1.99-1.4-3.09-3.35.04-3.98-2.28-7.57-2.25-3.45.03-6.87,3.24-8.97.56-.52-3.59-.85-7.39-3.64-8.71-4.48.65-5.97-1.69-7.85-3.65.3-2.54.24-5.43-1.68-6.46Zm30.56,1.97c-.39-.63-.25-1.81-1.4-1.69-.22,1.25.26,1.79,1.4,1.69Zm83,.84c.08-.57.76-.55.84-1.12-.33-.42-.81-.69-.84-1.41h-1.4c-.17,1.48.25,2.37,1.4,2.53Zm-98.71-1.69c0-.28-.49-.35-.56,0,.31-.03.44.41.56,0Zm119.46,2.81c-.58-1.1-1.09-2.27-1.96-3.09-.78.97-2.68.33-3.36.56-.32,2.94,1.35,3.89,1.4,6.46h1.96c-.04-1.35,1.31-1.32.84-3.09.56-.47.36.03,1.12,0v-.28l.14.14.14.14h.56c.43,0,.62-2.08-.28-1.69-.02.45.13,1.07-.28,1.12v-.28h-.28Zm-124.5-.84c1,.07,1.47-.4,1.4-1.4-.87-.89-2.29.54-1.4,1.4Zm-54.4.84c.78.31,2.37.51,2.52-.56-.47-.65-1.52-.72-2.24-1.12-.32.33-.32.99-.28,1.69Zm48.51,0c.53.12.71.61,1.4.56.72-.21.97-.9.84-1.97-1.14-.87-2.36.13-2.24,1.4Zm26.64-1.12c-.22.06-.55,0-.56.28.22-.06.55,0,.56-.28Zm16.82,3.09c.61-.67.74-2.13.28-3.09-2.44-.54-1.88,3.07-.28,3.09Zm27.76-.28c.88.14.99-.51,1.96-.28.73-3.43-3.36-2.14-1.96.28Zm-61.97.28c1.63.42,1.46-.98,1.4-2.25h-1.12c-.33.81-.59,1.49-.28,2.25Zm24.68,0c.85-.18,1.62-.44,1.68-1.4-.54-1.9-3-.1-1.68,1.4Zm72.06,2.53c.97-1.11,1.59-3.01.28-4.21-3.53-.7-2.18,4.07-.28,4.21Zm-90.86-1.12c.78.68,1.65.51,2.53,0-.18-.95-.2-2.05-.84-2.53-1.06.34-1.98.83-1.68,2.53Zm81.04-2.25c.32,1.11.32-1.11,0,0h0Zm-22.99.84c-.24,1.66.16-1.13,0,0h0Zm21.87,1.12c.65.18,1.3-1.66.28-1.4.12.68-.51.61-.28,1.4Zm-2.24-.84c.33,1.11.33-1.11,0,0h0Zm-47.39.28c-.68.94.94-.68,0,0h0Zm-16.54,3.09c1.72.23,2.39-.6,2.52-1.97-.86-2.17-3.17-.55-2.52,1.97Zm41.22-1.69c.09-.38.4-.54.28-1.12h-1.12c-.04.7.43.88.84,1.12Zm61.69-.56c0-.28-.49-.35-.56,0,.32-.03.44.41.56,0Zm-123.38,1.4c-.09-.66-.29-1.21-.84-1.4-.54.54-.29,1.72.84,1.4Zm115.25-.28c.36.02.39.36.84.28.01-.48-.22-.72-.56-.84,0,.28-.23.33-.28.56Zm-83.84,3.65c1.27.15,1.68-.56,2.52-.84-.29-.83-.21-2.04-.84-2.53-.33-.04-.79.05-.84-.28-1.71.23-2.09,2.72-.84,3.65Zm-86.37-.84c1.11-.01,1.67-.58,1.68-1.69-.68-2.04-2.93.21-1.68,1.69Zm79.64,0c.56.28.44,1.24,1.4,1.12,1.41-.27,1.75-1.62,1.68-3.37-1.54-.64-2.83.73-3.09,2.25Zm97.02,0c.97-.52.45-2.14-.56-2.25-.46.54-.47,2.34.56,2.25Zm-140.76.56c.85-.17,1.43-.62,1.4-1.69-.33-.24-.75-.37-1.4-.28-.4.38-.4,1.59,0,1.97Zm31.12-.84c.07-.4.46-.47.56-.84h-.84c.04.33-.05.8.28.84Zm40.38,1.69c.88-.14.99.51,1.96.28.09-.85.87-1,.56-2.25-.97-1.13-2.74.21-2.52,1.97Zm-5.89-1.12c.37.85.7,1.73,1.68,1.97.82.07.86-.63,1.68-.56.52-2.11-2.85-3.72-3.36-1.4Zm12.06,1.97c.71-.03,1.09-.41,1.12-1.12-.44-.03-.22-.72-.84-.56-.32.33-.32.99-.28,1.69Zm23.84.56h.56v-1.12h-.56v1.12Zm-80.2,1.12c.19.84.92,1.14,1.4,1.69,2.2-1.65-.71-5.24-1.4-1.69Zm3.36-1.12c.4.07.47.46.84.56.09-.38.4-.54.28-1.12-.64-.08-1.05.07-1.12.56Zm-64.21.56c-3.73,1.5-4.73,6.01-9.53,6.18-2.04.07-4.01-.59-6.45-.84-.8.05-1.17.52-1.96.56-1.01-.02-.78-1.28-1.96-1.12-1.31.47-1.61,1.95-1.4,3.93,1.6.2,1.2-1.61,2.8-1.4,1.08.51,1.06,2.12,1.68,3.09,4.82,3.37,12.53,1.41,17.11-.84.41-2.12,1.42-3.63,2.24-5.34-.11-2.32-.92-3.95-2.24-5.06-.02.36-.36.39-.28.84Zm5.89,1.12c.98-.08,1.64-1.84.28-1.97-.38.36-.28,1.22-.28,1.97Zm113.29-1.12h.84v-.84h-.56c-.01.36-.36.39-.28.84Zm-31.41,2.53c.46.66,1.64.61,2.8.56.38-.85.38-2.24,0-3.09-2.12-.57-2.93.24-2.8,2.53Zm76.55-1.4v1.4c1,.65,3.05.36,2.8-1.12-.38-.62-2.12-.83-2.8-.28Zm-57.48,1.97c.6.62,1.36,1.07,2.8.84.09-.66.44-1.05.28-1.97-1.28-1-3.04-1-3.09,1.12Zm-59.17-.84c.82.41.82-1.26,0-.84v.84Zm64.22-.28c.87-.28,1.09,1.5,1.68.56-.57-.26-1.13-1.95-1.68-.56Zm3.36,0c.33.36,1.17.23,1.12-.56-.64-.08-1.05.07-1.12.56Zm-44.87.84h.56v-.56h-.56v.56Zm12.62.28c.82.41.82-1.26,0-.84v.84Zm-18.23-.56c-.22.06-.55,0-.56.28.22-.06.55,0,.56-.28Zm103.47.84c.28,0,.33.23.56.28-.03-.44.04-.97-.56-.84v.56Zm-54.4.56h.56c.44-.69-.95-.83-.84-.28.17.02.33.04.28.28Zm53,0h.56v-.56h-.56v.56Zm8.69-.28c-.38-.09-.54-.4-1.12-.28-.21.96,1.07,1.1,1.12.28Zm1.12.84c.96.21,1.09-1.07.28-1.12-.09.38-.4.54-.28,1.12Zm-32.53-.56c.32,1.11.32-1.11,0,0h0Zm-135.72,3.93c1.14.02,1.21-1.04,1.12-2.25-1.76-.44-2.09,1.55-1.12,2.25Zm163.48,2.81c1.05-.51,1.59.23,2.24-.56.05-2.11-.93-3.19-2.24-3.93-.52,1.02-.35,3.44,0,4.49Zm-161.24-3.93c.32,1.11.32-1.11,0,0h0Zm151.98,2.53c1.85.84,4.19-.06,3.64-2.53-1.77-.73-4.52.61-3.64,2.53Zm-69.26-.84c.9.25.88-.43,1.12-.84-.9-.24-.88.43-1.12.84Zm86.37,1.97v-1.97c-.67-.36-1.03-1.03-2.24-.84-.16.4-.44.69-.84.84.33,1.35.5,2.87,1.96,3.09.57-.08.55-.76,1.12-.84v.28h.28c.32.71.46,1.59,1.12,1.97.01-1.21,1.58-1.04.84-2.25-.37-.4-1.59-.4-1.96,0v-.28h-.28Zm-10.1,0c.02-.17.04-.33.28-.28-.03-.34-.08-.67-.56-.56.04.33-.05.8.28.84Zm-1.68.84c.44-.03.97.04.84-.56h-.56c0,.28-.23.33-.28.56Zm-163.48,1.69c.57-.54.65-1.13.28-1.97h-1.4c-.11,1.14.1,1.96,1.12,1.97Zm66.74.84c2.25.63,2.25-3.16,0-2.53-.03,1-1.04,1.02-.84,2.25.33-.05.5.06.56.28h-.28v.28c-.93.52.84,1.37.56,0l.14-.14-.14-.14Zm-71.23-.56c.04-.7.05-1.36-.56-1.41-.6.58-.15,1.34.56,1.41Zm11.5,1.41c1.58.27,2.22-.4,2.52-1.41-1.23-.13-.59-1.07-1.4-1.12-.33,1.01-2.02,1.08-1.12,2.53Zm53.56,0c.37-.47,1.08-.6.84-1.69h-1.96c-.46.91-.15,1.78,1.12,1.69Zm102.07-1.41c-.04,1.17,1.39.85,2.24,1.12-.14-1.14-1.17-1.7-2.24-1.12Zm-7.57,1.97c.38.18.52.6.56,1.12,1.68,0,3.12-.24,2.8-2.25-1.45-.71-3.04-.54-3.37,1.12Zm-151.42-1.12c.32,1.11.32-1.11,0,0h0Zm166.29,4.21c2.17.12,3.29-.82,4.21-1.97-.42-3.98-6.71-1.6-4.21,1.97Zm-99.55.28c.7.42,1.37.87,2.24,1.12.85-1.32,1.62-2.86,1.12-4.78-2.25-1.71-4.05.68-3.37,3.65Zm-76.27-3.09c-.12,1.06.55,1.32.84,1.97.87.03,1.34-.34,1.96-.56.17-1.01-.33-1.36-.56-1.96-.87.07-1.58.28-2.24.56Zm8.41,1.4v-1.68h-.84c-.66.76-.62,1.76.84,1.68Zm-27.48.56c.39-.36.28-1.22.28-1.97-1.67-.34-1.82,2.04-.28,1.97Zm6.73.56c1.38.17,2.16-.27,1.96-1.69-.55-.38-1.6-.27-2.24-.56-.59.62-.22,1.87.28,2.25Zm181.99-.56c.29.64.58,1.29,1.12,1.69,1.45-.33,2.73-.83,3.09-2.25-.5-1.82-4.17-1.3-4.21.56Zm-174.98.56h1.12c.23-.33.37-.75.28-1.41-.33-.32-.99-.32-1.68-.28-.04.69-.04,1.35.28,1.69Zm144.41-.28h1.12v-1.41h-1.12v1.41Zm-68.42,1.12c.53-.33,1.06-2.1-.28-1.97-.38.38-.53,1.96.28,1.97Zm71.79-.28c.55-.52.09-1.03,0-1.69h-1.12c-.34.79-.16,1.79,1.12,1.69Zm14.86,2.53c2.32.65,2.21-3.4,0-2.81.12,1.07-.73,2,0,2.81Zm-83.29-2.53c-.22.06-.55,0-.56.28.22-.06.55,0,.56-.28Zm-78.79,2.81c1.72,5.95,5.61,9.73,9.53,13.48,1.3.38,3.06.31,3.37,1.69.15.99-.24,1.45-.84,1.69-3.4-1.74-8.6-.41-12.34-1.12-1.77,1.08-3.41.54-5.61,1.12-1.5,2.43-2.93,4.93-5.05,6.74-.65,2.84-.64,5.7,0,7.87,1.32,4.5,3.31,9.15,7.01,10.67,2.37-.85,5.59.2,8.13-.84.57.18.08,1.42,1.12,1.12.31-2.4,2.92-2.51,4.21-3.93,1.33-3.66,4.97-6.41,4.49-10.96-4.21.74-3.12,6.8-6.45,8.43-1.86-.46-1.89.92-3.08,1.12-.86.2-.82-.49-1.68-.28-2.21.87-6.62,1.29-7.29-1.4.28-.93,1.5-.93,2.8-.84,1.2-.67,1.93-1.81,3.37-2.25-.94-1.67-1.34-3.9-1.96-5.9.21-1.84,3.04-3.88,4.77-5.62.91-.92,1.36-2.26,2.52-2.53,1.38-.31,2.44.41,3.93.84,7.92.31,13.25,2.23,21.03.84.69-.83-.94-1.14-1.12-1.97-3.05-.2-5.98-2.25-8.97-3.37-.86-.2-1.02.29-1.68.28-1.41-1.92-4.71-3.27-4.77-6.18-.02-.96.91-1.49.56-2.81,1.33-.73,1.65-2.47,2.8-3.37.28-1.78,2.27-1.85,2.24-3.93-3.23-2.76-8.09.79-9.53,3.37-.78,3.37,1.68,6.83-.28,8.71-1.88-.46-3.42-1.08-4.49-2.53-.88-1.2-1.18-3.27-2.24-4.5-.56-.64-.98-.5-1.4-1.12-1.01-1.47-1.71-3.15-2.24-4.78-.36-.02-.39-.36-.84-.28v2.53Zm159.84-1.12c.08-.17.7-1.08,0-1.12-.08.17-.7,1.08,0,1.12Zm-91.42,2.25c-.05-.61,1-.13,1.4-.28.08-.95.45-1.61.28-2.81h-2.52c-.2,1.51.48,2.14.84,3.09Zm73.19.56h.28c-.18.69-.04,3.14.84,3.65.14-1.35.82-2.18,2.24-2.25.62-1.45-.8-2.56-2.24-2.81l.14-.14-.14-.14c-.35-.91.91-.21.56-1.12-.78-.46-3.53-1.22-3.92-.28.5.88,1.1-.09,1.68.56.41,1.07-1.25.05-.84,1.12.46.39.89.8,1.4,1.12v.28Zm-157.87-2.53c.32,1.11.32-1.11,0,0h0Zm198.53.84c-1.27.53-.38-1.12-1.4-.84.11.78,1.24,2.56,1.4.84Zm-183.39-.28c-.24,1.66.16-1.13,0,0h0Zm138.8,0c.33,1.11.33-1.11,0,0h0Zm29.73.84c.72.03.45,1.05.84,1.4.49-.26,1.4-.1,1.68-.56-.75-.37-.56-1.69-1.68-1.69-.03.53-.93.2-.84.84Zm-174.14.56c.07.4.46.47.56.84,1.1-.03,1.9-.34,1.68-1.68-.7-.56-2.31-.23-2.24.84Zm142.17-.28h.84v-.84h-.84v.84Zm-70.95.84c.7.04,1.36.05,1.4-.56-.53-.03-.19-.93-.84-.84-.31.34-.8.51-.56,1.4Zm70.66,2.25c.55.39,1.81.92,2.52.28.31-1.34-.69-1.37-.84-2.25.95.02,1.96.09,2.24-.56-1.27-1.9-3.57.87-3.93,2.53Zm50.76,1.97c.86-2.07-.07-5.14-1.12-5.34-2.52.41-1.51,5.86,1.12,5.34Zm-199.65-3.65c.33.24.75.37,1.4.28.38-.36.38-1.33,0-1.69h-1.12c.11.68-.51.61-.28,1.4Zm72.91,1.69c-.39-1.25.35-2.55-.56-2.81-.25,1.08-1.22,2.64.56,2.81Zm9.25-.84c.33.24.75.37,1.4.28.11-.87-1.35-1.14-1.4-.28Zm100.11.56c.02-.48-.21-.72-.56-.84.03.44-.04.97.56.84Zm-178.06,1.97c.63-.12.11-1.39.28-1.97-1.16-.27-1.72,2.09-.28,1.97Zm31.41-.56c.53.8,2.33.78,2.24-.56-.32-1.35-2.2-.68-2.24.56Zm140.77.28v-1.12c-1.11-.2-.92,1.18,0,1.12Zm-4.21.28c.78.45.77-1.21.28-1.12-.09.38-.4.54-.28,1.12Zm-92.54,0c.82.41.82-1.26,0-.84v.84Zm-.56.56c.08-.74-.1-1.21-.84-1.12.12.54.1,1.21.84,1.12Zm90.29-.84c-.77.85.85-.77,0,0h0Zm10.65.84c.7.04,1.36.05,1.4-.56-.53-.12-.51-.8-1.4-.56v1.12Zm-171.33,0c.42.44,1.6.41,1.4-.56-.7-.04-1.36-.05-1.4.56Zm143.01,3.37c1.29-1.01,1.54.95,2.52,1.12.99.05.92-.95,1.68-1.12-.17-1.61-.95-2.61-2.24-3.09-.82.59-.69,2.12-1.96,2.25v-.28h-.28c-2.13-.07-1.22,4.17.84,3.37.14-.89-.51-.99-.28-1.96l-.14-.14-.14-.14Zm48.23-.84c.8-.23,1.42-.63,1.68-1.4-1.33-.32-2.16.78-1.68,1.4Zm-155.63,2.81c-.69-1.18-.42-3.32-1.68-3.93-.65,1.49.91,2.95,1.68,3.93Zm-42.34-1.68c.62-.22,1.52-.16,1.68-.84-.56,0-.36-.77-1.12-.56.21.87-.77.54-.56,1.41Zm170.49-.84h.56v-.56h-.56v.56Zm-134.32,2.25c.9.33,2.03.74,2.52,0,.28-2.47-2.83-2.36-2.52,0Zm161.24-1.68c-.14.88.86.63.56,1.68,1.56.15,1.54-1.21.84-1.97-.65-.09-1.08.05-1.4.28Zm-192.93,1.68c.72-.03,1.45-.05,1.4-.84-.04-.62-1.19-.12-1.68-.28-.02.49.06.87.28,1.12Zm112.73,1.69c.48-.02.72.21.84.56,1.4-.09,2.16-.83,2.52-1.97-.12-.54-.61-.71-.56-1.4h-1.96c-.45.77-.74,1.7-.84,2.81Zm55.24-2.53c.33,1.11.33-1.11,0,0h0Zm1.68.28h.56v-.56h-.56v.56Zm-164.32,1.69c1.19.26,1.41-.46,1.68-1.12-.33-.32-.99-.32-1.68-.28v1.41Zm-11.49.56c.57.08.55.76,1.12.84.29-.65.96-.91.84-1.97-.53-.12-.7-.61-1.4-.56-.16.59-.7.8-.56,1.69Zm146.65.28c1.18.69,2.56.48,2.8-1.12-.58-1.4-3.34-.97-2.8,1.12Zm-32.81.84h1.12c0-.94,0-1.87-1.12-1.69-.09.66-.55,1.16,0,1.69Zm-26.36.84c.55-.53.14-1.33,0-1.97-2.53-.48-2.22,2.34,0,1.97Zm107.96,3.93c.89-.14.99.51,1.96.28,1.03-.75,1.74-1.82,1.96-3.37-1.37-1.62-2.03-3.11-4.77-2.81.15,2.09.16,4.33.84,5.9Zm-45.14-3.65c1.31.22,1.03-2.13,0-1.97-.4.37-.4,1.59,0,1.97Zm1.4-1.4h.84v-.56h-.84v.56Zm-56.64,2.25c.14.88-.66,1.15.28,1.41.48-1.15.78-4.26-1.4-3.65-.3,1.43.52,1.73,1.12,2.25Zm-91.13.28c.09-.38.4-.54.28-1.12h-.84c-.08.64.07,1.06.56,1.12Zm79.08.56c.85.43.74-1.45.28-1.41-.23.33-.37.75-.28,1.41Zm33.65,2.25c1.48,1.64,4.29.6,3.09-2.25-1.91-.59-2.84.45-3.09,2.25Zm-35.61-1.12c.96.21,1.09-1.07.28-1.12-.09.38-.4.54-.28,1.12Zm7.01.28c1.05-.3.8.7,1.68.56.06-.32.31-.44.56-.56-.18-1.04-.87-1.57-2.24-1.4v1.4Zm105.15-.84c-1.02,1.33,1.64.37,0,0h0Zm-98.42.56c-.28,0-.33-.23-.56-.28-.77.45.41.94.56.28Zm-97.02,3.65c.91-.21,1.78-.47,1.68-1.69-.68-2.04-2.93.21-1.68,1.69Zm115.81-2.53c-.22.06-.55,0-.56.28.22-.06.55,0,.56-.28Zm82.44.84c-.27-.48-.88-.62-1.4-.84-.43,1.02,1.03,1.56,1.4.84Zm-51.04.56c-.09.65.04,1.08.28,1.41,1.18.22,2.88-1.64,1.4-2.25.31,1.67-.76.89-1.68.84Zm-28.32-.28c.32,1.11.32-1.11,0,0h0Zm1.96,1.41c0-.56.76-.36.56-1.12h-.84c.05.42-.1,1.04.28,1.12Zm24.12,1.68c.86.28,1.38-2.07.28-1.96,0,.74.11,1.6-.28,1.96Zm-60.29-.28c.38.09.53.4,1.12.28.22-.19.63-1.57,0-1.68-.03.81-1.2.49-1.12,1.4Zm-58.89.56c-.02-1.2-.81-1.62-2.24-1.4-.42,1.59,1.28,2.09,2.24,1.4Zm139.37-.84c.33,1.11.33-1.11,0,0h0Zm.56,1.69c1.18.75,3.03.14,3.08-1.12-.94-1.25-3.31-1.02-3.08,1.12Zm-122.26,1.97c.69.04,1.35.04,1.68-.28-.01-1.11-.57-1.67-1.68-1.69-.4.38-.4,1.59,0,1.97Zm-10.09,0c.53-.06.62.31,1.12.28.32-.33.32-1,.28-1.69h-1.12c-.23.33-.37.75-.28,1.41Zm4.21.28c1.33.47,1.54-1.62.28-1.41-.23.33-.37.75-.28,1.41Zm125.62,0c1.49,0,.2,2.8,1.4,3.09.28-.94,1.06-2.6-.28-2.81.66-.36.52.04,1.4-.28v-1.12c-.89.33-2.21.22-2.52,1.12Zm-112.45,1.4v-1.4c-2.27-1.42-2.53,2.78,0,1.4Zm69.54-.28c.28,0,.33.23.56.28-.03-.44.04-.97-.56-.84v.56Zm21.31.56c-.05-.42-.68-.26-1.12-.28-.6,1.03,1.43,1.27,1.12.28Zm-120.86,4.49c1.71-.16,2.65-1.09,2.8-2.81-1.57-2.56-3.9-.1-2.8,2.81Zm-21.03-3.09v1.41c1.46.59,1.91-1.43.84-1.69-.05.33-.45.31-.84.28Zm40.1,2.53c.74,0,1.6.11,1.96-.28.28-1.69-.63-2.18-1.68-2.53-.62.39-.83,2.12-.28,2.81Zm126.47,1.69c1.27-.04,2.1-.52,2.52-1.41.21-1.42-.7-1.74-1.12-2.53h-1.96c-.05,1.94-.31,2.69.56,3.93Zm-120.86-1.12c.36.39,1.22.28,1.96.28.7-3.16-2.43-3.55-1.96-.28Zm156.47.28c-.45-.21.06-1.38-.84-1.12-.08,1.01-.07,1.94,1.12,1.69h.28v-.28c.23.15.46.29.84.28.47-.55-.21-1.66-1.12-1.69-.03.5.35.59.28,1.12l-.28-.14-.28.14Zm-168.81,0c.02-.17.04-.33.28-.28-.03-.34-.08-.66-.56-.56.04.33-.05.8.28.84Zm-2.81.84c.09-.38.4-.54.28-1.12h-.84c-.08.64.07,1.06.56,1.12Zm17.39,4.21c-3.56,5.23-5.09,12.51-10.94,15.45-.1.93-.65,1.4-1.12,1.97v1.97c-1.54,1.64-3.21,3.16-4.77,4.78-1.02-1.04-2.67-1.44-3.37-2.81-1.46.61-2.68-.86-4.49-1.12-1.71-.25-4.69.49-6.17.56-2.65.13-5.04-.71-5.89,1.4v.84c2.5,1.62,6.64,1.59,6.45,5.9-.38.19-.52.6-.56,1.12-1.19.4-2.65.53-3.93.84-2.25-1.74-3.58-3.59-5.33-5.62-.83-.96-1.92-1.63-2.53-2.53-1.42-2.09-2.12-5.54-2.24-8.43-.1-2.39.87-3.29,0-5.34-1.94,1.38-2.39,5.81-1.4,8.43.02,2.07-.49,4.11-.28,5.9.29,2.43,2.25,3.9,2.52,6.18,1.59.84,2.7,2.16,3.08,4.21,1.49.38,1.84,1.9,2.8,2.81,4.14,1.17,8.03,1.81,12.9,1.69,2.51-1.52,5.94-2.11,7.85-4.21.53-.06.62.32,1.12.28-.13-2.37,2.93-3.5,2.8-6.74,1.7-1.67,2.34-4.39,4.21-5.9v-2.25c1.83-.54,1.5-4.63,3.37-4.21.95,5.26-.82,10.23-2.24,14.05-.37,3.94-.51,8.11-1.4,11.52.35,2.5-.45,4.83,0,7.87.91,2.08,1.08,4.85,1.4,7.59.19,1.63-.32,4.08,1.4,4.5.83-1.86-.15-3.55.28-5.06.5-1.75,2.54-1.91,2.53-3.65-.84-.93-3.24-.32-3.36-1.97,1.42-3.91.69-8.15.56-13.2.3-.64.64-1.23,1.12-1.69.41-1.95.42-4.27.84-6.18.45-2.03,1.04-4.15,2.24-5.33,1.28.99.83,2.49,1.12,4.21.15.9.85,1.76,1.12,2.81.74,2.85,1.55,4.25,2.24,6.46,4.68,3.55,8.89,7.57,16.82,7.87.98-.96,1.64-1.97,3.08-2.81,1.45-.85,4.14-.83,3.09-3.37-2.26-.38-7.4,1.01-6.73-3.09.8-1.73,3.56-1.48,3.64-3.93-1.53-1.83-4.32-2.41-5.89-4.21-1.35-.24-2.79-.38-4.21-.56-1.1-.81-1.94-1.59-1.96-2.81-.4.91-1.46,1.16-2.8,1.12-.97.62-.58,2.61-2.24,2.53-1.49-.38-1.99-1.75-2.8-2.81v-2.25c-2.7-3.29-1.23-9.39-1.68-15.17.73-1.33,2.31-1.81,2.8-3.37.06-1.14.88-1.58.84-3.37.96-1.67,2.49-2.75,2.8-5.05-.53-.03-.2-.93-.84-.84-1.58,2.07-2.91,4.39-5.89,5.06Zm121.42-3.94c-.22.06-.55,0-.56.28.22-.06.55,0,.56-.28Zm1.68.28v.56c.69.44.82-.95.28-.84-.02.17-.04.33-.28.28Zm-140.21.84h.56v-.56h-.56v.56Zm167.97,1.97c.81.61,2.51.23,3.08-.28-.09-.65.04-1.08.28-1.4-1.14-1.27-3.97-1.04-3.37,1.69Zm-4.2-.84c.02-.17.04-.33.28-.28-.03-.34-.08-.67-.56-.56.04.33-.05.8.28.84Zm-157.87.28v1.41c1.53.67,2.75.95,4.49.28.67.26.74,1.13,1.96.84.17-.67.4-1.28.28-2.25-1.48-1.38-4.51-.94-6.73-.28Zm100.95,3.93c1.24-.82,1.55-2.57,1.68-4.49-.33-.32-.99-.32-1.68-.28-.88,1.86.61,3.03,0,4.78Zm58.89-1.69c.95-.29,1.5-2.08.84-3.09h-.84c-.43.57-.43,2.51,0,3.09Zm-44.02-1.12c.28-1.31-.49-1.57-1.69-1.41-.14,1.17.71,1.35,1.69,1.41Zm19.91-1.41c-.85.95,1.04.85,0,0h0Zm18.51,1.69c.74.08.92-.39.84-1.12-.17-.08-1.08-.7-1.12,0,.41.05.26.68.28,1.12Zm-162.92-.56c-.04,1.44.56,2.25,1.68,2.53.74-.48,1.41-1.03,1.12-2.53-.51-.43-2.29-.43-2.8,0Zm143.85,0c-.31.03-.44-.41-.56,0,0,.28.49.35.56,0Zm-27.76,3.65c1.49-.19,2.12-1.24,2.52-2.53-1.9-1.89-4.13.34-2.52,2.53Zm51.04-1.97h.56v-1.12h-.56v1.12Zm2.52-.28h.56v-.56h-.56v.56Zm3.37,1.69c1.31-.44.93.23,2.24.28.34-.8.23-1.86-.56-2.25-.59.62-1.32,1.11-1.68,1.97Zm-106.56.84c1.53.22,2.19-.43,1.96-1.97-1.67-1.55-3.8.58-1.96,1.97Zm39.26-1.4c1.16,1.3-1,4.91,1.68,5.06.86-1.29-.91-1.98-.84-3.37.79-.05,1.2-.49,1.12-1.4-1.08-.24-.44-.9-.84-1.41-.39.36-.02,1.48-1.12,1.12Zm38.98-.28c.82.41.82-1.25,0-.84v.84Zm-173.29,1.12c.59.16.8.7,1.68.56.68-.65.43-.91.28-1.97-1.21-.38-1.96-.08-1.96,1.41Zm169.65.56c.78-.43,1.52-.91,1.68-1.97-.97.23-1.08-.42-1.96-.28.03.81-.15,1.84.28,2.25Zm-57.2-.28v-.56c-.52-.93-1.37.84,0,.56Zm-79.92,0v1.41c1.49-.3,1.84-.02,3.09-.56.12.53-.38,1.69.56,1.4-.23-.97.42-1.08.28-1.97-.33-.13-.64-.3-.84-.56-.96-.21-.36,1.14-1.4.84-.39-.17-.04-1.08-.56-1.12-.07.49-.48.64-1.12.56Zm4.77,1.69c.47.56.75,1.3,1.68,1.4,1.48,0,1.79-2.39,1.12-3.65-1.39.3-2.63.74-2.8,2.25Zm6.17-.84c.04-.7.05-1.36-.56-1.4-.04.7-.05,1.36.56,1.4Zm144.13.56c.63,2.69,5.29,1.26,4.48-1.69-2-1-3.18,1.07-4.48,1.69Zm-132.36.84c.7.24,1.5.37,2.52.28,1.84-3.02-2.97-3.18-2.52-.28Zm43.46-1.4h.56c.01-.36.36-.39.28-.84h-.56c-.02.36-.36.39-.28.84Zm-94.78,2.53c1.07-.76-.51-1.4.28-2.81-.36-.02-.39-.36-.84-.28.28.94-.62,3.06.56,3.09Zm2.24-1.97c.08-.64-.07-1.06-.56-1.12.04.52.19.94.56,1.12Zm190.12-.56h.84v-.56h-.84v.56Zm-134.88.56h.56v-.56h-.56v.56Zm-.84.56c.02-.17.04-.33.28-.28-.03-.34-.08-.67-.56-.56.04.33-.05.8.28.84Zm37.58-.56c.33,1.11.33-1.11,0,0h0Zm97.86,1.68c.03-.4,1.23-1.46,0-1.4.37.7-.82,1.17,0,1.4Zm1.4.56c1.06.78,2.24-.25,3.64,0,.29-.8.29-1.17,0-1.97-2.16-.3-3.19.55-3.64,1.97Zm-44.3-.84v-.56c-.52-.93-1.37.84,0,.56Zm17.1,0h.84c-.04-.33.05-.8-.28-.84-.07.4-.46.47-.56.84Zm-155.63,2.53c.47-1.17.88-1.32,1.96-1.4.24-1.18-.93-.94-1.4-1.41.67,1.72-2.36,1.71-.56,2.81Zm9.54,0c1.54.13,1.96-.85,2.24-1.97-1.29-2.05-4.13.22-2.24,1.97Zm139.93-1.4c.95,1.33.22,2.9,1.12,3.93.47-.27.72-.78.56-1.68.97-.34,1.77-.86,1.68-2.25-.48-1.65-2.91-1.77-3.37,0Zm-155.07-1.12c-.77.51-.66,2.21-.28,3.09,1.28.2,4.05,1.48,3.93-.84-1.41-.55-2.02-1.91-3.64-2.25Zm-7.57,1.68c.73.08,1.2-.1,1.12-.84-.36-.02-.39-.36-.84-.28.06.53-.31.62-.28,1.12Zm15.42,0c-.03,1.44-.23,3.04,1.4,2.81,1.55-1.06.85-4.7-1.4-2.81Zm82.44,0c.68.18,1.44.57,1.4-.56-.69-.04-1.36-.05-1.4.56Zm-3.09,1.41c.67.45.45,1.8,1.96,1.4.5-.53.21-1.85.28-2.81-1.23-.7-1.81.5-2.24,1.41Zm88.61-1.12h.84v-.56h-.84v.56Zm-131.79,2.25c.61.23.96.73,1.96.56,1.09-1.15.99-3.17-1.4-2.81-.38.55-.27,1.61-.56,2.25Zm139.08-1.12c.2-.7-1.2-1.19-1.4-.56.54.12.7.61,1.4.56Zm-163.2,1.69h.84c.64-.23.77-1.73.28-2.25-1.4-.32-1.75,1.42-1.12,2.25Zm30,.56c1.04,0,1.93-.13,1.96-1.12-.52-2.46-3.71-.79-1.96,1.12Zm144.41-1.4c.71-.04,1.09-.41,1.12-1.12-.49.16-1.65-.34-1.68.28.39.07.32.62.56.84Zm-169.93,1.4c1.25.12,2.09-.16,1.96-1.4-.71-1.81-3.03-.26-1.96,1.4Zm108.24-1.68c-.68.94.94-.68,0,0h0Zm9.25,1.4c1.48-.29,1.52-.25,1.4,1.4,1.08-.06,1.24-.83.84-1.68.12-.65,1.24-.75.56-1.4-.8.7-2.79.2-2.8,1.68Zm15.98.28c.21-.64,1.05-1.75-.28-1.68-.39.36-.49,1.68.28,1.68Zm34.21-.28c.14,2.11.79,3.7,1.96,4.78.58-1.39,2.32-1.61,1.97-3.93-1.16-.58-2.49-2.18-3.93-.84Zm-21.59.84c-.27-.52.84-.94,0-1.12-.08.17-.7,1.08,0,1.12Zm2.53,1.12c.65.29.91.97,1.96.84.58-.64,1.36-1.08,1.12-2.53-1.47-.47-2.87.14-3.08,1.68Zm-33.93-1.4c-.29,1.22.58,1.29.84,1.97.81-.31,1.9-.35,1.96-1.4-.69-.98-1.97-.88-2.8-.56Zm39.54,2.25c1.09-.13,1.7-.73,1.68-1.97-1.33-1.67-3.12.79-1.68,1.97Zm-43.74-.84h1.12c.09-.65-.05-1.08-.28-1.4h-.84v1.4Zm-11.78.56c.88,1.35,3.3.13,2.8-1.68-.92.57-2.46.53-2.8,1.68Zm35.33.28c-.11-.73-.14-1.54-.56-1.97-.47.5-.41,2.06.56,1.97Zm9.53-.28c1.06.2,2.75-.41,1.96-1.12-.24.58-1.95.3-2.24,0-.02.49.06.88.28,1.12Zm-156.47.84c.09-1.12-.54-1.52-1.68-1.41-.56,1.04.6,2.01,1.68,1.41Zm148.06-1.12c-.24,1.66.16-1.13,0,0h0Zm-3.65.28v.56c.69.44.83-.96.28-.84-.02.17-.04.33-.28.28Zm-140.49,1.69c.76.35.7,1.09,1.68.56,1.44-1.97-2.01-3.31-1.68-.56Zm-19.35-.56h.84v-.56h-.84v.56Zm48.79,2.81c1.13-.28,1.72-1.09,1.68-2.53-1.55-1.26-2.62,1.3-1.68,2.53Zm-22.99-1.97c-.2.97.98,1.01,1.4.56.2-.97-.98-1.01-1.4-.56Zm-22.15,1.97v1.41c1.41-.19,2.36-2.15,1.4-3.09-.23.8-.41,1.65-1.4,1.68Zm158.15-1.4c-.17-.08-1.08-.7-1.12,0,.17.08,1.08.7,1.12,0Zm-102.63,2.53c.41-.41.41-1.84,0-2.25h-1.12c-.62.83-.27,2.56,1.12,2.25Zm-11.22-.84c0-.28-.49-.35-.56,0,.06.34.31.17.56,0Zm3.93,1.97h1.4c.1-1.04-.7-1.17-1.4-1.4-.2.87-.2.54,0,1.4Zm40.94,0c.85.43.74-1.45.28-1.4-.24.33-.37.75-.28,1.4Zm2.52-1.12c-1.02,1.33,1.64.37,0,0h0Zm-46.83.56c-.22.06-.55,0-.56.28.22-.06.55,0,.56-.28Zm72.63,1.12v.56c.69.44.83-.96.28-.84-.02.17-.04.33-.28.28Zm-65.05,1.4h.56c.31-.4.3-.68-.28-.84-.02.36-.36.39-.28.84Zm3.37,0c-.09,1.03.31,1.56.56,2.25h1.12c.38-.55.27-1.6.56-2.25-.75-.6-1.49-.6-2.24,0Zm137.12.28c.31,1.28,1.07,2.11,2.24,2.53.06-.22.23-.33.56-.28,1.4-1.96-1.79-4.37-2.8-2.25Zm-47.67.28c-.23,1.66.16-1.13,0,0h0Zm-99.83,1.41c.82.41.82-1.26,0-.84v.84Zm51.88.56c.02-.48-.22-.72-.56-.84-.4.41-.41,1.09.56.84Zm-35.05,4.22c.12-1.25-.47-1.78-1.4-1.97.05,1.07.4,1.85,1.4,1.97Zm52.16,0c.96.44,1.33-1.88.28-1.69-.32.33-.32.99-.28,1.69Zm78.79,1.4c1.12-.28,1.72-1.09,1.68-2.53h-.84c-.15.97-.75,1.49-.84,2.53Zm-51.04,1.12c1.29-.02,2.04-.57,1.96-1.97-1.53-.22-2.19.43-1.96,1.97Zm-27.48-1.41c.17.76.56,1.32,1.12,1.69.5-.52,1.66-.39,1.4-1.69-.45-.42-2.07-.42-2.52,0Zm80.2,2.53c-1.62-.48-3.42-.17-4.49,0,.37,2.34-.55,3.38-.56,5.34.48-.02.72.21.84.56,1.58-1.13,4.02-1.4,5.33-2.81-.28-1.41.07-3.44-1.12-3.93v.84Zm-132.07.28c.28,0,.33.23.56.28-.03-.44.04-.97-.56-.84v.56Zm75.43,3.37c1.02-.57,1.91-1.27,1.68-3.09-2.13-2.79-5.22,2.49-1.68,3.09Zm3.37-3.37c-.22.06-.55,0-.56.28.22-.06.55,0,.56-.28Zm-23.56,2.81c1.22,2.34,4.32-.43,2.8-2.53-1.35.43-2.54,1.01-2.8,2.53Zm27.2-1.96c-.24-.24-.8.2-.84.28-.27.49,1.03-.09.84-.28Zm8.13,2.53c.42-.42.45-1.23.56-1.97-.36-.01-.39-.36-.84-.28.34.87-1.07,2.14.28,2.25Zm2.8,2.53c.91-.21.99-1.25,1.96-1.4-.15-.88-.49-1.57-.84-2.25-2.47-.31-3.87,3.43-1.12,3.65Zm28.32,3.09c1.21-.19,1.72-1.08,2.8-1.4-.43-1.58.82-3.54-.28-5.34-1.46,1.58-5.48,4.19-2.53,6.74Zm-158.43-2.81c1.59-.06,2.12-3.16.84-3.65-1.33.66-1.57,2.19-.84,3.65Zm85.81-1.97c.08.57.76.55.84,1.12,1.21-.29,2.18-.81,1.96-2.53-1.13-.71-3.01-.13-2.8,1.4Zm-74.59,1.41c1.8.39,1.94-1.4,1.4-2.53-1.8-.56-2.06,1.52-1.4,2.53Zm87.21-1.69c.24,1.04,1.05,1.82,2.24,1.12.36-1.75-1.52-1.98-2.24-1.12Zm5.61,1.12c.33.13.63.3.84.56.93-.19,1.52-.72,1.4-1.97-.96-.69-2.67-.18-2.24,1.41Zm-18.79-1.41c-.25-.21-.8.17-.84.28-.39,1.06,1.4.2.84-.28Zm-111.88,1.97c.04-.7.05-1.37-.56-1.41-.04.7-.05,1.36.56,1.41Zm153.67-.28c.08-.58,1.24-.07,1.12-.84-.42-.74-2.1.27-1.12.84Zm-11.5.28c-.21,1.8.73,2.45,2.52,2.25,1.15-2.27-1.01-3.95-2.52-2.25Zm-139.93,0c.28,0,.33.23.56.28-.03-.44.04-.97-.56-.84v.56Zm66.18-.28c-.49.02-.87-.06-1.12-.28-.45.78,1.21.78,1.12.28Zm-75.43,3.09c1.76-.02,2.35-1.2,2.8-2.53-.44-.03-.22-.72-.84-.56-1,.69-1.05,2.32-1.96,3.09Zm169.09-.28c.22.06.55,0,.56.28,1.51.02,2.1-.89,1.96-2.53-1.64-1.19-3.88.44-2.53,2.25Zm-159.83-1.4c-.24,1.66.16-1.13,0,0h0Zm136.56,1.12h.56c0-.28.23-.34.28-.56-.36-.02-.39-.36-.84-.28v.84Zm51.32-.56c-.09.66-.44,1.05-.28,1.97,1.21.85,3.73.6,3.36-1.68-.5-.77-2.21-.66-3.08-.28Zm-64.21.28c-.77.85.85-.77,0,0h0Zm-104.88,2.53c1.7.23,2.33-1.24,1.68-2.53-1.85-.53-2.36,1.42-1.68,2.53Zm89.73-2.25c-.09-.23-.74-.34-.84,0-.19.65,1.1.61.84,0Zm4.21.56c.35-1.1-.66-.83-1.4-.84-.1.85.91.58,1.4.84Zm18.51-.56c.96,1.28,1.69,2.8,2.8,3.93.86.01,1.09-.6,1.68-.84,0-.66-.48-.83-.28-1.69-1.47-.28-2.66-2.12-4.21-1.4Zm-66.18.28c.32,1.11.32-1.11,0,0h0Zm-27.2.84h.84v-.84h-.84v.84Zm128.15-.28c-.09,1.12.54,1.52,1.68,1.41.41-.7.68-1.1.28-1.97-.87-.03-1.34.35-1.96.56Zm8.97,3.65c1.82-.33,2.87-1.43,2.52-3.93-2.19-.97-4.48,2.36-2.52,3.93Zm-158.15,0c-.53.32-1.35.33-1.12,1.4,1.05.03.8.32,1.68,0,.19-2.02.48-3.94-.28-5.34-.09,1.38-1.07,2.5-.28,3.93Zm-17.95-.28c1.04-.18.86-1.58.84-2.81-2.05-1.54-2.8,2.69-.84,2.81Zm117.21-3.09c-.87.91-2.04,1.52-3.64,1.69-2.2,2.2-4.74,4.05-5.33,7.87-.56,0-.36-.77-1.12-.56,1.65,3.11.5,7.72.56,11.24.91,1.34,2.25,2.25,1.96,4.78,2.04,1.84,3.27,5.53,7.01,4.78.84,1.04,2.82.92,3.37,2.25,1.72-.41,4.31.73,7.01.28.86.36,1.29,1.14,2.52,1.12,2.44-1.77,6.23-2.19,9.25-3.37-.03-3.95-2.17-6.14-1.68-9.83-.81-.87-1.15-2.22-1.4-3.65-2.33-.94-3.99-2.56-5.05-4.78-2.09-.19-4.26-2.21-6.17-.84-.45,1.76,1.14,1.47.84,3.09-.43,1.72-1.63,2.68-2.52,3.93-2.61.54-4.57.02-6.45-.84-1.95-2.76-3.76-6.09-2.8-10.96.77-2.69,3.95-2.97,4.49-5.9-.39.01-.62-.13-.84-.28Zm9.53,1.97c.37-1.23,1.41-.69,2.24-.28v-1.69c-1.11.12-3.12.79-2.24,1.97Zm24.68-.84c1.03.6,1.27-1.43.28-1.12.06.53-.31.62-.28,1.12Zm-85.81-.28c.32,1.11.32-1.11,0,0h0Zm120.58,3.09c.86.39,2.34.48,2.52-.56-.42-.61-.48-1.58-.56-2.53h-1.12c.57,1.45-.53,1.81-.84,3.09Zm-31.69-.56c1.32.83,3.52.72,3.37-1.41-1.16-1.05-3.36-.32-3.37,1.41Zm-147.78.56c1.45.17,1.55-1.32,1.12-2.25h-1.4c.03.81-.15,1.84.28,2.25Zm16.54-1.97c-.05,1.55.54,2.46,1.68,2.81.12-.35.36-.57.84-.56.25-1.28-.46-1.59-.56-2.53-.74,0-1.6-.11-1.96.28Zm117.21.56c.09.66.34,1.16.56,1.68,1.27-.23,1.96-1.03,1.96-2.53-1.39-.28-1.67.58-2.52.84Zm41.78-.84c-.22.06-.55,0-.56.28.22-.06.55,0,.56-.28Zm-115.81,1.97c.65.09,1.08-.05,1.4-.28.17-1.11-.63-1.25-1.4-1.41-.38.36-.38,1.33,0,1.69Zm-53-.56c.7.05.88-.43,1.12-.84h-1.12v.84Zm111.33.56c.82-.02,1.58-.1,1.4-1.12-.91-.07-1.35.33-1.4,1.12Zm-2.81.84c.21.73.89.98,1.96.84.25-.33.79-2.66-.28-2.53.01,1.14-1.91.33-1.68,1.68Zm-2.52-1.12c-.28,0-.33-.23-.56-.28-.77.45.41.94.56.28Zm59.17,3.09c.67,1.9,3.36,4.19,3.64,7.3.3,3.3-.46,7.66-3.92,8.15-2.41-.8-1.3-4.53-1.68-6.74-.36-.39-1.38-.12-1.4-.84-4.84.49-8.17,2.49-10.65,5.34-.2.39.13,2.66,0,3.93-1.27,2.48-1.69,5.8-3.93,7.3-1.47-1.34.2-2.95-.28-5.62.33-.98.6-2.02,1.12-2.81-.61-4.16-2.93-6.62-6.17-8.15-.95.92-1.35,2.4-1.4,4.21-1.39.76-1.97,2.33-3.92,2.53-2.73-.45-1.76-4.6-3.93-5.62-5.33,1.16-5.17,9.9-4.77,14.33,3.35,3.87,9.17,7.21,15.7,4.78,1.38-3.12,4.41-3.54,6.45-.84,6.93,1.1,12.55.81,18.79-.56,2.84-2.31,4.15-6.15,6.45-8.99-.26-2.61.71-3.97,1.4-5.62-.6-1.46-.77-3.35-.84-5.34-3.01-1.01-3.84-4.21-5.89-6.18-.7-.61-2.05-.57-2.52-1.4.39-.87.26-2.13-.56-2.53.07,1.81-.8,2.04-1.68,3.37Zm-136.56.56c1.68,0,3.31-.06,3.09-1.97-.72-.4-1.2-1.05-1.96-1.4-.58.92-1.28,1.71-1.12,3.37Zm65.62-.56c.93-.1,1.22-.84,1.68-1.4-.41-.15-.71-.42-1.12-.56-.47.38-.09,1.59-.56,1.97Zm54.96-.28c.74,0,1.6.11,1.96-.28v-1.41c-1.64-.48-2.52.85-1.96,1.69Zm4.21-1.12c.42-.05,1.04.1,1.12-.28-.37-.37-1.04-.37-1.12.28Zm2.8,1.69c.4,1.09,1.09,1.91.84,3.65h1.12c-.39-1.2-1.2-1.98-1.4-3.37.53-.5,1.24-.82,1.12-1.97-.33-.23-.75-.37-1.4-.28-.45.93.97,1.99-.28,1.97Zm-150.02,0c.31-.43.91-.59.84-1.4-.33-.23-.75-.37-1.4-.28,0,.75-.16,1.65.56,1.69Zm16.83,1.12c1.7.3,1.8-1,1.68-2.53-1.71-1.1-2.46,1.14-1.68,2.53Zm-41.22-1.69c.02-.48-.21-.72-.56-.84-.02.48.21.72.56.84Zm63.37,2.25c.54.12.51.8,1.4.56,1.07-.26,1.24-3.14,0-3.37-.19,1.21-1.65,1.15-1.4,2.81Zm72.91-1.4c.62-.12.27-1.54-.28-1.4-.22.19-.73,1.67.28,1.4Zm-133.2-.28c.05,1.8,2.33.89,3.37.56.35-2.5-2.27-.69-3.37-.56Zm191.8,2.25c2.21.34,1.14-1.34,1.68-2.25.44.03.22.72.84.56-.39-2.66-4.25-.29-2.52,1.68Zm-120.86-2.25c-.68.94.94-.68,0,0h0Zm67.02,3.37c.87-.26,1.54-.7,2.24-1.12.24-1.17-.54-1.33-.56-2.25-2.26-.24-2.52,2.03-1.68,3.37Zm-125.91-2.53c.45,1.39-.82,1.9-.28,2.53h1.4c.62-.31.2-1.68,1.4-1.41.15-.99-.24-1.45-.84-1.68-.26.49-.87.62-1.68.56Zm95.34-.28c.32,1.11.32-1.11,0,0h0Zm19.91,1.4c.69.04,1.35.04,1.68-.28.23-.79-.39-.73-.28-1.4h-1.68c-.04.69-.04,1.35.28,1.68Zm-7.57,1.12c-.12-.97.11-1.58.28-2.25-1.75-1.27-2.38,2.5-.28,2.25Zm24.39,0c.31.06.44.31.56.56,1.12-.28,1.68-1.12,2.53-1.69-.86-.34.41-1.07-.28-1.4-1.57.2-2.26,1.29-2.8,2.53Zm-92.26-.28c1.03,1.23,3.08.34,2.53-1.68-1.38-.74-2.32.42-2.53,1.68Zm-2.52-.56h.56v-1.12h-.56v1.12Zm-23.84.28c.74.08.92-.39.84-1.12-.76.02-1.35.64-.84,1.12Zm131.23-.28c-.21.86.77.54.56,1.41,1.06.03,1.51-.55,1.68-1.41-.37-1.31-1.59-.6-2.24,0Zm-128.99.56c.02-.48-.21-.72-.56-.84.03.44-.04.97.56.84Zm46.27.84c.3-.75.21-1.6-.84-1.69-.52.56-.42,2.07.84,1.69Zm121.14,2.53c-.29-1.61,2.19-2.77.84-3.65.1,1.42-1.96,2.14-.84,3.65Zm-149.46-2.81v1.68c1.05-.17,1.99-.44,1.96-1.68-.06-.32-.31-.44-.56-.56-.07.58-1.23.08-1.4.56Zm100.39,0c.08,1.14,1.24.8,1.4,0-.37-.36-1.03-.36-1.4,0Zm-77.96.84h.84c.05-.61-.23-.89-.84-.84v.84Zm39.82-.56c-.22.06-.55,0-.56.28.22-.06.55,0,.56-.28Zm-55.52.84c.33,1.11.33-1.11,0,0h0Zm65.34,1.97c.84.63.98.33,2.24.28.09-.66.44-1.05.28-1.97-.37-.47-1.59-.09-1.96-.56-.48.46-.7,1.18-.56,2.25Zm-53.28-1.69c.32,1.11.32-1.11,0,0h0Zm-71.79.28c-.04.69-.04,1.35.28,1.69,1.25.12,1.53-.72,1.4-1.97-.69-.04-1.35-.04-1.68.28Zm65.05,2.53c.75-.85.39-1.53.28-2.81-2.35-.53-2.01,2.91-.28,2.81Zm85.25-1.4c.18-1.82-2.23-1.64-2.81.28.81,1.88,2.69.95,2.81-.28Zm-135.44.28c.62-.12.27-1.54-.28-1.4-.22.19-.73,1.67.28,1.4Zm17.67,0c-.05,1.09.44,1.61,1.4,1.69.49-.26.97-.52.84-1.41-.22-.06-.32-.24-.28-.56-.74,0-1.6-.11-1.96.28Zm95.34,1.69c1.47.57,1.57-2.23.28-1.97.22.97-.42,1.08-.28,1.97Zm44.59-.84c.13-.88-.24-1.25-1.12-1.12-.13.88.24,1.25,1.12,1.12Zm-166.85,1.12c.59,2.73-.94,5.05-.56,7.58.15,1.03.95,1.75,1.4,2.81.17.4-.12.99,0,1.41.19.64.92,1.12,1.12,1.68.38,1.09.3,2.14.84,3.09,2.78,1.05,5.02,2.65,7.29,4.21,1.4.74,3.19-.01,5.05.28.73.11,1.43.79,2.24.84,1.7.1,3.74-.29,5.61-.28,1.82.01,3.84.45,4.77-.84-.27-1.16-1.15-1.92-1.4-3.37-.54-3.06.52-6.71,1.12-8.99-2.23-2.17-5.87-2.93-8.13-5.06-3.45-.23-7.04.1-10.1-.28v1.97c6.12.75,4.23,9.96-1.12,7.3-2.59-1.29-4.87-3.55-5.61-5.9-.05-3.05,1.49-5.5.28-8.15-1.51-.02-2.08.92-2.8,1.69Zm41.78.56c.86.52,1.26-.25,1.96.28.25-.59.85-.83.84-1.68-.92-1.12-3.21-.47-2.8,1.4Zm9.25-1.12c.02-.17.04-.33.28-.28-.03-.34-.08-.67-.56-.56.04.33-.05.8.28.84Zm12.9,1.4c.36.39,1.22.28,1.96.28.13-1.01.72-1.36.28-2.25-1.4-.49-2.33.24-2.24,1.97Zm-48.23-.28c1,.06,1.47-.4,1.4-1.4-.33-.32-.99-.32-1.68-.28-.33.84-.08.96.28,1.68Zm5.61-.28c.54.4.8,1.07,1.68,1.12.27-.29.55-.57.84-.84.3-1.05-.7-.8-.56-1.68-1.07.05-1.85.4-1.96,1.4Zm46.27,4.5c-.15.5-.14,1.17-.56,1.4-1.07,1.27-4.7,1.98-5.61.28-.33-.7-.41-1.65-.56-2.53-.48.02-.72-.22-.84-.56-2.67-.29-4.39,1.73-6.45,1.12-.19,1.89-2.1,1.94-2.52,3.93-.46,2.18.42,5.67,0,8.15-.16.99-1.16,1.44-.84,2.53,1.38,1.24,3.79,1.45,5.89,1.97.32.61.72,1.15.56,2.25,1.28.35-.03-1.9.84-1.97,5.7.38,6.14-4.53,10.94-5.05,1.82-1.4.86-3.83,3.37-4.49-.12-2.66.25-3.11,1.12-4.78.09-2.31-.33-3.54.28-5.06-.83-.85-1.04-2.33-1.96-3.09-1.14,2.04-1.27,5.1-3.64,5.9Zm-27.76-5.34c.32,1.11.32-1.11,0,0h0Zm37.29,1.97c1.25.23,1.55-.5,1.68-1.4-.52-.22-1.03-.47-1.68-.56-.4.38-.4,1.59,0,1.97Zm-19.35-.56c-.06-.5.28-1.41-.56-1.12-.08.64.07,1.06.56,1.12Zm47.11-.56c.99-.49.69.19,1.68.28.27-.79-1.82-1.38-1.68-.28Zm3.09.84c.01-.48-.22-.72-.56-.84-.4.41-.41,1.09.56.84Zm31.69,0c.32,1.11.32-1.11,0,0h0Zm-141.61.84h-1.12c-.45,1.31,1.45.97,1.12,0Zm77.39.56c.32,1.11.32-1.11,0,0h0Zm-80.76.56c-.04.69-.04,1.35.28,1.69.66-.09,1.16-.34,1.68-.56,0-.75.16-1.66-.56-1.69-.07.58-1.23.08-1.4.56Zm111.6.28c-.31.03-.44-.41-.56,0,0,.28.49.35.56,0Zm-76.27,11.52c.85,1.86,1.88,3.55,2.24,5.9,1.95,2.45,5.18,3.61,10.1,3.09,1.12-.93,2.16-1.95,3.64-2.53,2.66-5.67,1.95-12.05-1.68-16.29-1.29-.58-2.65-1.09-4.77-.84-.53,2.56-1.69,4.49-4.49,4.78-1.98-.12-1.71-3.85-3.37-3.37-.84,2.81-1.83,5.47-1.68,9.27Zm74.03-9.55c.33,1.11.33-1.11,0,0h0Zm-95.34,1.97c.09-.38.4-.54.28-1.12-.96-.21-1.09,1.07-.28,1.12Zm72.35,1.12c.61.05.13-1,.28-1.4h-.84c-.29.27-.26,1.45.56,1.4Zm21.59,1.4c.87.6,2.88.39,2.52-1.12-.4-1.47-3.32-1.05-2.52,1.12Zm90.57-.84h.84c.05-.61-.23-.89-.84-.84v.84Zm-144.41.84c-.22.06-.55,0-.56.28.22-.06.55,0,.56-.28Zm51.04,3.65c1.29.11.65-1.2,0-1.41v1.41Zm-22.15-.56c-2.67-.24-1.19,3.67-2.53,4.78,1.34.35,1.06,1.42,2.8.84.98-1.83.96-4.07-.28-5.62Zm6.73,2.53c.89.24.87-.44,1.4-.56.03-1.06-.55-1.51-1.4-1.69-.41.41-.41,1.84,0,2.25Zm109.08-1.4v1.4c1.3.8,2.92-.17,2.52-1.97-1.07-.6-1.51.35-2.52.56Zm-199.37,0c-.11,1.05.22,1.65,1.12,1.68.76-.6.81-.84.56-1.97-.69-.04-1.35-.04-1.68.28Zm114.13,3.65c1.25-.16,2.73-.08,2.8-1.4-.25-2.84-4.46-.85-2.8,1.4Zm-3.92-1.97c-.24.7-.37,1.5-.28,2.53,1.47.24,2.03-1.88,1.4-2.81-.05.42-.68.26-1.12.28Zm85.25,4.5c1.5,1.23,4.02-.12,3.08-2.25-1.8-.02-3.42.13-3.08,2.25Zm-83.56-1.69c-.68.94.94-.68,0,0h0Zm10.38,1.69c.08.57.76.55.84,1.12,1.53.22,2.19-.43,3.08-.84-.11-1.67-1.98-1.58-3.36-1.97.13.88-.86.64-.56,1.69Zm-45.71-.84c-.67,1.17-.18,3.27.28,4.21,2.75.77,3.6.2,5.89-.56-1.35-1.86-2.55-4.96-6.17-3.65Zm15.98,2.81c1.01-.07,1.08-2.08.56-2.81-1.61-1.12-2.45,2.64-.56,2.81Zm41.22-1.68c.73.08,1.21-.1,1.12-.84-.54.12-1.21.1-1.12.84Zm11.78,1.12c1.13.27,1.13-1.68,0-1.4-.53.54.17.51,0,1.4Zm-12.9,4.22c1.17.14,1.9-.16,2.52-.56-.07-1.24-.45-2.17-.28-3.65-2.44-1.93-4.05,2.6-2.24,4.22Zm-126.19-1.97c1.2-.02,1.62-.82,1.4-2.25-2.27-.9-2.66,1.07-1.4,2.25Zm98.15,2.81c2.99-.14,2.09-3.31,1.4-5.34h-1.12c-.13,1.62-1.12,3.66-.28,5.34Zm45.99-3.37c.43-.43.5-1.93-.56-1.69,0,.75-.16,1.66.56,1.69Zm34.77,1.69c.69-.43,2.18-.07,2.8-.56-.45-2.03-1.32-2.99-3.37-2.81-.51,1.1.39,2.14.56,3.37Zm-74.87-1.97c-.2,2.26,0,4.12,2.53,3.65,1.1-.68.65-2.91,1.12-4.21-1.56-.86-2.51-.29-3.64.56Zm5.89,3.93c.7.24,1.5.37,2.52.28.79-1.36,1.65-2.66,1.68-4.78-2.26-1.17-4.61,1.26-4.21,4.49Zm56.64-3.65c.08-.64-.07-1.06-.56-1.12-.35.33-.22,1.17.56,1.12Zm22.15,1.69c.9.63,2.42-.06,3.08-.56v-1.69c-1.64-1.48-4.37.1-3.08,2.25Zm-19.91,0c1.21.95,3.34.41,3.65-1.12-.47-2.13-4.27-1.7-3.65,1.12Zm-75.99-.84c.07-.91-.33-1.35-1.12-1.4-.07.92.33,1.35,1.12,1.4Zm45.14,1.41c2.14.27,3.31-.43,3.37-2.25-1.52-1.16-3.91-.31-3.37,2.25Zm-87.21-.28c.79.23.73-.4,1.4-.28.12-1.25-.16-2.09-1.4-1.97-.18.64-.56,1.7,0,2.25Zm37.29,2.25c2.27-.15,2.4-5.03-.56-4.5-.98,1.76,1.37,2.91.56,4.5Zm45.15-1.68c.57-.46.65-1.41.56-2.53-2.79-1.88-3.52,2.99-.56,2.53Zm25.23,0c.85-.18,1.62-.44,1.68-1.41-.91-2.31-3.72.02-1.68,1.41Zm-91.41,2.25c.92-.86,1.17-2.38,1.12-4.22-.79.23-.73-.4-1.4-.28.23,1.48-1.06,3.69.28,4.5Zm81.6-4.22c-1.14,1.21-.29,3.62,1.96,3.65-.02-.48.22-.72.56-.84.19-1.87-.81-2.56-1.96-3.09-.06.22-.23.33-.56.28Zm15.42,1.12c-.11-.68.51-.61.28-1.4-.83.1-1.38.49-1.68,1.12.53.03.19.93.84.84l.14.14.14-.14c.24.23.17.77.56.84.22-.25.3-.63.28-1.12h-.56l.14-.14-.14-.14Zm-168.53-.28h.84v-.84h-.84v.84Zm65.9,1.97c.77-.88,1.2-1.01.84-2.53-1.99-1.42-2.85,2.44-.84,2.53Zm-56.92.84c.98.69,1.93.48,2.8-.28.61-3.88-3.35-2.98-2.8.28Zm17.1.28c.84-1.51-.52-2.96-1.68-3.37-.97,1.34-.42,3.56,1.68,3.37Zm95.62-1.69c.35,1.06.84,1.97,2.52,1.69,1.47-2.81-1.86-4.56-2.52-1.69Zm67.58.28c.91.07,1.35-.33,1.4-1.12-.4-.07-.47-.46-.84-.56-.25.5-.78.71-.56,1.69Zm-174.7-.84c-.22.06-.55,0-.56.28.22-.06.55,0,.56-.28Zm3.37,1.4v-1.4h-.84c-.79.82-.37,2,.84,1.4Zm13.74,1.68c1.54-.12,1.59-1.77.84-2.81h-.84c-.55.63-.24,2.11,0,2.81Zm139.08-2.25c-.08.74.1,1.21.84,1.12-.12-.68.51-.61.28-1.41-.49-.02-.87.06-1.12.28Zm-64.49,0c-.22.06-.55,0-.56.28.22-.06.55,0,.56-.28Zm45.99,1.69c.42-.42.03-1.45-.84-1.41-.58.58,0,1.42.84,1.41Zm-97.3-.56c.32,1.11.32-1.11,0,0h0Zm72.91.28c.32,1.11.32-1.11,0,0h0Zm37.29.56c.32,1.11.32-1.11,0,0h0Zm10.37,0c-.22.06-.55,0-.56.28.22-.06.55,0,.56-.28Z"/>
  <path class="cls-10" d="m170.06,94.11c.04.33-.06.5-.28.56v-.28h-.28c-.04-.33.06-.5.28-.56v.28h.28Z"/>
  <path class="cls-10" d="m165.3,102.25h.28v.28h-.28v.28c-.36-.06-.37-.84,0-.84v.28Z"/>
  <path class="cls-10" d="m224.46,133.72c.07.72.48-.39,1.12,0-.03,1.56-.6,2.59-.56,4.21-.27-.15-.93-1.26-1.12-.56-.44,1.66,1.47.96,1.96,1.68-.87,3.1,1.04,7.94-1.4,9.83.62,2.26,1.47,4.55,1.4,7.02-.05,1.74-.97,3.63-.84,5.34.06.79.66,1.24.84,1.97.33,1.36-.1,2.91.56,4.21-.21.73-.22,1.65-.84,1.97,1.2,5.16-.3,11.28.28,16.85.1,1,.56,1.83.56,2.81,0,.91-.46,1.7-.56,2.53-.15,1.2.28,2.42.28,3.65,0,.46-.54.88-.56,1.41-.02.51.59,1.02.56,1.4-.04.66-.59,1.11-.56,1.69.08,1.5.74,2.96.84,4.49.07,1-.34,2.02-.28,3.09.04.78.56,1.53.56,2.25,0,.61-.45.53-.56,1.12-.19.99.72,2.43-.28,3.65.93,2.57.99,4.54.84,7.87-.94,0-2.39-.32-3.37.84-3.09-.91-6.59,3.01-9.53.56-2.03,1.67-5.87.87-9.26,1.12-2.6.2-6.56,1.43-8.69-.28-2.12.65-4.52.99-6.73,1.12-3.76.23-7.55.22-11.21.28-.56,0-1.34-.35-1.96-.28-1.74.19-3.05,1.19-4.77,1.12-.77-.03-1.63-.54-2.52-.56-1.35-.03-3.1-.04-4.77,0-.7.02-1.34.58-1.96.56-1.61-.05-3.17-.83-4.77-.84-1.28,0-2.59.56-3.93.56-.9,0-1.91-.3-2.8-.28-.73.02-1.5.5-2.24.56-1.33.11-2.67-.59-3.93-.56-1.29.03-3.87,1.58-5.33-.28-2.09.72-5.94.77-8.69.56-.58-.04-1.45-.58-1.96-.56-2.25.11-5.11,1.93-6.73-.84-3.4,1.82-10,1.46-15.42,1.4-2.75-.03-5.52-.85-8.13-.56-.71.08-1.55.52-2.24.56-2.01.11-4.59-.22-7.01-.28-3.3-.08-6.2-.27-9.82-.28-3.55-.01-7.21,1.35-10.09-.28-1.97.86-3.47.51-6.17.56-1.3.03-3.11.39-4.2.28-.69-.07-1.25-.55-1.96-.56-4.58-.07-9.94-.05-15.14,0-4.84.05-9.66.64-14.3.28-2.54-.19-5.07-.84-7.57-.84-6.43-.02-12.8,2.19-18.51-.28-.91-14.12.19-28.1.56-43.26-1.43-2.89-1.9-8.3-.56-12.08-.28-8.53.28-17.93.28-26.97,0-2.96-.51-5.96-.56-8.71-.05-2.74.56-5.41.56-8.15.01-11.48-1.52-22.97,0-33.43-1.03-4.87-.34-10.93.56-16.01-.56-1.02-1.33,1.55-1.68,0-.4-2.22.16-5.8.84-7.87.3-1.05-.7-.8-.56-1.69,1.36-7.46.17-17.86.56-25.84.09-1.89.5-3.68,1.4-5.06-.76.15-.9-2.48-.84-3.65.07-1.36.7-2.92.84-3.93-1.41-2.76-.59-7.56-.56-11.8.11-1.23-.8-1.44-.84-2.53C2.21,9.38.66,1.93,4.62,0c8.18.13,17.59-.26,26.64.84,3.34-.93,8.85-.38,12.06-.56,1.62-.09,2.55.13,4.21.28,1.97.17,4.08-.04,5.89.28,2.26.41,4.23.94,6.17-.56,1.85-.02,3.87.13,5.33-.28,3.66,1.59,7.82,1.13,12.06,1.12,4,0,8.06.98,12.06.84,2.08-.07,3.96-.32,6.45-.28,7.62.12,15.24-1.35,21.59,0,8.87-.98,16.69.94,24.68-.84,1.09-.15,1.15.72,1.96.84,7.45-1.15,16.7.44,23.55-.84,7.19.67,13.05,1.88,19.63,0,2.49,1.69,5.04.37,8.13.84,1.31.04-.31.41,0,1.12,1.76.16.39-1.09,1.4-1.69,5.21-1.21,11.68,1.64,16.83-.56,1.43-.12,2.19.43,3.08.84,2.61-1.7,6.64-.51,8.41,1.41.92,4.96.18,10.45,1.4,15.45-1.45,4.52-.18,13.41-.84,19.1-.3,2.58.3,5.18.28,7.58-.04,3.46-1.07,6.65.56,8.99-.41,3.42-1.75,7.48-.28,10.39-2.26,5.02.37,11.43-1.12,16.57.94,2.04,1.12,5.06,0,7.02.83,4.19.82,9.8-.28,13.77,1.58,4.49-.1,9.53,1.12,13.76-1.28,5.84,1.41,12.79-.84,17.98.05.24-.11.27-.28.28Zm-3.37-118.83c-.99-2.45.5-6.27-.84-8.71-1.8-.75-3.06.16-4.21.84-1.7-2.89-10.89.01-12.9-2.25-.66.09-.16,1.33-1.12,1.12-7.53.1-16.21.21-23.27,0-.54-.3-.39-1.29-.84-1.69-.69.37.5.85-.28,1.12-6.66.76-13.16.11-19.35.28-1.04.03-2.05.54-3.08.56-.97.02-1.77-.52-2.8-.56-1.87-.07-3.8.6-5.61.56-1.42-.03-2.8-.55-4.21-.56-.5,0-.88.51-1.4.56-2.01.18-3.52-.32-5.33-.56-1.03.19-2.13.3-3.09.56-4.35-1.33-8.81,1.21-13.46.84-3.27-.96-8.44-.83-11.22,0-1.13.19-.69-1.18-1.68-1.12-.35,1.5-3.32-.34-4.77.84-2.13-.57-4.07-.52-6.45-.28.54-.51-.24-.95-.56-1.4.13,1.07-.12,1.75-.84,1.97-2.21.24-3.54-.39-4.77-1.12-3.72.48-7.85.82-10.94-.84-5.4,1.43-10.86-.79-15.98.56-.37-.56-1.83-.04-1.4-1.41-1.63,1.64-5.07,1.47-8.13,1.69-1.9-1.26-5.59.22-8.69-.28-.65-.11-1.02-.5-1.68-.56-5.13-.47-10.62,1.12-15.14-.28-6.22-.46-14.2-.51-19.63,1.97-1.42,12.88-.56,25.85-.84,38.49-.1,4.75-.81,9.72,0,14.33.07.82-.63.86-.56,1.69,1.3,13.71-.67,23.53.56,37.36-1.58,6.23.85,16.25-.56,23.6.88,2.21-.1,4.64,0,7.02.05,1.14.57,2.21.56,3.37-.04,3.69-1.05,7.44-1.12,11.24-.04,1.82-.09,3.72,0,5.62.15,3.08,1.03,5.87-.28,8.43,1.74,1.21.9,3.37.84,5.62-.04,1.54.32,3.1.28,4.49-.04,1.33-.56,2.61-.56,3.93,0,.86.51,1.57.56,2.53.07,1.3-.53,2.58-.56,3.93-.08,3.81.34,7.88,0,11.8-.7,8.02-.5,17.77,1.12,25v3.37c.48.64,1.04,1.21,1.68,1.69,5.01-1.12,10.39,1.08,14.58-.28.49.63,1.69.55,2.52.84,4.84-1.56,10.28.88,15.42.28.79-.09,1.2-.54,1.96-.56,4.84-.11,9.69,1.91,14.02.28.89-.05.94.75,1.96.56,1.77-.95,4.14-.32,6.17,0,2.45-.99,5.51-.7,8.97-.56,5.09.2,11.52-.26,16.83.56,1.35-.1,2.55-1,3.93-1.12,3.19-.29,6.51.85,9.81.84.64,0,1.46-.54,2.24-.56.62-.02,1.15.35,1.68.28,1.28-.17,3.48-.72,5.89-.56.69,1.24,1.88.88,2.52,1.68.89-.63,1.63-1.12,2.8-1.12.69,0,1.06.37,1.68.28.69-.1,1.27-.54,1.96-.56,4.28-.16,9.16,1.14,13.46,0,.87,1.2,3.05-.49,3.93.84,4.07-1.47,9.06-.13,13.46-.56,3.04-.3,6.12.24,9.25.28,1.22.02,2.4-.51,3.64-.56,1.13-.04,2.21.32,3.37.28,1.65-.05,3.39-.53,5.05-.56,1.9-.04,3.77.63,5.61.56,3.9-.16,7.96.04,12.62-.28,3.96-.27,7.9.41,11.5-.56,3.55,2.19,7.28-1.32,11.22-1.4,1.11.29.96,1.85,2.8,1.4.04-.33.51-.24.84-.28.7-3.3-.28-7.78-.28-11.8.03-.53.93-.2.84-.84-.85-1.64-.57-4.21,0-5.9-.5-3.31-.96-6.62-.56-10.11.04-.33.51-.24.84-.28-1.63-2.72.06-7.24-1.68-9.55.96-1.89.14-4.53.56-6.46.72-.44,2.08-1.29,1.4-2.25-1.09-1.29-1.07.83-1.96.28,0-1.87.51-2.7-.56-3.65.76-.56,1.23-1.39,1.4-2.53-.08-1.41-.9-2.09-1.12-3.37,2.96-2.12-1.36-8.04,1.68-10.67-1.34.41-.7-1.18-.84-1.97-.16-.77-.7-1.17-.84-1.97,1.59-3.16,1.1-6.22.84-10.39,2.05-2.41.54-6.04.28-9.55-.2-2.65.62-5.51-.56-7.87,2-3.03,1.25-8.48.56-10.96,1.04-5.43-.21-10.48.56-16.01.15-1.32,2.34-1.23,1.4-2.81.45-1.11-1.21-.1-1.12-.84-.4-1.19-.11-3.07-.56-4.21,2.06-4.52-.5-11.69,1.12-16.57-.94-3.01-1.46-9.29-1.12-13.76.24-3.14.95-6.04.56-8.71-.25-1.7-1.16-2.96-.56-5.34.72-.31.98-1.08,1.4-1.69-1.07.13-1.75-.12-1.96-.84.76-1.98-.59-4.33.56-5.34.71.89,2.38,1.15,2.8-.28-.5-1.19-2.64-.73-2.8-2.25.99-2.12,1.19-4.82.56-7.87.67.16,1.3.43,1.4-.56-.63-1.03-1.3.99-1.96,0-.08-2.61.43-4.63.56-7.02l.14.14.14-.14c.54-.12,1.21-.1,1.12-.84h-1.12l-.14-.14-.14.14Zm-19.91-10.11c.32,1.11.32-1.11,0,0h0Zm20.75,71.63c.74.08.92-.39.84-1.12-.74-.09-.72.59-.84,1.12ZM3.78,116.86c.32,1.11.32-1.11,0,0h0Zm217.88.84h.84c.05-.7-.43-.88-.84-1.12v1.12Zm.56,9.27c-.22.06-.55,0-.56.28.22-.06.55,0,.56-.28Zm-.84,5.05c1.55-.09.79-1.41,1.12-2.25h-.84c.2,1.04-.48,1.21-.28,2.25Zm2.8,4.5c0-.28-.49-.36-.56,0,.06.34.31.17.56,0Zm-2.24,17.98c-.12-.54-.1-1.21-.84-1.12-.08.74.1,1.21.84,1.12Zm.84,24.16c.7-.54.2-2.25-.56-2.25.23.7-.55,2.42.56,2.25Zm-219.56,1.4h.56c.01-.36.36-.39.28-.84h-.56c-.02.36-.36.39-.28.84Zm220.96,19.94c-.22.06-.55,0-.56.28.22-.06.55,0,.56-.28Zm-106.84,23.6c.07-.4.46-.47.56-.84-.17-.02-.33-.04-.28-.28h-.56c.05.42-.1,1.04.28,1.12Z"/>
  <g>
    <path class="cls-7" d="m209.6,21.91c.09-.19.17-.39.28-.56"/>
    <path class="cls-8" d="m169.5,74.72c.18-.29.38-.55.56-.84"/>
    <path class="cls-2" d="m202.45,28.51c.18-.1.34-.22.56-.28"/>
    <path class="cls-6" d="m158.43,41.15c.15.03.22.16.28.28"/>
    <path class="cls-3" d="m108.51,56.89v-.84"/>
    <path class="cls-7" d="m110.34,94.11c-.19.09-.39.17-.56.28"/>
    <path class="cls-6" d="m156.46,47.33c.1.18.22.34.28.56"/>
    <path class="cls-3" d="m196.28,52.95v-.56"/>
    <path class="cls-8" d="m132.77,56.18c-.16-.33-.14-.83,0-1.12"/>
    <path class="cls-9" d="m214.51,61.94c0-.29.06-.5.14-.7"/>
    <path class="cls-7" d="m213.53,82.87c.09-.19.17-.39.28-.56"/>
    <path class="cls-3" d="m104.45,85.68c.18.1.46.11.7.14"/>
    <path class="cls-7" d="m108.93,93.55c.09-.19.17-.39.28-.56"/>
    <path class="cls-9" d="m169.22,94.95c.26-.11.39-.36.56-.56"/>
    <path class="cls-5" d="m169.78,94.11c.24-.29.42-.58.7-.7"/>
    <path class="cls-3" d="m165.3,102.54c.08.2.23.33.42.42"/>
    <path class="cls-7" d="m165.3,102.25c.09-.19.17-.39.28-.56"/>
    <path class="cls-4" d="m214.37,126.98c-.13-.27-.22-.5-.28-.7"/>
    <path class="cls-6" d="m96.17,126.83c.12.26.29.45.56.56"/>
    <path class="cls-1" d="m181.14,213.64c.12-.26.29-.45.56-.56"/>
    <path class="cls-1" d="m221.24,15.87v-1.12"/>
  </g>
</svg>