<?xml version="1.0" encoding="UTF-8"?>
<svg id="Layer_1" data-name="Layer 1" xmlns="http://www.w3.org/2000/svg" viewBox="0 0 226.77 226.77">
  <defs>
    <style>
      .cls-1 {
        stroke-width: .33px;
      }

      .cls-1, .cls-2 {
        fill: none;
        stroke: #000;
        stroke-linecap: round;
      }

      .cls-1, .cls-2, .cls-3 {
        fill-rule: evenodd;
      }

      .cls-2 {
        stroke-width: .31px;
      }

      .cls-3 {
        stroke-width: 0px;
      }
    </style>
  </defs>
  <path class="cls-3" d="m226.23,1.41c.08,1.99.69,3.84.51,5.66-.13,1.38-.89,2.5-1.03,3.86-.17,1.6.31,3.01.26,4.63-.03,1.03-.45,2.09-.51,3.09-.44,6.48-.17,12.61-.26,18.52-.04,2.87-.27,5.7-.26,8.49,0,2.27.6,4.46.52,6.69-.13,3.44-.52,6.9-1.03,10.29-.3,1.16,1.44.28,1.03,1.54-.66,1.06.15,3.59-.77,4.37-.25.94,1.25.12.77,1.29.09,1.12-.62,1.44-.77,2.31.75,2.25.33,5.67.26,8.75-.08,3.4,0,7.46,0,11.83,0,2.21.21,4.28.26,6.43.05,2.4-.11,4.92-.77,7.21.87,2.86.03,7.24.25,10.03,0,2.99.44,6.5-.51,9.78.99,2.96.42,6.69.51,9.52.1,2.93.68,5.88-.51,8.23,1.73,2.34.22,6.1.26,9.52,0,.44.41.52.51,1.03.15.75.01,2.2,0,3.35-.03,2.41-.01,4.79,0,7.2.03,4.49-.35,9.04-.51,13.38-.1,2.53.48,4.95.51,7.46.02,1.39-.2,2.93-.26,4.37-.04,1.09.87,2.61-.51,3.34,1.26,2.75.88,7.23,1.03,10.29.06,1.2.47,2.41.52,3.6.08,2.16-.3,4.61-.26,6.95.08,4.26.92,8.21-1.29,10.8-5.78,1.08-12.17.12-18.77,0-5.48-.1-10.83,1.13-15.42.26-8.12.45-15.55.94-22.62.77-1.22-.03-2.64-.24-3.86-.26-.52,0-2.18,1.19-2.83-.26-1.37,1-3.21-.06-4.37,1.03-4.78-.51-10.29-.8-14.14,0-8.1-.75-16.48-.17-25.19-.26-2.73-.03-5.71.16-8.23-.52-9.08,1.37-19.36-.77-29.05-.26-.99.05-1.83.57-2.83.51-2.46-.13-5.45-.55-8.48-.51-.97,0-1.87.48-2.83.51-1.12.04-2.44-.22-3.6-.26-9.5-.28-18.96-.13-28.79-.26-10.16-.13-20.17-.41-30.85,0-.79-1.19-2-1.94-2.31-3.6.57-4.49.45-9.35.26-14.67-.02-.68-.25-1.57-.26-2.31-.03-2.76.44-5.44.52-8.23.13-5.24-.72-10.63-.26-15.95.45-5.16,0-12.34.26-18.52.26-6.06.33-11.61.51-17.75.04-1.28.49-2.58.52-3.86.04-1.73-.45-3.43-.52-5.15-.06-1.6.31-3.19.26-4.89-.08-2.77-.59-5.73-.51-8.49.03-1.14.46-2.17.51-3.34.2-4.78-.43-9.73-.26-14.66.14-4.14.7-8.24.77-12.35.08-4.48-.5-9.22-.52-13.63,0-1.8.36-3.46.26-5.15-.1-1.7-.71-3.42-.77-5.14-.15-4.2.51-8.36.51-12.61,0-3.57-.51-7.24-.51-10.8,0-3.44.31-6.7.26-10.03-.07-4.91-.28-9.43-.26-15.18,0-1.72.49-3.41.51-5.15.04-3.2-.88-6.35-.77-9.52.74-.8.95-2.14,1.8-2.83,7.03-1.1,14.21.1,21.34,0,2.07-.03,3.98-.24,6.17-.26,1.91-.02,3.98-.51,5.91-.51,1.25,0,2.63.47,3.86.51,5.77.22,11.36-.25,17.22-.26,4.86,0,9.92.55,14.65.26.96-.06,1.9-.48,2.83-.51,1.55-.06,3.11.44,4.63.51,7.33.38,14.47-.46,21.59-.51,7.6-.06,16.48-.15,24.68,0,2.7.05,5.4.71,7.71-.52,3.38.54,7.03,1.06,10.54.77.96-.08,1.87-.46,2.83-.51,1.98-.11,3.91.35,5.91.26,1.09-.05,2.21-.46,3.34-.52,1.7-.08,3.63.49,5.4.52,1.35.02,2.56-.52,3.86-.52.75,0,1.55.44,2.31.52,4.63.43,8.99-.61,13.37-.77,1.39-.05,2.61.46,4.11.51,2.01.07,4.18-.76,6.17-.77,1.4-.01,2.76.56,4.11.51,1.04-.04,2.03-.42,3.09-.51,5.24-.49,10.87.61,16.2,0,1.76-.2,4.48.11,6.94.26,2,.12,3.94-.28,5.14,1.03Zm-27.76,3.35c-2.19,0-4.39-.23-6.17.51-4.17-1.18-8.56-.28-13.62-.26-.37-.06-.43-.42-.77-.51-3.24.67-7.3,1.36-10.28.26-1.18.37-2.38.71-3.6,1.03-3.49-.88-8.76.47-11.05-1.03-2.1,1.28-4.91.72-7.46.77-2.7.05-5.56-.06-8.23,0-5.34.11-10.57.68-15.17-.26-6.81.77-15.97,1.12-22.88.26-1.12.37-2.22.47-3.34.51-6.03.22-12.76-.16-18.77,0-10.45.27-20.99.86-31.36.51-10.3-.34-20.65.19-31.11.77-.99-.56-2.6-.31-4.12-.26-1.51.05-3.6-.33-4.37.77-1.41,1.77-.51,4-.51,5.92,0,2.15-.42,4.28-.52,6.43-.18,4.12-.02,8.33,0,12.61.08,22.08-.39,43.52-.26,67.4.03,5.17-.12,10.25,0,15.44.12,5.19-.26,10.46-.26,15.69,0,31.1-.08,61.17,0,90.04,5.66-.05,11.15-.04,15.94,0,1.81.02,3.37.42,5.14.52,3.2.17,6.66-.18,10.03-.26,2.66-.06,5.28.06,7.97,0,.66-.02,2.1.47,2.57-.51.84,1.3,3.05.76,4.63.77,11.32.11,22.4-.3,31.62,0,4.1.13,8.03.74,11.82,0,15.89,1.32,36.03-.25,51.93,1.03,7.81-1.14,17.1.12,23.91-1.03,3.52,1.16,8.8-.05,12.86.26,5.64.03,12.14-.17,18.77-.26,3.2-.04,6.58-.24,9.77-.26,3.23-.02,6.55.71,9.51-.51,1-16.89-.62-31.62-.51-47.59,0-1.57.53-3.26.51-4.89-.01-2.29-.51-4.64-.51-6.95,0-2.51.13-4.96,0-7.46-.24-4.79.27-9.69.26-14.66,0-2.4-.28-4.74-.26-7.2.09-8.43-.35-15.47.51-23.15-.83-9.78-.31-19.55-.51-28.81-.07-3.16.23-6.36.26-9.52.05-6.05.04-12.1.26-18.27.12-3.31-.1-6.61-.26-10.03-.16-3.35.57-6.69.51-10.03-.02-1.2-.49-2.4-.51-3.6-.13-7.78.75-15.83,0-23.92-6.93-.19-15.03-.29-22.37-.26Zm24.68,174.42c.66-.32-.17-1.56-.51-.77.42,0,.14.71.51.77Z"/>
  <path class="cls-3" d="m195.89,66.24c1.06.59.34,2.05.26,2.83-.22,2-.22,4.12-.51,6.43-.14,1.08-.66,2.23-.77,3.34-.36,3.46.35,6.67-.51,9.52.87,4.16.29,8.4.77,12.61.29,2.57,1.6,5.41,1.8,7.98.1,1.35.56,3.67-1.03,4.63-1.12-.56-.33-1.51-.52-3.09-.31-1.67-1.3-3.38-1.8-5.14-.51-1.8-.21-3.88-1.54-5.15.26-2.44.36-4.87.26-7.46-.03-.73-.51-1.53-.52-2.32-.03-2.51.75-4.93,1.03-7.46.61-5.49.85-11.11,2.05-15.95.14-.21.27-.42.26-.77h.77Z"/>
  <path class="cls-3" d="m224.94,72.16h.52v.51h-.52v-.51Z"/>
  <path class="cls-3" d="m70.95,78.59c-.51,1.18-.17,1.65-.51,2.83-2.19,1.64-5.57,2.46-7.71.26-.22-2.96.3-5.18,2.57-5.66,1.98.76,4.57.92,5.66,2.57Z"/>
  <path class="cls-3" d="m42.68,76.53c3.39-.55,5.38,1.12,4.63,4.12-.37,1.46-3.12,3.08-4.88,2.83-1.75-.25-3.43-2.65-3.09-4.63.24-1.39,1.42-2,3.34-2.32Z"/>
  <path class="cls-3" d="m30.85,99.69c1.45-1.01,2.65-2.66,4.63-2.31,1.41.24,3.24,2.6,3.34,3.86.26,3.13-3.23,5.61-5.91,3.86-1.55-1.02-2.41-2.85-2.06-5.4Z"/>
  <path class="cls-3" d="m76.61,103.03c.26,2.97-1.2,4.71-3.86,5.4-2.44-.21-2.99-2.33-4.37-3.6.37-1.12-.26-2.32.26-3.34.88-1.74,4.2-2.51,5.66-1.8,1.28.62,1.06,2.48,2.31,3.34Z"/>
  <path class="cls-3" d="m48.08,114.09c.84-.7,1.28-1.8,2.31-2.32,2.64-.03,4.08-.46,5.4,1.54.75,3.64-.21,6.07-3.6,6.69-2.47-.88-4.42-2.27-4.11-5.92Z"/>
  <path class="cls-3" d="m36.76,119.75c.23.83-.66.54-.77,1.03-.77-.39.19-1.15.77-1.03Z"/>
  <path class="cls-3" d="m174.3,144.45c-.41-6.27,9.07-7.16,8.23.51-1.02.65-1.12,1.78-2.31,2.06-2.3.54-4.54-1.54-5.91-2.57Z"/>
  <path class="cls-3" d="m139.08,143.42v3.35c-1.43,1.23-3.2,2.12-6.17,1.8-1.79-1.73-2.77-5.36-.52-7.21,3.47-.87,4.93.15,6.69,2.06Z"/>
  <path class="cls-3" d="m142.68,171.2c-1.92-1.26-4.11-2.23-3.86-5.66.73-1.07,2.47-1.12,2.83-2.57,1.22.15,2.37.37,3.86.26,1.67,1.04,3.12,2.29,2.83,4.63-.99,2-3.38,2.62-5.65,3.34Z"/>
  <path class="cls-3" d="m173.01,164.77c.34,1.52,1.2,2.11,1.03,3.34-.49,3.5-6.01,5.05-7.97,1.29-.51-4.54,3.46-6.35,6.94-4.63Z"/>
  <path class="cls-3" d="m217.23,7.59c1.83,3.04.61,5.95.52,9.26-.05,1.89.07,3.86,0,5.92-.44,11.89-.2,27.06-.26,38.85,0,1.33.3,4.89,0,6.17-.31,1.32-1.15,1.58-1.8,2.57.14.9.92.4,1.28.77.82.84.48,3.11.52,5.66.06,5.38-.31,12.44-.26,18.01.11,10.35-.06,26.95,0,37.82,0,1.59,0,2.96-.52,4.63.9,5.53.47,11.38.52,16.72.09,10.52.09,22.47,0,34.22-.01,1.84.45,3.76.52,5.66.11,3.52-.38,7.12-.26,10.55.09,2.62,1.12,5.52,1.03,8.23-.07,2.05-.55,3.99-1.03,5.92-1.28,1.34-5.36.5-6.94.77-.81-.78-2.41-.48-4.63-.52-1.59-.03-3.08.18-4.37.26-4.04.23-7.67-.65-10.8.26-4.58-.32-9.23,0-13.88,0-3.68,0-7.27-.09-11.31,0-1.08.02-2.24.53-3.34.51-1.57-.02-3.06-.28-4.63-.26-1.75.03-3.4.03-5.14,0-3.07-.06-6.12.25-9.26.26-2.72,0-5.5-.55-8.22-.51-.64,0-1.28.49-1.8.51-1.51.07-3.87-.53-5.91-.51-.33,0-.41.49-.77.51-4.3.29-10.52-.25-14.65-.26-7.75-.01-15.33-.63-23.39-.52-2.37.03-4.8.3-7.2.26-4.77-.08-9.8-.91-14.14,0-5.87-.99-11.9-.37-18-.52-4.97-.12-10.19-.03-14.14,0-1.45.01-2.92.3-4.37.26-1.33-.04-2.54-.46-3.86-.52-6.63-.26-12.29.98-19.03.26-.99-1.55-1.47-3.67-1.54-5.4-.36-8.25.46-16.61.26-23.92-.11-4.21-.07-8.35,0-12.61.35-21.85.09-44.72,0-67.4-.12-30.42.86-60.99.51-90.04-.04-3.34-.54-6.61.52-9.78,2.3-.34,4.6-.64,6.94-.51.12,0,.23.49.51.51,3.58.29,9.06-.21,13.88-.26,2.36-.02,4.63.28,6.94.26,1.54-.01,3.1-.52,4.63-.51,4.97.02,9.92.35,14.91.26,10.3-.19,20.78-.37,31.36-.51,10.6-.15,20.87.21,32.39,0,3.12-.06,6.38-.48,9.51-.51,1.45-.02,2.88.47,4.37.51,7.61.23,15.51-.27,23.39-.26,1.7,0,3.45-.49,5.14-.51,4.06-.07,8.08.35,12.08.26,1.72-.04,3.39-.49,5.14-.52,9.32-.15,18.64.4,27.51-.26,3.4-.25,7.9.2,11.05,0Zm-43.96,3.86c.07.96.62,1.44.77,2.32.88.11,1.44-.1,2.05-.26.2-1.57-.5-2.25-1.03-3.09-.89.05-.98.91-1.8,1.03Zm23.91,1.54c.43.68,1.71.28,2.57,0-.23-.98.42-1.64,0-2.06-1.52-.91-2.75.44-2.57,2.06Zm-33.93.51c1.44.24,1.48-.92,1.8-1.8-.61-.08-.48-.89-1.29-.77-.32.67-1.27,1.63-.52,2.57Zm27.51-1.29c.54.66,1.19,1.21,1.54,2.06.98-.22,1.48-.92,1.54-2.06-.69-1.16-2.6-1.75-3.09,0Zm-56.56-.51c.09.77.41,1.3.77,1.8h1.54c.44-1.08.44-1.23,0-2.32-.96-.01-1.63.26-2.32.51Zm11.57,2.06c.91-.47,1.97-.77,1.8-2.32-1.62-1.1-3.62,1.4-1.8,2.32Zm39.33.26c.6-.08.96-.41,1.8-.26v-2.06c-.48-.21-.94-.43-1.54-.51-.41.81-1.34,2-.26,2.83Zm18.25-.77c1.19.08,1.78-.45,1.8-1.54-1.1-1.2-2.65.13-1.8,1.54Zm5.14.77c.25-.35.87-.33,1.03-.77.07-1.19-.54-1.69-1.29-2.06-.63.66-.77,2.5.26,2.83Zm-57.58.26c1.92.12,3.27-.33,3.08-2.31-1.27-1.16-3.71-.04-3.08,2.31Zm6.17-1.03c.51.43.95.93,1.8,1.03,2.66-1.76-1.82-4.6-1.8-1.03Zm22.11,0c.55.22.88.67,1.8.52.52-.94.05-1.54-.26-2.32-1.44-.33-1.74.49-1.54,1.8Zm27.51-1.54c-.22,1.52.15-1.03,0,0h0Zm-109,2.57c.33-.62,1.12-.76,1.03-1.8-.36-.07-.29-.56-.51-.77-2.1-.73-2.54,2.84-.52,2.57Zm9.77,0c.84-.19,1.63-.43,1.54-1.54-1.14-2.75-4.64.75-1.54,1.54Zm31.88-2.06c-.25,1.45.52,1.88,1.8,1.8.4-.54.18-1.71.51-2.32-1.18-.24-1.24.64-2.31.51Zm28.79,2.06c.79.77,2.74.59,3.6,0,.18-1.38-.76-1.64-1.03-2.57-2.24-.55-3.09,1.16-2.57,2.57Zm-87.41-2.31c-.88.47-1.16,2.67,0,3.09.25-.52.99-.56,1.8-.51.03-1.49-.61-2.3-1.8-2.57Zm31.88,2.06c.49.54,2.15-.1,2.31.77.4-.53.4-2.3,0-2.83h-1.8c-.08.78-.8.92-.51,2.06Zm5.65-1.29c-.19,1.22.15,1.91,1.03,2.06-.21-1.32.54-1.69.51-2.83-.77,0-.87.67-1.54.77Zm11.31,1.29c.46.48.65-.21,1.54,0v-2.06c-1.43-.23-1.69.71-1.54,2.06Zm-70.18.77c1.09-.19,2.09-.48,1.8-2.06-1.53-1.43-3.16.77-1.8,2.06Zm26.48-.51c.59-.19,1.31-.23,1.8-.51-.19-.93-.51-1.72-1.8-1.54-.16.59-.51,1.55,0,2.06Zm4.88-.26c1.21,1,2.8-.6,1.8-1.8-1.04.17-1.95.45-1.8,1.8Zm10.8.77c1.82.46,2.08-1.76,1.8-2.57-1.83-.37-1.81,1.11-1.8,2.57Zm21.59-1.29c.08.35.37.49.26,1.03,1.26.15,1.89-.33,2.06-1.29-.59-1.27-1.88-1.02-2.32.26Zm88.95-1.03c-.23,1.37.83,2.46,1.54,2.06.17-.86,1.23-.83,1.03-2.06-.47-.39-2.1-.39-2.57,0Zm-137.28.26v2.06c1.64.19,2.5-.41,2.31-2.06-.64-.61-1.51,0-2.31,0Zm-40.62,1.29c.36.59.59,1.3,1.8,1.03-.43-.89.22-1.37-.26-2.32-.97-.03-1.38.5-1.54,1.29Zm9.25,1.54c1.58.12,2.09-.82,2.06-2.32-1.27-1.56-3.16.75-2.06,2.32Zm6.17,0c.64-.39,1.43-.63,1.29-1.8-1.11-2.75-3.65,1.01-1.29,1.8Zm5.14-.77c.81.12,1-.37,1.54-.51.03-.63.04-1.24-.26-1.54-1.19-.12-1.95,1.14-1.29,2.06Zm8.74,0c1.08-.12,1.96-.43,2.05-1.54-.93-1.14-2.48-.18-2.05,1.54Zm5.91-.26c1.14.11,1.4-.66,1.29-1.8-1.37-.38-1.72,1.18-1.29,1.8Zm-38.82.51c.6-.08,1.06-.31,1.54-.51.19-.79-.26-.94-.26-1.54h-1.28v2.06Zm7.97,1.03c.92-.19,1.63-.59,1.8-1.54-.38-.48-.38-1.34-1.03-1.54-1.04.45-1.76,2.05-.77,3.09Zm-28.79-1.03c1.09-.02,1.62-.61,1.54-1.8-1.29-.18-1.7.53-1.54,1.8Zm12.08-.77c0,.75,1.46.61,1.8.26.04-.64.05-1.25-.51-1.29-.2.57-1.59-.05-1.29,1.03Zm-6.68,1.03c.52-.25.56-.99.52-1.8h-1.03c-.38.41-.53,2.04.51,1.8Zm11.83,1.03c.16-1.01.67-1.96.26-2.83h-1.03c-.4.71-.66,3.13.77,2.83Zm-9-.26c.49.11.46.74,1.29.52.39-.42.39-1.9,0-2.32h-.77c-.04.73-.47,1.07-.52,1.8Zm118.26-1.03c.2.06.3.22.26.51.68.08.66-.54.77-1.03-.59-.07-.96.06-1.03.51Zm-83.04.77v-1.03h-.77c-.07.67-.09,1.29.77,1.03Zm132.13.51c.36.67.83,1.23,2.06,1.03,1.25-2.22-1.71-3.53-2.06-1.03Zm9.51-1.03c.02,1.61.53,2.73,2.31,2.57.61-.93.1-2.57-.77-2.83-.3.3-.91.29-1.54.26Zm-52.7,2.32c.6.52,1.97.26,2.31-.26.07-1.01-.1-1.79-.77-2.06-.66.62-1.5,1.07-1.54,2.32Zm17.22.26c1.07.13,1.74-.14,2.31-.51.12-3.07-3.25-2.15-2.31.51Zm5.66-.26c.79.18.49.18,1.29,0,.36-.33.25-1.12.26-1.8-.34-.26-.95-.25-1.29-.51-.52.34-.78,1.72-.26,2.32Zm40.62-1.54c.23,1.48.65,2.78,2.31,2.83,1.39-.43.9-1.87.77-3.34-1.28-.48-2.2-.05-3.09.51Zm-112.6,2.32c1.81.1,2.99-.44,2.83-2.32-1.42-1.2-2.87.52-2.83,2.32Zm16.45-1.29c.33.44.53,1.01,1.29,1.03.64.04.8-.4,1.28-.51.67-2.76-2.38-2.21-2.57-.51Zm27.25,0c.85.01.62,1.1,1.54,1.03,1.17-.11,1.67-.9,1.54-2.32-1.82-.45-2.33.16-3.09,1.29Zm11.57-1.29c-.7.56.09,1.78.26,2.32,1.54.25,2.55-1.39,1.8-2.57-.21.58-1.58-.51-2.06.26Zm6.17,2.57c.6-.6,1.58-.82,1.29-2.32-.46-.23-.65-.72-1.54-.51-.36.82-.38,2.3.26,2.83Zm25.45-2.32v1.29c1.29.89,3.82.25,2.83-1.54-.6.16-1.86-.56-2.83.26Zm21.34-.26c-.18.95.44,1.1.26,2.06,1.78.44,2.12-1.15,1.54-2.31-.68,0-1.47-.1-1.8.26Zm-171.47,2.32h1.03c.52-.77-.08-2.2-1.03-2.32-.38.42-.38,1.9,0,2.32Zm40.88-1.03c.52.42.71,1.17,1.54,1.29.77-.43,1.6-.79,1.28-2.32-1.01-.62-2.87-.23-2.83,1.03Zm13.37,2.57c.28-.83.75-1.48,1.03-2.31-.67-.45-.47-1.76-1.8-1.54-1.62.76-.5,3.63.77,3.86Zm42.67-3.34c.32.79.21,2.02,1.29,2.06.78-.16,1.31-.57,1.28-1.54-.36-1.15-1.66-1.18-2.57-.51Zm6.17,2.31c1.01.15,1.49-.22,2.06-.51-.35-.85-.25-2.15-1.29-2.32-.62.66-1.3,1.76-.77,2.83Zm57.58-2.31c-.14,1.17.38,1.68,1.54,1.54.85-1.21-.62-2.69-1.54-1.54Zm-157.07,1.03c.72.59,2.04.14,1.8-1.03-1.04-.27-1.85-.34-1.8,1.03Zm27.76,1.03h1.8c.36-.5.68-1.04.77-1.8-1.18-.87-2.8-.14-2.57,1.8Zm16.2,0c1.05-.15,1.75-.65,2.05-1.54-.77-1.93-3.74.19-2.05,1.54Zm10.28-.52c.81-.04.86.68,1.8.52.19-.89.79-1.37.25-2.32h-1.54c-.29.49-.33,1.22-.52,1.8Zm12.34.26c1.15.12,1.29-.77,1.28-1.8-.3-.22-.69-.34-1.28-.26-.38.38-.38,1.68,0,2.06Zm4.37-.26c.37.14.63.4.77.77.96.1.67-1.04,1.8-.77v-1.54c-1.21-.75-2.77.06-2.57,1.54Zm11.05-.77c.42.52.86,1.03,1.8,1.03.48-.37,1.14-.57,1.03-1.54-.96-.5-2.46-.77-2.83.51Zm31.62-1.03c-.2.06-.51,0-.52.26.2-.06.51,0,.52-.26Zm-134.45.26c-1.3-.01-1.64.94-2.06,1.8.53.33.47,1.25,1.54,1.03.82-.72,1.19-1.94.52-2.83Zm33.16,2.31c.66.58,1.81.1,2.31-.26.54-3.01-2.72-2.02-2.31.26Zm20.31-.77c.43.34.86.68,1.8.52.38-.38.38-1.68,0-2.06-1.06.06-1.66.57-1.8,1.54Zm103.6,0c.59.12,1.31.51,1.8,0,.19-.79-.26-.94-.26-1.54-1.16-.14-1.68.38-1.54,1.54Zm5.4.52c.74-.03,1.68.14,2.06-.26v-1.54c-1.46-1.19-2.72.86-2.06,1.8Zm-119.03.51c1.42.13,2.2-.37,2.31-1.54-.97-1.5-3.28-.42-2.31,1.54Zm65.04-.26c1.26.4,2.83.28,2.57-1.54-1.05-.98-2.98-.4-2.57,1.54Zm-80.72,0c.68.62,1.89.62,2.57,0v-1.29c-.95-1.14-2.72-.21-2.57,1.29Zm10.54.52c1.15-.14,2.27-.3,2.06-1.8-1.14-.75-2.16.49-2.06,1.8Zm-34.19,10.29c1.65,2.3,3.25,4.63,4.63,7.2-.53.07-.06,1.14-.77,1.03-2.8-.2-3.26-3.53-5.91-3.09-1.15,2.18,1.09,4.96,1.8,6.95,1.32.48,2,1.6,2.83,2.57,1.29,0,1.6.97,2.57,1.29,1.76-2.18,3.31-4.57,4.11-7.72-1.82-2.03-3.17-4.55-4.37-7.2-.25-1.46.74-2.73,0-3.86,1.54-1.51,1.33-3.79,2.57-5.4.95-1.23,2.78-1.33,3.09-3.09-6.87-1.6-11.13,3.75-10.54,11.32Zm-2.83-9.52c.67.59,1.7,0,2.31-.26,0-.68.1-1.47-.26-1.8-1.54-.16-1.79.95-2.06,2.06Zm197.43,1.03c2.01-.47,1.49,1.59,2.57,2.06.14-.97.36-1.21-.26-1.8.65-.03,1-.37,1.03-1.03-.16-1.47-1.57-1.69-2.57-2.32-.75.53-.9,1.67-.77,3.09Zm-118.25-2.06c0-.26-.45-.32-.51,0,.05.31.29.16.51,0Zm-57.33,2.06c1.14.03,1.39-.84,1.54-1.8-1.29-.18-1.7.53-1.54,1.8Zm165.81-.77c-.95,1.29-6.67.58-8.74.51-2.82-.09-6.43.77-8.74.51-.65-.07-1.46-.5-2.06-.51-4.08-.1-8.21.59-12.34.51-3.37-.06-5.28.04-7.97,0-2.79-.04-5.88.22-7.97.26-2.77.05-5.68.18-7.71-.77-1.27,1.2-4.73.8-7.46.51-1.9,1.12-4.1.29-6.17.26-19.89-.31-41.3,1.18-62.21.26-1.43.49-6.65.98-9,.26-6.71.69-13.91.75-21.08.51-3.66,5.17-6.2,11.46-9.77,16.72-3.44,5.39-6.17,11.49-9.51,16.98,1.4.15,2.28-2.31,3.85-2.83,3.77-3.52,7.27-7.3,11.82-10.03,1.01-1.22,1.93-2.53,3.34-3.34,3.46-1,5.19-3.73,9.25-4.12,4.16-4.09,14.34-2.99,21.6-3.09,4.76-.07,9.54.13,14.14,0,1.44-.04,2.96-.53,4.37-.52,1.35.02,2.73.3,4.11.26,1.94-.05,4.13.03,6.43,0,1.01-.01,2.11-.03,3.08,0,.8.02,1.58.25,2.31.26,6.15.03,12.45-.67,18.77-.52,1.19.03,2.39.49,3.6.52,2.02.04,4.16-.55,6.17-.52,4.15.08,8,.25,12.08.26,2.1-.68,5.58-1.24,6.17.77.63,2.18-2.04,3.57-3.86,4.37.05,1.77-1.12,2.31-2.05,3.09,0,1.7-1.29,2.13-2.31,2.83.17.94-.56.99-.52,1.8-2.37,1.39-3.52,4.03-5.14,6.17-2.51,2.38-4.4,5.78-6.43,8.23-.35.42-.95.62-1.29,1.03-.63.77-.91,1.77-1.54,2.57-.29.37-.98.42-1.29.77-.38.44-.45,1.12-.77,1.54-1.25,1.64-2.87,3.13-3.6,5.15-1.83,1.26-2.83,3.34-4.37,4.89-1.23,1.95-2.32,4.03-4.37,5.15-.96,2.21-2.66,3.69-3.6,5.92-4.5,4.58-7.71,10.47-12.34,14.92-.34,1.63-1.71,2.23-2.06,3.86-.69.17-.97.74-1.54,1.03-1.24,2.62-3.16,4.55-4.88,6.69-2.03,1.91-2.98,4.91-5.4,6.43-.32,2.17-2.43,2.55-2.57,4.89-1.79,1.04-2.72,2.93-4.11,4.37-.66.97-1.42,1.84-1.8,3.09-4.94,4.74-7.89,11.48-12.85,16.21-1.28,3.78-4.62,5.5-5.91,9.26-7.3,7.62-12.21,17.63-19.28,25.47-.04.73-.47,1.07-.51,1.8-2.26,2.69-5.06,5.42-6.94,8.23-1.06,1.59-1.88,3.18-3.08,4.63-.6.72-1.31,1.39-1.8,2.06-.58.8-.72,1.64-1.29,2.57-.05.08-.44-.07-.51,0-.37.33-.02,1.47-.77,1.29-.24.7-1.4.49-1.03,1.8,14.43.59,29.25.48,44.47.51,1.89,0,3.76.52,5.66.52h9.51c3.35,0,5.86.2,8.74.26,4.29.08,9.84-1.01,12.6.77.41-.44.78-.94,1.8-.77,12.81-.46,26.49,1.03,37.79-.52,2.53,1.19,5.27.35,7.97.26,2.3-.08,4.88.74,7.46.52.64-.06,1.14-.48,1.8-.52,2.13-.12,4.28,0,5.91.52,5.34-.74,9.52-.37,14.65-.77,3.04-2.1,3.53-6.76,6.68-8.75,1.58-3.39,3.22-6.72,5.66-9.26.88-3,2.78-4.66,4.11-6.95.47-.81.81-1.61,1.29-2.31.48-.72,1.12-1.35,1.54-2.06.51-.85.51-1.91,1.03-2.83.05-.09.67-.15.77-.26.14-.16.16-.62.26-.77.99-1.58,1.87-2.94,2.06-4.89-3.46,1-5.56,3.36-6.94,6.43-1.43.29-2.22,1.21-2.57,2.57-3.68,1.97-7.33,3.99-10.03,6.94-4.01,1.73-7.4,4.09-10.8,6.43-2.02.17-3.65,1.67-5.65,2.32-2.76.89-5.92.94-8.23,2.57-5.09-.63-10.65.7-16.2.26-.71-.06-1.4-.5-2.06-.52-2.79-.05-5.76.63-8.74.52-3.87-.16-7.47.65-11.05.26-2.22-.25-4.62-.8-6.94,0-9.03-1.29-18.63.61-27.25-.77-5.85.89-11.69-.23-17.74.52-1.8.22-4.35,1.51-5.14-.77.22-1.75,1.91-2.04,2.83-3.09,2.71-3.55,5.02-7.49,8.23-10.55,1.98-4.28,5.94-6.57,7.71-11.06,3.01-2.63,5.01-6.2,7.46-9.26.3-.38.75-.67,1.03-1.03,1.07-1.41,2.13-3.21,3.08-4.38,1.25-1.53,2.52-2.52,3.6-3.86.96-1.2,1.59-2.62,2.57-3.86,3.06-3.84,5.83-7.55,8.74-11.32,1.95-2.53,4.02-4.91,5.91-7.46,1.9-2.55,4.17-4.84,5.66-7.72,2.1-1.24,2.97-3.72,4.88-5.14.81-2.53,3.01-3.68,3.86-6.17.54-.23,1.14-.4,1.54-.77,1.45-2.58,3.04-5.02,5.4-6.69,1.36-3.28,4.15-5.11,5.66-8.23,2.66-1.97,3.86-5.4,6.43-7.46,4.05-5.29,8.32-10.37,12.34-15.69,8.17-10.51,17.03-20.35,24.94-31.13,1.48-.14,1.43-1.83,2.83-2.06-.25-1.54,1.13-1.44,1.03-2.83,2.12-1.4,2.9-4.13,5.4-5.14,1.33-3.9,4.43-6.03,6.94-8.75-1.65-.08.75-2.1-.51-1.8-.69-.2-.3.48-.52.77Zm-171.47,2.06c.43.34.86.68,1.8.52.16-.62.37-1.17.26-2.06-1.09-.83-2.28-.24-2.06,1.54Zm-19.28.52c.66-.03.51-.86.52-1.54h-1.29c0,.78-.15,1.69.77,1.54Zm195.38.51c.98.12,1.64-.07,2.06-.51-.02-1.1-.75-1.48-2.06-1.29v1.8Zm-173.27,2.32c1.73.19,1.94-1.15,1.8-2.83-1.62-.17-2.43,1.59-1.8,2.83Zm181.49-2.32h.51v-.51h-.51v.51Zm-186.12,1.8c.48-.46.94-.94.77-2.06-1.96-.53-2.79,2.11-.77,2.06Zm-15.68.77c1.32.03,1.93-.64,2.06-1.8-.87-1.8-3,.82-2.06,1.8Zm197.17-1.8v1.03c.88.41,1.57,1,2.57,1.29.64-.49.97-1.43,2.06-.77-.35-1.81-2.56-1.98-4.63-1.54Zm-6.69,2.32c-.12.81.46.91.26,1.8,1.52.39,2.47-1.12,1.8-2.06-.27.12-1.32-.47-2.06.26ZM11.06,28.43c.63-.88.17-2.45-1.28-2.06-.1,1.21.02,2.21,1.28,2.06Zm18.77.26c.79-.19.5.71,1.29.52.57-.35.76-1.95.26-2.57-.97-.65-1.82.65-1.54,2.06Zm177.38,2.06c2.32.04,1.87-2.56,1.29-3.6-3.39-.57-1.86,2.09-1.29,3.6Zm-180.98-1.29c.92.15,1.24-.3,1.8-.51,0-.61-.44-.76-.26-1.54h-1.54c.26,1.01-.57,1.49,0,2.06Zm185.86.77c.47.39,1.59-.12,2.06-.52v-1.29c-1.12-.85-3.08.5-2.06,1.8Zm-199.23,0c.79-.19.49.71,1.29.51.05-.29.29-.4.52-.51-.21-.73-.41-1.47-1.54-1.29.21.73-.36.67-.26,1.29Zm186.89-.52c-.27,1.47.73,1.67,1.29,2.32.41-.62.96-1.1.77-2.32-.54-.72-1.32-.37-2.06,0Zm-171.47,4.12c.75-.36,1.14-1.08,1.03-2.32-1.55-1.85-3.62,2.08-1.03,2.32Zm182.01-.26c1.56.19,2.62-.12,2.83-1.29-.97-1.07-3.35-1.13-2.83,1.29Zm-200.26.26c.2.06.51,0,.51.26,1.19.24,1.09-2.33-.25-1.8.03.63.04,1.24-.26,1.54Zm204.63.51c-.04-.34,1.04-.78.26-1.03-.14.16-1.04.78-.26,1.03Zm-8.74,2.32c-.88,1.18-1.3,2.82-1.54,4.63-.65.29-.62,1.27-1.54,1.29.11,2.2-1.69,3.17-1.54,4.63-3,2.06-4.14,5.97-6.68,8.49-.69,2.06-.89,4.6-2.57,5.66-1.59-.55-1.65-2.64-3.09-3.34-2.17.5-3.12,3.02-3.34,5.14-.29,2.84.7,6.17,1.03,9.52.34,3.52.3,6,1.29,8.23.19.58.98.56,1.03,1.29-.14,2.12,2.19,4.2.77,5.92-2.24-.42-2.2-3.12-3.6-4.37-1.82-.67-3.44-1.31-5.4-.77-.33,2.36,1.74,5.33,2.83,7.72.23,2.86,1.84,4.33,2.31,6.95,2.01,2.02,2.45,5.6,4.37,7.72.4,2.26,1.19,4.12,2.31,5.66v1.29c1.73,2.04,2.4,5.14,3.86,7.46.22,2.2.91,3.09,1.29,4.63.26,1.41,2.21,3.46.77,4.89-.88-.78-1.06-2.07-1.54-3.09-.48-1.01-1.28-1.99-1.54-3.09-2.56-2.07-3.27-5.98-5.91-7.97-.29-.56-.66-1.05-.52-2.06-1.57-.4-1.97-1.98-2.83-3.09-1.32-.4-2.39-1.04-3.08-2.06-.04-.83-.79-1.71-.26-2.32-1.78-.36-2.51-1.77-3.09-3.34-1.39-.33-2.22-1.53-3.08-2.31-.48-.43-1.14-.61-1.54-1.03-.58-.61-.82-1.58-1.29-2.06-1.64-1.68-3.4-1.56-4.63.52,2.07,3.84,6.79,5.04,8.22,9.52,2.76,1.61,4.31,4.44,6.68,6.43,1.7,3.96,5.29,6.02,6.69,10.29,1.78,1.3,3,3.17,4.37,4.89.2,1.17.95,1.79,1.03,3.09-.22,1.18,1.9,1.83.51,2.57-1.38-1.11-1.82-3.15-2.83-4.63-1.01-.45-1.46-1.46-2.57-1.8-.53-1.53-1.94-2.18-2.57-3.6-5.31-2.75-8.95-7.16-15.68-8.49-.95-1.34-2.92-.84-4.37-2.06-3.56.53-7.11-.96-10.54-.77-1.35.65-4.22.38-5.91.51-4.48,1.52-9.93,2.07-13.37,4.63-.97-.2-1.23.31-2.06.26-3.94,3.1-8.14,5.92-11.57,9.52-3.9,6.9-8.76,12.84-9,23.41-.25.69-.72,1.17-.77,2.06-.16,1.26-.04,1.21,0,2.57-.86,1.88-.59,3.74-.77,5.92-.41,4.87-2.67,8.53-3.6,12.86-2.93,2.29-5.19,5.27-10.54,5.14-1.08-.98-2.3-1.81-2.57-3.6.23-1.31,1.76-1.32,1.54-3.09-2.28-3.36-8.27-1.18-7.45,2.83.33,1.66,2.77,1.61,2.57,3.35-.39,1.12-1.87.14-2.83.26-1.77.93-4.94,1.4-6.17,3.34-.59.93-1.28,3.41,0,4.37.59.73.82-1.05,1.55-1.03.99-.12.99-1.24,1.8-1.54,3.78-1.87,7.01.93,11.57-.52,7.2.39,12.49-5.02,15.94-10.03-.13-2.08,1.03-3.45.26-5.4,1-1.32-.35-4.98,1.8-5.15,1.61.96,1.41,3.12,2.06,4.63.77,1.8,2.38,3.16,2.57,5.14,1.39,1.19,2.77,2.38,3.6,4.12,2.77,2.11,6.23,3.54,8.74,5.92,3.04.04,4.01,2.16,7.46,1.8.53.5,1.34.71,2.05,1.03,3.03-.2,5.4.49,7.71,0,3.16-.67,5.33-3.1,8.48-3.6,1.1-1.81,2.82-3,3.6-5.14-1.5-.57-2.79-1.02-4.37-.26-.92,1.09-1.97,2.16-3.34,2.83-.68.33-1.88.31-2.83.77-.48.23-.79.85-1.28,1.03-1.97.73-3.99.8-6.43.77-2.38-1.05-5.41-1.44-8.48-1.8-1.23-1.17-2.67-2.13-4.37-2.83-2-2.54-4.76-4.32-6.94-6.69-2.39-3.18-3.94-7.2-5.65-11.06-.23-3.69-1.28-6.53-1.03-10.04,1.05-5.21,2.88-9.63,4.63-14.15,2.53-2.18,4.01-5.42,5.91-8.23,3.75-3.62,8.72-6.03,13.63-8.49,2.91-.35,5.28-1.23,7.45-2.32,4.62-.32,10.78-1.41,13.62,1.29.09-.68.62-.92,1.54-.77,2.07.68,4.21,1.28,5.66,2.57,5.2.29,6.99,3.98,11.31,5.15,1.12,1.45,2.43,2.71,4.37,3.34,1.63,2.4,3.88,4.18,5.92,6.17,1.51,3.46,4.9,5.04,5.4,9.52.92,1.93,4.17,2.83,3.6,5.4-1.78.16-1.69-1.57-2.83-2.06-2.14-1-4.25-.45-6.68-1.03-1.46.89-4.29,1.67-3.09,4.37,1.56.39,2.65-.41,4.11-.26,2.72.28,4.81,2.42,6.94,3.09,1.3,1.95,2.36,4.16,3.6,6.17.61,2.68.61,5.75,1.03,8.75.25,1.77.93,3.34.77,5.14-.13,1.49-1,2.91-1.29,4.37-.57,2.93-.63,4.68-.77,6.95-.3.81-.47,1.76-1.03,2.31,0,5.49-3.56,7.42-4.12,12.35-2.27,3.39-6.45,4.86-7.97,9,.79,1.09,1.27,2.51,2.83,2.83,3.32-.97,4.36-4.21,6.94-5.92,1.97-3.78,4.37-7.12,5.66-11.57.02-2.73.39-4.22,1.29-6.43.47-6.65,1.92-12.31,1.54-19.81-.04-.81.69-.86.52-1.8.18-6.6-1.9-10.7-1.8-16.21-1.9-4.28-3.18-10.54-4.11-14.92-1.92-2.05-1.6-5.05-1.8-8.49-2.89-8.24-4.16-22.5-1.29-31.9,1.33-.45,1.16-2.23,1.8-3.34,1.05-1.84,3.08-3.21,2.83-6.18-.62-.84-1.27-1.64-2.83-1.54-.85.53-2.72,2.25-3.86,3.34-.93,1.72-.8,4.51-3.34,4.63.19-1.91-.42-3.01-.26-4.89.91-2,1.46-5.67,2.05-8.75,2.17-4.01,5.49-6.86,6.94-11.58,2.55-1.68,3.22-5.42-.52-6.17-1.57.83-2.66,2.14-4.37,2.83-.52,1.02-.59,2.49-2.31,2.32-.93-2.18.95-3.64,1.29-5.4,2.72-1.9,3.48-5.78,5.91-7.98.26-1.97,1.08-3.38,2.05-4.63.27-2.59,1.41-5.68,1.03-8.75.44-.97.39-1.09.51-2.06-.5-1.22-1.72-3.07-3.09-2.57.59.53,0,2.22.51,2.83Zm-9-1.54c.6.25,1.26.45,2.06.52.3-.3.29-.91.26-1.54-.64-.22-1.38-.34-2.31-.26v1.29Zm-99.49,1.03c.44,1.23,1.88.94,3.08.51.14-1.26-.91-1.32-1.29-2.06-.64.47-1.93.3-1.8,1.54Zm114.4,1.54c1.16.88,2.5.84,2.83-.77-.6-.6-.57-1.83-1.29-2.31.86,1.82-1.7,1.25-1.54,3.09Zm-10.8-.51c1.7.2,1.79-1.82.77-2.32-.75.28-.9,1.15-.77,2.32Zm-89.97-1.29c.32,1.38,2.84,1.33,2.31-.77-.93.1-2.15-.09-2.31.77Zm26.99,1.03c-.02.96,1.01.88,1.8,1.03.81-.84.14-2.29-.77-2.83.78,1.21-.84.87-1.03,1.8Zm71.72-.77c.07-.59-.06-.97-.51-1.03.06.46-.26,1.29.51,1.03Zm-143.7,1.29c.63.23,1.11.6,2.06.51.34-.43.68-.86.51-1.8-.72-.9-3.36-.85-2.57,1.29Zm37.28-1.03c.49-.11,1.11-.09,1.03-.77-.67-.07-1.11.09-1.03.77Zm24.94.51c.43.6,1.5.56,2.57.51.45-.43-.23-.86,0-1.8-1.51-.23-2.33.24-2.57,1.29Zm-56.04.51c.37.38,1.68.38,2.06,0,.15-1.26-.93-1.3-1.8-1.54,0,.61-.44.76-.26,1.54Zm4.88,0c.54.23,1.14.4,1.54.77.24-.62,1.03-.68.77-1.8-1.18-.51-2.24-.63-2.31,1.03Zm9-.51c.07,1.05,1.03,1.2,1.8,1.54.08-.61.89-.48.77-1.29.12-1.39-2.56-1.9-2.57-.26Zm5.66.51c.51.42,1.87.83,2.57.26.57-2.06-3.02-2.6-2.57-.26Zm29.31.77c1.34.14,2.32-.08,3.08-.51-.36-1.27-1.4-1.86-3.08-1.8-.31.78-.06,1.48,0,2.32Zm20.56-.51c.53.4,2.3.4,2.83,0,.13-2.33-2.71-1.55-2.83,0Zm-25.71.77c.86.36,2.66.54,2.57-.77,0-1.79-3.53-1.88-2.57.77Zm18.25-.77c1.1.15,1.8-.09,1.54-1.29-1-.06-1.78.11-1.54,1.29Zm-123.65,1.03c.64.04.8-.4,1.29-.51.19-.79-.26-.94-.26-1.54-1.65-.28-1.74,1.33-1.03,2.06Zm182.52-.77c-.04.64.4.8.52,1.29.94-.23,1.37.45,1.8,0,.26-2.03-1.71-3.56-2.31-1.29Zm-111.31.26c.22.72.73,1.16,1.8,1.03.26-.6.45-1.26.52-2.06-.87-.62-2.19.09-2.31,1.03Zm-29.05.77c.46.39.79.93,1.8.77.69-.78.16-1.2.26-2.57-1.05.23-1.96.61-2.06,1.8Zm4.88,0c1.39.55,2.05-.31,2.31-1.54-1.08-.7-2.31.33-2.31,1.54Zm4.37-1.03c.23,1.05.26,2.32.77,3.09.44-.76,1.67-.73,2.31-1.29.11-1.81-1.66-3.05-3.09-1.8Zm76.1.77c-.75.07-.79-.58-1.54-.51-.54,1.07,1.4.96,1.54.51Zm-89.98.77c.3.87-.18,1.1.26,1.54.76.31,3.52.52,2.83-2.06-1.38-.94-1.96-.07-3.08.51Zm65.29.52c-1.03.3-1.43-.75-2.31-1.03-4.26-1.36-10.27.57-14.14,1.54-1.05,1.35-2.46,2.34-4.11,3.09-.29,2.87-3.44,4.16-1.8,7.46,2.57-3,8.93-2.21,13.88-2.83.82.73,2.99.09,3.6,1.03,1.93-2.76-1.81-3.45-1.8-5.92,2.95.29,6.49-.09,9.77-.77.22-2.11-1.69-1.79-2.83-1.29.08-.6-.04-.99-.26-1.29Zm25.97-.52c-.12.98.07,1.64.51,2.06,1.3.1,1.67-.73,2.31-1.29-.34-.17-.48-.55-.51-1.03.82-.22.79.4,1.29.51-.1-.44.38-.66,0-.77-.47-.44-2.73-.61-3.6.51Zm59.64,1.8c.64-.35,1.13-1.77.51-2.57-1.5-.54-1.88,2.6-.51,2.57Zm-71.21-.51c-.33-1.01-.41-.79-.52-1.8-2.62-.36-1.79,2.42.52,1.8Zm-38.56.26c.66.4,1.83,1.26,2.83.51.11-1.3-.56-1.84-1.29-2.31-.05,1.06-1.64.59-1.54,1.8Zm-18.25-1.29c-.08,1.45.68,2.07,2.06,2.06.81-1.54-.65-2.67-2.06-2.06Zm3.6,1.29c1.17.2.89,1.85,2.57,1.54.39-.67.85-2.25.26-3.09-1.34.12-1.65,1.27-2.83,1.54Zm-7.97-.77c.08,1.04.38,1.85,1.54,1.8.66-.19.89-.82.77-1.8-.68-.59-1.63-.59-2.31,0Zm53.73,1.8c.69-.18.5.53.77.77.89.21.99-.38,1.8-.26.13-1.08-.14-1.74-.51-2.32-.59.12-1.31.51-1.8,0,.15.84-.18,1.2-.26,1.8Zm14.65,0c.76.98,2.87.57,2.31-1.29-1.3-.22-2.52-.52-2.31,1.29Zm75.84-1.29c.2,1.66-.25,2.44.52,3.6,1.35.16,2.17-.23,2.31-1.29-.13-1.07-.99-1.41-1.03-2.57-.79.47-1.16-.23-1.8.26Zm-157.07,2.32c.53,1.18,1.6,1.52,2.57.51-.08-1.38-.66-2.26-1.54-2.83-.09,1.03-1.06,1.16-1.03,2.32Zm76.1-2.06c-.08.94.04,1.67.26,2.32,1.2-.26,1.46.42,2.06.77-.19-1.27-.19-1.56,0-2.83-.51-.35-1.61-.88-2.31-.26Zm-118.25,2.57h1.29c.44-.42.64-1.08.51-2.06-1.49-1.7-3.37.76-1.8,2.06Zm46.01-.51c.68.5,1.38,1.25,2.31.77,1.61-2.91-2.43-3.79-2.31-.77Zm22.11-1.54c-.21,1.42.35,2.05,1.54,2.06.06-.2.21-.3.52-.26.65-1.35-.3-2.86-2.06-1.8Zm109,.51c.67.07,1.11-.09,1.03-.77-.45.02-.8-.06-1.03-.26v1.03Zm-144.73.77c.16,1.02,1.77.86,2.57.51.54-2.35-2.6-2.58-2.57-.51Zm43.19-.51h.51c.16-.01.3-.04.26-.26-.37-.06-.43-.42-.77-.51v.77Zm-24.68,2.06c.61.2,1.78.51,2.31,0,.02-.96.29-.73,0-1.54-1.29-.91-3.14-.69-2.31,1.54Zm130.08-.77c.65.5,1.71,1.1,2.31.26.45-2.1-2.4-1.84-2.31-.26Zm-143.19-.77c-.37.34-.37,1.46,0,1.8,1.26-.02,2.39-.18,2.06-1.8-.98.23-1.64-.42-2.06,0Zm147.3,1.29c.33.44.53,1.01,1.29,1.03.61-.51,1.32-.91,1.03-2.32-.98-.67-2.47,0-2.31,1.29Zm-129.82.77c1.11.08,2.08.02,2.06-1.03-.57-1.1-2.5-.86-2.06,1.03Zm4.63-.77c.11,1.26,1.81,2.02,3.09,1.29.38-2.15-2.48-3.03-3.09-1.29Zm14.65-.26c.12-.8-.55-.82-1.29-.77-.04.72.63.74,1.29.77Zm102.06-.26c0,1.12.45,1.78,1.03,2.31.97-.32,1.34-1.72.77-2.83-.94-.17-.99.56-1.8.51Zm-108.74,3.34c-.37-1.43-.58-3.01-2.05-3.34-2.16.64-.41,4.14,2.05,3.34Zm38.05-1.54c.6.51,1.64.59,2.83.51.62-2.4-3.01-2.74-2.83-.51Zm6.17.51c.68.92,2.56.47,2.83-.51-.38-.05-.23-.62-.26-1.03-1.3-.66-2.2.5-2.57,1.54Zm-36.25,3.34c.43-1.12,1.04-2.05,1.03-3.6-2.69-2.09-4.41,3.39-1.03,3.6Zm46.53-2.32c1.29.64,2.61-.09,2.32-1.8-1.46-.09-2.29.46-2.32,1.8Zm-123.14.77c.59-.44.61-1.45.77-2.31-1.72-.69-2.71,2.45-.77,2.31Zm4.37-.51c.78-.01.8-2.1-.26-1.8-.77.01-.8,2.1.26,1.8Zm67.1,3.34c-2.52-.31-3.13-.97-5.91-1.03-.69-.25-1-.89-1.8-1.03-6.88-1.12-15.18-2.06-23.65-1.29-.47-.48-1.3-.59-2.06-.77-3.35.89-5.88-1.1-9.25-1.03-2.29,1.74-4.96,3.1-5.91,6.17,1.3.65,2.16.34,3.34-.26,8.68,1.59,19.04-2.5,26.48-1.29-.5,2.35-2.78,1.66-4.37,2.57-.71,1.6-1.93,2.71-2.57,4.37.42,2.65,1.31,6.64,4.88,6.95-.09-3.09-.03-6.43,1.8-8.23,1.76-.43,2.84-1.75,4.63-2.32,2.78-.88,5.88-.3,9-.51,1.9.76,4.75.56,6.43,1.54,1.66-.25,3.23,1.03,4.11,0-.33-2.67-4.01-2-5.14-3.86Zm129.82-3.86c.68.62,1.9.62,2.57,0-.08-.86-.86-1.03-1.54-1.29-.17.6-.86.69-1.03,1.29Zm-130.85-.77c-.21,1.67.37,2.55,1.54,2.83,1.04-1.06.45-3.91-1.54-2.83Zm31.62.77c.02.45-.06.8-.26,1.03.76.56.76.39,2.06.52.39-.38.22-1.32.26-2.06-.93-.07-1.24.47-2.06.51Zm16.71,1.54h1.03c.39-.74,0-.8.26-1.8h-1.54c-.15.84.18,1.2.26,1.8Zm64.53,1.29c1.24-.13,1.91-.83,1.8-2.31-1.47-1.63-2.96,1.23-1.8,2.31Zm-175.33-.26c1.19.81,2.07-1.2,1.29-2.32h-1.29c-.38.42-.38,1.9,0,2.32Zm171.72.51c.57-.35.76-1.94.26-2.57-2.22-.42-1.66,2.49-.26,2.57Zm-6.17-1.54c.06.96.4,1.65,1.03,2.06.29-.67,1.33-1.91.77-2.57-.3.47-1.34.2-1.8.52Zm-60.15,2.06c.61.2,1.78.51,2.31,0,.61-2.49-3.01-2.74-2.31,0Zm-6.17,0c.42.6,1.5.56,2.57.52-.21-.73.36-.67.26-1.29-.56.05-.82-.21-.77-.77-1.34-.14-2.29.11-2.06,1.54Zm91.26-.26c.42.39,1.89.39,2.31,0,.04-.64-.41-.8-.52-1.29-1.14-.11-1.63.43-1.8,1.29Zm-196.66,1.29c.23-.54.78-.76.77-1.54-.35-.08-.49-.37-1.03-.26-.35.35-.49,1.8.26,1.8Zm3.08,1.03c.33.36,1.12.25,1.8.26.4-.38.22-1.32.26-2.06-.73.21-.67-.36-1.29-.26-.22.72-.83,1.06-.77,2.06Zm97.69-1.03c-.19.79.45.76.26,1.54.61.08.96.41,1.8.26,1.64-1.82-.53-3.4-2.06-1.8Zm15.17.51c.43.34.86.68,1.8.51.3-.3.29-.91.26-1.54-1.11-.08-2.07-.02-2.06,1.03Zm-17.74,1.8c-2.07-1.4-6.05-3.21-9-2.06-4.16-.48-6.03,1.34-9.25,1.8-.43,1.03-1.38,1.53-1.54,2.83.89,2.75,1.58,4.74,2.57,7.72,3.19,2.29,6.23,4.74,10.8,5.66,1.34-.71,4.74.62,4.63-1.54-.61-1.14-2.09-1.36-2.57-2.83-.31-.95-.16-2.14,0-3.34,1.15-2.79,4.95-2.94,6.68-5.15-1.09-.71-1.61-1.99-2.31-3.09Zm77.89.51c.7.19.52-.51,1.03-.51-.32-.79-.39-1.84-1.29-2.06h-.51c-.46.95-.3,2.42.77,2.57Zm3.08-.77h1.29c.29-.81.02-.58,0-1.54-.61-.33-.48.03-1.29-.26-.37.34-.37,1.46,0,1.8Zm-8.22-1.54c-1.64.09-.79,1.88-.51,2.83.82.12,1.07.81,2.05.77.44-.33,1.01-.53,1.03-1.29-.56-1.06-1.6-1.66-2.57-2.32Zm27.76,4.37c.71-.41,1.3-.93,2.06-1.29-.2-.97.31-1.23.26-2.06-.23-.45-.57-.8-1.03-1.03-.56,1.2-2.21,2.52-1.29,4.37Zm-93.83-1.54c-.73.48-.78,2.43.52,2.32,1.41-.65,2.84-1.28,3.86-2.32,1.23.4,2.73.37,2.83-1.03.19-.79-.71-.5-.51-1.29-2.93.07-3.11,3.68-6.69,2.32Zm88.43-.26c1.14-.06,2.34-.06,2.57-1.03-.36-1.89-3.76-.23-2.57,1.03Zm-196.14.26c.76-.01,1.3.76,1.8.26-.18-.79-.18-.5,0-1.29-.59-.26-.83-.89-1.8-.77-.34.8.07.73,0,1.8Zm30.59,2.32c-.47,1.57-2.84,1.84-4.37,2.83-.45.29-.58,1.01-1.03,1.29-.91.57-1.72.51-2.57,1.29-1.33,1.22-3.79,2.36-5.4,3.86-.59,1.38-1.84,2.1-2.31,3.6-1.01.96-.59,3.69,1.03,3.6.93-.35,1.32-1.25,1.54-2.32,4.71-2.83,7.35-7.73,13.11-9.52.56-.63.85-1.55,1.8-1.8,3.72-1.34,6.96-3.15,11.57-3.6-.04-.3.06-.46.26-.51.28-1.3-.76-1.3-1.03-2.06-4.15.57-7.81,1.62-11.83,2.31-.14.37-.4.63-.77.77v-.26h-.26c.09-1.85-1.76-2.54-3.09-1.54.03,1.17.62,1.78,1.29,2.32.94.17.99-.56,1.8-.52v.26h.26Zm-10.54-.26c.77-.09,1.57-.15,1.8-.77-.66-.2-.89-.82-.77-1.8-.62.11-.56-.47-1.28-.26-.79.81-.4,2.12.25,2.83Zm148.85-.77c1.19.08,1.78-.45,1.8-1.54-.97-.72-1.86.42-1.8,1.54Zm-145.5.52c.48.7,1.93,1.16,2.57.26.42-2.69-2.58-2.32-2.57-.26Zm-19.02,1.03c.81-.13.91.46,1.8.26.4-.98.54-1.55,0-2.57-1.35.02-1.94.8-1.8,2.32Zm111.31-.51c.6.08.47.89,1.28.77.67-.44,1.3-.93,1.29-2.06-.98-1.16-2.53-.02-2.57,1.29Zm63.24-.26c0-.51.7-.33.51-1.03h-.77c.04.38-.09.95.26,1.03Zm16.71.77c1.45.52,2.23,1.71,3.34,2.57.71-.96.17-1.67.51-3.09-1.11-.58-3.62-1.57-3.86.51Zm-178.15.77c0-.68.1-1.47-.26-1.8-1.78-.27-1.57,2.29.26,1.8Zm41.9,0c.34.89,1.56,1.28,2.57.77-.15-.84.18-1.2.26-1.8-.81-1.1-2.8-.69-2.83,1.03Zm9.51.51c1.38.62,3.12-.42,3.34-1.8-1.45-1.23-3.04.34-3.34,1.8Zm-4.63.77c.53.27,1.05.02,1.8.51.09-.86.74-1.14.51-2.32-1.34-.9-2.77-.42-2.31,1.8Zm138.3-1.54c.02-.44-.2-.66-.51-.77.02.4-.04.89.51.77Zm-91.52,1.54c.33.35,1.12.25,1.8.26.36-.5.68-1.04.77-1.8-.88-1.02-2.98-.27-2.57,1.54Zm59.64-1.54v1.29c.63.23,1.12.6,2.06.52.97-1.77-.62-2.87-2.06-1.8Zm-169.41,2.31c.94,0,1.13-.76,1.03-1.8-.45.02-.8-.06-1.03-.26v2.06Zm66.33-1.8c.3,1.02.3-1.02,0,0h0Zm6.94,3.86c-1.51,3.03-2.18,6.91-2.83,10.8.97,3.06,2.12,5.94,3.6,8.49,3.04.98,3.7,4.36,8.22,3.86-.31-2.17-2.3-2.67-2.83-4.63-.3-4.13-.48-6.82-1.28-10.29,1.64-.82,2.6.66,3.6,1.29,1.09-.45,2.41-.67,2.57-2.06.31-.84-1.11-1.9-2.06-2.32-.39-1.23-1.57-1.69-2.31-2.57-1.22-1.52-1.84-3.64-2.06-6.17-.05-.29-.29-.4-.51-.51-1.11,1.64-2.6,2.88-4.11,4.12Zm-62.21-1.8c.83-.15,1.2.18,1.8.26v-2.06c-1.64-.36-2.22.84-1.8,1.8Zm42.93.26c.64.83,3.02.51,2.83-1.03-.75-1.42-2.97-1.05-2.83,1.03Zm145.76-1.54c.25.78.52,1.54.77,2.32.83.15,1.2-.18,1.8-.26-.18-1.03.24-1.47.26-2.31-.46-.28-2.02.07-2.83.26Zm-35.22,1.8c.54.15.73.64,1.54.51.52-.34.77-1.72.25-2.32-1.28-.08-2.05.35-1.8,1.8Zm-147.04,0c1.03-.25.77.77,1.8.51-.12-.81.79-.58.51-1.54-.79-1.03-2.52-.43-2.31,1.03Zm26.74.26c.2-.18.57-1.44,0-1.54,0,.7-1.08,1.21,0,1.54Zm-28.79,2.83c.85-1.03.73-3.92-.77-4.12h-.51c-.19,1.68-.82,4.12,1.29,4.12Zm24.94-2.32c1.41.21,2.01-.39,1.8-1.8-1.6-.47-2.68.61-1.8,1.8Zm28.79-.77c.16.78.57,1.32,1.54,1.29.63-.36,1.14-1.76.77-2.32-1.12-.01-1.58.64-2.31,1.03Zm-1.54-.26c-1.13-.52-2.24.95-2.57,2.06,1.09.47,1.31.5,2.31.26.21-.64.34-1.38.26-2.32Zm-32.39.51c-.2,1.57.69,2.05,1.8,2.32.81-.38.85-1.55.77-2.83-1.13-.11-1.99.07-2.57.51Zm66.58-.51c.06,1-.96.93-1.54,1.29-.19.96-.54,2.27.26,2.83,1.85-.25,2.72-.12,3.86.77-.03.64-.49.81.26,1.03.7-1.73,2.64.59,4.37.26.67-.44,1.3-.93,1.29-2.06-2.01-2.2-5.24-3.17-8.48-4.12Zm-99.75,1.29c.51.63,1.75,1.54,2.83.77-.06-.49.29-.57.26-1.03-.67-.68-2.88-1.37-3.09.26Zm56.81,1.29c1.39.71,3.35-.01,2.83-2.06-1.81-.18-3.1.15-2.83,2.06Zm-51.93-1.29c-.15,1.26.33,1.9,1.29,2.06.77-.18.86-1.02.77-2.06-.8-.66-1.2-.38-2.06,0Zm160.41.77c.13,1.07,1.07,1.33,2.06,1.54.21-.56.67-.88.51-1.8-.65-.62-2.29-.79-2.57.26Zm-5.65,1.8c1.72.21,2.03-1.05,1.29-2.06-1.53-.31-1.79,1.05-1.29,2.06Zm-115.94.51c.47-.89-.12-1.37-.26-2.32-3.16-.29-2.32,3.38.26,2.32Zm7.71.77c1.38-.24,2.77-.49,2.57-2.32-1.44-1.94-4.12.34-2.57,2.32Zm145.25-.77c.16.78.57,1.31,1.54,1.29.45-.66,1.19-1.04,1.29-2.06-.95-.68-2.69-.65-2.83.77Zm-165.55.77c.61.47,1.49.67,2.31.26v-1.54c-1-.74-2.74-.7-2.31,1.29Zm29.56-1.29c-.8,2.49,2.51,2.62,2.57.77-1.03-.11.08-.88-.77-1.29-1.07-.29-1,.54-1.8.51Zm-52.44,1.29c.76.98,2.87.57,2.31-1.29-1.14-.82-2.23.23-2.31,1.29Zm27.25-1.03c-.18,1.9.69,2.74,2.31,2.83.45-.77.44-2.9-.26-3.34-.94-.09-1.43.29-2.05.51Zm-39.08,1.54c.77.31,1.64.51,2.31.26.61-2.82-2.43-2.26-2.31-.26Zm30.33.51c1.77.14,1.58.59,2.83-.26v-1.29c-1.04-1.14-3.37-.47-2.83,1.54Zm-24.94,1.54c1.36.16,2.17-.23,2.31-1.29-.11-.49-.55-.65-.51-1.29-1.71-.34-2.05,1.78-1.8,2.57Zm160.93-.26c1.06-.05,1.66-.57,1.8-1.54-.26-.6-.88-.83-1.8-.77-.2.61-.51,1.78,0,2.31Zm-107.46.26c1.25,1.24,3.85,1.07,4.12-.77,0-.77-.67-.88-.77-1.54-2.29-.4-2.91.86-3.34,2.31Zm9.26-.26c1.24.78,2.46-.37,2.31-1.8-1.13-.67-2.54.29-2.31,1.8Zm-25.19-.26c.21,1.9,3.14,1.99,3.34,0-.29-1.08-1-1.74-2.57-1.54-.11.67-.77.78-.77,1.54Zm6.68.77c.08.46.63.57.77,1.29,1.25-.29,2.16-.93,2.57-2.06-1.3-1.68-3.74-1.63-3.34.77Zm121.08-.77c.61.85,1,1.91,2.05,2.31.18-.94.36-1.87.26-3.09-.8.03-.73-.81-1.8-.51.19.79-.7.49-.51,1.29Zm-161.7,1.54c.64.3,1.51.37,2.31.51,1.41-2.45-2.97-4.18-2.31-.51Zm17.22-.51c1,.25,2.68.9,3.34,0,.56-2.27-4.01-2.63-3.34,0Zm170.7.26c.38.65.64,1.42,1.29,1.8.46-.73,1.26-1.14,1.03-2.57-.58-1.22-2.3-.68-2.31.77Zm5.4,1.54c.43.43,1.51.2,2.31.26-.02-1.44.11-3.02-1.03-3.34h-.52c-.27,1.02-.75,1.82-.77,3.09Zm-43.19-1.8c.17,1.2,1.08,1.66,2.31,1.8.53-.42.6-1.29.52-2.32-.99-.74-2.16.12-2.83.51Zm-124.42,1.54c.49.11,1.11.09,1.03.77.85-.27,1.43-.8,1.8-1.54-.21-1.08-1.42-1.15-2.83-1.03v1.8Zm20.82.26c1.35-.11,2.38-.53,2.31-2.06-1.63-.17-2.66.25-2.31,2.06Zm46.27,0c1.07.53,1.97-.35,2.05-1.54-.98-.95-2.34-.18-2.05,1.54Zm4.11.51c.82.28,2.59-.42,2.57-1.8-.8-.05-.87-.85-1.8-.77-1.13.98.73,1.97-.77,2.57Zm-57.07,1.03c.74-.77.85-3.01-1.03-2.57-.82,1.08-.09,2.13,1.03,2.57Zm55.79-1.8c.75.38.75-1.15,0-.77v.77Zm59.9-.26c.13.81.45,1.44.77,2.06.81.12,1-.37,1.54-.51v-2.06c-1.28-.33-1.26.62-2.31.51Zm4.63,3.09c1.98.35,2.03-1.23,2.31-2.57-.94,0-1.15-.73-1.8-1.03-.66.76-1.04,2.44-.51,3.6Zm-146.53-3.09c.1,1.45.95,2.91,2.57,2.06.11-1.05-.24-1.65-.52-2.32-.74.03-1.68-.14-2.06.26Zm7.97.26c-.2,1.58,1.01,1.73,2.31,1.8.45-.43-.23-.86,0-1.8-.88-.39-1.63-.6-2.31,0Zm9.77,2.06c.98.12,1.64-.07,2.06-.51.38-3.14-3.27-1.77-2.06.51Zm25.96-1.8c-.15,1.36.23,2.17,1.29,2.31.12-1.16,1.77-.8,1.29-2.57-.7-.57-2.06-.16-2.57.26Zm-64.01,1.29c.81-.12.58.79,1.54.51,1.32-1.8-1.85-3.03-1.54-.51Zm196.4,1.29c1.04.25,1.83.74,2.83,1.03-.05-.56.21-.82.77-.77-.19-1.87-2.27-1.85-3.34-2.83-.46.49-.19,1.7-.26,2.57Zm-137.02-1.8c.02.45-.06.8-.26,1.03.67.48,2.46.36,2.83-.26.19-.79-.71-.49-.51-1.29-.79.06-1.45.26-2.06.52Zm42.16,1.8c.34.3,1.63.12,1.54-.77-.07-.53-.69-.51-1.03-.77-.23.46-.72.65-.52,1.54Zm-77.63.77c.27.85,1.45.78,2.06,1.29.63-.74,1.37-1.37,1.28-2.83-1.22-1.04-2.95.24-3.34,1.54Zm71.47-.26c.78.75,1.86.36,2.57-.26v-1.54c-1.53-.07-2.73.18-2.57,1.8Zm-53.21,1.29c.83-.37,2.38-.02,2.31-1.29-.44-2.54-3.79-1.31-2.31,1.29Zm-33.16-.77c-3.03-2.3-4.56-2.38-5.66,1.29,1.51,2.01,3.44,3.59,5.14,5.4,1.74-.06,2.38,2.18,3.86,1.55.03.4-.04.89.51.77,2.11.14,1.72-2.23,2.06-3.86-1.49-1.44-4-3.69-5.91-5.14Zm80.46.26c1.03.64,2.71.07,2.83-1.03-.66-1.69-2.98-.91-2.83,1.03Zm15.43-1.29c.05-.56-.21-.82-.77-.77-.05.56.21.82.77.77Zm49.36-.51c-.45.58-.62,1.44-.52,2.57.76.33,1.69-.02,2.31-.51-.28-1.75.03-1.38.51-2.06-.76-.35-1.12.15-2.31,0Zm-136.76,2.57c.37.4,1.32.23,2.06.26.01-.84.73-.98.51-2.06-1.18-1.29-3.08-.61-2.57,1.8Zm38.82-1.8c-4.14-1.56-9.13,1.22-10.8,3.86.18,1.51-.67,2.67-.77,4.12-.19,2.74,1.02,5.87,2.31,7.46,1.68,2.06,3.54,3.41,7.45,2.83,4.12-1.72,8.28-3.56,7.97-9.26-.09-1.54-.99-2.66-.77-4.37-.53-.07-.51-.69-.77-1.03-1.73-.73-2.49-2.8-4.62-3.6Zm134.19,2.83c2.07.67,2.36-1.48,4.63-1.03-.02-.92-.4-1.49-.51-2.32-2.79-.3-3.14,1.83-4.11,3.34Zm-105.92-2.83c-.51.41-.76,1.94-.26,2.57,1.56.01,2.45-.64,2.57-2.06-.07-.86-1.68-1.02-2.31-.51Zm76.35,0c-1.12.8-1.7,2.37-.51,3.6,1.49-.22,2.09-3.17.51-3.6Zm8.48.26c.11,1.43.81,2.28,2.57,2.06.08-1.03.02-1.9-.51-2.32-.97-.2-1.23.31-2.06.26Zm-4.88,1.54c.16.95.79,1.43,2.06,1.29,1.14-2.12-1.49-3.45-2.06-1.29Zm-137.54,1.8c-1.42,2.08-2.42,4.82-1.8,8.23.97,1,1.76,2.18,2.31,3.6,1.82.06,2.1,1.67,3.6,2.06,3.33-.22,6.18,1.26,8.48.26,1.62-.71,2.96-2.97,3.08-5.4.07-1.43-.56-5.96-1.03-6.95-1-2.1-1.74-2.54-3.34-3.6-3.62-1.53-9.69-1.47-11.31,1.8Zm-28.28-.52c.49-.06.57.29,1.03.26.65-.29.74-1.14.77-2.06-1.12-.8-2.19.28-1.8,1.8Zm65.04.52c.51-.69,1.39-1.01,1.03-2.57h-1.8c-.01,1.13-.18,2.41.77,2.57Zm99.49-2.32c-.2.06-.51,0-.51.26.2-.06.51,0,.51-.26Zm35.99,2.83c.47.88,1.52,1.75,2.83,1.03.91-1.28-1.01-1.83-.51-3.09-1.05.41-2,.92-2.31,2.06Zm-177.64.77c.6-.08.99.04,1.29.26.16-.96,1.05-1.18.77-2.57-1.69-1.06-2.95.69-2.05,2.31Zm77.63-2.06v2.06c1.53.16,1.93-.81,2.06-2.06-.54-.72-1.32-.37-2.06,0Zm-5.66,1.03c.44.85.71,1.86,2.31,1.54,1.25-2.21-1.62-3.89-2.31-1.54Zm58.62,2.06c.7-.33.78-1.28.77-2.31-2.43-2.08-3.51,2.15-.77,2.31Zm-86.38-.77c.5.36,1.65.84,2.31.26-.27-.59-.16-1.55-.52-2.06-1.44-.24-1.57.83-1.8,1.8Zm94.35,1.29c1.6.4,3.27.9,3.08-1.54-1.1.07-.96-1.1-1.8-1.29-.49.88-.27,2.47-1.28,2.83Zm-143.7-.77c.51,0,.33.7,1.03.52,1.28-.28,1.22-1.06,1.03-2.32-1.22.11-2.26-.17-2.06,1.8Zm70.95-.77h.77c.07-.67-.09-1.11-.77-1.03v1.03Zm-5.66.52c.11.92.82,1.24,1.8,1.29.88-.32,1.2-1.2,1.03-2.57-1.59-.22-2.49.25-2.83,1.29Zm85.86-1.29c-.08.35-.37.49-.26,1.03.72.41.71-1.11.26-1.03Zm-1.29,0c-.69.77.06,1.65.26,2.31-1.01.45-2.26.65-2.06,2.32.82.57,2.29.01,2.57-.77-.86-1.51,1.09-3.12-.77-3.86Zm3.09,2.06c.95-.18,1.1.44,2.06.26.35-.33.25-1.12.26-1.8-1.21-.77-2.74-.61-2.31,1.54Zm20.82.26c1.62.43,1.28-1.12,1.28-2.31-1.77-.64-1.83,1.45-1.28,2.31Zm-34.19.52h1.54c.4-.38.22-1.32.26-2.06-.62-.15-1.17-.37-2.06-.26.05.8-.17,1.89.26,2.31Zm38.56-1.03c1.22-.06,2.9.33,3.08-.77-.89-.31-1.93-.47-3.08-.51v1.29Zm-174.55,2.57c1.04.65,2.76.12,2.57-1.29-.67-1.52-3.11-1.07-2.57,1.29Zm70.44,0c.46.71,2.02.6,2.83.26.08-1.28-.19-2.21-1.03-2.57-1.52-.15-1.85.89-1.8,2.31Zm5.4,0c.97.11,1.17-.54,1.54-1.03-.48.06-.57-.29-1.03-.26.19.79-.7.49-.52,1.29Zm101.03.26c.4.62,1.09.96,2.05,1.03.49-.37,1.14-.57,1.03-1.54-.52-1.52-2.61-.78-3.08.51Zm-126.99,1.54c-.5-.82.17-1.66-.26-2.83h-1.03c-.04,1.26.06,3.7,1.29,2.83Zm77.12-1.29c.13,1.16,1.45,1.12,2.32,1.54.18-.93,1.13-1.1.77-2.57-.9-.83-3.25-.68-3.09,1.03Zm4.63-.77c.66,1.01.06,1.87,1.54,1.03-.08.6.04.99.26,1.29h1.29c.96-1.06.35-3.14-1.29-3.09-.09,1.66-.69,1-1.8.77Zm-67.35.77c-.37,1.58,1.96,1.5,2.83,1.03.11-.88-.1-1.44-.26-2.06-1.09-.29-2.1.04-2.57,1.03Zm75.06,1.8c.81.12,1.01-.37,1.54-.52.06-1.09-.02-2.04-.77-2.31-.81.49-1.98,1.83-.77,2.83Zm36.25-2.57c.3,1.02.3-1.02,0,0h0Zm-130.08,2.57c1.64.4,1.72-2.45.26-2.32-.36.5-.84,1.66-.26,2.32Zm97.43.51c.41.79.86,1.54,1.8,1.8.49-.62.76-1.47.77-2.57-.88-1.12-1.71.38-2.57.77Zm-147.56,1.29c.74-.03,1.68.14,2.06-.26v-1.8c-.62.11-.56-.47-1.29-.26.03,1.06-1.03,1.03-.77,2.32Zm3.86,0c.68,0,1.47.1,1.8-.26v-1.29c-.38-.4-1.31-.23-2.06-.26-.15.84.18,1.2.26,1.8Zm52.44,0c.12-.98-.11-1.61-.77-1.8-.48.46-.59,1.3-.77,2.06.49.11.46.73,1.29.51.7-.43-.91-1.31.26-.77Zm-66.07-1.29c-1.46,1.64-.87,4.09-2.06,5.66-2.51,9.6-.61,20.8,2.83,28.04,4.17,4.83,7.17,10.83,12.85,14.15,3.14,5,6.89,9.4,9.77,14.66.97,4.08,2.36,7.7,1.54,11.83-.16.81-.92,1.44-1.54,2.57-.51.92-.71,2.11-1.28,2.83-.31.39-1.27,1.02-1.8,1.54-.75.73-1.27,1.3-1.8,1.54-1.45.66-4.77,1.29-5.91,1.29-2.46-.02-4.21-1.3-6.68-1.8-1.25-.95-1.47-1.98-2.57-3.34-.55-.68-1.41-1.19-1.8-1.8-1.29-2.03-1.55-4.36,0-6.43,1.09,1.57,2.99,2.33,5.91,2.06,3.14-.83,3.25-6.15-.26-6.69-1.09-.14-2.41,1.32-3.09,0,.81-3.68,6.71-2.94,10.03-2.06,1.27.44,1.43,2,3.34,1.8.29-5.77-4.04-6.93-7.71-8.75-1.16-.3-.57,1.14-1.8.77-.83-.03-.55-1.17-1.8-.77-1.84.13-2.65,1.29-4.37,1.54-2.01,2.11-3.38,4.85-4.88,7.46-1.19,5.2.02,10.22,1.54,14.15,1.59.83,2.47,2.35,4.11,3.35,1.43.87,3.85,1.17,4.11,3.34-3.63,1.85-7.98,2.99-9.77,6.69-.07,2.42-.72,4.26-1.54,5.92v4.12c1.01,1.97,3.04,4.46,5.66,4.37,1.63-.05,2.79-1.49,4.11-2.31-1.06-1.52-2.87,0-4.63,0-2.63-1.32-2.37-5.04-2.06-8.75,4.81-7.19,15.42-8.58,23.91-12.09.75-1.39,1.9-2.39,3.08-3.34,2.52-3.39,3.01-9.62,2.31-15.44-.99-2.29-1.75-4.91-2.31-6.95-1.47-1.19-2.08-3.23-2.83-5.15-.98-2.04-4.46-2.89-3.6-5.92,1.49-.12,2.42.33,3.09,1.03,1.22-.13,1.41-.25,2.05.51,2.44-.57,5.42.47,7.97.26.59-.05,1.34-.62,2.31-.77,1.46-.23,1.7-.17,2.57-.52,1.91-.75,3.03-1.73,4.37-2.57.63-.39,1.58-.46,2.06-.77,1.63-1.05,1.93-2.04,3.08-3.6,2.17-2.95,4.16-6.6,2.83-11.83-3.65.72-2.49,6.26-4.37,8.75-2.92,2.91-5.98,5.68-10.28,7.2-3.42.2-5.73,1.27-8.74.77-2.15-.35-4.25-2.39-7.45-1.54-1.33-.9-2.92-1.54-3.6-3.09-4.51-1.18-6.54-3.6-9-6.95-1.06-1.45-2.18-2.92-2.83-4.37-3.11-7.03-3.63-16.41-2.31-25.21.83-1.06,1.09-2.68,1.29-4.37-.6-.43-1.09-.96-2.06-1.03Zm82.78,1.29c.41,1.39,2.2,1.4,3.6,1.8.39-.72-.09-1.06.26-2.06-.79-1.27-3.26-1.25-3.86.26Zm54.76-.52c.5,1.26.55,1.84-.26,2.83.96-.1,1.51.21,1.54,1.03,1.69-.14,2.16.93,3.6,1.03.6-.6,1.55-.84,1.54-2.06-.25-1.03-1.76-.81-1.54-2.31-1.8.19-3.79-2.43-4.88-.52Zm55.78,2.83c1.42,1.1,3.71.75,4.37-.77-.26-3.03-5.07-3.52-4.37.77Zm-197.95-1.8c.34.33.95.33,1.29,0,.29-1.49-1.41-1.07-1.29,0Zm156.81-1.03c-2.66,1.54-4.14,4.26-6.68,5.92-1.15,3.83-4.86,5.08-5.14,9.78.64-.04.8.4,1.03.77,1.86.27,2.92-1.24,3.86-2.06,1.02-.88,2.38-1.68,2.83-3.09,1.38-.51,1.96-1.82,2.83-2.83.35-.08.49-.37,1.03-.26.03-1.7,1.43-2.84,2.83-3.86-.02-1.52.5-2.52,0-3.86-1.07.04-2.15.09-2.57-.52Zm-148.59,2.57c.6.55,2.04.77,2.57,0,.49-2.73-3.01-2.48-2.57,0Zm65.55.26h1.54c.06-.83-.46-1.09-.26-2.06h-1.54c.03.74-.14,1.68.26,2.06Zm-53.21,1.29c1.01.15,1.49-.22,2.05-.51v-1.8c-1.8-.87-2.85.76-2.05,2.31Zm44.73-.51c.81-.12.91.46,1.8.26.42-.62.65-1.25.26-2.06-1.39-.1-2.34.23-2.06,1.8Zm13.37-1.29c-.04.63-.04,1.24.26,1.54.45-.02.8.06,1.03.26.44-.41.64-1.08.51-2.06-.68,0-1.47-.1-1.8.26Zm4.63.51c.24.45.8.57,1.54.52-.14-.38.3-1.33-.26-1.29.04.73-1.68-.31-1.29.77Zm80.72,1.54c.62.49,1.25-.28,2.06.26.56-1,.56-1.32,0-2.31-1.81-.52-2.42,1.23-2.06,2.06Zm-166.58.52c.6,0,.76.44,1.54.26.84-1.23-.3-2.35-1.54-2.32v2.06Zm19.28,1.29c1.45,0,1.27-1.64,1.28-3.09-2.36-.67-2.84,1.92-1.28,3.09Zm45.5,0c2.25.6,2.1-3.69-.26-2.83.22,1.37-.62,2.2.26,2.83Zm8.23-.51c1.15-.37.42-1.08.51-2.31-1.96-.7-2.02,2.44-.51,2.31Zm71.21-.77c.3-.39.9-1.08,0-1.29-.15.16-.6,1.22,0,1.29Zm21.08-1.03c-.22,1.52.15-1.03,0,0h0Zm-150.39.77c.18.79.18.49,0,1.29,1.57,1.33,3.02-1.56,1.29-2.06-.38.3-.63.74-1.29.77Zm74.81,1.29c.9-.14.41-1.49.26-2.06h-.77c-.19.6-.7,2.2.52,2.06Zm-12.6,1.29c1.12.18,1.75-.13,2.06-.77.26-2.87-2.64-1.56-2.06.77Zm63.75-2.31c0,.68-.1,1.47.26,1.8,1.43.37,1.56-1.53,1.29-2.06-.63-.03-1.24-.04-1.54.26Zm55.01,1.29c1.48-.02,1.63,1.28,2.83,1.54.11-.32.33-.53.77-.52.42-2.98-2.96-3.01-3.6-1.03Zm-112.08-.51c.12,2.25,2.8,2.87,2.83.26-.69.18-.5-.53-.77-.77-.94-.09-1.43.29-2.06.51Zm78.92.77c.11-.4.81-.22.51-1.03-.65-.27-1.14.87-.51,1.03Zm1.54-.26v1.8c.46.48,1.3.59,2.06.77,0-.94,1.98-1.26,1.03-2.31-.62.85-1.2-.5-1.54-.77-.11.58-1.36,0-1.54.51Zm36.5.77c.29.91.57,1.84,1.29,2.31.04-.47.87-.16,1.03-.52-1.16-.91-.66-1.82-.77-2.83-.41.45-.96.75-1.54,1.03Zm-189.72,2.06c.74-.03,1.68.14,2.06-.26.63-1.4-.08-2.99-2.06-2.57-.71.46-.71,2.37,0,2.83Zm10.29-.26c-1.04,2.56-1.93,5.27-2.83,7.98.89.13.89,1.17,1.03,2.06.88,1,1.76,2.02,2.57,3.09,1.4.14,2.18.91,3.09,1.54,2.73.94,5.1-.35,6.43-1.29.43-.3,1.36-.37,1.54-.52.25-.2.4-.91.77-1.29,1.01-1.02,1.26-1.22,2.06-2.31,1.09-1.49,2.46-3.64,2.06-5.66-.35-1.03-.98-1.76-1.29-2.83-3.13-1.55-7.39-4.25-11.57-3.09-1.73.33-2.78,1.33-3.85,2.31Zm47.55.26c.07-.53,1.13-.07,1.29-.51.34-3.62-4.19-.71-1.29.51Zm-20.05-1.29h.52c.01-.33.33-.36.25-.77h-.77v.77Zm24.94-.52v1.8c.59.6.83-.48,1.8-.26v-1.54c-.94.23-1.37-.45-1.8,0Zm71.47,0c-.26.67-.06,1.55.26,2.32,2.23.47,2.04-3.76-.26-2.32Zm23.65,2.32c1.05-.15,2.16-.24,2.06-1.54-.49-.29-.9-.64-1.54-.77-.28.67-.62,1.26-.51,2.32Zm-127.25,2.06c.76,1.63,2.27,2.53,3.86,3.34,3.01-.68,3.89-5.9.77-7.2-3.16-.34-4.58,1.07-4.63,3.86Zm38.3-2.06c.54.31.75.97,1.54,1.03.15-.54.64-.73.51-1.54-.35-1.14-2.33-1.4-2.06.52Zm-64.01-1.03c-.12,1.24.41,1.82,1.29,2.06.56-.38,1.2-.68,1.03-1.8-.34-.52-1.72-.78-2.31-.26Zm36.76,1.8c-.74,1.91-1.68,3.64-2.06,5.92,1.25,2.95,2.82,5.58,4.11,8.49,2.1.13,3.79,1.88,5.91,2.06,1.98.17,3.33-.99,5.4-1.29,1.67-3.19,4.08-6.52,3.34-11.32-1.28-.87-1.52-2.54-2.57-3.6-1.08-1.08-2.74-1.43-4.11-2.31-3.51-.23-7.43.61-10.03,2.06Zm88.18-1.29c.12,1.01-.54,1.34.26,1.8,1.04-.16,1.34-1.06,2.06-1.54.26,0,.3.21.51.26-.07-.88-1.16-.73-1.54-1.29-.23.45-.9.47-1.29.77Zm-140.88-.26c-.06,1,.55,1.33.77,2.06.6-.08.99.04,1.29.26.44-.42.64-1.08.51-2.06-.35-.57-1.94-.76-2.57-.26Zm193.32,1.03c-.1,1.97,2.09,2.18,3.6,1.8-.16-.62-.37-1.18-.26-2.06-1.41.47-.81-1.07-1.8-1.03.06,1-.96.93-1.54,1.29Zm-105.66,1.8c1.39-.21,1.29-1.23,1.03-2.57h-1.54c-.21.83-.25,1.82.51,2.57Zm-16.2.77c.88.47,1.23-.04,2.31,0,.42-.93-.04-1.25.26-2.06-.43-.43-1.51-.21-2.31-.26-.22.64-.34,1.38-.26,2.32Zm5.65.51c.86-.17,1.4-.66,1.29-1.8-.75.07-.79-.58-1.54-.52.31.78-.21,1.38.26,2.32Zm59.64.26c.75.07.79-.58,1.54-.52.55-3.69-3.32-1.12-1.54.52Zm61.44-.26c.67.39,2.24.85,3.09.26.11-1.66-.58-2.5-2.06-2.57-.62.49-1.17,1.06-1.03,2.32Zm-184.84-1.8c-1.63.28-1.37,2.73-.26,3.34,1.6-.18,2.21-3.06.26-3.34Zm156.56,2.57c.93.53,1.74,1.17,3.34,1.03-.53-.93-.52-2.39-1.29-3.09-1.64-.27-2.33.41-2.05,2.06Zm-87.15,0c.47.39,1.59.91,2.06.52.61-2.71-2.14-2.84-2.06-.52Zm59.64,1.8c2.43-.09,2.63-2.56.26-2.83-.21.79-.95,1.95-.26,2.83Zm-132.91,1.8c.94.17,1.37-.17,1.8-.51.06-1.43-.49-2.25-.77-3.35h-.77c-.53.85-.14,2.61-.26,3.86Zm193.06-3.34c-.29,1.34-1.33,1.94-1.54,3.34,2.11,2.27,4.86-3.14,1.54-3.34Zm-202.57,1.8c.7.19.52-.51,1.03-.52-.09-.6-.17-1.2-1.03-1.03-.35.33-.35,1.21,0,1.54Zm72.24,1.03c.38-.13.65-.38,1.03-.51.04-1.32-.63-1.94-1.8-2.06-.78.8-.53,2.47.77,2.57Zm59.9.51c1.19.08,1.78-.45,1.8-1.54-.64-1.87-3.05.05-1.8,1.54Zm5.91.26c.79-.07,1.16-.56,1.8-.77-.23-.8-.26-1.79-1.29-1.8h-.52c-.04.82-.6,1.9,0,2.57Zm-63.24-2.06c.02,1.48.82,2.21,2.06,1.8.29-.3.29-.91.26-1.54-.34-.52-1.72-.78-2.31-.26Zm6.17,2.32c.99-.04,1.48-.58,1.8-1.29-.16-.95-.79-1.43-2.06-1.29-.5.63-.32,2.22.26,2.57Zm112.85-.26c.3.12.58.27.77.52.95-.25,1.8-.6,1.8-1.8-.78-1.64-2.96-.92-2.57,1.29Zm-179.18.77c.84-.19,1.59-.47,2.31-.77.15-.84-.18-1.2-.26-1.8-1.84-.3-2.26.83-2.06,2.57Zm144.22.52c1.42,1.19,2.99-.4,3.34-1.8-1.07-.3-1.6-1.14-3.09-1.03-.31.72-.28,1.78-.26,2.83Zm-3.6.77c.31-.37.98-.39,1.28-.77.23-1.09-.67-1.82,0-2.57-2.32-.49-2.84,1.95-1.28,3.34Zm18-2.06c.38.3.63.74,1.29.77.46-.4,1.29-.43,1.03-1.54-.7-.51-2.38-.29-2.31.77Zm-138.05,5.15c-.12,1.16-.92,1.65-1.54,2.31-.12,3.29.4,4.56,1.03,7.46,1.55,1.63,4.2,2.15,5.14,4.38,1.07-.43,2.14.56,3.86.26,2.85-.92,4.13-3.41,6.68-4.63,2.43-4.4,2.02-11.51-2.31-13.63-2.65-.52-4.92-1.43-8.23-1.29-.66,2.6-3.09,3.42-4.63,5.15Zm162.98-2.57c.68,0,1.47.1,1.8-.26.15-1.01-.22-1.49-.51-2.06-2.02-.72-2.23,1.59-1.29,2.31Zm-198.46.26c1-.17,1.22-1.4.77-2.31h-1.03c-.42.83-.21,1.7.26,2.31Zm145.25,0c.94.63,2.38-.08,3.08-.52-.7-.76-.99-1.92-2.57-1.8.13,1.08-.45,1.44-.51,2.31Zm-4.37.52c.8.06,1.64.44,2.31.26.27-1.9-.35-2.9-2.06-2.83-.46.49-.19,1.7-.26,2.57Zm-5.14-2.06c-.15.62-.37,1.17-.26,2.06,1.15.2,2.67-1.66,1.29-2.32-.05.38-.62.23-1.03.26Zm14.91,1.29c.38.38,1.68.38,2.06,0,.11-.62-.47-.56-.26-1.29-1.14-.11-1.63.43-1.8,1.29Zm-71.72,1.03c.24-.62,1.03-.68.77-1.8-1.33-.15-2.16,1.35-.77,1.8Zm50.13.26c.66.78,2.17,1.85,3.6,1.03.51-2.44-3.89-4.79-3.6-1.03Zm-117.48.77c1.62.24,2.05-.7,2.32-1.8-.88-.06-1.24-.65-2.32-.52-.31.73-.31,1.59,0,2.32Zm61.7-.26c1.01-.02,1.74-.31,1.54-1.54-.34-.26-.95-.25-1.29-.52-.18.62-.73,1.56-.26,2.06Zm-57.33-1.8c-1.09.21-.59,2.6,0,3.34h1.54c1.09-1.27.35-3.54-1.54-3.34Zm147.05,2.57c.97-.06,1.39-.67,1.29-1.8-.62.1-.56-.47-1.29-.26-.32.79-.66,1.57,0,2.06Zm-4.63,1.54c1.19-.09,1.7-.88,2.06-1.8-.58-.36-.21-1.68-1.29-1.54h-.51c-.37.83-.24,2.16-.26,3.34Zm35.22-1.29c.63.62,2.38,1.2,3.09.26-.06-2.2-3-2.74-3.09-.26Zm-50.39,1.8c.3.04.73-.04.77.26,1.16-.12,1.83-.74,1.8-2.06-.49-.54-.99-1.07-1.8-1.29-.17,1.12-.63,1.94-.77,3.09Zm9.25-.51c.92,1.2,2.17.89,3.6.51-.17-1.25.45-1.71,0-2.57-1.75-.71-2.95.87-3.6,2.06Zm47.56-.26c.2.4.82.38.77,1.03.88-.23,1.66-.57,2.32-1.03.11-.88-.1-1.44-.26-2.06-1.79-.16-2.58.68-2.83,2.06Zm-129.05-1.8c-.62.73-1.11,2.16-.52,3.34,1.8.27,2.74-3.29.52-3.34Zm67.35,1.03c-.26,1.12.29,1.43.52,2.06,1.14.34,1.56-2.4.51-2.57-.04.47-.87.16-1.03.51Zm12.34,1.54c.36-.33.26-1.12.26-1.8-2.18-1.32-2.81,2.19-.26,1.8Zm-74.55.52c1.1-.02,1.48-.75,1.29-2.06h-1.29c.12,1.14-.35,1.28,0,2.06Zm-74.3,0c.23-.46.72-.66.52-1.54-.31-.3-.91-.29-1.55-.26-.22,1.17.29,1.6,1.03,1.8Zm131.88.51c.94.17,1.37-.17,1.8-.51-.19-.59-.23-1.31-.51-1.8h-1.29c.03,1.28-.25,1.26,0,2.32Zm-5.65.26c.04-.47.87-.16,1.03-.51.21-.89-.38-.99-.26-1.8-1.83-.48-1.9,1.93-.77,2.31Zm33.16-.77c-.12.81.37,1,.52,1.54h1.29c.15-.54.64-.73.51-1.54-.79-.7-1.28-.24-2.31,0Zm4.88,2.06c1.04.1,1.79-.1,1.8-1.03-.2-2.29-3.12-.87-1.8,1.03Zm30.34-.26c.34.26.96.24,1.03.77.79-.07,1.16-.56,1.8-.77-.04-.73-.47-1.07-.51-1.8-.81.12-.91-.46-1.8-.26.19,1.05-.83.89-.51,2.06Zm-178.41,1.03c.44-.01.66.2.77.52,1.69.05,1.65-3.06.26-3.34-1.25.04-1.01,1.56-1.03,2.83Zm4.63,0c1.11.17,1.44-.44,2.06-.77.15-1.01-.22-1.5-.52-2.06-1.99-.19-2.28,1.64-1.54,2.83Zm135.99-2.06c.96.26,1.75-.53.77-.77.1.62-1.17-.14-.77.77Zm-147.05,1.29c.9.4,1.97-.14,1.8-1.54-.33-.36-1.12-.25-1.8-.26v1.8Zm153.47-1.29c-.3.04-.73-.04-.77.26.3-.04.73.05.77-.26Zm-41.9,3.09c1.21.19,1.69-.37,2.31-.77-.06-.79-.26-1.45-.51-2.06-1.91-.36-1.62,1.46-1.8,2.83Zm-51.41.26c1.14-.06,1.84-.56,2.05-1.54-.72-2.27-3.84-.11-2.05,1.54Zm58.87-2.31c-.2,1.16,1.72.96,1.29-.26-.6-.08-.99.04-1.29.26Zm-66.84,2.57c.33.35,1.12.25,1.8.26,1.4-2.65-2.29-3.46-1.8-.26Zm-62.73,0c.51-.51.16-1.47,0-2.06h-1.03c-.44.9-.02,1.93,1.03,2.06Zm26.99.51c.52-.51.88-1.18.77-2.32-1.89-1.61-3.16,2.55-.77,2.32Zm3.34,0c.35-.78.41-2.12-.26-2.57h-.77c-.61.93-.09,2.55,1.03,2.57Zm164.01-2.06h.51v-.52h-.51v.52Zm-126.22,2.06c.6-.85,0-2.29-1.03-2.32h-.52c.02,1.27.38,2.19,1.54,2.32Zm-54.5.77c1.57.28,1.68-.89,1.8-2.06-.63-.14-.55-1-1.54-.77-.47.52-.81,2.09-.26,2.83Zm154.5-1.03c.62.24.68,1.03,1.8.77.43-.85.15-1.64,0-2.57h-1.54c.21.89-.38.99-.26,1.8Zm-42.42.77c1.34.14,1.31-1.09,1.29-2.31h-1.03c-.19.67-.79,1.7-.26,2.31Zm67.35-1.03c.46,1.34.63,2.97,1.8,3.6.77-1.78.49-4.1-1.03-4.89-.08.61-.89.48-.77,1.29Zm6.43.51c.52.08.68.51,1.03.77.59-.27.91-.8,1.8-.77.15-.92-.3-1.24-.51-1.8-1.66-.29-2.09.66-2.31,1.8Zm-197.69,1.54c.76.58,1.04.58,1.8,0,.19-.79-.44-.76-.26-1.54-.79.18-.49.18-1.29,0,.04.63.04,1.24-.26,1.54Zm56.81.77c.33.44.53,1.01,1.29,1.03.84-.45,1.04-1.54,1.03-2.83-.99-1.13-2.19.52-2.31,1.8Zm61.96,0c.8.03,1.23-.31,1.8-.51.11-.62-.47-.56-.26-1.29-1.08-.74-2.4.67-1.54,1.8Zm-100.26.77c1.34.22,1.82-.4,1.8-1.54-.14-.72-.99-.72-1.54-1.03-.42.51-.83,1.87-.26,2.57Zm180.72-1.29c.49-.06.57.29,1.03.26-.15-.45.31-1.51-.26-1.54-.23.46-.62.75-.77,1.29Zm-4.37,1.54c1.2-.4,1.46.82,2.06.26.04-1.33-.23-2.35-1.54-2.32-.29.56-.66,1.05-.51,2.06Zm-179.44,1.03c.58-.27.94-.78,1.03-1.54-1.18-2.71-3.63.84-1.03,1.54Zm11.57-1.8c.07.87-.2,2.09.26,2.57.43.45.86-.23,1.8,0,.08-1.89-.3-3.15-2.06-2.57Zm33.93,1.54h1.29c-.12-.81.46-.91.26-1.8-1.54-.47-2.24.85-1.54,1.8Zm5.65,1.54c.47-.86.46-3.1-.51-3.35-1.08.59-1.15,3.36.51,3.35Zm-42.67-.26c1.05-.74-.28-1.64.26-2.57-1.21-.26-1.46.42-2.06.77.24.95.6,1.8,1.8,1.8Zm-25.45-.26c.57-.76.25-2.35-1.03-2.06-.53.71-.21,2.3,1.03,2.06Zm116.2-1.54c-.21.89.38.99.26,1.8,1.44.04,1.93-.63,1.54-1.8-.34-.37-1.46-.37-1.8,0Zm27.51,3.34c-.18-.69.53-.5.77-.77-.47-.81.27-2.85-1.03-2.83-.34.97-1.72,3.3.26,3.6Zm-6.43-.26c.69-.18.5.53.77.77,1.62-.07,2.28-1.85,1.29-3.09-1.9-.44-1.8,1.12-2.06,2.32Zm61.96-.52c.91-.14.63.91,1.54.77.46-.23.75-.62,1.29-.77-.27-1.02-.65-1.92-2.06-1.8-.57.29-.58,1.13-.77,1.8Zm-49.87,1.29c.44-.42.64-1.08.52-2.06-.77-.17-.9-.99-2.06-.77-.73,1.27-.07,3.07,1.54,2.83Zm3.86-.52c1.39.33,1.57-1.52,1.03-2.31h-1.03c-.38.42-.38,1.9,0,2.31Zm-19.54,1.8c1.12-.25,1.98-.76,2.32-1.8-.66-.03-.42-.96-.77-1.29-1.64.34-.22-.79-1.54-.77.6,1.09-1.51,2.63,0,3.86Zm-131.37-3.09c0,1.12.38,1.85,1.29,2.06,1.73-.76.21-3.79-1.29-2.06Zm56.81,0c-.72.5-1.04,1.81-.51,2.83,2.45.67,2.18-2.83.51-2.83Zm134.96,2.06c.61.08.48.89,1.29.77,1.06-.14,1.44-.96,1.29-2.31-1.13-1.28-2.74-.03-2.57,1.55Zm-174.55.51c.6-.08,1.06-.31,1.54-.51v-1.55c-.3-.29-.91-.29-1.54-.26-.39.42-.39,1.9,0,2.32Zm13.37.77c1.54.12,1.79-1.68,1.29-2.83-1.74-.45-1.8,1.85-1.29,2.83Zm30.59-.52c.45-.02.8.06,1.03.26.52-.34.78-1.72.26-2.31-1.27-.15-1.38.85-1.29,2.06Zm92.55-1.29c.03.64.48.8,0,1.29.81.54,2.55.72,3.6.26-.11-.88.1-1.44.26-2.06-1.66-.08-2.9-.5-3.86.51Zm-129.05,3.09c.8-.06,1.45-.26,2.06-.51.12-1.2.3-1.68-.26-2.57-2-.48-2.38,1.82-1.8,3.09Zm18.25-.51c1.03-.25,1.57-1,1.54-2.32-1.33-1.06-2.36,1.23-1.54,2.32Zm-46.27-.77c.34.26.95.25,1.29.52.34-.43.68-.86.51-1.8-1.14-.11-1.63.43-1.8,1.29Zm6.68.52c.54.15.73.64,1.54.51.28-.49.33-1.21.51-1.8-.34-.26-.95-.25-1.28-.51-.57.29-.58,1.13-.77,1.8Zm18.77.77c.75-.28.83-1.22.77-2.31-.3-.29-.91-.29-1.54-.26-.27.76-.23,2.35.77,2.57Zm126.22-.51c.34.46,1.49.8,2.06.26-.06-1.14-.19-2.22-1.29-2.31-.15.79-.55,1.34-.77,2.06Zm13.37.77c.52-.43,1.2-.69,1.29-1.54-.47-.73-.95-1.45-2.31-1.29-.62,1.01-.22,2.88,1.03,2.83Zm-123.65.26c.36.07.29.56.52.77.98.12,1.64-.07,2.06-.51.26-2.64-2.54-2.83-2.57-.26Zm89.98-.26c.7-.19.52.51,1.03.52.78-.65.1-1.15.51-2.06-.35-.08-.49-.37-1.03-.26-.34.43-.68.86-.51,1.8Zm7.2-1.29c-1.25.8-1.91,2.2-3.34,2.83-.45,1.61-.82,3.29-1.28,4.89.75,5.42,5.28,7.06,8.22,10.29,1.22-.11,1.92.31,2.57.77,3.89-.99,6.58-3.19,8.22-6.43-.34-1.67.04-2.05.52-3.34-.53-2.92-2.48-6.13-4.89-7.98-1.78-.8-4.86-2.29-6.17-.77h1.54c.93,1.45,3,1.74,2.57,4.12-.08.45-.75.49-.52,1.29-.85.61-1.66,1.25-2.57,1.8-2.78.12-4.6-.72-5.14-2.83.47-2.07.87-3.42,2.83-4.37-.49-.46-1.7-.19-2.57-.26Zm-24.94,1.03c.72-.05,1.1-.45,1.03-1.29h-.77c.11.62-.47.56-.26,1.29Zm86.63.26c.75.19.8,1.08,2.06.77.23-.63.6-1.12.52-2.06-.64-.22-1.38-.34-2.32-.26.19.79-.26.94-.26,1.54Zm-167.36,2.32c1.19-.42,1.64-1.95.77-3.09-2.64-.92-2.64,3.09-.77,3.09Zm5.14-.26c1.44.1,1.49-1.78,1.03-2.83-2.39-.72-2.52,2.46-1.03,2.83Zm117.48.51c.83.06,1.09-.45,2.06-.26.59-3.92-3.98-2.23-2.06.26Zm4.88-.77c1.26.04,2.99-.14,2.06-2.06-1.54-.16-1.8.95-2.06,2.06Zm8.74-.26c.28.75,1.05,1.01,1.8,1.29.23-.45.58-.8,1.03-1.03.09-1.97-3.07-2.92-2.83-.26Zm-166.33-.26c.16.78.57,1.31,1.54,1.29.77-.18.86-1.02.77-2.06-.88-.64-2.11-.54-2.31.77Zm59.9,1.54c1.56-.07.88-1.72.51-2.57-2.12-.83-2,2.75-.51,2.57Zm64.53-1.54c.04,1.51,1.53,1.55,3.09,1.54,1.27-2.03-2.44-3.76-3.09-1.54Zm69.92-.51c-.2.89.29,1.09.52,1.54,1.12.18,1.42-.46,1.8-1.03-.46-.47-1.48-1.22-2.31-.51Zm-139.08,2.57c.52-.43,1.2-.69,1.29-1.54-1.02-2.71-4.2.96-1.29,1.54Zm85.09-1.54c1.38-.11-.42,1.34.51,1.54.06-.2,0-.51.26-.52.38-.14,1.33.3,1.29-.26-1.35-.06-.27-.77-.26-1.54-.66.2-1.46.26-1.8.77Zm-132.14,2.31c1.26.72,2.73-.27,2.57-1.8-1.34-.63-2.81.08-2.57,1.8Zm111.57-1.29c.1,1.19.94,1.64,2.06,1.8.5-.63.31-2.22-.26-2.57-1.02-.16-1.39.33-1.8.77Zm-123.14,1.29c.43.34.86.68,1.8.52.43-.43.21-1.51.26-2.31-1.58-.3-1.86.71-2.05,1.8Zm110.8.52c.27-.27.53-1.84,0-2.06-.06.48-.66,1.71,0,2.06Zm-103.34-1.54v1.03c.62-.1.56.47,1.29.26.21-.3.34-.69.26-1.29-.33-.35-1.21-.35-1.54,0Zm157.84.26c-.21,1.58.66,2.09,2.06,2.06.56-.38,1.2-.68,1.03-1.8-.53-1.01-2.24-.89-3.08-.26Zm-4.88,2.83c1.07.04,2.14.09,2.57-.51-.11-1.09-.32-2.08-1.29-2.31-1.27.1-1.4,1.34-1.29,2.83Zm-28.28-1.03c.04-.64-.13-1.07-.52-1.29-.41.38-.37,1.47.52,1.29Zm42.93.51c-.28.96.64.73.51,1.54,1.55-.21,3.16-1.57,2.57-3.09-1.42.13-1.87,1.22-3.09,1.54Zm-4.88.77c.14,1.06,1.04,1.37,1.54,2.06,1-1.07,1.61-3.52-.26-4.12-.31.8-1.11,1.12-1.29,2.06Zm-13.11,0c.83-.12,1.49-.39,1.29-1.54-.3-.21-.69-.34-1.29-.26-.36.34-.36,1.46,0,1.8Zm41.39.26c1.52-.41,1.33.9,2.57.77.66-.37,1.46-.6,1.54-1.54-.65-2.36-3.58-.68-4.11.77Zm-71.21-.77c.33.95,1,1.57,1.8,2.06h1.03c1.01-2.43-1.12-3.3-2.83-2.06Zm-73.26,1.29c1.14.11,1.4-.66,1.29-1.8h-1.54c0,.68-.1,1.47.26,1.8Zm3.34-.51c.56.21.57.97,1.28,1.03.7.19.52-.51,1.03-.52.17-.94-.55-.98-.51-1.8-1.19-.17-1.97.09-1.8,1.29Zm-53.21,1.29c1.26.87,2.35-.92,1.54-2.06-1.43-.23-1.69.71-1.54,2.06Zm119.8,1.03c.81-.04.86.69,1.8.52.18-1.29-.15-2.08-.51-2.83h-1.54c-.08.94.04,1.67.26,2.31Zm-115.43.26c1.14.11,1.4-.66,1.29-1.8-.3-.21-.69-.34-1.29-.26-.38.38-.38,1.68,0,2.06Zm4.63-.52c.81.38,1.24-1.48.26-1.29.11.62-.47.56-.26,1.29Zm4.11.77c.91.06,1.34-.37,1.29-1.29-.8-.81-2.1.49-1.29,1.29Zm90.23-1.54c-.77.68-1.91,2.1-1.03,3.6,1.44.24,2.05-.35,2.83-.77-.32-1.23-.79-2.29-1.8-2.83Zm-57.58,2.06c.34.37,1.46.37,1.8,0,.11-1.14-.14-1.92-1.29-1.8-.2.57-.54,1-.51,1.8Zm108.48,0c-.25.87-.65,1.58-1.54,1.8-.54,2.97-3.21,3.82-2.83,7.72,2.2,4.82,6.37,7.58,13.11,7.2.93-.53,1.39-1.53,2.31-2.06,3.45-.73,6.24-3.46,5.66-7.98-.87-.76-.51-2.75-1.29-3.6-.83.03-.55,1.17-1.8.77-.13-.81.46-.91.26-1.8-2.81-3.14-9.3-4.46-13.88-2.06Zm22.88,1.54c1.1-.41.78-2.06.26-2.83-2.44-.63-2.2,3.09-.26,2.83Zm-6.69-2.32c.11,1.01.11,2.12.77,2.57,1.13-.07,1.34-1.06,1.8-1.8-.46-.61-1.58-1.51-2.57-.77Zm-55.01,1.29c.28.58.78.94,1.54,1.03,1.82-1.23-1.56-3.75-1.54-1.03Zm82.78,1.8c.6-.44.75-1.31.77-2.31-.72-.57-1.74-.84-3.09-.77.11,1.69.27,3.34,2.31,3.09Zm-201.03-1.03c.88-.46.53-2.07-.77-1.8.03.82-.25,1.97.77,1.8Zm44.99-1.54c-.42.85-.26,1.96.26,2.57h1.03c.3-.39.74-.63.77-1.29-.36-1.04-.86-1.7-2.06-1.29Zm-6.43.77c-.62.87.86-.62,0,0h0Zm-34.96,1.8c.45-.4,1.37-.35,1.03-1.54-1.19-.49-1.72,1-1.03,1.54Zm119.54-.77c-2.22,2.15-4.67,4.07-5.4,7.72,1.23,4.6,3.53,8.13,7.97,9.52,4.54-.52,8.47-1.64,12.34-2.83.32-1.05.71-2.03,1.54-2.57-.42-.35.27-1.78,0-2.83-.85-2.5-2.27-4.42-3.6-6.43-2.38-.45-3-2.66-5.14-3.35-1.56.64-3.38-.51-4.89.26-1.27-.16-1.36.87-2.83.52Zm-111.05,1.03c.92-.14,1.71-.08,1.8-1.54h-1.8c.21.89-.48,1.09,0,1.54Zm24.68.77h1.03c.51-.7.38-2.47-.77-2.31-.2.67-.79,1.7-.26,2.31Zm-21.08-1.8c-.02.45.06.8.26,1.03,1.07.03,1.4-.5,1.03-1.29-.6-.08-.99.04-1.28.26Zm25.19,0c-.19.79.26.94.26,1.54.73.21.67-.36,1.29-.26-.15-.45.31-1.51-.26-1.54.04.56-.91.12-1.29.26Zm-33.16,2.06c1.26.15,1.38-.85,1.29-2.06h-1.03c-.4.38-.23,1.32-.26,2.06Zm26.74.26c.29-1.07-.54-1-.52-1.8-3.51-.43-.74,4.21.52,1.8Zm13.62.52c1.13-.09,1.57-1.28,1.03-2.32-1.71-.46-1.91,1.67-1.03,2.32Zm54.5,1.03c.92.46,1.52-.39,1.8-1.29-.46-.39.05-1.77-1.03-1.55-.53.67-.81,1.6-.77,2.83Zm-83.03-1.29c1.09.15,1.8-.09,1.54-1.29-.7.25-1.77.11-1.54,1.29Zm156.56,0c.03,1.26.53,2.04,1.54,2.32,1.85-.88-.01-4.05-1.54-2.32Zm-176.61,1.8c1.08.76,2.16-.31,2.06-1.54-1.24-.93-1.8.66-2.06,1.54Zm115.68-.52c.62.24.68,1.04,1.8.77.29-.72.29-1.34,0-2.06-1.25-.22-1.46.6-1.8,1.29Zm-76.09,1.8c.48-.89,1.65-1.09,1.29-2.83-1.79-.45-2.34,2.01-1.29,2.83Zm12.6-1.8h.52v-1.03h-.52v1.03Zm-47.56.77c1.09.23,1.1-.62,1.03-1.55h-.77c-.29.3-.29.91-.26,1.55Zm19.28.77c-.07-1.04-.14-2.09-1.29-2.06-.65.9-.07,2.35,1.29,2.06Zm20.57.52c1.79.02,1.43-1.1,1.29-2.57-1.69-.48-1.85,1.62-1.29,2.57Zm156.81,1.03c-.07-1.1.79-1.27.51-2.57-.74-.12-.8-.91-1.8-.77-.65,1.42-.06,3.14,1.29,3.35Zm-20.05-2.06c.36.92.86,1.71,2.06,1.8.58-.27.93-.78,1.03-1.54-.15-1.18-2.72-1.5-3.08-.25Zm-146.53,1.54c.98.66,2.47,0,2.31-1.29-.48-1.45-2.59-.29-2.31,1.29Zm65.3,1.03c.89-.21.99.38,1.8.26,1.66-2-2.12-3.84-1.8-.26Zm15.17-1.8c-.64.59-.98,1.87-.51,2.83,2.28,1.76,3.29-3.7.51-2.83Zm-66.32,1.8c1.14.12,1.4-.66,1.28-1.8-1.45-.46-1.89,1.01-1.28,1.8Zm128.28-.77c-.17.74-.24,1.98.26,2.83h1.28c.72-1.13-.1-3.87-1.54-2.83Zm-135.48,2.32c1.58.44,2.25-1.04,1.54-2.06-1.19.01-1.76.64-1.54,2.06Zm-40.62.26c1.62.39,2.12-.73,1.54-1.8-1.52-.29-2.14.71-1.54,1.8Zm36.25,1.8c1.95.36,2.22-2.66,1.54-3.35-1.9-.38-2.12,2.08-1.54,3.35Zm-12.08-2.06c.64.04,1.25.05,1.29-.52-.4-.11-.22-.81-1.03-.51-.08.35-.37.49-.26,1.03Zm20.31,2.06h1.29c.46-.83.5-1.3.26-2.32-2.03-.54-2.51,1.3-1.54,2.32Zm155.79.26c.94.17,1.37-.17,1.8-.51.08-.94-.29-1.43-.51-2.06-1.83-.22-1.96,1.62-1.29,2.57Zm-50.39,2.57c.21-1.02-1.1-3.98-2.83-4.37-1.02-.23-1.92.62-3.08.26-.48,1.23-1.64,1.79-1.8,3.35.57,1.57,1.93,2.35,3.34,3.09,1.94-.72,3.98-.43,4.37-2.31Zm-55.79-1.29c.81.79,2.12.39,2.83-.26.46-3.16-3.27-2.55-2.83.26Zm20.31,1.54c1.33-1.44-.08-3.6-1.28-4.12-1.47.75-1.66,4.88,1.28,4.12Zm-14.14-.51c.96.27.73-.64,1.54-.52.11-.88-.1-1.44-.26-2.06h-1.29c-.15,1-.77,2.05,0,2.57Zm-74.81,0c.84.07,1.24-.31,1.29-1.03-.23-.46-.57-.8-1.03-1.03-.64.49-.94,1.6-.26,2.06Zm-26.48,0c.21-.19.69-1.78-.25-1.55-.35.33-.45,1.54.25,1.55Zm41.91-1.03c.77,1.39.91,2.17,1.03,3.86.7-.24,1.77-.11,1.54-1.29-.74-.72-1.87-1.04-1.54-2.83-.45-.02-.8.06-1.03.26Zm132.65,2.06c.35.43.66.89,1.29,1.03,2.14-1.37-.95-4.05-1.29-1.03Zm-136.76,0c-.19,1.3.7,1.53.77,2.57,1.66-.06,1.98-1.45,1.8-3.35-.66-.41-1.99.29-2.57.77Zm-18.51,1.8c.2.06.51,0,.52.26.82-.03,1.13-.58,1.03-1.54-.3-.3-.91-.29-1.54-.26v1.54Zm74.55-1.54c-.89-.27-.72,1.04-1.8.77.23.98-.42,1.64,0,2.06,2.34,1.37,3.3-2.37,1.8-2.83Zm22.37,1.29c.65.46.96,1.27,2.31,1.03.29-.57.66-1.05.51-2.06-1.58.24-2.9-.85-2.83,1.03Zm85.61-.26c.68.08.66-.54.77-1.03h-.77v1.03Zm-103.34,1.03c.68,0,1.47.1,1.8-.26.49-2.42-3.12-1.56-1.8.26Zm72.75-1.54c-.86.65-.78,3.08,1.03,2.57.56-.88.26-2.72-1.03-2.57Zm6.68,2.31c1.27-.21,1.53-.71,2.57,0-.17-1.02.68-1.03.51-2.06-.95.18-1.1-.44-2.06-.26-.34.78-.74,1.48-1.03,2.31Zm-.51-1.29h.51v-.52h-.51v.52Zm-150.65,2.06h1.54c.18-.95-.44-1.1-.26-2.06-.45.02-.8-.06-1.03-.26-.63.45-.61,1.55-.26,2.32Zm-26.48-.77c-.11-.49.35-1.55-.51-1.29-.04.64-.05,1.25.51,1.29Zm187.92-.26c-.51-.69-1.71-.69-2.57-1.03-1.9,1.21,2.21,2.93,2.57,1.03Zm-58.36,2.32c-2.01,2.02-3.67,4.39-3.6,8.49,1.1,3.79,3.97,5.8,7.46,7.2,2.62,0,3.67-.02,5.91-.26,1.34-1.58,3.39-2.44,4.63-4.12,2.24-5.83-.17-13.88-5.91-13.89-3.41.03-5.23,1.48-8.48,2.57Zm22.62,15.43c4.08.73,9.98,1.37,11.83-2.06,1.5.3,1.42-.97,2.57-1.03.6-2.39,1.02-5.18.51-7.97-.87-.85-1.49-1.94-2.05-3.09-1.66-.41-3.15-2.1-4.89-2.83-.44-.18-1.4-.05-2.05-.26-.91-.28-2.38-1.44-3.6-.77-.61.33-1.13.51-1.8.77-2.12.84-1.78.88-3.09,2.06-1.23,1.1-1.83,1.98-2.31,3.34-.25,3.85.6,6.6,1.29,9.52,1.77.2,2.55,1.4,3.6,2.31Zm31.36-17.24c-.88-.26-3.12.07-3.09,1.54.3.98,1.4,1.17,2.83,1.03.26-.68.31-1.58.26-2.57Zm-160.93,2.32h1.29c.33-.72.63-1.27.26-2.06-1.58-.44-2.25,1.03-1.54,2.06Zm90.75.26c1.39.33,1.57-1.52,1.03-2.31h-1.03c.27,1.08-.54,1.74,0,2.31Zm-93.57-.26c.51-.35,1-.71.77-1.8-1.01-.16-1.85,1.45-.77,1.8Zm97.94-1.29c0,.68.1,1.47-.26,1.8,1.23.86,1.64,1.21,3.34,1.29,1.17-1.35.46-2.66-.51-3.6-1.13-.11-1.99.07-2.57.51Zm-29.3,2.06c.78-.17,1.48-.4,1.54-1.29-.18-.77-1.02-.86-2.06-.77-.15,1.01.22,1.49.52,2.06Zm7.2-1.54c0,1.62.73,2.53,2.57,2.32-.23-.83.85-.35.77-1.03-.38-.05-.24-.62-.26-1.03-.84-.56-1.98-.58-3.08-.26Zm79.69,2.32c.22-.72,1.49-.4,1.29-1.54-1.17-2.16-3.79.98-1.29,1.54Zm26.48,1.29c1.47-.24,1.11-2.32,1.8-3.34-2.36-1.03-2.11,2.2-1.8,3.34Zm-162.99-1.03c.39-.42.39-1.9,0-2.32h-1.03c-.19,1.31.25,1.97,1.03,2.32Zm84.84,1.03c.79-.15,1.34-.55,2.06-.77v-2.31c-2.2-1.28-3.28,1.58-2.06,3.09Zm46.02-1.8c.21.59,1.58.7,2.06.26.36-1.43-2.27-1.83-2.06-.26Zm-142.67,1.8c.44-.52.48-2.2-.77-1.8.04.82-.25,1.97.77,1.8Zm158.1.26c.07.53.69.5.77,1.03,1.52-.69,2.57-1.15,2.31-3.09-1.92-.21-2.84.59-3.08,2.06Zm-164.53.77c1.44.15,1.95-.62,1.8-2.06-1.11-.72-2.39,1.03-1.8,2.06Zm71.98-2.06c-.12.8.55.82,1.29.77v-1.03c-.6-.08-.99.04-1.29.26Zm-75.58,1.29c.8.12.82-.55.77-1.29h-.77c.15.82-.48.79,0,1.29Zm97.69.26c.27.92.75,1.64,1.54,2.06,2.04-1.69-.39-4.85-1.54-2.06Zm63.49-.26c.07-.59-.06-.97-.51-1.03-.3.38-.3.65,0,1.03l.13.13.13.13c-.21.05-.26.26-.52.26-.07.42.25.44.26.77.6-.09,1.21-.17,1.03-1.03h-.52l.13-.13-.13-.13Zm-166.07,1.8c1.23.03,2.08-.32,2.31-1.29-.96-.16-.96-1.27-2.31-1.03-.39.42-.39,1.9,0,2.32Zm168.64-.26c.73-.04,1.07-.47,1.8-.52-.02-.45.06-.8.26-1.03-1.06-1.12-2.81-.08-2.06,1.54Zm-181.49.51c.87-.24,1.95-.28,1.8-1.54-.79-2.07-3.6.27-1.8,1.54Zm84.83-.26c1.27.41,1.61-.89,1.03-1.54h-.77c-.3.3-.29.91-.26,1.54Zm105.66,1.29c1.16.04,1.28.31,2.06-.26-.01-.93.14-2.03-.51-2.32-1.1.27-1.81.93-1.54,2.57Zm-69.67,1.03c1.81.16,2.41-3.18-.26-3.34-1.41,1-1.21,3.22.26,3.34Zm-32.39-1.54c1.02.7,2.5.04,2.06-1.54-1.33-.12-2.04.36-2.06,1.54Zm9.51.52c1.34.23,2-.23,1.8-1.55-.75.07-.79-.58-1.54-.52-.42.62-.66,1.25-.26,2.06Zm-82.01.77c1.41.21,2.01-.39,1.8-1.8-1.43-.81-2.39.36-1.8,1.8Zm8.74.26c1.02-.01,1.53-.53,1.54-1.54-.22-.55-.63-.91-1.54-.77-.32,1.22-.77,1.45,0,2.31Zm146.27-.77c.49.11.65.55,1.29.51.57-.38,1.21-.68,1.03-1.8-.99-.67-2.34.13-2.31,1.29Zm32.65-.26c.34.46,1.49.79,2.06.26v-1.29c-.61,0-.76-.44-1.54-.26-.26.34-.25.95-.51,1.29Zm-28.02-.77v1.54c.56.38,1.1.78,2.06.77.46-.86.61-1.46.26-2.57-1.17-.3-1.54.96-2.31.26Zm-155.27,2.57c1.2,0,1.56-.85,1.8-1.8-.98-2-3.23.71-1.8,1.8Zm74.81-.26c.59-.98-.1-2.55-1.54-2.32-.14,1.43.24,2.33,1.54,2.32Zm90.75,2.06c.01-2.3,4.01-.62,3.34-3.6-.89.2-.99-.38-1.8-.26.08.68-.54.66-1.03.77.62,1.66-1.36,2.05-.51,3.09Zm-184.58-.77h1.8c.27-.73.27-1.07,0-1.8-1.4-.2-1.83.57-1.8,1.8Zm83.29.26c1.15.61,2.41.09,2.57-1.03-.68-1.15-3.02-1.04-2.57,1.03Zm4.37.26c.28.92,1.8.6,2.57,1.03.25-.68.5-2.2,0-2.83-1.58-.13-2.55.36-2.57,1.8Zm91.26.26c1.27-.16,1.74.49,2.31-.26.09-1.38-.64-1.93-2.06-1.8-.4.37-.23,1.32-.26,2.06Zm-98.71.77c1.38.09,1.93-.64,1.8-2.06-1.48-.96-2.59.62-1.8,2.06Zm38.3-2.31c-.72.66-2.09.65-2.06,2.06.2.06.3.22.26.51.37.4,1.31.23,2.06.26.28-.9.98-2.54-.26-2.83Zm58.87.26c0-.26-.45-.32-.52,0,.29-.03.4.38.52,0Zm-81.75.52c-.12.98.11,1.61.77,1.8.05-.38.62-.23,1.03-.26.34-.8-.07-.73,0-1.8-.68,0-1.47-.1-1.8.26Zm25.71,3.35c.6.35.85,1.03,2.06.77.65-.78.73-3.72-1.29-3.34-.21.9-.86,1.37-.77,2.57Zm48.07-.77c1.12-.01,1.18.38,1.8-.26.28-1.56-.91-1.66-2.31-1.54.19.58.23,1.32.51,1.8Zm4.37-.51v1.8c.86,0,.88.84,1.8.77-.2-1.06,1.23-.48,1.03-1.54-.32-.8-.57-1.66-1.54-1.8-.38.3-.63.74-1.29.77Zm-81.75,1.54c1.24-.05,1.69-.88,1.8-2.06h-1.8c-.32.8-.66,1.57,0,2.06Zm-93.32-.77c.02,1.27.7,1.87,1.8,2.06.5-.62.84-1.56.52-2.32-.66-.58-1.81-.1-2.31.26Zm78.15,1.8c1.12.8,2.19-.28,1.8-1.8-1.03.17-1.95.45-1.8,1.8Zm125.2-1.54c-.12.98.11,1.61.77,1.8.26-.51,1.14-.41,1.03-1.29-.38-.97-.68-.52-1.8-.52Zm-198.72,1.8c1.12.09,1.35-.71,1.54-1.54-1.05-.97-2.12.88-1.54,1.54Zm3.6.26c1.65.37,2.14-.93,1.54-2.06-1.58-.44-2.25,1.03-1.54,2.06Zm174.04.26c1.07-.22,2.27-.3,2.57-1.29-.95-1.48-3.82-1.12-2.57,1.29Zm-35.99,2.06c.6-.08.99.04,1.29.26.55-.62.79-1.84.51-2.57-.9-.43-1.42-.46-2.31-1.29-.3,1.41-.35,2.77.51,3.6Zm-50.38-.52h1.03c.25-.6.45-1.26.51-2.06-1.28-1.08-2.43.96-1.54,2.06Zm28.02-1.03v1.54c1.93,1.47,3.18-1.12,2.32-2.57-.76.35-1.69.54-2.32,1.03Zm-94.34-.26c-.04.63-.04,1.24.26,1.54.6-.09,1.06-.31,1.54-.51,0-.68.14-1.51-.52-1.54-.06.53-1.13.07-1.28.51Zm142.42,2.57c.77-.09,1.31-.41,1.8-.77.33-4.06-4.51-1.38-1.8.77Zm-80.72-.51c1.4.28,1.42-.81,1.54-1.8-.34-.26-.95-.25-1.29-.51-.52.34-.78,1.72-.26,2.32Zm86.64-1.03c.21.73.3,1.59.51,2.31.96-.58,2.05-1.04,2.06-2.57-.7-.57-2.06-.16-2.57.26Zm-177.64,2.31c.85.42,1.96.26,2.57-.26.15-.83-.17-1.2-.26-1.8-1.72-.27-2.44.48-2.31,2.06Zm128.02-.26c.91.12.9,1.15,2.06,1.03.92-.37,1.14-1.43,1.03-2.83-1.63,0-3.73-.48-3.08,1.8Zm38.56-.51c.2.06.3.21.26.51,1.38.1,2.34-.23,2.05-1.8-1.22-.02-2.45-.05-2.31,1.29Zm-90.75.77c1.14.11,1.4-.66,1.29-1.8-1.44-.23-2.15,1.19-1.29,1.8Zm67.35,1.03c.8.34.73-.07,1.8,0,1.94-2.98-2.49-3.86-1.8,0Zm59.13-1.8c.84.07,1.24-.31,1.28-1.03-.84-.07-1.24.31-1.28,1.03Zm-176.87.26c-.04.63-.04,1.24.26,1.55,1.13.32,2.29-1.67,1.03-2.06-.22.38-.83.37-1.29.51Zm135.48,2.32c1.01.15,1.49-.22,2.06-.52.09-3.54-4.99-1.58-2.06.52Zm4.88-2.32c0-.26-.45-.32-.51,0,.29-.02.4.38.51,0Zm-32.13.77c.06,1.06.64,1.59,1.28,2.06.23-.45.9-.47,1.29-.77-.27-.59-.16-1.55-.51-2.06-.91.03-2.07-.19-2.06.77Zm-55.01,1.03c1.04.18,1.47-.24,1.28-1.29h-1.28v1.29Zm29.3,0c.21.82.75,1.31,1.29,1.8.39-.68.85-2.25.26-3.09-.97-.03-1.38.5-1.54,1.29Zm31.88,1.54c.74-.12,1.17-.54,1.29-1.29-.09-.76-.45-1.27-1.03-1.54-.75.46-1.16,2.18-.26,2.83Zm33.42-.51c1.17.99,2.54-.42,3.6-.26-.11-.84-1.14-.74-1.03-1.8-.68,0-1.47.1-1.8-.26-.25.78-.91,1.15-.77,2.32Zm-150.65-1.8c-.33-.02-.36-.33-.77-.26-.63,1.68.7,1.94.77.26Zm144.47,1.03c.04-.34.04-1.86-.25-1.03-.04.34-.04,1.86.25,1.03Zm-3.08-.26c-.18.96.44,1.11.26,2.06,1.05-.21.88-.04,2.06,0,0-.68-.1-1.47.26-1.8-.63-.29-1.84-.86-2.57-.26Zm-91,2.83c1.94.18,1.58-3.18-.26-2.83-.56.75-.21,2.31.26,2.83Zm40.1-.26c.79-.27,1.48-1.61.77-2.57-1.85-.58-2.01,2.31-.77,2.57Zm65.3-1.29c.11-.49.55-.65.51-1.29h-.77c.14.38-.3,1.33.26,1.29Zm-160.41,1.29c.83-.12,1.49-.39,1.29-1.54-.3-.22-.69-.34-1.29-.26-.51.49-.12,1.22,0,1.8Zm149.87.51c1.42-.04,1.23,1.51,3.09,1.03.98-.83.72-1.91.26-3.09-1.77-.47-2.78.63-3.34,2.06Zm-9.51-1.03c.06.49-.29.57-.26,1.03.49,1.12,2.25,1.21,3.6.77.14-2.26-1.68-2.55-3.34-1.8Zm-134.96,1.55c1.16.14,1.68-.38,1.54-1.55-1.27-.24-1.78.27-1.54,1.55Zm-24.17-.77c.04,1.08,1.26,1.14,2.06.77.14-1.57-1.24-1.3-2.06-.77Zm189.98,2.06c1.3-.5,3.33-.27,3.09-2.31-1.92-.8-2.92.6-3.09,2.31Zm14.14,0c.33-.62,1.13-.76,1.03-1.8-.46-.23-.65-.72-1.54-.51-.19.62-.75,2.45.51,2.31Zm-97.95-.51c.37.66.83,1.23,2.06,1.03.42-.85.26-1.97-.26-2.57-1.21-.1-1.85.37-1.8,1.54Zm10.03.26c.07.53.7.51.77,1.03.96.1.67-1.04,1.8-.77.03-1.7-2.44-2.07-2.57-.26Zm-3.86,1.03c.66-.2.89-.82.77-1.8-.6-.08-.96-.41-1.8-.26-.08,1.11-.02,2.07,1.03,2.06Zm52.7.77c.81-.12,1,.37,1.54.52.11-.32.33-.53.77-.52v-1.54c-.64-.39-1.26-.79-2.06-1.03-.37.76-.78,1.62-.26,2.57Zm-153.99-.51c1.11,1.39,3.18-.18,2.06-1.8-1.62-.33-2.05.52-2.06,1.8Zm4.37-.26c1.28.21,1.88.3,1.8-1.29-.3-.3-.91-.29-1.54-.26-.3.3-.29.91-.26,1.54Zm4.37.51c1.02.71,2.5.04,2.06-1.54-.4-.48-1,.37-1.54-.26-.2.57-.54,1-.51,1.8Zm51.41,1.29c.36-.42.73-.81,1.03-1.29-.6-.43-.62-1.44-1.8-1.29-.66.68-.9,2.85.77,2.57Zm84.83.51c1.8.34,2.31-.61,2.06-2.31-1.57-.94-2.88.75-2.06,2.31Zm32.13-1.29v1.54c.71.15,1.07.64,1.8.77.41-.66.48-2.76-.26-3.09-.15.62-.97.57-1.54.77Zm-74.04,1.54c.61.47,1.49.67,2.31.26.61-2.71-2.57-2.41-2.31-.26Zm-8.74,0c.7.16.64,1.07,1.54,1.03.17-.34.55-.48,1.03-.51.87-2.57-2.9-2.72-2.57-.51Zm54.5,1.29c.62.16,1.17.37,2.06.26.54-.93.35-3-1.03-2.83-1.25-.05-1.03,1.37-1.03,2.57Zm-60.16.77c.32.1.53.33.52.77,1.62-.27,2.82-.95,3.34-2.31-.68-2.72-4.13-1.05-3.86,1.54Zm23.39-.52c1.38.18,1.8-.6,2.06-1.54-.79-2.29-3.97-.28-2.06,1.54Zm-11.57.26c.58-.66.1-1.81-.26-2.32h-1.54c-.18,1.55.1,2.64,1.8,2.32Zm6.94-.26c.48.21.94.43,1.54.52.51-.54.2-1.71,0-2.32-1.09.02-1.62.61-1.54,1.8Zm32.65.52c.8-.05,1.89.17,2.31-.26.16-2.04-1-2.01-2.31-2.06v2.32Zm-133.68.77c.2.06.51,0,.52.26,1.65.28,1.11-1.63,1.54-2.57-1.32-1.42-2.58.33-2.06,2.31Zm185.09-1.29c.54.15.73.64,1.54.52v-1.8c-.35.01-.56-.12-.77-.26-.36.41-.91.63-.77,1.54Zm-192.55-.26c.8.12,1.15-.22,1.03-1.03h-1.03v1.03Zm57.84,1.03c1.29.18,1.69-.53,1.54-1.8-1.24-1.1-2.5.71-1.54,1.8Zm28.28,1.03c.8-.32,1.66-.56,1.8-1.54-.21-1.16-.92-1.82-2.57-1.54-.63,1.22-.08,2.59.77,3.09Zm-8.22-.77c.5.53.8,1.26,1.8,1.29.41-.62.84-1.21.77-2.32-1.11-.85-2.3-.27-2.57,1.03Zm42.42.26c.49.88,1.27,1.47,2.83,1.29.37-.57.64-1.24.51-2.31-1.52-.57-3.22-1.24-3.34,1.03Zm-115.17-.26c.49-1.19-1-1.72-1.54-1.03.4.46.34,1.37,1.54,1.03Zm65.04,2.57c1.85-.12,2.99-3.25.77-3.86-1.21.55-1.66,2.63-.77,3.86Zm65.56-1.8c.5,1.28,2.12,1.56,3.08.52-.04-1.33-.53-2.22-1.54-2.57-.84.36-1.48.92-1.54,2.06Zm-145.5-.26c.8.12,1.14-.22,1.03-1.03-.7-.8-1.83.32-1.03,1.03Zm155.27-.52c.22,1.9,3.41.93,3.34-.51-1.55-.26-2.19.38-3.34.51Zm-28.28,2.06c1.16.04,1.16-1.24.77-2.06h-1.28c-.13.98.07,1.64.51,2.06Zm13.88-.51c0-.61.44-.76.26-1.54-1.05.21-.88.04-2.06,0-.03,1.14.46,1.77,1.8,1.54Zm-71.47-.26c.19.58.23,1.31.52,1.8,2.19,1.59,2.94-3.88.52-2.57-.53.08-.51.7-1.03.77Zm80.47-.26c.75.38.75-1.15,0-.77v.77Zm37.79,1.29c1-.02,1.87-.18,2.06-1.03-.53-1.71-3.12-.79-2.06,1.03Zm-103.6.26c.29,1.08,1.77,1.29,2.57.51.18-2.05-2.45-2.83-2.57-.51Zm25.71.26c.61-.69-.03-1.68-.77-1.8-.45.52-.49,2.2.77,1.8Zm8.23-.26c.72.05.32,1.22,1.29,1.03,2.95-.95-1.05-4.4-1.29-1.03Zm17.99,1.29c.48-.46.94-.94.77-2.06-.5-.36-1.04-.68-1.8-.77-.6,1.04-.87,3,1.03,2.83Zm14.4-1.29c.59.26.83.88,1.8.77.74-.53.52-1.7,0-2.31-1.54-.42-1.51.72-1.8,1.54Zm-75.06.77c.73.21.67-.36,1.29-.26,0-.68.1-1.47-.26-1.8h-.77c-.4.37-.23,1.32-.26,2.06Zm30.59.52c.57-.7.16-2.07-.26-2.57-2.34-.46-1.74,3.08.26,2.57Zm-13.11.51c1.42.22,1.86-.54,2.31-1.29-.36-2.84-4.36-.92-2.31,1.29Zm6.43-1.29c.49.11.65.56,1.29.52.66-.85-.08-2.02-1.03-2.06,0,.61-.44.76-.26,1.54Zm23.39,0c.33.36,1.22.16,1.54.52.36-.33.16-1.21.52-1.54-.49-.29-1.21-.33-1.8-.51-.3.3-.29.91-.26,1.54Zm16.2-1.54c-.2.06-.51,0-.52.26.2-.06.51,0,.52-.26Zm-123.39,3.6h1.29c.24-.56.74-3.21-.26-3.34-.99.37-1.66,2.17-1.03,3.34Zm49.36-2.57c.18.2,1.53.67,1.29-.26-.11-.57-1.41-.25-1.29.26Zm77.12,1.03c.19,1.02,2.15,1.31,2.83,1.03-.05-.8.17-1.89-.26-2.31-1.15.39-2.36-.34-2.57,1.29Zm-26.22,0c.04-.56-.21-.82-.77-.77-.04.56.21.82.77.77Zm85.6-.26c-.19,1.64.41,2.5,2.06,2.32.92-1.61-.59-3.7-2.06-2.32Zm-17.22,2.06c.62.59,2.35.85,2.31-.52-.64-.48-.74-1.49-2.05-1.29-.36.33-.26,1.12-.26,1.8Zm-180.72,2.57c.96.1,1.51-.21,1.54-1.03-.49-.11-.47-.73-1.29-.52-.17.54-.68,1.15-.26,1.54Zm4.11-.26c-.08,1.19.45,1.78,1.54,1.8.05-.29.29-.4.51-.51.12-1.19-1.14-1.95-2.06-1.29Zm4.88,0c-.12.81.32,1.05.77,1.29.29-.3.29-.91.26-1.54-.45-.02-.8.06-1.03.26Zm170.44,1.29c.69,1.2,1.15,2.62,3.34,2.31.82-.84.85-2.03.26-3.09-1.68-.67-2.7-.42-3.6.77Zm16.2,0c1.05.58,2.42.68,2.57-.77-1.37.15-2.43-.78-2.57.77Zm-198.46,2.57c1.16.14,1.68-.38,1.54-1.54-1.11-.81-2.38.47-1.54,1.54Zm3.08.52c.93.15,1.81-1.08,1.03-1.8-.71.21-1.56,1.14-1.03,1.8Zm196.15-1.29c.14,1.66,1.79,1.82,2.83,2.57.11-.32.33-.53.77-.52.22-2.38-1.65-2.48-3.6-2.06Zm-20.82,2.57c1.01.53,1.54,1.55,3.34,1.29.16-.87.74-1.32.51-2.57-1.1-.53-2.03-1.23-3.6-1.29-.46.49-.18,1.7-.26,2.57Zm-170.7-.52c-.29,1.35,1.16,1.94,2.06,1.29.12-.81-.37-1.01-.51-1.54-.63-.03-1.24-.04-1.54.26Zm-3.09,2.32c.8-.14,1.58-.31,1.54-1.29-.82-.69-1.96-.06-1.54,1.29Zm191.01.26c.7.59.83,1.75,1.8,2.06-.19-.96.29-1.25,1.03-1.29-.27-.59-.16-1.55-.52-2.06-.99-.45-1.87.45-2.31,1.29Zm-195.63.51c.77,0,1.56.02,1.54-.77-.26-.6-.88-.83-1.8-.77-.04.63-.04,1.24.26,1.54Zm200.77,1.03c1.04.65,2.76.12,2.57-1.29-.69-1.08-2.8-.16-2.57,1.29Zm-24.16,1.03c.32.88,1.2,1.2,2.57,1.03.23-.71.62-1.27.77-2.06-.76-1.24-3.7-1.05-3.34,1.03Zm-172.75,1.29c.65.27,1.14-.87.52-1.03-.11.4-.81.22-.52,1.03Zm3.08-.51c.05.72.45,1.1,1.29,1.03v-1.29c-.6-.08-.99.04-1.29.26Zm186.38,1.8c.35.25.51.69.77,1.03,1.9.36,1.96-1.12,2.31-2.32-1.24-1-2.77-.08-3.09,1.29Zm-193.58.26c1.09.15,1.8-.09,1.54-1.29-1.1-.15-1.8.09-1.54,1.29Zm199.23.77h1.8c0-.95-.39-1.49-.77-2.06-1.82-.19-1.54,1.05-1.03,2.06Zm-27.25,1.54c.97.11,1.21-.51,1.8-.77.73-3.73-3.09-1.05-1.8.77Zm-146.27-.26c1.14-.14,1.82-.75,2.06-1.8-1.33-1.4-3.34.41-2.06,1.8Zm22.37-.52c.46.23.65.72,1.54.52.41-.83.12-1.39,0-2.32-1.33-.21-1.57.66-1.54,1.8Zm-27.51-1.29c-.07.84.3,1.24,1.03,1.29.05-.29.28-.4.51-.52.06-.48-.29-.57-.26-1.03-.59-.08-.98.04-1.28.26Zm34.7,1.8c.93,0,1.13-.76,1.03-1.8-.3-.3-.91-.29-1.54-.26-.12.98.07,1.64.51,2.06Zm-12.08.26c.66-.2.89-.82.77-1.8-.33-.35-1.12-.25-1.8-.26-.08,1.11-.02,2.07,1.03,2.06Zm28.28-1.8c-.45.64.24,1.86,1.29,1.8.51-.51.16-1.47,0-2.06-.6-.08-.99.04-1.29.26Zm77.89,1.8c.53.24,1.02.53,1.54.77.29-.56.66-1.05.51-2.06-.48-.21-.94-.43-1.54-.51-.22.56-.67.88-.52,1.8Zm53.21,0c1.51.14,2.61-.13,2.57-1.54-1.54-.43-2.56-.15-2.57,1.54Zm-192.55,0c0-.78.15-1.7-.77-1.54-.48.51-.38,1.89.77,1.54Zm4.37-.26c1.1.15,1.8-.09,1.54-1.29-1.09-.15-1.8.09-1.54,1.29Zm22.11.26c1.04.1,1.49-.4,1.29-1.54h-1.54c-.04.63-.04,1.24.26,1.54Zm103.6,1.29c.63.03,1.24.04,1.54-.26.2-1.83-.56-2.7-2.31-2.57-.56.88-.3,2.77.77,2.83Zm-109.26-1.03c1.04.19,1.47-.24,1.29-1.29-.49.06-.57-.29-1.03-.26-.29.3-.29.91-.26,1.54Zm34.96.26c.6-.08,1.06-.31,1.54-.51.06-.92-.37-1.35-1.29-1.29-.2.55-.62,1.44-.26,1.8Zm12.08.26c.3-.3.29-.91.26-1.54-.55-.21-.88-.67-1.8-.52-.53,1.07.34,1.97,1.54,2.06Zm2.83-1.8c.06.79.26,1.46.52,2.06.87.1,1.1-.45,1.54-.77-.58-.11,0-1.36-.51-1.54-.63-.03-1.24-.04-1.54.26Zm29.05,1.03c.03.65.37,1,1.03,1.03.75-.28.83-1.22.77-2.32-.93.1-1.64.42-1.8,1.29Zm34.71-1.03c-.03.97.5,1.38,1.29,1.54.29-.3.29-.91.25-1.54-.81.13-1-.56-1.54,0Zm10.8,2.06c1.31.67,2.1-.37,2.31-2.06-.3-.29-.91-.29-1.54-.26-.01,1.02-.57,1.49-.77,2.32Zm6.17-.52c.77.36,1.57.3,1.8-.51-.53-.41-.81-1.08-1.54-1.29-.35.33-.25,1.12-.26,1.8Zm-100.77.26h1.54c0-.68.1-1.47-.26-1.8-1.31-.13-1.66.97-1.29,1.8Zm30.85.52c1.01.15,1.49-.22,2.06-.52.27-2.65-3.51-1.81-2.06.52Zm12.34-.52c.79.37,1.16.12,1.8-.26v-1.29c-1.38-.86-3.02.32-1.8,1.54Zm61.96-.26c.61.08.48.89,1.29.77.64-.39,1.17-.88,1.28-1.8-1.04-.83-2.54-.51-2.57,1.03Zm-80.21.52c1.19,1,2.87-1.02,1.54-1.8-.89.13-1.62.59-1.54,1.8Zm34.96-.26c1.41,1.08,2.6-.1,1.54-1.54-1.02.01-1.53.53-1.54,1.54Zm6.94,0c.35,1.34,2.3,1.72,2.57,0-.35-1.73-2.24-1.84-2.57,0Zm48.07,1.29c.58.5,1.93.22,2.57,0-.06-.83.46-1.09.26-2.06-1.38-1.3-4.2-.07-2.83,2.06Zm-42.16-1.03h1.54c.36-1.96-1.56-1.16-1.54,0Zm-128.54,0c.18-.95-.4-1.14-1.29-1.03-.39,1.16.99.55,1.29,1.03Zm92.03-.77c-.08,1.03.49,1.39,1.54,1.29.3-.3.29-.91.26-1.54-.96.18-.67.12-1.8.25Zm100.52,3.35c-.29-1.31,1.11-.95,1.8-1.29.19-1.29.09-1.26-.26-2.31-1.62-.11-2.87,2.43-1.54,3.6Zm-83.04-1.8c1.03-.08,1.43.46,2.57.26-.07-.75.58-.79.51-1.54-.71-.19-3.47-.91-3.09,1.29Zm76.35.51c1.5.31,1.58-.81,2.05-1.54-.86-1.07-2.41-.11-2.05,1.54Zm-191.26-.26c.87.44,1.95.24,1.8-1.03-.72-.59-2.04-.14-1.8,1.03Zm53.47.77c.78.08.92.79,2.06.51.68-1.14.06-2.89-1.54-2.57-.25.61-.45,1.27-.52,2.06Zm-15.43-1.54c.15.91,1.39,1.7.52,2.83.73.3.98,1.08,2.31.77.76-.78.59-2.53,0-3.34-1.37.38-2.29-.61-2.83-.26Zm162.73,1.54c.47.39.6,1.11,1.03,1.54,1.4.11,2.59.02,2.31-1.54-.3-.55-1.1-.62-.77-1.8h-.77c.42,2.02-1.51,1.02-1.8,1.8Zm-188.18-.52c-.12.81.37,1.01.52,1.54,1.71.5,2.22-1.25,1.54-2.31-.85.09-1.68.2-2.06.77Zm7.46,1.03v-1.29c-2.51-2.18-3.05,2.88,0,1.29Zm25.71,1.54c.97-.33,1.08-2.73.26-3.34-2.77-.41-2.35,3.32-.26,3.34Zm28.28-.77c1.28,0,1.43-1.14,1.8-2.06-.56-.21-.88-.67-1.8-.51-.39.47-.39,2.1,0,2.57Zm-65.55,0c.51-.54.2-1.71,0-2.32h-1.03c-.66.91-.03,2.31,1.03,2.32Zm14.39-1.29c.2.66.82.89,1.8.77,0-.68.1-1.47-.26-1.8-.96-.1-1.51.21-1.54,1.03Zm5.91,1.29h1.29c.63-.45.61-1.55.26-2.32-2.1-.75-2.62,1.42-1.54,2.32Zm20.82-2.06c-.03.97.5,1.38,1.28,1.54,0-.51.7-.33.52-1.03-.39-.41-1.14-1.14-1.8-.51Zm109.26,2.32c.55.56,1.62.6,2.57.77.16-.79.55-1.34.77-2.06-.93-1.59-3.88-1.78-3.34,1.29Zm-100.52-.26c.74-.03,1.68.14,2.06-.26v-1.54c-1.25-.86-2.93.49-2.06,1.8Zm10.54-1.03c.06.37.42.43.51.77,1.27.08,1.88-.53,1.8-1.8-1.14-.02-2.28-.05-2.31,1.03Zm55.53.77c.33.53.41,1.3,1.29,1.29.74-.64,1.81-.93,1.8-2.31-.6-1.53-3.32-.6-3.08,1.03Zm-90.23,1.03c1.06-.14,1.35-1.05,1.29-2.31-1.78-1.39-3.45,1.94-1.29,2.31Zm46.27-.26c.69-.77-.06-1.65-.26-2.32h-1.28c.08,1.21.18,2.39,1.54,2.32Zm2.57-1.03c.37.4,1.31.23,2.05.26.21-.48.43-.94.52-1.54-1.43-.14-2.45.12-2.57,1.29Zm5.14,1.29c.99.05,1.89.01,2.57-.26-.23-.97-.61-1.79-1.29-2.32-.58.71-1.64.93-1.29,2.57Zm64.78,0c.43.43,1.51.21,2.31.26-.2-.97.31-1.23.26-2.06-.63-.14-.55-1-1.54-.77-.35.85-.67,1.73-1.03,2.57Zm-88.17-2.06c-.21,1.32.65,1.57,1.8,1.54.15-.84-.18-1.2-.26-1.8-.63-.03-1.24-.04-1.54.26Zm77.63,2.06c.78.42,1.38,1.02,2.83.77-.23-1.05-.2-2.37-.77-3.09-1.65-.19-2.24.67-2.06,2.31Zm29.05-1.29c.03,1.09.69,1.54,1.54,1.8.46-.23.75-.62,1.28-.77.22-2.62-1.62-1.89-2.83-1.03Zm12.6-.77c.47,1.16.77,2.49,2.57,2.31.07-.36.56-.29.77-.51v-1.8c-.91.07-2.34-.43-3.34,0Zm-35.22,1.8c.99-.04,1.48-.58,1.8-1.29-.06-.8-1.28-.43-2.06-.51,0,.68-.1,1.47.26,1.8Zm17.74,1.03c1.8.51,1.81-1.84,1.29-2.83-2.25-.49-1.89,1.73-1.29,2.83Zm12.85-2.32c-.42,1.97,1.29,2.57,2.57,2.06.6-.68.04-1.75,0-2.57-.82.21-1.89.16-2.57.51Zm-77.12,2.06c.48-.46.59-1.3.77-2.06-.43-.43-1.51-.21-2.31-.26-.16,1.45.56,2.01,1.54,2.31Zm4.11-2.06c-.21.48-.43.94-.52,1.54.77.52,1.14,1.43,2.57,1.29,1.1-1.86.86-3.72-2.06-2.83Zm30.59,1.54c.45.68,1.86.68,2.31,0,.03-.8-.31-1.23-.52-1.8-1.45-.25-1.88.52-1.8,1.8Zm-42.16.26c.6.85,1.97.32,2.06-.77-.38-1.62-2.23-.92-2.06.77Zm35.99,0c.46.58,1.3.61,2.06.26.2-1.23-.36-1.7-1.03-2.06-.44.51-1.29.59-1.03,1.8Zm63.24-.51c.82-.04,1.97.25,1.8-.77-.24-.45-.8-.57-1.54-.52-.22.3-.34.69-.26,1.29Zm-75.58,0c.11.74.54,1.17,1.28,1.29.38-.13.65-.38,1.03-.52v-1.8c-1.3-.19-1.85.38-2.31,1.03Zm-5.91-.26c-.03.97.5,1.38,1.29,1.54.67-.36,1.11-.95,1.03-2.06-1.07-.13-1.74.14-2.31.52Z"/>
  <g>
    <path class="cls-1" d="m40.11,56.98c.08-.17.16-.36.26-.51"/>
    <path class="cls-2" d="m188.57,161.56h.51"/>
  </g>
</svg>